<svg width="370" height="372" viewBox="0 0 370 372" fill="none" xmlns="http://www.w3.org/2000/svg">
<g clip-path="url(#clip0_466_1924)">
<rect x="-27" y="-25" width="423" height="423" fill="#E82A43"/>
<path d="M-4.56188 96.5231V274.048H28.724L27.1707 206.588H30.4992L43.1479 274.048H75.3242V271.829L58.6813 197.047C70.8861 185.064 77.5433 172.637 77.5433 150.446C77.5433 116.051 56.2403 96.5231 28.2802 96.5231H-4.56188ZM28.724 123.152H29.8335C37.6002 123.152 44.2574 129.143 44.2574 140.904V165.314C44.2574 177.075 37.6002 183.066 29.8335 183.066H28.724V123.152ZM89.8669 191.943C89.8669 252.967 106.51 276.267 135.358 276.267C164.205 276.267 180.848 252.967 180.848 191.943V178.628C180.848 117.604 164.205 94.3041 135.358 94.3041C106.51 94.3041 89.8669 117.604 89.8669 178.628V191.943ZM126.481 132.25C126.481 124.927 130.032 120.933 135.358 120.933C140.683 120.933 144.234 124.927 144.234 132.25V237.211C144.234 244.534 140.683 248.529 135.358 248.529C130.032 248.529 126.481 244.534 126.481 237.211V132.25ZM195.778 96.5231V274.048H224.626L222.407 191.943H224.626L236.831 274.048H259.022L271.226 191.943H273.445L271.226 274.048H300.074V96.5231H263.46L249.036 191.943H246.817L232.393 96.5231H195.778ZM329.644 96.5231L313.001 271.829V274.048H344.068L347.84 231.886H360.267L364.039 274.048H395.106V271.829L378.463 96.5231H329.644ZM348.062 203.038L352.944 142.014H355.163L360.045 203.038H348.062ZM408.037 96.5231V274.048H439.104L435.776 185.285H437.995L456.857 274.048H485.705V96.5231H454.638L457.966 185.285H455.747L436.885 96.5231H408.037Z" fill="#C21B38"/>
<path d="M295.392 340.625H295.379L292.431 341.318L289.901 341.92V341.933C289.947 342.194 290.646 346.319 290.614 353.123V353.162C290.607 353.835 290.601 354.528 290.581 355.254C290.45 360.15 289.934 366.183 288.627 373H76.9785C76.5145 366.509 76.9589 360.136 77.6517 354.809C77.6648 354.744 77.6714 354.679 77.6714 354.62L77.6844 354.567C78.7368 346.658 80.3383 341.129 80.3383 341.129L78.1224 340.377L77.24 340.076L74.9915 339.318C75.0895 338.926 75.1875 338.534 75.2856 338.142C75.3901 337.736 75.5013 337.331 75.6124 336.926C75.6843 336.658 75.7628 336.396 75.8347 336.135C75.985 335.605 76.1419 335.076 76.3053 334.553C76.4229 334.161 76.5471 333.769 76.6778 333.383C76.6843 333.35 76.6975 333.311 76.7171 333.272C77.0504 332.239 77.4099 331.213 77.7956 330.193C77.7956 330.174 77.8021 330.161 77.8151 330.141C77.887 329.938 77.959 329.742 78.0374 329.54C78.312 328.821 78.5995 328.102 78.9002 327.389C78.9002 327.363 78.9198 327.337 78.9329 327.317C79.044 327.03 79.1682 326.742 79.2924 326.461C79.7957 325.284 80.3252 324.128 80.8873 322.977C81.0834 322.565 81.2925 322.154 81.5017 321.742C81.5017 321.722 81.5213 321.696 81.5344 321.676C81.6913 321.356 81.8547 321.042 82.0246 320.722C82.0377 320.702 82.0442 320.676 82.0638 320.657C82.2076 320.369 82.358 320.088 82.5148 319.807C82.6325 319.572 82.7632 319.336 82.8939 319.101C82.9331 319.029 82.9724 318.957 83.0116 318.879C83.1816 318.572 83.3581 318.271 83.528 317.964C83.9137 317.297 84.3058 316.63 84.7045 315.977C84.8745 315.683 85.0575 315.401 85.234 315.114C85.4497 314.767 85.6654 314.421 85.8876 314.081L86.1229 313.709C86.3125 313.421 86.502 313.14 86.6916 312.852C86.7831 312.708 86.8746 312.571 86.9726 312.427C86.9661 312.421 86.9726 312.414 86.9857 312.408C87.0184 312.336 87.0707 312.271 87.123 312.199C87.1492 312.153 87.1752 312.107 87.2145 312.061C87.319 311.918 87.4171 311.78 87.5152 311.637C87.6721 311.408 87.8355 311.172 87.9923 310.944C88.0185 310.891 88.0512 310.846 88.1035 310.793C88.1623 310.702 88.2276 310.61 88.293 310.525C88.3126 310.493 88.3323 310.466 88.3519 310.434C88.3519 310.434 88.3518 310.434 88.3649 310.421C88.5675 310.14 88.7702 309.865 88.9728 309.584C89.2277 309.231 89.4826 308.885 89.744 308.538C89.7898 308.466 89.8421 308.394 89.9074 308.323C90.1035 308.061 90.3062 307.8 90.5088 307.538C90.6134 307.388 90.7245 307.244 90.8487 307.1C91.1886 306.675 91.5219 306.244 91.8684 305.826C91.8749 305.806 91.888 305.786 91.9142 305.767C91.9272 305.747 91.9403 305.728 91.9533 305.708C91.986 305.669 92.0187 305.63 92.0579 305.59C92.3651 305.218 92.6658 304.852 92.973 304.492C92.9665 304.479 92.9796 304.473 92.9992 304.46C93.0319 304.407 93.0711 304.361 93.1234 304.309C93.1234 304.303 93.1234 304.296 93.143 304.29C93.9339 303.361 94.7379 302.446 95.568 301.544C95.7706 301.316 95.9864 301.087 96.1955 300.865C96.4308 300.61 96.6596 300.361 96.9014 300.119C97.1694 299.832 97.4439 299.544 97.725 299.257C97.7969 299.185 97.8688 299.106 97.9472 299.034C98.274 298.701 98.6009 298.374 98.9342 298.041L99.0127 297.962C99.5552 297.433 100.098 296.91 100.653 296.387C101.202 295.864 101.764 295.348 102.327 294.838C102.451 294.72 102.575 294.609 102.699 294.498C102.915 294.302 103.131 294.112 103.353 293.929C103.412 293.871 103.47 293.818 103.529 293.766C103.686 293.629 103.843 293.491 104 293.354C104.137 293.237 104.261 293.126 104.399 293.014C104.863 292.616 105.327 292.223 105.797 291.838C106.026 291.648 106.255 291.465 106.484 291.282C106.66 291.132 106.843 290.982 107.026 290.838C107.366 290.557 107.699 290.289 108.046 290.027C108.098 289.988 108.151 289.949 108.203 289.91C108.608 289.596 109.02 289.282 109.432 288.968C109.432 288.968 109.432 288.955 109.432 288.962C109.634 288.811 109.837 288.661 110.04 288.504C110.255 288.334 110.477 288.171 110.7 288.014C110.804 287.929 110.909 287.857 111.013 287.785C111.059 287.746 111.098 287.713 111.144 287.687C111.399 287.504 111.667 287.315 111.929 287.132C112.014 287.073 112.099 287.014 112.183 286.949C112.203 286.922 112.229 286.909 112.249 286.903C112.366 286.805 112.491 286.72 112.615 286.641C112.811 286.511 113.007 286.373 113.21 286.236C114.922 285.053 116.681 283.909 118.478 282.811C118.89 282.556 119.308 282.308 119.72 282.059C119.72 282.046 119.72 282.046 119.733 282.046C119.753 282.027 119.779 282.014 119.805 282.001C119.811 282.001 119.818 281.987 119.831 282.001C120.06 281.857 120.289 281.719 120.517 281.595C120.74 281.465 120.975 281.334 121.204 281.203C122.779 280.301 124.374 279.432 126.008 278.595C126.041 278.569 126.08 278.556 126.112 278.536C126.224 278.477 126.328 278.425 126.439 278.373C126.492 278.347 126.55 278.321 126.603 278.294C127.106 278.04 127.609 277.791 128.119 277.543C128.622 277.294 129.132 277.046 129.649 276.804C130.675 276.32 131.708 275.85 132.753 275.392C133.316 275.144 133.884 274.902 134.453 274.66C134.871 274.49 135.29 274.314 135.708 274.15C136.218 273.948 136.728 273.745 137.237 273.542C137.46 273.451 137.688 273.366 137.911 273.274C138.198 273.163 138.486 273.059 138.773 272.954C139.002 272.869 139.238 272.784 139.473 272.699C139.754 272.588 140.035 272.49 140.323 272.386C140.885 272.183 141.447 271.987 142.016 271.791C142.578 271.595 143.146 271.405 143.722 271.215C143.82 271.183 143.918 271.15 144.016 271.118C144.349 271.006 144.682 270.902 145.016 270.791C145.016 270.791 145.016 270.784 145.022 270.791C145.101 270.758 145.179 270.732 145.258 270.712C145.271 270.706 145.284 270.699 145.297 270.706C145.303 270.693 145.31 270.693 145.323 270.693C145.356 270.673 145.388 270.666 145.428 270.66C145.428 270.66 145.428 270.653 145.434 270.66C145.898 270.516 146.362 270.372 146.826 270.235C146.944 270.189 147.055 270.157 147.173 270.131C147.754 269.961 148.33 269.791 148.911 269.627C149.598 269.438 150.284 269.248 150.977 269.072C151.278 268.987 151.585 268.915 151.885 268.836C152.245 268.745 152.604 268.647 152.971 268.555C153.389 268.451 153.807 268.353 154.225 268.255C155.605 267.934 156.99 267.627 158.389 267.339C158.853 267.241 159.317 267.15 159.788 267.065C160.409 266.947 161.036 266.836 161.664 266.725C162.219 266.627 162.775 266.529 163.331 266.437C163.912 266.339 164.507 266.248 165.095 266.163C165.618 266.084 166.135 266.013 166.658 265.947C166.893 265.908 167.128 265.875 167.37 265.849C167.625 265.816 167.873 265.784 168.128 265.751C168.769 265.666 169.41 265.588 170.057 265.522C170.573 265.463 171.089 265.405 171.612 265.359C172.933 265.228 174.26 265.117 175.599 265.026C176.162 264.986 176.724 264.947 177.286 264.914C178.39 264.856 179.502 264.803 180.613 264.771C181.234 264.751 181.855 264.731 182.476 264.725C182.502 264.725 182.535 264.725 182.561 264.725H182.567C182.619 264.725 182.678 264.725 182.731 264.725C183.025 264.712 183.319 264.712 183.613 264.705C184.077 264.699 184.535 264.699 184.999 264.699H185.038C185.77 264.699 186.502 264.705 187.234 264.718C187.234 264.718 187.254 264.718 187.26 264.718C187.483 264.718 187.705 264.725 187.927 264.731C187.953 264.725 187.973 264.725 187.992 264.731C188.051 264.725 188.104 264.725 188.162 264.731C188.823 264.745 189.483 264.764 190.143 264.79C190.967 264.816 191.784 264.856 192.601 264.901C192.627 264.901 192.653 264.901 192.679 264.908C193.47 264.947 194.261 264.999 195.045 265.058C195.098 265.065 195.15 265.065 195.209 265.071C195.875 265.117 196.542 265.176 197.202 265.235C198.209 265.326 199.209 265.424 200.209 265.535C200.869 265.607 201.523 265.686 202.176 265.777C202.405 265.803 202.634 265.83 202.863 265.862C203.627 265.96 204.386 266.071 205.137 266.183C206.307 266.359 207.471 266.549 208.628 266.758C209.02 266.823 209.406 266.895 209.798 266.973C209.987 267 210.177 267.039 210.366 267.078C210.87 267.169 211.373 267.268 211.87 267.372C211.955 267.385 212.04 267.405 212.125 267.424C212.321 267.464 212.523 267.503 212.72 267.549C213.223 267.653 213.726 267.758 214.229 267.875C216.158 268.3 218.06 268.771 219.949 269.287C220.524 269.438 221.099 269.601 221.668 269.764C221.844 269.817 222.014 269.862 222.191 269.915C222.616 270.032 223.041 270.163 223.459 270.287C223.576 270.327 223.701 270.359 223.818 270.398C225.995 271.065 228.139 271.784 230.25 272.555C230.616 272.686 230.976 272.823 231.335 272.954C231.897 273.17 232.453 273.379 233.008 273.601C233.499 273.791 233.982 273.98 234.466 274.183C236.002 274.811 237.519 275.464 239.009 276.144C239.225 276.242 239.447 276.34 239.663 276.438C240.839 276.987 241.996 277.543 243.14 278.118C243.427 278.262 243.715 278.406 243.996 278.549C245.951 279.556 247.859 280.602 249.729 281.693C250.336 282.053 250.938 282.412 251.533 282.778C252.16 283.157 252.781 283.543 253.396 283.942C253.435 283.961 253.474 283.988 253.507 284.007C254.114 284.399 254.722 284.792 255.324 285.197C255.945 285.609 256.559 286.027 257.167 286.452C257.821 286.909 258.468 287.367 259.102 287.831C259.363 288.021 259.618 288.21 259.873 288.4C260.468 288.831 261.056 289.276 261.638 289.733C261.925 289.955 262.213 290.184 262.501 290.413C263.082 290.87 263.658 291.334 264.226 291.799C264.501 292.034 264.775 292.263 265.05 292.491C266.168 293.426 267.266 294.387 268.331 295.374C268.861 295.864 269.39 296.354 269.913 296.858C270.429 297.355 270.946 297.858 271.455 298.368C272.005 298.917 272.541 299.466 273.07 300.021C273.279 300.244 273.488 300.459 273.697 300.682C273.952 300.956 274.207 301.231 274.456 301.499C276.626 303.852 278.652 306.296 280.528 308.826C280.959 309.388 281.371 309.957 281.77 310.532C281.973 310.813 282.175 311.101 282.378 311.388C282.777 311.963 283.169 312.545 283.554 313.127C283.744 313.421 283.933 313.709 284.123 314.003C284.509 314.591 284.881 315.179 285.234 315.774C288.149 320.526 290.568 325.513 292.457 330.697C292.503 330.808 292.542 330.919 292.581 331.03C292.66 331.246 292.738 331.455 292.803 331.67C292.921 331.997 293.032 332.324 293.143 332.651C294.026 335.252 294.771 337.9 295.379 340.586C295.379 340.599 295.385 340.612 295.385 340.625H295.392Z" fill="#FFD19D"/>
<path d="M250.108 360.809L290.744 355.234L289.901 341.926L249.944 351.181L250.108 360.809Z" fill="#E99F6F"/>
<path d="M121.975 362.13L77.6387 354.803L80.3382 341.122L121.975 351.182V362.13Z" fill="#E99F6F"/>
<path d="M295.392 340.625H295.379L292.431 341.318L289.901 341.919V341.932H289.888L270.24 346.488L249.944 351.188V373H121.674V351.711L101.993 346.586H101.987L95.7837 344.972L95.6857 344.946L89.7245 343.396H89.7049L78.1224 340.377L77.24 340.076L74.9915 339.318C75.0895 338.926 75.1875 338.533 75.2856 338.141C75.3901 337.736 75.5013 337.331 75.6124 336.925C75.6516 336.788 75.6843 336.651 75.7235 336.507C75.7627 336.383 75.7955 336.259 75.8347 336.135C75.985 335.605 76.1419 335.076 76.3053 334.553C76.4229 334.161 76.5471 333.768 76.6778 333.383C76.6843 333.35 76.6975 333.311 76.7171 333.272C77.0504 332.239 77.4099 331.213 77.7956 330.193C77.7956 330.173 77.8021 330.16 77.8151 330.141C77.887 329.938 77.959 329.742 78.0374 329.539C78.312 328.82 78.5995 328.101 78.9002 327.389C78.9002 327.363 78.9198 327.337 78.9329 327.317C79.044 327.029 79.1682 326.742 79.2924 326.461C79.7957 325.284 80.3252 324.127 80.8873 322.977C81.0834 322.565 81.2925 322.153 81.5017 321.741C81.5017 321.722 81.5213 321.696 81.5344 321.676C81.6913 321.356 81.8547 321.042 82.0246 320.722C82.0377 320.702 82.0442 320.676 82.0638 320.656C82.2076 320.369 82.358 320.088 82.5148 319.807C82.6325 319.571 82.7632 319.336 82.8939 319.101C82.9331 319.029 82.9724 318.957 83.0116 318.879C83.1816 318.571 83.3581 318.271 83.528 317.963C83.9137 317.297 84.3058 316.63 84.7045 315.976C84.8352 315.754 84.9725 315.538 85.1032 315.316C85.149 315.251 85.1882 315.185 85.234 315.114C85.4497 314.767 85.6654 314.421 85.8876 314.081C86.1491 313.669 86.4171 313.257 86.6916 312.852C86.9596 312.44 87.2341 312.035 87.5152 311.636C87.7113 311.349 87.9074 311.068 88.1035 310.793C88.1623 310.702 88.2276 310.61 88.293 310.525C88.3126 310.492 88.3323 310.466 88.3519 310.433C88.3519 310.433 88.3518 310.434 88.3649 310.42C88.5675 310.139 88.7702 309.865 88.9728 309.584L89.2277 309.231C89.2277 309.231 89.2538 309.185 89.2734 309.165C89.4238 308.95 89.5806 308.741 89.744 308.538C89.7898 308.466 89.8421 308.394 89.9074 308.322C90.1035 308.061 90.3062 307.799 90.5088 307.538C90.6134 307.388 90.7245 307.244 90.8487 307.1C91.1886 306.675 91.5219 306.244 91.8684 305.825C91.8749 305.806 91.888 305.786 91.9142 305.766C91.9272 305.747 91.9403 305.727 91.9533 305.708C91.986 305.668 92.0187 305.629 92.0579 305.59C92.3651 305.218 92.6658 304.851 92.973 304.492C92.9665 304.479 92.9796 304.472 92.9992 304.459C93.0319 304.407 93.0711 304.361 93.1234 304.309C93.1234 304.302 93.1234 304.296 93.143 304.289C93.9339 303.361 94.7379 302.446 95.568 301.544C95.666 301.433 95.7707 301.322 95.8687 301.211C95.9798 301.093 96.0844 300.975 96.1955 300.864C96.4308 300.609 96.6596 300.361 96.9014 300.119C97.2478 299.753 97.5943 299.394 97.9472 299.034C98.274 298.701 98.6009 298.374 98.9342 298.041L99.0127 297.962C99.5552 297.433 100.098 296.91 100.653 296.387C101.202 295.864 101.764 295.348 102.327 294.838C102.666 294.53 103.006 294.223 103.353 293.929C103.412 293.87 103.47 293.818 103.529 293.766C103.817 293.517 104.111 293.262 104.399 293.014C104.863 292.615 105.327 292.223 105.797 291.838C106.026 291.648 106.255 291.465 106.484 291.282C107.046 290.818 107.621 290.36 108.203 289.909C108.608 289.596 109.02 289.282 109.432 288.968C109.432 288.968 109.432 288.955 109.432 288.961C109.634 288.811 109.837 288.661 110.04 288.504C110.255 288.334 110.477 288.171 110.7 288.014C110.804 287.929 110.909 287.857 111.013 287.785C111.059 287.746 111.098 287.713 111.144 287.687C111.399 287.504 111.667 287.314 111.929 287.131C112.014 287.073 112.099 287.014 112.183 286.948C112.203 286.922 112.229 286.909 112.249 286.903C112.569 286.68 112.883 286.458 113.21 286.236C114.922 285.053 116.681 283.909 118.478 282.811C118.89 282.556 119.308 282.307 119.72 282.059C119.759 282.039 119.798 282.013 119.831 281.994C120.289 281.726 120.746 281.458 121.204 281.196C122.779 280.294 124.374 279.425 126.008 278.588C126.152 278.516 126.295 278.438 126.439 278.366C126.492 278.34 126.55 278.314 126.603 278.288C127.106 278.033 127.609 277.784 128.119 277.536C128.622 277.288 129.132 277.039 129.649 276.797C130.675 276.314 131.708 275.843 132.753 275.385C133.727 274.961 134.714 274.549 135.708 274.144C136.218 273.941 136.728 273.738 137.237 273.536C137.747 273.34 138.257 273.143 138.773 272.947C139.002 272.862 139.238 272.777 139.473 272.692C139.754 272.581 140.035 272.483 140.323 272.379C140.885 272.176 141.447 271.98 142.016 271.784C142.578 271.588 143.146 271.398 143.722 271.209C143.82 271.176 143.918 271.143 144.016 271.111C144.349 271 144.682 270.895 145.022 270.784C145.114 270.758 145.205 270.725 145.297 270.699C145.303 270.686 145.31 270.686 145.323 270.686C145.356 270.666 145.388 270.66 145.428 270.653C145.428 270.653 145.428 270.647 145.434 270.653C145.898 270.509 146.362 270.365 146.826 270.228C146.944 270.182 147.055 270.15 147.173 270.124C147.754 269.954 148.33 269.784 148.911 269.62C149.598 269.431 150.284 269.241 150.977 269.065C151.232 268.993 151.493 268.921 151.748 268.856C152.153 268.744 152.559 268.64 152.971 268.548C153.389 268.444 153.807 268.346 154.225 268.248C155.605 267.927 156.99 267.62 158.389 267.333C158.853 267.235 159.317 267.143 159.788 267.058C160.409 266.94 161.036 266.829 161.664 266.718C162.219 266.62 162.775 266.522 163.331 266.431C163.912 266.333 164.507 266.241 165.095 266.156C165.618 266.078 166.135 266.006 166.658 265.94C166.893 265.901 167.128 265.868 167.37 265.842C167.625 265.81 167.873 265.777 168.128 265.744C168.769 265.659 169.41 265.581 170.057 265.515C170.573 265.457 171.089 265.398 171.612 265.352C172.933 265.221 174.26 265.11 175.599 265.019C176.162 264.979 176.724 264.94 177.286 264.908C178.39 264.849 179.502 264.796 180.613 264.764C181.234 264.744 181.855 264.725 182.476 264.718C182.502 264.718 182.535 264.718 182.561 264.718H182.567C182.619 264.718 182.678 264.718 182.731 264.718C183.025 264.705 183.319 264.705 183.613 264.698C184.077 264.692 184.535 264.692 184.999 264.692H185.038C185.77 264.692 186.502 264.698 187.234 264.712C187.234 264.712 187.254 264.712 187.26 264.712C187.483 264.712 187.705 264.718 187.927 264.725C187.953 264.718 187.973 264.718 187.992 264.725C188.051 264.718 188.104 264.718 188.162 264.725C188.823 264.738 189.483 264.757 190.143 264.783C190.967 264.81 191.784 264.849 192.601 264.895C192.627 264.895 192.653 264.895 192.679 264.901C193.47 264.94 194.261 264.993 195.045 265.051C195.098 265.058 195.15 265.058 195.209 265.065C195.875 265.11 196.542 265.169 197.202 265.228C198.209 265.319 199.209 265.417 200.209 265.529C200.869 265.6 201.523 265.679 202.176 265.77C202.405 265.797 202.634 265.823 202.863 265.855C203.627 265.953 204.386 266.065 205.137 266.176C206.307 266.352 207.471 266.542 208.628 266.751C209.02 266.816 209.406 266.888 209.798 266.967C209.987 266.993 210.177 267.032 210.366 267.071C210.87 267.163 211.373 267.261 211.87 267.365C211.955 267.378 212.04 267.398 212.125 267.418C212.321 267.457 212.523 267.496 212.72 267.542C213.223 267.646 213.726 267.751 214.229 267.869C216.158 268.293 218.06 268.764 219.949 269.28C220.524 269.431 221.099 269.594 221.668 269.758C221.844 269.81 222.014 269.856 222.191 269.908C222.616 270.026 223.041 270.156 223.459 270.281C223.576 270.32 223.701 270.352 223.818 270.392C225.995 271.058 228.139 271.777 230.25 272.549C230.616 272.679 230.976 272.817 231.335 272.947C231.897 273.163 232.453 273.372 233.008 273.594C233.499 273.784 233.982 273.974 234.466 274.176C236.002 274.804 237.519 275.457 239.009 276.137C239.225 276.235 239.447 276.333 239.663 276.431C240.839 276.98 241.996 277.536 243.14 278.111C243.427 278.255 243.715 278.399 243.996 278.543C245.951 279.549 247.859 280.595 249.729 281.686C250.336 282.046 250.938 282.406 251.533 282.772C252.16 283.151 252.781 283.536 253.396 283.935C253.435 283.955 253.474 283.981 253.507 284C254.114 284.393 254.722 284.785 255.324 285.19C255.945 285.602 256.559 286.02 257.167 286.445C257.821 286.903 258.468 287.36 259.102 287.824C259.363 288.014 259.618 288.203 259.873 288.393C260.468 288.824 261.056 289.269 261.638 289.726C261.925 289.949 262.213 290.177 262.501 290.406C263.082 290.864 263.658 291.328 264.226 291.792C264.501 292.027 264.775 292.256 265.05 292.485C266.168 293.419 267.266 294.38 268.331 295.367C268.861 295.857 269.39 296.348 269.913 296.851C270.429 297.348 270.946 297.851 271.455 298.361C272.005 298.91 272.541 299.459 273.07 300.015C273.279 300.237 273.488 300.452 273.697 300.675C273.952 300.949 274.207 301.224 274.456 301.492C276.626 303.845 278.652 306.289 280.528 308.819C280.959 309.381 281.371 309.95 281.77 310.525C281.973 310.806 282.175 311.094 282.378 311.381C282.777 311.957 283.169 312.538 283.554 313.12C283.744 313.414 283.933 313.702 284.123 313.996C284.509 314.584 284.881 315.172 285.234 315.767C288.149 320.519 290.568 325.506 292.457 330.69C292.503 330.801 292.542 330.912 292.581 331.023C292.66 331.239 292.738 331.448 292.803 331.664C292.921 331.991 293.032 332.317 293.143 332.644C294.026 335.246 294.771 337.893 295.379 340.579C295.379 340.592 295.385 340.605 295.385 340.619L295.392 340.625Z" fill="#750024"/>
<path d="M270.331 346.88L264.841 348.175V348.188L249.944 351.639V372.993H121.674V351.704L78.1224 340.37L74.9915 339.311C82.2795 309.185 107.137 284.321 140.329 272.372C146.709 271.431 153.271 270.947 159.978 270.947C173.475 270.947 186.417 272.921 198.405 276.542C235.067 287.615 262.801 314.068 270.24 346.482C270.272 346.612 270.299 346.75 270.331 346.88Z" fill="#930027"/>
<path d="M239.669 276.438C238.63 282.314 235.878 287.772 231.812 292.504C222.805 302.982 207.346 309.898 189.783 309.898C162.638 309.898 140.519 293.374 139.479 272.692C139.473 272.686 139.473 272.679 139.479 272.673C141.296 272 143.146 271.366 145.022 270.784C145.022 270.784 145.022 270.777 145.029 270.784C145.107 270.751 145.186 270.725 145.264 270.705C145.277 270.699 145.29 270.692 145.303 270.699C145.31 270.686 145.316 270.686 145.329 270.686C145.362 270.666 145.395 270.66 145.434 270.653C145.434 270.653 145.434 270.647 145.44 270.653C145.905 270.509 146.369 270.365 146.833 270.228C146.95 270.182 147.061 270.15 147.179 270.124C148.689 269.666 150.212 269.241 151.755 268.856C152.16 268.744 152.565 268.64 152.977 268.548C153.395 268.444 153.814 268.346 154.232 268.248C155.611 267.914 156.997 267.607 158.396 267.333C158.86 267.235 159.324 267.143 159.794 267.058C160.415 266.94 161.043 266.829 161.67 266.718C162.226 266.62 162.781 266.522 163.337 266.431C163.919 266.333 164.514 266.241 165.102 266.156C165.625 266.078 166.141 266.006 166.664 265.94C166.899 265.901 167.135 265.868 167.377 265.842C167.631 265.81 167.88 265.777 168.135 265.744C168.775 265.659 169.416 265.581 170.063 265.515C170.579 265.457 171.096 265.398 171.619 265.352C172.939 265.221 174.266 265.11 175.606 265.019C176.168 264.979 176.73 264.94 177.292 264.908C178.397 264.849 179.508 264.796 180.619 264.764C181.24 264.744 181.861 264.725 182.482 264.718C182.508 264.718 182.541 264.718 182.567 264.718H182.574C182.92 264.718 183.267 264.705 183.619 264.698C184.084 264.692 184.541 264.692 185.005 264.692H185.044C185.776 264.692 186.508 264.698 187.241 264.712C187.345 264.712 187.456 264.712 187.561 264.712H187.594C187.731 264.712 187.862 264.712 187.999 264.725C188.058 264.718 188.11 264.718 188.169 264.725C188.829 264.738 189.489 264.757 190.149 264.783C190.973 264.81 191.79 264.849 192.607 264.895C192.633 264.895 192.659 264.895 192.685 264.901C193.476 264.94 194.267 264.993 195.052 265.051C195.104 265.058 195.156 265.058 195.215 265.065C195.882 265.11 196.548 265.169 197.209 265.228C198.215 265.319 199.215 265.417 200.215 265.529C200.875 265.6 201.529 265.679 202.183 265.77C202.412 265.797 202.64 265.823 202.869 265.855C203.634 265.953 204.392 266.065 205.144 266.176C206.314 266.352 207.477 266.542 208.634 266.751C209.026 266.816 209.412 266.888 209.804 266.967C209.994 266.993 210.183 267.032 210.373 267.071C210.876 267.163 211.379 267.261 211.876 267.365C211.961 267.378 212.046 267.398 212.131 267.418C212.327 267.457 212.53 267.496 212.726 267.542C213.229 267.646 213.733 267.751 214.236 267.869C216.164 268.293 218.066 268.764 219.955 269.28C220.53 269.431 221.106 269.594 221.674 269.758C221.851 269.81 222.021 269.856 222.197 269.908C222.622 270.026 223.047 270.156 223.465 270.281C223.583 270.32 223.707 270.352 223.825 270.392C226.001 271.058 228.145 271.777 230.257 272.549C230.623 272.679 230.982 272.817 231.342 272.947C231.904 273.163 232.459 273.372 233.015 273.594C233.505 273.784 233.989 273.974 234.472 274.176C236.009 274.804 237.525 275.457 239.015 276.137C239.231 276.235 239.453 276.333 239.669 276.431V276.438Z" fill="#750024"/>
<path d="M295.385 340.579H295.372L270.292 346.39L270.22 346.41L249.624 351.181L249.493 342.802L267.723 337.821L267.815 337.795L292.581 331.023H292.588C293.718 334.141 294.653 337.331 295.385 340.579Z" fill="#DADADA"/>
<path d="M270.292 346.39L270.22 346.41L249.624 351.182L249.493 342.802L267.723 337.821L267.815 337.795C268.802 340.606 269.632 343.475 270.292 346.39Z" fill="white"/>
<path d="M74.9915 339.311L77.1811 340.056L101.176 346.39L101.248 346.41L121.844 351.181L121.975 342.802L103.745 337.821L103.653 337.795L80.3383 330.847L77.7956 330.187C76.6648 333.304 75.7235 336.063 74.9915 339.311Z" fill="white"/>
<path d="M223.465 271.019C223.328 276.019 221.655 280.7 218.824 284.752C212.831 293.341 201.64 299.119 188.822 299.119C169.978 299.119 154.657 286.635 154.186 271.078C154.18 270.83 154.173 270.588 154.173 270.339C154.173 269.79 154.193 269.254 154.232 268.712C162.795 266.418 171.776 265.058 181.044 264.757C181.521 264.738 182.005 264.725 182.482 264.718C182.508 264.718 182.541 264.718 182.567 264.718H182.574C182.92 264.718 183.267 264.705 183.62 264.698C184.084 264.692 184.541 264.692 185.005 264.692H185.044C185.776 264.692 186.509 264.698 187.241 264.712C187.241 264.712 187.26 264.712 187.267 264.712C187.365 264.712 187.463 264.712 187.561 264.712H187.594C187.705 264.712 187.822 264.718 187.934 264.725C187.96 264.718 187.979 264.718 187.999 264.725C200.431 265.025 212.36 267.215 223.465 271.013V271.019Z" fill="white"/>
<path d="M223.465 271.019C223.328 276.019 221.655 280.7 218.824 284.752C212.831 293.341 201.64 299.119 188.822 299.119C169.978 299.119 154.657 286.635 154.186 271.078C154.18 270.83 154.173 270.588 154.173 270.339C154.173 269.79 154.193 269.254 154.232 268.712C162.795 266.418 171.776 265.058 181.044 264.757C181.521 264.738 182.005 264.725 182.482 264.718C182.508 264.718 182.541 264.718 182.567 264.718H182.574C182.92 264.718 183.267 264.705 183.62 264.698C184.084 264.692 184.541 264.692 185.005 264.692H185.044C185.776 264.692 186.509 264.698 187.241 264.712C187.241 264.712 187.26 264.712 187.267 264.712C187.365 264.712 187.463 264.712 187.561 264.712H187.594C187.705 264.712 187.822 264.718 187.934 264.725C187.96 264.718 187.979 264.718 187.999 264.725C200.431 265.025 212.36 267.215 223.465 271.013V271.019Z" stroke="black" stroke-width="2.61455" stroke-miterlimit="10"/>
<path d="M289.888 341.92V341.933C289.888 341.933 289.895 341.978 289.908 342.018C290.019 342.704 290.62 346.652 290.6 352.94C290.6 353.679 290.587 354.456 290.568 355.26C290.437 360.15 289.921 366.183 288.613 373H76.9654C76.5013 366.509 76.9458 360.13 77.6386 354.803C77.6452 354.79 77.6452 354.783 77.6452 354.77C78.6975 346.75 80.3251 341.129 80.3251 341.129L77.181 340.063L74.9783 339.318C75.0306 339.115 75.0763 338.913 75.1351 338.71C75.1744 338.547 75.2202 338.39 75.2659 338.233C75.2725 338.2 75.2789 338.174 75.2855 338.142C75.3639 337.847 75.4424 337.553 75.5208 337.259C75.5927 337.011 75.645 336.762 75.7234 336.507C75.8149 336.135 75.926 335.769 76.0306 335.403C76.1352 335.063 76.2332 334.73 76.3444 334.39C78.0177 329.017 80.2532 323.827 83.0115 318.879C83.1815 318.572 83.358 318.271 83.5279 317.964C84.0247 317.075 84.5541 316.192 85.1031 315.317C85.4299 314.774 85.7699 314.238 86.1228 313.709C86.3908 313.277 86.6718 312.852 86.9725 312.427C86.966 312.421 86.9725 312.414 86.9856 312.408C87.0183 312.336 87.0706 312.271 87.1229 312.199C87.1491 312.153 87.1751 312.107 87.2144 312.061C87.4627 311.689 87.7242 311.316 87.9922 310.944C88.0184 310.891 88.0511 310.846 88.1034 310.793C88.1622 310.702 88.2275 310.61 88.2929 310.525C88.3125 310.493 88.3322 310.466 88.3518 310.434C88.3518 310.434 88.3517 310.434 88.3648 310.421C88.6393 310.022 88.9269 309.623 89.2276 309.231C89.2342 309.205 89.2537 309.185 89.2733 309.166C89.4237 308.95 89.5805 308.741 89.7439 308.538C89.7897 308.466 89.842 308.394 89.9073 308.323C90.1034 308.061 90.3061 307.8 90.5087 307.538C90.6133 307.388 90.7244 307.244 90.8486 307.1C91.1885 306.675 91.5218 306.244 91.8683 305.826C91.8748 305.806 91.8879 305.786 91.9141 305.767C91.9206 305.747 91.9271 305.734 91.9532 305.721C91.9532 305.715 91.9532 305.708 91.9532 305.708C91.9859 305.669 92.0186 305.63 92.0578 305.59C92.3651 305.218 92.6657 304.852 92.9729 304.492C92.9664 304.479 92.9795 304.473 92.9991 304.46C93.0318 304.407 93.071 304.361 93.1233 304.309C93.1233 304.303 93.1233 304.296 93.1429 304.29C94.0122 303.25 94.9208 302.224 95.8686 301.211C96.4634 300.551 97.0843 299.897 97.7249 299.257C98.1171 298.845 98.5223 298.433 98.9341 298.041L99.0126 297.962C100.085 296.897 101.183 295.864 102.307 294.858C102.307 294.858 102.32 294.845 102.326 294.838C102.451 294.72 102.575 294.609 102.699 294.498C102.961 294.263 103.222 294.034 103.483 293.805C103.496 293.792 103.51 293.779 103.529 293.766C103.686 293.629 103.843 293.491 104 293.354C104.137 293.237 104.261 293.126 104.399 293.014C104.863 292.616 105.327 292.223 105.797 291.838C106.203 291.491 106.614 291.158 107.026 290.838C107.366 290.557 107.699 290.289 108.046 290.027C108.503 289.661 108.968 289.308 109.432 288.968C109.432 288.968 109.432 288.955 109.432 288.962C109.634 288.811 109.837 288.661 110.039 288.504C110.255 288.334 110.477 288.171 110.7 288.014C110.804 287.929 110.909 287.857 111.013 287.785C111.059 287.746 111.098 287.713 111.144 287.687C111.399 287.504 111.667 287.315 111.928 287.132C112.013 287.073 112.098 287.014 112.183 286.949C112.203 286.922 112.229 286.909 112.249 286.903C112.366 286.805 112.491 286.72 112.615 286.641C112.811 286.511 113.007 286.373 113.21 286.236C113.504 286.034 113.811 285.837 114.112 285.635C115.236 284.87 116.386 284.125 117.55 283.399C117.863 283.203 118.171 283.001 118.484 282.811C118.896 282.55 119.315 282.308 119.726 282.059C119.726 282.046 119.726 282.046 119.739 282.046C119.759 282.027 119.785 282.014 119.811 282.001C119.818 282.001 119.824 281.987 119.837 282.001C120.066 281.857 120.295 281.719 120.524 281.595C120.746 281.465 120.981 281.334 121.21 281.203C121.334 281.131 121.465 281.059 121.589 280.994C123.073 280.144 124.583 279.321 126.119 278.536C128.825 277.144 131.609 275.85 134.459 274.66C135.603 274.176 136.754 273.712 137.917 273.274C138.433 273.065 138.956 272.869 139.479 272.68C141.296 272.006 143.146 271.372 145.022 270.791C145.022 270.791 145.022 270.784 145.029 270.791C145.107 270.758 145.186 270.732 145.264 270.712C145.277 270.706 145.29 270.699 145.303 270.706C145.31 270.693 145.316 270.693 145.329 270.693C145.362 270.673 145.395 270.666 145.434 270.66C145.434 270.66 145.434 270.653 145.44 270.66C145.905 270.516 146.369 270.372 146.833 270.235C146.95 270.189 147.062 270.157 147.179 270.131C148.689 269.673 150.212 269.248 151.755 268.862C152.16 268.751 152.565 268.647 152.977 268.555C153.395 268.451 153.814 268.353 154.232 268.255C155.611 267.921 156.997 267.614 158.396 267.339C158.86 267.241 159.324 267.15 159.794 267.065C160.415 266.947 161.043 266.836 161.67 266.725C162.226 266.627 162.782 266.529 163.337 266.437C163.919 266.339 164.514 266.248 165.102 266.163C165.625 266.084 166.141 266.013 166.664 265.947C166.899 265.908 167.135 265.875 167.377 265.849C167.631 265.816 167.88 265.784 168.135 265.751C168.775 265.666 169.416 265.588 170.063 265.522C170.579 265.463 171.096 265.405 171.619 265.359C172.939 265.228 174.266 265.117 175.606 265.026C176.168 264.986 176.73 264.947 177.292 264.914C178.397 264.856 179.508 264.803 180.619 264.771C180.763 264.764 180.9 264.758 181.044 264.764C181.521 264.744 182.005 264.731 182.482 264.725C182.508 264.725 182.541 264.725 182.567 264.725H182.574C182.626 264.725 182.685 264.725 182.737 264.725C183.489 264.705 184.247 264.699 185.005 264.699H185.044C185.776 264.699 186.509 264.705 187.241 264.718C187.345 264.718 187.456 264.718 187.561 264.718H187.594C187.731 264.718 187.862 264.718 187.999 264.731C188.058 264.725 188.11 264.725 188.169 264.731C188.829 264.745 189.489 264.764 190.149 264.79C190.973 264.816 191.79 264.856 192.607 264.901C192.633 264.901 192.659 264.901 192.685 264.908C193.476 264.947 194.267 264.999 195.052 265.058C195.104 265.065 195.156 265.065 195.215 265.071C195.882 265.117 196.548 265.176 197.209 265.235C198.215 265.326 199.215 265.424 200.215 265.535C200.876 265.607 201.529 265.686 202.183 265.777C202.412 265.803 202.64 265.83 202.869 265.862C203.634 265.96 204.392 266.071 205.144 266.183C206.314 266.359 207.477 266.549 208.634 266.758C209.026 266.823 209.412 266.895 209.804 266.973C209.994 267 210.183 267.039 210.373 267.078C210.876 267.169 211.38 267.268 211.876 267.372C211.961 267.385 212.046 267.405 212.131 267.424C212.327 267.464 212.53 267.503 212.726 267.549C213.229 267.653 213.733 267.758 214.236 267.875C216.164 268.3 218.066 268.771 219.955 269.287C220.53 269.438 221.106 269.601 221.674 269.764C221.851 269.817 222.021 269.862 222.197 269.915C222.74 270.072 223.289 270.235 223.825 270.398C226.001 271.065 228.145 271.784 230.257 272.555C230.623 272.686 230.982 272.823 231.342 272.954C231.904 273.17 232.459 273.379 233.015 273.601C233.505 273.791 233.989 273.98 234.473 274.183C236.009 274.811 237.525 275.464 239.015 276.144C239.231 276.242 239.453 276.34 239.669 276.438C240.846 276.987 242.002 277.543 243.146 278.118C243.434 278.262 243.721 278.406 244.003 278.549C245.957 279.556 247.866 280.602 249.735 281.693C250.343 282.053 250.944 282.412 251.539 282.778C252.167 283.157 252.787 283.543 253.402 283.942C253.441 283.961 253.48 283.988 253.513 284.007C254.121 284.399 254.729 284.792 255.33 285.197C255.951 285.609 256.565 286.027 257.173 286.452C257.827 286.909 258.474 287.367 259.108 287.831C259.37 288.021 259.625 288.21 259.879 288.4C260.474 288.838 261.063 289.282 261.644 289.733C261.932 289.955 262.219 290.184 262.507 290.413C263.089 290.87 263.664 291.334 264.233 291.799C264.507 292.034 264.782 292.263 265.056 292.491C266.174 293.433 267.266 294.394 268.338 295.374C268.867 295.864 269.396 296.354 269.919 296.858C270.436 297.355 270.952 297.858 271.462 298.368C272.011 298.917 272.547 299.466 273.076 300.021C273.286 300.244 273.495 300.459 273.704 300.682C273.959 300.956 274.214 301.231 274.462 301.499C276.619 303.858 278.652 306.303 280.534 308.826C280.953 309.388 281.371 309.957 281.776 310.532C281.979 310.813 282.182 311.101 282.384 311.388C282.783 311.963 283.175 312.545 283.561 313.127C283.75 313.421 283.94 313.709 284.129 314.003C284.509 314.591 284.875 315.179 285.241 315.774C288.13 320.506 290.542 325.467 292.431 330.618C292.444 330.644 292.45 330.67 292.463 330.697C292.503 330.808 292.542 330.919 292.581 331.03C292.659 331.246 292.738 331.461 292.81 331.67C292.927 331.997 293.039 332.324 293.15 332.651C294.026 335.252 294.764 337.9 295.372 340.593C295.372 340.606 295.379 340.612 295.379 340.625L292.431 341.318L289.901 341.92H289.888Z" stroke="black" stroke-width="2.61455" stroke-miterlimit="10"/>
<path d="M80.3381 341.122L121.975 351.182V372.993" stroke="black" stroke-width="2.61455" stroke-miterlimit="10"/>
<path d="M292.431 341.318L249.944 351.181V372.993" stroke="black" stroke-width="2.61455" stroke-miterlimit="10"/>
<path d="M249.944 351.181V342.547L292.431 330.611" stroke="black" stroke-width="2.61455" stroke-miterlimit="10"/>
<path d="M121.975 351.181V342.547L77.8086 330.141" stroke="black" stroke-width="2.61455" stroke-miterlimit="10"/>
<path d="M214.759 275.582C213.994 276.059 210.693 290.825 188.045 289.955C160.742 288.903 162.043 275.628 161.33 275.131L162.16 265.261L165.076 230.455H209.294L210.706 244.129L214.759 275.582Z" fill="#FFD19D"/>
<path d="M210.706 244.136C203.549 261.091 176.887 264.634 162.16 265.268L165.076 230.461H209.294L210.706 244.136Z" fill="#E99F6F"/>
<path d="M214 276.053L209.288 230.461H165.069L161.324 275.138C161.324 275.138 162.958 289.956 188.038 289.962C212.216 289.962 214 276.059 214 276.059V276.053Z" stroke="black" stroke-width="2.61455" stroke-miterlimit="10"/>
<path d="M261.81 197.407C267.67 186.283 266.668 174.234 259.571 170.495C252.474 166.757 241.971 172.744 236.11 183.868C230.25 194.993 231.253 207.041 238.349 210.78C245.446 214.519 255.95 208.531 261.81 197.407Z" fill="#E99F6F"/>
<path d="M261.81 197.407C267.67 186.283 266.668 174.234 259.571 170.495C252.474 166.757 241.971 172.744 236.11 183.868C230.25 194.993 231.253 207.041 238.349 210.78C245.446 214.519 255.95 208.531 261.81 197.407Z" stroke="black" stroke-width="2.61455" stroke-miterlimit="10"/>
<path d="M260.572 182.824C260.572 182.824 259.474 176.902 255.788 177.582C251.663 178.346 250.729 181.85 250.833 190.772C250.938 199.694 248.925 201.877 245.781 202.93" stroke="black" stroke-width="2.61455" stroke-miterlimit="10" stroke-linecap="round"/>
<path d="M137.826 210.582C144.922 206.843 145.925 194.795 140.065 183.67C134.205 172.546 123.701 166.559 116.604 170.297C109.507 174.036 108.505 186.084 114.365 197.209C120.225 208.333 130.729 214.32 137.826 210.582Z" fill="#E99F6F"/>
<path d="M137.826 210.582C144.922 206.843 145.925 194.795 140.065 183.67C134.205 172.546 123.701 166.559 116.604 170.297C109.507 174.036 108.505 186.084 114.365 197.209C120.225 208.333 130.729 214.32 137.826 210.582Z" stroke="black" stroke-width="2.61455" stroke-miterlimit="10"/>
<path d="M115.543 182.824C115.543 182.824 116.641 176.902 120.328 177.582C124.452 178.346 125.387 181.85 125.282 190.772C125.178 199.694 127.191 201.877 130.335 202.93" stroke="black" stroke-width="2.61455" stroke-miterlimit="10" stroke-linecap="round"/>
<path d="M246.565 172.085C246.565 188.001 242.59 202.741 235.832 214.82H235.825C225.204 233.815 207.68 246.208 187.868 246.208C185.776 246.208 183.711 246.07 181.678 245.796C180.815 245.685 179.959 245.547 179.109 245.384C178.893 245.345 178.678 245.299 178.462 245.253C178.194 245.201 177.933 245.149 177.671 245.083C177.573 245.064 177.475 245.044 177.384 245.018C177.063 244.953 176.743 244.874 176.423 244.789C176.024 244.698 175.632 244.593 175.246 244.482C175.05 244.43 174.854 244.377 174.664 244.319C174.37 244.234 174.076 244.149 173.782 244.051C173.233 243.887 172.697 243.704 172.161 243.515C171.756 243.377 171.35 243.227 170.952 243.077C170.52 242.913 170.089 242.743 169.664 242.567C168.742 242.188 167.834 241.782 166.938 241.351C166.585 241.181 166.226 241.005 165.88 240.822C165.494 240.632 165.115 240.429 164.736 240.22C164.396 240.037 164.056 239.854 163.722 239.658C163.468 239.514 163.219 239.37 162.971 239.22C162.637 239.031 162.317 238.828 161.99 238.625C161.755 238.482 161.526 238.338 161.291 238.181C158.912 236.658 156.624 234.932 154.447 233.017C154.121 232.736 153.807 232.448 153.487 232.161C153.166 231.867 152.839 231.566 152.526 231.259C152.205 230.958 151.892 230.651 151.578 230.337C151.264 230.023 150.95 229.71 150.643 229.389C150.336 229.069 150.029 228.749 149.728 228.415C149.421 228.089 149.127 227.762 148.826 227.422C148.238 226.768 147.669 226.102 147.114 225.422C146.813 225.056 146.519 224.69 146.225 224.311C145.944 223.951 145.662 223.592 145.388 223.226C145.153 222.912 144.911 222.585 144.669 222.265C144.355 221.827 144.041 221.389 143.734 220.944C143.617 220.775 143.499 220.598 143.381 220.428C143.381 220.428 143.377 220.424 143.368 220.415C143.244 220.232 143.12 220.042 142.996 219.859C142.741 219.474 142.486 219.082 142.231 218.689C141.982 218.304 141.734 217.905 141.492 217.506C141.244 217.108 141.002 216.709 140.767 216.304C140.525 215.898 140.29 215.493 140.061 215.081C139.826 214.669 139.597 214.258 139.374 213.839C138.688 212.591 138.041 211.31 137.433 210.003C137.276 209.676 137.126 209.342 136.969 209.009C136.721 208.466 136.479 207.917 136.244 207.362C136.054 206.917 135.864 206.466 135.681 206.015C135.492 205.564 135.315 205.113 135.139 204.656C134.962 204.198 134.786 203.734 134.616 203.277C134.446 202.813 134.283 202.348 134.119 201.878C133.956 201.414 133.792 200.943 133.642 200.472C133.485 200.002 133.335 199.525 133.185 199.048C132.884 198.093 132.609 197.132 132.348 196.158C132.08 195.185 131.831 194.204 131.603 193.211C131.498 192.76 131.394 192.309 131.296 191.858C131.276 191.792 131.263 191.72 131.25 191.655C131.145 191.178 131.047 190.694 130.949 190.21C130.851 189.707 130.753 189.204 130.662 188.694C130.57 188.191 130.485 187.681 130.4 187.164C130.4 187.158 130.4 187.145 130.393 187.138C130.315 186.635 130.237 186.132 130.158 185.628C130.001 184.596 129.871 183.556 129.759 182.51C129.714 182.086 129.668 181.661 129.622 181.229C129.596 180.935 129.57 180.641 129.544 180.347C129.511 180.027 129.485 179.713 129.465 179.393C129.374 178.281 129.308 177.164 129.263 176.039C129.243 175.686 129.23 175.334 129.223 174.974C129.21 174.608 129.204 174.242 129.197 173.876C129.184 173.281 129.178 172.686 129.178 172.085C129.178 171.484 129.184 170.837 129.197 170.216C129.204 169.712 129.217 169.209 129.237 168.706C129.243 168.568 129.25 168.438 129.256 168.307C129.276 167.784 129.295 167.261 129.328 166.745C129.393 165.62 129.472 164.509 129.576 163.398C129.851 160.404 130.269 157.457 130.825 154.581C130.923 154.064 131.028 153.554 131.132 153.045C131.132 153.038 131.139 153.025 131.139 153.012C131.256 152.469 131.374 151.927 131.498 151.391C131.603 150.933 131.707 150.482 131.818 150.025C131.871 149.822 131.923 149.613 131.975 149.41C132.322 148.044 132.701 146.698 133.106 145.371C133.185 145.116 133.263 144.867 133.341 144.619C133.472 144.207 133.603 143.796 133.74 143.39C133.91 142.874 134.087 142.358 134.27 141.841C134.485 141.227 134.714 140.619 134.943 140.011C135.093 139.606 135.25 139.2 135.413 138.802C135.57 138.41 135.727 138.017 135.891 137.625C136.152 137.011 136.413 136.396 136.681 135.788C136.891 135.318 137.106 134.854 137.322 134.39C137.525 133.958 137.734 133.527 137.943 133.095C137.982 133.017 138.028 132.932 138.061 132.854C138.276 132.416 138.499 131.984 138.721 131.553C138.963 131.082 139.211 130.625 139.459 130.167C139.714 129.697 139.982 129.226 140.244 128.755C140.492 128.317 140.747 127.886 141.002 127.461C141.714 126.271 142.46 125.108 143.224 123.971C143.447 123.637 143.675 123.311 143.904 122.984C144.133 122.657 144.362 122.33 144.597 122.01L145.303 121.049C145.767 120.434 146.244 119.82 146.728 119.225C146.754 119.199 146.774 119.173 146.793 119.147C147.015 118.866 147.251 118.585 147.48 118.31C147.499 118.291 147.512 118.271 147.525 118.251C147.774 117.957 148.016 117.67 148.264 117.389C148.787 116.787 149.316 116.199 149.852 115.617C150.101 115.349 150.356 115.081 150.617 114.813C150.885 114.532 151.153 114.258 151.421 113.99C152.199 113.205 152.996 112.447 153.807 111.721C153.866 111.669 153.924 111.617 153.977 111.565C154.238 111.336 154.5 111.101 154.768 110.878C155.055 110.63 155.343 110.382 155.63 110.146C156.212 109.663 156.794 109.192 157.389 108.734C157.689 108.506 157.984 108.283 158.284 108.061C158.585 107.839 158.886 107.623 159.193 107.407C160.402 106.538 161.644 105.734 162.912 104.989C163.226 104.799 163.546 104.616 163.866 104.433C164.206 104.237 164.553 104.048 164.893 103.865C165.043 103.786 165.193 103.708 165.344 103.629C166.056 103.25 166.782 102.891 167.507 102.551C167.762 102.433 168.017 102.316 168.272 102.198C168.788 101.969 169.311 101.747 169.827 101.538C170.122 101.414 170.416 101.296 170.716 101.185C171.226 100.982 171.743 100.799 172.253 100.623C172.612 100.492 172.971 100.374 173.331 100.263C173.462 100.217 173.592 100.172 173.73 100.132C174.115 100.015 174.501 99.8972 174.887 99.7861C175.331 99.6619 175.776 99.5377 176.227 99.4265C176.671 99.3089 177.122 99.2043 177.573 99.1063C177.998 99.0082 178.423 98.9232 178.848 98.8383C178.893 98.8252 178.946 98.8187 178.998 98.8056C179.371 98.7337 179.75 98.6683 180.129 98.6095C180.645 98.518 181.162 98.4396 181.678 98.3742C183.711 98.0997 185.776 97.9624 187.868 97.9624C198.333 97.9624 208.157 101.42 216.661 107.479C232.707 118.905 244.068 139.586 246.199 163.79C246.44 166.509 246.565 169.281 246.565 172.085Z" fill="#E99F6F"/>
<path d="M234.178 172.085C234.178 176.582 233.858 180.987 233.25 185.262C233.25 185.282 233.243 185.301 233.243 185.321C230.622 203.669 222.661 219.67 211.451 230.657C203.052 238.9 192.829 244.325 181.678 245.796C180.815 245.684 179.959 245.547 179.109 245.384C178.893 245.345 178.678 245.299 178.462 245.253C178.194 245.201 177.933 245.148 177.671 245.083C177.573 245.063 177.475 245.044 177.384 245.018C177.063 244.952 176.743 244.874 176.423 244.789C176.024 244.697 175.632 244.593 175.246 244.482C175.05 244.43 174.854 244.377 174.664 244.318C174.37 244.233 174.076 244.148 173.782 244.05C173.233 243.887 172.697 243.704 172.161 243.514C171.756 243.377 171.35 243.227 170.952 243.076C170.52 242.913 170.089 242.743 169.664 242.567C168.742 242.188 167.834 241.782 166.938 241.351C166.585 241.181 166.226 241.004 165.88 240.821C165.494 240.632 165.115 240.429 164.736 240.22C164.396 240.037 164.056 239.854 163.722 239.658C163.468 239.514 163.219 239.37 162.971 239.22C162.637 239.03 162.317 238.828 161.99 238.625C161.755 238.481 161.526 238.338 161.291 238.181C158.912 236.658 156.624 234.932 154.447 233.017C154.121 232.736 153.807 232.448 153.487 232.161C153.166 231.867 152.839 231.566 152.526 231.259C152.205 230.958 151.892 230.651 151.578 230.337C151.264 230.023 150.95 229.71 150.643 229.389C150.336 229.069 150.029 228.749 149.728 228.415C149.421 228.089 149.127 227.762 148.826 227.422C148.244 226.768 147.676 226.101 147.114 225.422C146.813 225.056 146.519 224.69 146.225 224.31C145.944 223.951 145.662 223.592 145.388 223.225C145.153 222.912 144.911 222.585 144.669 222.265C144.355 221.827 144.041 221.389 143.734 220.944C143.617 220.774 143.499 220.598 143.381 220.428L143.368 220.415C143.244 220.232 143.12 220.042 142.996 219.859C142.741 219.474 142.486 219.081 142.231 218.689C141.982 218.304 141.734 217.905 141.492 217.506C141.244 217.107 141.002 216.709 140.767 216.303C140.525 215.898 140.29 215.493 140.061 215.081C139.826 214.669 139.597 214.258 139.374 213.839C138.695 212.591 138.048 211.31 137.433 210.002C137.276 209.676 137.126 209.342 136.969 209.009C136.721 208.466 136.479 207.917 136.244 207.362C136.054 206.917 135.864 206.466 135.681 206.015C135.492 205.564 135.315 205.113 135.139 204.656C134.962 204.198 134.786 203.734 134.616 203.276C134.446 202.812 134.283 202.348 134.119 201.878C133.956 201.414 133.792 200.943 133.642 200.472C133.485 200.002 133.335 199.525 133.185 199.047C132.89 198.093 132.609 197.132 132.348 196.158C132.08 195.184 131.831 194.204 131.603 193.21C131.498 192.759 131.394 192.308 131.296 191.857C131.276 191.792 131.263 191.72 131.25 191.655C131.145 191.178 131.047 190.694 130.949 190.21C130.851 189.707 130.753 189.204 130.662 188.694C130.57 188.19 130.485 187.681 130.4 187.164C130.315 186.654 130.237 186.138 130.158 185.628C130.008 184.595 129.877 183.556 129.759 182.51C129.714 182.085 129.668 181.661 129.622 181.229C129.596 180.935 129.57 180.641 129.544 180.347C129.511 180.027 129.485 179.713 129.465 179.392C129.374 178.281 129.308 177.164 129.263 176.039C129.243 175.686 129.23 175.333 129.223 174.974C129.21 174.608 129.204 174.242 129.197 173.876C129.184 173.281 129.178 172.686 129.178 172.085C129.178 171.483 129.184 170.836 129.197 170.215C129.197 169.712 129.217 169.209 129.237 168.705C129.237 168.568 129.25 168.438 129.256 168.307C129.276 167.784 129.295 167.261 129.328 166.745C129.393 165.62 129.472 164.509 129.576 163.398C129.851 160.404 130.269 157.456 130.825 154.58C130.923 154.064 131.028 153.554 131.132 153.044C131.132 153.044 131.139 153.025 131.139 153.012C131.256 152.469 131.374 151.927 131.498 151.391C131.603 150.933 131.707 150.482 131.818 150.025C131.871 149.822 131.923 149.613 131.975 149.41C132.322 148.044 132.701 146.698 133.106 145.371C133.185 145.116 133.263 144.867 133.341 144.619C133.472 144.207 133.603 143.795 133.74 143.39C133.91 142.874 134.087 142.357 134.27 141.841C134.485 141.227 134.714 140.619 134.943 140.011C135.093 139.605 135.25 139.2 135.413 138.802C135.57 138.409 135.727 138.017 135.891 137.625C136.152 137.011 136.413 136.396 136.681 135.788C136.891 135.318 137.106 134.854 137.322 134.389C137.525 133.958 137.734 133.527 137.943 133.095C137.982 133.017 138.028 132.932 138.061 132.853C138.276 132.416 138.499 131.984 138.721 131.553C138.963 131.082 139.211 130.625 139.459 130.167C139.714 129.696 139.982 129.226 140.244 128.755C140.492 128.317 140.747 127.886 141.002 127.461C141.714 126.271 142.46 125.108 143.224 123.971C143.447 123.637 143.675 123.31 143.904 122.984C144.133 122.657 144.362 122.33 144.597 122.01L145.303 121.049C145.774 120.434 146.244 119.826 146.728 119.225C146.754 119.199 146.774 119.173 146.793 119.147C147.015 118.866 147.251 118.585 147.48 118.31C147.499 118.29 147.512 118.271 147.525 118.251C147.774 117.957 148.016 117.669 148.264 117.388C148.787 116.787 149.316 116.199 149.852 115.617C150.101 115.349 150.356 115.081 150.617 114.813C150.885 114.532 151.153 114.257 151.421 113.989C152.199 113.205 152.996 112.453 153.807 111.721C153.866 111.669 153.924 111.617 153.977 111.564C154.238 111.336 154.5 111.1 154.768 110.878C155.055 110.63 155.343 110.381 155.63 110.146C156.212 109.662 156.794 109.192 157.389 108.734C157.689 108.505 157.984 108.283 158.284 108.061C158.585 107.839 158.886 107.623 159.193 107.407C160.409 106.544 161.644 105.741 162.912 104.989C163.226 104.799 163.546 104.616 163.866 104.433C164.206 104.237 164.553 104.048 164.893 103.865C165.755 103.401 166.631 102.963 167.507 102.551C167.762 102.433 168.017 102.315 168.272 102.198C168.788 101.969 169.311 101.747 169.827 101.538C170.122 101.413 170.416 101.296 170.716 101.185C171.226 100.982 171.743 100.799 172.253 100.623C172.612 100.492 172.971 100.374 173.331 100.263C173.462 100.217 173.592 100.171 173.73 100.132C174.115 100.015 174.501 99.897 174.887 99.7859C175.331 99.6617 175.776 99.5375 176.227 99.4264C176.671 99.3087 177.122 99.2041 177.573 99.1061C177.998 99.008 178.423 98.9231 178.848 98.8381C178.893 98.825 178.946 98.8185 178.998 98.8054C179.371 98.7335 179.75 98.6682 180.129 98.6093C180.645 98.5178 181.162 98.4394 181.678 98.374C188.123 99.2303 194.254 101.394 199.901 104.662C220.125 116.362 234.178 142.148 234.178 172.085Z" fill="#FFD19D"/>
<path d="M246.199 163.79C239.25 171.059 234.178 176.353 234.178 176.353C234.178 176.353 231.962 158.195 225.328 153.142C225.328 153.142 207.765 152.038 201.62 149.665C201.62 149.665 198.058 163.666 175.9 156.247C158.84 150.534 150.617 142.272 150.617 142.272C150.617 142.272 141.832 166.13 139.924 184.151C139.525 187.916 135.355 190.027 132.067 188.151C131.524 187.844 130.969 187.504 130.393 187.138C130.315 186.635 130.237 186.131 130.158 185.628C130.001 184.595 129.871 183.556 129.759 182.51C129.714 182.085 129.668 181.661 129.622 181.229C129.596 180.935 129.57 180.641 129.544 180.347C129.511 180.027 129.485 179.713 129.465 179.392C129.374 178.281 129.308 177.164 129.263 176.039C129.243 175.686 129.23 175.333 129.223 174.974C129.21 174.608 129.204 174.242 129.197 173.876C129.184 173.281 129.178 172.686 129.178 172.085C129.178 171.483 129.184 170.836 129.197 170.215C129.204 169.712 129.217 169.209 129.237 168.705C129.243 168.568 129.25 168.437 129.256 168.307C129.276 167.784 129.295 167.261 129.328 166.745C129.393 165.62 129.472 164.509 129.576 163.398C129.851 160.404 130.269 157.456 130.825 154.58C130.923 154.064 131.028 153.554 131.132 153.044C131.132 153.038 131.139 153.025 131.139 153.012C131.256 152.469 131.374 151.927 131.498 151.391C131.603 150.933 131.707 150.482 131.818 150.025C131.871 149.822 131.923 149.613 131.975 149.41C132.322 148.044 132.701 146.697 133.106 145.371C133.185 145.116 133.263 144.867 133.341 144.619C133.472 144.207 133.603 143.795 133.74 143.39C133.91 142.874 134.087 142.357 134.27 141.841C134.485 141.227 134.714 140.619 134.943 140.011C135.093 139.605 135.25 139.2 135.413 138.802C135.57 138.409 135.727 138.017 135.891 137.625C136.152 137.011 136.413 136.396 136.681 135.788C136.891 135.318 137.106 134.854 137.322 134.389C137.525 133.958 137.734 133.527 137.943 133.095C137.982 133.017 138.028 132.932 138.061 132.853C138.276 132.415 138.499 131.984 138.721 131.553C138.963 131.082 139.211 130.625 139.459 130.167C139.714 129.696 139.982 129.226 140.244 128.755C140.492 128.317 140.747 127.886 141.002 127.461C141.714 126.271 142.46 125.108 143.224 123.97C143.447 123.637 143.675 123.31 143.904 122.983C144.133 122.657 144.362 122.33 144.597 122.01L145.303 121.049C145.767 120.434 146.244 119.82 146.728 119.225C146.754 119.199 146.774 119.173 146.793 119.147C147.015 118.866 147.251 118.584 147.48 118.31C147.499 118.29 147.512 118.271 147.525 118.251C147.774 117.957 148.016 117.669 148.264 117.388C148.787 116.787 149.316 116.199 149.852 115.617C150.101 115.349 150.356 115.081 150.617 114.813C150.885 114.532 151.153 114.257 151.421 113.989C152.199 113.205 152.996 112.447 153.807 111.721C153.866 111.669 153.924 111.617 153.977 111.564C154.238 111.336 154.5 111.1 154.768 110.878C155.055 110.63 155.343 110.381 155.63 110.146C156.212 109.662 156.794 109.192 157.389 108.734C157.689 108.505 157.984 108.283 158.284 108.061C158.585 107.839 158.886 107.623 159.193 107.407C160.402 106.538 161.644 105.734 162.912 104.989C163.226 104.799 163.546 104.616 163.866 104.433C164.35 104.152 164.853 103.884 165.324 103.636H165.344L216.661 107.479C232.707 118.905 244.068 139.586 246.199 163.79Z" fill="#E99F6F"/>
<path d="M187.868 246.201C220.285 246.201 246.565 213.015 246.565 172.078C246.565 131.141 220.285 97.9556 187.868 97.9556C155.451 97.9556 129.171 131.141 129.171 172.078C129.171 213.015 155.451 246.201 187.868 246.201Z" stroke="black" stroke-width="2.61455" stroke-miterlimit="10"/>
<path d="M183.561 180.02C183.561 180.02 181.188 187.399 172.762 194.707C167.886 198.943 178.129 204.845 185.338 204.453L180.024 201.335L177.135 198.799L178.338 195.727L183.894 184.909L183.554 180.013L183.561 180.02Z" fill="#E99F6F"/>
<path d="M184.724 180.125C184.724 180.125 180.841 191.334 177.763 195.74C175.593 198.838 182.672 202.048 185.182 202.544" stroke="black" stroke-width="2.61455" stroke-miterlimit="10" stroke-linecap="round"/>
<path d="M207.765 179.236C211.693 179.236 214.876 177.088 214.876 174.438C214.876 171.788 211.693 169.64 207.765 169.64C203.837 169.64 200.653 171.788 200.653 174.438C200.653 177.088 203.837 179.236 207.765 179.236Z" fill="black"/>
<path d="M163.886 178.209C167.893 178.209 171.142 176.129 171.142 173.562C171.142 170.995 167.893 168.915 163.886 168.915C159.879 168.915 156.631 170.995 156.631 173.562C156.631 176.129 159.879 178.209 163.886 178.209Z" fill="black"/>
<path d="M222.047 164.777C221.001 166.339 216.929 163.496 211.628 163.62C206.327 163.751 202.314 164.15 201.68 161.123C201.497 160.247 201.784 159.522 202.248 158.947C203.15 157.816 204.732 157.26 204.732 157.26C204.732 157.26 210.425 155.221 215.949 157.842C218.805 159.202 220.609 160.607 221.537 161.862C222.413 163.032 222.531 164.058 222.047 164.777Z" fill="#E5843F"/>
<path d="M170.148 160.836C169.481 163.855 165.474 163.418 160.173 163.235C154.872 163.051 150.781 165.856 149.748 164.287C149.271 163.555 149.401 162.522 150.303 161.352C151.251 160.117 153.062 158.731 155.918 157.411C161.461 154.842 167.135 156.947 167.135 156.947C167.135 156.947 168.749 157.528 169.638 158.692C170.076 159.267 170.337 159.979 170.148 160.836Z" fill="#E5843F"/>
<path d="M221.537 161.862C219.975 162.326 216.288 160.189 211.68 160.3C207.177 160.411 203.601 160.711 202.248 158.947C203.15 157.816 204.732 157.26 204.732 157.26C204.732 157.26 210.425 155.221 215.949 157.842C218.805 159.202 220.609 160.607 221.537 161.862Z" fill="#F3AC59"/>
<path d="M169.638 158.692C168.239 160.398 164.69 160.064 160.226 159.908C155.559 159.751 151.833 161.908 150.303 161.352C151.251 160.117 153.062 158.731 155.918 157.411C161.461 154.842 167.135 156.947 167.135 156.947C167.135 156.947 168.749 157.528 169.638 158.692Z" fill="#F3AC59"/>
<path d="M204.732 157.267C204.732 157.267 210.425 155.221 215.949 157.849C221.465 160.47 223.054 163.293 222.047 164.784C221.04 166.274 216.936 163.496 211.628 163.627C206.327 163.758 202.314 164.156 201.68 161.13C201.137 158.535 204.732 157.273 204.732 157.273V157.267Z" stroke="black" stroke-width="2.61455" stroke-miterlimit="10"/>
<path d="M167.135 156.947C167.135 156.947 161.461 154.848 155.912 157.411C150.369 159.979 148.754 162.784 149.741 164.287C150.774 165.856 154.866 163.052 160.167 163.235C165.468 163.418 169.475 163.855 170.141 160.836C170.71 158.247 167.128 156.947 167.128 156.947H167.135Z" stroke="black" stroke-width="2.61455" stroke-miterlimit="10"/>
<path d="M198.496 218.82C196.914 221.127 194.228 223.323 189.698 224.578C186.424 225.487 183.626 225.199 181.266 224.291C174.75 221.755 171.671 214.388 171.56 214.107C171.965 214.192 188.123 217.8 200.608 210.081C200.608 210.081 201.366 214.636 198.496 218.82Z" fill="#1C1C1C"/>
<path d="M198.496 218.82C196.914 221.127 194.228 223.323 189.698 224.578C186.423 225.487 183.626 225.199 181.266 224.29C181.233 224.068 181.22 223.853 181.22 223.63C181.22 219.793 185.711 216.682 191.254 216.682C194.097 216.682 196.666 217.506 198.496 218.82Z" fill="#E76161"/>
<path d="M200.607 210.081C187.966 217.898 171.553 214.101 171.553 214.101C171.553 214.101 177.181 228.043 189.698 224.572C202.438 221.042 200.607 210.074 200.607 210.074V210.081Z" stroke="black" stroke-width="2.61455" stroke-miterlimit="10" stroke-linecap="round"/>
<path d="M257.428 142.769C256.637 158.757 250.277 173.967 243.172 178.863C243.172 178.863 243.166 178.83 243.159 178.765C243.068 177.797 242.225 169.777 240.486 161.509C239.499 156.815 238.224 152.057 236.623 148.449C236.623 148.436 236.616 148.429 236.616 148.423C236.564 148.312 236.512 148.207 236.466 148.096C236.054 147.2 235.616 146.377 235.165 145.658C234.858 145.174 234.544 144.73 234.211 144.344C234.211 144.331 234.191 144.311 234.178 144.298C234.178 144.298 232.603 144.592 229.956 144.887C229.773 144.906 229.583 144.926 229.387 144.945C221.668 145.756 206.065 146.429 193.339 140.906C191.79 140.233 190.286 139.474 188.848 138.612C188.848 138.612 189.116 139.043 189.515 139.755C189.567 139.847 189.62 139.939 189.672 140.037C189.705 140.089 189.731 140.148 189.764 140.207C189.842 140.35 189.927 140.501 190.018 140.664C190.084 140.788 190.156 140.919 190.221 141.056H190.228C190.339 141.272 190.456 141.494 190.567 141.723C191.437 143.435 192.398 145.586 192.855 147.475C192.881 147.58 192.908 147.691 192.927 147.789C192.999 148.135 193.058 148.475 193.091 148.795C193.097 148.88 193.104 148.972 193.11 149.057C193.156 149.789 193.071 150.429 192.809 150.926C192.254 151.959 189.953 152.92 186.267 152.691C186.084 152.678 185.901 152.665 185.718 152.645C185.521 152.632 185.319 152.606 185.11 152.586C184.927 152.56 184.744 152.541 184.561 152.515C183.927 152.416 183.253 152.292 182.554 152.129C182.351 152.077 182.142 152.031 181.933 151.972C181.528 151.867 181.109 151.75 180.678 151.619C180.515 151.567 180.351 151.521 180.188 151.462C178.345 150.867 176.331 150.031 174.168 148.887C173.88 148.737 173.593 148.58 173.298 148.416C173.011 148.253 172.717 148.089 172.416 147.913C172.122 147.743 171.821 147.566 171.521 147.377C171.239 147.214 170.965 147.037 170.684 146.861C170.35 146.651 170.017 146.429 169.677 146.207C169.409 146.03 169.141 145.847 168.873 145.658C168.501 145.403 168.115 145.128 167.729 144.854C167.435 144.638 167.141 144.423 166.847 144.207C166.834 144.194 166.821 144.187 166.808 144.174C166.481 143.926 166.154 143.677 165.821 143.416C164.5 142.39 163.147 141.252 161.755 140.004C161.52 139.788 161.278 139.572 161.03 139.344C160.781 139.115 160.539 138.893 160.291 138.657C159.435 137.853 158.565 136.997 157.676 136.102C157.474 135.899 157.271 135.69 157.069 135.474C156.637 135.03 156.212 134.579 155.781 134.115C155.526 133.84 155.265 133.559 155.01 133.278C153.199 131.304 151.356 129.134 149.473 126.768C149.473 126.768 135.485 153.41 134.734 180.778C134.734 180.778 134.714 180.765 134.681 180.739C134.1 180.216 128.727 175.366 123.622 167.627C121.465 164.358 119.347 160.561 117.667 156.364C115.563 151.103 114.131 145.207 114.125 138.873C114.125 137.638 114.138 136.442 114.157 135.278C114.608 114.682 119.105 105.054 126.106 96.8703C126.74 96.1382 127.38 95.4193 128.034 94.7199L128.047 94.7068C128.047 94.7068 128.106 94.197 128.23 93.3276C128.23 93.2949 128.237 93.2688 128.243 93.2361C128.916 88.4319 131.374 73.2674 135.786 69.9143C141.048 65.914 144.421 79.8103 144.421 79.8103C144.421 79.8103 144.957 79.3136 145.917 78.4769C146.12 78.2939 146.349 78.1043 146.591 77.8952C147.323 77.2677 148.212 76.516 149.244 75.6859C149.473 75.5028 149.709 75.3133 149.95 75.1237C150.192 74.9276 150.441 74.7316 150.696 74.5355C150.95 74.3329 151.212 74.1302 151.48 73.9276C151.689 73.7707 151.898 73.6073 152.114 73.4439C155.251 71.0647 159.101 68.3913 163.187 66.1362C163.474 65.9793 163.768 65.8225 164.062 65.6656C164.442 65.463 164.821 65.2669 165.2 65.0708C165.5 64.9204 165.801 64.7701 166.102 64.6263C166.148 64.6002 166.193 64.5806 166.239 64.561C166.579 64.3976 166.912 64.2341 167.252 64.0838C167.278 64.0707 167.311 64.0577 167.337 64.0446C168.154 63.672 168.971 63.3256 169.788 63.0119C170.037 62.9138 170.285 62.8223 170.534 62.7373C170.775 62.6458 171.024 62.5608 171.272 62.4759C171.808 62.2928 172.344 62.1229 172.88 61.9725C173.076 61.9137 173.272 61.8614 173.468 61.8091C173.717 61.7438 173.959 61.685 174.2 61.6262C174.684 61.5085 175.168 61.4104 175.645 61.3254C176.109 61.2405 176.567 61.1751 177.024 61.1229C177.037 61.1229 177.05 61.1228 177.063 61.1163C177.501 61.0706 177.933 61.0379 178.358 61.0182C179.959 60.9463 181.502 61.0836 182.953 61.4889C187.868 62.8615 178.416 70.3326 178.416 70.3326C178.416 70.3326 216.961 55.9787 245.774 92.6544C258.683 109.08 258.271 125.82 257.428 142.769Z" fill="#E5843D"/>
<path d="M242.623 147.403C242.382 152.266 241.623 157.051 240.486 161.502C239.499 156.815 238.225 152.057 236.623 148.449C236.623 148.436 236.617 148.429 236.617 148.423C236.564 148.311 236.512 148.207 236.466 148.096C236.054 147.2 235.617 146.377 235.166 145.658C234.858 145.174 234.544 144.73 234.211 144.344C234.211 144.331 234.192 144.311 234.179 144.298C234.179 144.298 232.603 144.592 229.956 144.886C229.773 144.906 229.583 144.926 229.387 144.945C221.668 145.756 206.066 146.429 193.339 140.906C191.79 140.232 190.287 139.474 188.849 138.611C188.849 138.611 189.117 139.043 189.515 139.755C189.568 139.847 189.62 139.938 189.672 140.036C189.705 140.089 189.731 140.148 189.764 140.206C189.842 140.35 189.927 140.5 190.019 140.664C190.084 140.788 190.156 140.919 190.221 141.056H190.228C190.339 141.272 190.457 141.494 190.568 141.723C191.437 143.435 192.398 145.586 192.855 147.475C192.882 147.579 192.908 147.691 192.927 147.789C192.999 148.135 193.058 148.475 193.091 148.795C193.097 148.887 193.104 148.972 193.11 149.057C193.156 149.789 193.071 150.429 192.81 150.926C192.254 151.959 189.953 152.92 186.267 152.691C186.084 152.678 185.901 152.665 185.718 152.645C185.522 152.632 185.319 152.606 185.11 152.586C184.927 152.56 184.744 152.54 184.561 152.514C183.927 152.416 183.254 152.292 182.554 152.129C182.352 152.076 182.142 152.031 181.933 151.972C181.528 151.867 181.11 151.75 180.678 151.619C180.515 151.567 180.351 151.521 180.188 151.462C178.345 150.867 176.331 150.031 174.168 148.887C173.88 148.736 173.593 148.579 173.299 148.416C173.011 148.253 172.717 148.089 172.416 147.913C172.122 147.743 171.821 147.566 171.521 147.377C171.24 147.213 170.965 147.037 170.684 146.86C170.351 146.651 170.017 146.429 169.677 146.207C169.409 146.03 169.141 145.847 168.873 145.658C168.501 145.403 168.115 145.128 167.73 144.854C167.435 144.638 167.141 144.422 166.847 144.207C166.834 144.194 166.821 144.187 166.808 144.174C166.481 143.926 166.154 143.677 165.821 143.416C164.501 142.39 163.148 141.252 161.755 140.004C158.435 135.847 154.395 130.748 149.473 124.552C149.473 124.552 133.682 136.977 123.622 167.626C121.465 164.358 119.347 160.561 117.668 156.364C115.563 151.103 114.131 145.207 114.125 138.873C114.125 137.638 114.138 136.441 114.157 135.278C114.608 114.682 119.105 105.054 126.106 96.8701C126.74 96.1381 127.381 95.4191 128.034 94.7197L128.047 94.7066C128.047 94.7066 128.106 94.1968 128.23 93.3275C128.23 93.2948 128.237 93.2686 128.243 93.2359C128.917 88.4317 131.374 73.2673 135.786 69.9141C141.048 65.9138 144.421 79.8102 144.421 79.8102C144.421 79.8102 144.957 79.3134 145.918 78.4767C146.12 78.2937 146.349 78.1042 146.591 77.895C147.323 77.2675 148.212 76.5158 149.245 75.6857C149.473 75.5027 149.709 75.3131 149.951 75.1236C150.193 74.9275 150.441 74.7315 150.696 74.5354C150.951 74.3327 151.212 74.1301 151.48 73.9274C151.689 73.7706 151.899 73.6072 152.114 73.4438C155.252 71.0645 159.102 68.3911 163.187 66.136C163.474 65.9792 163.769 65.8223 164.063 65.6654C164.442 65.4628 164.821 65.2667 165.2 65.0706C165.501 64.9203 165.801 64.77 166.102 64.6262C166.148 64.6 166.194 64.5804 166.239 64.5608C166.579 64.3974 166.913 64.2339 167.252 64.0836C167.279 64.0705 167.311 64.0575 167.337 64.0444C175.253 64.8876 171.952 73.9078 171.952 73.9078C171.952 73.9078 202.15 60.6128 230.969 97.2885C243.872 113.708 243.46 130.448 242.623 147.403Z" fill="#F3AC59"/>
<path d="M192.81 150.926C191.43 153.508 179.129 155.613 161.755 140.004C158.435 135.847 154.395 130.748 149.473 124.552C149.473 124.552 186.293 155.528 190.568 141.723L190.587 141.756C192.084 144.71 193.849 148.965 192.81 150.926Z" fill="#E5843D"/>
<path d="M235.165 145.658C234.858 145.174 234.544 144.729 234.211 144.344C233.374 144.474 231.904 144.684 229.956 144.886C229.773 144.906 229.583 144.925 229.387 144.945C221.668 145.756 206.065 146.429 193.339 140.906C191.79 140.232 190.287 139.474 188.849 138.611C188.849 138.611 189.117 139.043 189.515 139.755C189.568 139.847 189.62 139.938 189.672 140.036C189.705 140.089 189.731 140.147 189.764 140.206C189.842 140.35 189.927 140.5 190.019 140.664C190.084 140.788 190.156 140.919 190.221 141.056C188.502 139.167 186.639 136.964 185.613 135.265C185.613 135.265 224.289 145.252 231.995 136.428C231.995 136.428 231.995 136.428 232.002 136.441C232.165 136.703 234.427 140.337 235.041 143.605C235.107 143.965 235.152 144.318 235.178 144.664C235.198 145.004 235.198 145.337 235.165 145.658Z" fill="#E5843D"/>
<path d="M257.428 142.769C256.637 158.757 250.277 173.967 243.172 178.863C243.172 178.863 243.166 178.83 243.159 178.765C242.989 177.418 240.996 161.933 236.91 149.429C236.767 148.978 236.616 148.534 236.466 148.096C236.054 146.913 235.629 145.762 235.178 144.664C235.12 144.514 235.061 144.364 234.995 144.213C234.995 144.213 234.721 144.266 234.211 144.344C233.374 144.475 231.904 144.684 229.956 144.887C229.773 144.906 229.583 144.926 229.387 144.945C221.256 145.736 205.797 146.272 193.339 140.906C191.79 140.233 190.287 139.474 188.849 138.612C188.849 138.612 189.116 139.043 189.515 139.755C189.567 139.847 189.62 139.939 189.672 140.037C189.705 140.089 189.731 140.148 189.764 140.207C189.842 140.35 189.927 140.501 190.018 140.664C190.084 140.788 190.156 140.919 190.221 141.056H190.228C190.339 141.272 190.456 141.494 190.568 141.723C191.437 143.435 192.398 145.586 192.855 147.475C192.881 147.58 192.908 147.691 192.927 147.789C192.999 148.135 193.058 148.475 193.091 148.795C193.097 148.88 193.104 148.972 193.11 149.057C193.156 149.789 193.071 150.429 192.81 150.926C192.254 151.959 189.953 152.92 186.267 152.691C186.084 152.678 185.901 152.665 185.718 152.645C185.521 152.632 185.319 152.606 185.11 152.586C184.927 152.56 184.744 152.541 184.561 152.515C183.927 152.416 183.253 152.292 182.554 152.129C182.351 152.077 182.142 152.031 181.933 151.972C181.528 151.867 181.109 151.75 180.678 151.619C180.515 151.567 180.351 151.521 180.188 151.462C178.345 150.867 176.331 150.031 174.168 148.887C173.88 148.737 173.593 148.58 173.298 148.416C173.011 148.253 172.717 148.089 172.416 147.913C172.122 147.743 171.821 147.566 171.521 147.377C171.24 147.214 170.965 147.037 170.684 146.861C170.351 146.651 170.017 146.429 169.677 146.207C169.409 146.03 169.141 145.847 168.873 145.658C168.501 145.403 168.115 145.128 167.729 144.854C167.435 144.638 167.141 144.423 166.847 144.207C166.834 144.194 166.821 144.187 166.808 144.174C166.481 143.926 166.154 143.677 165.821 143.416C164.5 142.39 163.147 141.252 161.755 140.004C161.52 139.788 161.278 139.572 161.03 139.344C160.781 139.115 160.539 138.893 160.291 138.657C159.435 137.853 158.565 136.997 157.676 136.102C157.474 135.899 157.271 135.69 157.069 135.474C156.637 135.03 156.212 134.579 155.781 134.115C155.526 133.84 155.265 133.559 155.01 133.278C153.199 131.304 151.356 129.134 149.473 126.768C149.473 126.768 135.485 153.41 134.734 180.778C134.734 180.778 134.714 180.765 134.681 180.739C133.851 180.157 123.262 172.464 117.667 156.364C116.099 151.854 114.922 146.684 114.464 140.821C114.314 138.893 114.21 137.049 114.157 135.278C113.576 115.277 119.105 104.975 126.106 96.8703C126.74 96.1382 127.38 95.4193 128.034 94.7199L128.047 94.7068C128.047 94.7068 128.106 94.197 128.23 93.3276C128.23 93.2949 128.237 93.2688 128.243 93.2361C128.916 88.4319 131.374 73.2674 135.786 69.9143C141.048 65.914 144.421 79.8103 144.421 79.8103C144.421 79.8103 144.957 79.3136 145.918 78.4769C146.12 78.2939 146.349 78.0978 146.591 77.8952C147.323 77.2677 148.212 76.516 149.245 75.6859C149.473 75.5028 149.709 75.3133 149.951 75.1237C150.192 74.9276 150.441 74.7316 150.696 74.5355C150.951 74.3329 151.212 74.1302 151.48 73.9276C151.689 73.7707 151.898 73.6073 152.114 73.4439C155.251 71.0647 159.101 68.3913 163.187 66.1362C163.474 65.9793 163.768 65.8225 164.063 65.6656C164.442 65.463 164.821 65.2669 165.2 65.0708C165.501 64.9204 165.801 64.7701 166.102 64.6263C166.148 64.6002 166.193 64.5806 166.239 64.561C166.579 64.3976 166.912 64.2341 167.252 64.0838C167.278 64.0707 167.311 64.0577 167.337 64.0446C168.154 63.672 168.971 63.3256 169.788 63.0119C170.037 62.9138 170.285 62.8223 170.534 62.7373C170.775 62.6458 171.024 62.5608 171.272 62.4759C171.808 62.2928 172.344 62.1229 172.88 61.9725C173.076 61.9137 173.272 61.8614 173.468 61.8091C173.717 61.7438 173.959 61.685 174.2 61.6262C174.684 61.5085 175.168 61.4104 175.645 61.3254C176.109 61.2405 176.567 61.1751 177.024 61.1229C177.037 61.1229 177.05 61.1228 177.063 61.1163C177.501 61.0706 177.933 61.0379 178.358 61.0182C179.959 60.9463 181.502 61.0836 182.953 61.4889C187.868 62.8615 178.416 70.3326 178.416 70.3326C178.416 70.3326 216.961 55.9787 245.774 92.6544C258.683 109.08 258.271 125.82 257.428 142.769Z" stroke="black" stroke-width="2.61455" stroke-miterlimit="10"/>
<path d="M128.047 103.629C128.047 103.629 127.243 99.2563 128.243 93.2363" stroke="black" stroke-width="2.61455" stroke-miterlimit="10" stroke-linecap="round"/>
<path d="M230.609 134.017C230.609 134.017 233.76 138.468 236.917 149.429" stroke="black" stroke-width="2.61455" stroke-miterlimit="10" stroke-linecap="round"/>
<path opacity="0.21" d="M237.512 172.078C237.512 177.68 235.244 182.739 231.577 186.406C230.812 187.17 229.988 187.87 229.106 188.51H229.1C227.322 189.805 225.321 190.805 223.171 191.465C221.302 192.034 219.315 192.347 217.249 192.347H214.183C211.425 192.347 208.798 191.798 206.405 190.798C203.346 189.517 200.66 187.517 198.588 185.007C196.248 182.196 194.666 178.752 194.123 174.961C193.993 174.019 193.921 173.058 193.921 172.085C193.921 166.483 196.189 161.424 199.856 157.757C201.542 156.07 203.516 154.678 205.706 153.678C208.288 152.488 211.151 151.822 214.177 151.822H217.242C220.864 151.822 224.256 152.77 227.191 154.43C231.479 156.848 234.806 160.79 236.42 165.522C237.054 167.378 237.427 169.365 237.492 171.424C237.505 171.647 237.512 171.862 237.512 172.091V172.078Z" fill="#5D80C3"/>
<path opacity="0.5" d="M236.42 165.516L223.165 191.465C221.295 192.034 219.308 192.348 217.243 192.348H214.177C211.419 192.348 208.791 191.799 206.399 190.799L227.191 154.424C231.479 156.842 234.806 160.784 236.42 165.516Z" fill="white"/>
<path opacity="0.5" d="M216.158 151.815L198.581 185.001C196.241 182.19 194.659 178.745 194.117 174.954L205.706 153.672C208.288 152.482 211.151 151.815 214.177 151.815H216.158Z" fill="white"/>
<path d="M217.243 151.815H214.184C202.989 151.815 193.914 160.889 193.914 172.081C193.914 183.274 202.989 192.348 214.184 192.348H217.243C228.437 192.348 237.512 183.274 237.512 172.081C237.512 160.889 228.437 151.815 217.243 151.815Z" stroke="#64022E" stroke-width="2.61455" stroke-miterlimit="10"/>
<path opacity="0.21" d="M177.991 172.078C177.991 177.68 175.723 182.739 172.056 186.406C171.291 187.17 170.468 187.87 169.585 188.51H169.579C167.801 189.805 165.801 190.805 163.65 191.465C161.781 192.034 159.794 192.347 157.728 192.347H154.663C151.905 192.347 149.277 191.798 146.885 190.798C143.826 189.517 141.139 187.517 139.067 185.007C136.727 182.196 135.145 178.752 134.603 174.961C134.472 174.019 134.4 173.058 134.4 172.085C134.4 166.483 136.668 161.424 140.335 157.757C142.022 156.07 143.996 154.678 146.185 153.678C148.767 152.488 151.63 151.822 154.656 151.822H157.722C161.343 151.822 164.736 152.77 167.67 154.43C171.958 156.848 175.285 160.79 176.9 165.522C177.534 167.378 177.906 169.365 177.972 171.424C177.985 171.647 177.991 171.862 177.991 172.091V172.078Z" fill="#5D80C3"/>
<path opacity="0.5" d="M176.906 165.516L163.651 191.465C161.781 192.034 159.794 192.348 157.729 192.348H154.663C151.905 192.348 149.277 191.799 146.885 190.799L167.677 154.424C171.965 156.842 175.292 160.784 176.906 165.516Z" fill="white"/>
<path opacity="0.5" d="M156.637 151.815L139.061 185.001C136.721 182.19 135.139 178.745 134.596 174.954L146.185 153.672C148.767 152.482 151.63 151.815 154.657 151.815H156.637Z" fill="white"/>
<path d="M157.722 151.815H154.663C143.469 151.815 134.394 160.889 134.394 172.081C134.394 183.274 143.469 192.348 154.663 192.348H157.722C168.917 192.348 177.991 183.274 177.991 172.081C177.991 160.889 168.917 151.815 157.722 151.815Z" stroke="#64022E" stroke-width="2.61455" stroke-miterlimit="10"/>
<path d="M177.991 172.948C177.991 172.948 179.9 169.974 185.704 169.974C191.829 169.974 193.914 173.288 193.914 173.288" stroke="#64022E" stroke-width="2.61455" stroke-miterlimit="10" stroke-linecap="round"/>
</g>
<rect x="1" y="1" width="368" height="370" rx="11" stroke="black" stroke-width="2"/>
<defs>
<clipPath id="clip0_466_1924">
<rect width="370" height="372" rx="12" fill="white"/>
</clipPath>
</defs>
</svg>
