<svg width="370" height="372" viewBox="0 0 370 372" fill="none" xmlns="http://www.w3.org/2000/svg">
<g clip-path="url(#clip0_476_1817)">
<rect x="-17" y="-16" width="404" height="405" fill="#FDDD2D"/>
<path d="M66.4381 96.2653V273.79H97.5049L94.1764 185.028H96.3954L115.257 273.79H144.105V96.2653H113.038L116.367 185.028H114.148L95.2859 96.2653H66.4381ZM168.724 96.2653L152.081 271.571V273.79H183.148L186.92 231.628H199.347L203.119 273.79H234.186V271.571L217.543 96.2653H168.724ZM187.142 202.78L192.024 141.756H194.243L199.125 202.78H187.142ZM228.13 96.2653V125.113H250.321V273.79H283.607V125.113H305.797V96.2653H228.13Z" fill="#E8C60E"/>
<path d="M295.582 363.331C295.582 366.255 295.434 369.14 295.152 372H74C74.0192 371.442 74.0449 370.891 74.0706 370.339C74.0834 370.031 74.1026 369.724 74.1282 369.422C74.1411 369.108 74.1603 368.794 74.186 368.48C74.1924 368.39 74.1988 368.294 74.2052 368.204C74.218 368.031 74.2308 367.858 74.2501 367.691C74.2565 367.575 74.2629 367.46 74.2758 367.345C74.295 367.127 74.3142 366.909 74.3334 366.691C74.3463 366.524 74.3655 366.357 74.3783 366.19C74.3976 366.043 74.4104 365.895 74.4296 365.748C74.4681 365.318 74.5194 364.882 74.5707 364.453C74.6412 363.831 74.7182 363.209 74.8079 362.593C74.8913 361.978 74.981 361.362 75.0836 360.747C75.0901 360.695 75.0965 360.638 75.1093 360.586C75.1478 360.33 75.1927 360.073 75.2376 359.817C75.2696 359.618 75.3017 359.419 75.3401 359.221C75.3658 359.047 75.3979 358.881 75.4299 358.708C75.4556 358.586 75.4748 358.457 75.5069 358.329C75.571 357.97 75.6351 357.611 75.7121 357.252C75.7249 357.162 75.7441 357.079 75.7633 356.996C75.8274 356.669 75.898 356.342 75.9685 356.014C75.9877 355.918 76.007 355.829 76.0262 355.739C76.0775 355.508 76.1288 355.277 76.1801 355.046C76.2378 354.777 76.3019 354.514 76.3661 354.245C76.3981 354.097 76.4302 353.95 76.4687 353.809C76.5264 353.571 76.5841 353.334 76.6418 353.097C76.7572 352.635 76.8726 352.167 77.0009 351.706C77.0009 351.686 77.0073 351.674 77.0137 351.654C77.1547 351.109 77.3022 350.571 77.4625 350.032C77.4689 350 77.4753 349.968 77.4882 349.936C77.4946 349.91 77.501 349.891 77.5074 349.865C77.6293 349.429 77.7575 348.993 77.8921 348.557C77.9434 348.384 78.0011 348.205 78.0524 348.031C78.1294 347.788 78.2064 347.538 78.2833 347.294C78.3731 347.006 78.4692 346.717 78.559 346.435C78.5911 346.339 78.6231 346.242 78.6552 346.153C78.8155 345.672 78.9758 345.184 79.1489 344.71C79.213 344.505 79.29 344.306 79.3605 344.107C79.508 343.684 79.6619 343.261 79.8222 342.844C79.9248 342.562 80.0274 342.286 80.1364 342.011C80.1364 341.978 80.1556 341.946 80.1684 341.921C80.2518 341.709 80.3351 341.498 80.4121 341.286C80.7263 340.484 81.0533 339.689 81.3867 338.901C81.5214 338.574 81.6625 338.247 81.8035 337.926C81.8741 337.759 81.9446 337.593 82.0215 337.432C82.1882 337.041 82.3678 336.656 82.5409 336.265C82.605 336.124 82.6691 335.977 82.7397 335.836C82.8935 335.502 83.0539 335.162 83.2142 334.829C83.2398 334.758 83.2719 334.694 83.3103 334.624C83.3424 334.553 83.3745 334.483 83.413 334.412C83.5797 334.053 83.7528 333.694 83.9323 333.341C84.1824 332.835 84.4389 332.328 84.6954 331.828C84.8044 331.617 84.9133 331.405 85.0224 331.2C85.2724 330.725 85.5289 330.251 85.779 329.776C85.856 329.635 85.9329 329.494 86.0098 329.359C86.0932 329.206 86.1766 329.058 86.2599 328.911C86.3817 328.693 86.5035 328.475 86.6254 328.257C86.6382 328.231 86.6446 328.212 86.6575 328.192C86.7472 328.032 86.8434 327.872 86.9332 327.712C87.0614 327.481 87.1961 327.256 87.3243 327.032C87.7411 326.32 88.1643 325.608 88.5939 324.903C88.7606 324.634 88.9273 324.364 89.094 324.102C89.793 322.973 90.5175 321.857 91.2613 320.754C91.4665 320.453 91.6717 320.145 91.8833 319.844C91.9666 319.716 92.0564 319.587 92.1462 319.459C92.3578 319.151 92.5694 318.85 92.7874 318.549C92.9092 318.376 93.0246 318.209 93.1465 318.042C93.2427 317.907 93.3388 317.779 93.4286 317.645C93.4607 317.613 93.4863 317.574 93.5055 317.536C93.6017 317.407 93.6979 317.273 93.7941 317.144C94.0121 316.85 94.2301 316.555 94.4481 316.26C94.5443 316.125 94.6469 315.99 94.7495 315.856C94.8713 315.695 94.9867 315.541 95.1086 315.381C96.0383 314.156 96.9873 312.951 97.9619 311.765C98.0453 311.662 98.1286 311.56 98.212 311.457C98.321 311.329 98.43 311.2 98.5326 311.072C98.6544 310.931 98.7698 310.79 98.8917 310.649C98.9494 310.572 99.0135 310.502 99.0776 310.425C99.2572 310.213 99.4303 310.008 99.6098 309.803C99.8727 309.495 100.136 309.193 100.399 308.886C100.623 308.629 100.841 308.379 101.065 308.129C101.232 307.943 101.399 307.751 101.566 307.565C101.649 307.475 101.726 307.392 101.803 307.302C101.809 307.289 101.822 307.283 101.835 307.27C102.181 306.885 102.527 306.5 102.88 306.122C103.483 305.468 104.092 304.827 104.707 304.186C105.066 303.814 105.426 303.448 105.791 303.083C105.881 302.987 105.977 302.89 106.073 302.794C106.4 302.461 106.727 302.14 107.054 301.82L107.471 301.403C107.631 301.243 107.785 301.089 107.946 300.941C108.382 300.518 108.818 300.101 109.254 299.691C109.504 299.454 109.754 299.216 110.01 298.985C110.177 298.825 110.35 298.665 110.523 298.517C110.6 298.44 110.677 298.37 110.76 298.299C110.895 298.171 111.03 298.049 111.164 297.927C111.53 297.594 111.895 297.261 112.267 296.94C112.806 296.459 113.357 295.978 113.902 295.51C114.454 295.036 115.005 294.568 115.563 294.106C115.614 294.061 115.659 294.022 115.711 293.984C116.127 293.638 116.544 293.292 116.967 292.952C117.096 292.843 117.23 292.74 117.365 292.631C117.621 292.426 117.884 292.214 118.147 292.009C118.372 291.83 118.596 291.65 118.827 291.47C118.865 291.445 118.897 291.413 118.936 291.387C119.231 291.15 119.532 290.919 119.834 290.688C120.103 290.477 120.379 290.271 120.648 290.073C121.103 289.72 121.565 289.38 122.026 289.04C122.142 288.951 122.257 288.867 122.373 288.784C122.469 288.713 122.565 288.643 122.661 288.572C122.757 288.502 122.854 288.431 122.956 288.361C123.116 288.239 123.277 288.123 123.444 288.008C123.662 287.848 123.886 287.687 124.11 287.527C124.219 287.45 124.335 287.373 124.444 287.29L125.521 286.54C125.656 286.443 125.797 286.347 125.944 286.251C126.028 286.193 126.111 286.136 126.194 286.084C126.316 285.995 126.444 285.911 126.566 285.821C126.816 285.655 127.066 285.488 127.316 285.321C127.656 285.09 128.002 284.866 128.349 284.635C128.374 284.616 128.406 284.597 128.432 284.577C128.759 284.366 129.08 284.154 129.407 283.949C129.452 283.917 129.503 283.891 129.548 283.859C129.958 283.596 130.375 283.334 130.792 283.071C130.926 282.987 131.061 282.904 131.196 282.821C131.33 282.731 131.465 282.647 131.606 282.564C131.824 282.429 132.042 282.295 132.267 282.16C132.459 282.038 132.651 281.923 132.837 281.807C132.888 281.782 132.94 281.75 132.991 281.718C133.139 281.628 133.286 281.545 133.433 281.455C133.542 281.391 133.652 281.32 133.767 281.256C134.19 281.006 134.613 280.756 135.043 280.512C135.473 280.256 135.909 280.012 136.338 279.775C136.614 279.608 136.89 279.454 137.165 279.307C137.3 279.23 137.428 279.159 137.563 279.089C137.71 279.005 137.858 278.922 138.012 278.845C138.14 278.768 138.262 278.704 138.39 278.64C138.435 278.608 138.48 278.582 138.525 278.563C138.832 278.396 139.14 278.23 139.448 278.069C139.628 277.973 139.807 277.877 139.993 277.781C140.243 277.646 140.493 277.518 140.743 277.39H140.75C140.916 277.3 141.083 277.21 141.256 277.127C141.526 276.986 141.795 276.851 142.071 276.716C142.475 276.511 142.885 276.306 143.295 276.107C144.225 275.652 145.155 275.209 146.085 274.78C146.303 274.677 146.521 274.581 146.739 274.485C147.425 274.171 148.111 273.863 148.797 273.574C149.175 273.408 149.553 273.247 149.932 273.087C150.175 272.984 150.419 272.882 150.663 272.779C150.746 272.747 150.829 272.709 150.913 272.677C151.035 272.632 151.15 272.58 151.265 272.536C151.528 272.427 151.791 272.318 152.054 272.221C152.112 272.189 152.17 272.17 152.227 272.151C152.612 271.991 153.003 271.843 153.388 271.696C153.599 271.612 153.805 271.529 154.016 271.452C154.17 271.394 154.33 271.337 154.484 271.279C154.645 271.215 154.805 271.157 154.965 271.099C155.177 271.016 155.388 270.939 155.6 270.868C155.773 270.804 155.953 270.74 156.132 270.676C156.196 270.65 156.267 270.625 156.331 270.606C156.645 270.49 156.953 270.381 157.267 270.279C157.267 270.279 157.274 270.279 157.28 270.272C157.415 270.227 157.556 270.176 157.69 270.131C160.46 269.182 163.211 268.361 165.93 267.675C167.745 267.22 169.841 267.188 172.066 267.393C178.151 267.957 185.14 270.266 189.61 270.266C190.604 270.266 191.527 270.195 192.399 270.08C198.676 269.246 202.216 265.886 208.743 267.002C212.488 267.643 216.13 268.432 219.676 269.381C219.9 269.432 220.131 269.496 220.356 269.56C220.702 269.65 221.054 269.746 221.394 269.849C221.817 269.964 222.241 270.086 222.664 270.208C222.882 270.266 223.093 270.33 223.305 270.4C223.901 270.574 224.498 270.759 225.088 270.945C225.184 270.971 225.274 271.003 225.37 271.035C225.934 271.215 226.498 271.394 227.056 271.587C227.434 271.708 227.813 271.837 228.185 271.971C228.415 272.048 228.646 272.125 228.877 272.215C229.275 272.35 229.679 272.491 230.07 272.638C230.564 272.818 231.051 273.004 231.538 273.19C231.718 273.254 231.897 273.324 232.07 273.395C232.506 273.562 232.942 273.735 233.378 273.914C233.667 274.023 233.949 274.139 234.231 274.26C234.719 274.459 235.206 274.658 235.693 274.87C235.879 274.947 236.071 275.03 236.257 275.113C236.636 275.274 237.014 275.44 237.386 275.613C237.424 275.626 237.457 275.639 237.495 275.665C237.822 275.806 238.149 275.953 238.47 276.101C238.675 276.19 238.874 276.287 239.072 276.389C239.534 276.594 239.983 276.812 240.438 277.03C242.496 278.031 244.51 279.082 246.465 280.198C246.805 280.384 247.145 280.583 247.485 280.782C247.87 281.006 248.254 281.23 248.639 281.461C249.306 281.852 249.96 282.256 250.608 282.667C250.909 282.853 251.204 283.039 251.499 283.231C252.185 283.667 252.865 284.116 253.532 284.571C253.974 284.872 254.416 285.174 254.852 285.482C255.41 285.873 255.968 286.264 256.513 286.668C257.065 287.065 257.603 287.469 258.142 287.88C258.68 288.29 259.213 288.7 259.738 289.124C260.213 289.502 260.687 289.88 261.149 290.265C261.553 290.592 261.944 290.919 262.335 291.259C262.637 291.509 262.938 291.765 263.233 292.028C263.611 292.355 263.983 292.682 264.349 293.016C264.836 293.452 265.311 293.888 265.785 294.33L265.823 294.369C266.292 294.805 266.76 295.254 267.221 295.702C267.273 295.754 267.324 295.799 267.375 295.85C267.766 296.235 268.151 296.613 268.529 297.004C268.626 297.1 268.728 297.203 268.818 297.299C269.164 297.645 269.504 297.998 269.831 298.351C270.152 298.684 270.466 299.018 270.774 299.357C271.312 299.941 271.844 300.524 272.364 301.121C272.582 301.364 272.8 301.614 273.011 301.864C273.274 302.172 273.537 302.48 273.794 302.788C274.044 303.083 274.287 303.378 274.531 303.679C274.563 303.711 274.589 303.75 274.614 303.782C274.909 304.147 275.211 304.519 275.506 304.891C275.589 304.994 275.672 305.103 275.749 305.205C276.019 305.551 276.288 305.898 276.551 306.244C277.205 307.097 277.84 307.962 278.455 308.834C278.757 309.264 279.052 309.694 279.347 310.123C279.616 310.521 279.885 310.918 280.148 311.316C280.238 311.438 280.315 311.566 280.392 311.688C280.629 312.053 280.866 312.412 281.097 312.778C281.668 313.676 282.219 314.58 282.751 315.497C282.989 315.894 283.219 316.292 283.444 316.696C283.502 316.785 283.553 316.875 283.604 316.965C283.822 317.356 284.034 317.747 284.252 318.145C284.316 318.26 284.38 318.376 284.444 318.497C284.637 318.863 284.835 319.228 285.028 319.6C285.073 319.684 285.111 319.761 285.149 319.844C285.605 320.722 286.047 321.614 286.477 322.505C286.932 323.46 287.368 324.429 287.791 325.397C287.996 325.865 288.195 326.333 288.394 326.807C288.426 326.891 288.465 326.968 288.497 327.051C288.67 327.481 288.843 327.91 289.016 328.34C289.407 329.327 289.779 330.328 290.132 331.328C290.266 331.693 290.388 332.053 290.51 332.418C290.587 332.63 290.657 332.841 290.728 333.053C290.875 333.489 291.017 333.925 291.151 334.361C291.318 334.867 291.472 335.38 291.626 335.893C292.107 337.49 292.536 339.106 292.927 340.741C292.998 341.029 293.068 341.324 293.139 341.619C293.261 342.152 293.383 342.69 293.492 343.222C293.607 343.742 293.71 344.255 293.806 344.774C293.985 345.685 294.152 346.595 294.3 347.518C294.389 348.051 294.473 348.589 294.55 349.128C294.62 349.583 294.684 350.038 294.742 350.5C294.8 350.91 294.851 351.327 294.896 351.738C295.056 353.046 295.184 354.36 295.281 355.681C295.319 356.13 295.351 356.572 295.377 357.021C295.415 357.547 295.447 358.066 295.467 358.592C295.486 359.009 295.505 359.419 295.518 359.836C295.524 360.009 295.531 360.182 295.537 360.355C295.55 360.734 295.556 361.112 295.563 361.49C295.575 362.106 295.582 362.715 295.582 363.331Z" fill="#003177"/>
<path d="M265.779 363.33C265.779 366.254 265.631 369.139 265.349 371.999H74C74.0192 371.441 74.0449 370.89 74.0706 370.339C74.0834 370.031 74.1026 369.723 74.1282 369.422C74.1411 369.107 74.1603 368.793 74.186 368.479C74.2052 368.216 74.2244 367.953 74.2501 367.69C74.2565 367.588 74.2629 367.485 74.2693 367.383C74.2693 367.37 74.2758 367.357 74.2758 367.344C74.295 367.126 74.3142 366.908 74.3334 366.69C74.3463 366.523 74.3655 366.357 74.3783 366.19C74.4168 365.844 74.4489 365.504 74.4873 365.158C74.513 364.92 74.5386 364.689 74.5707 364.452C74.6348 363.888 74.7053 363.317 74.7823 362.759C74.7887 362.702 74.8015 362.644 74.8079 362.593C74.8464 362.298 74.8913 362.003 74.9298 361.708C74.9811 361.387 75.0323 361.067 75.0836 360.746C75.0901 360.695 75.0965 360.637 75.1093 360.586C75.1478 360.329 75.1927 360.073 75.2376 359.816C75.2696 359.618 75.3017 359.419 75.3401 359.22C75.3914 358.919 75.4427 358.624 75.5069 358.329C75.571 357.97 75.6351 357.611 75.7121 357.251C75.7249 357.162 75.7441 357.078 75.7633 356.995C75.8274 356.668 75.898 356.341 75.9685 356.014C75.9877 355.918 76.007 355.828 76.0262 355.738C76.0775 355.507 76.1288 355.277 76.1801 355.046C76.2378 354.776 76.3019 354.514 76.3661 354.244C76.3981 354.097 76.4302 353.949 76.4687 353.808C76.5264 353.571 76.5841 353.334 76.6418 353.096C76.7508 352.654 76.8598 352.218 76.9752 351.782C76.9816 351.756 76.9945 351.731 77.0009 351.705C77.0009 351.686 77.0073 351.673 77.0137 351.654C77.1099 351.275 77.2125 350.904 77.3215 350.525C77.3664 350.365 77.4112 350.198 77.4625 350.031C77.4689 349.999 77.4753 349.967 77.4882 349.935C77.4946 349.91 77.501 349.89 77.5074 349.865C77.5459 349.724 77.5844 349.583 77.6293 349.442C77.7126 349.147 77.8024 348.852 77.8921 348.557C77.9434 348.384 78.0011 348.204 78.0524 348.031C78.1294 347.787 78.2064 347.537 78.2833 347.294C78.3731 347.005 78.4692 346.716 78.559 346.434C78.5911 346.338 78.6231 346.242 78.6552 346.152C78.7642 345.819 78.8732 345.492 78.9886 345.165C79.0399 345.011 79.0912 344.857 79.1489 344.709C79.213 344.504 79.29 344.305 79.3605 344.107C79.508 343.684 79.6619 343.26 79.8222 342.844C79.9248 342.561 80.0274 342.286 80.1364 342.01C80.1364 341.978 80.1556 341.946 80.1684 341.92C80.2518 341.709 80.3351 341.497 80.4121 341.285C80.7263 340.484 81.0533 339.689 81.3867 338.9C81.5214 338.573 81.6625 338.246 81.8035 337.925C81.8741 337.759 81.9446 337.592 82.0215 337.432C82.1882 337.041 82.3678 336.656 82.5409 336.265C82.605 336.124 82.6691 335.976 82.7397 335.835C82.8935 335.502 83.0539 335.162 83.2142 334.828C83.2398 334.758 83.2719 334.694 83.3103 334.623C83.3424 334.553 83.3745 334.482 83.413 334.412C83.5027 334.213 83.5989 334.021 83.6951 333.822C83.772 333.661 83.8554 333.501 83.9323 333.341C84.1824 332.834 84.4389 332.328 84.6954 331.828C84.8044 331.616 84.9133 331.404 85.0224 331.199C85.2724 330.725 85.5289 330.25 85.779 329.776C85.856 329.635 85.9329 329.494 86.0098 329.359C86.0932 329.205 86.1766 329.058 86.2599 328.91C86.3817 328.692 86.5035 328.474 86.6254 328.256C86.6895 328.141 86.7536 328.032 86.8178 327.923C86.9845 327.621 87.1512 327.326 87.3243 327.031C87.7411 326.32 88.1643 325.608 88.5939 324.903C88.7606 324.633 88.9273 324.364 89.094 324.101C89.793 322.973 90.5175 321.857 91.2613 320.754C91.4665 320.453 91.6717 320.145 91.8833 319.843C91.9666 319.715 92.0564 319.587 92.1462 319.459C92.3578 319.151 92.5694 318.85 92.7874 318.548C92.9092 318.375 93.0246 318.208 93.1465 318.042C93.2427 317.907 93.3388 317.779 93.4286 317.644C93.4607 317.612 93.4863 317.574 93.5055 317.535C93.5633 317.465 93.6146 317.388 93.6723 317.317C93.7107 317.259 93.7492 317.202 93.7941 317.144C94.0121 316.849 94.2301 316.554 94.4481 316.259C94.5443 316.124 94.6469 315.99 94.7495 315.855C94.8713 315.695 94.9867 315.541 95.1086 315.381C96.0383 314.156 96.9873 312.95 97.9619 311.764C98.0453 311.662 98.1286 311.559 98.212 311.456C98.321 311.328 98.43 311.2 98.5326 311.072C98.6544 310.931 98.7698 310.79 98.8917 310.648C98.9494 310.572 99.0135 310.501 99.0776 310.424C99.2572 310.212 99.4303 310.007 99.6098 309.802C99.8727 309.494 100.136 309.193 100.399 308.885C100.623 308.629 100.841 308.379 101.065 308.129C101.232 307.943 101.399 307.75 101.566 307.564C101.649 307.475 101.726 307.391 101.803 307.301C101.809 307.289 101.822 307.282 101.835 307.269C102.181 306.885 102.527 306.5 102.88 306.122C103.483 305.468 104.092 304.826 104.707 304.185C105.066 303.813 105.426 303.448 105.791 303.082C105.881 302.986 105.977 302.89 106.073 302.794C106.4 302.46 106.727 302.14 107.054 301.819L107.471 301.402C107.542 301.338 107.612 301.268 107.683 301.203C107.766 301.107 107.856 301.024 107.946 300.941C108.311 300.588 108.677 300.235 109.048 299.889C109.113 299.818 109.183 299.754 109.254 299.69C109.504 299.453 109.754 299.216 110.01 298.985C110.177 298.825 110.35 298.664 110.523 298.517C110.6 298.44 110.677 298.369 110.76 298.299C110.895 298.171 111.03 298.049 111.164 297.927C111.53 297.593 111.895 297.26 112.267 296.939C112.806 296.459 113.357 295.978 113.902 295.51C114.454 295.035 115.005 294.567 115.563 294.105C115.614 294.06 115.659 294.022 115.711 293.983C116.127 293.637 116.544 293.291 116.967 292.951C117.096 292.842 117.23 292.74 117.365 292.631C117.621 292.425 117.884 292.214 118.147 292.009C118.372 291.829 118.596 291.649 118.827 291.47C118.865 291.444 118.897 291.412 118.936 291.387C119.231 291.149 119.532 290.919 119.834 290.688C120.103 290.476 120.379 290.271 120.648 290.072C121.103 289.719 121.565 289.38 122.026 289.04C122.142 288.95 122.257 288.867 122.373 288.783C122.469 288.713 122.565 288.642 122.661 288.572C122.757 288.501 122.854 288.431 122.956 288.36C123.116 288.238 123.277 288.123 123.444 288.007C123.662 287.847 123.886 287.687 124.11 287.527C124.219 287.45 124.335 287.373 124.444 287.289L125.521 286.539C125.656 286.443 125.797 286.347 125.944 286.251C126.149 286.103 126.355 285.962 126.566 285.821C126.816 285.654 127.066 285.487 127.316 285.321C127.656 285.09 128.002 284.866 128.349 284.635C128.374 284.615 128.406 284.596 128.432 284.577C128.657 284.436 128.875 284.288 129.099 284.154C129.202 284.083 129.304 284.013 129.407 283.949C129.452 283.917 129.503 283.891 129.548 283.859C129.958 283.596 130.375 283.333 130.792 283.07C130.926 282.987 131.061 282.903 131.196 282.82C131.33 282.73 131.465 282.647 131.606 282.564C131.824 282.429 132.042 282.294 132.267 282.16C132.401 282.076 132.536 281.993 132.67 281.916C132.773 281.845 132.882 281.781 132.991 281.717C133.139 281.627 133.286 281.544 133.433 281.454C133.542 281.39 133.652 281.32 133.767 281.256C134.19 281.005 134.613 280.755 135.043 280.512C135.473 280.255 135.909 280.012 136.338 279.774C136.614 279.608 136.89 279.454 137.165 279.306C137.3 279.229 137.428 279.159 137.563 279.088C137.71 279.005 137.858 278.922 138.012 278.845C138.14 278.768 138.262 278.704 138.39 278.639C138.435 278.607 138.48 278.582 138.525 278.562C138.832 278.396 139.14 278.229 139.448 278.069C139.628 277.973 139.807 277.876 139.993 277.78C140.243 277.646 140.493 277.517 140.743 277.389H140.75C140.916 277.299 141.083 277.209 141.256 277.126C141.526 276.985 141.795 276.85 142.071 276.716C142.475 276.511 142.885 276.305 143.295 276.107C144.225 275.651 145.155 275.209 146.085 274.779C146.303 274.677 146.521 274.581 146.739 274.484C147.425 274.17 148.111 273.862 148.797 273.574C149.175 273.407 149.553 273.247 149.932 273.087C150.175 272.984 150.419 272.881 150.663 272.779C150.746 272.747 150.829 272.708 150.913 272.676C151.035 272.631 151.15 272.58 151.265 272.535C151.528 272.426 151.791 272.317 152.054 272.221C152.112 272.189 152.17 272.17 152.227 272.15C152.612 271.99 153.003 271.843 153.388 271.695C153.599 271.612 153.805 271.528 154.016 271.451C154.17 271.394 154.33 271.336 154.484 271.278C154.645 271.214 154.805 271.156 154.965 271.099C155.177 271.015 155.388 270.938 155.6 270.868C155.773 270.804 155.953 270.74 156.132 270.676C156.196 270.65 156.267 270.624 156.331 270.605C156.645 270.49 156.953 270.381 157.267 270.278C157.267 270.278 157.274 270.278 157.28 270.272C157.415 270.227 157.556 270.175 157.69 270.131C157.703 270.131 157.722 270.137 157.735 270.137C158.473 270.214 159.165 270.265 159.806 270.265C162.621 270.265 164.885 269.72 166.956 269.066C168.732 268.502 170.361 267.854 172.066 267.393C174.118 266.835 176.279 266.546 178.934 267.001C183.569 267.797 188.064 268.822 192.399 270.079C193.066 270.272 193.733 270.47 194.393 270.676C209.045 275.17 221.862 282.204 232.436 291.175C253.596 309.116 265.779 334.803 265.779 363.33Z" fill="#0041A8"/>
<path d="M237.495 275.946C232.301 310.122 202.896 308.987 202.896 308.987C195.759 296.215 189.033 295.227 189.033 295.227L171.592 310.122C149.624 304.377 141.282 290.45 138.39 279.017C138.435 278.985 138.48 278.96 138.525 278.94C138.833 278.767 139.14 278.594 139.448 278.434C139.628 278.338 139.807 278.235 139.993 278.139C140.243 277.998 140.493 277.87 140.743 277.735H140.75C140.916 277.645 141.083 277.549 141.256 277.466C141.526 277.318 141.795 277.184 142.071 277.042C142.475 276.831 142.885 276.619 143.295 276.414C144.225 275.946 145.155 275.491 146.085 275.042C146.303 274.933 146.521 274.837 146.739 274.741C147.425 274.414 148.111 274.099 148.797 273.798C149.175 273.625 149.554 273.458 149.932 273.298C150.176 273.189 150.419 273.086 150.663 272.977C150.746 272.945 150.83 272.907 150.913 272.868C151.035 272.823 151.15 272.772 151.266 272.721C151.528 272.605 151.791 272.496 152.054 272.394C152.112 272.362 152.17 272.342 152.227 272.323C152.612 272.156 153.003 272.003 153.388 271.855C153.6 271.772 153.805 271.682 154.016 271.605C154.17 271.547 154.331 271.483 154.484 271.426C154.645 271.361 154.805 271.297 154.965 271.24C155.177 271.156 155.389 271.073 155.6 271.002C155.773 270.938 155.953 270.868 156.132 270.804C156.196 270.778 156.267 270.752 156.331 270.733C156.453 270.688 156.581 270.643 156.703 270.592C156.889 270.528 157.075 270.457 157.267 270.393C157.267 270.393 157.274 270.393 157.28 270.387C157.415 270.342 157.556 270.291 157.69 270.239C160.46 269.258 163.211 268.412 165.93 267.707C167.745 267.238 169.841 267.206 172.066 267.418C174.118 266.841 176.279 266.546 178.934 267.014C183.57 267.835 188.064 268.893 192.399 270.188C198.676 269.329 202.216 265.86 208.743 267.014C212.488 267.674 216.13 268.489 219.676 269.47C219.811 269.502 219.952 269.534 220.086 269.579C220.176 269.604 220.266 269.63 220.356 269.656C220.702 269.746 221.055 269.848 221.394 269.951C221.818 270.073 222.241 270.194 222.664 270.323C222.882 270.38 223.094 270.451 223.305 270.521C223.902 270.701 224.498 270.893 225.088 271.086C225.184 271.111 225.274 271.143 225.37 271.175C225.934 271.361 226.498 271.547 227.056 271.746C227.435 271.874 227.813 272.003 228.185 272.144C228.416 272.221 228.646 272.304 228.877 272.394C229.275 272.535 229.679 272.676 230.07 272.83C230.564 273.016 231.051 273.208 231.538 273.4C231.718 273.465 231.897 273.541 232.071 273.612C232.507 273.785 232.943 273.965 233.379 274.151C233.667 274.266 233.949 274.381 234.231 274.51C234.719 274.715 235.206 274.92 235.693 275.138C235.879 275.215 236.072 275.305 236.258 275.388C236.636 275.555 237.014 275.728 237.386 275.901C237.425 275.914 237.457 275.927 237.495 275.952V275.946Z" fill="#003177"/>
<path d="M252.615 330.68V371.999" stroke="black" stroke-width="2.56483" stroke-miterlimit="10" stroke-linecap="round"/>
<path d="M118.294 329.859V372" stroke="black" stroke-width="2.56483" stroke-miterlimit="10" stroke-linecap="round"/>
<path d="M295.582 363.33C295.582 366.254 295.434 369.139 295.152 371.999H74C74.0192 371.441 74.0449 370.889 74.0706 370.338C74.0834 370.03 74.1026 369.723 74.1282 369.421C74.1411 369.107 74.1603 368.793 74.186 368.479C74.1924 368.389 74.1988 368.293 74.2052 368.203C74.2244 367.927 74.2501 367.658 74.2693 367.382C74.2693 367.369 74.2758 367.356 74.2758 367.344C74.295 367.126 74.3142 366.908 74.3334 366.69C74.3591 366.375 74.3912 366.061 74.4296 365.747C74.4425 365.548 74.4681 365.349 74.4873 365.157C74.513 364.92 74.5386 364.689 74.5707 364.452C74.6348 363.888 74.7053 363.317 74.7823 362.759C74.8336 362.406 74.8785 362.06 74.9298 361.707C74.9811 361.387 75.0323 361.066 75.0836 360.746C75.0901 360.694 75.0965 360.637 75.1093 360.585C75.1478 360.329 75.1927 360.072 75.2376 359.816C75.2696 359.617 75.3017 359.418 75.3401 359.22C75.3658 359.046 75.3979 358.88 75.4299 358.707C75.5197 358.219 75.6159 357.732 75.7121 357.251C75.7249 357.161 75.7441 357.078 75.7633 356.995C75.8274 356.668 75.898 356.34 75.9685 356.013C75.9877 355.917 76.007 355.828 76.0262 355.738C76.0775 355.507 76.1288 355.276 76.1801 355.045C76.2378 354.776 76.3019 354.513 76.3661 354.244C76.3981 354.096 76.4302 353.949 76.4687 353.808C76.5264 353.57 76.5841 353.333 76.6418 353.096C76.7508 352.654 76.8598 352.218 76.9752 351.781C76.988 351.737 77.0009 351.698 77.0137 351.653C77.1099 351.275 77.2125 350.903 77.3215 350.525C77.3728 350.332 77.4305 350.134 77.4882 349.935C77.4946 349.909 77.501 349.89 77.5074 349.864C77.5459 349.723 77.5844 349.582 77.6293 349.441C77.7126 349.146 77.8024 348.851 77.8921 348.556C77.9434 348.383 78.0011 348.204 78.0524 348.03C78.1294 347.787 78.2064 347.537 78.2833 347.293C78.3731 347.004 78.4692 346.716 78.559 346.434C78.5911 346.338 78.6231 346.241 78.6552 346.152C78.7642 345.818 78.8732 345.491 78.9886 345.164C79.0399 345.01 79.0912 344.856 79.1489 344.709C79.213 344.504 79.29 344.305 79.3605 344.106C79.508 343.683 79.6619 343.26 79.8222 342.843C79.9248 342.561 80.0274 342.285 80.1364 342.009C80.1364 341.977 80.1556 341.945 80.1684 341.92C80.2518 341.708 80.3351 341.497 80.4121 341.285C80.7263 340.483 81.0533 339.688 81.3867 338.9C81.5214 338.573 81.6625 338.246 81.8035 337.925C81.8741 337.758 81.9446 337.592 82.0215 337.431C82.1882 337.04 82.3678 336.655 82.5409 336.264C82.605 336.123 82.6691 335.976 82.7397 335.835C82.8935 335.501 83.0539 335.161 83.2142 334.828C83.2398 334.757 83.2719 334.693 83.3103 334.623C83.4386 334.353 83.5668 334.091 83.6951 333.821C83.772 333.661 83.8554 333.501 83.9323 333.34C84.1824 332.834 84.4389 332.327 84.6954 331.827C84.8044 331.616 84.9133 331.404 85.0224 331.199C85.2724 330.724 85.5289 330.25 85.779 329.775C85.856 329.634 85.9329 329.493 86.0098 329.358C86.0932 329.205 86.1766 329.057 86.2599 328.91C86.3817 328.692 86.5035 328.474 86.6254 328.256C86.6382 328.23 86.6446 328.211 86.6575 328.191C86.7088 328.102 86.7601 328.012 86.8178 327.922C86.8498 327.852 86.8947 327.781 86.9332 327.711C87.0614 327.48 87.1961 327.255 87.3243 327.031C87.7411 326.319 88.1643 325.607 88.5939 324.902C88.7606 324.633 88.9273 324.363 89.094 324.101C89.793 322.972 90.5175 321.856 91.2613 320.753C91.4665 320.452 91.6717 320.144 91.8833 319.843C91.9666 319.715 92.0564 319.586 92.1462 319.458C92.3578 319.15 92.5694 318.849 92.7874 318.548C92.9092 318.375 93.0246 318.208 93.1465 318.041C93.2427 317.906 93.3388 317.778 93.4286 317.644C93.512 317.535 93.5889 317.426 93.6723 317.317C93.7107 317.259 93.7492 317.201 93.7941 317.143C94.0121 316.848 94.2301 316.554 94.4481 316.259C94.5443 316.124 94.6469 315.989 94.7495 315.855C94.8713 315.694 94.9867 315.54 95.1086 315.38C96.0383 314.155 96.9873 312.95 97.9619 311.764C98.0453 311.661 98.1286 311.559 98.212 311.456C98.321 311.328 98.43 311.199 98.5326 311.071C98.6544 310.93 98.7698 310.789 98.8917 310.648C98.9494 310.571 99.0135 310.501 99.0776 310.424C99.2572 310.212 99.4303 310.007 99.6098 309.802C99.8727 309.494 100.136 309.192 100.399 308.885C100.623 308.628 100.841 308.378 101.065 308.128C101.232 307.942 101.399 307.75 101.566 307.564C101.649 307.474 101.726 307.391 101.803 307.301C101.809 307.288 101.822 307.282 101.835 307.269C102.181 306.884 102.527 306.499 102.88 306.121C103.483 305.467 104.092 304.826 104.707 304.185C105.066 303.813 105.426 303.447 105.791 303.082C105.881 302.986 105.977 302.889 106.073 302.793C106.4 302.46 106.727 302.139 107.054 301.819L107.471 301.402C107.542 301.338 107.612 301.267 107.683 301.203C108.131 300.761 108.587 300.325 109.048 299.889C109.536 299.427 110.029 298.965 110.523 298.516C110.6 298.439 110.677 298.369 110.76 298.298C111.261 297.837 111.761 297.388 112.267 296.939C112.806 296.458 113.357 295.977 113.902 295.509C114.454 295.035 115.005 294.567 115.563 294.105C115.614 294.06 115.659 294.021 115.711 293.983C116.127 293.637 116.544 293.291 116.967 292.951C117.096 292.842 117.23 292.739 117.365 292.63C117.621 292.425 117.884 292.213 118.147 292.008C118.372 291.829 118.596 291.649 118.827 291.469C118.865 291.444 118.897 291.412 118.936 291.386C119.506 290.937 120.071 290.501 120.648 290.072C121.103 289.719 121.565 289.379 122.026 289.039C122.142 288.95 122.257 288.866 122.373 288.783C122.469 288.712 122.565 288.642 122.661 288.571C122.757 288.501 122.854 288.43 122.956 288.36C123.116 288.238 123.277 288.122 123.444 288.007C123.662 287.847 123.886 287.686 124.11 287.526C124.219 287.449 124.335 287.372 124.444 287.289L125.521 286.539C125.656 286.442 125.797 286.346 125.944 286.25C126.028 286.192 126.111 286.135 126.194 286.083C126.566 285.827 126.938 285.57 127.316 285.32C127.656 285.089 128.002 284.865 128.349 284.634C128.599 284.474 128.849 284.307 129.099 284.153C129.202 284.083 129.304 284.012 129.407 283.948C129.452 283.916 129.503 283.89 129.548 283.858C129.958 283.595 130.375 283.333 130.792 283.07C130.926 282.986 131.061 282.903 131.196 282.82C131.33 282.73 131.465 282.646 131.606 282.563C131.824 282.428 132.042 282.294 132.267 282.159C132.401 282.076 132.536 281.992 132.67 281.915C132.722 281.877 132.779 281.845 132.837 281.806C132.888 281.781 132.94 281.749 132.991 281.717C133.139 281.627 133.286 281.544 133.433 281.454C133.542 281.39 133.652 281.319 133.767 281.255C134.19 281.005 134.613 280.755 135.043 280.511C135.473 280.255 135.909 280.011 136.338 279.774C136.614 279.607 136.89 279.453 137.165 279.306C137.3 279.229 137.428 279.158 137.563 279.088C137.71 279.004 137.858 278.921 138.012 278.844C138.134 278.767 138.262 278.703 138.39 278.633C138.435 278.607 138.48 278.581 138.525 278.562C138.832 278.395 139.14 278.229 139.448 278.068C139.628 277.972 139.807 277.876 139.993 277.78C140.243 277.645 140.493 277.517 140.743 277.389H140.75C140.916 277.299 141.083 277.209 141.256 277.126C141.526 276.985 141.795 276.85 142.071 276.715C142.475 276.51 142.885 276.305 143.295 276.106C144.225 275.651 145.155 275.208 146.085 274.779C146.303 274.676 146.521 274.58 146.739 274.484C147.425 274.17 148.111 273.862 148.797 273.573C149.175 273.407 149.553 273.246 149.932 273.086C150.175 272.983 150.419 272.881 150.663 272.778C150.746 272.746 150.829 272.708 150.913 272.676C151.035 272.631 151.15 272.579 151.265 272.535C151.528 272.426 151.791 272.317 152.054 272.22C152.112 272.188 152.17 272.169 152.227 272.15C152.612 271.99 153.003 271.842 153.388 271.695C153.599 271.611 153.805 271.528 154.016 271.451C154.17 271.393 154.33 271.336 154.484 271.278C154.645 271.214 154.805 271.156 154.965 271.098C155.177 271.015 155.388 270.938 155.6 270.867C155.773 270.803 155.953 270.739 156.132 270.675C156.196 270.649 156.267 270.624 156.331 270.605C156.453 270.56 156.581 270.515 156.703 270.47C156.889 270.406 157.075 270.342 157.267 270.278C157.267 270.278 157.274 270.278 157.28 270.271C157.434 270.226 157.581 270.181 157.735 270.136C160.698 269.258 163.814 268.995 166.956 269.066C174.201 269.207 181.575 271.092 187.526 271.092C189.917 271.092 192.194 270.925 194.393 270.675C203.466 269.656 211.199 267.245 219.676 269.38C219.81 269.412 219.952 269.444 220.086 269.482C220.176 269.508 220.266 269.534 220.356 269.559C220.702 269.649 221.054 269.745 221.394 269.848C221.817 269.963 222.241 270.085 222.664 270.207C222.882 270.265 223.093 270.329 223.305 270.399C223.901 270.573 224.498 270.758 225.088 270.944C225.184 270.97 225.274 271.002 225.37 271.034C225.934 271.214 226.498 271.393 227.056 271.586C227.434 271.707 227.813 271.836 228.185 271.97C228.415 272.047 228.646 272.124 228.877 272.214C229.275 272.349 229.679 272.49 230.07 272.637C230.564 272.817 231.051 273.003 231.538 273.189C231.718 273.253 231.897 273.323 232.07 273.394C232.506 273.561 232.942 273.734 233.378 273.913C233.667 274.022 233.949 274.138 234.231 274.259C234.719 274.458 235.206 274.657 235.693 274.869C235.879 274.946 236.071 275.029 236.257 275.112C236.636 275.273 237.014 275.439 237.386 275.612C237.424 275.625 237.457 275.638 237.495 275.664C237.822 275.805 238.149 275.952 238.47 276.1C238.675 276.189 238.874 276.286 239.072 276.388C239.534 276.593 239.983 276.811 240.438 277.029C242.496 278.03 244.51 279.081 246.465 280.197C246.805 280.383 247.145 280.582 247.485 280.781C247.87 281.005 248.254 281.229 248.639 281.46C249.306 281.851 249.96 282.255 250.608 282.666C250.909 282.852 251.204 283.038 251.499 283.23C252.185 283.666 252.865 284.115 253.532 284.57C253.974 284.871 254.416 285.173 254.852 285.481C255.41 285.872 255.968 286.263 256.513 286.667C257.065 287.064 257.603 287.468 258.142 287.879C258.68 288.289 259.213 288.699 259.738 289.123C260.213 289.501 260.687 289.879 261.149 290.264C261.553 290.591 261.944 290.918 262.335 291.258C262.637 291.508 262.938 291.764 263.233 292.027C263.611 292.354 263.983 292.681 264.349 293.015C264.836 293.451 265.311 293.887 265.785 294.329L265.823 294.368C266.292 294.804 266.76 295.253 267.221 295.701C267.273 295.753 267.324 295.798 267.375 295.849C267.766 296.234 268.151 296.612 268.529 297.003C268.626 297.099 268.728 297.202 268.818 297.298C269.164 297.644 269.504 297.997 269.831 298.35C270.152 298.683 270.466 299.017 270.774 299.356C271.312 299.94 271.844 300.523 272.364 301.12C272.582 301.363 272.8 301.613 273.011 301.863C273.274 302.171 273.537 302.479 273.794 302.787C274.044 303.082 274.287 303.377 274.531 303.678C274.563 303.71 274.589 303.749 274.614 303.781C274.909 304.146 275.211 304.518 275.506 304.89C275.589 304.993 275.672 305.102 275.749 305.204C276.019 305.55 276.288 305.897 276.551 306.243C277.205 307.096 277.84 307.961 278.455 308.833C278.757 309.263 279.052 309.693 279.347 310.122C279.616 310.52 279.885 310.917 280.148 311.315C280.238 311.437 280.315 311.565 280.392 311.687C280.629 312.052 280.866 312.411 281.097 312.777C281.668 313.675 282.226 314.579 282.751 315.496C282.989 315.893 283.219 316.291 283.444 316.695C283.502 316.784 283.553 316.874 283.604 316.964C283.822 317.355 284.034 317.746 284.252 318.144C284.316 318.259 284.38 318.375 284.444 318.496C284.637 318.862 284.835 319.227 285.028 319.599C285.073 319.683 285.111 319.76 285.149 319.843C285.605 320.721 286.047 321.613 286.477 322.504C286.932 323.459 287.374 324.421 287.791 325.396C287.996 325.864 288.195 326.332 288.394 326.806C288.426 326.89 288.465 326.967 288.497 327.05C288.67 327.48 288.843 327.909 289.016 328.339C289.407 329.326 289.779 330.32 290.132 331.327C290.266 331.692 290.388 332.052 290.51 332.417C290.587 332.629 290.657 332.84 290.728 333.052C290.875 333.488 291.017 333.924 291.151 334.36C291.318 334.866 291.472 335.379 291.626 335.892C292.107 337.489 292.536 339.105 292.927 340.74C292.998 341.028 293.068 341.323 293.139 341.618C293.261 342.151 293.383 342.689 293.492 343.221C293.607 343.741 293.71 344.254 293.806 344.773C293.985 345.684 294.152 346.594 294.3 347.517C294.389 348.05 294.473 348.588 294.55 349.127C294.62 349.582 294.684 350.037 294.742 350.499C294.8 350.909 294.851 351.326 294.896 351.737C295.056 353.045 295.184 354.359 295.281 355.68C295.319 356.129 295.351 356.571 295.377 357.02C295.415 357.546 295.447 358.065 295.467 358.591C295.486 359.008 295.505 359.418 295.518 359.835C295.524 360.008 295.531 360.181 295.537 360.354C295.55 360.733 295.556 361.111 295.563 361.489C295.575 362.105 295.582 362.714 295.582 363.33Z" stroke="black" stroke-width="2.56483" stroke-miterlimit="10"/>
<path d="M215.328 272.342C214.578 272.759 213.815 273.201 213.026 273.676C198.772 282.255 173.368 278.1 164.224 270.63C163.564 270.092 162.878 269.598 162.179 269.162L162.608 264.622L163.532 254.773L166.391 224.277H209.769L211.154 236.262L214.668 266.648L215.328 272.349V272.342Z" fill="#FFD19D"/>
<path d="M211.154 237.686C204.133 254.318 177.978 257.794 163.532 258.416L166.392 224.271H209.769L211.154 237.686Z" fill="#E99F6F"/>
<path d="M162.775 269.111L166.391 224.277H209.769L214.668 273.573C214.668 273.573 186.249 286.93 162.775 269.111Z" stroke="black" stroke-width="2.56483" stroke-miterlimit="10"/>
<path d="M261.251 188.549C258.039 194.653 253.397 199.18 248.709 201.335C245.022 203.04 241.303 203.278 238.238 201.662C237.822 201.444 237.43 201.194 237.059 200.918C231.179 196.59 230.627 185.529 236.039 175.263C238.174 171.204 240.951 167.838 243.945 165.408C248.991 161.304 254.679 159.849 259.052 162.151C259.802 162.548 260.488 163.035 261.097 163.619C266.15 168.357 266.381 178.816 261.251 188.549Z" fill="#FFD19D"/>
<path d="M261.097 163.619C259.937 165.158 258.622 167.107 257.289 169.499C253.518 176.289 249.639 186.651 248.709 201.335C245.022 203.04 241.303 203.278 238.238 201.662C237.822 201.444 237.43 201.194 237.059 200.918C238.899 191.281 241.701 176.866 243.945 165.408C248.991 161.304 254.679 159.849 259.052 162.151C259.802 162.548 260.488 163.035 261.097 163.619Z" fill="#E99F6F"/>
<path d="M261.251 188.549C258.039 194.653 253.397 199.18 248.709 201.335C245.022 203.04 241.303 203.278 238.238 201.662C237.822 201.444 237.43 201.194 237.059 200.918C231.179 196.59 230.627 185.529 236.039 175.263C238.174 171.204 240.951 167.838 243.945 165.408C248.991 161.304 254.679 159.849 259.052 162.151C259.802 162.548 260.488 163.035 261.097 163.619C266.15 168.357 266.381 178.816 261.251 188.549Z" stroke="black" stroke-width="2.56483" stroke-miterlimit="10"/>
<path d="M260.071 174.339C260.071 174.339 258.994 168.53 255.377 169.197C251.331 169.947 250.414 173.384 250.517 182.136C250.62 190.889 248.645 193.031 245.561 194.063" stroke="black" stroke-width="2.56483" stroke-miterlimit="10" stroke-linecap="round"/>
<path d="M139.628 201.628C146.589 197.96 147.573 186.141 141.824 175.228C136.075 164.315 125.771 158.442 118.81 162.109C111.848 165.777 110.864 177.597 116.613 188.509C122.362 199.422 132.666 205.295 139.628 201.628Z" fill="#FFD19D"/>
<path d="M117.775 163.619C118.936 165.158 120.468 166.998 121.584 169.499C125.06 177.264 126.118 185.523 127.047 200.206C130.734 201.912 137.569 203.278 140.634 201.662C141.051 201.444 141.442 201.194 141.814 200.918C139.974 191.281 137.172 176.866 134.928 165.408C129.881 161.304 124.194 159.849 119.821 162.151C119.071 162.548 118.385 163.035 117.775 163.619Z" fill="#E99F6F"/>
<path d="M139.628 201.628C146.589 197.96 147.573 186.141 141.824 175.228C136.075 164.315 125.771 158.442 118.81 162.109C111.848 165.777 110.864 177.597 116.613 188.509C122.362 199.422 132.666 205.295 139.628 201.628Z" stroke="black" stroke-width="2.56483" stroke-miterlimit="10"/>
<path d="M117.801 174.34C117.801 174.34 118.878 168.531 122.494 169.198C126.54 169.948 127.457 173.385 127.355 182.137C127.252 190.89 129.227 193.032 132.311 194.064" stroke="black" stroke-width="2.56483" stroke-miterlimit="10" stroke-linecap="round"/>
<path d="M246.337 163.806C246.337 166.781 246.196 169.711 245.92 172.597C244.753 184.837 241.175 196.135 235.808 205.728H235.802C225.382 224.361 208.192 236.519 188.757 236.519C186.705 236.519 184.678 236.384 182.684 236.115C181.838 236.006 180.998 235.871 180.164 235.711C179.953 235.672 179.741 235.627 179.53 235.583C179.267 235.531 179.01 235.48 178.754 235.416C178.658 235.397 178.561 235.377 178.472 235.352C178.157 235.288 177.843 235.211 177.529 235.127C177.138 235.038 176.753 234.935 176.375 234.826C176.183 234.775 175.99 234.723 175.804 234.666C175.516 234.582 175.227 234.499 174.939 234.403C174.4 234.242 173.874 234.063 173.348 233.877C172.951 233.742 172.553 233.595 172.162 233.447C171.739 233.287 171.316 233.12 170.899 232.947C169.995 232.575 169.104 232.178 168.225 231.755C167.879 231.588 167.526 231.415 167.186 231.235C166.808 231.049 166.436 230.85 166.064 230.645C165.731 230.466 165.397 230.286 165.07 230.094C164.82 229.953 164.577 229.812 164.333 229.664C164.006 229.478 163.692 229.28 163.371 229.081C163.14 228.94 162.916 228.799 162.685 228.645C160.351 227.151 158.107 225.458 155.972 223.579C155.651 223.303 155.343 223.021 155.029 222.739C154.715 222.451 154.394 222.156 154.087 221.854C153.772 221.559 153.465 221.258 153.157 220.95C152.849 220.642 152.541 220.335 152.24 220.02C151.938 219.706 151.637 219.392 151.342 219.065C151.041 218.744 150.752 218.424 150.457 218.09C149.88 217.449 149.322 216.795 148.777 216.128C148.482 215.769 148.194 215.41 147.905 215.038C147.63 214.686 147.354 214.333 147.085 213.974C146.854 213.666 146.616 213.346 146.379 213.031C146.071 212.602 145.764 212.172 145.462 211.736C145.347 211.569 145.231 211.396 145.116 211.23L145.103 211.217C144.981 211.037 144.86 210.851 144.738 210.672C144.488 210.293 144.238 209.909 143.988 209.524C143.744 209.146 143.5 208.754 143.263 208.363C143.019 207.972 142.782 207.581 142.551 207.183C142.314 206.786 142.083 206.388 141.859 205.984C141.628 205.58 141.403 205.177 141.185 204.766C140.512 203.541 139.877 202.285 139.281 201.002C139.127 200.682 138.98 200.355 138.826 200.028C138.582 199.495 138.345 198.957 138.114 198.412C137.928 197.976 137.742 197.533 137.563 197.091C137.377 196.648 137.204 196.206 137.03 195.757C136.857 195.308 136.684 194.853 136.517 194.404C136.351 193.949 136.19 193.494 136.03 193.032C135.87 192.577 135.71 192.115 135.562 191.653C135.408 191.192 135.261 190.724 135.113 190.256C134.818 189.319 134.549 188.377 134.292 187.421C134.03 186.466 133.786 185.504 133.561 184.53C133.459 184.087 133.356 183.645 133.26 183.202C133.241 183.138 133.228 183.068 133.215 183.004C133.113 182.535 133.016 182.061 132.92 181.586C132.824 181.093 132.728 180.599 132.638 180.099C132.548 179.605 132.465 179.105 132.382 178.598C132.298 178.098 132.221 177.592 132.144 177.092C131.991 176.078 131.862 175.059 131.753 174.033C131.708 173.616 131.664 173.199 131.619 172.776C131.593 172.488 131.567 172.199 131.542 171.911C131.51 171.596 131.484 171.289 131.465 170.974C131.375 169.884 131.311 168.788 131.266 167.685C131.247 167.339 131.234 166.993 131.227 166.64C131.215 166.281 131.208 165.922 131.202 165.563C131.189 164.979 131.183 164.396 131.183 163.806C131.183 163.216 131.189 162.581 131.202 161.972C131.208 161.478 131.221 160.984 131.24 160.491C131.247 160.356 131.253 160.228 131.26 160.1C131.279 159.587 131.298 159.074 131.33 158.567C131.394 157.464 131.471 156.374 131.574 155.284C131.76 153.29 132.003 151.315 132.318 149.372C132.465 148.455 132.625 147.538 132.798 146.634C132.895 146.128 132.997 145.628 133.1 145.127C133.1 145.121 133.106 145.108 133.106 145.095C133.222 144.563 133.337 144.031 133.459 143.505C133.561 143.056 133.664 142.614 133.773 142.165C133.824 141.966 133.876 141.761 133.927 141.562C134.267 140.222 134.639 138.901 135.036 137.6C135.113 137.35 135.19 137.106 135.267 136.862C135.395 136.458 135.524 136.054 135.658 135.657C135.825 135.15 135.998 134.644 136.178 134.137C136.389 133.534 136.614 132.938 136.838 132.342C136.986 131.944 137.139 131.547 137.3 131.155C137.454 130.771 137.607 130.386 137.768 130.001C138.024 129.399 138.281 128.796 138.544 128.199C138.749 127.738 138.96 127.283 139.172 126.827C139.371 126.404 139.576 125.981 139.781 125.558C139.82 125.481 139.865 125.397 139.897 125.32C140.108 124.891 140.326 124.468 140.544 124.044C140.781 123.583 141.025 123.134 141.269 122.685C141.519 122.223 141.782 121.762 142.038 121.3C142.282 120.87 142.532 120.447 142.782 120.03C143.481 118.863 144.212 117.722 144.962 116.606C145.18 116.279 145.405 115.959 145.629 115.638C145.853 115.318 146.078 114.997 146.309 114.683L147.001 113.74C147.456 113.138 147.925 112.535 148.399 111.951C148.425 111.926 148.444 111.9 148.463 111.874C148.681 111.599 148.912 111.323 149.136 111.054C149.156 111.034 149.168 111.015 149.181 110.996C149.342 110.804 149.502 110.618 149.662 110.432C149.739 110.335 149.822 110.246 149.906 110.149C150.419 109.56 150.938 108.982 151.464 108.412C151.708 108.149 151.958 107.886 152.214 107.623C152.477 107.347 152.74 107.078 153.003 106.815C153.766 106.046 154.548 105.302 155.343 104.59C155.401 104.539 155.459 104.488 155.51 104.436C155.766 104.212 156.023 103.981 156.286 103.763C156.568 103.519 156.85 103.276 157.132 103.045C157.703 102.57 158.274 102.109 158.857 101.66C159.152 101.435 159.441 101.217 159.736 100.999C159.768 100.974 159.806 100.948 159.838 100.922C160.101 100.73 160.358 100.544 160.627 100.358C161.813 99.5054 163.031 98.7167 164.275 97.9858C164.583 97.7998 164.897 97.6203 165.211 97.4407C165.545 97.2484 165.885 97.0624 166.218 96.8829C167.065 96.4276 167.924 95.998 168.783 95.5941C169.033 95.4786 169.283 95.3632 169.533 95.2478C170.04 95.0234 170.553 94.8054 171.059 94.6002C171.348 94.4784 171.636 94.3629 171.931 94.2539C172.431 94.0552 172.938 93.8756 173.438 93.7025C173.791 93.5742 174.143 93.4588 174.496 93.3498C174.624 93.3049 174.753 93.2601 174.887 93.2216C175.266 93.1062 175.644 92.9907 176.022 92.8817C176.458 92.7599 176.894 92.6381 177.337 92.5291C177.773 92.4137 178.215 92.3111 178.658 92.2149C179.074 92.1187 179.491 92.0353 179.908 91.952C179.953 91.9392 180.004 91.9328 180.055 91.9199C180.421 91.8494 180.793 91.7853 181.165 91.7276C181.671 91.6378 182.178 91.5609 182.684 91.4967C184.678 91.2274 186.705 91.0928 188.757 91.0928C198.131 91.0928 206.98 93.9205 214.802 98.9412C222.215 103.693 228.704 110.412 233.833 118.556C237.956 125.102 241.207 132.56 243.362 140.658C245.292 147.929 246.337 155.714 246.337 163.806Z" fill="#E99F6F"/>
<path d="M234.18 163.805C234.18 168.217 233.866 172.538 233.269 176.732C233.269 176.751 233.263 176.77 233.263 176.79C230.692 194.788 222.882 210.485 211.885 221.264C203.645 229.349 193.617 234.671 182.678 236.114C181.832 236.005 180.992 235.87 180.158 235.71C179.946 235.672 179.735 235.627 179.523 235.582C179.26 235.531 179.004 235.479 178.747 235.415C178.651 235.396 178.555 235.377 178.465 235.351C178.151 235.287 177.837 235.21 177.523 235.127C177.132 235.037 176.747 234.934 176.369 234.825C176.176 234.774 175.984 234.723 175.798 234.665C175.509 234.582 175.221 234.498 174.932 234.402C174.394 234.242 173.868 234.062 173.342 233.876C172.945 233.742 172.547 233.594 172.156 233.447C171.733 233.286 171.309 233.12 170.893 232.947C169.989 232.575 169.097 232.177 168.219 231.754C167.873 231.587 167.52 231.414 167.18 231.235C166.802 231.049 166.43 230.85 166.058 230.645C165.724 230.465 165.391 230.286 165.064 230.093C164.814 229.952 164.57 229.811 164.327 229.664C164 229.478 163.685 229.279 163.365 229.08C163.134 228.939 162.91 228.798 162.679 228.644C160.345 227.15 158.101 225.457 155.965 223.579C155.645 223.303 155.337 223.021 155.023 222.739C154.709 222.45 154.388 222.155 154.08 221.854C153.766 221.559 153.458 221.257 153.15 220.95C152.843 220.642 152.535 220.334 152.233 220.02C151.932 219.706 151.631 219.391 151.336 219.064C151.034 218.744 150.746 218.423 150.451 218.09C149.88 217.449 149.322 216.795 148.771 216.128C148.476 215.769 148.187 215.41 147.899 215.038C147.623 214.685 147.348 214.332 147.078 213.973C146.847 213.665 146.61 213.345 146.373 213.031C146.065 212.601 145.757 212.171 145.456 211.735C145.341 211.569 145.225 211.396 145.11 211.229L145.097 211.216C144.975 211.037 144.853 210.851 144.731 210.671C144.481 210.293 144.231 209.908 143.981 209.523C143.737 209.145 143.494 208.754 143.257 208.363C143.013 207.972 142.776 207.58 142.545 207.183C142.308 206.785 142.077 206.388 141.852 205.984C141.622 205.58 141.397 205.176 141.179 204.765C140.512 203.541 139.877 202.284 139.275 201.002C139.121 200.681 138.973 200.354 138.819 200.027C138.576 199.495 138.339 198.956 138.108 198.411C137.922 197.975 137.736 197.533 137.556 197.09C137.37 196.648 137.197 196.205 137.024 195.757C136.851 195.308 136.678 194.852 136.511 194.404C136.344 193.948 136.184 193.493 136.024 193.031C135.863 192.576 135.703 192.114 135.556 191.653C135.402 191.191 135.254 190.723 135.107 190.255C134.818 189.319 134.543 188.376 134.286 187.421C134.023 186.465 133.78 185.504 133.555 184.529C133.453 184.087 133.35 183.644 133.254 183.202C133.235 183.138 133.222 183.067 133.209 183.003C133.106 182.535 133.01 182.06 132.914 181.586C132.818 181.092 132.722 180.598 132.632 180.098C132.542 179.604 132.459 179.104 132.375 178.598C132.292 178.098 132.215 177.591 132.138 177.091C131.991 176.078 131.862 175.058 131.747 174.032C131.702 173.616 131.657 173.199 131.612 172.776C131.587 172.487 131.561 172.199 131.535 171.91C131.503 171.596 131.478 171.288 131.458 170.974C131.369 169.884 131.305 168.787 131.26 167.684C131.24 167.338 131.228 166.992 131.221 166.639C131.208 166.28 131.202 165.921 131.195 165.562C131.183 164.979 131.176 164.395 131.176 163.805C131.176 163.215 131.183 162.58 131.195 161.971C131.195 161.478 131.215 160.984 131.234 160.49C131.234 160.355 131.247 160.227 131.253 160.099C131.272 159.586 131.292 159.073 131.324 158.566C131.388 157.464 131.465 156.374 131.567 155.283C131.837 152.347 132.247 149.455 132.792 146.634C132.888 146.127 132.991 145.627 133.093 145.127C133.093 145.127 133.1 145.107 133.1 145.095C133.215 144.562 133.331 144.03 133.453 143.504C133.555 143.056 133.658 142.613 133.767 142.164C133.818 141.966 133.869 141.76 133.921 141.562C134.26 140.221 134.632 138.901 135.03 137.599C135.107 137.349 135.184 137.105 135.261 136.862C135.389 136.458 135.517 136.054 135.652 135.656C135.819 135.15 135.992 134.643 136.171 134.136C136.383 133.534 136.607 132.937 136.832 132.341C136.979 131.943 137.133 131.546 137.293 131.155C137.447 130.77 137.601 130.385 137.761 130.001C138.018 129.398 138.274 128.795 138.537 128.199C138.743 127.737 138.954 127.282 139.166 126.827C139.364 126.403 139.57 125.98 139.775 125.557C139.813 125.48 139.858 125.397 139.89 125.32C140.102 124.89 140.32 124.467 140.538 124.044C140.775 123.582 141.019 123.133 141.262 122.684C141.513 122.223 141.775 121.761 142.032 121.299C142.276 120.87 142.526 120.447 142.776 120.03C143.475 118.863 144.206 117.722 144.956 116.606C145.174 116.279 145.398 115.958 145.623 115.638C145.847 115.317 146.071 114.996 146.302 114.682L146.995 113.74C147.457 113.137 147.918 112.541 148.393 111.951C148.418 111.925 148.438 111.899 148.457 111.874C148.675 111.598 148.906 111.322 149.13 111.053C149.149 111.034 149.162 111.014 149.175 110.995C149.419 110.707 149.656 110.425 149.9 110.149C150.412 109.559 150.932 108.982 151.458 108.411C151.701 108.148 151.951 107.885 152.208 107.622C152.471 107.347 152.734 107.077 152.997 106.815C153.76 106.045 154.542 105.308 155.337 104.59C155.395 104.538 155.452 104.487 155.504 104.436C155.76 104.211 156.017 103.98 156.28 103.762C156.562 103.519 156.844 103.275 157.126 103.044C157.697 102.57 158.267 102.108 158.851 101.659C159.146 101.435 159.434 101.217 159.729 100.999C160.024 100.781 160.319 100.569 160.62 100.358C161.813 99.5112 163.025 98.7225 164.269 97.9851C164.577 97.7992 164.891 97.6196 165.205 97.4401C165.539 97.2477 165.878 97.0618 166.212 96.8822C167.058 96.427 167.917 95.9974 168.777 95.5934C169.027 95.478 169.277 95.3626 169.527 95.2472C170.033 95.0227 170.546 94.8047 171.053 94.5995C171.341 94.4777 171.63 94.3623 171.925 94.2533C172.425 94.0545 172.932 93.875 173.432 93.7018C173.784 93.5736 174.137 93.4582 174.49 93.3492C174.618 93.3043 174.746 93.2594 174.881 93.2209C175.259 93.1055 175.638 92.9901 176.016 92.8811C176.452 92.7593 176.888 92.6374 177.33 92.5284C177.766 92.413 178.209 92.3104 178.651 92.2142C179.068 92.1181 179.485 92.0347 179.902 91.9514C179.946 91.9385 179.998 91.9321 180.049 91.9193C180.415 91.8488 180.786 91.7846 181.158 91.7269C181.665 91.6372 182.171 91.5602 182.678 91.4961C189 92.3361 195.015 94.4585 200.555 97.6645C220.394 109.142 234.18 134.438 234.18 163.805Z" fill="#FFD19D"/>
<path d="M231.692 142.595C231.692 142.595 218.374 122.063 190.084 121.864C167.481 121.711 149.207 135.766 149.207 135.766L140.756 144.653L138.435 121.781C138.435 121.781 167.097 106.443 167.558 106.443C168.02 106.443 222.862 107.681 223.33 107.835C223.798 107.989 240.059 124.724 240.059 124.724L231.692 142.588V142.595Z" fill="#E99F6F"/>
<path d="M246.337 162.677C246.337 165.999 246.209 169.269 245.959 172.488C245.388 172.898 244.773 173.187 244.131 173.353C238.848 174.706 233.115 167.179 231.314 156.528C229.518 145.884 232.34 136.157 237.617 134.804C239.637 134.291 241.733 135.067 243.644 136.837C245.395 144.954 246.337 153.643 246.337 162.671V162.677Z" fill="#E99F6F"/>
<path d="M131.683 161.504C131.683 165.293 131.837 169.025 132.131 172.699C132.811 173.167 133.542 173.501 134.312 173.687C140.595 175.232 147.424 166.64 149.566 154.495C151.701 142.357 148.341 131.258 142.064 129.719C139.659 129.129 137.159 130.021 134.895 132.04C132.811 141.299 131.689 151.206 131.689 161.51L131.683 161.504Z" fill="#E99F6F"/>
<path d="M188.757 236.512C220.557 236.512 246.337 203.957 246.337 163.799C246.337 123.641 220.557 91.0859 188.757 91.0859C156.956 91.0859 131.176 123.641 131.176 163.799C131.176 203.957 156.956 236.512 188.757 236.512Z" stroke="black" stroke-width="2.56483" stroke-miterlimit="10"/>
<path d="M184.627 169.896C184.627 169.896 182.197 178.469 173.938 186.215C169.155 190.704 179.203 196.955 186.275 196.545L181.062 193.243L178.228 190.556L179.408 187.305L184.082 175.796L184.627 169.903V169.896Z" fill="#E99F6F"/>
<path d="M186.006 170.705C186.006 170.705 182.197 183.241 179.177 188.165C177.049 191.634 183.993 195.218 186.455 195.776" stroke="black" stroke-width="2.56483" stroke-miterlimit="10" stroke-linecap="round"/>
<path d="M173.137 207.389C173.137 207.389 187.346 218.937 201.638 203.445" stroke="black" stroke-width="2.56483" stroke-miterlimit="10" stroke-linecap="round"/>
<path d="M210.007 171.988C212.946 171.988 215.329 169.625 215.329 166.711C215.329 163.796 212.946 161.434 210.007 161.434C207.067 161.434 204.685 163.796 204.685 166.711C204.685 169.625 207.067 171.988 210.007 171.988Z" fill="black"/>
<path d="M164.083 170.859C167.225 170.859 169.771 168.571 169.771 165.748C169.771 162.926 167.225 160.638 164.083 160.638C160.942 160.638 158.396 162.926 158.396 165.748C158.396 168.571 160.942 170.859 164.083 170.859Z" fill="black"/>
<path d="M206.467 149.654C206.467 149.654 213.366 147.326 219.907 149.91C226.447 152.494 228.255 155.412 227.005 157.015C225.703 158.689 220.913 155.822 214.546 156.13C208.179 156.438 203.357 156.976 202.69 153.815C202.12 151.103 206.473 149.66 206.473 149.66L206.467 149.654Z" fill="#382329"/>
<path d="M206.467 149.654C206.467 149.654 213.366 147.326 219.907 149.91C226.447 152.494 228.255 155.412 227.005 157.015C225.703 158.689 220.913 155.822 214.546 156.13C208.179 156.431 203.357 156.976 202.69 153.815C202.12 151.103 206.473 149.66 206.473 149.66L206.467 149.654Z" stroke="black" stroke-width="2.56483" stroke-miterlimit="10"/>
<path d="M169.476 150.187C169.476 150.187 162.897 147.93 156.651 150.174C150.413 152.418 148.681 155.053 149.874 156.547C151.118 158.099 155.69 155.566 161.768 155.957C167.841 156.349 172.444 156.939 173.086 154.053C173.631 151.578 169.476 150.18 169.476 150.18V150.187Z" fill="#382329"/>
<path d="M169.476 150.187C169.476 150.187 162.897 147.93 156.651 150.174C150.413 152.418 148.681 155.053 149.874 156.547C151.118 158.099 155.69 155.566 161.768 155.957C167.841 156.349 172.444 156.939 173.086 154.053C173.631 151.578 169.476 150.18 169.476 150.18V150.187Z" stroke="black" stroke-width="2.56483" stroke-miterlimit="10"/>
<path d="M199.933 283.712C199.933 283.712 189.527 291.048 188.783 294.196C188.783 294.196 181.922 286.008 175.895 283.712L184.987 278.974L188.411 282.032L192.822 278.916L199.94 283.719L199.933 283.712Z" fill="#A0A0A0"/>
<path d="M210.801 298.755L205.319 292.715L191.937 277.941L220.432 263.463C220.432 263.463 245.452 283.443 210.801 298.755Z" fill="#E2E2E2"/>
<path d="M205.319 292.709L191.937 277.936L220.432 263.457C222.83 270.959 222.907 283.027 205.319 292.709Z" fill="white"/>
<path d="M191.483 279L220.439 263.457C220.439 263.457 245.452 283.437 210.808 298.749L190.937 278.442L191.483 279Z" stroke="black" stroke-width="2.56483" stroke-miterlimit="10"/>
<path d="M189.033 295.228C189.033 295.228 188.879 284.039 190.244 278.711" stroke="black" stroke-width="2.56483" stroke-miterlimit="10" stroke-linecap="round"/>
<path d="M166.763 299.576L172.246 293.536L185.628 278.763L157.133 264.284L155.478 262.675C155.478 262.675 132.113 284.264 166.763 299.583V299.576Z" fill="#E2E2E2"/>
<path d="M172.246 293.536L185.628 278.763L157.132 264.284C154.734 271.786 154.657 283.854 172.246 293.536Z" fill="white"/>
<path d="M185.628 278.763L155.472 262.675C155.472 262.675 132.112 284.264 166.757 299.576L185.628 278.763Z" stroke="black" stroke-width="2.56483" stroke-miterlimit="10"/>
<path d="M186.609 279.385C188.789 287.855 189.033 295.229 189.033 295.229" stroke="black" stroke-width="2.56483" stroke-miterlimit="10" stroke-linecap="round"/>
<path d="M189.032 295.228C189.032 295.228 184.102 287.867 179.292 285.758" stroke="black" stroke-width="2.56483" stroke-miterlimit="10" stroke-linecap="round"/>
<path d="M189.026 295.228C189.026 295.228 192.437 287.784 197.753 285.418" stroke="black" stroke-width="2.56483" stroke-miterlimit="10" stroke-linecap="round"/>
<path d="M264.984 149.09C264.99 149.424 264.997 149.757 264.997 150.097C264.997 160.453 259.399 168.942 252.256 169.821C251.852 169.872 251.442 169.898 251.031 169.898C243.318 169.898 237.066 161.036 237.066 150.097C237.066 148.212 237.252 146.391 237.604 144.666V144.634C237.675 144.269 237.758 143.903 237.848 143.544C237.848 143.544 237.848 143.538 237.854 143.538C237.938 142.909 237.995 142.3 238.021 141.71C238.714 129.36 228.435 124.776 221.164 120.396C213.572 115.818 201.774 113.208 188.757 113.58C162.121 114.343 150.246 124.032 146.822 127.507C145.963 128.36 145.29 129.258 144.77 130.181C141.417 136.125 144.424 143.089 143.95 146.41C142.924 153.662 140.513 161.03 137.044 165.422C135.313 167.621 133.312 169.07 131.093 169.391C130.991 169.41 130.882 169.423 130.773 169.43C130.664 169.442 130.555 169.449 130.446 169.455C129.837 169.481 129.234 169.455 128.644 169.378C128.195 169.314 127.753 169.224 127.323 169.103C127.035 169.026 126.746 168.929 126.464 168.827C126.182 168.724 125.9 168.609 125.624 168.481C125.073 168.224 124.534 167.923 124.015 167.57C123.752 167.397 123.495 167.211 123.245 167.019C123.027 166.852 122.815 166.679 122.604 166.506C122.399 166.32 122.2 166.134 122.001 165.948C121.899 165.852 121.802 165.755 121.7 165.653C121.309 165.255 120.924 164.826 120.558 164.377C120.469 164.261 120.379 164.146 120.289 164.031C120.11 163.8 119.936 163.563 119.763 163.319C119.68 163.197 119.597 163.075 119.507 162.947C119.34 162.697 119.18 162.44 119.02 162.177C118.622 161.523 118.25 160.837 117.904 160.113C117.769 159.824 117.635 159.536 117.506 159.234C117.378 158.939 117.256 158.638 117.134 158.33C116.66 157.106 116.262 155.804 115.955 154.451C115.878 154.111 115.807 153.771 115.737 153.425C115.371 151.527 115.179 149.539 115.179 147.487C115.179 143.179 116.038 139.165 117.526 135.773C117.994 134.715 118.519 133.721 119.096 132.797C119.096 132.797 119.096 132.791 119.103 132.791C119.122 132.746 119.148 132.714 119.173 132.669C119.071 132.483 118.968 132.291 118.866 132.098C116.538 127.693 115.179 122.371 115.179 116.639C115.179 102.731 124.175 89.5671 134.736 87.4062C134.197 86.7201 127.028 77.5188 129.798 77.1213C132.498 76.7365 136.082 82.3663 136.512 83.046C135.383 80.9172 132.959 66.5926 136.55 67.2082C140.192 67.8302 142.828 80.8403 142.828 80.8403C143.052 79.9105 143.308 79.0192 143.591 78.16C143.597 78.1472 143.597 78.1344 143.603 78.1215C143.975 76.993 144.392 75.9286 144.86 74.9155C144.86 74.9027 144.86 74.8963 144.873 74.8834C145.399 73.7293 145.982 72.652 146.617 71.6453C146.656 71.5876 146.694 71.5235 146.733 71.4658C147.034 71.0234 147.387 70.5168 147.797 69.9461C147.855 69.8628 147.912 69.7858 147.983 69.7025C149.214 68.1123 150.593 66.7273 152.099 65.5475C157.184 61.5656 163.654 59.8728 170.483 60.0074C201.934 60.6294 195.291 66.0219 224.832 63.0788C238.617 61.7066 241.355 81.8726 241.355 81.8726C247.344 86.2136 258.912 94.4723 261.105 106.04C263.291 117.614 255.699 121.32 258.732 126.129C264.702 135.58 264.997 149.078 264.997 149.078L264.984 149.09Z" fill="#281C21"/>
<path d="M256.251 154.932C256.264 155.266 256.264 155.605 256.264 155.945C256.264 161.357 254.731 166.256 252.256 169.821C251.852 169.872 251.442 169.898 251.031 169.898C243.318 169.898 237.066 161.036 237.066 150.097C237.066 148.212 237.252 146.391 237.604 144.666V144.634C237.681 143.576 237.822 142.602 238.021 141.71C238.714 129.361 228.435 124.776 221.164 120.397C213.572 115.818 201.774 113.209 188.757 113.581C162.121 114.344 150.246 124.032 146.822 127.508C145.963 128.36 145.29 129.258 144.77 130.181C142.122 135.433 144.995 142.582 144.168 148.693C143.219 155.753 141 161.864 137.736 165.595C135.851 167.743 133.626 169.103 131.093 169.391C130.991 169.411 130.882 169.423 130.773 169.43C130.664 169.443 130.555 169.449 130.446 169.455C129.837 169.481 129.234 169.455 128.644 169.378C128.195 169.314 127.753 169.225 127.323 169.103C127.035 169.026 126.746 168.93 126.464 168.827C126.182 168.724 125.9 168.609 125.624 168.481C125.073 168.224 124.534 167.923 124.015 167.57C123.752 167.397 123.495 167.211 123.245 167.019C123.027 166.852 122.815 166.679 122.604 166.506C122.399 166.32 122.2 166.134 122.001 165.948C121.899 165.852 121.802 165.756 121.7 165.653C121.309 165.256 120.924 164.826 120.558 164.377C120.469 164.262 120.379 164.146 120.289 164.031C120.11 163.8 119.936 163.563 119.763 163.319C119.68 163.197 119.597 163.075 119.507 162.947C119.34 162.697 119.18 162.441 119.02 162.178C118.622 161.524 118.25 160.838 117.904 160.113C117.769 159.824 117.635 159.536 117.506 159.235C117.378 158.94 117.256 158.638 117.134 158.33C116.66 157.106 116.262 155.804 115.955 154.451C115.878 154.111 115.807 153.771 115.737 153.425C115.371 151.527 115.179 149.54 115.179 147.488C115.179 143.179 116.038 139.165 117.526 135.773C117.994 134.715 118.519 133.721 119.096 132.798C119.096 132.798 119.096 132.791 119.103 132.791C119.122 132.746 119.148 132.714 119.173 132.669C119.071 132.483 118.968 132.291 118.866 132.099C116.538 127.694 115.179 122.372 115.179 116.639C115.179 102.731 124.175 89.5673 134.736 87.4065C134.197 86.7204 127.028 77.519 129.798 77.1215C132.498 76.7368 136.082 82.3666 136.512 83.0462C135.383 80.9174 132.959 66.5929 136.55 67.2084C140.192 67.8304 142.828 80.8405 142.828 80.8405C143.052 79.9107 143.308 79.0195 143.591 78.1602C143.597 78.1474 143.597 78.1346 143.603 78.1218C144.366 76.538 144.565 75.7493 144.86 74.9157C144.86 74.9029 144.86 74.8965 144.873 74.8837C145.155 74.095 145.546 73.255 146.617 71.6456C146.656 71.5879 146.694 71.5237 146.733 71.466C147.034 71.0236 147.387 70.517 147.797 69.9464C147.842 69.8822 147.887 69.8245 147.932 69.7604C147.951 69.7412 147.964 69.7219 147.983 69.7027C150.31 67.2084 158.608 66.0094 161.75 65.8555C193.169 64.2973 186.558 71.8636 216.098 68.9204C223.979 68.1382 228.249 74.3899 230.461 79.8915C232.122 84.0209 232.622 87.7207 232.622 87.7207C238.618 92.0552 250.185 100.32 252.371 111.888C254.558 123.455 246.966 127.161 249.999 131.977C255.969 141.428 256.264 154.926 256.264 154.926H256.251V154.932Z" fill="#3D2B31"/>
<path d="M137.736 165.595C135.851 167.743 133.626 169.103 131.093 169.391C130.991 169.41 130.882 169.423 130.773 169.43C130.664 169.443 130.555 169.449 130.446 169.455C129.837 169.481 129.234 169.455 128.644 169.378C128.195 169.314 127.753 169.225 127.323 169.103C127.035 169.026 126.746 168.93 126.464 168.827C126.182 168.724 125.9 168.609 125.624 168.481C125.073 168.224 124.534 167.923 124.015 167.57C123.752 167.397 123.495 167.211 123.245 167.019C123.027 166.852 122.815 166.679 122.604 166.506C122.399 166.32 122.2 166.134 122.001 165.948C121.899 165.852 121.802 165.756 121.7 165.653C121.309 165.255 120.924 164.826 120.558 164.377C120.469 164.262 120.379 164.146 120.289 164.031C120.11 163.8 119.936 163.563 119.763 163.319C119.68 163.197 119.597 163.075 119.507 162.947C119.34 162.697 119.18 162.441 119.02 162.178C118.622 161.524 118.25 160.838 117.904 160.113C117.769 159.824 117.635 159.536 117.506 159.234C117.378 158.94 117.256 158.638 117.134 158.33C116.66 157.106 116.262 155.804 115.955 154.451C115.878 154.111 115.807 153.771 115.737 153.425C115.371 151.527 115.179 149.539 115.179 147.488C115.179 143.179 116.038 139.165 117.526 135.773C117.942 134.689 118.481 133.695 119.096 132.797C119.096 132.797 119.096 132.791 119.103 132.791C119.122 132.746 119.148 132.714 119.173 132.669C119.071 132.483 118.968 132.291 118.866 132.099L120.764 130.733L127.355 125.981C127.163 126.526 110.915 155.099 137.044 165.422C137.262 165.506 137.499 165.55 137.736 165.595Z" fill="#281C21"/>
<path d="M264.984 149.09C264.99 149.424 264.997 149.757 264.997 150.097C264.997 160.453 259.399 168.942 252.256 169.821C251.852 169.872 251.442 169.898 251.031 169.898C243.318 169.898 237.066 161.036 237.066 150.097C237.066 148.212 237.252 146.391 237.604 144.666V144.634C237.675 144.269 237.758 143.903 237.848 143.544C237.848 143.544 237.848 143.538 237.854 143.538C237.938 142.909 237.995 142.3 238.021 141.71C238.714 129.36 228.435 124.776 221.164 120.396C213.572 115.818 201.774 113.208 188.757 113.58C162.121 114.343 150.246 124.032 146.822 127.507C145.918 128.322 145.251 129.219 144.77 130.181C142.122 135.433 144.995 142.582 144.168 148.693C143.219 155.753 141 161.863 137.736 165.595C135.851 167.743 133.626 169.103 131.093 169.391C130.991 169.41 130.882 169.423 130.773 169.43C130.664 169.442 130.555 169.449 130.446 169.455C129.837 169.481 129.234 169.455 128.644 169.378C128.195 169.314 127.753 169.224 127.323 169.103C127.035 169.026 126.746 168.929 126.464 168.827C126.182 168.724 125.9 168.609 125.624 168.481C125.073 168.224 124.534 167.916 124.015 167.57C123.752 167.397 123.495 167.211 123.245 167.019C123.027 166.852 122.815 166.679 122.604 166.506C122.399 166.32 122.2 166.134 122.001 165.948C121.899 165.852 121.802 165.755 121.7 165.653C121.309 165.255 120.924 164.826 120.558 164.377C120.469 164.261 120.379 164.146 120.289 164.031C120.11 163.8 119.936 163.563 119.763 163.319C119.68 163.197 119.597 163.075 119.507 162.947C119.34 162.697 119.18 162.44 119.02 162.177C118.622 161.523 118.25 160.837 117.904 160.113C117.769 159.824 117.635 159.536 117.506 159.234C117.378 158.939 117.256 158.638 117.134 158.33C116.66 157.106 116.262 155.804 115.955 154.451C115.878 154.111 115.807 153.771 115.737 153.425C115.371 151.527 115.179 149.539 115.179 147.487C115.179 143.179 116.038 139.165 117.526 135.773C117.994 134.715 118.519 133.721 119.096 132.797C119.096 132.797 119.096 132.791 119.103 132.791C119.122 132.746 119.148 132.714 119.173 132.669C119.071 132.483 118.968 132.291 118.866 132.098C116.538 127.693 115.179 122.371 115.179 116.639C115.179 102.731 124.175 89.5671 134.736 87.4062C134.197 86.7201 127.028 77.5188 129.798 77.1213C132.498 76.7365 136.082 82.3663 136.512 83.046C135.383 80.9172 132.959 66.5926 136.55 67.2082C140.192 67.8302 142.828 80.8403 142.828 80.8403C143.052 79.9105 143.308 79.0192 143.591 78.16C143.597 78.1472 143.597 78.1344 143.603 78.1215C143.975 76.993 144.392 75.9286 144.86 74.9155C144.86 74.9027 144.86 74.8963 144.873 74.8834C145.399 73.7293 145.982 72.652 146.617 71.6453C146.656 71.5876 146.694 71.5235 146.733 71.4658C147.034 71.0234 147.387 70.5168 147.797 69.9461C147.855 69.8628 147.912 69.7858 147.983 69.7025C149.214 68.1123 150.593 66.7273 152.099 65.5475C157.184 61.5656 163.654 59.8728 170.483 60.0074C201.934 60.6294 195.291 66.0219 224.832 63.0788C238.617 61.7066 241.355 81.8726 241.355 81.8726C247.344 86.2136 258.912 94.4723 261.105 106.04C263.291 117.614 255.699 121.32 258.732 126.129C264.702 135.58 264.997 149.078 264.997 149.078L264.984 149.09Z" stroke="black" stroke-width="2.56483" stroke-miterlimit="10"/>
<path d="M117.525 135.772C117.942 134.688 118.481 133.695 119.096 132.797C119.609 132.047 120.174 131.361 120.757 130.739C123.694 127.61 127.156 126.064 127.349 125.987H127.355" stroke="black" stroke-width="2.56483" stroke-miterlimit="10" stroke-linecap="round"/>
<path d="M237.604 144.666V144.634C237.681 143.576 237.822 142.602 238.021 141.71C239.733 134.003 245.562 132.278 245.562 132.278" stroke="black" stroke-width="2.56483" stroke-miterlimit="10" stroke-linecap="round"/>
<path d="M221.317 83.2192C221.317 83.2192 229.993 76.5058 241.355 81.8791" stroke="black" stroke-width="2.56483" stroke-miterlimit="10" stroke-linecap="round"/>
<path d="M143.604 78.1211C143.604 78.1211 143.597 78.1467 143.591 78.1596C140.955 86.5722 142.93 93.9076 142.93 93.9076" stroke="black" stroke-width="2.56483" stroke-miterlimit="10" stroke-linecap="round"/>
<path d="M244.041 202.754C244.041 202.754 231.544 240.521 187.891 240.515C145.571 240.509 135.222 202.754 135.222 202.754C135.985 202.177 136.325 200.927 136.389 199.311C136.633 193.277 133.029 182.159 133.029 182.159C142.878 179.632 161.332 204.216 161.332 204.216C190.302 197.554 214.674 204.678 214.674 204.678C219.009 200.183 230.865 180.992 244.304 183.018C244.304 183.018 240.983 191.674 241.797 197.913C242.054 199.888 242.721 201.613 244.041 202.754Z" fill="#56424D"/>
<path d="M241.797 197.913C237.36 207.39 222.606 234.327 187.346 234.321C154.728 234.315 140.923 209.59 136.389 199.311C136.633 193.277 133.029 182.159 133.029 182.159C142.878 179.632 161.332 204.216 161.332 204.216C190.302 197.554 214.674 204.678 214.674 204.678C219.009 200.183 230.865 180.992 244.304 183.018C244.304 183.018 240.983 191.674 241.797 197.913Z" fill="#66545D"/>
<path d="M135.216 202.754C135.216 202.754 145.565 240.508 187.885 240.515C231.544 240.521 244.042 202.754 244.042 202.754C238.553 198.015 244.304 183.011 244.304 183.011C230.865 180.991 219.009 200.183 214.668 204.671C214.668 204.671 190.296 197.547 161.326 204.209C161.326 204.209 142.872 179.626 133.023 182.152C133.023 182.152 138.819 200.022 135.216 202.754Z" stroke="black" stroke-width="2.56483" stroke-miterlimit="10"/>
<path d="M176.074 215.756C177.882 217.821 180.748 219.649 185.307 220.354C188.603 220.86 191.296 220.258 193.489 219.103C199.542 215.878 201.696 208.35 201.773 208.062C201.388 208.19 186.064 213.57 173.009 207.491C173.009 207.491 172.797 212.018 176.074 215.763V215.756Z" fill="#1C1C1C"/>
<path d="M176.074 215.757C177.882 217.822 180.748 219.649 185.307 220.355C188.603 220.861 191.296 220.258 193.489 219.104C193.489 218.886 193.489 218.675 193.457 218.457C193.014 214.718 188.282 212.205 182.883 212.846C180.113 213.173 177.709 214.269 176.074 215.763V215.757Z" fill="#E76161"/>
<path d="M173.002 207.485C186.224 213.647 201.773 208.05 201.773 208.05C201.773 208.05 197.9 222.278 185.301 220.348C172.483 218.379 173.002 207.485 173.002 207.485Z" stroke="black" stroke-width="2.56483" stroke-miterlimit="10" stroke-linecap="round"/>
</g>
<rect x="1" y="1" width="368" height="370" rx="11" stroke="black" stroke-width="2"/>
<defs>
<clipPath id="clip0_476_1817">
<rect width="370" height="372" rx="12" fill="white"/>
</clipPath>
</defs>
</svg>
