<svg width="1920" height="1790" viewBox="0 0 1920 1790" fill="none" xmlns="http://www.w3.org/2000/svg">
<g clip-path="url(#clip0_430_2268)">
<g opacity="0.1" clip-path="url(#clip1_430_2268)">
<path d="M946 1686.12C946 1671.84 934.446 1660.29 920.171 1660.29C916.996 1660.29 913.96 1660.86 911.14 1661.9C906.783 1651.96 896.865 1645.02 885.311 1645.02C883.793 1645.02 882.314 1645.14 880.875 1645.38C875.196 1632.78 862.518 1624 847.809 1624C831.957 1624 818.49 1634.18 813.561 1648.35C813.146 1648.35 812.732 1648.32 812.299 1648.32C797.195 1648.32 784.951 1660.56 784.951 1675.67C784.951 1676.65 785.01 1677.62 785.109 1678.59C775.566 1683.26 769 1693.06 769 1704.4C769 1720.25 781.856 1733.11 797.708 1733.11C802.677 1733.11 807.35 1731.85 811.431 1729.62C815.079 1733.8 820.442 1736.44 826.436 1736.44C831.069 1736.44 835.328 1734.85 838.7 1732.2C845.601 1737.67 854.887 1741 865.081 1741C875.275 1741 884.424 1737.71 891.305 1732.32C893.513 1732.95 895.82 1733.31 898.226 1733.31C910.844 1733.31 921.255 1723.94 922.951 1711.79C935.905 1710.39 945.98 1699.43 945.98 1686.12H946Z" fill="#AEA992"/>
<path d="M1370.02 1308.58C1370.02 1285.54 1351.32 1266.9 1328.22 1266.9C1323.08 1266.9 1318.17 1267.82 1313.61 1269.5C1306.56 1253.47 1290.51 1242.27 1271.81 1242.27C1269.35 1242.27 1266.96 1242.46 1264.63 1242.84C1255.44 1222.51 1234.93 1208.35 1211.13 1208.35C1185.48 1208.35 1163.68 1224.77 1155.71 1247.65C1155.04 1247.65 1154.37 1247.58 1153.67 1247.58C1129.23 1247.58 1109.41 1267.34 1109.41 1291.71C1109.41 1293.3 1109.51 1294.86 1109.67 1296.42C1094.23 1303.96 1083.6 1319.78 1083.6 1338.07C1083.6 1363.65 1104.4 1384.4 1130.06 1384.4C1138.1 1384.4 1145.66 1382.36 1152.26 1378.77C1158.16 1385.51 1166.84 1389.77 1176.54 1389.77C1184.04 1389.77 1190.93 1387.2 1196.39 1382.93C1207.55 1391.75 1222.58 1397.12 1239.08 1397.12C1255.57 1397.12 1270.38 1391.81 1281.51 1383.12C1285.08 1384.14 1288.82 1384.72 1292.71 1384.72C1313.13 1384.72 1329.97 1369.6 1332.72 1350C1353.68 1347.74 1369.98 1330.05 1369.98 1308.58H1370.02Z" fill="#AEA992"/>
<path d="M1014.37 171.24C1011.53 158.93 999.208 151.256 986.857 154.105C986.257 154.243 985.685 154.427 985.093 154.599C985.085 154.566 985.077 154.533 985.074 154.516C981.645 139.648 966.783 130.391 951.865 133.831C946.248 135.127 941.426 138.041 937.783 141.96C929.13 132.374 915.646 127.645 902.145 130.759C888.643 133.872 879.108 143.524 875.303 155.494C870.564 154.05 865.391 153.773 860.224 154.965C844.69 158.547 834.95 173.862 838.239 189.34C825.933 195.659 818.969 209.687 822.214 223.757C826.045 240.369 842.67 250.724 859.338 246.881C860.471 246.619 861.573 246.295 862.663 245.921C868.069 249.801 875.078 251.421 882.078 249.807C889.079 248.192 894.149 244.066 897.381 238.597C905.914 245.15 917.223 247.983 928.557 245.369C937.408 243.328 944.798 238.3 949.891 231.614C956.23 233.371 963.083 233.628 969.95 232.044C987.135 228.081 999.24 213.813 1001.24 197.307C1011.12 192.947 1016.86 182.108 1014.35 171.227L1014.37 171.24Z" fill="#AEA992"/>
<path d="M1094.45 934.438C1094.45 913.23 1077.19 896.029 1055.91 896.029C1054.87 896.029 1053.87 896.115 1052.84 896.172C1052.84 896.115 1052.84 896.058 1052.84 896.029C1052.84 870.414 1032.02 849.664 1006.31 849.664C996.637 849.664 987.648 852.612 980.211 857.649C969.671 838.703 949.397 825.881 926.137 825.881C902.876 825.881 883.636 838.073 872.896 856.218C865.688 852.068 857.331 849.664 848.429 849.664C821.665 849.664 799.955 871.044 799.495 897.603C776.981 903.299 760.297 923.619 760.297 947.861C760.297 976.481 783.586 999.692 812.303 999.692C814.256 999.692 816.18 999.578 818.104 999.377C825.484 1007.76 836.339 1013.06 848.4 1013.06C860.461 1013.06 870.311 1008.22 877.663 1000.49C889.149 1014.43 906.581 1023.33 926.108 1023.33C941.357 1023.33 955.342 1017.89 966.197 1008.88C975.903 1014.15 987.016 1017.15 998.848 1017.15C1028.45 1017.15 1053.64 998.376 1063.14 972.131C1080.95 968.725 1094.42 953.156 1094.42 934.409L1094.45 934.438Z" fill="#AEA992"/>
<path opacity="0.2" d="M1215.01 1208.6C1186 1208.25 1165.16 1242.66 1162.05 1270.7C1158.31 1304.49 1166.34 1277.21 1142.66 1275.62C1111.3 1273.61 1101.74 1319.72 1130.89 1352.47C1140.1 1362.79 1130.89 1355.38 1250.67 1355.38C1283.49 1355.38 1351.96 1351.43 1354.52 1349.01C1409.43 1297.22 1352.72 1225.15 1297.4 1281.85C1290.27 1289.19 1302.39 1275.69 1291.93 1260.39C1283.42 1247.99 1267.84 1258.38 1257.25 1268.7C1249.15 1276.73 1275.53 1227.71 1226.92 1210.47C1224.08 1209.5 1219.65 1208.6 1214.94 1208.53" fill="#AEA992"/>
<path d="M1418.25 240.058C1418.25 240.058 1418.51 240.029 1418.65 240C1418.65 226.787 1428.21 215.135 1441.67 212.938C1448.11 211.868 1454.41 213.169 1459.67 216.176C1462.58 203.224 1473.04 192.7 1486.93 190.445C1504.61 187.553 1521.27 199.06 1525.03 216.379C1538.17 216.783 1549.64 226.411 1551.83 239.913C1552.26 242.573 1552.29 245.204 1551.98 247.748C1564.48 252.895 1574.13 264.199 1576.47 278.54C1580.05 300.513 1565.17 321.214 1543.22 324.828C1533.43 326.418 1523.9 324.337 1516.02 319.595C1509.72 327.748 1500.45 333.646 1489.5 335.439C1471.02 338.475 1453.4 328.934 1445.28 313.09C1441.04 315.692 1436.24 317.513 1431.04 318.381C1409.44 321.908 1389.05 307.25 1385.52 285.623C1382 263.997 1396.64 243.585 1418.25 240.058Z" fill="#AEA992"/>
<path d="M59.906 96.2107C59.906 96.2107 59.5623 96.1725 59.3713 96.1342C59.3713 78.6578 46.7306 63.2464 28.9343 60.34C20.418 58.9251 12.0926 60.646 5.14213 64.6231C1.28499 47.4908 -12.5396 33.5708 -30.9088 30.588C-54.2808 26.7638 -76.3162 41.984 -81.2808 64.8908C-98.6571 65.4262 -113.818 78.1606 -116.721 96.0195C-117.294 99.5377 -117.332 103.018 -116.912 106.383C-133.448 113.19 -146.203 128.143 -149.296 147.11C-154.032 176.174 -134.364 203.555 -105.34 208.335C-92.394 210.439 -79.7914 207.685 -69.3657 201.414C-61.0404 212.198 -48.7815 219.999 -34.3076 222.37C-9.86632 226.385 13.4293 213.766 24.1606 192.809C29.7744 196.251 36.1139 198.66 42.988 199.807C71.5538 204.473 98.5156 185.084 103.175 156.48C107.834 127.875 88.4718 100.876 59.906 96.2107Z" fill="#AEA992"/>
<path d="M377.849 996.828C377.849 996.828 377.506 996.79 377.315 996.751C377.315 979.275 364.674 963.864 346.878 960.957C338.361 959.542 330.036 961.263 323.085 965.24C319.228 948.108 305.404 934.188 287.035 931.205C263.663 927.381 241.627 942.601 236.663 965.508C219.286 966.043 204.125 978.778 201.223 996.637C200.65 1000.15 200.612 1003.63 201.032 1007C184.496 1013.81 171.74 1028.76 168.647 1047.73C163.911 1076.79 183.579 1104.17 212.603 1108.95C225.549 1111.06 238.152 1108.3 248.578 1102.03C256.903 1112.81 269.162 1120.62 283.636 1122.99C308.077 1127 331.373 1114.38 342.104 1093.43C347.718 1096.87 354.057 1099.28 360.931 1100.42C389.497 1105.09 416.459 1085.7 421.118 1057.1C425.777 1028.49 406.415 1001.49 377.849 996.828Z" fill="#AEA992"/>
<path d="M1980.39 173.843C1980.39 164.583 1975.14 156.581 1967.43 152.606C1970.71 145.535 1972.57 137.66 1972.57 129.331C1972.57 98.7845 1947.81 74 1917.23 74C1896.12 74 1877.75 85.8261 1868.44 103.238C1861.6 96.218 1852.06 91.8398 1841.47 91.8398C1820.66 91.8398 1803.8 108.698 1803.8 129.507C1803.8 134.263 1804.73 138.792 1806.31 142.969C1803.19 141.887 1799.87 141.283 1796.4 141.283C1779.61 141.283 1766 154.896 1766 171.679C1766 188.462 1779.61 202.074 1796.4 202.074C1801.23 202.074 1805.78 200.917 1809.84 198.904C1815.47 209.17 1827.5 216.291 1841.44 216.291C1851.38 216.291 1860.34 212.667 1866.7 206.88C1873.8 224.242 1890.86 236.471 1910.77 236.471C1934.04 236.471 1953.42 219.763 1957.55 197.671C1970.25 197.092 1980.37 186.65 1980.37 173.817L1980.39 173.843Z" fill="#AEA992"/>
<path d="M1697.65 1092.5C1697.65 1080.51 1690.84 1070.14 1680.86 1064.99C1685.1 1055.83 1687.51 1045.63 1687.51 1034.84C1687.51 995.271 1655.43 963.164 1615.83 963.164C1588.48 963.164 1564.68 978.484 1552.62 1001.04C1543.75 991.946 1531.4 986.274 1517.68 986.274C1490.72 986.274 1468.88 1008.11 1468.88 1035.07C1468.88 1041.23 1470.08 1047.1 1472.14 1052.51C1468.09 1051.11 1463.79 1050.33 1459.29 1050.33C1437.55 1050.33 1419.91 1067.96 1419.91 1089.7C1419.91 1111.44 1437.55 1129.08 1459.29 1129.08C1465.55 1129.08 1471.45 1127.58 1476.7 1124.97C1484 1138.27 1499.58 1147.49 1517.64 1147.49C1530.52 1147.49 1542.12 1142.8 1550.37 1135.3C1559.56 1157.79 1581.67 1173.63 1607.45 1173.63C1637.6 1173.63 1662.7 1151.99 1668.05 1123.37C1684.51 1122.62 1697.62 1109.1 1697.62 1092.47L1697.65 1092.5Z" fill="#AEA992"/>
<path d="M36.8124 720.619C36.8124 708.624 43.6254 698.258 53.6003 693.108C49.3626 683.949 46.9504 673.746 46.9504 662.957C46.9504 623.386 79.0268 591.279 118.633 591.279C145.983 591.279 169.779 606.599 181.841 629.156C190.707 620.061 203.062 614.39 216.786 614.39C243.744 614.39 265.585 636.229 265.585 663.185C265.585 669.346 264.379 675.213 262.325 680.624C266.367 679.223 270.67 678.44 275.169 678.44C296.911 678.44 314.547 696.075 314.547 717.816C314.547 739.557 296.911 757.192 275.169 757.192C268.91 757.192 263.01 755.692 257.761 753.085C250.459 766.384 234.878 775.608 216.818 775.608C203.942 775.608 192.337 770.914 184.09 763.417C174.897 785.908 152.796 801.75 127.011 801.75C96.8578 801.75 71.7574 780.106 66.4114 751.487C49.9494 750.738 36.845 737.21 36.845 720.587L36.8124 720.619Z" fill="#AEA992"/>
<path d="M18.7343 1652.1C18.7343 1643.71 23.4997 1636.46 30.4769 1632.85C27.5127 1626.45 25.8254 1619.31 25.8254 1611.76C25.8254 1584.08 48.2618 1561.63 75.9652 1561.63C95.0953 1561.63 111.74 1572.34 120.177 1588.12C126.378 1581.76 135.02 1577.79 144.619 1577.79C163.476 1577.79 178.753 1593.07 178.753 1611.92C178.753 1616.23 177.909 1620.34 176.473 1624.12C179.3 1623.14 182.31 1622.59 185.456 1622.59C200.665 1622.59 213 1634.93 213 1650.13C213 1665.34 200.665 1677.68 185.456 1677.68C181.078 1677.68 176.951 1676.63 173.28 1674.8C168.173 1684.11 157.274 1690.56 144.642 1690.56C135.636 1690.56 127.519 1687.28 121.75 1682.03C115.32 1697.76 99.8607 1708.84 81.825 1708.84C60.734 1708.84 43.1771 1693.71 39.4377 1673.69C27.9231 1673.16 18.7571 1663.7 18.7571 1652.07L18.7343 1652.1Z" fill="#AEA992"/>
<g clip-path="url(#clip2_430_2268)">
<path d="M802.193 576.397C802.323 574.965 802.388 573.512 802.388 572.036C802.388 544.653 780.191 522.434 752.786 522.434C739.312 522.434 727.096 527.816 718.156 536.56C713.99 513.864 694.115 496.657 670.204 496.657C651.565 496.657 635.378 507.116 627.177 522.456C594 522.76 567.182 549.731 567.182 582.972C567.182 616.213 594.282 643.509 627.719 643.509C638.937 643.509 649.439 640.45 658.443 635.112C664.671 654.575 682.919 668.679 704.465 668.679C726.011 668.679 744.172 654.64 750.443 635.221C754.132 637.043 758.254 638.085 762.637 638.085C766.565 638.085 770.318 637.239 773.703 635.763C777.457 637.26 781.536 638.085 785.832 638.085C804.08 638.085 818.879 623.287 818.879 605.039C818.879 592.736 812.152 582.039 802.193 576.354V576.397Z" fill="#AEA992"/>
</g>
<path d="M1794.01 1609.74C1794.14 1608.31 1794.21 1606.85 1794.21 1605.38C1794.21 1578 1772.01 1555.78 1744.6 1555.78C1731.13 1555.78 1718.91 1561.16 1709.97 1569.9C1705.81 1547.21 1685.93 1530 1662.02 1530C1643.38 1530 1627.2 1540.46 1618.99 1555.8C1585.82 1556.1 1559 1583.07 1559 1616.31C1559 1649.56 1586.1 1676.85 1619.54 1676.85C1630.76 1676.85 1641.26 1673.79 1650.26 1668.45C1656.49 1687.92 1674.74 1702.02 1696.28 1702.02C1717.83 1702.02 1735.99 1687.98 1742.26 1668.56C1745.95 1670.39 1750.07 1671.43 1754.46 1671.43C1758.38 1671.43 1762.14 1670.58 1765.52 1669.11C1769.28 1670.6 1773.35 1671.43 1777.65 1671.43C1795.9 1671.43 1810.7 1656.63 1810.7 1638.38C1810.7 1626.08 1803.97 1615.38 1794.01 1609.7V1609.74Z" fill="#AEA992"/>
<path d="M747.952 1324.98C748.083 1323.55 748.148 1322.09 748.148 1320.62C748.148 1293.23 725.951 1271.02 698.546 1271.02C685.072 1271.02 672.856 1276.4 663.916 1285.14C659.75 1262.44 639.875 1245.24 615.964 1245.24C597.325 1245.24 581.138 1255.7 572.936 1271.04C539.76 1271.34 512.941 1298.31 512.941 1331.55C512.941 1364.79 540.042 1392.09 573.479 1392.09C584.697 1392.09 595.199 1389.03 604.203 1383.69C610.431 1403.16 628.679 1417.26 650.225 1417.26C671.771 1417.26 689.932 1403.22 696.203 1383.8C699.891 1385.62 704.014 1386.67 708.397 1386.67C712.324 1386.67 716.078 1385.82 719.463 1384.34C723.217 1385.84 727.296 1386.67 731.592 1386.67C749.84 1386.67 764.638 1371.87 764.638 1353.62C764.638 1341.32 757.912 1330.62 747.952 1324.94V1324.98Z" fill="#AEA992"/>
</g>
</g>
<defs>
<clipPath id="clip0_430_2268">
<rect width="1920" height="1790" fill="white"/>
</clipPath>
<clipPath id="clip1_430_2268">
<rect width="1920" height="1790" fill="white"/>
</clipPath>
<clipPath id="clip2_430_2268">
<rect width="251.697" height="172.043" fill="white" transform="translate(567.184 496.657)"/>
</clipPath>
</defs>
</svg>
