<svg width="372" height="370" viewBox="0 0 372 370" fill="none" xmlns="http://www.w3.org/2000/svg">
<g clip-path="url(#clip0_476_1470)">
<rect x="-26" y="-27" width="422" height="422" fill="#108B28"/>
<path d="M40.4044 94.1725L32.6377 148.983H30.4187L22.6519 94.1725H-8.41488V96.3916L13.7757 208.454V271.697H49.2807V208.454L71.4712 96.3916V94.1725H40.4044ZM81.4665 94.1725L64.8236 269.478V271.697H95.8904L99.6628 229.535H112.09L115.862 271.697H146.929V269.478L130.286 94.1725H81.4665ZM99.8847 200.687L104.767 139.663H106.986L111.868 200.687H99.8847ZM154.978 94.1725V271.697H187.154V196.249H201.578V271.697H233.755V94.1725H201.578V167.401H187.154V94.1725H154.978ZM245.141 94.1725V271.697H278.427V94.1725H245.141ZM303.089 94.1725L286.446 269.478V271.697H317.513L321.285 229.535H333.712L337.484 271.697H368.551V269.478L351.908 94.1725H303.089ZM321.507 200.687L326.389 139.663H328.608L333.49 200.687H321.507Z" fill="#0B681D"/>
<path d="M295.084 369.882C284.339 369.895 272.605 369.907 260.259 369.919C248.5 369.932 236.191 369.944 223.666 369.956C217.611 369.956 211.5 369.963 205.383 369.969H204.734C194.952 369.969 185.14 369.981 175.463 369.987H175.012C168.722 369.993 162.487 369.993 156.352 370H118.604C109.261 370 100.462 369.993 92.4106 369.987C86.8989 369.981 81.7455 369.975 77 369.969C77.0618 369.468 77.1298 368.968 77.2039 368.467C77.2966 367.825 77.3955 367.188 77.5005 366.552C77.5499 366.243 77.5994 365.934 77.655 365.625C77.8527 364.525 78.0628 363.437 78.3038 362.35C78.3965 361.917 78.4892 361.491 78.588 361.065C78.7054 360.577 78.8228 360.088 78.9402 359.6C79.0638 359.112 79.1874 358.624 79.3172 358.142C79.3604 357.981 79.4037 357.827 79.4469 357.672C79.6323 356.98 79.8238 356.294 80.0277 355.609C80.1019 355.361 80.176 355.114 80.2502 354.873C80.3305 354.589 80.417 354.305 80.5097 354.027C80.6456 353.569 80.794 353.118 80.9423 352.667C81.5416 350.857 82.1904 349.059 82.8887 347.285C83.1296 346.674 83.3706 346.068 83.624 345.463C84.075 344.375 84.5508 343.288 85.039 342.212C85.1502 341.965 85.2676 341.718 85.3788 341.471C85.8731 340.408 86.3736 339.358 86.8989 338.313C87.4117 337.288 87.9431 336.268 88.4931 335.255C89.8587 332.721 91.3231 330.237 92.8679 327.797C93.1768 327.308 93.4919 326.82 93.8071 326.338C94.53 325.232 95.2715 324.139 96.0253 323.057C96.7854 321.97 97.5516 320.901 98.3425 319.838C98.8059 319.214 99.2755 318.596 99.7452 317.978C99.8069 317.892 99.8749 317.805 99.9429 317.718C100.357 317.187 100.765 316.662 101.179 316.143C101.661 315.537 102.149 314.932 102.643 314.332C103.49 313.307 104.342 312.293 105.207 311.292L106.116 310.254C106.48 309.846 106.839 309.445 107.197 309.049C107.722 308.475 108.241 307.9 108.767 307.338C109.317 306.751 109.866 306.17 110.423 305.589C110.867 305.126 111.312 304.668 111.763 304.211C113.376 302.58 115.014 300.992 116.676 299.447C116.904 299.231 117.133 299.014 117.368 298.804C117.807 298.403 118.245 298.007 118.684 297.606C119.203 297.142 119.722 296.685 120.241 296.228C120.847 295.702 121.452 295.177 122.064 294.658C122.639 294.17 123.219 293.682 123.8 293.206C124.381 292.73 124.962 292.255 125.549 291.785C126.136 291.315 126.723 290.852 127.31 290.395C127.743 290.055 128.175 289.721 128.614 289.394C130.653 287.837 132.704 286.347 134.768 284.926C135.157 284.66 135.547 284.395 135.936 284.135C137.234 283.252 138.537 282.405 139.841 281.583C141.04 280.823 142.245 280.088 143.45 279.377C145.069 278.42 146.681 277.505 148.294 276.64C148.64 276.455 148.986 276.269 149.338 276.084C149.777 275.849 150.216 275.62 150.655 275.404C151.248 275.095 151.847 274.799 152.44 274.502C153.225 274.113 154.016 273.73 154.801 273.371C155.103 273.229 155.406 273.087 155.709 272.951C156.617 272.531 157.526 272.129 158.434 271.746C158.718 271.623 159.009 271.505 159.293 271.388C159.491 271.301 159.694 271.215 159.892 271.141C160.584 270.856 161.27 270.585 161.956 270.319C162.067 270.276 162.178 270.232 162.29 270.195C162.358 270.164 162.419 270.146 162.481 270.121C162.815 269.991 163.149 269.868 163.476 269.75C165.064 269.163 166.634 268.638 168.178 268.168C168.716 268.002 169.26 267.847 169.791 267.699C170.193 267.575 170.594 267.464 170.996 267.365C171.317 267.273 171.645 267.192 171.966 267.112C173.054 266.834 174.129 266.587 175.185 266.377C175.587 266.29 175.976 266.216 176.372 266.148C176.607 266.099 176.841 266.055 177.076 266.018C177.917 265.87 178.751 265.746 179.566 265.647C179.82 265.61 180.073 265.579 180.32 265.555C181.525 265.413 182.699 265.32 183.842 265.283C184.046 265.271 184.25 265.264 184.454 265.258C184.794 265.252 185.134 265.246 185.474 265.246C185.931 265.24 186.382 265.252 186.827 265.264C187.476 265.289 188.131 265.314 188.773 265.345C189.101 265.357 189.422 265.369 189.743 265.388C189.811 265.388 189.873 265.388 189.941 265.4C190.596 265.437 191.251 265.474 191.9 265.518C192.672 265.567 193.445 265.623 194.211 265.691C194.322 265.697 194.427 265.703 194.532 265.715C195.298 265.777 196.058 265.851 196.818 265.925C196.843 265.925 196.862 265.925 196.88 265.932C198.332 266.08 199.772 266.247 201.193 266.432C201.91 266.525 202.621 266.624 203.325 266.729C203.362 266.729 203.393 266.735 203.424 266.741C204.085 266.84 204.74 266.945 205.389 267.05C205.42 267.05 205.457 267.05 205.494 267.069C206.173 267.18 206.853 267.291 207.527 267.415C208.219 267.538 208.905 267.668 209.591 267.804C210.27 267.94 210.95 268.076 211.63 268.218C212.303 268.366 212.977 268.515 213.644 268.669C215.04 268.99 216.412 269.33 217.778 269.695L219.52 270.177C220.132 270.35 220.738 270.529 221.343 270.714C221.541 270.77 221.732 270.832 221.924 270.887C222.412 271.042 222.894 271.19 223.376 271.345C223.994 271.548 224.612 271.752 225.217 271.956C225.224 271.956 225.236 271.956 225.248 271.969C225.872 272.179 226.49 272.395 227.102 272.617C227.714 272.84 228.325 273.069 228.931 273.297C228.95 273.303 228.968 273.31 228.987 273.316C230.426 273.866 231.848 274.44 233.238 275.046C233.312 275.071 233.38 275.101 233.454 275.132C234.14 275.435 234.826 275.738 235.499 276.047C236.216 276.374 236.921 276.708 237.619 277.048C238.317 277.388 239.015 277.734 239.701 278.086C240.294 278.389 240.881 278.698 241.462 279.013C241.629 279.105 241.796 279.192 241.963 279.285C242.556 279.612 243.149 279.946 243.736 280.28C243.742 280.28 243.748 280.286 243.761 280.292C244.422 280.669 245.071 281.058 245.72 281.447C246.368 281.837 247.011 282.238 247.654 282.646C249.569 283.857 251.423 285.13 253.227 286.465C253.826 286.903 254.42 287.355 255.013 287.812C255.507 288.195 256.001 288.584 256.49 288.98C256.582 289.048 256.669 289.122 256.755 289.196C257.33 289.659 257.898 290.135 258.467 290.617C259.029 291.093 259.585 291.581 260.135 292.069C260.166 292.094 260.203 292.125 260.234 292.156C260.753 292.619 261.266 293.089 261.773 293.558C262.31 294.065 262.842 294.572 263.367 295.085C263.892 295.604 264.417 296.123 264.924 296.648C265.437 297.173 265.944 297.704 266.444 298.236C266.945 298.773 267.439 299.317 267.921 299.861C267.946 299.88 267.964 299.904 267.977 299.923C268.452 300.454 268.916 300.986 269.373 301.529C269.843 302.079 270.306 302.635 270.757 303.191C270.776 303.216 270.794 303.235 270.813 303.253C271.171 303.698 271.523 304.143 271.876 304.594C272.011 304.767 272.147 304.934 272.271 305.107C272.685 305.632 273.08 306.164 273.476 306.701C273.915 307.288 274.347 307.888 274.767 308.487C275.62 309.686 276.442 310.909 277.239 312.151C277.622 312.751 277.999 313.356 278.376 313.968C278.413 314.023 278.45 314.085 278.481 314.147C278.846 314.74 279.198 315.333 279.55 315.939C279.915 316.569 280.279 317.206 280.637 317.848C280.644 317.854 280.65 317.861 280.65 317.873C281.008 318.522 281.36 319.177 281.706 319.838C281.984 320.363 282.256 320.895 282.528 321.432C282.794 321.964 283.06 322.501 283.319 323.039C283.554 323.514 283.776 323.99 284.005 324.472C284.036 324.534 284.067 324.596 284.092 324.664C284.308 325.127 284.518 325.591 284.728 326.06C284.833 326.289 284.932 326.517 285.031 326.746C285.21 327.148 285.383 327.556 285.556 327.963C285.766 328.464 285.976 328.958 286.18 329.459C286.662 330.639 287.119 331.831 287.564 333.043C287.774 333.617 287.984 334.192 288.182 334.773C288.349 335.23 288.503 335.7 288.664 336.163C288.714 336.305 288.757 336.447 288.806 336.596C288.961 337.065 289.115 337.541 289.27 338.023C289.504 338.764 289.733 339.506 289.956 340.26C290.277 341.347 290.586 342.441 290.876 343.541C292.39 349.226 293.527 355.133 294.281 361.225C294.33 361.646 294.38 362.072 294.429 362.492C294.485 362.98 294.54 363.468 294.59 363.956C294.683 364.846 294.763 365.736 294.843 366.632C294.855 366.799 294.874 366.972 294.886 367.139C294.961 368.047 295.029 368.962 295.084 369.882Z" fill="#111111"/>
<path d="M274.36 369.888C269.824 369.895 265.116 369.901 260.259 369.907C248.766 369.913 236.445 369.926 223.679 369.938C217.667 369.944 211.549 369.95 205.383 369.956C205.166 369.95 204.95 369.95 204.734 369.956C198.091 369.956 191.381 369.963 184.658 369.969C181.593 369.969 178.528 369.969 175.463 369.969H175.012C168.765 369.975 162.531 369.975 156.339 369.981H154.288C144.389 369.987 134.632 369.987 125.178 369.993H118.604C109.261 369.993 100.462 369.987 92.4106 369.981C86.8989 369.975 81.7455 369.969 77 369.963C77.0618 369.462 77.1298 368.962 77.2039 368.461C77.2966 367.818 77.3955 367.182 77.5005 366.546C77.5499 366.237 77.5994 365.928 77.655 365.619C77.8527 364.519 78.0628 363.431 78.3038 362.344C78.3965 361.911 78.4892 361.485 78.588 361.059C78.7054 360.57 78.8228 360.082 78.9402 359.594C79.0638 359.106 79.1874 358.618 79.3172 358.136C79.3604 357.975 79.4037 357.821 79.4469 357.666C79.6323 356.974 79.8238 356.288 80.0277 355.602C80.1019 355.355 80.176 355.108 80.2502 354.867C80.3305 354.583 80.417 354.299 80.5097 354.021C80.6456 353.563 80.794 353.112 80.9423 352.661C81.5293 350.851 82.1842 349.053 82.8887 347.279C83.1296 346.667 83.3706 346.062 83.624 345.456C84.075 344.369 84.5508 343.281 85.039 342.206C85.1502 341.959 85.2676 341.712 85.3788 341.465C85.8731 340.402 86.3736 339.351 86.8989 338.307C87.4117 337.281 87.9431 336.262 88.4931 335.249C89.8525 332.715 91.3169 330.225 92.8679 327.79C93.1768 327.302 93.4919 326.814 93.8071 326.332C94.5238 325.226 95.2653 324.132 96.0253 323.051C96.773 321.964 97.5516 320.888 98.3425 319.832C98.8059 319.208 99.2755 318.59 99.7452 317.972C99.8069 317.885 99.8749 317.799 99.9429 317.712C100.357 317.181 100.765 316.656 101.179 316.137C101.661 315.531 102.149 314.926 102.643 314.326C103.49 313.3 104.342 312.287 105.207 311.286L106.116 310.248C106.48 309.84 106.839 309.439 107.197 309.043C107.722 308.468 108.241 307.894 108.767 307.331C109.317 306.744 109.866 306.164 110.423 305.583C110.867 305.119 111.312 304.662 111.763 304.205C113.376 302.574 115.014 300.986 116.676 299.441C116.904 299.225 117.133 299.008 117.368 298.798C117.807 298.397 118.245 298.001 118.684 297.599C119.203 297.136 119.722 296.679 120.241 296.222C120.847 295.696 121.452 295.171 122.064 294.652C122.639 294.164 123.219 293.676 123.8 293.2C124.381 292.724 124.962 292.248 125.549 291.779C126.136 291.309 126.723 290.846 127.31 290.389C127.743 290.049 128.175 289.715 128.614 289.387C130.653 287.83 132.704 286.341 134.768 284.92C135.157 284.654 135.547 284.389 135.936 284.129C137.234 283.245 138.537 282.399 139.841 281.577C141.04 280.817 142.245 280.082 143.45 279.371C145.069 278.413 146.681 277.499 148.294 276.634C148.64 276.449 148.986 276.263 149.338 276.078C149.777 275.843 150.216 275.614 150.655 275.398C151.248 275.089 151.847 274.792 152.44 274.496C153.225 274.107 154.016 273.724 154.801 273.365C155.103 273.223 155.406 273.081 155.709 272.945C156.617 272.525 157.526 272.123 158.434 271.74C158.718 271.616 159.009 271.499 159.293 271.382C159.491 271.295 159.694 271.209 159.892 271.134C160.584 270.85 161.27 270.578 161.956 270.313C162.067 270.269 162.178 270.226 162.29 270.189C162.568 270.171 162.846 270.158 163.118 270.152C163.322 270.14 163.526 270.133 163.729 270.127C164.069 270.121 164.409 270.115 164.749 270.115C165.206 270.109 165.657 270.121 166.102 270.133C166.751 270.158 167.406 270.183 168.049 270.214C168.376 270.214 168.697 270.232 169.019 270.251C169.087 270.251 169.148 270.251 169.216 270.263C169.871 270.3 170.526 270.337 171.175 270.374C171.948 270.424 172.72 270.473 173.486 270.541C173.597 270.547 173.702 270.554 173.807 270.566C174.574 270.622 175.334 270.696 176.094 270.764C176.118 270.764 176.137 270.764 176.156 270.77C177.608 270.912 179.047 271.073 180.469 271.246C181.185 271.338 181.896 271.431 182.6 271.53C182.637 271.53 182.668 271.536 182.699 271.542C183.36 271.635 184.015 271.734 184.664 271.839C184.695 271.839 184.732 271.845 184.769 271.857C185.449 271.963 186.129 272.067 186.802 272.185C187.494 272.302 188.18 272.426 188.866 272.556C189.546 272.685 190.225 272.815 190.905 272.951C191.578 273.093 192.252 273.235 192.919 273.377C194.316 273.686 195.688 274.008 197.053 274.36L198.796 274.817C199.407 274.984 200.013 275.151 200.618 275.33C200.816 275.386 201.008 275.441 201.199 275.497C201.687 275.645 202.169 275.781 202.651 275.929C203.269 276.127 203.887 276.319 204.493 276.516C204.499 276.516 204.511 276.523 204.524 276.529C205.148 276.727 205.766 276.93 206.377 277.147C206.989 277.357 207.601 277.573 208.206 277.796C208.225 277.802 208.243 277.808 208.262 277.808C209.702 278.333 211.117 278.883 212.513 279.458C212.587 279.482 212.655 279.513 212.729 279.544C213.415 279.828 214.101 280.119 214.775 280.415C215.492 280.724 216.196 281.046 216.894 281.367C217.592 281.695 218.291 282.022 218.977 282.362C219.57 282.646 220.157 282.943 220.738 283.245C220.892 283.326 221.047 283.4 221.201 283.48L221.238 283.499C221.831 283.814 222.424 284.135 223.011 284.45C223.018 284.45 223.024 284.457 223.036 284.463C223.697 284.821 224.346 285.192 224.995 285.563C225.644 285.933 226.286 286.316 226.929 286.706C228.838 287.861 230.698 289.078 232.502 290.345C233.102 290.765 233.695 291.198 234.288 291.631C234.783 291.995 235.277 292.366 235.765 292.743C235.858 292.811 235.944 292.879 236.031 292.953C236.605 293.392 237.174 293.849 237.742 294.306C238.305 294.763 238.861 295.227 239.411 295.69C239.442 295.715 239.479 295.746 239.51 295.777C240.029 296.215 240.541 296.66 241.048 297.111C241.586 297.593 242.117 298.075 242.642 298.563C243.168 299.058 243.687 299.558 244.199 300.059C245.225 301.06 246.226 302.079 247.196 303.117C247.221 303.136 247.24 303.161 247.252 303.179C247.728 303.686 248.191 304.193 248.648 304.712C249.118 305.237 249.581 305.768 250.033 306.293C250.051 306.318 250.07 306.337 250.088 306.355C250.447 306.782 250.799 307.202 251.151 307.634C251.287 307.795 251.423 307.956 251.546 308.122C251.96 308.623 252.356 309.13 252.751 309.642C253.19 310.199 253.623 310.773 254.043 311.342C254.895 312.485 255.717 313.653 256.514 314.839C256.897 315.408 257.274 315.988 257.651 316.569C257.688 316.625 257.725 316.68 257.756 316.742C258.121 317.305 258.473 317.873 258.825 318.448C259.19 319.053 259.554 319.659 259.913 320.27C259.919 320.277 259.925 320.283 259.925 320.295C260.284 320.913 260.636 321.537 260.982 322.167C261.26 322.668 261.532 323.175 261.804 323.688C262.069 324.194 262.335 324.707 262.595 325.22C262.829 325.671 263.052 326.128 263.28 326.585C263.311 326.647 263.342 326.703 263.367 326.771C263.583 327.21 263.793 327.654 264.003 328.099C264.108 328.316 264.207 328.538 264.306 328.754C264.485 329.137 264.658 329.527 264.831 329.916C265.041 330.392 265.252 330.861 265.455 331.337C265.937 332.468 266.395 333.605 266.84 334.754C267.05 335.304 267.26 335.854 267.457 336.404C267.624 336.843 267.779 337.288 267.939 337.733C267.989 337.868 268.032 338.004 268.082 338.147C268.236 338.591 268.391 339.049 268.545 339.506C268.78 340.21 269.008 340.921 269.231 341.638C269.552 342.676 269.861 343.72 270.152 344.764C271.665 350.19 272.802 355.819 273.556 361.627C273.606 362.029 273.655 362.436 273.705 362.838C273.76 363.302 273.816 363.765 273.865 364.235C273.958 365.081 274.038 365.928 274.119 366.78C274.131 366.941 274.149 367.108 274.162 367.268C274.236 368.14 274.304 369.005 274.36 369.882V369.888Z" fill="#282828"/>
<path d="M214.033 287.577L205.382 369.968C195.236 369.968 185.053 369.981 175.012 369.987L165.317 285.68C165.317 285.68 178.948 291.204 190.645 291.896C202.349 292.582 214.033 287.577 214.033 287.577Z" fill="white"/>
<path d="M214.188 280.427C214.188 280.427 202.534 284.876 192.252 284.883C175.81 284.883 164.31 277.338 164.31 277.338L165.317 285.686C165.317 285.686 180.345 291.902 191.387 292.322C205.061 292.841 213.415 287.737 213.415 287.737L214.188 280.427Z" fill="white"/>
<path d="M295.084 369.882C284.339 369.895 272.605 369.907 260.259 369.919C248.5 369.932 236.191 369.944 223.666 369.956C217.611 369.956 211.5 369.963 205.383 369.969H204.734C194.952 369.969 185.14 369.981 175.463 369.987H175.012C168.722 369.993 162.487 369.993 156.352 370H118.604C109.261 370 100.462 369.993 92.4106 369.987C86.8989 369.981 81.7455 369.975 77 369.969C77.0618 369.468 77.1298 368.968 77.2039 368.467C77.2966 367.825 77.3955 367.188 77.5005 366.552C77.5499 366.243 77.5994 365.934 77.655 365.625C77.8527 364.525 78.0628 363.437 78.3038 362.35C78.3965 361.917 78.4892 361.491 78.588 361.065C78.7054 360.577 78.8228 360.088 78.9402 359.6C79.0638 359.112 79.1874 358.624 79.3172 358.142C79.3604 357.981 79.4037 357.827 79.4469 357.672C79.4963 357.518 79.5396 357.363 79.5828 357.209C79.725 356.671 79.8733 356.14 80.0277 355.609C80.1019 355.361 80.176 355.114 80.2502 354.873C80.3305 354.589 80.417 354.305 80.5097 354.027C80.6456 353.569 80.794 353.118 80.9423 352.667C81.5293 350.857 82.1842 349.059 82.8887 347.285C83.1296 346.674 83.3706 346.068 83.624 345.463C84.075 344.375 84.5508 343.288 85.039 342.212C85.1502 341.965 85.2676 341.718 85.3788 341.471C85.8731 340.408 86.3736 339.358 86.8989 338.313C87.4117 337.288 87.9431 336.268 88.4931 335.255C89.8525 332.721 91.3169 330.231 92.8678 327.797C93.1768 327.308 93.4919 326.82 93.8071 326.338C94.5238 325.232 95.2653 324.139 96.0253 323.057C96.773 321.97 97.5516 320.895 98.3425 319.838C98.8059 319.214 99.2755 318.596 99.7452 317.978C99.8069 317.892 99.8749 317.805 99.9429 317.719C100.357 317.187 100.765 316.662 101.179 316.143C101.661 315.537 102.149 314.932 102.643 314.332C103.49 313.307 104.342 312.293 105.207 311.292L106.116 310.254C106.48 309.846 106.839 309.445 107.197 309.049C107.722 308.475 108.241 307.9 108.767 307.338C109.317 306.751 109.866 306.17 110.423 305.589C110.867 305.126 111.312 304.668 111.763 304.211C113.376 302.58 115.014 300.992 116.676 299.447C116.904 299.231 117.133 299.014 117.368 298.804C117.807 298.403 118.245 298.007 118.684 297.606C119.203 297.142 119.722 296.685 120.241 296.228C120.847 295.702 121.452 295.177 122.064 294.658C122.639 294.17 123.219 293.682 123.8 293.206C124.381 292.73 124.962 292.255 125.549 291.785C126.136 291.315 126.723 290.852 127.31 290.395C127.743 290.055 128.175 289.721 128.614 289.394C130.653 287.837 132.704 286.347 134.768 284.926C135.157 284.66 135.547 284.395 135.936 284.135C137.234 283.252 138.537 282.405 139.841 281.583C141.04 280.823 142.245 280.088 143.45 279.377C145.069 278.42 146.681 277.505 148.294 276.64C148.64 276.455 148.986 276.269 149.338 276.084C149.777 275.849 150.216 275.62 150.655 275.404C151.248 275.095 151.847 274.799 152.44 274.502C153.225 274.113 154.016 273.73 154.801 273.371C155.103 273.229 155.406 273.087 155.709 272.951C156.617 272.531 157.526 272.129 158.434 271.746C158.718 271.623 159.009 271.505 159.293 271.388C159.491 271.301 159.694 271.215 159.892 271.141C160.584 270.856 161.27 270.585 161.956 270.319C162.067 270.276 162.178 270.232 162.29 270.195C162.358 270.164 162.419 270.146 162.481 270.121C162.815 269.991 163.149 269.868 163.476 269.75C165.064 269.163 166.634 268.638 168.178 268.168C168.716 268.002 169.26 267.847 169.791 267.699C170.193 267.575 170.594 267.464 170.996 267.365C171.317 267.273 171.645 267.192 171.966 267.112C173.054 266.834 174.129 266.587 175.185 266.377C175.587 266.29 175.976 266.216 176.372 266.148C176.607 266.099 176.841 266.055 177.076 266.018C177.917 265.87 178.751 265.746 179.566 265.647C179.82 265.61 180.073 265.579 180.32 265.555C181.525 265.413 182.699 265.32 183.842 265.283C184.046 265.271 184.25 265.264 184.454 265.258C184.794 265.252 185.134 265.246 185.474 265.246C185.931 265.24 186.382 265.252 186.827 265.264C187.476 265.289 188.131 265.314 188.773 265.345C189.101 265.357 189.422 265.369 189.743 265.388C189.811 265.388 189.873 265.388 189.941 265.4C190.596 265.437 191.251 265.474 191.9 265.518C192.672 265.567 193.445 265.623 194.211 265.691C194.322 265.697 194.427 265.703 194.532 265.715C195.298 265.777 196.058 265.851 196.818 265.925C196.843 265.925 196.862 265.925 196.88 265.932C198.332 266.074 199.772 266.241 201.193 266.432C201.91 266.525 202.621 266.624 203.325 266.729C203.362 266.729 203.393 266.735 203.424 266.741C204.085 266.84 204.74 266.945 205.389 267.05C205.42 267.05 205.457 267.05 205.494 267.069C206.173 267.18 206.853 267.291 207.527 267.415C208.219 267.538 208.905 267.668 209.591 267.804C210.27 267.94 210.95 268.076 211.63 268.218C212.303 268.366 212.977 268.515 213.644 268.669C215.04 268.99 216.412 269.33 217.778 269.695L219.52 270.177C220.132 270.35 220.738 270.529 221.343 270.714C221.541 270.77 221.732 270.832 221.924 270.887C222.412 271.042 222.894 271.19 223.376 271.345C223.994 271.548 224.612 271.752 225.217 271.956C225.224 271.956 225.236 271.956 225.248 271.969C225.872 272.179 226.49 272.395 227.102 272.617C227.714 272.84 228.325 273.069 228.931 273.297C228.95 273.303 228.968 273.31 228.987 273.316C230.426 273.866 231.848 274.44 233.238 275.046C233.312 275.071 233.38 275.101 233.454 275.132C234.14 275.435 234.826 275.738 235.499 276.047C236.216 276.374 236.921 276.708 237.619 277.048C238.317 277.388 239.015 277.734 239.701 278.086C240.294 278.389 240.881 278.698 241.462 279.013C241.629 279.105 241.796 279.192 241.963 279.285C242.556 279.612 243.149 279.946 243.736 280.28C243.742 280.28 243.748 280.286 243.761 280.292C244.422 280.669 245.071 281.058 245.72 281.447C246.368 281.837 247.011 282.238 247.654 282.646C249.569 283.857 251.423 285.13 253.227 286.465C253.826 286.903 254.42 287.355 255.013 287.812C255.507 288.195 256.001 288.584 256.49 288.98C256.582 289.048 256.669 289.122 256.755 289.196C257.33 289.659 257.898 290.135 258.467 290.617C259.029 291.093 259.585 291.581 260.135 292.069C260.166 292.094 260.203 292.125 260.234 292.156C260.753 292.619 261.266 293.089 261.773 293.558C262.31 294.065 262.842 294.572 263.367 295.085C263.892 295.604 264.417 296.123 264.924 296.648C265.437 297.173 265.944 297.704 266.444 298.236C266.945 298.773 267.439 299.317 267.921 299.861C267.946 299.88 267.964 299.904 267.977 299.923C268.452 300.454 268.916 300.986 269.373 301.529C269.843 302.079 270.306 302.635 270.757 303.191C270.776 303.216 270.794 303.235 270.813 303.253C271.171 303.698 271.523 304.143 271.876 304.594C272.011 304.767 272.147 304.934 272.271 305.107C272.685 305.632 273.08 306.164 273.476 306.701C273.915 307.288 274.347 307.888 274.767 308.487C275.62 309.686 276.442 310.909 277.239 312.151C277.622 312.751 277.999 313.356 278.376 313.968C278.413 314.023 278.45 314.085 278.481 314.147C278.846 314.74 279.198 315.333 279.55 315.939C279.915 316.569 280.279 317.206 280.637 317.848C280.644 317.854 280.65 317.861 280.65 317.873C281.008 318.522 281.36 319.177 281.706 319.838C281.984 320.363 282.256 320.895 282.528 321.432C282.794 321.964 283.06 322.501 283.319 323.039C283.554 323.514 283.776 323.99 284.005 324.472C284.036 324.534 284.067 324.596 284.092 324.664C284.308 325.127 284.518 325.591 284.728 326.06C284.833 326.289 284.932 326.517 285.031 326.746C285.21 327.148 285.383 327.556 285.556 327.963C285.766 328.464 285.976 328.958 286.18 329.459C286.662 330.639 287.119 331.831 287.564 333.043C287.774 333.617 287.984 334.192 288.182 334.773C288.349 335.23 288.503 335.7 288.664 336.163C288.714 336.305 288.757 336.447 288.806 336.596C288.961 337.065 289.115 337.541 289.27 338.023C289.504 338.764 289.733 339.506 289.956 340.26C290.277 341.347 290.586 342.441 290.876 343.541C292.39 349.226 293.527 355.133 294.281 361.225C294.33 361.646 294.38 362.072 294.429 362.492C294.485 362.98 294.54 363.468 294.59 363.956C294.683 364.846 294.763 365.736 294.843 366.632C294.856 366.799 294.874 366.972 294.886 367.139C294.961 368.047 295.029 368.962 295.084 369.882Z" stroke="black" stroke-width="2.47163" stroke-miterlimit="10"/>
<path d="M213.761 276.288L250.107 311.509L229.005 329.62L241.549 346.143L223.636 370" stroke="white" stroke-width="2.47163" stroke-miterlimit="10"/>
<path d="M164.18 276.288L129.281 311.107L150.58 330.219L138.834 346.143L156.352 370" stroke="white" stroke-width="2.47163" stroke-miterlimit="10"/>
<path d="M256.675 332.208L260.259 369.999" stroke="white" stroke-width="2.47163" stroke-miterlimit="10" stroke-linecap="round"/>
<path d="M120.723 332.208L118.604 369.999" stroke="white" stroke-width="2.47163" stroke-miterlimit="10" stroke-linecap="round"/>
<path d="M164.18 276.288L175.463 370" stroke="black" stroke-width="2.47163" stroke-miterlimit="10"/>
<path d="M214.188 280.428L204.721 370" stroke="black" stroke-width="2.47163" stroke-miterlimit="10"/>
<path d="M165.311 285.68C165.311 285.68 179.097 291.568 190.812 292.248C203.72 292.996 213.409 287.737 213.409 287.737" stroke="black" stroke-width="2.47163" stroke-miterlimit="10"/>
<path d="M214.824 279.216C214.101 279.606 213.366 280.014 212.606 280.452C198.869 288.392 174.388 284.549 165.577 277.628C164.94 277.128 164.279 276.677 163.605 276.269L164.019 272.067L164.909 262.947L167.665 234.715H209.467L210.801 245.806L214.187 273.94L214.824 279.216Z" fill="#E8B08A"/>
<path d="M210.801 247.641C204.035 263.67 178.831 267.019 164.909 267.618L167.665 234.715H209.467L210.801 247.641Z" fill="#CA885E"/>
<path d="M164.18 276.288L167.665 234.715H209.467L214.187 280.428C214.187 280.428 186.802 292.817 164.18 276.288Z" stroke="black" stroke-width="2.47163" stroke-miterlimit="10"/>
<path d="M259.084 200.284C255.989 206.167 251.515 210.529 246.998 212.606C243.445 214.249 239.861 214.478 236.908 212.921C236.506 212.711 236.129 212.47 235.771 212.204C230.104 208.033 229.573 197.374 234.788 187.481C236.846 183.57 239.521 180.326 242.407 177.984C247.27 174.03 252.751 172.627 256.965 174.845C257.688 175.228 258.349 175.698 258.936 176.26C263.805 180.827 264.028 190.905 259.084 200.284Z" fill="#E8B08A"/>
<path d="M258.936 176.26C257.817 177.743 256.551 179.622 255.265 181.926C251.632 188.47 247.894 198.455 246.998 212.606C243.445 214.249 239.861 214.478 236.907 212.921C236.506 212.711 236.129 212.47 235.771 212.204C237.544 202.917 240.244 189.026 242.407 177.984C247.27 174.03 252.751 172.627 256.965 174.845C257.688 175.228 258.349 175.698 258.936 176.26Z" fill="#CA885E"/>
<path d="M259.084 200.284C255.989 206.167 251.515 210.529 246.998 212.606C243.445 214.249 239.861 214.478 236.908 212.921C236.506 212.711 236.129 212.47 235.771 212.204C230.104 208.033 229.573 197.374 234.788 187.481C236.846 183.57 239.521 180.326 242.407 177.984C247.27 174.03 252.751 172.627 256.965 174.845C257.688 175.228 258.349 175.698 258.936 176.26C263.805 180.827 264.028 190.905 259.084 200.284Z" stroke="black" stroke-width="2.47163" stroke-miterlimit="10"/>
<path d="M257.941 186.592C257.941 186.592 256.903 180.994 253.418 181.636C249.519 182.359 248.636 185.671 248.734 194.106C248.833 202.54 246.93 204.604 243.958 205.599" stroke="black" stroke-width="2.47163" stroke-miterlimit="10" stroke-linecap="round"/>
<path d="M141.932 212.876C148.641 209.341 149.588 197.951 144.048 187.435C138.508 176.919 128.579 171.259 121.87 174.793C115.161 178.327 114.214 189.717 119.753 200.234C125.293 210.75 135.223 216.41 141.932 212.876Z" fill="#E8B08A"/>
<path d="M120.815 176.261C121.934 177.744 123.41 179.518 124.486 181.927C127.835 189.41 128.854 197.369 129.75 211.519C133.303 213.163 139.89 214.479 142.844 212.922C143.245 212.712 143.622 212.471 143.981 212.205C142.207 202.918 139.507 189.027 137.344 177.985C132.481 174.031 127 172.628 122.786 174.846C122.063 175.229 121.402 175.699 120.815 176.261Z" fill="#CA885E"/>
<path d="M141.932 212.876C148.641 209.341 149.588 197.951 144.048 187.435C138.508 176.919 128.579 171.259 121.87 174.793C115.161 178.327 114.214 189.717 119.753 200.234C125.293 210.75 135.223 216.41 141.932 212.876Z" stroke="black" stroke-width="2.47163" stroke-miterlimit="10"/>
<path d="M120.84 186.592C120.84 186.592 121.878 180.994 125.363 181.636C129.262 182.359 130.146 185.671 130.047 194.106C129.948 202.54 131.851 204.604 134.823 205.599" stroke="black" stroke-width="2.47163" stroke-miterlimit="10" stroke-linecap="round"/>
<path d="M244.706 176.341V176.44C244.706 177.045 244.7 177.645 244.681 178.244C244.669 178.844 244.644 179.443 244.613 180.036C244.347 185.622 243.445 190.751 242.055 195.595C242.024 195.694 241.999 195.799 241.968 195.892C240.492 200.958 238.49 205.716 236.117 210.369C235.87 210.87 235.61 211.37 235.344 211.864C234.875 212.754 234.393 213.638 233.905 214.521C233.88 214.559 233.862 214.602 233.837 214.639L233.701 214.849L231.822 217.815L231.668 218.062C226.292 227.677 218.377 235.147 210.109 240.016C210.078 240.035 210.054 240.053 210.023 240.066C202.873 244.261 195.465 246.511 189.218 246.511C187.24 246.511 185.288 246.381 183.366 246.121C182.551 246.016 181.741 245.886 180.938 245.732C180.734 245.695 180.53 245.652 180.326 245.608C180.073 245.559 179.826 245.51 179.578 245.448C179.486 245.429 179.393 245.411 179.306 245.386C179.004 245.324 178.701 245.25 178.398 245.17C178.021 245.083 177.65 244.984 177.286 244.879C177.101 244.83 176.915 244.78 176.736 244.725C176.458 244.644 176.18 244.564 175.902 244.471C175.383 244.317 174.876 244.144 174.369 243.965C173.986 243.835 173.603 243.693 173.226 243.551C172.818 243.396 172.411 243.236 172.009 243.069C171.138 242.71 170.279 242.327 169.432 241.919C169.099 241.759 168.759 241.592 168.431 241.419C168.067 241.24 167.708 241.048 167.35 240.851C167.288 240.82 167.226 240.783 167.165 240.752C167.14 240.733 167.109 240.721 167.084 240.708C166.849 240.579 166.621 240.455 166.392 240.319C166.151 240.183 165.916 240.047 165.682 239.905C165.367 239.726 165.064 239.534 164.755 239.343C164.532 239.207 164.316 239.071 164.094 238.923C161.844 237.483 159.682 235.852 157.624 234.041C157.315 233.775 157.019 233.504 156.716 233.232C156.413 232.954 156.104 232.669 155.807 232.379C155.505 232.095 155.208 231.804 154.911 231.508C154.615 231.211 154.318 230.915 154.028 230.612C153.737 230.309 153.447 230.006 153.163 229.691C152.872 229.382 152.594 229.073 152.31 228.752C151.76 228.134 151.223 227.504 150.691 226.861C150.407 226.515 150.129 226.169 149.851 225.811C149.585 225.471 149.319 225.131 149.06 224.785C148.837 224.488 148.609 224.179 148.38 223.877C148.084 223.463 147.787 223.049 147.497 222.628C147.385 222.468 147.274 222.301 147.163 222.14C147.163 222.14 147.159 222.136 147.151 222.128C147.033 221.955 146.916 221.776 146.798 221.603C146.557 221.238 146.316 220.867 146.075 220.497C145.841 220.132 145.606 219.755 145.377 219.378C145.142 219.001 144.914 218.624 144.691 218.241C144.463 217.858 144.24 217.475 144.024 217.086C143.802 216.697 143.585 216.307 143.375 215.912C143.017 215.251 142.671 214.577 142.337 213.897C142.232 213.681 142.115 213.477 142.003 213.261C141.954 213.156 141.898 213.045 141.849 212.933C141.744 212.717 141.639 212.501 141.54 212.285C141.392 211.976 141.25 211.661 141.101 211.345C140.866 210.833 140.638 210.314 140.415 209.788C140.236 209.368 140.057 208.942 139.884 208.515C139.705 208.089 139.538 207.663 139.371 207.23C139.204 206.798 139.037 206.359 138.877 205.926C138.716 205.488 138.562 205.049 138.407 204.604C138.253 204.165 138.098 203.72 137.956 203.276C137.808 202.831 137.666 202.38 137.524 201.929C137.246 201.026 136.98 200.118 136.733 199.197C136.479 198.277 136.245 197.35 136.028 196.411C135.973 196.163 135.911 195.91 135.855 195.663C135.855 195.651 135.849 195.644 135.849 195.632C135.812 195.465 135.775 195.298 135.738 195.132C135.719 195.07 135.707 195.002 135.695 194.94C135.596 194.489 135.503 194.032 135.41 193.574C135.318 193.099 135.225 192.623 135.138 192.141C135.052 191.665 134.972 191.183 134.891 190.695C134.811 190.213 134.737 189.725 134.663 189.243C134.514 188.267 134.391 187.284 134.286 186.295C134.243 185.894 134.199 185.492 134.156 185.084C134.131 184.806 134.107 184.528 134.082 184.25C134.051 183.947 134.026 183.651 134.008 183.348C133.921 182.298 133.859 181.241 133.816 180.178C133.798 179.814 133.785 179.443 133.779 179.072C133.767 178.757 133.761 178.448 133.754 178.133C133.742 177.571 133.736 177.008 133.736 176.44C133.736 176.335 133.736 176.23 133.742 176.125C133.736 175.946 133.736 175.766 133.742 175.587C133.742 175.278 133.748 174.975 133.754 174.673C133.761 174.197 133.773 173.721 133.791 173.245C133.798 173.115 133.804 172.992 133.81 172.868C133.822 172.621 133.829 172.374 133.841 172.127C133.847 171.88 133.859 171.632 133.878 171.392C133.94 170.329 134.014 169.278 134.113 168.228C134.144 167.876 134.181 167.523 134.218 167.171C134.23 167.048 134.243 166.918 134.255 166.788C134.28 166.609 134.298 166.424 134.323 166.244C134.323 166.201 134.329 166.158 134.335 166.115C134.416 165.416 134.502 164.712 134.601 164.02C134.607 163.995 134.613 163.964 134.613 163.94C134.681 163.47 134.755 163 134.83 162.531C134.897 162.092 134.972 161.647 135.052 161.208C135.132 160.77 135.206 160.325 135.293 159.892C135.386 159.404 135.485 158.922 135.583 158.44C135.577 158.428 135.583 158.415 135.59 158.409C135.701 157.896 135.812 157.384 135.929 156.877C136.028 156.451 136.127 156.024 136.226 155.598C136.275 155.4 136.325 155.202 136.38 155.005C136.541 154.356 136.714 153.719 136.893 153.083C137.073 152.446 137.258 151.81 137.449 151.186C137.524 150.945 137.598 150.71 137.672 150.475C137.795 150.086 137.919 149.697 138.049 149.314C138.209 148.826 138.376 148.337 138.549 147.849C138.753 147.268 138.969 146.694 139.186 146.119C139.328 145.736 139.476 145.353 139.631 144.976C139.779 144.605 139.927 144.235 140.082 143.864C140.329 143.283 140.576 142.702 140.829 142.127C141.027 141.683 141.231 141.244 141.435 140.805C141.627 140.397 141.824 139.989 142.022 139.582C142.053 139.508 142.09 139.433 142.133 139.353C142.337 138.939 142.547 138.531 142.757 138.123C142.862 137.901 142.98 137.685 143.103 137.462C143.221 137.246 143.338 137.03 143.456 136.813C143.696 136.369 143.95 135.924 144.197 135.479C144.432 135.065 144.673 134.657 144.914 134.255C145.587 133.131 146.292 132.031 147.015 130.956C147.225 130.641 147.441 130.332 147.657 130.023C147.874 129.714 148.09 129.405 148.312 129.102L148.98 128.194C149.418 127.613 149.869 127.032 150.327 126.47C150.351 126.445 150.37 126.42 150.388 126.396C150.599 126.13 150.821 125.864 151.037 125.605C151.056 125.586 151.068 125.568 151.08 125.549C151.235 125.364 151.389 125.184 151.544 125.005C151.618 124.913 151.698 124.826 151.779 124.733C152.273 124.165 152.774 123.609 153.28 123.059C153.515 122.805 153.756 122.552 154.003 122.299C154.257 122.033 154.51 121.774 154.763 121.52C155.499 120.779 156.252 120.062 157.019 119.376C157.074 119.327 157.13 119.277 157.179 119.228C157.426 119.012 157.674 118.789 157.927 118.579C158.199 118.344 158.471 118.109 158.743 117.887C159.292 117.43 159.842 116.985 160.405 116.552C160.689 116.336 160.967 116.126 161.251 115.916C161.282 115.891 161.319 115.866 161.35 115.842C161.603 115.656 161.851 115.477 162.11 115.298C163.253 114.476 164.427 113.716 165.626 113.012C165.91 112.839 166.201 112.672 166.491 112.505C166.516 112.493 166.528 112.486 166.528 112.486C166.849 112.301 167.177 112.122 167.498 111.949C168.314 111.51 169.142 111.096 169.97 110.707C170.211 110.596 170.452 110.484 170.693 110.373C171.181 110.157 171.675 109.947 172.163 109.749C172.442 109.632 172.72 109.521 173.004 109.415C173.245 109.323 173.486 109.23 173.727 109.137C173.974 109.051 174.215 108.964 174.456 108.884C174.629 108.822 174.796 108.767 174.963 108.705C175.136 108.649 175.309 108.594 175.475 108.544C175.599 108.501 175.723 108.458 175.852 108.421C176.217 108.309 176.582 108.198 176.946 108.093C177.366 107.976 177.786 107.858 178.213 107.753C178.423 107.698 178.633 107.642 178.849 107.593C179.059 107.543 179.276 107.494 179.486 107.45C179.887 107.358 180.289 107.277 180.691 107.197C180.734 107.185 180.783 107.179 180.833 107.166C181.185 107.098 181.543 107.036 181.902 106.981C182.39 106.894 182.878 106.82 183.366 106.758C183.848 106.69 184.33 106.635 184.812 106.585C186.264 106.443 187.735 106.369 189.218 106.369C189.428 106.369 189.632 106.369 189.842 106.375C189.978 106.369 190.114 106.369 190.25 106.382C190.466 106.388 190.688 106.394 190.905 106.4C191.417 106.419 191.93 106.45 192.437 106.487C192.573 106.487 192.709 106.499 192.845 106.517C193.314 106.555 193.778 106.598 194.241 106.653C194.797 106.709 195.347 106.783 195.891 106.87C196.151 106.907 196.404 106.95 196.663 106.993C196.948 107.036 197.238 107.086 197.522 107.148C197.751 107.191 197.98 107.234 198.208 107.284C198.276 107.284 198.338 107.302 198.406 107.327C198.888 107.426 199.364 107.531 199.84 107.648C199.889 107.661 199.945 107.673 199.994 107.685C200.513 107.815 201.026 107.951 201.539 108.099C201.78 108.167 202.015 108.241 202.256 108.309C202.812 108.476 203.355 108.655 203.899 108.847C204.159 108.933 204.412 109.026 204.672 109.119C204.931 109.212 205.191 109.31 205.45 109.409C205.642 109.483 205.833 109.564 206.019 109.638C206.63 109.879 207.242 110.138 207.841 110.41C208.058 110.509 208.274 110.608 208.484 110.707C209.479 111.17 210.455 111.671 211.419 112.202C211.438 112.208 211.45 112.215 211.469 112.227C211.944 112.493 212.42 112.771 212.89 113.049C213.372 113.333 213.847 113.63 214.317 113.932C214.54 114.074 214.756 114.217 214.972 114.365C217.549 116.07 220.008 118.023 222.325 120.204C223.481 121.292 224.605 122.435 225.693 123.634C226.026 123.998 226.354 124.369 226.675 124.74C226.768 124.845 226.861 124.95 226.947 125.055C227.238 125.395 227.528 125.747 227.818 126.099C228.158 126.513 228.498 126.939 228.826 127.366C228.844 127.378 228.85 127.39 228.856 127.403C229.122 127.749 229.388 128.089 229.647 128.441C229.789 128.632 229.932 128.824 230.068 129.015C230.315 129.355 230.562 129.695 230.803 130.047C231.112 130.48 231.408 130.925 231.711 131.37C231.73 131.401 231.748 131.425 231.767 131.45C232.063 131.907 232.36 132.365 232.657 132.834C232.867 133.168 233.077 133.508 233.281 133.847C233.756 134.62 234.214 135.405 234.652 136.202C234.813 136.492 234.974 136.783 235.128 137.073C235.227 137.252 235.32 137.425 235.406 137.598C235.499 137.765 235.585 137.932 235.672 138.099C235.734 138.216 235.796 138.334 235.851 138.457C235.944 138.63 236.03 138.803 236.111 138.97C236.296 139.322 236.469 139.681 236.642 140.039C237.143 141.071 237.618 142.115 238.069 143.178C238.31 143.728 238.539 144.29 238.761 144.852C238.786 144.908 238.811 144.964 238.829 145.019C239.009 145.464 239.182 145.915 239.355 146.366C239.46 146.644 239.559 146.922 239.664 147.201C239.744 147.435 239.83 147.67 239.911 147.905C240.047 148.276 240.176 148.653 240.3 149.036C240.343 149.153 240.38 149.27 240.417 149.388C240.553 149.783 240.683 150.185 240.807 150.593C241.326 152.23 241.795 153.899 242.209 155.598C242.327 156.08 242.444 156.562 242.549 157.044C242.58 157.149 242.599 157.254 242.623 157.359C242.716 157.761 242.803 158.168 242.883 158.576C242.926 158.768 242.969 158.965 243.007 159.163C243.081 159.528 243.149 159.892 243.217 160.257C243.309 160.751 243.402 161.245 243.482 161.746C243.575 162.296 243.668 162.852 243.748 163.408C243.865 164.181 243.97 164.959 244.063 165.738C244.137 166.325 244.199 166.918 244.261 167.511C244.261 167.591 244.279 167.672 244.286 167.758C244.31 167.999 244.329 168.234 244.354 168.469C244.366 168.605 244.378 168.741 244.384 168.883C244.415 169.204 244.44 169.525 244.465 169.853C244.49 170.174 244.508 170.496 244.527 170.817C244.545 171.027 244.557 171.243 244.564 171.453C244.595 171.911 244.613 172.368 244.632 172.831C244.656 173.357 244.669 173.894 244.681 174.425C244.7 175.062 244.706 175.698 244.706 176.341Z" fill="#CA885E"/>
<path d="M232.996 176.44C232.996 180.691 232.694 184.856 232.119 188.897C232.119 188.916 232.113 188.934 232.113 188.953C229.635 206.298 222.109 221.424 211.512 231.811C203.572 239.603 193.908 244.731 183.366 246.122C182.551 246.017 181.741 245.887 180.938 245.732C180.734 245.695 180.53 245.652 180.326 245.609C180.073 245.559 179.826 245.51 179.578 245.448C179.486 245.43 179.393 245.411 179.306 245.386C179.004 245.325 178.701 245.25 178.398 245.17C178.021 245.084 177.65 244.985 177.286 244.88C177.101 244.83 176.915 244.781 176.736 244.725C176.458 244.645 176.18 244.564 175.902 244.472C175.383 244.317 174.876 244.144 174.369 243.965C173.986 243.835 173.603 243.693 173.226 243.551C172.818 243.397 172.411 243.236 172.009 243.069C171.138 242.711 170.279 242.328 169.432 241.92C169.099 241.759 168.759 241.592 168.431 241.419C168.067 241.24 167.708 241.049 167.35 240.851C167.029 240.678 166.707 240.505 166.392 240.319C166.151 240.184 165.916 240.048 165.682 239.905C165.367 239.726 165.064 239.535 164.755 239.343C164.532 239.207 164.316 239.071 164.094 238.923C161.844 237.483 159.682 235.852 157.624 234.042C157.315 233.776 157.019 233.504 156.716 233.232C156.413 232.954 156.104 232.67 155.807 232.379C155.505 232.095 155.208 231.805 154.911 231.508C154.615 231.212 154.318 230.915 154.028 230.612C153.737 230.309 153.447 230.007 153.163 229.692C152.872 229.383 152.594 229.074 152.31 228.752C151.76 228.134 151.223 227.504 150.691 226.861C150.407 226.515 150.129 226.169 149.851 225.811C149.585 225.471 149.319 225.131 149.06 224.785C148.837 224.489 148.609 224.18 148.38 223.877C148.084 223.463 147.787 223.049 147.497 222.629C147.385 222.468 147.274 222.301 147.163 222.141C147.163 222.141 147.159 222.136 147.151 222.128C147.033 221.955 146.916 221.776 146.798 221.603C146.557 221.238 146.316 220.868 146.075 220.497C145.841 220.132 145.606 219.756 145.377 219.379C145.142 219.002 144.914 218.625 144.691 218.242C144.463 217.859 144.24 217.475 144.024 217.086C143.802 216.697 143.585 216.308 143.375 215.912C142.733 214.732 142.121 213.521 141.54 212.285C141.392 211.976 141.25 211.661 141.101 211.346C140.866 210.833 140.638 210.314 140.415 209.789C140.236 209.368 140.057 208.942 139.884 208.516C139.705 208.089 139.538 207.663 139.371 207.231C139.204 206.798 139.037 206.359 138.877 205.927C138.716 205.488 138.562 205.049 138.407 204.604C138.253 204.166 138.098 203.721 137.956 203.276C137.826 202.881 137.697 202.473 137.567 202.071C137.554 202.022 137.536 201.978 137.524 201.929C137.246 201.027 136.98 200.118 136.733 199.198C136.479 198.277 136.245 197.35 136.028 196.411C135.929 195.985 135.831 195.558 135.738 195.132C135.719 195.07 135.707 195.002 135.695 194.94C135.596 194.489 135.503 194.032 135.41 193.575C135.318 193.099 135.225 192.623 135.138 192.141C135.052 191.665 134.972 191.183 134.891 190.695C134.811 190.213 134.737 189.725 134.663 189.243C134.521 188.267 134.397 187.284 134.286 186.296C134.243 185.894 134.199 185.493 134.156 185.085C134.131 184.807 134.107 184.529 134.082 184.251C134.051 183.948 134.026 183.651 134.008 183.348C133.921 182.298 133.859 181.241 133.816 180.179C133.798 179.845 133.785 179.511 133.779 179.171C133.767 178.825 133.761 178.479 133.754 178.133C133.742 177.571 133.736 177.009 133.736 176.44C133.736 175.872 133.742 175.26 133.754 174.673C133.761 174.197 133.773 173.721 133.791 173.246C133.798 173.116 133.804 172.992 133.81 172.869C133.829 172.374 133.847 171.88 133.878 171.392C133.94 170.329 134.014 169.279 134.113 168.228C134.372 165.398 134.768 162.611 135.293 159.893C135.386 159.404 135.485 158.923 135.583 158.441C135.583 158.434 135.59 158.422 135.59 158.41C135.701 157.897 135.812 157.384 135.929 156.877C136.028 156.445 136.127 156.018 136.232 155.586C136.282 155.394 136.331 155.197 136.38 155.005C136.708 153.714 137.066 152.441 137.449 151.186C137.524 150.945 137.598 150.711 137.672 150.476C137.795 150.086 137.919 149.697 138.049 149.314C138.209 148.826 138.376 148.338 138.549 147.85C138.753 147.269 138.969 146.694 139.186 146.12C139.328 145.736 139.476 145.353 139.631 144.976C139.779 144.606 139.927 144.235 140.082 143.864C140.329 143.283 140.576 142.702 140.829 142.128C141.027 141.683 141.231 141.244 141.435 140.805C141.627 140.398 141.824 139.99 142.022 139.582C142.059 139.508 142.102 139.428 142.133 139.353C142.337 138.939 142.547 138.532 142.757 138.124C142.986 137.679 143.221 137.246 143.456 136.814C143.696 136.369 143.95 135.924 144.197 135.479C144.432 135.065 144.673 134.657 144.914 134.256C145.587 133.131 146.292 132.031 147.015 130.956C147.225 130.641 147.441 130.332 147.657 130.023C147.874 129.714 148.09 129.405 148.312 129.102L148.98 128.194C149.424 127.613 149.869 127.039 150.327 126.47C150.351 126.445 150.37 126.421 150.388 126.396C150.599 126.13 150.821 125.864 151.037 125.605C151.056 125.586 151.068 125.568 151.08 125.549C151.315 125.271 151.544 124.999 151.779 124.734C152.273 124.165 152.774 123.609 153.28 123.059C153.515 122.806 153.756 122.553 154.003 122.299C154.257 122.033 154.51 121.774 154.763 121.521C155.499 120.779 156.252 120.069 157.019 119.376C157.074 119.327 157.13 119.278 157.179 119.228C157.426 119.012 157.674 118.789 157.927 118.579C158.199 118.345 158.471 118.11 158.743 117.887C159.292 117.43 159.842 116.985 160.405 116.553C160.689 116.336 160.967 116.126 161.251 115.916C161.535 115.706 161.82 115.502 162.11 115.298C163.259 114.483 164.427 113.723 165.626 113.012C165.923 112.833 166.225 112.66 166.528 112.487C166.849 112.301 167.177 112.122 167.498 111.949C168.314 111.511 169.142 111.097 169.97 110.707C170.211 110.596 170.452 110.485 170.693 110.374C171.181 110.157 171.675 109.947 172.163 109.749C172.442 109.632 172.72 109.521 173.004 109.416C173.486 109.224 173.974 109.051 174.456 108.884C174.796 108.761 175.136 108.65 175.475 108.545C175.599 108.501 175.723 108.458 175.852 108.421C176.217 108.31 176.582 108.199 176.946 108.093C177.366 107.976 177.786 107.859 178.213 107.754C178.633 107.642 179.059 107.544 179.486 107.451C179.887 107.358 180.289 107.278 180.691 107.197C180.734 107.185 180.783 107.179 180.833 107.167C181.185 107.099 181.543 107.037 181.902 106.981C182.39 106.895 182.878 106.821 183.366 106.759C189.459 107.568 195.255 109.614 200.593 112.703C218.16 122.868 230.803 144.272 232.737 169.637C232.91 171.874 232.996 174.142 232.996 176.44Z" fill="#E8B08A"/>
<path d="M232.737 169.637C228.529 166.51 217.703 156.871 217.864 140.515C217.864 140.515 183.428 148.276 159.54 140.515C159.54 140.515 155.159 160.819 146.205 170.768C146.205 170.768 142.319 186.494 145.606 202.621C145.606 202.621 140.873 203.535 137.215 200.897C137.202 200.848 137.542 201.978 137.53 201.929C137.252 201.027 136.986 200.118 136.739 199.198C136.485 198.277 136.251 197.35 136.034 196.411C135.936 195.985 135.837 195.558 135.744 195.132C135.725 195.07 135.713 195.002 135.701 194.94C135.602 194.489 135.509 194.032 135.416 193.575C135.324 193.099 135.231 192.623 135.145 192.141C135.058 191.665 134.978 191.183 134.897 190.695C134.817 190.213 134.743 189.725 134.669 189.243C134.527 188.267 134.403 187.284 134.292 186.296C134.249 185.894 134.205 185.493 134.162 185.085C134.137 184.807 134.113 184.529 134.088 184.251C134.057 183.948 134.032 183.651 134.014 183.348C133.927 182.298 133.866 181.241 133.822 180.179C133.804 179.845 133.791 179.511 133.785 179.171C133.773 178.825 133.767 178.479 133.76 178.133C133.748 177.571 133.742 177.009 133.742 176.44C133.742 175.872 133.748 175.26 133.76 174.673C133.767 174.197 133.779 173.721 133.798 173.246C133.804 173.116 133.81 172.992 133.816 172.869C133.835 172.374 133.853 171.88 133.884 171.392C133.946 170.329 134.02 169.279 134.119 168.228C134.378 165.398 134.774 162.611 135.299 159.893C135.392 159.404 135.491 158.923 135.589 158.441C135.589 158.434 135.596 158.422 135.596 158.41C135.707 157.897 135.818 157.384 135.936 156.877C136.034 156.445 136.133 156.018 136.238 155.586C136.288 155.394 136.337 155.197 136.387 155.005C136.714 153.714 137.072 152.441 137.456 151.186C137.53 150.945 137.604 150.711 137.678 150.476C137.802 150.086 137.925 149.697 138.055 149.314C138.216 148.826 138.382 148.338 138.555 147.85C138.759 147.269 138.976 146.694 139.192 146.12C139.334 145.736 139.482 145.353 139.637 144.976C139.785 144.606 139.933 144.235 140.088 143.864C140.335 143.283 140.582 142.702 140.836 142.128C141.033 141.683 141.237 141.244 141.441 140.805C141.633 140.398 141.83 139.99 142.028 139.582C142.065 139.508 142.108 139.428 142.139 139.353C142.343 138.939 142.553 138.532 142.763 138.124C142.992 137.679 143.227 137.246 143.462 136.814C143.703 136.369 143.956 135.924 144.203 135.479C144.438 135.065 144.679 134.657 144.92 134.256C145.593 133.131 146.298 132.031 147.021 130.956C147.231 130.641 147.447 130.332 147.663 130.023C147.88 129.714 148.096 129.405 148.318 129.102L148.986 128.194C149.431 127.613 149.876 127.039 150.333 126.47C150.357 126.445 150.376 126.421 150.395 126.396C150.605 126.13 150.827 125.864 151.043 125.605C151.062 125.586 151.074 125.568 151.087 125.549C151.321 125.271 151.55 124.999 151.785 124.734C152.279 124.165 152.78 123.609 153.286 123.059C153.521 122.806 153.762 122.553 154.009 122.299C154.263 122.033 154.516 121.774 154.769 121.521C155.505 120.779 156.258 120.069 157.025 119.376C157.08 119.327 157.136 119.278 157.185 119.228C157.433 119.012 157.68 118.789 157.933 118.579C158.205 118.345 158.477 118.11 158.749 117.887C159.299 117.43 159.849 116.985 160.411 116.553C160.695 116.336 160.973 116.126 161.257 115.916C161.542 115.706 161.826 115.502 162.116 115.298C163.266 114.483 164.433 113.723 165.632 113.012C165.929 112.833 166.231 112.66 166.534 112.487C166.856 112.301 167.183 112.122 167.504 111.949C168.32 111.511 169.148 111.097 169.976 110.707C170.217 110.596 170.458 110.485 170.699 110.374C171.187 110.157 171.681 109.947 172.17 109.749C172.448 109.632 172.726 109.521 173.01 109.416C173.492 109.224 173.98 109.051 174.462 108.884C174.802 108.761 175.142 108.65 175.482 108.545C175.605 108.501 175.729 108.458 175.858 108.421C176.223 108.31 176.588 108.199 176.952 108.093C177.372 107.976 177.793 107.859 178.219 107.754C178.639 107.642 179.065 107.544 179.492 107.451C179.893 107.358 180.295 107.278 180.697 107.197C180.74 107.185 180.789 107.179 180.839 107.167C181.191 107.099 181.549 107.037 181.908 106.981C182.396 106.895 182.884 106.821 183.372 106.759C189.465 107.568 195.261 109.614 200.599 112.703C218.167 122.868 230.809 144.272 232.743 169.637H232.737Z" fill="#CA885E"/>
<path d="M244.706 176.341V176.44C244.706 177.046 244.7 177.645 244.681 178.244C244.669 178.844 244.644 179.443 244.613 180.036C244.335 185.406 243.439 190.615 242.055 195.595C242.024 195.694 241.999 195.799 241.969 195.892C240.498 201.088 238.484 206.032 236.068 210.654C235.845 211.074 235.623 211.488 235.394 211.902C234.912 212.792 234.418 213.663 233.905 214.522C233.837 214.633 233.769 214.744 233.701 214.849C233.102 215.857 232.471 216.845 231.822 217.815C225.718 227.034 218.012 234.536 210.054 239.547C210.029 239.566 210.004 239.584 209.979 239.596C202.948 244.021 195.718 246.499 189.218 246.505C187.339 246.505 185.467 246.363 183.607 246.084C177.966 245.269 172.429 243.224 167.214 240.159C167.214 240.159 167.165 240.134 167.146 240.116C157.278 234.301 148.566 224.841 142.516 213.076C142.448 212.94 142.38 212.81 142.312 212.674C139.934 207.991 137.981 202.942 136.541 197.622C135.034 192.073 134.094 186.228 133.816 180.179C133.798 179.814 133.785 179.443 133.779 179.072C133.742 178.195 133.73 177.318 133.73 176.434C133.73 176.329 133.73 176.224 133.736 176.119C133.73 175.94 133.73 175.76 133.736 175.581C133.736 175.377 133.748 175.173 133.748 174.97C133.748 174.871 133.748 174.772 133.748 174.673C133.754 174.197 133.767 173.721 133.785 173.246C133.792 172.869 133.81 172.498 133.835 172.127C133.841 171.88 133.853 171.633 133.872 171.392C133.903 170.854 133.94 170.317 133.977 169.785C134.002 169.445 134.033 169.099 134.063 168.76C134.076 168.58 134.088 168.401 134.107 168.228C134.138 167.876 134.175 167.524 134.212 167.172C134.224 167.048 134.236 166.918 134.249 166.788C134.311 166.208 134.379 165.633 134.453 165.064C134.502 164.712 134.545 164.366 134.595 164.02C134.601 163.996 134.607 163.965 134.607 163.94C134.657 163.619 134.7 163.297 134.749 162.976C134.799 162.63 134.854 162.284 134.916 161.944C134.959 161.697 135.003 161.45 135.046 161.209C135.12 160.764 135.2 160.331 135.287 159.893C135.38 159.404 135.478 158.922 135.577 158.441C135.571 158.428 135.577 158.416 135.583 158.41C135.775 157.464 135.991 156.525 136.22 155.598C136.269 155.4 136.319 155.203 136.374 155.005C136.535 154.356 136.708 153.72 136.887 153.083C137.066 152.447 137.252 151.81 137.443 151.186C137.456 151.155 137.462 151.118 137.474 151.087C137.623 150.612 137.771 150.142 137.925 149.672C137.962 149.555 137.999 149.431 138.043 149.314C138.055 149.277 138.067 149.24 138.08 149.203C138.222 148.77 138.37 148.338 138.525 147.905C138.531 147.887 138.537 147.868 138.543 147.85C138.58 147.745 138.617 147.646 138.654 147.547C138.895 146.873 139.143 146.206 139.402 145.545C139.476 145.353 139.544 145.162 139.625 144.976C139.773 144.606 139.921 144.235 140.076 143.864C140.323 143.283 140.57 142.702 140.823 142.128C141.021 141.683 141.225 141.244 141.429 140.805C141.62 140.398 141.818 139.99 142.016 139.582C142.047 139.508 142.084 139.434 142.127 139.353C142.331 138.939 142.541 138.532 142.751 138.124C142.856 137.901 142.974 137.685 143.097 137.463C143.215 137.246 143.332 137.03 143.449 136.814C143.69 136.369 143.944 135.924 144.191 135.479C144.426 135.065 144.667 134.657 144.908 134.256C144.988 134.126 145.068 134.002 145.149 133.873C145.365 133.52 145.581 133.168 145.797 132.822C145.927 132.612 146.063 132.408 146.199 132.198C146.459 131.79 146.724 131.382 146.996 130.987C147.002 130.981 147.009 130.968 147.015 130.962C147.225 130.647 147.441 130.338 147.657 130.029C147.713 129.949 147.775 129.862 147.83 129.782C148.01 129.535 148.183 129.282 148.362 129.034L148.98 128.2C149.054 128.101 149.134 128.002 149.214 127.904C149.523 127.496 149.845 127.094 150.16 126.692C150.215 126.624 150.271 126.55 150.327 126.482C150.351 126.458 150.37 126.433 150.389 126.408C150.444 126.34 150.5 126.272 150.555 126.204C150.864 125.827 151.173 125.45 151.488 125.086C151.507 125.061 151.525 125.036 151.55 125.018C151.624 124.925 151.705 124.839 151.785 124.746C151.81 124.715 151.834 124.69 151.859 124.666C152.304 124.153 152.761 123.646 153.219 123.152C153.243 123.127 153.262 123.102 153.287 123.078C153.348 123.01 153.416 122.942 153.484 122.874C153.898 122.435 154.312 122.003 154.732 121.582C154.745 121.57 154.757 121.558 154.769 121.545C154.819 121.496 154.868 121.453 154.912 121.403C155.548 120.773 156.197 120.155 156.852 119.556C156.907 119.506 156.963 119.451 157.025 119.395C157.08 119.346 157.136 119.296 157.186 119.247C157.204 119.228 157.229 119.21 157.247 119.191C158.217 118.326 159.218 117.498 160.238 116.707C160.294 116.664 160.355 116.614 160.411 116.565C160.479 116.516 160.541 116.466 160.609 116.417C161.023 116.102 161.443 115.793 161.863 115.49C161.95 115.428 162.03 115.366 162.116 115.311C162.129 115.298 162.141 115.292 162.153 115.286C162.623 114.952 163.099 114.625 163.581 114.31C163.772 114.186 163.964 114.056 164.155 113.939C164.613 113.648 165.076 113.358 165.54 113.08C165.57 113.061 165.601 113.043 165.632 113.024C165.904 112.858 166.182 112.697 166.46 112.542C166.707 112.4 166.961 112.264 167.208 112.128C167.307 112.073 167.406 112.017 167.505 111.962C167.708 111.85 167.919 111.745 168.129 111.64C168.475 111.461 168.827 111.282 169.179 111.109C169.445 110.979 169.71 110.843 169.976 110.72C170.217 110.608 170.458 110.497 170.699 110.386C171.694 109.929 172.707 109.521 173.733 109.15C174.141 108.996 174.555 108.847 174.969 108.718C175.142 108.662 175.315 108.606 175.482 108.557C175.605 108.514 175.729 108.47 175.859 108.433C175.995 108.39 176.137 108.353 176.273 108.31C176.742 108.168 177.218 108.032 177.694 107.908C177.867 107.859 178.04 107.809 178.219 107.766C178.429 107.71 178.639 107.655 178.855 107.605C179.51 107.445 180.165 107.309 180.827 107.179C180.827 107.179 180.833 107.179 180.839 107.179C180.845 107.179 180.851 107.179 180.864 107.179C182.167 106.926 183.49 106.734 184.824 106.604C186.277 106.456 187.747 106.382 189.23 106.382C189.44 106.382 189.644 106.382 189.854 106.394C189.99 106.388 190.126 106.388 190.262 106.4C190.478 106.407 190.701 106.413 190.917 106.419C191.43 106.431 191.943 106.462 192.449 106.505C192.585 106.505 192.721 106.518 192.857 106.536C193.327 106.567 193.79 106.61 194.254 106.672C194.81 106.728 195.36 106.802 195.904 106.888C196.163 106.926 196.416 106.969 196.676 107.012C196.96 107.055 197.251 107.105 197.535 107.167C197.763 107.21 197.992 107.253 198.221 107.303C198.289 107.303 198.35 107.321 198.418 107.346C198.9 107.445 199.376 107.55 199.852 107.667C199.901 107.679 199.957 107.692 200.006 107.704C200.526 107.834 201.038 107.97 201.551 108.118C201.792 108.186 202.027 108.26 202.268 108.328C202.824 108.495 203.368 108.674 203.912 108.866C204.171 108.952 204.424 109.045 204.684 109.138C204.944 109.23 205.203 109.329 205.463 109.428C205.654 109.502 205.846 109.583 206.031 109.657C206.643 109.898 207.255 110.157 207.854 110.429C208.07 110.528 208.286 110.627 208.496 110.726C209.491 111.183 210.468 111.683 211.432 112.221C211.45 112.227 211.462 112.233 211.481 112.246C211.957 112.511 212.433 112.79 212.902 113.068C213.613 113.482 214.311 113.92 215.003 114.384C217.574 116.089 220.027 118.042 222.338 120.223C223.499 121.304 224.624 122.447 225.705 123.652C226.039 124.017 226.366 124.388 226.688 124.758C226.78 124.863 226.873 124.968 226.96 125.074C227.25 125.413 227.54 125.766 227.831 126.118C228.171 126.532 228.51 126.958 228.838 127.385C228.857 127.397 228.863 127.409 228.869 127.422C229.135 127.768 229.4 128.107 229.66 128.46C229.802 128.651 229.944 128.843 230.08 129.034C230.327 129.374 230.574 129.714 230.815 130.066C231.124 130.499 231.421 130.944 231.724 131.389C231.742 131.419 231.761 131.444 231.779 131.469C232.076 131.926 232.372 132.383 232.669 132.853C232.879 133.187 233.089 133.526 233.293 133.866C233.769 134.639 234.226 135.424 234.665 136.221C234.826 136.511 234.986 136.801 235.141 137.092C235.24 137.271 235.332 137.444 235.419 137.617C235.518 137.79 235.61 137.969 235.691 138.142C235.759 138.254 235.814 138.365 235.864 138.476C235.956 138.649 236.043 138.822 236.123 138.989C236.309 139.341 236.482 139.699 236.655 140.058C237.155 141.09 237.631 142.134 238.082 143.197C238.323 143.747 238.551 144.309 238.774 144.871C238.799 144.927 238.823 144.983 238.842 145.038C239.021 145.483 239.194 145.934 239.367 146.385C239.472 146.663 239.571 146.941 239.676 147.219C239.756 147.454 239.843 147.689 239.923 147.924C240.059 148.294 240.189 148.671 240.313 149.055C240.356 149.172 240.393 149.289 240.43 149.407C240.566 149.802 240.696 150.204 240.819 150.612C241.338 152.249 241.808 153.917 242.222 155.617C242.339 156.099 242.457 156.581 242.562 157.063C242.593 157.168 242.611 157.273 242.636 157.378C242.729 157.779 242.815 158.187 242.895 158.595C242.939 158.787 242.982 158.984 243.019 159.182C243.093 159.547 243.161 159.911 243.229 160.276C243.322 160.77 243.414 161.264 243.495 161.765C243.587 162.315 243.68 162.871 243.76 163.427C243.878 164.199 243.983 164.978 244.076 165.757C244.15 166.344 244.212 166.937 244.273 167.53C244.273 167.61 244.292 167.691 244.298 167.777C244.323 168.018 244.341 168.253 244.36 168.494C244.378 168.63 244.391 168.766 244.397 168.902C244.428 169.223 244.452 169.544 244.477 169.872C244.502 170.193 244.52 170.514 244.539 170.836C244.558 171.046 244.57 171.262 244.576 171.472C244.607 171.929 244.626 172.387 244.644 172.85C244.669 173.375 244.681 173.913 244.694 174.444C244.712 175.081 244.718 175.717 244.718 176.36L244.706 176.341Z" stroke="black" stroke-width="2.47163" stroke-miterlimit="10"/>
<path d="M185.238 182.31C185.238 182.31 182.897 190.571 174.938 198.035C170.328 202.361 180.011 208.385 186.826 207.99L181.803 204.808L179.072 202.219L180.209 199.086L184.713 187.994L185.238 182.316V182.31Z" fill="#CA885E"/>
<path d="M186.567 183.096C186.567 183.096 182.897 195.176 179.986 199.921C177.935 203.264 184.627 206.718 187 207.256" stroke="black" stroke-width="2.47163" stroke-miterlimit="10" stroke-linecap="round"/>
<path d="M198.431 219.286C198.431 219.286 184.077 229.55 171.249 213.806" stroke="black" stroke-width="2.47163" stroke-miterlimit="10" stroke-linecap="round"/>
<path d="M208.355 183.732C210.699 183.732 212.6 181.701 212.6 179.197C212.6 176.692 210.699 174.661 208.355 174.661C206.01 174.661 204.11 176.692 204.11 179.197C204.11 181.701 206.01 183.732 208.355 183.732Z" fill="black"/>
<path d="M166.874 183.589C169.41 183.589 171.466 181.622 171.466 179.196C171.466 176.77 169.41 174.803 166.874 174.803C164.339 174.803 162.283 176.77 162.283 179.196C162.283 181.622 164.339 183.589 166.874 183.589Z" fill="black"/>
<path d="M172.405 164.441C172.405 164.441 166.856 161.494 160.689 163.928C154.522 166.363 152.397 169.44 153.175 171.263C153.991 173.166 158.693 170.324 164.168 171.028C169.643 171.732 173.727 172.61 174.907 169.199C175.921 166.27 172.411 164.441 172.411 164.441H172.405Z" fill="#562B21"/>
<path d="M172.405 164.441C172.405 164.441 166.856 161.494 160.689 163.928C154.522 166.363 152.397 169.44 153.175 171.263C153.991 173.166 158.693 170.324 164.168 171.028C169.643 171.732 173.727 172.61 174.907 169.199C175.921 166.27 172.411 164.441 172.411 164.441H172.405Z" stroke="black" stroke-width="2.47163" stroke-miterlimit="10"/>
<path d="M204.208 164.317C204.208 164.317 209.213 161.339 215.139 163.829C221.065 166.325 223.252 169.458 222.634 171.312C221.991 173.246 217.413 170.335 212.334 171.04C207.261 171.738 203.491 172.622 202.169 169.149C201.038 166.171 204.202 164.317 204.202 164.317H204.208Z" fill="#562B21"/>
<path d="M204.208 164.317C204.208 164.317 209.213 161.339 215.139 163.829C221.065 166.325 223.252 169.458 222.634 171.312C221.991 173.246 217.413 170.335 212.334 171.04C207.261 171.738 203.491 172.622 202.169 169.149C201.038 166.171 204.202 164.317 204.202 164.317H204.208Z" stroke="black" stroke-width="2.47163" stroke-miterlimit="10"/>
<path d="M254.747 149.97C252.294 166.536 249.754 187.619 239.757 195.559C239.757 195.559 239.157 180.074 239.676 166.449C239.701 165.794 239.726 165.146 239.757 164.503C239.757 164.503 223.636 160.962 224.235 129.906C224.235 129.906 184.423 144.915 153.967 131.365C153.967 131.365 153.608 138.742 151.192 147.306C149.196 154.369 145.792 162.235 140.033 167.419C140.033 167.419 139.236 190.807 140.033 197.036C140.719 202.393 133.087 194.366 129.318 175.458C128.7 172.375 128.194 168.995 127.835 165.337C122.713 144.297 120.921 114.279 138.043 98.8564C142.134 95.1674 145.878 91.4786 149.548 87.9812C149.548 87.9812 149.555 87.9812 149.561 87.9812C161.233 76.8527 172.207 67.6706 191.585 66.5584C191.585 66.5584 184.3 76.3522 183.367 80.5169C183.367 80.5169 197.158 68.2205 224.031 67.8065C224.031 67.8065 216.869 78.0205 214.88 85.1079C214.88 85.1079 215.078 84.9659 215.448 84.7002C217.209 83.4211 222.826 79.2316 228.758 73.6272C233.565 69.0918 238.589 63.6171 241.95 58.0127C241.95 58.0127 247.864 70.9332 244.706 90.7309C244.706 90.7309 248.611 85.3118 250.953 73.8497C250.953 73.8497 255.884 79.8928 252.9 110.325C252.9 110.325 257.2 133.404 254.747 149.976V149.97Z" fill="#6D2525"/>
<path d="M240.313 162.111C240.103 163.526 239.893 164.978 239.676 166.449C239.701 165.794 239.726 165.145 239.757 164.503C239.757 164.503 223.636 160.962 224.235 129.906C224.235 129.906 184.423 144.915 153.967 131.364C153.967 131.364 153.608 138.742 151.192 147.306C149.196 154.369 145.792 162.235 140.033 167.419C140.033 167.419 139.236 190.807 140.033 197.035C140.719 202.393 133.087 194.366 129.318 175.458C128.7 172.375 128.194 168.995 127.835 165.337C122.713 144.297 120.921 114.279 138.043 98.8561C142.134 95.1672 145.878 91.4783 149.548 87.9809C149.548 87.9809 149.555 87.9809 149.561 87.9809C157.062 82.8832 165.62 79.3611 177.157 78.6999C177.157 78.6999 169.871 88.4938 168.938 92.6585C168.938 92.6585 182.73 80.3621 209.603 79.9481C209.603 79.9481 202.441 90.1621 200.445 97.2495C200.445 97.2495 207.867 92.0468 215.448 84.6999C217.209 83.4208 222.826 79.2314 228.758 73.627C230.297 78.7247 232.465 89.1488 230.278 102.872C230.278 102.872 234.183 97.4535 236.525 85.9913C236.525 85.9913 241.456 92.0344 238.465 122.466C238.465 122.466 242.766 145.545 240.313 162.117V162.111Z" fill="#7F3A3D"/>
<path d="M239.608 195.559C239.608 195.559 238.947 178.554 239.608 164.503C239.608 164.503 223.487 160.962 224.08 129.906C224.08 129.906 184.269 144.909 153.812 131.364C153.812 131.364 152.619 155.957 139.878 167.419C139.878 167.419 139.081 190.807 139.878 197.035C140.675 203.264 130.214 191.388 127.681 165.337C122.558 144.297 120.766 114.273 137.888 98.8499C155.005 83.427 165.954 68.004 191.436 66.5457C191.436 66.5457 184.151 76.3395 183.212 80.5104C183.212 80.5104 197.01 68.2141 223.883 67.8001C223.883 67.8001 216.715 78.0141 214.725 85.0953C214.725 85.0953 233.435 71.9647 241.796 58C241.796 58 247.709 70.9205 244.552 90.7182C244.552 90.7182 248.457 85.2991 250.799 73.837C250.799 73.837 255.73 79.8801 252.745 110.312C252.745 110.312 257.046 133.397 254.593 149.963C252.14 166.529 249.6 187.612 239.608 195.552V195.559Z" stroke="black" stroke-width="2.47163" stroke-miterlimit="10"/>
</g>
<rect x="1" y="1" width="370" height="368" rx="11" stroke="black" stroke-width="2"/>
<defs>
<clipPath id="clip0_476_1470">
<rect width="372" height="370" rx="12" fill="white"/>
</clipPath>
</defs>
</svg>
