<svg width="370" height="372" viewBox="0 0 370 372" fill="none" xmlns="http://www.w3.org/2000/svg">
<g clip-path="url(#clip0_476_1285)">
<rect x="-22" y="-20" width="414" height="414" fill="#6551EB"/>
<path d="M-5.10829 273.619H28.1518L26.5997 213.308H28.817L43.6732 273.619H75.8246V271.402L54.7599 184.926V182.708L74.7159 98.4494V96.232H43.6732L28.817 155.435H26.5997L28.1518 96.232H-5.10829V273.619ZM82.6031 96.232V273.619H142.471V244.794H115.863V198.23H139.145V169.404H115.863V125.057H142.471V96.232H82.6031ZM151.974 96.232V273.619H212.951V244.794H185.234V96.232H151.974ZM224.086 273.619H270.65L288.389 98.4494V96.232H255.128L248.476 190.469H246.259L239.607 96.232H206.347V98.4494L224.086 273.619ZM296.432 96.232V273.619H329.692V96.232H296.432ZM341.03 96.232V273.619H372.073L368.747 184.926H370.965L389.812 273.619H418.637V96.232H387.595L390.921 184.926H388.703L369.856 96.232H341.03Z" fill="#4D3BBD"/>
<g clip-path="url(#clip1_476_1285)">
<path d="M303.278 371.678H64.7773C77.7062 327.937 101.247 296.132 130.156 278.052C126.303 274.515 124.147 270.553 124.147 266.375C124.147 253.322 145.153 243.646 173.137 241.386C177.238 241.05 181.489 240.879 185.853 240.879C223.342 240.879 247.55 247.923 247.55 266.375C247.55 269.141 246.609 271.805 244.85 274.323C273.206 290.598 294.301 322.01 303.289 371.678H303.278Z" fill="#3A46DB"/>
<path d="M274.447 371.678H64.7773C77.7062 327.937 101.247 296.132 130.156 278.052C126.303 274.515 124.147 270.553 124.147 266.375C124.147 253.322 145.153 243.646 173.137 241.386C174.859 241.5 176.534 241.639 178.179 241.794C203.359 244.225 216.484 250.508 216.484 265.196C216.484 267.962 217.772 271.805 216.014 274.318C244.369 290.593 265.464 322.005 274.452 371.672L274.447 371.678Z" fill="#7B85FF"/>
<path d="M274.446 371.678H74.0898C87.0187 327.937 110.56 296.132 139.468 278.053C135.616 274.515 133.459 270.554 133.459 266.375C133.459 253.995 152.356 244.655 178.172 241.795C203.353 244.226 216.478 250.509 216.478 265.196C216.478 267.963 217.181 272.023 216.007 274.319C241.405 276.32 265.458 322.006 274.446 371.673V371.678Z" fill="#5F64FF"/>
<path d="M197.034 301.169C197.034 301.169 228.565 314.729 251.879 301.329L236.436 281.507C236.436 281.507 228.007 293.851 201.063 299.607L197.029 301.169H197.034Z" fill="#3A46DB"/>
<path d="M304.882 373.012H62.9883L63.4951 371.295C75.9016 329.322 98.191 297.042 128.01 277.824C124.555 274.235 122.808 270.388 122.808 266.364C122.808 258.643 129.52 251.682 141.715 246.764C153.278 242.104 168.948 239.534 185.843 239.534C205.594 239.534 220.865 241.525 231.229 245.45C242.942 249.888 248.879 256.921 248.879 266.364C248.879 268.919 248.155 271.437 246.723 273.863C276.614 291.586 296.085 324.404 304.598 371.434L304.882 373.006V373.012ZM66.5722 370.338H301.681C293.049 324.332 273.713 292.424 244.184 275.476L242.917 274.752L243.749 273.558C245.378 271.22 246.206 268.8 246.206 266.374C246.206 250.348 225.897 242.218 185.843 242.218C151.996 242.218 125.476 252.83 125.476 266.374C125.476 270.072 127.353 273.672 131.051 277.074L132.344 278.259L130.86 279.19C101.294 297.683 79.0873 329.183 66.5722 370.348V370.338Z" fill="black"/>
<path d="M180.419 301.371C180.362 301.371 180.305 301.371 180.249 301.36C180.016 301.329 179.737 301.298 179.421 301.262C159.619 298.94 142.672 291.4 129.061 278.864C128.518 278.363 128.481 277.52 128.983 276.977C129.485 276.434 130.328 276.397 130.871 276.899C144.058 289.047 160.498 296.354 179.731 298.609C180.057 298.645 180.342 298.682 180.579 298.713C181.309 298.806 181.831 299.473 181.738 300.207C181.655 300.885 181.076 301.376 180.414 301.376L180.419 301.371Z" fill="black"/>
<path d="M197.035 301.37C196.296 301.37 195.701 300.77 195.701 300.035C195.701 299.301 196.296 298.701 197.035 298.701C197.253 298.701 218.952 298.339 243.9 273.376C244.422 272.854 245.265 272.854 245.788 273.376C246.31 273.898 246.31 274.741 245.788 275.264C219.992 301.075 197.961 301.375 197.035 301.375V301.37Z" fill="black"/>
<path d="M201.069 352.357C200.423 352.357 199.849 351.881 199.75 351.219L192.976 306.475C192.867 305.746 193.369 305.063 194.098 304.954C194.822 304.841 195.51 305.347 195.618 306.077L202.393 350.821C202.502 351.55 202 352.233 201.271 352.341C201.204 352.352 201.136 352.357 201.069 352.357Z" fill="black"/>
<path d="M172.678 352.356C172.595 352.356 172.512 352.351 172.429 352.336C171.705 352.201 171.224 351.503 171.364 350.779L179.752 306.035C179.887 305.311 180.59 304.83 181.309 304.969C182.033 305.104 182.514 305.802 182.374 306.526L173.986 351.27C173.867 351.912 173.303 352.361 172.672 352.361L172.678 352.356Z" fill="black"/>
<path d="M217.182 272.022C216.401 272.508 215.605 273.025 214.783 273.578C199.94 283.58 173.483 278.74 163.957 270.026C163.269 269.4 162.555 268.826 161.826 268.314L162.276 263.018L163.238 251.532L166.217 215.973H211.39L212.833 229.941L216.495 265.371L217.182 272.017V272.022Z" fill="#FFD4A0"/>
<path d="M212.833 242.701C205.521 260.025 178.282 263.64 163.238 264.292L166.217 228.732H211.39L212.833 242.701Z" fill="#ECA26F"/>
<path d="M215.854 272.162L210.191 217.312H167.449L163.161 268.428L160.498 268.205L164.992 214.639H212.601L218.512 271.888L215.854 272.162Z" fill="black"/>
<path d="M193.648 280.504C191.564 280.504 189.422 280.385 187.235 280.147C177.306 279.066 168.043 275.565 163.063 271.009C162.417 270.419 161.744 269.881 161.072 269.411C152.244 263.174 140.334 265.191 140.21 265.211C139.481 265.346 138.793 264.854 138.664 264.13C138.535 263.406 139.015 262.713 139.745 262.584C140.277 262.491 152.86 260.34 162.608 267.228C163.368 267.761 164.134 268.371 164.868 269.043C173.96 277.364 199.605 282.21 214.049 272.477C214.846 271.939 215.642 271.422 216.485 270.895C230.091 262.429 237.776 263.66 238.097 263.717C238.821 263.846 239.307 264.539 239.178 265.263C239.049 265.987 238.366 266.473 237.642 266.349C237.533 266.334 230.474 265.335 217.897 273.165C217.085 273.672 216.315 274.174 215.544 274.696C209.881 278.513 202.263 280.514 193.658 280.514L193.648 280.504Z" fill="black"/>
<path d="M265.023 200.045C271.009 188.681 269.983 176.372 262.731 172.552C255.478 168.731 244.746 174.846 238.76 186.21C232.773 197.574 233.8 209.883 241.052 213.704C248.304 217.524 259.037 211.409 265.023 200.045Z" fill="#ECA26F"/>
<path d="M245.801 216.167C243.882 216.167 242.067 215.738 240.423 214.869C232.531 210.711 231.254 197.57 237.573 185.572C240.583 179.853 244.86 175.214 249.602 172.509C254.541 169.696 259.418 169.282 263.343 171.351C267.268 173.419 269.688 177.675 270.164 183.338C270.619 188.779 269.207 194.928 266.198 200.647C263.188 206.367 258.916 211.006 254.169 213.711C251.304 215.345 248.459 216.167 245.806 216.167H245.801ZM257.959 172.726C255.767 172.726 253.372 173.43 250.921 174.826C246.613 177.282 242.708 181.539 239.931 186.814C234.3 197.508 235.075 209.031 241.664 212.501C244.751 214.13 248.723 213.731 252.84 211.384C257.147 208.927 261.052 204.671 263.829 199.396C266.606 194.121 267.909 188.494 267.496 183.556C267.103 178.834 265.184 175.338 262.097 173.709C260.845 173.052 259.449 172.721 257.959 172.721V172.726Z" fill="black"/>
<path d="M248.668 207.111C248.109 207.111 247.587 206.76 247.401 206.201C247.168 205.503 247.546 204.743 248.244 204.51C250.633 203.709 252.598 202.323 252.495 193.371C252.386 184.331 253.312 179.558 258.649 178.57C259.89 178.337 262.222 178.435 263.929 181.673C264.767 183.26 265.082 184.92 265.093 184.993C265.227 185.717 264.746 186.415 264.022 186.549C263.293 186.684 262.6 186.208 262.465 185.484C262.455 185.438 261.493 180.762 259.135 181.197C256.296 181.724 255.049 183.602 255.163 193.345C255.261 201.821 253.617 205.534 249.087 207.049C248.947 207.096 248.802 207.117 248.663 207.117L248.668 207.111Z" fill="black"/>
<path d="M138.357 213.671C145.61 209.85 146.636 197.541 140.65 186.177C134.663 174.813 123.931 168.698 116.679 172.519C109.426 176.339 108.4 188.648 114.386 200.012C120.373 211.376 131.105 217.491 138.357 213.671Z" fill="#ECA26F"/>
<path d="M133.59 216.167C130.937 216.167 128.093 215.345 125.228 213.711C120.48 211.006 116.209 206.367 113.199 200.647C110.189 194.928 108.777 188.784 109.232 183.338C109.703 177.675 112.128 173.419 116.053 171.351C119.979 169.282 124.861 169.696 129.794 172.509C134.542 175.214 138.813 179.853 141.823 185.572C144.833 191.292 146.245 197.436 145.79 202.882C145.319 208.544 142.894 212.801 138.968 214.869C137.319 215.738 135.504 216.167 133.59 216.167ZM121.432 172.726C119.942 172.726 118.546 173.052 117.295 173.714C114.207 175.343 112.289 178.839 111.895 183.561C111.482 188.505 112.785 194.131 115.562 199.401C118.339 204.676 122.244 208.932 126.552 211.389C130.668 213.737 134.635 214.13 137.727 212.506C140.815 210.877 142.733 207.381 143.126 202.659C143.54 197.715 142.237 192.089 139.46 186.819C136.683 181.544 132.778 177.288 128.47 174.831C126.019 173.435 123.625 172.731 121.432 172.731V172.726Z" fill="black"/>
<path d="M130.725 207.112C130.585 207.112 130.44 207.091 130.301 207.045C125.771 205.529 124.126 201.816 124.224 193.34C124.338 183.602 123.092 181.72 120.253 181.192C117.879 180.758 116.932 185.433 116.922 185.479C116.788 186.203 116.089 186.684 115.365 186.545C114.641 186.41 114.166 185.712 114.3 184.988C114.316 184.916 114.626 183.255 115.464 181.668C117.17 178.43 119.503 178.332 120.744 178.565C126.081 179.558 127.007 184.326 126.898 193.366C126.795 202.318 128.76 203.709 131.149 204.505C131.847 204.738 132.225 205.498 131.992 206.196C131.806 206.755 131.283 207.107 130.725 207.107V207.112Z" fill="black"/>
<path d="M249.469 174.257C249.469 216.079 222.624 249.984 189.5 249.984C187.364 249.984 185.254 249.844 183.175 249.565C153.03 245.578 129.541 213.385 129.541 174.257C129.541 135.129 153.036 102.936 183.175 98.9492C185.254 98.6699 187.364 98.5303 189.5 98.5303C222.624 98.5303 249.469 132.435 249.469 174.257Z" fill="#ECA26F"/>
<path d="M236.815 174.257C236.815 178.85 236.489 183.354 235.868 187.719C235.868 187.739 235.863 187.76 235.863 187.781C231.183 220.589 209.767 246.043 183.18 249.565C155.823 245.945 133.942 219.094 130.136 184.911C129.743 181.43 129.541 177.872 129.541 174.257C129.541 143.466 144.094 116.977 164.982 105.14C170.639 101.928 176.757 99.7974 183.18 98.9492C189.764 99.8232 196.027 102.037 201.798 105.372C222.458 117.324 236.815 143.668 236.815 174.252V174.257Z" fill="#FFD4A0"/>
<path d="M235.867 187.718C238.235 165.527 211.229 146.341 197.411 142.095C197.411 142.095 195.156 147.096 197.411 152.852C197.411 152.852 175.887 150.68 172.779 137.352C172.779 137.352 140.172 157.392 140.245 189.476C140.245 189.476 133.47 189.476 130.14 184.905C129.747 181.424 129.545 177.866 129.545 174.251C129.545 143.46 144.098 116.971 164.985 105.134C172.893 105.206 188.707 105.341 201.802 105.366C222.462 117.318 236.818 143.662 236.818 174.246C236.818 178.839 236.492 183.343 235.872 187.708L235.867 187.718Z" fill="#ECA26F"/>
<path d="M189.503 251.313C155.701 251.313 128.199 216.741 128.199 174.252C128.199 131.762 155.701 97.1904 189.503 97.1904C223.304 97.1904 250.806 131.762 250.806 174.252C250.806 216.741 223.304 251.313 189.503 251.313ZM189.503 99.8589C157.175 99.8589 130.873 133.231 130.873 174.252C130.873 215.272 157.175 248.644 189.503 248.644C221.83 248.644 248.132 215.272 248.132 174.252C248.132 133.231 221.83 99.8589 189.503 99.8589Z" fill="black"/>
<path d="M185.207 180.602C185.207 180.602 182.679 189.528 174.073 197.596C169.088 202.265 179.56 208.782 186.924 208.352L181.494 204.908L178.546 202.11L179.772 198.723L184.639 186.735L185.202 180.597L185.207 180.602Z" fill="#ECA26F"/>
<path d="M186.924 208.627C186.825 208.627 186.727 208.616 186.624 208.596C184.643 208.146 179.327 205.731 177.941 202.431C177.398 201.138 177.491 199.84 178.204 198.672C181.225 193.748 185.139 180.923 185.176 180.794C185.388 180.085 186.132 179.687 186.841 179.904C187.544 180.116 187.942 180.866 187.73 181.569C187.565 182.107 183.681 194.85 180.48 200.068C180.216 200.502 180.19 200.9 180.402 201.397C181.271 203.455 185.367 205.576 187.218 205.994C187.937 206.16 188.387 206.874 188.227 207.592C188.087 208.213 187.534 208.632 186.924 208.632V208.627Z" fill="black"/>
<path d="M187.328 223.133C185.306 223.133 183.481 222.911 181.908 222.59C176.059 221.406 172.408 218.737 172.253 218.624C171.658 218.184 171.534 217.346 171.974 216.757C172.413 216.162 173.251 216.038 173.841 216.477C174.41 216.896 187.328 226.107 203.303 215.164C203.908 214.75 204.741 214.9 205.16 215.51C205.579 216.121 205.418 216.948 204.813 217.367C198.318 221.82 192.236 223.128 187.328 223.128V223.133Z" fill="black"/>
<path d="M211.446 183.57C213.982 183.57 216.038 181.123 216.038 178.104C216.038 175.085 213.982 172.638 211.446 172.638C208.91 172.638 206.854 175.085 206.854 178.104C206.854 181.123 208.91 183.57 211.446 183.57Z" fill="black"/>
<path d="M163.62 182.696C166.156 182.696 168.212 180.249 168.212 177.23C168.212 174.211 166.156 171.764 163.62 171.764C161.084 171.764 159.027 174.211 159.027 177.23C159.027 180.249 161.084 182.696 163.62 182.696Z" fill="black"/>
<path d="M207.906 158.06C207.906 158.06 214.024 157.186 219.01 160.945C223.995 164.705 224.998 167.855 223.69 169.142C222.324 170.487 218.839 166.805 213.502 165.843C208.17 164.881 204.074 164.457 204.059 161.297C204.048 158.587 207.906 158.06 207.906 158.06Z" fill="black"/>
<path d="M167.443 157.661C167.443 157.661 161.325 156.787 156.339 160.547C151.354 164.307 150.351 167.456 151.659 168.744C152.968 170.032 156.51 166.406 161.847 165.444C167.179 164.483 171.275 164.058 171.29 160.899C171.301 158.189 167.443 157.661 167.443 157.661Z" fill="black"/>
<path d="M163.239 134.566C163.239 134.566 132.448 150.421 130.726 179.817C130.726 179.817 107.356 173.176 107.17 145.105C107.045 126.389 120.398 110.901 120.398 110.901C120.398 110.901 105.556 105.739 107.17 84.4378C107.17 84.4378 117.497 88.3113 125.885 88.9577C125.885 88.9577 114.27 81.2107 114.27 68.949C114.27 68.949 146.463 74.7567 178.93 65.4013C211.397 56.0409 240.119 85.7307 240.119 85.7307C240.119 85.7307 236.572 76.0495 238.506 65.0807C238.506 65.0807 244.614 76.696 251.885 83.7965C259.156 90.897 258.509 100.899 254.315 106.386C254.315 106.386 264.643 102.838 271.738 118.648C278.839 134.457 282.386 139.623 284.967 141.883C284.967 141.883 277.546 142.204 271.738 138.336C271.738 138.336 275.948 158.991 248.518 187.781C248.518 187.781 248.291 166.412 225.375 150.277C202.465 134.141 194.719 130.268 186.33 121.233C186.33 121.233 179.556 137.369 186.92 147.696C186.92 147.696 177.435 151.678 163.239 134.576V134.566Z" fill="#382329"/>
<path d="M247.218 191.075L247.182 187.791C247.182 187.739 247.079 182.516 244.25 175.446C241.643 168.935 236.125 159.471 224.608 151.362C217.89 146.63 212.393 142.897 207.971 139.897C197.851 133.024 192.348 129.29 186.861 123.715C185.403 128.199 182.626 139.364 188.009 146.915L188.982 148.275L187.44 148.921C187.022 149.097 177.201 152.95 162.927 136.267C157.849 139.189 133.548 154.46 132.058 179.894L131.96 181.554L130.357 181.099C130.109 181.026 124.151 179.294 118.131 173.988C112.572 169.09 105.932 160.107 105.834 145.11C105.73 129.109 115.018 115.632 118.287 111.392C116.771 110.585 114.434 109.075 112.179 106.541C108.807 102.74 104.965 95.8045 105.834 84.334L105.968 82.5602L107.633 83.1859C107.716 83.2169 114.542 85.7562 121.462 87.018C117.863 83.5479 112.929 77.2748 112.929 68.9487V67.3507L114.501 67.6351C114.822 67.692 146.777 73.2772 178.556 64.1184C192.183 60.1932 207.325 62.5308 222.343 70.888C229.118 74.658 234.398 78.8004 237.604 81.5827C236.767 77.611 236.012 71.4827 237.186 64.8476L237.863 61L239.683 64.4546C239.745 64.5684 245.781 75.9716 252.814 82.8342C257.37 87.2818 258.544 92.2413 258.73 95.6183C258.906 98.8402 258.249 102.036 256.899 104.741C260.835 104.772 267.817 106.649 272.957 118.094C280.492 134.875 283.807 139.08 285.85 140.869L288.358 143.062L285.027 143.207C284.743 143.217 278.863 143.434 273.309 140.75C273.531 147.349 271.7 165.372 249.483 188.685L247.218 191.064V191.075ZM185.905 118.802L187.311 120.318C193.134 126.591 198.595 130.299 209.471 137.684C213.898 140.688 219.411 144.432 226.144 149.175C244.436 162.057 248.615 178.047 249.571 184.683C261.973 171.056 267.02 159.533 269.068 152.117C271.39 143.698 270.439 138.64 270.428 138.589L269.808 135.439L272.481 137.218C275.584 139.287 279.24 140.078 281.78 140.373C279.442 137.342 276.081 131.576 270.521 119.19C263.995 104.658 254.841 107.611 254.748 107.642L250.569 109.08L253.253 105.568C257.251 100.34 257.484 91.1242 250.947 84.7477C246.06 79.9796 241.752 73.329 239.342 69.2745C238.778 78.0351 241.338 85.1873 241.364 85.27L243.515 91.1604L239.151 86.656C238.866 86.3664 210.593 57.6592 179.29 66.6835C151.043 74.8235 122.682 71.5344 115.665 70.5208C116.59 81.0139 126.515 87.7731 126.618 87.8455L130.843 90.6795L125.77 90.2916C119.238 89.79 111.708 87.4317 108.393 86.2992C107.763 104.787 120.283 109.447 120.831 109.644L122.667 110.295L121.4 111.774C121.271 111.924 108.378 127.123 108.492 145.1C108.564 156.348 112.401 165.393 119.885 171.992C123.681 175.332 127.466 177.153 129.514 177.975C132.353 149.283 162.302 133.541 162.612 133.381L163.563 132.89L164.246 133.717C171.228 142.126 176.922 145.136 180.464 146.18C182.274 146.713 183.712 146.796 184.72 146.739C178.783 136.008 184.803 121.367 185.077 120.716L185.879 118.807L185.905 118.802Z" fill="black"/>
<path d="M164.568 137.462C164.212 137.462 163.86 137.322 163.596 137.043C154.298 127.176 153.336 113.311 153.3 112.726C153.253 111.992 153.812 111.356 154.551 111.309C155.28 111.263 155.922 111.821 155.968 112.556C155.978 112.69 156.92 126.059 165.541 135.207C166.047 135.745 166.022 136.588 165.484 137.095C165.225 137.338 164.894 137.457 164.568 137.457V137.462Z" fill="black"/>
<path d="M130.726 181.156C130.235 181.156 129.759 180.881 129.526 180.411C118.774 158.551 128.016 143.719 128.419 143.098C128.818 142.478 129.645 142.297 130.266 142.695C130.886 143.093 131.067 143.92 130.669 144.536C130.566 144.696 121.883 158.799 131.926 179.227C132.251 179.888 131.977 180.69 131.315 181.016C131.124 181.109 130.928 181.156 130.726 181.156Z" fill="black"/>
<path d="M248.517 189.109C248.268 189.109 248.015 189.042 247.787 188.892C247.167 188.489 246.996 187.661 247.394 187.046C260.122 167.477 253.238 148.999 253.171 148.812C252.907 148.125 253.249 147.349 253.936 147.085C254.624 146.821 255.395 147.163 255.664 147.851C255.974 148.657 263.095 167.802 249.634 188.499C249.375 188.892 248.951 189.104 248.511 189.104L248.517 189.109Z" fill="black"/>
<path d="M132.267 90.8452C130.322 90.8452 128.125 90.6849 125.668 90.2815C124.939 90.1626 124.448 89.4748 124.567 88.7456C124.686 88.0164 125.373 87.5251 126.103 87.644C137.102 89.4541 142.341 86.015 142.393 85.9788C143.003 85.5651 143.831 85.7202 144.244 86.3253C144.658 86.9304 144.513 87.7526 143.908 88.1767C143.717 88.3112 139.962 90.8452 132.267 90.8452Z" fill="black"/>
<g opacity="0.21">
<path d="M240.89 152.795H202.615C199.979 152.795 197.842 154.932 197.842 157.568V189.001C197.842 191.637 199.979 193.774 202.615 193.774H240.89C243.526 193.774 245.663 191.637 245.663 189.001V157.568C245.663 154.932 243.526 152.795 240.89 152.795Z" fill="#5D80C6"/>
</g>
<g opacity="0.21">
<path d="M178.546 158.955V187.61C178.546 191.018 175.789 193.775 172.381 193.775H136.889C133.481 193.775 130.724 191.018 130.724 187.61V158.955C130.724 155.557 133.481 152.79 136.889 152.79H172.381C174.057 152.79 175.572 153.452 176.684 154.548C177.832 155.665 178.546 157.227 178.546 158.955Z" fill="#5D80C6"/>
</g>
<g opacity="0.5">
<path d="M165.824 152.795L140.416 193.779H136.889C133.481 193.779 130.724 191.023 130.724 187.615V173.998L142.024 152.795H165.824Z" fill="white"/>
</g>
<g opacity="0.5">
<path d="M178.547 158.954V169.99L164.501 193.769H154.143L176.68 154.543C177.828 155.66 178.542 157.222 178.542 158.949L178.547 158.954Z" fill="white"/>
</g>
<g opacity="0.5">
<path d="M210.561 193.775L235.968 152.79H239.495C242.903 152.79 245.66 155.546 245.66 158.955V172.571L234.36 193.775H210.561Z" fill="white"/>
</g>
<g opacity="0.5">
<path d="M197.842 187.61V176.574L211.888 152.795H222.246L199.709 192.021C198.561 190.904 197.847 189.342 197.847 187.615L197.842 187.61Z" fill="white"/>
</g>
<path d="M239.497 195.108H204.005C199.873 195.108 196.506 191.747 196.506 187.609V158.954C196.506 154.817 199.867 151.455 204.005 151.455H239.497C243.629 151.455 246.996 154.817 246.996 158.954V187.609C246.996 191.747 243.634 195.108 239.497 195.108ZM204.005 154.129C201.341 154.129 199.174 156.296 199.174 158.954V187.609C199.174 190.273 201.341 192.434 204.005 192.434H239.497C242.16 192.434 244.322 190.267 244.322 187.609V158.954C244.322 156.29 242.155 154.129 239.497 154.129H204.005Z" fill="#64022E"/>
<path d="M172.38 195.108H136.887C133.35 195.108 130.34 192.703 129.575 189.264C129.451 188.721 129.389 188.168 129.389 187.609V158.954C129.389 155.003 132.471 151.714 136.412 151.471C136.582 151.46 136.732 151.455 136.887 151.455H172.38C176.517 151.455 179.878 154.817 179.878 158.954V187.609C179.878 191.747 176.517 195.108 172.38 195.108ZM136.887 154.124C136.779 154.124 136.67 154.129 136.562 154.134C134.043 154.289 132.057 156.404 132.057 158.949V187.604C132.057 187.961 132.099 188.318 132.176 188.669C132.662 190.852 134.643 192.429 136.882 192.429H172.375C175.038 192.429 177.205 190.262 177.205 187.599V158.943C177.205 156.28 175.038 154.113 172.375 154.113H136.882L136.887 154.124Z" fill="#64022E"/>
<path d="M197.846 175.968C197.422 175.968 196.998 175.767 196.739 175.384C196.656 175.27 194.417 172.265 187.891 172.265C181.757 172.265 179.709 174.918 179.626 175.032C179.192 175.617 178.359 175.756 177.77 175.327C177.18 174.898 177.03 174.086 177.449 173.486C177.558 173.326 180.252 169.592 187.891 169.592C195.927 169.592 198.828 173.703 198.947 173.879C199.361 174.489 199.206 175.317 198.596 175.736C198.363 175.891 198.104 175.968 197.846 175.968Z" fill="#64022E"/>
</g>
</g>
<rect x="1" y="1" width="368" height="370" rx="11" stroke="black" stroke-width="2"/>
<defs>
<clipPath id="clip0_476_1285">
<rect width="370" height="372" rx="12" fill="white"/>
</clipPath>
<clipPath id="clip1_476_1285">
<rect width="368" height="370" fill="white" transform="translate(0 2)"/>
</clipPath>
</defs>
</svg>
