<svg width="587" height="633" viewBox="0 0 587 633" fill="none" xmlns="http://www.w3.org/2000/svg">
<mask id="mask0_505_345" style="mask-type:luminance" maskUnits="userSpaceOnUse" x="0" y="0" width="587" height="633">
<path d="M0 0H587V633H0V0Z" fill="white"/>
</mask>
<g mask="url(#mask0_505_345)">
<path d="M95.2952 166.005C96.093 181.84 110.716 208.694 124.549 212.411C124.549 212.411 126.944 220.267 133.593 224.181C133.593 224.181 139.313 243.123 155.269 257.202C171.225 271.291 202.742 287.079 202.742 287.079L204.808 280.414L211.786 257.934C211.786 257.934 181.668 244.409 170.53 211.134C170.53 211.134 174.822 204.433 171.629 195.394C171.629 195.394 183.058 176.79 181.33 162.166C179.602 147.552 171.356 147.017 168.172 146.754L176.888 111.687C177.827 107.895 176.39 104.037 173.479 101.756C172.586 101.052 171.563 100.498 170.426 100.132C169.45 99.8228 168.454 99.6718 167.487 99.6718C163.214 99.6718 159.279 102.526 158.124 106.891L151.738 131.116L151.681 131.332L143.849 104.985C143.116 102.535 141.501 100.602 139.472 99.4378C136.955 97.9638 133.791 97.6538 130.87 98.9118C127.301 100.452 125.075 103.943 125.075 107.698C125.075 108.43 125.16 109.181 125.338 109.922C127.423 118.689 130.71 132.346 132.166 137.48C132.194 137.593 132.232 137.706 132.26 137.809C132.26 137.809 118.83 136.232 114.341 145.74C114.181 146.069 114.04 146.407 113.909 146.754C113.909 146.754 112.481 147.007 110.406 147.693C104.856 149.523 94.7129 154.46 95.2952 166.005Z" fill="#EBA16F"/>
<path d="M104.997 163.349C105.795 179.184 120.427 206.038 134.26 209.755C134.26 209.755 136.655 217.62 143.304 221.525C143.304 221.525 149.023 240.467 164.979 254.555C174.399 262.862 189.237 271.77 199.812 277.683C201.615 278.678 203.296 279.598 204.808 280.414L211.786 257.934C211.786 257.934 181.668 244.409 170.53 211.134C170.53 211.134 174.822 204.433 171.629 195.394C171.629 195.394 183.058 176.79 181.33 162.166C179.602 147.552 171.356 147.017 168.172 146.754L176.888 111.687C177.827 107.895 176.39 104.037 173.479 101.756C171.619 101.897 169.966 102.029 168.548 102.564C166.848 103.202 165.515 104.413 164.651 106.891L151.493 135.012L151.738 131.117L151.681 131.332L150.01 125.701L143.849 104.985C143.116 102.535 141.501 100.602 139.472 99.438C137.913 99.476 136.326 99.776 134.899 100.32C131.612 101.559 129.198 104.084 130.053 107.576C132.26 116.521 136.317 132.947 137.726 137.809C137.726 137.809 135.387 137.471 132.166 137.48C132.044 137.48 131.922 137.48 131.79 137.49C131.039 137.49 130.25 137.518 129.424 137.574C123.601 137.95 116.482 139.714 114.341 145.74C114.341 145.74 112.472 146.069 110.406 147.693C107.654 149.842 104.536 154.301 104.997 163.349Z" fill="#FFE5C9"/>
<path d="M104.996 163.349C105.794 179.183 120.426 206.037 134.26 209.754C134.26 209.754 136.655 217.62 143.304 221.525C143.304 221.525 149.023 240.466 164.979 254.555C174.399 262.862 189.237 271.769 199.812 277.683L205.944 257.934C205.944 257.934 175.826 244.408 164.688 211.134C164.688 211.134 168.98 204.432 165.787 195.393C165.787 195.393 177.216 176.79 175.488 162.166C173.76 147.552 165.514 147.017 162.331 146.754L171.046 111.687C171.882 108.308 170.839 104.882 168.548 102.563C166.848 103.202 165.514 104.412 164.65 106.89L151.493 135.012L151.737 131.116L151.681 131.332L150.009 125.7L143.163 103.295C142.59 101.381 140.824 97.8511 134.898 100.32C131.611 101.559 129.198 104.084 130.052 107.576C132.259 116.521 136.316 132.947 137.725 137.809C137.725 137.809 135.387 137.471 132.166 137.48C132.043 137.48 131.921 137.48 131.79 137.49C131.827 137.602 131.856 137.705 131.884 137.809C131.884 137.809 130.935 137.668 129.423 137.574C123.601 137.949 116.482 139.714 114.341 145.74C114.341 145.74 112.472 146.069 110.406 147.692C107.654 149.842 104.536 154.3 104.996 163.349Z" fill="#FFD39F"/>
<path d="M144.731 174.331C144.731 174.331 137.115 174.622 135.866 178.93C134.222 184.59 139.266 189.349 139.266 189.349L139.181 183.069L140.919 178.367L144.731 174.34V174.331Z" fill="#EBA16F"/>
<path d="M158.452 165.357C158.452 165.357 151.953 171.768 145.182 169.628C145.182 169.628 141.416 178.855 131.508 178.32C131.508 178.32 127.122 197.365 111.317 189.921C99.249 184.233 98.704 166.963 101.352 159.163C102.17 156.75 106.452 153.024 106.452 153.024C106.452 153.024 103.757 157.764 109.354 170.013C112.519 176.931 112.603 176.893 112.603 176.893L116.003 181.277L119.562 183.867L124.023 182.938L126.418 179.869L128.005 176.743L129.32 172.829L135.18 173.111L139.914 169.563L142.487 164.428L144.008 162.401L148.741 165.151L153.193 165.883L158.443 165.367L158.452 165.357Z" fill="#EBA16F"/>
<path d="M170.53 211.134C170.53 211.134 174.812 204.442 171.628 195.403C171.628 195.403 183.067 176.799 181.339 162.176C179.611 147.552 171.365 147.026 168.172 146.754L176.887 111.696C178.118 106.75 175.291 101.691 170.436 100.142C165.158 98.462 159.542 101.54 158.133 106.9L151.69 131.342L143.858 104.994C142.224 99.494 136.148 96.659 130.879 98.922C126.606 100.761 124.267 105.398 125.347 109.922C127.479 118.886 130.87 132.956 132.278 137.818C132.278 137.818 117.919 136.129 113.928 146.754C113.928 146.754 94.5155 150.161 95.3138 166.005C96.112 181.849 110.744 208.694 124.568 212.411C124.568 212.411 126.963 220.267 133.612 224.181C133.612 224.181 139.331 243.123 155.287 257.202C171.243 271.291 202.761 287.069 202.761 287.069L211.805 257.925C211.805 257.925 181.686 244.399 170.548 211.125L170.53 211.134Z" stroke="black" stroke-width="2" stroke-miterlimit="10"/>
<path d="M167.881 145.853C163.683 146.876 159.128 147.355 155.005 146.463C153.813 146.191 152.554 146.031 151.333 146.088C144.656 146.304 138.674 151.288 140.768 158.449C142.749 166.906 151.474 167.507 158.452 165.358C154.254 165.583 149.248 165.714 145.849 163.133C142.947 160.711 141.453 155.671 143.557 152.311C145.492 149.486 149.558 148.2 152.949 148.5C155.85 149.016 158.677 149.448 161.579 149.073C163.918 148.828 166.181 148.406 168.444 147.655L167.871 145.862L167.881 145.853Z" fill="black"/>
<path d="M132.26 137.809C132.26 137.809 140.243 144.22 141.698 153.662" stroke="black" stroke-width="2" stroke-miterlimit="10"/>
<path d="M143.22 161.594C143.22 161.594 140.806 177.09 128.513 172.538" stroke="black" stroke-width="2" stroke-miterlimit="10"/>
<path d="M119.356 151.935C124.587 159.547 130.748 170.163 125.704 179.155C124.643 180.901 123.009 183.126 120.783 182.91C115.186 181.905 110.227 170.708 107.786 165.874C109.579 171.712 113.834 183.482 120.577 184.731C123.732 185.125 125.911 182.515 127.376 180.15C132.87 170.445 126.259 159.022 119.356 151.935Z" fill="black"/>
<path d="M145.191 174.04C138.57 175.682 136.129 184.383 139.406 189.94C139.5 188.401 139.434 186.927 139.66 185.444C140.111 181.061 142.374 177.409 145.191 174.03V174.04Z" fill="black"/>
<path d="M137.181 210.618C133.095 211.904 128.663 212.505 124.502 211.35C123.92 211.247 123.394 210.975 122.821 210.815L122.07 212.533C126.953 214.776 132.851 213.509 137.171 210.618H137.181Z" fill="black"/>
<path d="M162.378 200.65C166.585 200.293 170.849 198.191 173.216 194.596L171.657 193.544C169.318 196.764 166.153 199.223 162.378 200.65Z" fill="black"/>
<path d="M202.666 266.72C203.089 281.325 212.79 290.054 227.929 294.71C286.381 312.684 425.965 269.911 425.965 269.911C425.965 269.911 446.946 250.697 428.858 150.443C418.64 93.834 398.28 53.483 371.411 29.097C350.693 10.278 326.116 0.937988 299.351 0.937988C244.336 0.937988 202.027 59.096 201.379 109.021C200.112 206.319 200.656 197.768 202.666 266.72Z" fill="#E0D5A8"/>
<path d="M219.609 282.498C219.74 287.144 220.848 291.19 222.783 294.71C282.681 312.684 425.703 269.911 425.703 269.911C425.703 269.911 447.2 250.697 428.671 150.443C418.199 93.8338 397.341 53.4828 369.805 29.0968C354.084 20.8278 336.879 16.7168 318.679 16.7168C262.302 16.7168 218.951 74.8738 218.285 124.8C216.998 222.098 217.552 213.537 219.609 282.498Z" fill="#FCF7D8"/>
<g opacity="0.25">
<path d="M381.084 36.1841C349.632 24.8921 313.053 29.0411 285.094 47.4191L286.982 47.3251C283.207 45.5421 279.441 44.2191 275.534 43.0831C265.898 40.3511 255.483 39.1591 245.698 41.7781C243.763 42.3041 241.885 43.0171 240.063 43.8241L240.175 44.0971C255.061 38.6431 271.777 43.3741 285.235 50.5361L286.25 51.0521C293.199 46.2081 300.694 42.1351 308.592 39.0001C327.647 31.5471 348.815 29.9421 368.894 33.8191C372.913 34.6071 376.933 35.5831 380.783 36.9351L381.084 36.1751V36.1841Z" fill="#E0D5A8"/>
<path d="M398.955 64.9913C364.507 56.4873 325.082 58.5703 295.471 79.7463L296.936 79.4453C279.741 76.0763 262.263 73.6643 244.72 74.5933C238.907 75.0343 232.99 75.7943 227.6 78.1693L227.816 78.6853C238.728 74.7523 250.693 75.7283 262.057 76.7423C273.796 78.0003 285.498 80.2623 296.936 83.0593C304.083 77.5963 311.972 73.0533 320.424 69.8063C336.906 63.3293 354.815 61.2363 372.462 61.9493C381.318 62.3443 390.193 63.3673 398.842 65.3853L398.955 64.9913Z" fill="#E0D5A8"/>
<path d="M419.091 109.979C382.182 103.418 336.859 102.517 303.961 122.904L305.999 122.669C301.773 121.299 297.66 120.322 293.443 119.459C272.538 115.273 250.722 115.141 229.92 119.947C221.636 121.852 213.56 124.631 205.84 128.113L206.065 128.62C213.889 125.457 221.984 123.026 230.248 121.458C250.834 117.544 272.247 118.492 292.57 123.401C296.974 124.48 301.351 125.738 305.473 127.306L306.488 126.686C330.699 110.392 361.324 107.153 389.921 107.688C399.66 107.97 409.417 108.73 419.053 110.26L419.109 109.988L419.091 109.979Z" fill="#E0D5A8"/>
<path d="M427.158 141.367C389.996 135.791 344.645 135.979 311.888 156.516L312.724 156.422C308.592 155.014 304.441 153.953 300.233 153.015C279.234 148.444 257.24 147.909 236.165 152.283C227.732 154.029 219.486 156.647 211.55 160.008L212.292 161.735C220.106 158.431 228.239 155.85 236.55 154.122C257.362 149.795 279.093 150.34 299.83 154.845C304.121 155.793 308.413 156.91 312.527 158.337L312.921 158.083C337.79 141.958 368.678 138.682 397.726 139.17C407.549 139.433 417.391 140.174 427.102 141.676L427.158 141.376V141.367Z" fill="#E0D5A8"/>
<path d="M433.375 181.849C433.375 181.849 362.508 168.221 319.579 196.708C319.579 196.708 270.228 178.592 220.312 200.275" stroke="#E0D5A8" stroke-width="2" stroke-miterlimit="10"/>
<path d="M433.375 230.395C433.375 230.395 362.508 216.766 319.579 245.254C319.579 245.254 270.228 227.138 220.312 248.82" stroke="#E0D5A8" stroke-width="2" stroke-miterlimit="10"/>
</g>
<path d="M425.957 269.911C425.957 269.911 446.937 250.697 428.849 150.443C410.761 50.188 360.837 0.937988 299.342 0.937988C244.336 0.937988 202.019 59.096 201.371 109.021C200.103 206.319 200.648 197.759 202.657 266.72C204.723 337.708 425.957 269.911 425.957 269.911Z" stroke="black" stroke-width="2" stroke-miterlimit="10"/>
<path d="M14.3973 376.614C17.2429 378.557 20.2012 380.294 23.2816 381.833C23.2816 381.833 23.2848 381.833 23.291 381.833C24.2489 382.312 25.2069 382.772 26.1836 383.213C27.3387 383.739 28.5032 384.236 29.6772 384.705C30.2782 384.949 30.8793 385.184 31.4897 385.409C32.7012 385.869 33.9221 386.301 35.1618 386.705C36.4484 387.136 37.7444 387.531 39.0592 387.897C39.6414 388.066 40.2237 388.225 40.8153 388.385C41.3413 388.526 41.8672 388.657 42.3931 388.788C43.1538 388.976 43.9239 389.164 44.694 389.333C45.3326 389.474 45.9713 389.614 46.6099 389.746C47.9153 390.018 49.2301 390.262 50.5449 390.487C51.2023 390.6 51.8597 390.713 52.5171 390.816C52.6391 390.835 52.7612 390.853 52.8927 390.872C54.0009 391.032 55.1091 391.191 56.2267 391.332C57.6823 391.51 59.1474 391.67 60.6124 391.801C61.1759 391.858 61.7394 391.905 62.2935 391.942C62.3874 391.961 62.4719 391.961 62.5659 391.97C64.7165 392.139 66.8953 392.261 69.0741 392.346C69.5061 392.355 69.9475 392.374 70.3889 392.383C70.7927 392.383 71.2059 392.402 71.6191 392.412C72.192 392.43 72.7743 392.43 73.3566 392.44C73.9388 392.44 74.5211 392.44 75.1128 392.44C75.9862 392.44 76.8595 392.44 77.7329 392.421C78.0522 392.412 78.381 392.412 78.7003 392.402C80.6255 392.365 82.5601 392.299 84.4948 392.196C84.9925 392.177 85.4903 392.149 85.9974 392.111C86.7675 392.074 87.5282 392.027 88.2889 391.97C88.4485 391.97 88.5988 391.952 88.7491 391.933C89.491 391.886 90.2329 391.83 90.9748 391.773C91.5477 391.726 92.1112 391.679 92.6747 391.623C93.1067 391.586 93.5387 391.548 93.9613 391.51C94.506 391.454 95.0507 391.398 95.586 391.351C96.553 391.248 97.521 391.144 98.488 391.032C99.606 390.91 100.714 390.769 101.831 390.628C129.667 387.043 156.799 378.801 176.596 371.63C194.928 364.994 206.949 359.278 207.4 359.072C207.287 359.372 207.175 359.682 207.071 359.982C189.444 408.631 183.818 445.022 182.053 461.279C181.827 461.682 181.686 462.086 181.621 462.499C178.597 483.364 194.938 562.584 194.938 562.584C163.927 568.779 161.41 617.766 174.662 621.849C177.254 622.647 179.94 623.248 182.701 623.68C211.401 628.166 247.21 614.368 249.699 614.368C252.422 614.368 271.703 612.322 276.925 606.878C282.146 601.434 276.699 588.284 276.699 588.284C278.061 578.982 271.478 558.952 268.303 550.335C265.129 541.719 262.171 498.702 262.171 498.702C266.941 496.439 267.618 490.545 267.618 490.545C269.073 490.545 275.027 487.973 280.672 485.382C286.447 482.717 291.904 480.032 291.904 480.032C297.802 483.515 328.662 491.221 328.662 491.221C330.174 493.342 336.823 501.198 356.488 524.185C376.154 547.163 388.56 581.629 389.772 587.683C390.983 593.728 395.82 607.638 400.966 609.15C406.113 610.661 413.673 616.105 413.673 616.105C423.74 623.342 432.765 627.688 440.729 629.978C463.41 636.482 477.506 626.27 482.653 618.217C489.612 607.338 482.653 599.773 482.653 599.773C480.84 562.885 449.144 558.802 449.144 558.802C444.383 544.516 424.567 496.064 424.567 496.064C418.819 477.01 399.755 427.723 399.755 427.723C399.755 427.723 399.717 427.723 399.651 427.732C402.196 423.283 404.497 418.806 406.573 414.432C408.31 410.752 409.879 407.148 411.287 403.694C418.378 386.376 421.468 372.832 421.468 372.832C422.585 373.996 424.022 375.263 425.731 376.596L425.759 376.624C427.187 377.741 428.793 378.914 430.558 380.125C434.738 383.007 439.762 386.113 445.162 389.239C445.434 389.389 445.707 389.549 445.979 389.708C450.468 392.28 455.201 394.88 459.916 397.367C460.104 397.461 460.226 397.527 460.263 397.546C460.301 397.565 460.442 397.64 460.677 397.762C464.621 399.845 468.537 401.845 472.266 403.703C472.782 403.957 473.083 404.116 473.083 404.116C473.083 404.116 473.43 404.285 474.012 404.567C477.882 406.482 481.516 408.227 484.728 409.729C487.02 410.79 489.095 411.728 490.898 412.526C492.307 413.146 494.157 413.634 496.364 413.991C496.937 414.094 497.538 414.178 498.167 414.253C499.933 414.469 501.877 414.619 503.971 414.704C532.474 415.821 588.428 404.379 585.986 383.955C583.056 359.466 548.073 384.63 540.588 341.397C538.268 328.003 534.972 317.528 531.525 309.446C526.604 297.92 521.383 291.265 518.255 287.961C517.335 286.985 516.593 286.3 516.095 285.868C515.645 285.483 515.4 285.305 515.4 285.305C515.429 285.296 515.447 285.286 515.475 285.277C515.551 285.249 515.635 285.22 515.71 285.174C523.74 281.776 555.117 251.956 521.533 251.289C487.489 250.604 493.847 247.572 472.059 225.43C450.28 203.297 436.212 210.421 436.212 210.421C436.757 214.777 436.522 219.244 435.893 223.449C435.846 223.731 435.799 224.003 435.761 224.285V224.322C435.254 227.345 434.559 230.226 433.808 232.808L433.78 232.892C432.878 236.008 431.892 238.693 431.094 240.692L431.056 240.786C430.427 242.344 429.92 243.47 429.629 244.071C429.488 244.39 429.403 244.559 429.403 244.559C425.29 244.662 421.186 244.953 417.129 245.395C417.129 245.395 417.101 245.395 417.054 245.404C407.559 246.455 398.271 248.361 389.462 250.754C379.732 253.41 370.576 256.667 362.367 260.018C362.198 260.093 362.02 260.159 361.851 260.234C353.896 263.51 346.843 266.87 341.021 269.865C340.514 270.127 340.241 270.268 340.241 270.268C333.47 273.779 328.446 276.745 325.732 278.415C324.98 278.875 324.398 279.241 324.013 279.485C323.91 279.561 323.816 279.617 323.741 279.664C323.543 279.795 323.44 279.861 323.44 279.861C319.665 277.308 315.364 274.67 310.452 272.061C308.808 271.188 307.09 270.315 305.296 269.442C297.407 265.641 288.138 261.98 277.244 258.817H277.234C277.234 258.817 277.169 258.798 277.028 258.761C265.805 255.522 252.854 252.819 237.913 251.054C231.01 250.238 223.675 249.618 215.89 249.243C213.439 249.121 211.044 249.055 208.696 249.036C203.69 248.98 198.938 249.14 194.384 249.515C190.035 249.862 185.884 250.397 181.884 251.13C147.398 257.362 124.258 277.129 90.0638 306.227C42.1583 346.991 -28.9346 346.991 14.4067 376.596L14.3973 376.614Z" fill="#C99912"/>
<path d="M14.3967 376.614C17.2423 378.557 20.2006 380.294 23.281 381.833C23.281 381.833 23.2841 381.833 23.2904 381.833C24.2483 382.312 25.2063 382.772 26.183 383.213C27.3381 383.739 28.5026 384.236 29.6766 384.705C30.2776 384.949 30.8786 385.184 31.4891 385.409C32.7006 385.869 33.9215 386.301 35.1612 386.705C36.4478 387.136 37.7438 387.531 39.0585 387.897C39.6408 388.066 40.2231 388.225 40.8147 388.385C41.3407 388.526 41.8666 388.657 42.3925 388.788C43.1532 388.976 43.9233 389.164 44.6934 389.333C45.332 389.474 45.9707 389.614 46.6093 389.746C47.9147 390.018 49.2295 390.262 50.5443 390.487C51.2017 390.6 51.859 390.713 52.5164 390.816C52.6385 390.835 52.7606 390.853 52.8921 390.872C54.0003 391.032 55.1085 391.191 56.2261 391.332C57.6817 391.51 59.1468 391.67 60.6118 391.801C61.1753 391.858 61.7388 391.905 62.2929 391.942H62.3492C63.0911 391.895 63.833 391.839 64.575 391.783C65.1478 391.736 65.7114 391.689 66.2749 391.632C66.7069 391.595 67.1389 391.557 67.5615 391.52C68.1062 391.463 68.6509 391.407 69.1862 391.36C70.1535 391.257 71.1208 391.154 72.0881 391.041C73.2057 390.919 74.3139 390.778 75.4315 390.637C129.056 383.739 180.07 359.522 181 359.081C180.887 359.381 180.775 359.691 180.671 359.991C179.235 363.952 177.882 367.838 176.596 371.64C194.928 365.004 206.949 359.287 207.399 359.081C207.287 359.381 207.174 359.691 207.071 359.991C189.443 408.64 183.818 445.031 182.052 461.288C181.827 461.691 181.686 462.095 181.62 462.508C178.596 483.374 194.937 562.594 194.937 562.594C163.927 568.789 161.41 617.776 174.661 621.859C177.253 622.656 179.939 623.257 182.7 623.689C203.342 621.192 221.552 614.378 223.299 614.378C226.023 614.378 245.303 612.332 250.525 606.887C255.746 601.443 250.299 588.293 250.299 588.293C251.661 578.992 245.078 558.961 241.903 550.345C238.729 541.728 235.771 498.711 235.771 498.711C240.542 496.449 241.218 490.554 241.218 490.554C256.16 487.081 266.312 467.727 266.312 467.727C268.631 469.097 274.388 473.481 281.047 475.433C284.578 477.057 291.913 480.042 291.913 480.042C297.81 483.524 328.671 491.23 328.671 491.23C330.183 493.351 336.832 501.208 356.497 524.194C376.163 547.172 388.569 581.638 389.78 587.693C390.992 593.737 395.828 607.648 400.975 609.159C406.121 610.67 413.681 616.114 413.681 616.114C423.749 623.351 432.774 627.697 440.738 629.987C448.364 627.303 453.548 622.469 456.262 618.226C463.221 607.347 456.262 599.782 456.262 599.782C454.45 562.894 422.754 558.811 422.754 558.811C417.992 544.525 398.176 496.073 398.176 496.073C392.429 477.019 373.364 427.732 373.364 427.732C373.364 427.732 373.327 427.732 373.261 427.741C388.7 400.775 406.394 350.445 406.394 350.445C407.511 351.609 431.459 350.924 433.169 352.257C433.169 352.285 425.026 355.092 425.026 355.092C430.013 359.006 436.521 383.832 444.513 388.432C444.964 388.694 445.171 388.967 445.171 389.248C445.443 389.398 445.716 389.558 445.988 389.718C450.477 392.289 455.21 394.889 459.925 397.377C460.113 397.471 460.235 397.536 460.272 397.555C460.31 397.574 460.451 397.649 460.685 397.771C464.63 399.855 468.546 401.854 472.274 403.712C472.791 403.966 473.091 404.125 473.091 404.125C473.091 404.125 473.439 404.294 474.021 404.576C480.633 407.852 486.568 410.63 490.907 412.536C492.316 413.155 494.166 413.643 496.373 414C525.373 411.118 561.568 400.474 559.596 383.964C556.666 359.475 521.683 384.64 514.198 341.407C511.23 324.277 521.729 315.116 531.534 309.456C526.613 297.929 521.391 291.274 518.264 287.97C517.344 286.994 516.602 286.309 516.104 285.877C515.653 285.493 515.409 285.314 515.409 285.314C515.437 285.305 515.456 285.295 515.484 285.286C523.101 282.395 555.463 251.974 521.542 251.298C487.498 250.613 493.856 247.581 472.068 225.439C450.289 203.306 436.221 210.431 436.221 210.431C438.259 226.763 429.412 244.568 429.412 244.568C425.299 244.672 421.195 244.963 417.137 245.404C417.137 245.404 417.109 245.404 417.062 245.413C407.568 246.464 398.28 248.37 389.47 250.763C379.741 253.42 370.584 256.677 362.376 260.028C362.207 260.103 362.029 260.168 361.86 260.244C353.905 263.519 346.852 266.88 341.03 269.874C340.522 270.137 340.25 270.277 340.25 270.277C333.479 273.788 328.455 276.754 325.74 278.425C324.989 278.885 324.407 279.251 324.022 279.495C323.918 279.57 323.825 279.626 323.749 279.673C323.552 279.804 323.449 279.87 323.449 279.87C319.674 277.317 315.372 274.68 310.461 272.07C305.389 274.783 301.576 277.045 299.341 278.425C298.59 278.885 298.008 279.251 297.623 279.495C297.519 279.57 297.425 279.626 297.35 279.673C297.153 279.804 297.05 279.87 297.05 279.87C292.006 276.454 286.024 272.896 278.905 269.451C271.017 265.65 261.747 261.989 250.853 258.826C250.853 258.826 250.788 258.807 250.647 258.77C239.424 255.532 226.473 252.828 211.532 251.064C206.094 250.416 200.384 249.9 194.402 249.524C190.053 249.872 185.902 250.407 181.902 251.139C147.416 257.371 124.276 277.139 90.082 306.236C42.1765 347.001 -28.9164 347.001 14.4249 376.605L14.3967 376.614Z" fill="#FCD034"/>
<path d="M14.5659 376.614C17.4115 378.557 20.3698 380.294 23.4501 381.833C24.4081 382.312 25.366 382.772 26.3427 383.213C27.4979 383.739 28.6624 384.236 29.8363 384.705C30.4373 384.949 31.0384 385.184 31.6488 385.409C32.8603 385.869 34.0812 386.301 35.3209 386.705C36.6075 387.136 37.9035 387.531 39.2183 387.897C39.8005 388.066 40.3829 388.225 40.9745 388.385C41.5004 388.526 42.0264 388.657 42.5523 388.788C43.313 388.976 44.083 389.164 44.8531 389.333C45.4917 389.474 46.1304 389.614 46.769 389.746C48.0744 390.018 49.3892 390.262 50.704 390.487C51.3614 390.6 52.0188 390.713 52.6762 390.816C52.7983 390.835 52.9204 390.853 53.0519 390.872C54.16 391.032 55.2682 391.191 56.3858 391.332C57.8415 391.51 59.3065 391.67 60.7716 391.801C61.335 391.858 61.8986 391.905 62.4527 391.942H62.509C63.2509 391.895 63.9928 391.839 64.7348 391.783C65.3076 391.736 65.8711 391.689 66.4346 391.632C66.8666 391.595 67.2986 391.557 67.7212 391.52C68.2659 391.463 68.8106 391.407 69.3459 391.36C70.3132 391.257 71.2806 391.154 72.2479 391.041C73.3655 390.919 74.4736 390.778 75.5912 390.637C118.162 385.156 159.1 368.767 174.624 362.019C178.652 360.273 180.972 359.165 181.16 359.081C181.047 359.381 180.935 359.691 180.831 359.991C179.394 363.952 178.042 367.838 176.755 371.64C195.087 365.004 207.108 359.287 207.559 359.081C207.446 359.381 207.334 359.691 207.23 359.991C203.812 369.424 200.844 378.388 198.271 386.836C187.565 421.988 183.639 448.185 182.212 461.288C181.986 461.691 181.846 462.095 181.78 462.508C178.756 483.374 195.097 562.594 195.097 562.594C195.069 562.603 195.05 562.603 195.022 562.613C172.257 567.212 164.885 594.911 167.862 610.848C168.923 616.574 171.318 620.779 174.821 621.859C177.413 622.656 180.099 623.257 182.86 623.689C203.502 621.192 221.712 614.378 223.459 614.378C226.182 614.378 245.463 612.332 250.684 606.887C255.906 601.443 250.459 588.293 250.459 588.293C251.821 578.992 245.237 558.961 242.063 550.345C238.889 541.728 235.931 498.711 235.931 498.711C240.701 496.449 241.378 490.554 241.378 490.554C256.319 487.081 266.471 467.727 266.471 467.727C268.791 469.097 274.548 473.481 281.207 475.433C284.738 477.057 292.063 480.042 292.063 480.042C297.961 483.524 328.821 491.23 328.821 491.23C330.333 493.351 336.982 501.208 356.648 524.194C376.313 547.172 388.719 581.638 389.931 587.693C391.142 593.737 395.979 607.648 401.125 609.159C406.272 610.67 413.832 616.114 413.832 616.114C423.899 623.351 432.925 627.697 440.888 629.987C448.514 627.303 453.698 622.469 456.412 618.226C463.371 607.347 456.412 599.782 456.412 599.782C454.6 562.894 422.904 558.811 422.904 558.811C418.142 544.525 398.327 496.073 398.327 496.073C392.579 477.019 373.515 427.732 373.515 427.732C373.515 427.732 373.477 427.732 373.411 427.741C388.851 400.775 406.544 350.445 406.544 350.445C407.662 351.609 431.61 350.924 433.319 352.257C433.319 352.285 425.177 355.092 425.177 355.092C430.163 359.006 436.672 383.832 444.664 388.432C445.115 388.694 445.321 388.967 445.321 389.248C445.594 389.398 445.866 389.558 446.138 389.718C450.627 392.289 455.361 394.889 460.075 397.377C460.263 397.471 460.385 397.536 460.423 397.555C460.46 397.574 460.601 397.649 460.836 397.771C464.78 399.855 468.696 401.854 472.425 403.712C472.941 403.966 473.242 404.125 473.242 404.125C473.242 404.125 473.589 404.294 474.172 404.576C480.783 407.852 486.718 410.63 491.057 412.536C492.466 413.155 494.316 413.643 496.523 414C525.524 411.118 561.718 400.474 559.746 383.964C556.816 359.475 521.833 384.64 514.348 341.407C511.38 324.277 521.88 315.116 531.685 309.456C526.763 297.929 521.542 291.274 518.414 287.97C517.494 286.994 516.752 286.309 516.254 285.877C515.804 285.493 515.559 285.314 515.559 285.314C515.588 285.305 515.606 285.295 515.635 285.286C523.251 282.395 555.614 251.974 521.692 251.298C487.648 250.613 494.006 247.581 472.218 225.439C450.44 203.306 436.371 210.431 436.371 210.431C438.409 226.763 429.562 244.568 429.562 244.568C425.449 244.672 421.345 244.963 417.288 245.404C417.288 245.404 417.26 245.404 417.213 245.413C407.718 246.464 398.43 248.37 389.621 250.763C379.891 253.42 370.735 256.677 362.527 260.028C362.358 260.103 362.179 260.168 362.01 260.244C354.056 263.519 347.003 266.88 341.18 269.874C340.673 270.137 340.401 270.277 340.401 270.277C333.629 273.788 328.605 276.754 325.891 278.425C325.139 278.885 324.557 279.251 324.172 279.495C324.069 279.57 323.975 279.626 323.9 279.673C323.703 279.804 323.599 279.87 323.599 279.87C319.824 277.317 315.523 274.68 310.611 272.07C305.54 274.783 301.727 277.045 299.492 278.425C298.74 278.885 298.158 279.251 297.773 279.495C297.67 279.57 297.576 279.626 297.501 279.673C297.303 279.804 297.2 279.87 297.2 279.87C292.157 276.454 286.175 272.896 279.056 269.451C271.167 265.65 261.898 261.989 251.004 258.826H250.994C250.994 258.826 250.929 258.807 250.788 258.77C239.565 255.532 226.614 252.828 211.673 251.064C206.235 250.416 200.525 249.9 194.543 249.524C190.194 249.872 186.043 250.407 182.043 251.139C147.558 257.371 124.417 277.139 90.2231 306.236C42.3175 347.001 -28.7754 347.001 14.5659 376.605V376.614Z" fill="#FCD034"/>
<path d="M170.35 608.774C172.379 600.523 173.797 592.958 180.155 581.92C190.729 563.551 207.296 563.232 207.296 563.232L195.031 562.622C174.839 566.705 163.851 594.169 167.317 608.258C167.758 610.06 168.894 608.539 170.35 608.774Z" fill="#FFE09F"/>
<path d="M297.886 367.237C297.886 367.237 310.169 346.606 336.043 352.717C363.391 359.184 377.675 388.215 406.572 414.45C417.025 392.327 421.467 372.85 421.467 372.85C422.585 374.014 424.021 375.281 425.731 376.614L425.759 376.642C430.577 380.425 437.498 384.818 445.161 389.257C445.434 389.408 445.706 389.567 445.978 389.727C450.468 392.298 455.201 394.898 459.915 397.386C460.103 397.48 460.225 397.545 460.263 397.564C460.3 397.583 460.441 397.658 460.676 397.78C464.62 399.864 468.537 401.863 472.265 403.722C472.782 403.975 473.082 404.135 473.082 404.135C473.082 404.135 473.43 404.304 474.012 404.585C477.881 406.5 481.516 408.246 484.727 409.748C502.195 385.831 513.324 354.838 513.324 354.838L421.467 289.528L323.749 299.121L304.563 329.711C304.563 329.711 301.623 340.561 300.722 346.606C299.811 352.642 297.886 367.237 297.886 367.237Z" fill="#C99912"/>
<path d="M398.862 380.087C398.862 391.661 404.177 401.328 411.286 403.712C418.377 386.395 421.467 372.85 421.467 372.85C422.584 374.014 424.021 375.281 425.73 376.614L425.759 376.642C427.186 377.759 428.792 378.933 430.558 380.144V380.087C430.558 366.731 424.209 349.845 415.456 349.845C406.703 349.845 398.862 366.731 398.862 380.087Z" fill="#AA7C09"/>
<path d="M511.719 449.649C507.924 436.902 490.682 417.923 478.68 417.632C478.68 417.632 475.167 411.709 468.978 409.832C468.978 409.832 459.7 397.189 445.753 386.057C431.807 374.925 412.621 357.26 412.621 357.26L408.573 368.946L406.122 376.023C403.67 383.1 405.971 390.947 411.86 395.574C420.246 402.182 432.286 413.193 441.471 427.788C441.471 427.788 439.301 434.096 443.697 440.835C443.697 440.835 438.071 458.256 442.382 469.829C446.692 481.393 453.511 480.192 456.159 479.779L456.018 510.077C456.009 513.353 457.943 516.216 460.77 517.493C461.634 517.887 462.583 518.14 463.578 518.215C464.433 518.272 465.278 518.197 466.067 518.009C469.551 517.164 472.19 514.057 472.265 510.275L472.66 489.268V489.08L484.267 508.998C485.347 510.847 487.047 512.105 488.935 512.649C491.273 513.353 493.922 512.978 496.044 511.373C498.646 509.411 499.763 506.126 499.021 503.066C498.881 502.465 498.655 501.874 498.364 501.301C494.927 494.571 489.536 484.096 487.338 480.201C487.292 480.117 487.245 480.032 487.198 479.948C487.198 479.948 498.448 478.568 500.223 469.932C500.289 469.632 500.336 469.332 500.374 469.022C500.374 469.022 501.482 468.534 503.041 467.567C507.201 464.977 514.489 458.941 511.719 449.649Z" fill="#EBA16F"/>
<path d="M504.337 453.732C500.542 440.985 483.3 422.006 471.288 421.724C471.288 421.724 467.776 415.792 461.587 413.924C461.587 413.924 453.172 399.629 437.376 391.304C428.05 386.404 419.072 370.851 409.277 368.129L406.027 376.98C403.633 383.513 405.764 390.815 411.249 395.096C419.654 401.647 432.051 412.836 441.461 427.779C441.461 427.779 439.292 434.086 443.687 440.825C443.687 440.825 438.061 458.246 442.372 469.82C446.683 481.384 453.501 480.182 456.149 479.769L456.008 510.068C455.999 513.344 457.934 516.207 460.76 517.483C462.244 517.004 463.568 516.563 464.62 515.85C465.879 514.996 466.724 513.738 466.94 511.551L472.077 486.03L472.65 489.249V489.061L475.129 493.323L484.258 508.979C485.338 510.828 487.038 512.086 488.925 512.63C490.184 512.292 491.423 511.729 492.475 511.007C494.908 509.345 496.373 506.811 494.983 504.136C491.414 497.284 484.849 484.706 482.736 481.027C482.736 481.027 484.709 480.839 487.329 480.191C487.432 480.163 487.526 480.145 487.629 480.107C488.24 479.957 488.878 479.778 489.545 479.572C494.213 478.108 499.669 475.264 500.214 469.932C500.214 469.932 501.669 469.294 503.031 467.558C504.844 465.258 506.506 461.006 504.337 453.732Z" fill="#FFE5C9"/>
<path d="M504.337 453.732C500.543 440.985 483.3 422.006 471.288 421.724C471.288 421.724 467.776 415.792 461.587 413.924C461.587 413.924 456.159 401.234 442.616 389.614C432.925 381.298 417.194 370.654 409.634 367.162L405.492 378.426C404.262 381.767 405.389 385.512 408.263 387.615C416.809 393.875 434.643 408.246 446.223 426.633C446.223 426.633 444.053 432.941 448.449 439.68C448.449 439.68 442.823 457.101 447.134 468.675C451.444 480.238 458.263 479.037 460.911 478.624L460.77 508.923C460.761 511.842 462.291 514.423 464.611 515.859C465.87 515.005 466.715 513.747 466.931 511.56L472.068 486.039L472.641 489.259V489.071L475.12 493.332L485.141 510.227C485.986 511.673 488.127 514.198 492.466 511.016C494.898 509.355 496.363 506.82 494.974 504.145C491.405 497.293 484.84 484.716 482.727 481.036C482.727 481.036 484.699 480.848 487.32 480.201C487.423 480.173 487.517 480.154 487.62 480.116C487.564 480.032 487.526 479.957 487.479 479.872C487.479 479.872 488.277 479.797 489.527 479.572C494.194 478.108 499.65 475.264 500.195 469.932C500.195 469.932 501.651 469.294 503.013 467.558C504.825 465.258 506.487 461.006 504.318 453.732H504.337Z" fill="#FFD39F"/>
<path d="M441.461 427.788C441.461 427.788 439.292 434.096 443.687 440.826C443.687 440.826 438.062 458.256 442.372 469.82C446.683 481.384 453.501 480.192 456.159 479.769L456.009 510.059C455.99 514.339 459.296 517.896 463.559 518.197C468.199 518.525 472.152 514.902 472.246 510.256L472.65 489.062L484.258 508.979C486.681 513.137 492.194 514.245 496.035 511.354C499.153 509.007 500.129 504.765 498.354 501.292C494.842 494.412 489.292 483.618 487.179 479.938C487.179 479.938 499.218 478.474 500.355 469.022C500.355 469.022 515.494 462.395 511.709 449.649C507.924 436.902 490.672 417.923 478.661 417.632C478.661 417.632 475.148 411.7 468.959 409.832C468.959 409.832 458.479 396.26 444.504 385.071C430.53 373.883 412.602 357.26 412.602 357.26L406.666 374.39C403.896 382.377 406.46 391.229 413.043 396.532C421.354 403.224 432.69 413.878 441.452 427.788H441.461Z" stroke="black" stroke-width="2" stroke-miterlimit="10"/>
<path d="M468.734 421.603C472.331 419.547 476.266 418.261 480.36 418.749L480.68 416.9C476.228 415.99 471.579 418.308 468.724 421.603H468.734Z" fill="black"/>
<path d="M450.187 434.715C446.796 435.757 443.631 438.291 442.42 441.746L444.176 442.403C445.453 439.333 447.444 436.705 450.187 434.715Z" fill="black"/>
<path d="M295.359 302.059C295.359 302.059 283.395 343.424 296.89 377.853L298.637 361.333L301.267 345.236L304.563 329.72L310.977 308.188L312.076 303.974L295.369 302.068L295.359 302.059Z" fill="#C99912"/>
<path d="M176.765 371.649C195.097 365.013 207.118 359.297 207.569 359.09C207.456 359.39 207.353 359.71 207.24 360.001C200.694 376.53 195.801 395.499 193.228 403.947C215.833 395.152 250.046 375.169 268.651 347.958C288.034 319.611 301.276 318.701 301.276 318.701L305.906 283.962L259.823 288.318L179.93 338.159C179.93 338.159 176.718 349.629 174.633 362.028C178.662 360.282 180.982 359.175 181.17 359.09C181.057 359.39 180.944 359.7 180.841 360.001C179.404 363.962 178.052 367.847 176.765 371.649Z" fill="#C99912"/>
<path d="M423.73 553.761C423.505 554.099 416.358 566.123 419.072 579.226C419.072 579.226 423.035 569.155 426.05 567.184C429.065 565.212 436.202 560.613 436.202 560.613L430.708 552.334L423.73 553.752V553.761Z" fill="#C99912"/>
<path d="M192.186 548.627C192.533 548.843 227.122 548.627 233.809 576.964C233.809 576.964 224.924 565.438 206.564 563.589C202.977 563.223 194.6 561.824 194.6 561.824L192.177 548.636L192.186 548.627Z" fill="#C99912"/>
<path d="M378.238 335.944C368.349 376.061 350.149 414.103 326.257 447.772C322.913 452.7 319.119 457.261 315.663 462.123C321.711 455.994 328.098 448.832 333.441 441.999C335.066 440.084 337.254 436.846 338.776 434.791C339.677 433.542 341.847 430.52 342.692 429.309C354.675 411.259 364.639 391.642 371.608 371.133C375.487 359.785 378.661 348.184 380.295 336.282L378.248 335.953L378.238 335.944Z" fill="#D6A819"/>
<path d="M344.213 397.921C334.935 423.865 318.866 446.992 300.008 466.891C298.909 468.168 297.059 469.914 295.876 471.124C294.486 472.523 293.105 473.94 291.734 475.376C293.997 473.659 296.505 471.65 298.74 469.848C320.03 451.723 338.287 425.507 344.223 397.921H344.213Z" fill="#D6A819"/>
<path d="M434.699 228.893C434.699 228.893 374.153 237.979 323.317 266.757C323.317 266.757 266.142 243.273 209.268 237.97L214.771 249.205L226.436 249.862C226.436 249.862 247.162 250.66 277.018 258.77C306.873 266.879 323.74 279.907 323.74 279.907C323.74 279.907 353.05 260.29 377.553 254.17L400.026 248.191L419.081 245.441L429.881 244.23L433.178 235.173L433.798 232.817L434.699 228.884V228.893Z" fill="#E0D5A8"/>
<path d="M14.3969 376.614C17.2425 378.557 20.2008 380.294 23.2812 381.833C23.2812 381.833 23.2844 381.833 23.2906 381.833C45.8112 393.143 74.1732 394.185 101.831 390.637C121.722 384.32 141.519 376.07 141.519 376.07L166.397 364.215C166.397 364.215 186.278 352.257 190.692 350.746C195.116 349.234 221.412 331.447 225.271 328.857C229.131 326.266 246.909 313.698 246.909 313.698C246.909 313.698 264.152 300.923 267.185 299.018C270.228 297.112 279.394 294.503 289.856 293.17C300.309 291.837 315.542 295.695 315.542 295.695L318.453 289.284L323.327 280.424L323.74 279.673L310.16 271.3L305.286 269.451L277.234 258.826H277.225C277.225 258.826 277.159 258.807 277.018 258.77C275.412 258.366 264.105 255.597 238.025 251.082C237.987 251.073 237.94 251.073 237.903 251.063C227.948 249.346 217.74 248.905 208.686 249.045C196.468 249.233 186.372 250.482 181.874 251.139C147.389 257.371 124.248 277.139 90.054 306.236C42.1485 347 -28.9444 347 14.3969 376.605V376.614Z" fill="white"/>
<path d="M22.3048 377.159C25.1222 379.036 28.0523 380.716 31.0951 382.199C53.3903 393.125 81.4612 394.129 108.837 390.703C128.522 384.602 148.121 376.633 148.121 376.633L172.746 365.182C172.746 365.182 192.43 353.637 196.797 352.172C201.173 350.718 227.206 333.531 231.029 331.035C234.851 328.528 252.45 316.392 252.45 316.392C252.45 316.392 269.515 304.058 272.52 302.209C275.534 300.37 284.607 297.845 294.956 296.559C305.305 295.273 320.378 298.999 320.378 298.999L323.262 292.804L328.089 284.244L328.502 283.521L315.063 275.44L310.236 273.656L282.465 263.397C282.465 263.397 282.4 263.378 282.259 263.341C280.672 262.947 269.477 260.281 243.66 255.916C243.622 255.916 243.576 255.916 243.538 255.898C233.686 254.236 223.581 253.814 214.622 253.945C202.526 254.124 192.533 255.334 188.082 255.963C153.944 261.98 131.038 281.072 97.192 309.174C49.7746 348.54 -20.5951 348.54 22.3048 377.14V377.159Z" fill="#EBE0B2"/>
<path d="M67.3837 377.853L78.7003 392.421C86.3637 392.27 94.1304 391.632 101.831 390.647C155.456 383.748 206.47 359.531 207.4 359.09C207.287 359.39 207.175 359.7 207.071 360L219.252 353.289C219.252 353.289 232.794 344.363 240.927 337.915C249.06 331.466 263.251 315.951 263.251 315.951C263.251 315.951 270.388 307.362 286.147 303.317C291.462 301.956 296.13 301.665 299.971 301.881C306.968 302.275 311.269 304.33 311.879 304.64C311.926 304.668 311.954 304.678 311.954 304.678L315.664 296.23L307.381 290.392L285.518 275.008L196.262 293.095L67.3837 377.853Z" fill="#A09150"/>
<path d="M67.3837 369.79L78.7003 384.358C86.3637 384.208 94.1398 383.616 101.831 382.584C185.922 371.32 219.252 345.227 219.252 345.227C219.252 345.227 232.794 336.3 240.927 329.852C249.06 323.404 263.251 307.888 263.251 307.888C263.251 307.888 269.44 301.778 286.692 298.07C292.054 296.916 297.435 297.516 301.276 297.732C308.273 298.126 313.232 300.079 313.842 300.388C313.889 300.417 315.542 295.714 315.542 295.714L315.664 288.177L307.381 282.339L285.518 266.955L196.262 285.042L67.3837 369.8V369.79Z" fill="#BFB382"/>
<path d="M23.2813 381.833C23.2813 381.833 23.2813 381.833 23.2907 381.833C45.8113 393.144 74.1733 394.186 101.831 390.638C121.722 384.321 141.519 376.07 141.519 376.07L166.397 364.215C166.397 364.215 186.278 352.257 190.692 350.746C195.116 349.235 221.412 331.448 225.272 328.857C229.131 326.267 246.909 313.698 246.909 313.698C246.909 313.698 264.152 300.924 267.185 299.018C270.228 297.113 279.394 294.504 289.856 293.171C300.309 291.838 315.542 295.696 315.542 295.696L318.453 289.285L323.327 280.424L320.266 279.26L292.213 268.635H292.204C292.204 268.635 292.138 268.616 291.997 268.579C290.392 268.175 279.084 265.406 253.004 260.891C252.967 260.882 252.92 260.882 252.882 260.873C242.927 259.155 232.719 258.714 223.666 258.855C211.447 259.042 201.352 260.291 196.853 260.948H196.844C162.359 267.18 139.218 286.948 105.024 316.045C59.7293 354.585 -6.29218 356.688 23.2813 381.824V381.833Z" fill="#FCF7D8"/>
<path d="M303.727 332.705L315.664 326.088L327.628 321.573L337.705 320.747L350.515 322.033C350.515 322.033 360.47 325.6 374.463 333.71C388.456 341.829 408.197 358.846 411.822 362.469C415.344 365.989 425.12 375.995 425.731 376.614L425.759 376.642L445.979 389.727L450.252 392.486C450.252 392.486 458.131 396.475 459.916 397.386C460.103 397.48 460.225 397.545 460.263 397.564C460.301 397.583 460.441 397.658 460.676 397.78C462.508 398.728 469.805 402.454 472.265 403.722C472.782 403.975 473.082 404.135 473.082 404.135C473.082 404.135 473.43 404.304 474.012 404.585C475.768 405.439 479.619 407.317 482.474 408.659C486.268 410.452 498.167 414.272 498.167 414.272L503.839 414.628L503.971 414.722C524.782 415.539 560.216 409.663 576.876 398.484C578.407 397.461 579.778 396.391 580.961 395.265C584.568 391.895 586.483 388.122 585.986 383.973C585.751 382.011 585.309 380.369 584.69 378.989C577.637 363.07 547.472 381.185 540.588 341.416C534.962 308.939 523.57 293.602 518.255 287.98L516.095 285.887L515.475 285.295L508.15 278.209C508.15 278.209 495.809 268.409 483.807 260.806C471.805 253.194 449.923 247.459 449.923 247.459L429.788 244.625L417.128 245.413C417.128 245.413 417.1 245.413 417.053 245.422C416.264 245.554 409.371 246.689 390.645 250.519C390.26 250.594 389.865 250.679 389.461 250.773C381.122 252.631 371.148 256.339 362.367 260.037C362.198 260.112 362.02 260.178 361.851 260.253C351.877 264.476 343.537 268.616 341.02 269.883C340.513 270.146 340.241 270.287 340.241 270.287L325.731 278.434L324.097 279.354L324.013 279.504L320.904 285.248L317.861 290.88L315.711 296.08L312.64 303.523L307.794 318.091L303.727 332.705Z" fill="white"/>
<path d="M303.727 332.705L315.663 326.088L327.628 321.573L337.705 320.747L350.515 322.033C350.515 322.033 360.47 325.6 374.463 333.71C388.456 341.829 408.197 358.846 411.822 362.469C415.344 365.989 425.12 375.995 425.731 376.614L425.759 376.643L445.978 389.727L450.251 392.487C450.251 392.487 458.131 396.476 459.915 397.386C460.103 397.48 460.225 397.546 460.263 397.565C460.3 397.583 460.441 397.658 460.676 397.78C462.507 398.728 469.804 402.455 472.265 403.722C472.781 403.975 473.082 404.135 473.082 404.135C473.082 404.135 473.429 404.304 474.012 404.585C475.768 405.44 479.618 407.317 482.473 408.659C486.267 410.452 498.166 414.272 498.166 414.272L503.839 414.629L503.97 414.723C524.782 415.539 560.215 409.663 576.876 398.484C578.406 397.461 579.778 396.391 580.961 395.265C581.459 393.782 581.618 392.233 581.431 390.637C578.5 366.149 543.517 391.313 536.032 348.08C530.407 315.604 519.015 300.267 513.7 294.644L511.54 292.551L510.92 291.96L503.595 284.873C503.595 284.873 491.254 275.074 479.252 267.471C467.25 259.859 445.368 254.124 445.368 254.124L425.233 251.289L412.573 252.078C412.573 252.078 412.545 252.078 412.498 252.087C411.709 252.218 404.816 253.354 386.089 257.184C385.704 257.259 385.31 257.343 384.906 257.437C376.567 259.296 366.593 263.003 357.812 266.701C357.643 266.776 357.464 266.842 357.295 266.917C347.322 271.141 338.982 275.28 336.465 276.547C335.958 276.81 335.686 276.951 335.686 276.951L321.176 285.098L320.904 285.249L317.861 290.88L315.71 296.08L312.639 303.524L307.793 318.091L303.727 332.705Z" fill="#EBE0B2"/>
<path d="M310.451 272.08C310.451 272.08 298.524 275.008 296.89 293.171L316.011 295.846C316.011 295.846 321.43 283.015 323.045 279.927L310.451 272.089V272.08Z" fill="#E0D5A8"/>
<path d="M296.111 297.61C305.061 297.535 313.485 300.022 314.095 300.182C315.485 298.577 315.541 295.564 316.405 294.7C316.481 294.616 316.565 294.541 316.631 294.475L297.632 293.17C297.632 293.17 294.655 294.672 296.101 297.619L296.111 297.61Z" fill="#A89D6F"/>
<path d="M294.712 301.843C303.662 301.768 312.086 304.256 312.696 304.415C314.086 302.81 312.969 302.219 313.833 301.355C313.908 301.271 313.579 300.06 313.645 299.994C313.645 299.994 307.465 298.718 305.258 298.305C302.676 297.826 296.242 297.404 296.242 297.404C296.242 297.404 293.265 298.906 294.712 301.853V301.843Z" fill="#82743B"/>
<path d="M303.727 332.705L315.664 326.088L327.628 321.573L337.705 320.747L350.515 322.033C350.515 322.033 360.47 325.6 374.463 333.71C388.456 341.829 408.197 358.846 411.822 362.469C415.344 365.989 425.12 375.995 425.731 376.614L425.759 376.642L445.979 389.727L450.252 392.487C450.252 392.487 458.131 396.476 459.915 397.386C460.103 397.48 460.225 397.546 460.263 397.564C460.301 397.583 460.441 397.658 460.676 397.78C462.508 398.728 469.805 402.455 472.265 403.722C472.782 403.975 473.082 404.135 473.082 404.135C473.082 404.135 473.43 404.304 474.012 404.585C475.768 405.44 479.619 407.317 482.474 408.659C486.268 410.452 498.167 414.272 498.167 414.272L503.839 414.629L503.971 414.723C524.782 415.539 560.216 409.663 576.876 398.484C571.964 378.05 539.123 400.033 531.901 358.311C526.275 325.835 514.883 310.498 509.568 304.875L507.408 302.782L506.788 302.191L499.463 295.104C499.463 295.104 487.122 285.305 475.12 277.702C463.118 270.09 441.236 264.355 441.236 264.355L421.101 261.52L408.441 262.308C408.441 262.308 408.413 262.308 408.366 262.318C407.577 262.449 400.684 263.585 381.957 267.415C381.572 267.49 381.178 267.574 380.774 267.668C372.435 269.527 362.461 273.234 353.68 276.932C353.511 277.007 353.332 277.073 353.163 277.148C343.19 281.372 334.85 285.511 332.333 286.778C331.826 287.041 331.554 287.182 331.554 287.182L317.044 295.329L315.711 296.08L312.64 303.524L307.794 318.091L303.727 332.705Z" fill="#FCF7D8"/>
<path d="M303.727 332.705L315.664 326.088L327.628 321.573L337.705 320.747L350.515 322.033C350.515 322.033 360.47 325.6 374.463 333.71C388.456 341.829 408.197 358.846 411.822 362.469C415.344 365.989 425.12 375.995 425.731 376.614L425.759 376.642L445.979 389.727L450.252 392.486C450.252 392.486 458.131 396.476 459.916 397.386C460.103 397.48 460.225 397.546 460.263 397.564C460.301 397.583 460.441 397.658 460.676 397.78C462.508 398.728 469.805 402.455 472.265 403.722C472.782 403.975 473.082 404.135 473.082 404.135C473.082 404.135 473.43 404.304 474.012 404.585C475.768 405.44 479.619 407.317 482.474 408.659C486.268 410.452 498.167 414.272 498.167 414.272L503.839 414.629L503.971 414.723C524.782 415.539 560.216 409.663 576.876 398.484C578.407 397.461 579.778 396.391 580.961 395.265C584.568 391.895 586.483 388.122 585.986 383.973C585.751 382.011 585.309 380.369 584.69 378.989C583.516 379.965 580.576 383.541 579.506 384.921C556.365 414.798 493.79 409.081 476.266 396.26C434.446 365.661 413.184 312.581 364.781 307.025C323.74 302.313 307.052 320.747 307.052 320.747L303.727 332.705Z" fill="white"/>
<g opacity="0.59">
<path d="M353.737 46.1328C372.238 65.4408 384.569 89.9298 393.34 114.972C404.826 148.566 408.404 184.477 407.39 219.826C407.127 227.57 406.695 235.36 405.99 243.085L405.85 244.747C405.784 245.3 405.859 245.864 406.638 246.511L408.507 246.718C409.399 246.258 409.578 245.713 409.615 245.15L409.794 243.479C410.123 240.185 410.555 236.703 410.855 233.436C413.128 207.755 412.33 181.586 407.756 156.178C403.417 133.022 396.327 110.195 385.348 89.3008C377.018 73.4938 366.932 58.2888 353.727 46.1328H353.737Z" fill="#E0D5A8"/>
</g>
<path d="M429.562 244.09H429.628C432.596 244.231 447.321 246.887 447.321 246.887C447.321 246.887 468.208 252.256 485.638 261.858C503.069 271.46 514.808 284.667 514.808 284.667L515.71 285.192C516.348 284.92 517.128 284.488 518.01 283.906C520.152 282.536 522.903 280.33 525.627 277.711C535.976 267.771 546.016 251.796 521.532 251.308C487.488 250.623 493.846 247.591 472.058 225.449C464.047 217.311 457.088 213.124 451.482 211.097C441.837 207.587 436.211 210.44 436.211 210.44C436.446 212.327 436.54 214.232 436.502 216.128C436.474 218.615 436.249 221.084 435.892 223.468L435.873 223.797L435.761 224.304V224.341L433.807 232.826L433.779 232.911L432.924 236.665L431.093 240.711L431.055 240.805L429.562 244.09Z" fill="#F7F7F7"/>
<path d="M429.562 244.09H429.628C432.596 244.23 447.322 246.887 447.322 246.887C447.322 246.887 468.208 252.256 485.639 261.858C503.069 271.46 514.808 284.666 514.808 284.666L515.71 285.192C516.348 284.92 517.128 284.488 518.011 283.906C518.415 283.512 518.818 283.108 519.213 282.695C528.877 272.736 536.587 258.432 513.437 257.972C479.393 257.287 485.751 254.255 463.963 232.113C455.952 223.975 448.993 219.789 443.387 217.761C440.795 216.823 438.484 216.334 436.503 216.128C436.475 218.615 436.249 221.084 435.892 223.468L435.874 223.797L435.761 224.303V224.341L433.807 232.826L433.779 232.911L432.925 236.665L431.657 239.462L431.093 240.711L431.056 240.804L429.562 244.09Z" fill="#C4B781"/>
<path d="M429.563 244.09H429.628C432.596 244.231 447.322 246.887 447.322 246.887C447.322 246.887 468.208 252.256 485.639 261.858C503.069 271.46 514.808 284.667 514.808 284.667L515.71 285.192C516.349 284.92 517.128 284.488 518.011 283.906C518.415 283.512 518.818 283.109 519.213 282.696C483.15 241.368 433.263 239.791 431.657 239.462L431.093 240.711L431.056 240.805L429.563 244.09Z" fill="#AFA169"/>
<path d="M437.686 242.053C437.686 242.053 441.011 231.69 448.317 229.766C448.317 229.766 439.32 229.963 434.709 235.482C430.098 241.001 431 242.053 431 242.053H437.696H437.686Z" fill="#AFA169"/>
<path d="M433.742 235.154C433.742 235.154 441.49 229.607 448.74 229.766C448.74 229.766 440.41 226.434 434.287 231.268L433.263 233.352L433.733 235.154H433.742Z" fill="#AFA169"/>
<path d="M309.71 328.867C309.71 328.867 324.689 315.116 341.011 314.806C357.334 314.496 356.263 314.149 356.263 314.149C356.263 314.149 375.271 316.899 382.916 321.508C390.56 326.116 398.506 329.336 406.592 336.77C414.678 344.204 424.999 355.111 424.999 355.111C424.999 355.111 433.723 364.891 434.437 365.67C435.151 366.449 447.106 378.98 447.106 378.98L460.695 391.163L477.506 403.581L488.964 411.09C488.964 411.09 495.059 413.793 495.284 413.84C495.509 413.887 483.582 409.879 483.347 409.654C483.113 409.429 475.975 405.909 475.694 405.796C475.412 405.684 464.292 399.789 464.292 399.789L456.291 395.819L444.495 388.451L432.925 381.308L423.768 375.028L414.771 366.337L401.267 352.257L382.531 338.178C382.531 338.178 360.311 319.105 336.194 320.973C315.927 322.55 305.888 332.724 305.888 332.724L309.701 328.867H309.71Z" fill="#BFB382"/>
<path d="M56.2258 391.341L75.1119 392.458L88.7482 391.952L107.832 388.131L146.712 373.78L179.018 357.71L216.349 335.596C216.349 335.596 249.651 312.732 259.822 304.171C275.609 290.89 293.5 292.917 293.5 292.917C293.5 292.917 308.554 294.635 314.273 295.498C314.771 295.573 315.203 295.649 315.541 295.705L317.307 292.016L318.265 290.007C318.265 290.007 318.208 289.989 318.105 289.97C316.865 289.651 308.535 287.576 297.885 286.703C283.385 285.502 264.565 286.516 253.445 297.16C220.312 328.866 133.207 377.056 99.379 383.795C64.9786 390.637 56.2258 391.341 56.2258 391.341Z" fill="white"/>
<path d="M296.89 293.17C296.89 293.17 309.062 293.827 314.274 295.498C314.847 295.676 315.335 295.873 315.711 296.08L317.307 292.016L318.105 289.97C316.866 289.65 308.536 287.576 297.886 286.703C297.407 288.383 296.965 290.58 296.89 293.17Z" fill="#E2E2E2"/>
<path d="M90.0543 306.245C134.325 268.578 160.067 246.539 215.89 249.261C271.712 251.983 304.385 266.955 323.44 279.879C323.44 279.879 374.952 245.929 429.403 244.578C429.403 244.578 437.574 229.757 436.212 210.44C436.212 210.44 450.28 203.316 472.059 225.449C493.838 247.581 487.489 250.622 521.523 251.298C555.558 251.974 522.359 282.367 515.4 285.314C515.4 285.314 533.103 298.173 540.588 341.406C548.073 384.639 583.056 359.466 585.986 383.964C588.916 408.452 507.915 420.026 490.898 412.535C473.881 405.045 432.352 384.17 421.467 372.841C421.467 372.841 415.1 400.774 399.651 427.732H399.754C399.754 427.732 418.819 477.01 424.567 496.064C424.567 496.064 444.382 544.516 449.144 558.811C449.144 558.811 480.83 562.894 482.652 599.782C482.652 599.782 489.611 607.338 482.652 618.226C475.693 629.114 452.403 643.926 413.673 616.105C413.673 616.105 406.112 610.661 400.966 609.149C395.82 607.638 390.983 593.728 389.771 587.683C388.56 581.638 376.154 547.163 356.488 524.185C336.823 501.207 330.164 493.342 328.652 491.23C328.652 491.23 297.792 483.524 291.894 480.041C291.894 480.041 270.566 490.545 267.618 490.545C267.618 490.545 266.941 496.439 262.17 498.711C262.17 498.711 265.119 541.728 268.294 550.345C271.468 558.961 278.051 578.991 276.69 588.293C276.69 588.293 282.137 601.443 276.915 606.887C271.693 612.331 252.413 614.368 249.689 614.368C246.966 614.368 204.207 630.954 174.661 621.849C161.41 617.766 163.918 568.779 194.928 562.584C194.928 562.584 178.587 483.364 181.62 462.499C181.677 462.095 181.827 461.691 182.043 461.288C183.818 444.918 189.509 408.171 207.4 359.071C207.4 359.071 78.7471 420.561 14.3878 376.605C-28.9535 347.001 42.1488 347.001 90.0449 306.236L90.0543 306.245Z" stroke="black" stroke-width="2" stroke-miterlimit="10"/>
<path d="M224.801 213.265C224.811 213.434 224.858 213.584 224.924 213.744C227.384 234.807 265.513 251.542 312.179 251.542C358.845 251.542 397.537 234.563 399.481 213.275H399.491C399.491 213.275 399.491 213.199 399.5 213.096C399.538 212.655 399.557 212.214 399.557 211.782C399.594 211.05 399.632 210.083 399.679 208.919C399.989 201.26 400.439 185.519 399.322 178.705C399.284 178.489 399.209 178.283 399.134 178.076C394.269 152.883 348.251 133.933 312.179 132.947C272.35 131.849 238.738 147.665 228.229 168.596C226.079 172.867 224.895 177.335 224.811 181.924C224.567 187.021 224.135 204.311 224.801 213.265Z" fill="#EBA16F"/>
<path d="M227.892 190.607C227.929 193.995 228.033 197.187 228.221 199.711C228.239 199.871 228.286 200.031 228.352 200.181C230.813 221.244 268.932 237.979 315.608 237.979C339.114 237.979 360.452 233.737 376.154 226.828C387.17 221.985 395.416 215.837 399.679 208.919C399.942 202.349 400.318 189.837 399.708 182.112C399.614 180.826 399.482 179.672 399.323 178.705C399.285 178.489 399.21 178.283 399.135 178.076C394.27 152.883 348.252 133.933 312.18 132.947C272.351 131.849 238.739 147.665 228.23 168.596C228.052 172.416 227.789 182.14 227.892 190.607Z" fill="#EBA16F"/>
<path d="M230.522 190.607C230.559 193.995 230.663 197.187 230.841 199.712C230.86 199.871 230.907 200.031 230.972 200.181C233.395 221.244 270.933 237.979 316.894 237.979C340.044 237.979 361.053 233.737 376.511 226.828C387.358 221.985 395.482 215.837 399.68 208.919C399.943 202.349 400.309 189.837 399.708 182.112C391.152 158.909 348.318 141.864 314.34 140.935C274.736 139.837 241.312 155.652 230.85 176.584C230.728 179.231 230.569 184.694 230.522 190.607Z" fill="#FFD39F"/>
<path d="M224.811 181.924C225.309 154.808 264.245 131.623 312.179 132.938C348.251 133.932 394.269 152.883 399.134 178.076C399.209 178.283 399.284 178.489 399.322 178.705C400.608 186.552 399.82 206.216 399.566 211.773C399.566 212.214 399.538 212.646 399.5 213.087V213.275H399.482C397.537 234.553 359.192 251.533 312.179 251.533C265.504 251.533 227.384 234.797 224.924 213.734C224.858 213.584 224.811 213.425 224.792 213.265C224.125 204.301 224.567 187.021 224.801 181.924H224.811Z" stroke="black" stroke-width="2" stroke-miterlimit="10"/>
<path d="M357.23 196.623C351.525 196.623 346.899 192.001 346.899 186.299C346.899 180.596 351.525 175.974 357.23 175.974C362.935 175.974 367.561 180.596 367.561 186.299C367.561 192.001 362.935 196.623 357.23 196.623Z" fill="#1E1E1E"/>
<path d="M362.583 187.265C361.105 187.265 359.907 186.068 359.907 184.59C359.907 183.113 361.105 181.915 362.583 181.915C364.061 181.915 365.26 183.113 365.26 184.59C365.26 186.068 364.061 187.265 362.583 187.265Z" fill="white"/>
<path d="M357.538 166.524C350.55 164.117 345.649 159.953 346.591 157.223C347.532 154.493 353.96 154.232 360.947 156.639C367.935 159.046 372.836 163.211 371.895 165.941C370.953 168.671 364.526 168.932 357.538 166.524Z" fill="#EBA16F"/>
<path d="M263.292 172.052C255.85 171.746 249.914 169.139 250.033 166.228C250.153 163.317 256.283 161.205 263.725 161.51C271.166 161.816 277.102 164.423 276.983 167.334C276.863 170.245 270.734 172.357 263.292 172.052Z" fill="#EBA16F"/>
<path d="M357.081 159.739C351.256 157.732 347.053 154.599 347.693 152.742C348.334 150.885 353.576 151.006 359.401 153.013C365.227 155.02 369.43 158.153 368.789 160.01C368.149 161.868 362.907 161.746 357.081 159.739Z" fill="#1E1E1E"/>
<path d="M357.081 159.739C351.256 157.732 347.053 154.599 347.693 152.742C348.334 150.885 353.576 151.006 359.401 153.013C365.227 155.02 369.43 158.153 368.789 160.01C368.149 161.868 362.907 161.746 357.081 159.739Z" stroke="black" stroke-width="2" stroke-miterlimit="10"/>
<path d="M262.52 167.29C256.364 167.038 251.438 165.242 251.519 163.279C251.599 161.316 256.656 159.929 262.812 160.181C268.969 160.434 273.895 162.23 273.814 164.193C273.733 166.156 268.677 167.543 262.52 167.29Z" fill="#1E1E1E"/>
<path d="M262.52 167.29C256.364 167.038 251.438 165.242 251.519 163.279C251.599 161.316 256.656 159.929 262.812 160.181C268.969 160.434 273.895 162.23 273.814 164.193C273.733 166.156 268.677 167.543 262.52 167.29Z" stroke="black" stroke-width="2" stroke-miterlimit="10"/>
<path d="M270.144 187.162C270.144 187.162 268.575 180.704 261.804 180.704C253.821 180.704 252.854 187.162 252.854 187.162" stroke="black" stroke-width="2" stroke-miterlimit="10" stroke-linecap="round"/>
<path d="M419.072 579.235C422.97 568.554 431.093 562.734 442.053 560.763C444.326 560.247 446.871 560.069 449.172 559.768L449.106 557.891C447.444 557.938 445.782 558.013 444.11 558.126C431.723 559.552 421.599 566.564 419.072 579.235Z" fill="black"/>
<path d="M482.643 599.791C482.643 599.791 467.259 623.126 449.134 618.686C424.397 612.641 397.932 589.804 389.762 587.692" stroke="black" stroke-width="2" stroke-miterlimit="10"/>
<path d="M233.808 576.964C225.985 567.118 212.715 561.824 200.328 561.477C198.515 561.43 196.693 561.561 194.89 561.664L194.984 563.542C197.52 563.635 200.328 563.598 202.873 563.861L204.188 563.945C205.005 564.067 207.249 564.339 208.094 564.452C208.949 564.612 211.137 565.025 211.964 565.194C220.068 567.193 227.91 570.957 233.817 576.973L233.808 576.964Z" fill="black"/>
<path d="M276.689 588.303C276.689 588.303 266.932 599.867 246.966 598.731C246.966 598.731 200.431 614.603 167.317 608.258" stroke="black" stroke-width="2" stroke-miterlimit="10"/>
<path d="M250.14 500.156C253.897 502.381 258.883 501.593 262.574 499.565L261.767 497.866C258.057 499.265 254.197 500.776 250.149 500.147L250.14 500.156Z" fill="black"/>
<path d="M265.119 467.051C273.242 472.842 282.145 477.629 291.574 480.933L292.213 479.168C289.94 478.239 287.658 477.301 285.395 476.324C279.056 473.537 271.392 469.876 265.109 467.051H265.119Z" fill="black"/>
<path d="M296.89 377.853C300.403 347.348 307.193 316.861 319.993 288.853C320.951 286.797 323.243 282.404 324.257 280.339L322.613 279.419C306.263 308.451 298.534 344.748 296.881 377.844L296.89 377.853Z" fill="black"/>
<path d="M303.371 335.108C303.371 335.108 323.515 313.144 353.164 322.822C382.812 332.499 411.86 362.282 421.458 372.86" stroke="black" stroke-width="2" stroke-miterlimit="10"/>
<path d="M493.518 413.427C440.287 383.138 431.516 356.077 402.468 333.4C373.42 310.723 333.338 304.828 303.717 333.56" stroke="black" stroke-width="2" stroke-miterlimit="10"/>
<path d="M515.4 285.323C515.4 285.323 482.192 247.225 429.403 244.578" stroke="black" stroke-width="2" stroke-miterlimit="10"/>
<path d="M449.144 229.757C439.574 228.968 431.037 235.069 428.501 244.296L430.295 244.841C432.981 236.215 440.024 230.367 449.134 229.757H449.144Z" fill="black"/>
<path d="M312.235 304.612C300.355 300.313 278.051 298.981 258.92 320.362C231.995 350.445 207.399 359.09 207.399 359.09" stroke="black" stroke-width="2" stroke-miterlimit="10"/>
<path d="M315.664 295.892C315.664 295.892 282.869 286.694 263.11 301.693C181.32 363.783 122.042 387.803 89.4347 391.895" stroke="black" stroke-width="2" stroke-miterlimit="10"/>
<path d="M261.494 377.854C261.494 377.854 265.767 393.585 259.118 410.668C252.469 427.751 242.073 436.274 242.073 436.274C242.073 436.274 248.787 428.07 254.272 408.284C257.014 398.391 261.494 377.854 261.494 377.854Z" fill="#DBAC19"/>
<path d="M233.808 423.133C233.808 423.133 235.076 428.314 231.263 437.475C227.197 447.246 215.927 452.953 215.927 452.953C215.927 452.953 224.455 442.919 228.822 433.749C231.714 427.676 233.808 423.133 233.808 423.133Z" fill="#DBAC19"/>
<path d="M261.494 377.854C258.339 389.727 254.836 403.816 251.07 415.399C248.609 422.729 246.205 430.248 241.753 436.658C253.117 424.484 259.503 394.448 261.494 377.863V377.854Z" fill="black"/>
<path d="M233.809 423.133C229.874 430.013 226.587 437.606 222.464 444.374C225.375 441.539 227.31 437.869 229.15 434.293C230.944 430.679 232.55 426.972 233.809 423.133Z" fill="black"/>
<g opacity="0.58">
<path d="M71.2334 367.237C133.17 365.219 189.931 332.912 236.747 294.344C246.073 286.919 256.864 280.799 268.894 279.457C273.656 278.913 278.652 279.119 283.395 279.879C278.671 278.575 273.684 277.861 268.791 278.011C258.808 278.284 249.125 282.019 240.673 287.201C236.982 289.397 232.08 293.142 228.577 295.714C220.745 301.496 212.884 307.193 204.779 312.562C164.546 339.51 119.702 360.93 71.2334 367.237Z" fill="#E0D5A8"/>
</g>
<g opacity="0.58">
<path d="M508.939 387.258C480.126 375.225 466.283 364.497 448.195 339.229C434.841 320.794 418.218 305.926 397.998 295.301C394.523 293.49 390.992 291.556 387.367 290.064C382.54 288.196 377.347 287.314 372.256 287.098C358.892 286.553 344.824 290.42 334.681 299.206C341.922 294.072 350.478 291.265 359.09 290.195C368.237 289.153 377.647 289.895 385.987 293.443C386.719 293.762 388.119 294.438 388.813 294.823C391.171 296.202 393.612 297.516 395.932 298.943C407.117 305.645 417.861 313.342 427.13 322.512C439.931 334.714 448.928 350.211 461.916 362.469C474.933 374.859 491.8 382.603 508.948 387.277L508.939 387.258Z" fill="#E0D5A8"/>
</g>
<g opacity="0.58">
<path d="M221.496 267.527C208.705 265.762 195.097 266.861 183.254 272.38C171.797 278.19 160.687 284.648 150.356 292.326C160.508 287.811 174.708 280.48 184.785 275.468C187.537 274.097 190.458 273.037 193.425 272.108C202.544 269.414 211.945 268.231 221.496 267.527Z" fill="#E0D5A8"/>
</g>
<g opacity="0.58">
<path d="M405.605 271.075C420.848 272.915 436.203 274.285 451.032 278.265C465.598 282.677 478.84 290.796 490.645 300.473C488.259 297.404 485.47 294.663 482.568 292.063C473.702 284.319 463.381 278.246 451.952 274.999C436.851 271.122 421.111 270.409 405.615 271.075H405.605Z" fill="#E0D5A8"/>
</g>
<g opacity="0.58">
<path d="M275.225 272.079C257.174 266.26 236.419 270.418 221.421 281.944C203.249 297.788 182.456 310.178 161.119 321.31C132.644 336.018 103.015 349.047 72.0417 357.56C66.867 358.93 61.6548 360.16 56.3674 360.986C51.0895 361.784 45.6988 362.347 40.3739 361.558C51.0425 363.267 61.899 360.883 72.3141 358.63C103.653 350.877 133.649 338.327 162.406 323.779C181.498 313.858 200.178 302.772 216.491 288.618C219.318 286.027 222.567 283.193 225.723 281.034C239.913 271.178 258.452 267.593 275.225 272.079Z" fill="#E0D5A8"/>
</g>
<g opacity="0.58">
<path d="M115.251 318.701C95.8108 333.278 74.7459 347.16 50.5818 352.041C74.1824 350.164 98.253 334.517 115.251 318.701Z" fill="#E0D5A8"/>
</g>
<g opacity="0.58">
<path d="M429.403 287.248C455.568 295.752 484.625 309.352 501.388 331.861C505.549 337.539 508.751 343.903 510.517 350.661C511.409 354.125 511.841 357.842 512.883 361.268C516.762 376.042 528.342 387.784 543.302 391.238C546.871 392.111 550.533 392.59 554.168 392.458C540.09 390.637 526.698 382.706 520.199 369.997C518.603 366.918 517.316 363.661 516.415 360.282C515.428 356.819 515.062 353.205 514.104 349.704C512.16 342.458 508.695 335.69 504.262 329.749C486.719 306.921 456.807 293.715 429.403 287.238V287.248Z" fill="#E0D5A8"/>
</g>
<g opacity="0.59">
<path d="M381.798 145.187C377.525 105.352 358.094 46.0399 317.119 30.8809C310.94 28.6279 304.366 27.6049 297.886 27.7179C304.309 28.3089 310.639 29.8019 316.518 32.4019C355.474 49.7569 372.566 106.628 381.798 145.187Z" fill="#E0D5A8"/>
</g>
<path d="M244.063 78.4219C244.063 78.4219 225.91 100.536 227.863 139.198" stroke="white" stroke-width="5" stroke-miterlimit="10" stroke-linecap="round"/>
<path d="M51.5211 372.907C51.9061 372.907 52.2818 372.954 52.6481 373.029C72.6517 375.826 93.9608 370.607 99.154 369.208C99.436 369.105 99.737 369.021 100.046 368.964C100.244 368.908 100.356 368.88 100.356 368.88V368.917C100.572 368.889 100.779 368.88 100.986 368.88C103.878 368.88 106.235 371.226 106.235 374.127C106.235 376.52 104.629 378.538 102.432 379.167C84.6821 387.427 52.1033 383.4 52.1033 383.4V383.372C51.9155 383.391 51.7183 383.41 51.5305 383.41C48.6379 383.41 46.2807 381.063 46.2807 378.163C46.2807 375.263 48.6285 372.916 51.5305 372.916L51.5211 372.907Z" fill="white"/>
<path d="M51.5211 372.907C51.9061 372.907 52.2818 372.954 52.6481 373.029C72.6517 375.826 93.9608 370.607 99.154 369.209C99.436 369.105 100.77 368.871 100.986 368.871C103.878 368.871 106.235 371.217 106.235 374.118C106.235 376.511 104.545 378.107 102.432 379.158C86.1096 387.211 52.1033 383.391 52.1033 383.391C52.1033 383.391 51.7183 383.391 51.5305 383.391C48.6379 383.391 46.2807 381.045 46.2807 378.144C46.2807 375.244 48.6285 372.897 51.5305 372.897L51.5211 372.907Z" stroke="black" stroke-width="2" stroke-miterlimit="10"/>
<path d="M460.732 361.277C461.024 361.531 461.286 361.803 461.512 362.094C475.054 377.037 494.344 387.249 499.124 389.652C499.406 389.764 499.678 389.896 499.951 390.055C500.139 390.149 500.233 390.196 500.233 390.196L500.214 390.234C500.383 390.346 500.552 390.478 500.712 390.609C502.909 392.496 503.304 395.65 501.576 397.668C500.148 399.338 497.725 399.695 495.687 398.7C477.28 392.918 454.919 368.946 454.919 368.946L454.938 368.927C454.778 368.814 454.628 368.702 454.478 368.58C452.28 366.693 451.886 363.539 453.614 361.521C455.342 359.503 458.516 359.4 460.723 361.277H460.732Z" fill="white"/>
<path d="M460.883 361.108C461.174 361.361 461.437 361.634 461.662 361.934C475.148 376.943 500.787 390.215 500.946 390.356C503.144 392.242 503.369 395.349 501.707 397.527C499.697 400.174 495.715 398.672 495.715 398.672C477.149 393.068 454.722 368.936 454.431 368.636C452.43 366.543 451.886 363.539 453.67 361.465C455.454 359.39 458.676 359.221 460.883 361.108Z" stroke="black" stroke-width="2" stroke-miterlimit="10"/>
<path d="M420.369 373.311L412.827 391.069C412.827 391.069 417.373 394.73 418.735 395.903C420.096 397.077 423.628 390.741 423.703 390.516C423.778 390.29 422.087 374.747 422.087 374.747L420.369 373.311Z" fill="#FFD39F"/>
<path d="M412.687 395.002L415.852 397.611C416.575 398.062 416.734 394.242 416.734 394.242L413.382 391.51L412.696 395.002H412.687Z" fill="#FFE5C9"/>
</g>
</svg>
