<svg width="370" height="372" viewBox="0 0 370 372" fill="none" xmlns="http://www.w3.org/2000/svg">
<g clip-path="url(#clip0_476_1695)">
<rect x="-14" y="-13" width="400" height="399" fill="#18AF55"/>
<path d="M-4.83106 274.253H28.5857V198.508H50.8635V169.547H28.5857V124.991H55.3191V96.0303H-4.83106V274.253ZM69.3785 96.0303L52.6701 272.025V274.253H83.8591L87.6463 231.925H100.122L103.909 274.253H135.098V272.025L118.39 96.0303H69.3785ZM87.8691 202.964L92.7702 141.7H94.998L99.8991 202.964H87.8691ZM143.179 96.0303V274.253H176.596L175.036 206.528H178.378L191.076 274.253H223.379V272.025L206.671 196.949C218.924 184.919 225.607 172.443 225.607 150.165C225.607 115.635 204.22 96.0303 176.15 96.0303H143.179ZM176.596 122.764H177.71C185.507 122.764 192.19 128.779 192.19 140.586V165.092C192.19 176.899 185.507 182.914 177.71 182.914H176.596V122.764ZM245.627 96.0303L228.919 272.025V274.253H260.108L263.895 231.925H276.371L280.158 274.253H311.347V272.025L294.639 96.0303H245.627ZM264.118 202.964L269.019 141.7H271.247L276.148 202.964H264.118ZM318.314 274.253H397.4V246.406H353.959L397.4 121.65V96.0303H318.314V123.878H361.756L318.314 248.633V274.253Z" fill="#179B4C"/>
<path d="M312.393 384.509C312.393 387.858 312.223 391.164 311.9 394.44H58.5527C60.0953 347.766 93.0033 309.841 129.356 289.127C137.642 284.404 146.112 280.577 154.427 277.741C157.6 276.654 160.751 275.714 163.866 274.928C165.944 274.406 168.346 274.37 170.895 274.605C177.866 275.251 185.873 277.896 190.993 277.896C192.131 277.896 193.189 277.815 194.188 277.683C201.379 276.728 205.434 272.879 212.912 274.157C227.86 276.713 241.493 281.407 253.54 287.849C290.334 307.498 312.393 343.433 312.393 384.509Z" fill="#50CC6A"/>
<path d="M278.25 384.508C278.25 387.858 278.081 391.163 277.758 394.439H58.5527C60.4479 337.13 109.634 293.005 154.427 277.741C155.293 277.836 156.101 277.895 156.851 277.895C162.837 277.895 166.664 275.75 170.895 274.604C173.246 273.965 175.721 273.635 178.762 274.156C184.073 275.067 189.223 276.242 194.188 277.682C245.901 292.557 278.25 334.757 278.25 384.508Z" fill="#60EF82"/>
<path d="M244.748 283.676C244.108 305.125 221.315 322.343 193.285 322.343C165.254 322.343 142.461 303.516 142.461 281.641C142.461 280.885 159.495 274.957 187.658 274.957C207.711 274.957 227.023 274.362 244.74 283.669L244.748 283.676Z" fill="#50CC6A"/>
<path d="M232.238 278.858C231.753 296.37 213.411 312.588 192.205 312.588C170.998 312.588 153.266 298.11 153.266 280.246C153.266 279.629 153.288 279.027 153.332 278.417C164.329 275.464 179.284 272.688 191.294 272.688C206.463 272.688 218.766 274.252 232.238 278.858Z" fill="white"/>
<path d="M232.238 278.858C231.753 296.37 213.411 312.589 192.205 312.589C170.998 312.589 153.332 296.282 153.332 278.425" stroke="black" stroke-width="2.93821" stroke-miterlimit="10"/>
<path d="M264.918 347.105V394.44" stroke="black" stroke-width="2.93821" stroke-miterlimit="10" stroke-linecap="round"/>
<path d="M111.044 346.157V394.439" stroke="black" stroke-width="2.93821" stroke-miterlimit="10" stroke-linecap="round"/>
<path d="M312.393 384.508C312.393 387.858 312.223 391.163 311.9 394.439H58.5527C60.4332 337.614 108.811 293.747 153.295 278.13C164.791 274.09 178.498 278.85 188.606 278.85C202.804 278.85 213.646 273.716 225.906 277.006C279.029 291.257 312.393 333.993 312.393 384.516V384.508Z" stroke="black" stroke-width="2.93821" stroke-miterlimit="10"/>
<path d="M221.734 289.068C220.874 289.604 220 290.17 219.097 290.78C202.768 301.783 173.665 296.458 163.19 286.872C162.433 286.181 161.647 285.55 160.847 284.991L161.339 279.166L162.397 266.532L165.673 227.417H215.365L216.952 242.784L220.977 281.759L221.734 289.068Z" fill="#F1BA95"/>
<path d="M216.952 245.245C208.908 267.355 178.329 273.07 161.779 273.893L165.672 227.41H215.365L216.952 245.238V245.245Z" fill="#D7996F"/>
<path d="M221.734 289.068L215.365 227.417H165.673L160.847 284.991C160.847 284.991 188.664 309.54 221.734 289.068Z" stroke="black" stroke-width="2.93821" stroke-miterlimit="10"/>
<path d="M272.847 196.299C281.517 185.141 282.775 171.613 275.657 166.082C268.539 160.551 255.741 165.111 247.071 176.269C238.401 187.426 237.142 200.955 244.26 206.486C251.378 212.017 264.177 207.456 272.847 196.299Z" fill="#D7996F"/>
<path d="M272.847 196.299C281.517 185.141 282.775 171.613 275.657 166.082C268.539 160.551 255.741 165.111 247.071 176.269C238.401 187.426 237.142 200.955 244.26 206.486C251.378 212.017 264.177 207.456 272.847 196.299Z" stroke="black" stroke-width="2.93821" stroke-miterlimit="10"/>
<path d="M274.299 179.979C274.299 179.979 274.247 173.207 270.038 173.243C265.322 173.28 263.604 176.967 261.966 186.862C260.327 196.756 257.676 198.776 253.981 199.327" stroke="black" stroke-width="2.93821" stroke-miterlimit="10" stroke-linecap="round"/>
<path d="M138.259 206.821C137.209 207.592 136.048 208.15 134.799 208.51C127.417 210.618 117.111 205.638 109.942 195.905C105.939 190.47 103.64 184.527 103.125 179.231C102.567 173.443 104.124 168.418 107.915 165.627C112.417 162.314 118.992 162.931 125.338 166.582C129.239 168.822 133.044 172.209 136.232 176.542C137.047 177.652 137.796 178.783 138.472 179.921C144.708 190.484 144.811 202.002 138.259 206.821Z" fill="#D7996F"/>
<path d="M138.259 206.821C137.209 207.592 136.048 208.15 134.799 208.51C127.417 210.618 117.111 205.638 109.942 195.905C105.939 190.47 103.64 184.527 103.125 179.231C102.567 173.443 104.124 168.418 107.915 165.627C112.417 162.314 118.992 162.931 125.338 166.582C129.239 168.822 133.044 172.209 136.232 176.542C137.047 177.652 137.796 178.783 138.472 179.921C144.708 190.484 144.811 202.002 138.259 206.821Z" stroke="black" stroke-width="2.93821" stroke-miterlimit="10"/>
<path d="M108.855 179.613C108.855 179.613 109.083 172.848 113.292 172.987C118.008 173.149 119.631 176.881 121.012 186.812C122.393 196.743 124.993 198.836 128.666 199.475" stroke="black" stroke-width="2.93821" stroke-miterlimit="10" stroke-linecap="round"/>
<path d="M257.242 165.487C257.242 166.008 257.235 166.537 257.228 167.059C257.22 167.632 257.213 168.205 257.191 168.778C257.191 168.814 257.191 168.851 257.191 168.881C257.169 169.417 257.154 169.946 257.125 170.482C257.022 172.685 256.853 174.867 256.618 177.019C256.375 179.172 256.074 181.302 255.714 183.395C255.626 183.917 255.531 184.446 255.428 184.96C255.332 185.481 255.23 186.003 255.119 186.517C255.024 187.039 254.906 187.553 254.789 188.067C254.686 188.53 254.576 189 254.466 189.463C254.458 189.521 254.444 189.588 254.422 189.646C254.326 190.072 254.216 190.498 254.113 190.917C254.076 191.086 254.032 191.255 253.981 191.417C253.885 191.791 253.79 192.166 253.687 192.54C253.408 193.569 253.114 194.59 252.798 195.596C252.651 196.081 252.504 196.558 252.343 197.036C252.343 197.058 252.335 197.073 252.328 197.095C252.174 197.572 252.012 198.05 251.851 198.52C251.52 199.482 251.175 200.437 250.822 201.384C250.462 202.332 250.088 203.265 249.706 204.19C249.515 204.646 249.324 205.101 249.125 205.549C248.729 206.468 248.317 207.378 247.884 208.275C247.877 208.297 247.869 208.319 247.855 208.348C247.649 208.774 247.443 209.2 247.23 209.619C247.054 209.986 246.863 210.353 246.679 210.721C246.195 211.668 245.695 212.601 245.174 213.519C244.99 213.85 244.799 214.188 244.608 214.511C244.417 214.842 244.226 215.172 244.035 215.495C243.646 216.149 243.249 216.795 242.845 217.434C242.448 218.059 242.044 218.676 241.64 219.286C240.979 220.27 240.296 221.239 239.591 222.194C239.187 222.753 238.776 223.296 238.357 223.832C238.129 224.126 237.901 224.413 237.674 224.699C236.227 226.506 234.713 228.225 233.142 229.863C232.774 230.252 232.392 230.634 232.01 231.016C231.966 231.06 231.922 231.105 231.871 231.156C231.503 231.516 231.129 231.876 230.754 232.228C230.35 232.61 229.946 232.985 229.542 233.352C229.52 233.374 229.498 233.389 229.476 233.411C229.094 233.749 228.712 234.087 228.33 234.41C228.198 234.52 228.073 234.63 227.941 234.748C227.574 235.056 227.214 235.358 226.839 235.659C226.391 236.019 225.943 236.371 225.487 236.724C225.039 237.069 224.577 237.407 224.121 237.745C223.739 238.024 223.35 238.296 222.961 238.568C222.865 238.626 222.77 238.692 222.674 238.766C222.255 239.052 221.837 239.332 221.411 239.611C221.352 239.64 221.293 239.677 221.234 239.721C220.786 240.007 220.338 240.286 219.883 240.566C218.899 241.168 217.9 241.741 216.893 242.277C216.82 242.314 216.754 242.351 216.688 242.387C216.306 242.586 215.924 242.784 215.542 242.968C215.49 242.99 215.439 243.019 215.395 243.041C212.927 244.268 210.378 245.318 207.77 246.156C207.241 246.324 206.712 246.493 206.183 246.648C205.118 246.964 204.038 247.243 202.959 247.478C199.168 248.337 195.268 248.785 191.279 248.785C188.929 248.785 186.608 248.631 184.323 248.322C183.838 248.264 183.361 248.19 182.883 248.109H182.876C182.391 248.036 181.914 247.948 181.436 247.86C181.37 247.845 181.304 247.838 181.238 247.816C181.062 247.786 180.885 247.75 180.709 247.713C180.408 247.654 180.114 247.595 179.82 247.522C179.673 247.492 179.526 247.456 179.38 247.426C179.056 247.353 178.741 247.272 178.417 247.191C178.27 247.155 178.131 247.118 177.984 247.088C177.69 247.008 177.389 246.927 177.095 246.846C176.845 246.78 176.603 246.706 176.361 246.64C176.059 246.552 175.751 246.464 175.45 246.361C175.273 246.31 175.097 246.251 174.921 246.192C174.26 245.979 173.599 245.752 172.945 245.516C172.717 245.436 172.489 245.348 172.269 245.267C172.13 245.215 171.99 245.157 171.85 245.098C171.718 245.054 171.586 245.002 171.446 244.944C171.233 244.863 171.028 244.782 170.822 244.694C170.631 244.613 170.44 244.54 170.256 244.451C170.161 244.415 170.065 244.378 169.977 244.334C169.595 244.172 169.213 244.003 168.831 243.827L168.258 243.563C168.089 243.489 167.928 243.408 167.759 243.328C167.605 243.254 167.458 243.181 167.303 243.1C166.628 242.769 165.952 242.417 165.283 242.057C165.012 241.91 164.74 241.763 164.475 241.616C164.365 241.55 164.248 241.484 164.138 241.418C163.851 241.263 163.579 241.102 163.3 240.933C163.116 240.823 162.926 240.72 162.749 240.602C162.727 240.588 162.705 240.58 162.69 240.566C162.522 240.47 162.36 240.367 162.198 240.264C161.949 240.11 161.706 239.956 161.456 239.794C161.074 239.552 160.7 239.302 160.325 239.052C160.024 238.854 159.723 238.648 159.429 238.435C159.098 238.208 158.775 237.98 158.452 237.745C158.048 237.451 157.644 237.15 157.24 236.841C155.822 235.762 154.441 234.616 153.097 233.411C152.943 233.271 152.796 233.139 152.642 233C152.37 232.75 152.091 232.493 151.819 232.228C150.027 230.539 148.308 228.732 146.67 226.829C146.391 226.514 146.119 226.198 145.854 225.875C145.796 225.808 145.744 225.735 145.678 225.669C145.612 225.588 145.546 225.507 145.48 225.426C145.208 225.096 144.944 224.773 144.687 224.435C144.275 223.913 143.871 223.392 143.467 222.863C143.225 222.54 142.982 222.209 142.733 221.879C142.637 221.746 142.549 221.621 142.461 221.489C142.196 221.129 141.939 220.762 141.682 220.395C141.601 220.277 141.513 220.152 141.432 220.027C141.183 219.66 140.94 219.3 140.698 218.94C140.478 218.61 140.257 218.265 140.037 217.927C139.883 217.684 139.728 217.442 139.574 217.199C139.435 216.979 139.302 216.759 139.163 216.531C138.311 215.157 137.503 213.747 136.731 212.307C136.68 212.227 136.636 212.138 136.592 212.058C136.004 210.97 135.438 209.869 134.902 208.737C134.866 208.664 134.836 208.59 134.807 208.524C134.799 208.517 134.792 208.517 134.799 208.51C134.263 207.4 133.749 206.269 133.264 205.131C133.051 204.631 132.838 204.124 132.633 203.618C132.53 203.36 132.427 203.111 132.324 202.854C132.221 202.597 132.118 202.347 132.023 202.09C131.825 201.575 131.626 201.061 131.435 200.547V200.532C131.244 200.011 131.061 199.497 130.877 198.968C129.922 196.25 129.092 193.459 128.379 190.594C128.328 190.403 128.284 190.205 128.24 190.014C128.144 189.654 128.056 189.294 127.983 188.934C127.895 188.574 127.814 188.214 127.74 187.854C127.542 187.002 127.366 186.15 127.204 185.283C127.131 184.908 127.057 184.534 126.991 184.152C126.888 183.586 126.793 183.013 126.697 182.433C126.602 181.86 126.514 181.28 126.426 180.707C126.352 180.229 126.286 179.752 126.227 179.267C126.205 179.12 126.183 178.973 126.168 178.826C126.095 178.29 126.036 177.747 125.977 177.203C125.926 176.726 125.875 176.248 125.823 175.763C125.786 175.433 125.757 175.102 125.735 174.772C125.698 174.412 125.669 174.059 125.647 173.699C125.595 173.075 125.551 172.45 125.515 171.819C125.471 171.077 125.434 170.32 125.405 169.564C125.39 169.292 125.382 169.013 125.375 168.734C125.368 168.513 125.36 168.286 125.36 168.065C125.346 167.573 125.331 167.081 125.338 166.581C125.324 166.214 125.324 165.847 125.324 165.48C125.324 164.657 125.331 163.841 125.353 163.026C125.36 162.578 125.375 162.137 125.39 161.689C125.397 161.557 125.405 161.439 125.405 161.315C125.434 160.661 125.463 160.014 125.5 159.368C125.537 158.78 125.573 158.2 125.618 157.612V157.59C125.654 157.084 125.691 156.577 125.742 156.07C125.823 155.108 125.926 154.16 126.036 153.212C126.066 152.948 126.095 152.691 126.124 152.434C126.198 151.868 126.271 151.303 126.352 150.737V150.722C126.44 150.113 126.536 149.503 126.631 148.901C126.866 147.402 127.138 145.926 127.447 144.464C127.469 144.339 127.498 144.214 127.52 144.089C127.52 144.082 127.52 144.067 127.52 144.053C127.586 143.759 127.645 143.465 127.711 143.178C127.887 142.341 128.086 141.518 128.284 140.696C128.343 140.468 128.402 140.233 128.46 140.005C128.497 139.851 128.541 139.697 128.578 139.55C128.703 139.05 128.835 138.565 128.974 138.073C129.026 137.86 129.092 137.647 129.151 137.434C129.312 136.869 129.474 136.31 129.643 135.759C130.076 134.32 130.539 132.895 131.039 131.499C131.156 131.154 131.288 130.809 131.413 130.471C131.538 130.125 131.67 129.788 131.795 129.442C131.964 128.987 132.14 128.531 132.324 128.083C132.478 127.701 132.633 127.312 132.787 126.93C132.846 126.798 132.897 126.666 132.956 126.533C133.161 126.063 133.36 125.593 133.565 125.123C133.624 124.976 133.69 124.837 133.749 124.697C133.808 124.572 133.867 124.44 133.925 124.315C134.322 123.426 134.733 122.545 135.167 121.671C135.211 121.583 135.262 121.487 135.299 121.399C135.402 121.193 135.505 120.988 135.607 120.789C136.151 119.709 136.717 118.637 137.312 117.587C137.436 117.366 137.561 117.139 137.686 116.918C137.76 116.771 137.848 116.624 137.936 116.477C138.156 116.095 138.377 115.714 138.604 115.339C139.405 114.002 140.243 112.694 141.102 111.416C141.352 111.042 141.609 110.674 141.866 110.307C142.123 109.94 142.38 109.573 142.644 109.213C142.902 108.853 143.166 108.493 143.438 108.133C143.695 107.795 143.952 107.45 144.216 107.112H144.231C144.231 107.112 144.231 107.097 144.238 107.09C144.51 106.752 144.775 106.414 145.039 106.084C145.061 106.054 145.083 106.025 145.113 105.995C145.362 105.68 145.627 105.364 145.884 105.055C145.899 105.033 145.913 105.011 145.935 104.989C146.222 104.644 146.516 104.299 146.824 103.953C147.089 103.652 147.353 103.351 147.625 103.05C147.669 102.998 147.72 102.94 147.772 102.888C148.029 102.602 148.286 102.315 148.55 102.029C148.829 101.728 149.116 101.426 149.41 101.125C149.711 100.809 150.012 100.501 150.313 100.2C150.754 99.759 151.195 99.3256 151.643 98.8996C152.091 98.4735 152.539 98.0548 152.994 97.6508C153.024 97.6215 153.053 97.5994 153.082 97.57C153.119 97.5333 153.156 97.5039 153.185 97.4745C153.259 97.4084 153.332 97.3497 153.398 97.2836C153.472 97.2174 153.553 97.1513 153.626 97.0852C153.773 96.953 153.927 96.8281 154.074 96.7033L154.559 96.2846C154.721 96.145 154.882 96.0128 155.044 95.8806C155.367 95.6088 155.69 95.3443 156.021 95.0725C156.344 94.8081 156.682 94.551 157.012 94.2939C157.255 94.1103 157.497 93.9266 157.747 93.743C157.835 93.6696 157.931 93.6034 158.019 93.5373C158.239 93.3757 158.459 93.2141 158.687 93.0599C158.805 92.9717 158.922 92.8836 159.04 92.8028C159.451 92.509 159.87 92.2151 160.288 91.936C160.384 91.8699 160.472 91.8038 160.568 91.745C160.575 91.7377 160.582 91.7303 160.59 91.7303C160.693 91.6642 160.795 91.5908 160.898 91.532C161.309 91.2529 161.728 90.9811 162.154 90.724C162.507 90.511 162.867 90.2979 163.219 90.0849C163.322 90.0262 163.425 89.9674 163.528 89.9086C163.822 89.7323 164.13 89.5561 164.431 89.3871C164.733 89.2108 165.041 89.0492 165.342 88.8803C165.372 88.8582 165.408 88.8435 165.445 88.8215C165.489 88.7995 165.526 88.7774 165.57 88.7554C165.761 88.6526 165.959 88.5497 166.15 88.4469C166.385 88.3293 166.62 88.2118 166.855 88.0943C167.362 87.8298 167.876 87.5874 168.383 87.345C168.67 87.2128 168.956 87.0806 169.243 86.9484C169.823 86.6913 170.411 86.4415 170.991 86.2065C171.321 86.0669 171.652 85.9347 171.99 85.8098C172.563 85.5821 173.143 85.3764 173.716 85.1781C173.914 85.1047 174.12 85.0385 174.326 84.9651C174.524 84.899 174.722 84.8329 174.928 84.7741C175.075 84.7227 175.222 84.6713 175.376 84.6272C175.81 84.495 176.243 84.3628 176.676 84.2379C177.176 84.0983 177.675 83.9587 178.182 83.8339C178.432 83.7678 178.682 83.7017 178.939 83.6429C179.189 83.5841 179.438 83.5254 179.695 83.4739C180.173 83.3638 180.65 83.2683 181.128 83.1728C181.179 83.1581 181.238 83.1507 181.297 83.1361C181.715 83.0553 182.141 82.9818 182.567 82.9157C183.148 82.8128 183.728 82.7247 184.308 82.6512C184.881 82.5704 185.454 82.5043 186.027 82.4456C187.753 82.2766 189.502 82.1885 191.265 82.1885C205.897 82.1885 219.413 88.2045 230.35 98.3854C244.542 111.578 254.385 131.778 256.706 154.946C257.051 158.398 257.228 161.917 257.228 165.487H257.242Z" fill="#D7996F"/>
<path d="M243.322 165.487C243.322 170.541 242.963 175.492 242.279 180.296C242.279 180.318 242.272 180.34 242.272 180.362C241.949 182.609 241.56 184.828 241.089 187.009C240.715 188.831 240.281 190.631 239.797 192.401C235.595 207.959 227.86 221.438 217.782 231.31C217.172 231.905 216.563 232.486 215.938 233.051C215.916 233.081 215.887 233.103 215.865 233.117C206.808 241.359 196.039 246.773 184.352 248.315C184.345 248.323 184.33 248.323 184.323 248.323C183.838 248.264 183.361 248.19 182.883 248.11H182.876C182.391 248.036 181.914 247.948 181.436 247.86C181.37 247.845 181.304 247.838 181.238 247.816C181.062 247.786 180.885 247.75 180.709 247.713C180.408 247.654 180.114 247.595 179.82 247.522C179.673 247.493 179.526 247.456 179.38 247.426C179.056 247.353 178.741 247.272 178.417 247.191C178.27 247.155 178.131 247.118 177.984 247.089C177.69 247.008 177.389 246.927 177.095 246.846C176.845 246.78 176.603 246.707 176.361 246.64C176.059 246.552 175.751 246.464 175.45 246.361C175.273 246.31 175.097 246.251 174.921 246.192C174.26 245.979 173.599 245.752 172.945 245.517C172.717 245.436 172.489 245.348 172.269 245.267C172.13 245.215 171.99 245.157 171.85 245.098C171.718 245.054 171.586 245.002 171.446 244.944C171.233 244.863 171.028 244.782 170.822 244.694C170.631 244.613 170.44 244.54 170.256 244.451C170.161 244.415 170.065 244.378 169.977 244.334C169.595 244.172 169.213 244.003 168.831 243.827L168.258 243.563C168.089 243.489 167.928 243.408 167.759 243.328C167.605 243.254 167.458 243.181 167.303 243.1C166.628 242.769 165.952 242.417 165.283 242.057C165.012 241.91 164.74 241.763 164.475 241.616C164.365 241.55 164.248 241.484 164.138 241.418C163.851 241.264 163.579 241.102 163.3 240.933C163.116 240.823 162.926 240.72 162.749 240.602C162.727 240.588 162.705 240.58 162.69 240.566C162.522 240.47 162.36 240.367 162.198 240.265C161.949 240.11 161.706 239.956 161.456 239.794C161.074 239.552 160.7 239.302 160.325 239.053C160.024 238.854 159.723 238.649 159.429 238.436C159.098 238.208 158.775 237.98 158.452 237.745C158.048 237.451 157.644 237.15 157.24 236.842C155.822 235.762 154.441 234.616 153.097 233.411C152.943 233.272 152.796 233.139 152.642 233C152.37 232.75 152.091 232.493 151.819 232.229C150.027 230.539 148.308 228.732 146.67 226.83C146.391 226.514 146.119 226.198 145.854 225.875C145.796 225.809 145.744 225.735 145.678 225.669C145.612 225.588 145.546 225.507 145.48 225.427C145.208 225.096 144.944 224.773 144.687 224.435C144.275 223.913 143.871 223.392 143.467 222.863C143.225 222.54 142.982 222.209 142.733 221.879C142.637 221.746 142.549 221.622 142.461 221.489C142.196 221.129 141.939 220.762 141.682 220.395C141.601 220.277 141.513 220.152 141.432 220.028C141.183 219.66 140.94 219.3 140.698 218.94C140.478 218.61 140.257 218.265 140.037 217.927C139.883 217.684 139.728 217.442 139.574 217.2C139.435 216.979 139.302 216.759 139.163 216.531C138.311 215.158 137.503 213.747 136.731 212.307C136.438 211.771 136.151 211.228 135.879 210.677C135.71 210.361 135.549 210.052 135.402 209.736C135.196 209.332 134.998 208.936 134.807 208.524C134.799 208.517 134.792 208.517 134.799 208.51C134.263 207.401 133.749 206.269 133.264 205.131C133.051 204.631 132.838 204.124 132.633 203.618C132.53 203.361 132.427 203.111 132.324 202.854C132.221 202.597 132.118 202.347 132.023 202.09C131.825 201.576 131.626 201.061 131.435 200.547V200.533C131.244 200.011 131.061 199.497 130.877 198.968C129.922 196.25 129.092 193.459 128.379 190.594C128.328 190.403 128.284 190.205 128.24 190.014C128.144 189.654 128.056 189.294 127.983 188.934C127.895 188.574 127.814 188.214 127.74 187.854C127.542 187.002 127.366 186.15 127.204 185.283C127.131 184.909 127.057 184.534 126.991 184.152C126.888 183.586 126.793 183.013 126.697 182.433C126.602 181.86 126.514 181.28 126.426 180.707C126.257 179.546 126.11 178.378 125.977 177.203C125.926 176.726 125.875 176.248 125.823 175.763C125.786 175.433 125.757 175.102 125.735 174.772C125.698 174.412 125.669 174.059 125.647 173.699C125.595 173.075 125.551 172.451 125.515 171.819C125.471 171.077 125.434 170.32 125.405 169.564C125.39 169.292 125.382 169.013 125.375 168.734C125.368 168.513 125.36 168.286 125.36 168.065C125.346 167.573 125.331 167.081 125.338 166.581C125.324 166.214 125.324 165.847 125.324 165.48C125.324 164.657 125.331 163.842 125.353 163.026C125.36 162.578 125.375 162.137 125.39 161.689C125.397 161.557 125.405 161.44 125.405 161.315C125.434 160.661 125.463 160.015 125.5 159.368C125.537 158.781 125.573 158.2 125.618 157.613V157.591C125.654 157.084 125.691 156.577 125.742 156.07C125.823 155.108 125.926 154.16 126.036 153.213C126.066 152.948 126.095 152.691 126.124 152.434C126.198 151.868 126.271 151.303 126.352 150.737V150.722C126.44 150.113 126.536 149.503 126.631 148.901C126.866 147.402 127.138 145.926 127.447 144.464C127.469 144.339 127.498 144.214 127.52 144.089C127.52 144.082 127.52 144.067 127.52 144.053C127.586 143.759 127.645 143.465 127.711 143.179C127.887 142.341 128.086 141.518 128.284 140.696C128.343 140.468 128.402 140.233 128.46 140.005C128.497 139.851 128.541 139.697 128.578 139.55C128.703 139.05 128.835 138.566 128.974 138.073C129.026 137.86 129.092 137.647 129.151 137.434C129.312 136.869 129.474 136.311 129.643 135.76C130.076 134.32 130.539 132.895 131.039 131.499C131.156 131.154 131.288 130.809 131.413 130.471C131.538 130.126 131.67 129.788 131.795 129.442C131.964 128.987 132.14 128.532 132.324 128.084C132.478 127.702 132.633 127.312 132.787 126.93C132.846 126.798 132.897 126.666 132.956 126.534C133.161 126.063 133.36 125.593 133.565 125.123C133.624 124.976 133.69 124.837 133.749 124.697C133.808 124.572 133.867 124.44 133.925 124.315C134.322 123.426 134.733 122.545 135.167 121.671C135.211 121.583 135.262 121.487 135.299 121.399C135.402 121.193 135.505 120.988 135.607 120.789C136.151 119.71 136.717 118.637 137.312 117.587C137.436 117.366 137.561 117.139 137.686 116.918C137.76 116.771 137.848 116.624 137.936 116.478C138.156 116.096 138.377 115.714 138.604 115.339C139.405 114.002 140.243 112.695 141.102 111.416C141.352 111.042 141.609 110.675 141.866 110.307C142.123 109.94 142.38 109.573 142.644 109.213C142.902 108.853 143.166 108.493 143.438 108.133C143.702 107.788 143.967 107.443 144.231 107.105C144.231 107.105 144.231 107.097 144.238 107.09C144.51 106.752 144.775 106.414 145.039 106.084C145.069 106.054 145.091 106.025 145.113 105.995C145.362 105.68 145.627 105.364 145.884 105.055C145.906 105.033 145.921 105.011 145.935 104.989C146.214 104.659 146.486 104.335 146.765 104.02C147.353 103.344 147.948 102.683 148.55 102.029C148.829 101.728 149.116 101.427 149.41 101.125C149.711 100.81 150.012 100.501 150.313 100.2C151.187 99.3184 152.083 98.4737 152.994 97.651C153.06 97.5922 153.127 97.5334 153.185 97.4747C153.479 97.2176 153.773 96.9531 154.074 96.7034C154.397 96.4243 154.721 96.1451 155.044 95.8807C155.698 95.3371 156.351 94.8082 157.02 94.294C157.358 94.037 157.688 93.7872 158.026 93.5375C158.364 93.2877 158.702 93.0453 159.047 92.8029C160.413 91.8333 161.802 90.9298 163.227 90.0851C163.579 89.872 163.939 89.6664 164.299 89.4607C164.681 89.2403 165.07 89.0273 165.452 88.8216C165.923 88.5719 166.393 88.3221 166.863 88.0944C167.37 87.83 167.884 87.5876 168.391 87.3452C168.677 87.213 168.964 87.0807 169.25 86.9485C169.83 86.6914 170.418 86.4417 170.998 86.2066C171.329 86.067 171.659 85.9348 171.997 85.8099C172.57 85.5822 173.151 85.3766 173.723 85.1782C173.922 85.1048 174.127 85.0387 174.333 84.9652C174.531 84.8991 174.73 84.833 174.935 84.7742C175.082 84.7228 175.229 84.6714 175.384 84.6273C175.817 84.4951 176.25 84.3629 176.684 84.238C177.183 84.0984 177.683 83.9589 178.19 83.834C178.439 83.7679 178.689 83.7018 178.946 83.643C179.196 83.5843 179.446 83.5255 179.703 83.4741C180.18 83.3639 180.658 83.2684 181.135 83.1729C181.187 83.1582 181.245 83.1509 181.304 83.1362C181.723 83.0554 182.149 82.9819 182.575 82.9158C183.155 82.813 183.735 82.7248 184.316 82.6514C191.558 83.6136 198.449 86.045 204.795 89.7178C207.748 91.4219 210.583 93.3979 213.279 95.6162C230.247 109.558 241.824 133.093 243.175 160.139C243.271 161.91 243.315 163.687 243.315 165.487H243.322Z" fill="#F1BA95"/>
<path d="M256.728 154.946H256.72L243.41 160.331C243.41 160.331 243.329 160.265 243.182 160.14C241.375 158.575 229.174 145.772 224.745 125.263C224.745 125.263 185.667 141.357 178.571 121.48C178.571 121.48 168.118 126.446 155.851 126.629C155.851 126.629 152.392 144.824 140.675 153.543C140.675 153.543 142.306 168.198 137.392 178.717C135.276 183.234 133.132 188.281 128.232 190.021C128.137 189.661 128.048 189.302 127.975 188.942C127.887 188.582 127.806 188.222 127.733 187.862C127.534 187.01 127.358 186.158 127.196 185.291C127.123 184.916 127.049 184.542 126.983 184.16C126.881 183.594 126.785 183.021 126.69 182.441C126.594 181.868 126.506 181.288 126.418 180.715C126.344 180.237 126.278 179.76 126.219 179.275C126.197 179.128 126.175 178.981 126.161 178.834C126.087 178.298 126.028 177.754 125.97 177.211C125.918 176.733 125.867 176.256 125.815 175.771C125.779 175.44 125.749 175.11 125.727 174.779C125.69 174.419 125.661 174.067 125.639 173.707C125.588 173.083 125.544 172.458 125.507 171.826C125.463 171.085 125.426 170.328 125.397 169.571C125.382 169.3 125.375 169.021 125.367 168.741C125.36 168.521 125.353 168.293 125.353 168.073C125.338 167.581 125.323 167.089 125.331 166.589C125.316 166.222 125.316 165.855 125.316 165.487C125.316 164.665 125.323 163.849 125.345 163.034C125.353 162.586 125.367 162.145 125.382 161.697C125.389 161.565 125.397 161.447 125.397 161.322C125.426 160.669 125.455 160.022 125.492 159.376C125.529 158.788 125.566 158.208 125.61 157.62V157.598C125.646 157.091 125.683 156.585 125.735 156.078C125.815 155.115 125.918 154.168 126.028 153.22C126.058 152.956 126.087 152.699 126.117 152.442C126.19 151.876 126.264 151.31 126.344 150.745V150.73C126.432 150.12 126.528 149.511 126.623 148.908C126.859 147.41 127.13 145.933 127.439 144.472C127.461 144.347 127.49 144.222 127.512 144.097C127.512 144.09 127.512 144.075 127.512 144.06C127.578 143.767 127.637 143.473 127.703 143.186C127.88 142.349 128.078 141.526 128.276 140.703C128.335 140.476 128.394 140.241 128.452 140.013C128.489 139.859 128.533 139.704 128.57 139.558C128.695 139.058 128.827 138.573 128.967 138.081C129.018 137.868 129.084 137.655 129.143 137.442C129.305 136.876 129.466 136.318 129.635 135.767C130.068 134.328 130.531 132.903 131.031 131.507C131.148 131.162 131.281 130.816 131.405 130.478C131.53 130.133 131.662 129.795 131.787 129.45C131.956 128.995 132.133 128.539 132.316 128.091C132.47 127.709 132.625 127.32 132.779 126.938C132.838 126.806 132.889 126.673 132.948 126.541C133.154 126.071 133.352 125.601 133.558 125.131C133.616 124.984 133.682 124.844 133.741 124.705C133.8 124.58 133.859 124.448 133.918 124.323C134.314 123.434 134.726 122.553 135.159 121.679C135.203 121.59 135.254 121.495 135.291 121.407C135.394 121.201 135.497 120.995 135.6 120.797C136.143 119.717 136.709 118.645 137.304 117.594C137.429 117.374 137.554 117.146 137.678 116.926C137.752 116.779 137.84 116.632 137.928 116.485C138.149 116.103 138.369 115.721 138.597 115.347C139.39 114.002 140.22 112.695 141.094 111.424C141.344 111.05 141.601 110.682 141.858 110.315C142.115 109.948 142.372 109.58 142.637 109.22C142.894 108.861 143.158 108.501 143.43 108.141C143.687 107.803 143.944 107.458 144.209 107.12H144.223C144.223 107.12 144.223 107.105 144.231 107.098C144.502 106.76 144.767 106.422 145.031 106.091C145.053 106.062 145.075 106.033 145.105 106.003C145.355 105.687 145.619 105.371 145.876 105.063C145.891 105.041 145.905 105.019 145.927 104.997C146.214 104.652 146.508 104.306 146.816 103.961C147.081 103.66 147.345 103.359 147.617 103.058C147.661 103.006 147.712 102.947 147.764 102.896C148.021 102.61 148.278 102.323 148.543 102.037C148.822 101.735 149.108 101.434 149.402 101.133C149.703 100.817 150.004 100.509 150.305 100.208C150.746 99.7668 151.187 99.3334 151.635 98.9074C152.083 98.4813 152.531 98.0626 152.987 97.6586C153.016 97.6292 153.045 97.6072 153.075 97.5778C153.111 97.5411 153.148 97.5117 153.177 97.4823C153.251 97.4162 153.324 97.3574 153.391 97.2913C153.464 97.2252 153.545 97.1591 153.618 97.093C153.927 96.8212 154.235 96.5494 154.551 96.2923C154.713 96.1528 154.874 96.0206 155.036 95.8883C155.359 95.6166 155.682 95.3521 156.013 95.0803C156.336 94.8159 156.674 94.5588 157.005 94.3017C157.247 94.1181 157.489 93.9344 157.739 93.7508C158.048 93.5157 158.364 93.288 158.679 93.0677C158.797 92.9795 158.914 92.8914 159.032 92.8106C159.443 92.5167 159.862 92.2229 160.281 91.9438C160.376 91.8777 160.464 91.8116 160.56 91.7528C160.567 91.7455 160.575 91.7381 160.582 91.7381C160.685 91.672 160.787 91.5985 160.89 91.5398C161.302 91.2607 161.72 90.9889 162.146 90.7318C162.499 90.5188 162.859 90.3057 163.212 90.0927C163.314 90.0339 163.417 89.9752 163.52 89.9164C163.814 89.7401 164.122 89.5638 164.424 89.3949C164.725 89.2186 165.033 89.057 165.334 88.888C165.364 88.866 165.401 88.8513 165.437 88.8293C165.481 88.8072 165.518 88.7852 165.562 88.7632C165.753 88.6603 165.951 88.5575 166.142 88.4547C166.363 88.3298 166.59 88.2123 166.818 88.0947H166.848L213.264 95.6239L230.342 98.3932H230.357C244.541 111.586 254.392 131.786 256.706 154.954L256.728 154.946Z" fill="#D7996F"/>
<path d="M257.25 165.48C257.25 166.001 257.242 166.53 257.235 167.051C257.235 167.338 257.228 167.624 257.213 167.904C257.213 168.197 257.213 168.491 257.191 168.778C257.191 168.814 257.191 168.851 257.191 168.881C257.169 169.417 257.154 169.946 257.125 170.482C257.103 171.033 257.073 171.584 257.037 172.127C256.941 173.773 256.802 175.403 256.618 177.019C256.5 178.092 256.368 179.164 256.214 180.229C256.067 181.294 255.898 182.352 255.714 183.395C255.626 183.917 255.531 184.446 255.428 184.96C255.332 185.481 255.23 186.003 255.119 186.517C255.024 187.039 254.906 187.553 254.789 188.067C254.686 188.53 254.576 189 254.466 189.463C254.458 189.521 254.444 189.588 254.422 189.646C254.326 190.072 254.216 190.498 254.113 190.917C254.076 191.086 254.032 191.255 253.981 191.417C253.885 191.791 253.79 192.166 253.687 192.541C253.408 193.569 253.114 194.59 252.798 195.596C252.651 196.081 252.504 196.559 252.343 197.036C252.343 197.058 252.335 197.073 252.328 197.095C252.174 197.572 252.012 198.05 251.851 198.52C251.527 199.482 251.182 200.437 250.822 201.385C250.462 202.332 250.088 203.265 249.706 204.191C249.515 204.646 249.324 205.101 249.125 205.549C248.729 206.468 248.317 207.379 247.884 208.275C247.877 208.297 247.869 208.319 247.855 208.348C247.649 208.774 247.443 209.2 247.23 209.619C247.054 209.986 246.863 210.353 246.679 210.721C246.195 211.668 245.695 212.601 245.174 213.519C244.99 213.85 244.799 214.188 244.608 214.511C244.417 214.842 244.226 215.172 244.035 215.495C243.646 216.149 243.249 216.795 242.845 217.435C242.448 218.059 242.044 218.676 241.64 219.286C240.979 220.27 240.296 221.24 239.591 222.194C239.194 222.745 238.783 223.296 238.357 223.833C238.137 224.119 237.901 224.413 237.674 224.699C236.227 226.506 234.714 228.225 233.142 229.863C232.774 230.252 232.392 230.634 232.01 231.016C231.966 231.061 231.922 231.105 231.871 231.156C231.503 231.516 231.129 231.876 230.754 232.228C230.35 232.61 229.946 232.985 229.542 233.352C229.52 233.374 229.498 233.389 229.476 233.411C229.094 233.749 228.712 234.087 228.33 234.41C228.198 234.52 228.073 234.63 227.941 234.748C227.574 235.056 227.214 235.358 226.839 235.659C226.391 236.019 225.943 236.371 225.487 236.724C225.039 237.069 224.577 237.407 224.121 237.745C223.739 238.024 223.35 238.296 222.961 238.568C222.865 238.626 222.77 238.693 222.674 238.766C222.255 239.045 221.837 239.332 221.411 239.611C221.352 239.64 221.293 239.677 221.234 239.721C220.786 240.007 220.338 240.287 219.883 240.566C218.899 241.161 217.907 241.734 216.893 242.27C216.827 242.307 216.761 242.343 216.688 242.373C216.306 242.578 215.924 242.777 215.542 242.968C215.49 242.99 215.439 243.019 215.395 243.041C214.153 243.658 212.905 244.224 211.634 244.745C210.995 245.002 210.356 245.252 209.717 245.487C209.07 245.722 208.424 245.943 207.77 246.156C207.241 246.325 206.712 246.493 206.183 246.648C205.118 246.956 204.046 247.235 202.959 247.478C202.011 247.691 201.056 247.882 200.094 248.043C197.214 248.528 194.276 248.778 191.287 248.778C188.943 248.778 186.63 248.624 184.352 248.315C183.86 248.256 183.368 248.19 182.883 248.109H182.876C182.604 248.065 182.332 248.021 182.053 247.97C181.818 247.926 181.576 247.882 181.333 247.838C181.304 247.83 181.267 247.823 181.238 247.816C181.003 247.772 180.768 247.728 180.525 247.676C180.29 247.625 180.055 247.581 179.82 247.522C179.673 247.492 179.526 247.456 179.38 247.426C179.056 247.353 178.741 247.272 178.417 247.191C178.27 247.155 178.131 247.118 177.984 247.088C177.69 247.008 177.389 246.927 177.095 246.846C176.845 246.78 176.603 246.706 176.361 246.64C176.052 246.545 175.751 246.457 175.45 246.361C175.273 246.303 175.097 246.251 174.921 246.192C174.26 245.979 173.599 245.752 172.945 245.517C172.578 245.384 172.218 245.245 171.85 245.098C171.718 245.054 171.586 245.002 171.446 244.944C171.241 244.863 171.028 244.775 170.822 244.694C170.631 244.613 170.447 244.532 170.256 244.451C170.161 244.415 170.065 244.378 169.977 244.334C169.595 244.172 169.213 244.003 168.831 243.827L168.258 243.563C167.935 243.416 167.619 243.261 167.303 243.1C166.628 242.769 165.952 242.417 165.283 242.057C165.012 241.91 164.747 241.763 164.475 241.609C164.365 241.55 164.248 241.484 164.138 241.418C163.91 241.285 163.675 241.153 163.44 241.014C163.396 240.992 163.344 240.962 163.3 240.933C163.116 240.823 162.933 240.713 162.749 240.602C162.727 240.588 162.705 240.58 162.69 240.566C162.272 240.316 161.868 240.059 161.456 239.794C161.074 239.552 160.7 239.302 160.325 239.052C160.024 238.854 159.723 238.648 159.429 238.435C159.098 238.208 158.775 237.98 158.452 237.745C158.048 237.451 157.644 237.15 157.24 236.841C155.822 235.762 154.441 234.616 153.097 233.411C152.884 233.213 152.671 233.022 152.458 232.823C152.245 232.625 152.032 232.434 151.819 232.228C150.027 230.539 148.308 228.732 146.67 226.829C146.391 226.514 146.119 226.198 145.854 225.875C145.796 225.808 145.744 225.735 145.678 225.669C145.612 225.588 145.546 225.507 145.48 225.426C145.215 225.103 144.951 224.773 144.687 224.435C144.275 223.913 143.871 223.392 143.467 222.863C143.298 222.635 143.129 222.415 142.96 222.18C142.791 221.952 142.622 221.724 142.461 221.489C142.108 221.004 141.77 220.52 141.432 220.028C141.183 219.66 140.94 219.3 140.698 218.94C140.478 218.61 140.257 218.265 140.037 217.927C139.883 217.684 139.728 217.442 139.574 217.199C139.435 216.979 139.302 216.759 139.163 216.531C138.311 215.157 137.503 213.747 136.731 212.307C136.68 212.227 136.636 212.138 136.592 212.058C136.489 211.874 136.393 211.69 136.298 211.499C136.254 211.411 136.202 211.323 136.158 211.235C136.063 211.051 135.975 210.86 135.879 210.677C135.71 210.361 135.549 210.052 135.402 209.736C135.336 209.612 135.27 209.487 135.211 209.362C135.189 209.325 135.167 209.281 135.145 209.237C135.064 209.075 134.983 208.906 134.902 208.737C134.866 208.664 134.836 208.591 134.807 208.524C134.799 208.517 134.792 208.517 134.799 208.51C134.263 207.401 133.749 206.269 133.264 205.131C133.051 204.631 132.838 204.124 132.633 203.618C132.53 203.36 132.427 203.111 132.324 202.854C132.221 202.597 132.118 202.347 132.023 202.09C131.825 201.576 131.626 201.061 131.435 200.547V200.532C131.244 200.011 131.061 199.497 130.877 198.968C129.922 196.25 129.092 193.459 128.379 190.594C128.328 190.403 128.284 190.205 128.24 190.014C128.144 189.654 128.056 189.294 127.983 188.934C127.895 188.574 127.814 188.214 127.74 187.854C127.542 187.002 127.366 186.15 127.204 185.283C127.131 184.908 127.057 184.534 126.991 184.152C126.778 183.013 126.595 181.867 126.426 180.707C126.352 180.229 126.286 179.752 126.227 179.267C126.205 179.12 126.183 178.973 126.168 178.826C126.095 178.29 126.036 177.747 125.977 177.203C125.926 176.726 125.875 176.248 125.823 175.763C125.786 175.433 125.757 175.102 125.735 174.772C125.698 174.412 125.669 174.059 125.647 173.699C125.595 173.075 125.551 172.45 125.515 171.819C125.471 171.077 125.434 170.32 125.405 169.564C125.382 169.064 125.368 168.565 125.36 168.065C125.346 167.573 125.331 167.081 125.338 166.581C125.324 166.214 125.324 165.847 125.324 165.48C125.324 164.657 125.331 163.842 125.353 163.026C125.36 162.578 125.375 162.137 125.39 161.689C125.397 161.557 125.405 161.44 125.405 161.315C125.434 160.661 125.463 160.014 125.5 159.368C125.537 158.78 125.573 158.2 125.618 157.612V157.59C125.654 157.084 125.691 156.577 125.742 156.07C125.823 155.108 125.926 154.16 126.036 153.213C126.066 152.948 126.095 152.691 126.124 152.434C126.198 151.868 126.271 151.303 126.352 150.737V150.722C126.44 150.113 126.536 149.503 126.631 148.901C126.866 147.402 127.138 145.926 127.447 144.464C127.469 144.339 127.498 144.214 127.52 144.089C127.52 144.082 127.52 144.067 127.52 144.053C127.586 143.759 127.645 143.465 127.711 143.179C127.887 142.341 128.086 141.518 128.284 140.696C128.343 140.468 128.402 140.233 128.46 140.005C128.497 139.851 128.541 139.697 128.578 139.55C128.703 139.05 128.835 138.566 128.974 138.073C129.026 137.86 129.092 137.647 129.151 137.434C129.312 136.869 129.474 136.31 129.643 135.76C130.076 134.32 130.539 132.895 131.039 131.499C131.156 131.154 131.288 130.809 131.413 130.471C131.538 130.125 131.67 129.788 131.795 129.442C131.964 128.987 132.14 128.532 132.324 128.083C132.478 127.701 132.633 127.312 132.787 126.93C132.846 126.798 132.897 126.666 132.956 126.534C133.161 126.063 133.36 125.593 133.565 125.123C133.624 124.976 133.69 124.837 133.749 124.697C133.808 124.572 133.867 124.44 133.925 124.315C134.322 123.426 134.733 122.545 135.167 121.671C135.211 121.583 135.262 121.487 135.299 121.399C135.402 121.193 135.505 120.988 135.607 120.789C136.151 119.71 136.717 118.637 137.312 117.587C137.436 117.366 137.561 117.139 137.686 116.918C137.76 116.771 137.848 116.624 137.936 116.477C138.156 116.096 138.377 115.714 138.604 115.339C139.398 113.995 140.228 112.687 141.102 111.416C141.352 111.042 141.609 110.675 141.866 110.307C142.123 109.94 142.38 109.573 142.644 109.213C142.902 108.853 143.166 108.493 143.438 108.133C143.695 107.795 143.952 107.45 144.216 107.112H144.231C144.231 107.112 144.231 107.097 144.238 107.09C144.51 106.752 144.775 106.414 145.039 106.084C145.061 106.054 145.083 106.025 145.113 105.995C145.362 105.68 145.627 105.364 145.884 105.055C145.899 105.033 145.913 105.011 145.935 104.989C146.222 104.644 146.516 104.299 146.824 103.953C147.089 103.652 147.353 103.351 147.625 103.05C147.919 102.705 148.234 102.367 148.55 102.029C148.829 101.728 149.116 101.426 149.41 101.125C149.711 100.809 150.012 100.501 150.313 100.2C150.754 99.759 151.195 99.3257 151.643 98.8996C152.091 98.4736 152.539 98.0549 152.994 97.6509C153.024 97.6215 153.053 97.5995 153.082 97.5701C153.119 97.5333 153.156 97.504 153.185 97.4746C153.259 97.4085 153.332 97.3497 153.398 97.2836C153.472 97.2175 153.553 97.1514 153.626 97.0853C153.935 96.8135 154.243 96.5417 154.559 96.2846C154.721 96.145 154.882 96.0128 155.044 95.8806C155.367 95.6088 155.69 95.3444 156.021 95.0726C156.344 94.8081 156.682 94.5511 157.012 94.294C157.255 94.1103 157.497 93.9267 157.747 93.743C158.063 93.508 158.371 93.2803 158.687 93.0526C158.805 92.9718 158.922 92.8836 159.04 92.7955C159.451 92.5017 159.87 92.2078 160.288 91.9287C160.384 91.8626 160.472 91.7965 160.568 91.7377C160.575 91.7304 160.582 91.723 160.59 91.723C160.693 91.6569 160.795 91.5835 160.898 91.5247C161.309 91.2456 161.728 90.9738 162.154 90.7167C162.507 90.5037 162.867 90.2906 163.219 90.0776C163.322 90.0189 163.425 89.9601 163.528 89.9013C163.822 89.725 164.13 89.5487 164.431 89.3798C164.733 89.2035 165.041 89.0419 165.342 88.873C165.372 88.8509 165.408 88.8362 165.445 88.8142C165.489 88.7922 165.526 88.7701 165.57 88.7481C165.761 88.6452 165.959 88.5424 166.15 88.4396C166.371 88.3147 166.598 88.1972 166.826 88.0796C167.619 87.6756 168.427 87.2937 169.243 86.9411C169.823 86.684 170.411 86.4342 170.991 86.1992C171.035 86.1845 171.079 86.1625 171.123 86.1478C171.432 86.0229 171.74 85.898 172.049 85.7805C172.357 85.663 172.666 85.5528 172.974 85.4426C173.224 85.3544 173.474 85.2589 173.716 85.1708C173.914 85.0973 174.12 85.0312 174.326 84.9578C174.524 84.8917 174.722 84.8256 174.928 84.7668C175.075 84.7154 175.222 84.664 175.376 84.6199C175.56 84.5611 175.751 84.5097 175.935 84.4509C176.471 84.2893 177.007 84.1424 177.543 83.9955C177.756 83.9368 177.969 83.878 178.182 83.8266C178.432 83.7605 178.682 83.6944 178.939 83.6356C179.189 83.5768 179.446 83.5181 179.695 83.4666C179.938 83.4152 180.173 83.3565 180.408 83.3124C180.702 83.2463 180.988 83.1875 181.282 83.1287H181.297C181.297 83.1287 181.319 83.1287 181.326 83.1214C182.31 82.9378 183.302 82.7688 184.308 82.6439C184.58 82.6072 184.859 82.5705 185.131 82.5411C185.425 82.497 185.726 82.4677 186.027 82.4383C187.761 82.262 189.509 82.1738 191.272 82.1738C205.897 82.1738 219.427 88.1898 230.365 98.3781C244.549 111.571 254.4 131.771 256.713 154.939C257.059 158.391 257.235 161.902 257.235 165.472L257.25 165.48Z" stroke="black" stroke-width="2.93821" stroke-miterlimit="10"/>
<path d="M186.556 172.473C186.556 172.473 183.772 182.294 174.311 191.167C168.831 196.309 180.342 203.471 188.444 203.001L182.472 199.218L179.225 196.14L180.577 192.416L185.932 179.231L186.556 172.48V172.473Z" fill="#D7996F"/>
<path d="M188.143 173.397C188.143 173.397 183.779 187.758 180.32 193.399C177.881 197.373 185.836 201.479 188.657 202.119" stroke="black" stroke-width="2.93821" stroke-miterlimit="10" stroke-linecap="round"/>
<path d="M207.895 208.686C208.02 208.304 207.601 207.981 207.256 208.194C193.938 216.215 178.909 213.615 174.766 212.05C174.245 211.852 173.745 212.388 173.988 212.888C175.699 216.435 181.473 225.272 195.62 222.187C205.383 220.057 206.903 211.778 207.902 208.686H207.895Z" fill="#FEEDD8"/>
<path d="M207.895 208.686C208.02 208.304 207.601 207.981 207.256 208.194C193.938 216.215 178.909 213.615 174.766 212.05C174.245 211.852 173.745 212.388 173.988 212.888C175.699 216.435 181.473 225.272 195.62 222.187C205.383 220.057 206.903 211.778 207.902 208.686H207.895Z" stroke="black" stroke-width="2.93821" stroke-miterlimit="10" stroke-linecap="round"/>
<path d="M215.63 174.096C219.204 174.096 222.101 172.267 222.101 170.012C222.101 167.756 219.204 165.928 215.63 165.928C212.056 165.928 209.158 167.756 209.158 170.012C209.158 172.267 212.056 174.096 215.63 174.096Z" fill="black"/>
<path d="M163.021 173.133C166.721 173.133 169.72 171.305 169.72 169.049C169.72 166.793 166.721 164.965 163.021 164.965C159.321 164.965 156.322 166.793 156.322 169.049C156.322 171.305 159.321 173.133 163.021 173.133Z" fill="black"/>
<path d="M211.075 148.386C211.075 148.386 218.274 144.603 225.362 148.511C232.451 152.419 234.53 156.936 233.288 159.471C231.996 162.108 226.751 157.73 220.008 158.332C213.264 158.934 208.167 159.882 207.285 154.953C206.529 150.722 211.075 148.379 211.075 148.379V148.386Z" fill="#4E3036"/>
<path d="M211.075 148.386C211.075 148.386 218.274 144.603 225.362 148.511C232.451 152.419 234.53 156.936 233.288 159.471C231.996 162.108 226.751 157.73 220.008 158.332C213.264 158.934 208.167 159.882 207.285 154.953C206.529 150.722 211.075 148.379 211.075 148.379V148.386Z" stroke="black" stroke-width="2.93821" stroke-miterlimit="10"/>
<path d="M171.395 148.71C171.395 148.71 163.63 144.545 156.307 147.586C148.983 150.627 146.971 154.674 148.388 157.15C149.865 159.728 155.22 156.092 162.374 157.238C169.522 158.384 174.943 159.721 175.67 155.181C176.294 151.288 171.395 148.702 171.395 148.702V148.71Z" fill="#4E3036"/>
<path d="M171.395 148.71C171.395 148.71 163.63 144.545 156.307 147.586C148.983 150.627 146.971 154.674 148.388 157.15C149.865 159.728 155.22 156.092 162.374 157.238C169.522 158.384 174.943 159.721 175.67 155.181C176.294 151.288 171.395 148.702 171.395 148.702V148.71Z" stroke="black" stroke-width="2.93821" stroke-miterlimit="10"/>
<path d="M197.06 212.425L199.007 221.078" stroke="black" stroke-width="2.93821" stroke-miterlimit="10" stroke-linecap="round"/>
<path d="M185.469 213.725L187.224 222.649" stroke="black" stroke-width="2.93821" stroke-miterlimit="10" stroke-linecap="round"/>
<path d="M257.374 178.937C257.081 180.479 254.906 180.575 254.48 179.062C251.806 169.608 252.078 153.44 252.078 153.44C251.285 152.86 250.514 152.258 249.772 151.626C233.78 138.11 230.49 114.729 230.49 114.729C230.49 114.729 208.534 124.668 192.917 122.773C177.565 120.914 186.049 108.992 186.336 108.588C181.987 111.923 176.816 114.377 171.711 116.162C171.674 116.176 171.645 116.184 171.608 116.198C170.396 116.632 169.184 117.021 167.994 117.366C157.519 120.474 148.271 120.973 148.271 120.973C148.131 122.266 147.977 123.507 147.786 124.697C144.466 146.308 133.94 152.64 133.94 152.64C133.94 152.64 133.999 196.206 125.647 173.699C123.583 168.139 121.959 162.923 120.696 158.068C112.52 126.71 119.286 110.072 119.557 109.426C119.557 109.411 119.565 109.404 119.565 109.404C119.565 109.404 107.312 102.837 108.561 93.9635C109.075 90.2981 111.47 87.3745 114.886 85.0533C117.794 83.07 121.452 81.5201 125.316 80.3081C137.451 76.5105 151.687 76.0404 151.687 76.0404C151.687 76.0404 110.067 73.3813 118.404 63.7954C118.441 63.7513 118.478 63.7146 118.514 63.6705C122.187 59.5643 128.438 58.0071 135.35 57.8381C148.756 57.5149 164.637 62.363 169.176 63.8321C164.762 62.194 150.012 56.4351 148.587 51.4622C148.168 50.0225 148.866 48.6562 151.239 47.4662C163.307 41.4355 198.713 53.3206 222.101 59.3587C245.489 65.3893 245.217 84.025 245.217 84.025C245.217 84.025 259.791 85.5749 262.964 107.274C267.577 138.867 259.725 166.648 257.374 178.937Z" fill="#392429"/>
<path d="M249.772 151.626C233.78 138.11 230.49 114.729 230.49 114.729C230.49 114.729 208.534 124.668 192.917 122.772C177.565 120.914 186.049 108.992 186.336 108.588C181.987 111.923 176.816 114.376 171.711 116.161C171.674 116.176 171.645 116.183 171.608 116.198C170.396 116.632 169.184 117.021 167.994 117.366C157.519 120.473 148.271 120.973 148.271 120.973C148.131 122.266 147.977 123.507 147.786 124.697C144.466 146.307 133.94 152.639 133.94 152.639C133.94 152.639 133.999 196.206 125.647 173.699C123.583 168.138 121.959 162.923 120.696 158.068C112.52 126.71 119.286 110.072 119.557 109.426C119.557 109.411 119.565 109.404 119.565 109.404C119.565 109.404 107.312 102.837 108.561 93.9632C109.075 90.2978 111.47 87.3742 114.886 85.053C117.794 83.0698 121.452 81.5198 125.316 80.3078C137.451 76.5102 151.687 76.0401 151.687 76.0401C151.687 76.0401 110.067 73.381 118.404 63.7951C118.441 63.751 118.478 63.7143 118.514 63.6702C122.187 59.564 128.438 58.0068 135.35 57.8378C148.756 57.5146 164.637 62.3627 169.176 63.8318C164.762 62.1937 150.012 56.4348 148.587 51.4619C164.666 51.9834 190.28 60.2766 208.556 64.9924C231.937 71.0231 231.665 89.6587 231.665 89.6587C231.665 89.6587 246.238 91.2013 249.412 112.907C251.454 126.901 251.05 140.145 249.772 151.626Z" fill="#4C3238"/>
<path d="M254.48 179.062C254.906 180.575 257.081 180.48 257.374 178.937C259.725 166.648 265.432 133.005 262.957 107.274C260.863 85.443 245.21 84.0253 245.21 84.0253C245.21 84.0253 245.482 65.3897 222.101 59.359C198.713 53.3283 163.307 41.4359 151.239 47.4665C139.17 53.4972 170.425 64.2584 170.425 64.2584C170.425 64.2584 130.326 50.0962 118.411 63.7883C110.067 73.3743 151.687 76.0333 151.687 76.0333C151.687 76.0333 110.882 77.3776 108.561 93.9565C107.32 102.83 119.565 109.397 119.565 109.397C119.565 109.397 110.008 135.069 125.654 173.692C134.667 195.942 133.94 152.625 133.94 152.625C133.94 152.625 145.671 145.574 148.271 120.966C148.271 120.966 171.872 119.688 186.343 108.567C186.343 108.567 177.301 120.871 192.917 122.766C208.534 124.661 230.482 114.722 230.482 114.722C230.482 114.722 234.089 140.321 252.071 153.433C252.071 153.433 251.799 169.601 254.473 179.054L254.48 179.062Z" stroke="black" stroke-width="2.93821" stroke-miterlimit="10"/>
<path d="M170.366 65.7039C171.177 65.7039 171.835 65.0464 171.835 64.2353C171.835 63.4241 171.177 62.7666 170.366 62.7666C169.555 62.7666 168.897 63.4241 168.897 64.2353C168.897 65.0464 169.555 65.7039 170.366 65.7039Z" fill="black"/>
<path d="M151.708 77.5155C152.52 77.5155 153.177 76.8579 153.177 76.0468C153.177 75.2357 152.52 74.5781 151.708 74.5781C150.897 74.5781 150.24 75.2357 150.24 76.0468C150.24 76.8579 150.897 77.5155 151.708 77.5155Z" fill="black"/>
</g>
<rect x="1" y="1" width="368" height="370" rx="11" stroke="black" stroke-width="2"/>
<defs>
<clipPath id="clip0_476_1695">
<rect width="370" height="372" rx="12" fill="white"/>
</clipPath>
</defs>
</svg>
