<svg width="40" height="40" viewBox="0 0 40 40" fill="none" xmlns="http://www.w3.org/2000/svg">
<path d="M20 39.141C10.5781 39.141 2.91406 31.4769 2.91406 22.0551C2.91406 14.8988 7.4375 8.45351 14.1797 6.0082C15.0078 5.70351 15.9219 6.1332 16.2266 6.96133C16.5234 7.78945 16.1016 8.70351 15.2734 9.0082C9.79687 11.0004 6.10937 16.2426 6.10937 22.0551C6.10937 29.7191 12.3437 35.9457 20 35.9457C27.6641 35.9457 33.8906 29.7113 33.8906 22.0551C33.8906 16.2426 30.2109 10.9926 24.7266 9.0082C23.8984 8.71133 23.4687 7.78945 23.7734 6.96133C24.0703 6.1332 24.9922 5.70351 25.8203 6.0082C32.5547 8.45351 37.0859 14.8988 37.0859 22.0551C37.0859 31.4769 29.4219 39.141 20 39.141Z" fill="#FE3693"/>
<path d="M20 24.125C19.1172 24.125 18.4062 23.4141 18.4062 22.5312V2.45312C18.4062 1.57031 19.1172 0.859375 20 0.859375C20.8828 0.859375 21.5937 1.57031 21.5937 2.45312V22.5234C21.5937 23.4062 20.8828 24.125 20 24.125Z" fill="#FE3693"/>
</svg>
