<svg width="24" height="18" viewBox="0 0 24 18" fill="none" xmlns="http://www.w3.org/2000/svg">
<path d="M20.1785 4.48196C20.1871 4.67996 20.1871 4.86896 20.1871 5.06696C20.1958 11.07 15.7854 18 7.71984 18C5.34098 18 3.00553 17.289 1 15.957C1.34728 16.002 1.69456 16.02 2.04184 16.02C4.01264 16.02 5.93136 15.336 7.48543 14.067C5.61012 14.031 3.96055 12.762 3.38754 10.908C4.04737 11.043 4.72456 11.016 5.36703 10.827C3.32677 10.413 1.85951 8.54997 1.85083 6.38096C1.85083 6.36296 1.85083 6.34496 1.85083 6.32696C2.45857 6.67796 3.14445 6.87596 3.839 6.89396C1.92029 5.56196 1.32123 2.90695 2.48462 0.827945C4.71588 3.67195 7.99766 5.39096 11.5225 5.57996C11.1666 4.00496 11.6528 2.34895 12.7901 1.23295C14.5525 -0.486059 17.3308 -0.396059 18.9977 1.43095C19.9788 1.23295 20.9251 0.854945 21.7846 0.323943C21.4547 1.37695 20.7688 2.26795 19.8572 2.83495C20.7254 2.72695 21.5763 2.48395 22.375 2.12395C21.7846 3.04195 21.038 3.83395 20.1785 4.48196Z" fill="white"/>
</svg>
