<svg width="100" height="100" viewBox="0 0 100 100" fill="none" xmlns="http://www.w3.org/2000/svg">
<path d="M45.2618 3.44241C47.6068 0.185866 52.3932 0.185863 54.7382 3.44241L59.9342 10.6583C61.8157 13.2712 65.0766 14.4777 68.1868 13.6987L76.7448 11.5552C80.5875 10.5928 84.278 13.6989 84.0067 17.7475L83.4095 26.6594C83.1938 29.8777 84.9202 32.917 87.7924 34.3437L95.708 38.2757C99.2799 40.05 100.124 44.8506 97.355 47.7673L91.244 54.2053C89.0314 56.5363 88.4329 59.9865 89.7228 62.9381L93.2921 71.1056C94.9135 74.8157 92.4922 79.0229 88.5508 79.4508L79.7855 80.4024C76.6 80.7482 73.948 83.0102 73.0637 86.1115L70.6167 94.693C69.5079 98.5815 65.0018 100.226 61.711 97.987L54.3927 93.007C51.7367 91.1997 48.2633 91.1997 45.6073 93.007L38.289 97.987C34.9982 100.226 30.4921 98.5815 29.3833 94.693L26.9363 86.1115C26.052 83.0102 23.4 80.7482 20.2145 80.4024L11.4492 79.4508C7.5078 79.0229 5.08652 74.8157 6.70788 71.1056L10.2772 62.9381C11.5671 59.9865 10.9686 56.5363 8.75603 54.2053L2.64504 47.7673C-0.123559 44.8506 0.720127 40.05 4.29201 38.2757L12.2076 34.3438C15.0798 32.917 16.8062 29.8777 16.5905 26.6594L15.9933 17.7475C15.722 13.6989 19.4125 10.5928 23.2552 11.5552L31.8132 13.6987C34.9234 14.4777 38.1843 13.2712 40.0658 10.6583L45.2618 3.44241Z" fill="#18AF55" stroke="#262626" stroke-width="2"/>
</svg>
