<svg width="1920" height="738" viewBox="0 0 1920 738" fill="none" xmlns="http://www.w3.org/2000/svg">
<path d="M642.038 120.754C640.186 100.827 624.246 84.5403 603.65 82.917C598.842 82.538 594.154 82.994 589.737 84.1567C584.801 67.8183 570.287 55.3664 552.257 53.9454C538.975 52.8986 526.651 58.064 518.091 66.9838C514.265 65.5765 510.184 64.6474 505.932 64.3122C487.64 62.8705 471.042 72.5119 462.682 87.5843C461.532 87.3691 460.363 87.1991 459.157 87.104C440.942 85.6684 424.994 99.3017 423.555 117.552C422.117 135.802 435.734 151.75 453.948 153.186C462.251 153.84 470.057 151.34 476.254 146.735C482.679 151.276 490.368 154.203 498.795 154.867C505.908 155.427 512.763 154.317 518.979 151.847C523.623 164.58 535.319 174.1 549.699 175.233C562.069 176.208 573.452 170.751 580.578 161.671C585.533 164.336 591.109 166.037 597.062 166.506C606.154 167.222 614.796 164.96 622.051 160.563C625.722 163.921 630.479 166.149 635.829 166.571C648.57 167.575 659.698 158.048 660.702 145.308C661.638 133.435 653.455 122.962 642.052 120.771L642.038 120.754Z" fill="#E7ECF4"/>
<path d="M1829.67 552.407C1829.77 551.358 1829.81 550.293 1829.81 549.212C1829.81 529.155 1813.41 512.881 1793.16 512.881C1783.2 512.881 1774.17 516.822 1767.57 523.227C1764.49 506.603 1749.8 494 1732.13 494C1718.36 494 1706.4 501.66 1700.34 512.897C1675.82 513.119 1656 532.874 1656 557.222C1656 581.571 1676.03 601.564 1700.74 601.564C1709.03 601.564 1716.79 599.323 1723.44 595.413C1728.04 609.67 1741.53 620 1757.45 620C1773.37 620 1786.79 609.717 1791.43 595.493C1794.15 596.828 1797.2 597.591 1800.44 597.591C1803.34 597.591 1806.11 596.971 1808.62 595.89C1811.39 596.987 1814.4 597.591 1817.58 597.591C1831.06 597.591 1842 586.752 1842 573.386C1842 564.374 1837.03 556.539 1829.67 552.375V552.407Z" fill="#E7ECF4"/>
<path d="M1659.04 205.663C1659.04 193.031 1648.76 182.785 1636.08 182.785C1635.47 182.785 1634.87 182.836 1634.25 182.87C1634.25 182.836 1634.25 182.802 1634.25 182.785C1634.25 167.527 1621.85 155.167 1606.54 155.167C1600.78 155.167 1595.42 156.923 1590.99 159.923C1584.72 148.638 1572.64 141 1558.78 141C1544.93 141 1533.47 148.262 1527.07 159.071C1522.78 156.599 1517.8 155.167 1512.5 155.167C1496.55 155.167 1483.62 167.902 1483.35 183.722C1469.94 187.115 1460 199.219 1460 213.659C1460 230.707 1473.87 244.533 1490.98 244.533C1492.14 244.533 1493.29 244.464 1494.43 244.345C1498.83 249.34 1505.3 252.494 1512.48 252.494C1519.66 252.494 1525.53 249.613 1529.91 245.01C1536.75 253.312 1547.14 258.614 1558.77 258.614C1567.85 258.614 1576.18 255.375 1582.65 250.005C1588.43 253.142 1595.05 254.932 1602.1 254.932C1619.73 254.932 1634.73 243.748 1640.39 228.115C1651 226.087 1659.02 216.813 1659.02 205.646L1659.04 205.663Z" fill="#E7ECF4"/>
<path d="M318.394 443.843C318.394 434.583 313.135 426.581 305.435 422.606C308.706 415.535 310.568 407.66 310.568 399.331C310.568 368.785 285.807 344 255.233 344C234.121 344 215.752 355.826 206.441 373.238C199.597 366.218 190.06 361.84 179.466 361.84C158.655 361.84 141.796 378.698 141.796 399.507C141.796 404.263 142.727 408.792 144.312 412.969C141.192 411.887 137.87 411.283 134.398 411.283C117.614 411.283 104 424.896 104 441.679C104 458.462 117.614 472.074 134.398 472.074C139.229 472.074 143.784 470.917 147.835 468.904C153.472 479.17 165.5 486.291 179.441 486.291C189.38 486.291 198.339 482.667 204.705 476.88C211.801 494.242 228.862 506.471 248.766 506.471C272.043 506.471 291.419 489.763 295.546 467.671C308.253 467.092 318.369 456.65 318.369 443.817L318.394 443.843Z" fill="#E7ECF4"/>
</svg>
