<svg width="372" height="370" viewBox="0 0 372 370" fill="none" xmlns="http://www.w3.org/2000/svg">
<g clip-path="url(#clip0_476_1521)">
<rect x="-14" y="-15" width="398" height="398" fill="#E5DEFF"/>
<path d="M44.8116 94.1725L37.0449 148.983H34.8259L27.0592 94.1725H-4.00766V96.3916L18.1829 208.454V271.697H53.6879V208.454L75.8785 96.3916V94.1725H44.8116ZM85.8738 94.1725L69.2308 269.478V271.697H100.298L104.07 229.535H116.497L120.269 271.697H151.336V269.478L134.693 94.1725H85.8738ZM104.292 200.687L109.174 139.663H111.393L116.275 200.687H104.292ZM154.881 210.673V212.892C155.991 216.221 156.213 219.993 156.213 225.319C156.213 256.386 169.971 273.916 197.043 273.916C221.231 273.916 236.543 256.608 236.543 229.535C236.543 207.788 228.332 192.477 213.021 173.171L206.363 164.739C196.6 152.312 189.721 142.992 189.721 129.899C189.721 121.023 193.493 117.473 198.375 117.473C203.035 117.473 206.363 121.023 206.363 128.124V142.992C206.363 147.208 206.807 150.537 207.695 152.978H237.652V150.759C236.543 147.208 236.321 143.214 236.321 137.888C236.321 109.706 222.341 91.9535 196.822 91.9535C171.746 91.9535 156.435 109.706 156.435 135.225C156.435 154.753 162.648 167.845 177.738 187.595L184.173 196.027C193.937 208.898 203.257 221.99 203.257 236.192C203.257 243.959 200.15 248.397 194.824 248.397C189.721 248.397 186.614 243.959 186.614 237.08V220.659C186.614 216.887 186.392 212.892 185.282 210.673H154.881ZM242.422 210.673V212.892C243.532 216.221 243.754 219.993 243.754 225.319C243.754 256.386 257.512 273.916 284.584 273.916C308.772 273.916 324.084 256.608 324.084 229.535C324.084 207.788 315.873 192.477 300.562 173.171L293.904 164.739C284.141 152.312 277.262 142.992 277.262 129.899C277.262 121.023 281.034 117.473 285.916 117.473C290.576 117.473 293.904 121.023 293.904 128.124V142.992C293.904 147.208 294.348 150.537 295.236 152.978H325.193V150.759C324.084 147.208 323.862 143.214 323.862 137.888C323.862 109.706 309.882 91.9535 284.363 91.9535C259.287 91.9535 243.976 109.706 243.976 135.225C243.976 154.753 250.189 167.845 265.279 187.595L271.714 196.027C281.478 208.898 290.798 221.99 290.798 236.192C290.798 243.959 287.691 248.397 282.365 248.397C277.262 248.397 274.155 243.959 274.155 237.08V220.659C274.155 216.887 273.933 212.892 272.823 210.673H242.422ZM333.514 94.1725V271.697H393.428V242.849H366.8V196.249H390.1V167.401H366.8V123.02H393.428V94.1725H333.514ZM402.938 94.1725V271.697H436.224L434.671 204.238H437.999L450.648 271.697H482.824V269.478L466.181 194.696C478.386 182.713 485.043 170.286 485.043 148.096C485.043 113.7 463.741 94.1725 435.78 94.1725H402.938ZM436.224 120.801H437.334C445.1 120.801 451.758 126.793 451.758 138.554V162.963C451.758 174.724 445.1 180.716 437.334 180.716H436.224V120.801Z" fill="#C9BBFF"/>
<path d="M303.634 369.873C249.506 369.933 171.897 370.006 113.761 369.999C96.8351 369.999 81.5647 369.986 69 369.966C69.5385 365.658 70.3828 361.417 71.493 357.242C72.5434 353.28 73.8331 349.384 75.3355 345.561C79.4573 335.084 85.1812 325.172 91.9621 316.031C107.897 294.551 129.669 277.36 150.165 267.255C158.389 263.2 166.406 260.281 173.759 258.692C178.06 257.762 182.129 257.283 185.885 257.296C186.317 257.296 186.742 257.303 187.161 257.316C190.844 257.442 194.441 257.675 197.951 258.034C210.529 259.291 222.043 261.99 232.461 265.959C258.221 275.764 277.308 293.322 289.241 316.031C294.021 325.106 297.651 335.004 300.11 345.561C301.001 349.371 301.739 353.266 302.318 357.242C302.922 361.37 303.361 365.585 303.634 369.873Z" fill="#512889"/>
<path d="M273.917 369.873C228.585 369.926 166.798 369.986 113.761 370C96.8351 370 81.5647 369.986 69 369.966C69.5385 365.658 70.3828 361.417 71.493 357.242C72.5434 353.28 73.8331 349.384 75.3355 345.562C79.4573 335.084 85.1812 325.172 91.9621 316.031C105.198 298.188 122.463 283.303 139.681 272.986C143.191 270.878 146.695 268.964 150.165 267.255C152.086 266.311 153.988 265.427 155.876 264.609C162.092 261.91 168.121 259.909 173.759 258.692C184.203 260.122 193.869 262.581 202.744 265.959C205.802 267.122 208.767 268.398 211.639 269.781C220.74 274.149 228.891 279.58 236.05 285.923C245.657 294.425 253.501 304.57 259.524 316.031C264.304 325.106 267.934 335.005 270.394 345.562C271.285 349.371 272.023 353.267 272.601 357.242C273.206 361.37 273.645 365.585 273.917 369.873Z" fill="#7751A8"/>
<path d="M237.772 276.13C237.892 280.412 236.822 285.012 234.448 289.44C227.893 301.672 213.873 307.921 203.13 303.407C196.422 300.582 192.573 294.213 192.247 286.854V286.807C192.2 285.969 192.207 285.112 192.267 284.241C192.273 284.234 192.273 284.221 192.267 284.214C192.506 280.578 193.57 276.769 195.558 273.086C196.495 271.331 197.592 269.702 198.808 268.206C213.008 269.463 226.012 272.162 237.779 276.13H237.772Z" fill="#512889"/>
<path d="M192.247 286.807V286.854C191.735 294.333 187.553 300.874 180.44 303.866C169.092 308.639 151.402 299.677 144.84 287.445C143.251 284.487 140.918 278.052 139.681 272.986C143.192 270.878 146.695 268.964 150.165 267.255C152.087 266.311 153.988 265.427 155.876 264.609C166.725 264.769 177.761 267.448 185.187 267.468C186.683 269.15 188.006 271.031 189.109 273.086C191.077 276.749 192.107 280.551 192.267 284.214C192.28 284.221 192.28 284.234 192.267 284.241C192.313 285.105 192.307 285.963 192.247 286.807Z" fill="#512889"/>
<path d="M303.634 369.873C233.744 369.953 124.717 370.053 69 369.966C69.5385 365.659 70.3828 361.417 71.493 357.242H302.318C302.922 361.371 303.361 365.585 303.634 369.873Z" fill="black"/>
<path d="M300.11 345.562H75.3354C79.4572 335.084 85.1811 325.172 91.962 316.031H289.241C294.021 325.106 297.651 335.005 300.11 345.562Z" fill="black"/>
<path d="M303.634 369.873C233.744 369.953 124.717 370.053 69 369.966C76.951 306.671 149.421 256.053 187.161 257.316C259.139 259.716 299.645 306.631 303.634 369.873Z" stroke="black" stroke-width="2.65919" stroke-miterlimit="10"/>
<path d="M232.46 265.959C232.567 270.24 231.616 274.84 229.515 279.268C223.712 291.5 211.293 297.749 201.78 293.235C195.837 290.41 192.433 284.041 192.14 276.682V276.635C192.101 275.798 192.107 274.94 192.16 274.069C192.167 274.062 192.167 274.049 192.16 274.043C192.373 270.406 193.317 266.597 195.072 262.914C195.903 261.159 196.874 259.53 197.951 258.034C210.529 259.291 222.043 261.99 232.46 265.959Z" fill="white"/>
<path d="M192.141 276.635V276.662C191.695 284.147 187.992 290.702 181.683 293.694C171.632 298.467 158.781 292.424 152.971 280.192C150.943 275.917 150.046 271.456 150.165 267.255C163.195 260.826 175.714 257.263 185.885 257.296C187.215 258.978 188.385 260.859 189.362 262.914C191.104 266.577 192.014 270.379 192.161 274.042C192.167 274.049 192.167 274.062 192.161 274.069C192.2 274.933 192.194 275.791 192.141 276.635Z" fill="white"/>
<path d="M232.46 265.959C232.567 270.24 231.616 274.84 229.515 279.268C223.712 291.5 211.293 297.749 201.78 293.235C195.837 290.41 192.433 284.041 192.14 276.682V276.635C192.101 275.798 192.107 274.94 192.16 274.069C192.167 274.062 192.167 274.049 192.16 274.043C192.373 270.406 193.317 266.597 195.072 262.914C195.903 261.159 196.874 259.53 197.951 258.034C210.529 259.291 222.043 261.99 232.46 265.959Z" stroke="black" stroke-width="2.65919" stroke-miterlimit="10"/>
<path d="M192.141 276.635V276.662C191.695 284.147 187.992 290.702 181.683 293.694C171.632 298.467 158.781 292.424 152.971 280.192C150.943 275.917 150.046 271.456 150.165 267.255C163.195 260.826 175.714 257.263 185.885 257.296C187.215 258.978 188.385 260.859 189.362 262.914C191.104 266.577 192.014 270.379 192.161 274.042C192.167 274.049 192.167 274.062 192.161 274.069C192.2 274.933 192.194 275.791 192.141 276.635Z" stroke="black" stroke-width="2.65919" stroke-miterlimit="10"/>
<path d="M217.283 272.319C216.505 272.738 215.714 273.177 214.896 273.649C200.118 282.191 173.779 278.056 164.299 270.611C163.614 270.072 162.903 269.587 162.178 269.148L162.623 264.627L163.581 254.815L166.546 224.44H211.519L212.955 236.374L216.598 266.642L217.283 272.319Z" fill="#E8B08A"/>
<path d="M212.955 238.348C205.676 255.593 178.559 259.196 163.581 259.841L166.546 224.44H211.519L212.955 238.348Z" fill="#CA885E"/>
<path d="M162.796 269.168L166.546 224.44H211.519L216.598 273.622C216.598 273.622 187.135 286.951 162.796 269.168Z" stroke="black" stroke-width="2.65919" stroke-miterlimit="10"/>
<path d="M264.903 187.405C261.572 193.734 256.759 198.428 251.899 200.661C248.077 202.43 244.221 202.676 241.043 201C240.611 200.774 240.205 200.515 239.82 200.229C233.724 195.742 233.152 184.274 238.763 173.631C240.977 169.422 243.855 165.932 246.96 163.413C252.192 159.158 258.088 157.649 262.622 160.035C263.4 160.448 264.111 160.953 264.743 161.558C269.982 166.471 270.221 177.313 264.903 187.405Z" fill="#E8B08A"/>
<path d="M264.743 161.558C263.54 163.153 262.177 165.174 260.794 167.654C256.885 174.694 252.863 185.437 251.899 200.661C248.077 202.43 244.221 202.676 241.043 201C240.611 200.774 240.205 200.515 239.82 200.229C241.728 190.237 244.633 175.293 246.96 163.413C252.192 159.158 258.088 157.649 262.622 160.035C263.4 160.448 264.112 160.953 264.743 161.558Z" fill="#CA885E"/>
<path d="M264.903 187.405C261.572 193.734 256.759 198.428 251.899 200.661C248.077 202.43 244.221 202.676 241.043 201C240.611 200.774 240.205 200.515 239.82 200.229C233.724 195.742 233.152 184.274 238.763 173.631C240.977 169.422 243.855 165.932 246.96 163.413C252.192 159.158 258.088 157.649 262.622 160.035C263.4 160.448 264.111 160.953 264.743 161.558C269.982 166.471 270.221 177.313 264.903 187.405Z" stroke="black" stroke-width="2.65919" stroke-miterlimit="10"/>
<path d="M263.673 172.673C263.673 172.673 262.556 166.65 258.806 167.341C254.612 168.119 253.661 171.682 253.767 180.757C253.874 189.831 251.826 192.052 248.628 193.122" stroke="black" stroke-width="2.65919" stroke-miterlimit="10" stroke-linecap="round"/>
<path d="M138.872 200.963C146.09 197.161 147.11 184.907 141.15 173.592C135.189 162.278 124.506 156.189 117.288 159.991C110.07 163.794 109.051 176.048 115.011 187.362C120.971 198.676 131.654 204.766 138.872 200.963Z" fill="#E8B08A"/>
<path d="M116.141 161.558C117.344 163.153 118.933 165.061 120.09 167.654C123.693 175.705 124.79 184.267 125.754 199.491C129.576 201.26 136.663 202.676 139.841 201C140.273 200.774 140.679 200.515 141.064 200.229C139.156 190.237 136.251 175.293 133.924 163.413C128.692 159.158 122.795 157.649 118.262 160.035C117.484 160.448 116.772 160.953 116.141 161.558Z" fill="#CA885E"/>
<path d="M138.872 200.963C146.09 197.161 147.11 184.907 141.15 173.592C135.189 162.278 124.506 156.189 117.288 159.991C110.07 163.794 109.051 176.048 115.011 187.362C120.971 198.676 131.654 204.766 138.872 200.963Z" stroke="black" stroke-width="2.65919" stroke-miterlimit="10"/>
<path d="M116.167 172.673C116.167 172.673 117.284 166.65 121.034 167.341C125.229 168.119 126.179 171.682 126.073 180.757C125.967 189.831 128.014 192.052 131.212 193.122" stroke="black" stroke-width="2.65919" stroke-miterlimit="10" stroke-linecap="round"/>
<path d="M249.433 161.75C249.433 177.938 245.391 192.929 238.517 205.215H238.51C227.707 224.534 209.884 237.139 189.734 237.139C187.607 237.139 185.506 236.999 183.438 236.72C182.561 236.607 181.69 236.467 180.826 236.301C180.606 236.261 180.387 236.214 180.168 236.168C179.895 236.115 179.629 236.062 179.363 235.995C179.263 235.975 179.164 235.955 179.071 235.929C178.745 235.862 178.419 235.782 178.093 235.696C177.688 235.603 177.289 235.497 176.897 235.384C176.697 235.33 176.498 235.277 176.305 235.217C176.006 235.131 175.707 235.044 175.408 234.945C174.849 234.779 174.304 234.592 173.759 234.4C173.347 234.26 172.935 234.107 172.529 233.954C172.09 233.788 171.651 233.615 171.219 233.436C170.282 233.05 169.358 232.638 168.447 232.199C168.088 232.026 167.723 231.847 167.37 231.661C166.978 231.468 166.592 231.262 166.207 231.049C165.861 230.863 165.515 230.677 165.176 230.477C164.917 230.331 164.664 230.185 164.412 230.032C164.073 229.839 163.747 229.633 163.415 229.427C163.175 229.281 162.943 229.134 162.703 228.975C160.283 227.426 157.957 225.671 155.743 223.723C155.41 223.437 155.091 223.145 154.766 222.852C154.44 222.553 154.107 222.247 153.788 221.935C153.463 221.629 153.143 221.316 152.824 220.997C152.505 220.678 152.186 220.359 151.874 220.033C151.561 219.708 151.249 219.382 150.943 219.043C150.631 218.71 150.331 218.378 150.026 218.032C149.427 217.368 148.849 216.689 148.284 215.998C147.978 215.626 147.679 215.253 147.38 214.868C147.094 214.502 146.808 214.137 146.529 213.764C146.289 213.445 146.043 213.113 145.797 212.787C145.478 212.342 145.159 211.896 144.847 211.444C144.727 211.271 144.607 211.092 144.488 210.919L144.475 210.906C144.348 210.719 144.222 210.527 144.096 210.341C143.836 209.948 143.577 209.549 143.318 209.151C143.065 208.758 142.813 208.353 142.567 207.947C142.314 207.542 142.068 207.136 141.829 206.724C141.583 206.312 141.343 205.9 141.111 205.481C140.871 205.062 140.639 204.643 140.413 204.218C139.715 202.948 139.056 201.645 138.438 200.315C138.279 199.983 138.126 199.644 137.966 199.305C137.714 198.753 137.468 198.195 137.228 197.63C137.035 197.178 136.843 196.719 136.656 196.26C136.464 195.801 136.284 195.343 136.105 194.877C135.925 194.412 135.746 193.94 135.573 193.475C135.4 193.003 135.234 192.531 135.068 192.052C134.901 191.58 134.735 191.101 134.582 190.623C134.423 190.144 134.27 189.659 134.117 189.173C133.811 188.203 133.532 187.225 133.266 186.235C132.993 185.244 132.741 184.247 132.508 183.237C132.442 182.957 132.382 182.678 132.315 182.399C132.275 182.22 132.236 182.04 132.196 181.861C132.176 181.794 132.162 181.721 132.149 181.654C132.043 181.169 131.943 180.677 131.843 180.185C131.744 179.673 131.644 179.162 131.551 178.643C131.458 178.131 131.371 177.613 131.285 177.087C131.198 176.569 131.119 176.044 131.039 175.525C130.879 174.475 130.746 173.418 130.633 172.354C130.587 171.922 130.54 171.49 130.494 171.051C130.467 170.752 130.441 170.453 130.414 170.154C130.381 169.828 130.354 169.509 130.334 169.183C130.241 168.053 130.175 166.916 130.128 165.773C130.108 165.414 130.095 165.055 130.088 164.689C130.075 164.317 130.068 163.944 130.062 163.572C130.048 162.967 130.042 162.362 130.042 161.75C130.042 161.139 130.048 160.481 130.062 159.849C130.062 159.337 130.082 158.825 130.102 158.313C130.102 158.174 130.115 158.041 130.122 157.908C130.141 157.376 130.161 156.844 130.195 156.319C130.261 155.176 130.341 154.045 130.447 152.915C130.64 150.848 130.893 148.8 131.218 146.786C131.371 145.835 131.538 144.884 131.717 143.947C131.817 143.422 131.923 142.903 132.029 142.385C132.029 142.385 132.036 142.365 132.036 142.352C132.156 141.8 132.275 141.248 132.402 140.703C132.508 140.238 132.615 139.779 132.728 139.314C132.781 139.107 132.834 138.895 132.887 138.689C133.239 137.299 133.625 135.93 134.037 134.58C134.117 134.321 134.197 134.068 134.277 133.816C134.409 133.397 134.542 132.978 134.682 132.566C134.855 132.041 135.034 131.515 135.221 130.99C135.44 130.365 135.673 129.747 135.905 129.129C136.058 128.717 136.218 128.304 136.384 127.899C136.543 127.5 136.703 127.101 136.869 126.702C137.135 126.077 137.401 125.452 137.674 124.834C137.886 124.356 138.106 123.884 138.325 123.412C138.531 122.973 138.744 122.534 138.957 122.095C138.997 122.015 139.043 121.929 139.076 121.849C139.296 121.404 139.522 120.965 139.748 120.526C139.994 120.048 140.246 119.582 140.499 119.117C140.758 118.638 141.031 118.16 141.297 117.681C141.549 117.236 141.809 116.797 142.068 116.365C142.793 115.155 143.55 113.971 144.328 112.815C144.554 112.476 144.787 112.143 145.02 111.811C145.252 111.478 145.485 111.146 145.724 110.82L146.442 109.843C146.914 109.218 147.4 108.593 147.892 107.988C147.918 107.962 147.938 107.935 147.958 107.908C148.184 107.623 148.423 107.337 148.656 107.057C148.676 107.038 148.689 107.018 148.703 106.998C148.869 106.798 149.035 106.605 149.201 106.413C149.281 106.313 149.367 106.22 149.454 106.12C149.986 105.508 150.524 104.91 151.069 104.319C151.322 104.046 151.581 103.773 151.847 103.501C152.12 103.215 152.392 102.936 152.665 102.663C153.456 101.865 154.267 101.094 155.091 100.356C155.151 100.303 155.211 100.25 155.264 100.197C155.53 99.9641 155.796 99.7248 156.069 99.4987C156.361 99.2461 156.654 98.9935 156.946 98.7542C157.538 98.2622 158.129 97.7835 158.734 97.3182C159.04 97.0855 159.339 96.8595 159.645 96.6335C159.678 96.6069 159.718 96.5803 159.752 96.5537C160.024 96.3543 160.29 96.1615 160.569 95.9687C161.799 95.0845 163.062 94.2668 164.352 93.5089C164.658 93.3227 164.97 93.1433 165.283 92.9638C165.309 92.9505 165.323 92.9438 165.323 92.9438C165.668 92.7444 166.021 92.5516 166.366 92.3655C167.244 91.8934 168.135 91.448 169.026 91.0292C169.285 90.9095 169.544 90.7898 169.803 90.6702C170.329 90.4375 170.86 90.2115 171.386 89.9987C171.685 89.8724 171.984 89.7528 172.29 89.6398C172.808 89.4337 173.333 89.2476 173.852 89.0681C174.218 88.9351 174.583 88.8154 174.949 88.7024C175.082 88.6559 175.215 88.6094 175.354 88.5695C175.747 88.4498 176.139 88.3301 176.531 88.2171C176.983 88.0908 177.435 87.9645 177.894 87.8514C178.346 87.7318 178.805 87.6254 179.263 87.5257C179.696 87.426 180.128 87.3395 180.56 87.2531C180.606 87.2398 180.659 87.2332 180.713 87.2199C181.092 87.1468 181.477 87.0803 181.863 87.0204C182.388 86.9274 182.913 86.8476 183.438 86.7811C185.506 86.5019 187.607 86.3623 189.734 86.3623C199.453 86.3623 208.628 89.2941 216.738 94.4994C216.977 94.6523 217.21 94.8053 217.443 94.9648C224.835 99.8578 231.317 106.652 236.469 114.836C237.619 116.657 238.703 118.545 239.713 120.5C244.586 129.887 247.837 140.736 248.981 152.417C249.007 152.669 249.027 152.922 249.054 153.175C249.306 155.987 249.433 158.852 249.433 161.75Z" fill="#CA885E"/>
<path d="M236.835 161.75C236.835 166.323 236.509 170.804 235.891 175.152C235.891 175.172 235.884 175.192 235.884 175.212C233.218 193.873 225.121 210.147 213.72 221.322C205.177 229.705 194.78 235.223 183.438 236.719C182.561 236.606 181.69 236.466 180.826 236.3C180.606 236.26 180.387 236.214 180.168 236.167C179.895 236.114 179.629 236.061 179.363 235.994C179.263 235.974 179.164 235.954 179.071 235.928C178.745 235.861 178.419 235.782 178.093 235.695C177.688 235.602 177.289 235.496 176.897 235.383C176.697 235.329 176.498 235.276 176.305 235.216C176.006 235.13 175.707 235.044 175.408 234.944C174.849 234.778 174.304 234.592 173.759 234.399C173.347 234.259 172.935 234.106 172.529 233.953C172.09 233.787 171.651 233.614 171.219 233.435C170.282 233.049 169.358 232.637 168.447 232.198C168.088 232.025 167.723 231.846 167.37 231.66C166.978 231.467 166.592 231.261 166.207 231.048C165.861 230.862 165.515 230.676 165.176 230.476C164.917 230.33 164.664 230.184 164.412 230.031C164.073 229.838 163.747 229.632 163.415 229.426C163.175 229.28 162.943 229.134 162.703 228.974C160.283 227.425 157.957 225.67 155.743 223.722C155.41 223.436 155.091 223.144 154.766 222.851C154.44 222.552 154.107 222.246 153.788 221.934C153.463 221.628 153.143 221.316 152.824 220.996C152.505 220.677 152.186 220.358 151.874 220.032C151.561 219.707 151.249 219.381 150.943 219.042C150.631 218.71 150.331 218.377 150.026 218.031C149.434 217.367 148.856 216.689 148.284 215.997C147.978 215.625 147.679 215.253 147.38 214.867C147.094 214.501 146.808 214.136 146.529 213.763C146.289 213.444 146.043 213.112 145.797 212.786C145.478 212.341 145.159 211.895 144.847 211.443C144.727 211.27 144.607 211.091 144.488 210.918L144.475 210.905C144.348 210.719 144.222 210.526 144.096 210.34C143.836 209.947 143.577 209.549 143.318 209.15C143.065 208.758 142.813 208.352 142.567 207.946C142.314 207.541 142.068 207.135 141.829 206.723C141.583 206.311 141.343 205.899 141.111 205.48C140.871 205.061 140.639 204.642 140.413 204.217C139.721 202.947 139.063 201.644 138.438 200.315C138.279 199.982 138.126 199.643 137.966 199.304C137.714 198.752 137.468 198.194 137.228 197.629C137.035 197.177 136.843 196.718 136.656 196.259C136.464 195.801 136.284 195.342 136.105 194.876C135.925 194.411 135.746 193.939 135.573 193.474C135.4 193.002 135.234 192.53 135.068 192.051C134.901 191.579 134.735 191.1 134.582 190.622C134.423 190.143 134.27 189.658 134.117 189.173C133.818 188.202 133.532 187.225 133.266 186.234C132.993 185.244 132.741 184.246 132.508 183.236C132.402 182.777 132.295 182.318 132.196 181.86C132.176 181.793 132.162 181.72 132.149 181.654C132.043 181.168 131.943 180.676 131.843 180.184C131.744 179.673 131.644 179.161 131.551 178.642C131.458 178.13 131.371 177.612 131.285 177.086C131.198 176.568 131.119 176.043 131.039 175.524C130.886 174.474 130.753 173.417 130.633 172.353C130.587 171.921 130.54 171.489 130.494 171.05C130.467 170.751 130.441 170.452 130.414 170.153C130.381 169.827 130.354 169.508 130.334 169.182C130.241 168.052 130.175 166.915 130.128 165.772C130.108 165.413 130.095 165.054 130.088 164.688C130.075 164.316 130.068 163.943 130.062 163.571C130.048 162.966 130.042 162.361 130.042 161.75C130.042 161.138 130.048 160.48 130.062 159.848C130.062 159.336 130.082 158.824 130.102 158.313C130.102 158.173 130.115 158.04 130.122 157.907C130.141 157.375 130.161 156.843 130.195 156.318C130.261 155.175 130.341 154.045 130.447 152.914C130.726 149.87 131.152 146.871 131.717 143.946C131.817 143.421 131.923 142.903 132.029 142.384C132.029 142.384 132.036 142.364 132.036 142.351C132.156 141.799 132.275 141.247 132.402 140.702C132.508 140.237 132.615 139.778 132.728 139.313C132.781 139.107 132.834 138.894 132.887 138.688C133.239 137.298 133.625 135.929 134.037 134.579C134.117 134.32 134.197 134.067 134.277 133.815C134.409 133.396 134.542 132.977 134.682 132.565C134.855 132.04 135.034 131.515 135.221 130.989C135.44 130.364 135.673 129.746 135.905 129.128C136.058 128.716 136.218 128.304 136.384 127.898C136.543 127.499 136.703 127.1 136.869 126.701C137.135 126.077 137.401 125.452 137.674 124.833C137.886 124.355 138.106 123.883 138.325 123.411C138.531 122.972 138.744 122.533 138.957 122.094C138.997 122.015 139.043 121.928 139.076 121.848C139.296 121.403 139.522 120.964 139.748 120.525C139.994 120.047 140.246 119.581 140.499 119.116C140.758 118.637 141.031 118.159 141.297 117.68C141.549 117.235 141.809 116.796 142.068 116.364C142.793 115.154 143.55 113.971 144.328 112.814C144.554 112.475 144.787 112.142 145.02 111.81C145.252 111.478 145.485 111.145 145.724 110.819L146.442 109.842C146.921 109.217 147.4 108.599 147.892 107.987C147.918 107.961 147.938 107.934 147.958 107.908C148.184 107.622 148.423 107.336 148.656 107.057C148.676 107.037 148.689 107.017 148.703 106.997C148.955 106.698 149.201 106.405 149.454 106.119C149.986 105.508 150.524 104.909 151.069 104.318C151.322 104.045 151.581 103.773 151.847 103.5C152.12 103.214 152.392 102.935 152.665 102.662C153.456 101.865 154.267 101.1 155.091 100.355C155.151 100.302 155.211 100.249 155.264 100.196C155.53 99.9633 155.796 99.7239 156.069 99.4979C156.361 99.2452 156.654 98.9926 156.946 98.7533C157.538 98.2613 158.129 97.7827 158.734 97.3173C159.04 97.0846 159.339 96.8587 159.645 96.6326C159.951 96.4066 160.257 96.1872 160.569 95.9678C161.806 95.0903 163.062 94.2725 164.352 93.508C164.671 93.3152 164.997 93.1291 165.323 92.943C165.668 92.7435 166.021 92.5507 166.366 92.3646C167.244 91.8926 168.135 91.4472 169.026 91.0283C169.285 90.9087 169.544 90.789 169.803 90.6693C170.329 90.4366 170.86 90.2106 171.386 89.9979C171.685 89.8716 171.984 89.752 172.29 89.6389C172.808 89.4329 173.333 89.2467 173.852 89.0672C174.218 88.9343 174.583 88.8146 174.949 88.7016C175.082 88.655 175.215 88.6085 175.354 88.5686C175.747 88.449 176.139 88.3293 176.531 88.2163C176.983 88.0899 177.435 87.9636 177.894 87.8506C178.346 87.7309 178.805 87.6246 179.263 87.5248C179.696 87.4251 180.128 87.3387 180.56 87.2523C180.606 87.239 180.659 87.2324 180.713 87.2191C181.092 87.1459 181.477 87.0794 181.863 87.0196C182.388 86.9265 182.913 86.8468 183.438 86.7803C189.993 87.6512 196.229 89.8516 201.973 93.1756C222.542 105.076 236.835 131.302 236.835 161.75Z" fill="#E8B08A"/>
<path d="M249.134 152.948L249.054 153.174L234.967 180.517C234.967 180.517 236.975 162.8 232.966 150.927C229.954 142.012 218.739 125.831 208.229 125.106C195.81 124.249 188.271 135.225 152.173 142.291C152.173 142.291 142.5 173.723 144.408 197.922C144.408 197.922 135.068 192.051 132.315 182.399C132.275 182.219 132.236 182.04 132.196 181.86C132.176 181.794 132.162 181.72 132.149 181.654C132.043 181.169 131.943 180.677 131.843 180.185C131.744 179.673 131.644 179.161 131.551 178.643C131.458 178.131 131.371 177.612 131.285 177.087C131.198 176.568 131.119 176.043 131.039 175.525C130.879 174.474 130.746 173.417 130.633 172.353C130.587 171.921 130.54 171.489 130.494 171.051C130.467 170.751 130.441 170.452 130.414 170.153C130.381 169.827 130.354 169.508 130.334 169.182C130.241 168.052 130.175 166.916 130.128 165.772C130.108 165.413 130.095 165.054 130.088 164.688C130.075 164.316 130.068 163.944 130.062 163.572C130.048 162.967 130.042 162.362 130.042 161.75C130.042 161.138 130.048 160.48 130.062 159.849C130.062 159.337 130.082 158.825 130.102 158.313C130.102 158.173 130.115 158.04 130.122 157.907C130.141 157.376 130.161 156.844 130.195 156.319C130.261 155.175 130.341 154.045 130.447 152.915C130.64 150.847 130.893 148.8 131.218 146.785C131.371 145.835 131.538 144.884 131.717 143.947C131.817 143.421 131.923 142.903 132.029 142.384C132.029 142.384 132.036 142.364 132.036 142.351C132.156 141.799 132.275 141.248 132.402 140.702C132.508 140.237 132.615 139.778 132.728 139.313C132.781 139.107 132.834 138.894 132.887 138.688C133.239 137.299 133.625 135.929 134.037 134.58C134.117 134.32 134.197 134.068 134.277 133.815C134.409 133.396 134.542 132.978 134.682 132.565C134.855 132.04 135.034 131.515 135.221 130.99C135.44 130.365 135.673 129.747 135.905 129.128C136.058 128.716 136.218 128.304 136.384 127.898C136.543 127.5 136.703 127.101 136.869 126.702C137.135 126.077 137.401 125.452 137.674 124.834C137.886 124.355 138.106 123.883 138.325 123.411C138.531 122.972 138.744 122.534 138.957 122.095C138.997 122.015 139.043 121.929 139.076 121.849C139.296 121.403 139.522 120.965 139.748 120.526C139.994 120.047 140.246 119.582 140.499 119.116C140.758 118.638 141.031 118.159 141.297 117.68C141.549 117.235 141.809 116.796 142.068 116.364C142.793 115.154 143.55 113.971 144.328 112.814C144.554 112.475 144.787 112.143 145.02 111.81C145.252 111.478 145.485 111.146 145.724 110.82L146.442 109.843C146.914 109.218 147.4 108.593 147.892 107.988C147.918 107.961 147.938 107.935 147.958 107.908C148.184 107.622 148.423 107.336 148.656 107.057C148.676 107.037 148.689 107.017 148.703 106.997C148.869 106.798 149.035 106.605 149.201 106.412C149.281 106.312 149.367 106.219 149.454 106.12C149.986 105.508 150.524 104.91 151.069 104.318C151.322 104.045 151.581 103.773 151.847 103.5C152.12 103.214 152.392 102.935 152.665 102.663C153.456 101.865 154.267 101.094 155.091 100.356C155.151 100.303 155.211 100.25 155.264 100.196C155.53 99.9637 155.796 99.7243 156.069 99.4983C156.361 99.2456 156.654 98.993 156.946 98.7537C157.538 98.2617 158.129 97.7831 158.734 97.3177C159.04 97.085 159.339 96.8591 159.645 96.633C159.678 96.6064 159.718 96.5798 159.752 96.5533C160.024 96.3538 160.29 96.161 160.569 95.9682C161.799 95.084 163.062 94.2663 164.352 93.5084C164.658 93.3223 164.97 93.1428 165.283 92.9633C165.309 92.95 165.323 92.9434 165.323 92.9434L217.443 94.9644L232.467 95.5494L239.713 120.499L248.981 152.416L249.134 152.948Z" fill="#CA885E"/>
<path d="M189.734 237.132C222.705 237.132 249.433 203.379 249.433 161.744C249.433 120.108 222.705 86.3555 189.734 86.3555C156.763 86.3555 130.035 120.108 130.035 161.744C130.035 203.379 156.763 237.132 189.734 237.132Z" stroke="black" stroke-width="2.65919" stroke-miterlimit="10"/>
<path d="M185.453 168.065C185.453 168.065 182.933 176.954 174.37 184.985C169.411 189.638 179.828 196.12 187.161 195.694L181.756 192.271L178.818 189.485L180.041 186.115L184.888 174.182L185.453 168.072V168.065Z" fill="#CA885E"/>
<path d="M186.882 168.904C186.882 168.904 182.933 181.901 179.802 187.007C177.595 190.603 184.795 194.32 187.347 194.898" stroke="black" stroke-width="2.65919" stroke-miterlimit="10" stroke-linecap="round"/>
<path d="M173.54 206.937C173.54 206.937 188.271 218.91 203.09 202.849" stroke="black" stroke-width="2.65919" stroke-miterlimit="10" stroke-linecap="round"/>
<path d="M210.323 170.114C213.87 170.114 216.745 167.965 216.745 165.314C216.745 162.664 213.87 160.515 210.323 160.515C206.776 160.515 203.901 162.664 203.901 165.314C203.901 167.965 206.776 170.114 210.323 170.114Z" fill="black"/>
<path d="M165.695 168.758C169.139 168.758 171.931 166.779 171.931 164.337C171.931 161.895 169.139 159.916 165.695 159.916C162.251 159.916 159.459 161.895 159.459 164.337C159.459 166.779 162.251 168.758 165.695 168.758Z" fill="black"/>
<path d="M207.238 147.252C207.238 147.252 213.029 145.171 218.646 147.844C224.257 150.51 225.873 153.382 224.849 154.897C223.785 156.479 219.65 153.588 214.252 153.721C208.86 153.854 204.778 154.259 204.134 151.181C203.582 148.542 207.238 147.259 207.238 147.259V147.252Z" fill="#562B21"/>
<path d="M168.999 146.926C168.999 146.926 163.229 144.792 157.584 147.398C151.947 150.011 150.305 152.863 151.309 154.392C152.313 155.921 156.521 153.135 161.912 153.322C167.304 153.508 171.379 153.953 172.057 150.882C172.635 148.249 168.992 146.926 168.992 146.926H168.999Z" fill="#562B21"/>
<path d="M207.238 147.252C207.238 147.252 213.029 145.171 218.646 147.844C224.257 150.51 225.873 153.382 224.849 154.897C223.785 156.479 219.65 153.588 214.252 153.721C208.86 153.854 204.778 154.259 204.134 151.181C203.582 148.542 207.238 147.259 207.238 147.259V147.252Z" stroke="black" stroke-width="2.65919" stroke-miterlimit="10"/>
<path d="M169.07 146.956C169.07 146.956 163.229 144.792 157.584 147.398C151.947 150.011 150.305 152.863 151.309 154.392C152.313 155.921 156.521 153.136 161.912 153.322C167.304 153.508 171.379 153.953 172.057 150.882C172.635 148.249 168.992 146.926 168.992 146.926L169.07 146.956Z" stroke="black" stroke-width="2.65919" stroke-miterlimit="10"/>
<path d="M244.64 181.887C244.64 181.887 244.686 179.82 244.52 176.383C243.829 161.91 239.374 123.232 211.765 113.54C199.4 109.198 172.536 128.843 148.264 134.314C147.333 134.521 146.343 134.713 145.306 134.893C145.186 135.265 145.06 135.651 144.933 136.05C144.494 137.432 144.036 138.935 143.564 140.55C143.537 140.637 143.517 140.723 143.491 140.81C140.286 151.905 136.763 167.86 137.235 183.25C137.235 183.25 133.412 178.211 129.643 171.211C126.359 165.121 123.121 157.542 122.476 150.489C121.891 144.047 122.077 138.124 122.549 133.178C122.35 133.098 122.144 133.018 121.931 132.925C115.529 130.239 108.004 124.369 104.726 115.886C104.726 115.886 104.72 115.873 104.72 115.866C102.466 110.023 101.07 105.336 100.325 101.586C100.073 100.303 99.8932 99.1333 99.7868 98.063V98.0498C99.5608 95.9291 99.614 94.2138 99.8732 92.8244C99.8932 92.7247 99.9131 92.6316 99.9331 92.5386C100.159 91.4882 100.704 91.0428 101.396 90.8965H101.402C101.688 90.8433 101.987 90.8367 102.313 90.8566C102.725 90.8832 103.164 90.9563 103.603 91.0361C104.447 91.189 105.298 91.3552 106.003 91.2223H106.016C110.224 90.4179 114.107 90.0854 114.107 90.0854C114.107 90.0854 114.1 90.0854 114.093 90.0854C114.093 90.0788 114.073 90.0722 114.053 90.0589C113.488 89.6002 108.728 85.525 109.759 76.5967C109.938 75.0677 110.284 73.3923 110.856 71.5641C110.929 71.3448 111.002 71.1187 111.082 70.886C111.78 68.7986 112.764 66.525 114.107 64.0586C114.107 64.0586 114.173 64.1849 114.306 64.4109C114.339 64.4574 114.366 64.504 114.399 64.5638C114.426 64.597 114.452 64.637 114.479 64.6835C114.672 64.9959 114.951 65.4082 115.31 65.8868C115.363 65.9599 115.423 66.0331 115.483 66.1128C115.602 66.2657 115.735 66.4253 115.868 66.5915C115.941 66.6712 116.008 66.7577 116.081 66.8441C116.081 66.8441 116.081 66.8463 116.081 66.8507C116.187 66.9771 116.307 67.1033 116.42 67.2363C116.653 67.5022 116.912 67.7748 117.185 68.0408C117.318 68.1737 117.457 68.3133 117.603 68.4529H117.61C117.716 68.5526 117.829 68.659 117.949 68.7654C118.295 69.0845 118.654 69.3903 119.046 69.6894C119.219 69.8224 119.398 69.962 119.584 70.095H119.591C119.983 70.3808 120.402 70.66 120.834 70.926C121.273 71.1919 121.738 71.4512 122.224 71.6905C122.363 71.757 122.503 71.8234 122.643 71.8899C122.776 71.9497 122.908 72.0096 123.041 72.0694C123.314 72.1891 123.587 72.3021 123.866 72.4018H123.872C125.787 73.1131 128.001 73.5519 130.527 73.5054C131.418 73.4987 132.355 73.419 133.333 73.2727C134.822 73.06 136.411 72.681 138.092 72.1027C139.754 71.5309 141.456 70.8861 143.198 70.1814C160.237 63.3207 181.145 51.5338 206.72 62.6027C206.985 62.7157 207.251 62.8354 207.517 62.955C208.043 63.1944 208.568 63.4403 209.093 63.693C209.97 64.1184 210.855 64.5705 211.745 65.0558C212.051 65.222 212.357 65.3881 212.663 65.561C213.321 65.9266 213.979 66.3123 214.637 66.7112C214.637 66.7112 214.651 66.7177 214.657 66.7244C215.382 67.1565 216.113 67.6153 216.838 68.0873C217.21 68.3332 217.576 68.5726 217.948 68.8252C217.961 68.8318 217.981 68.8452 217.995 68.8584C218.254 69.0379 218.52 69.2174 218.779 69.3969C219.291 69.7559 219.809 70.1215 220.328 70.4938C220.607 70.6933 220.886 70.8994 221.166 71.1121C221.684 71.4977 222.209 71.8965 222.735 72.3087C223.818 73.1464 224.908 74.0372 226.005 74.9679C226.537 75.4266 227.076 75.892 227.621 76.3706C229.542 78.0725 231.483 79.914 233.451 81.9018C233.451 81.9018 258.022 74.9945 260.276 116.538C262.696 161.319 252.278 171.796 244.64 181.894V181.887Z" fill="#3A1B14"/>
<path d="M244.52 176.384C243.829 161.911 239.374 123.233 211.765 113.54C199.4 109.199 172.536 128.844 148.264 134.315C147.333 134.522 146.343 134.714 145.306 134.894C145.186 135.266 145.06 135.652 144.933 136.051C144.494 137.433 144.036 138.936 143.564 140.551C143.497 140.571 143.477 140.658 143.491 140.811C140.286 151.906 136.763 167.861 137.235 183.251C137.235 183.251 133.412 178.212 129.643 171.212C126.359 165.122 123.121 157.543 122.476 150.49C121.891 144.048 122.077 138.125 122.549 133.179C122.35 133.099 122.144 133.019 121.931 132.926C115.529 130.24 108.004 124.37 104.726 115.887C104.726 115.887 104.72 115.874 104.72 115.867C102.679 111.892 101.077 107.158 100.325 101.587C100.073 100.304 99.8932 99.1343 99.7868 98.0639C99.8466 98.0506 99.9131 98.0441 99.9729 98.0374C99.9131 98.0441 99.8466 98.0441 99.7868 98.0507C99.5608 95.93 99.614 94.2148 99.8732 92.8253C99.8932 92.0342 99.9331 91.2298 99.9862 90.4121C99.9862 90.4121 100.458 90.5318 101.256 90.678C101.303 90.7512 101.349 90.8244 101.396 90.8975C101.402 90.8975 101.402 90.9041 101.402 90.9041C101.396 90.8642 101.356 90.7379 101.342 90.6914C101.628 90.7445 101.954 90.8044 102.313 90.8576C102.725 90.8841 103.164 90.9573 103.603 91.0371C104.334 91.1168 105.145 91.19 106.003 91.2232H106.016C110.224 90.4188 114.107 90.0864 114.107 90.0864C114.107 90.0864 114.1 90.0864 114.093 90.0864C114.093 90.0797 114.073 90.0731 114.053 90.0598C113.482 89.6942 108.263 86.0777 109.666 76.5179C109.885 75.0154 110.264 73.3667 110.856 71.5651C110.929 71.3457 111.002 71.1197 111.082 70.887C111.78 68.7995 112.764 66.526 114.107 64.0596C114.107 64.0596 114.173 64.1858 114.306 64.4119C114.339 64.4584 114.366 64.5049 114.399 64.5647C114.426 64.598 114.452 64.6379 114.479 64.6844C114.672 64.9969 114.951 65.4091 115.31 65.8878C115.363 65.9609 115.423 66.034 115.483 66.1138C115.602 66.2667 115.735 66.4262 115.868 66.5924C115.941 66.6722 116.008 66.7586 116.081 66.845C116.081 66.845 116.081 66.8473 116.081 66.8517C116.187 66.978 116.307 67.1043 116.42 67.2372C116.659 67.4965 116.912 67.7625 117.185 68.0417C117.318 68.1747 117.457 68.3143 117.603 68.4539H117.61C117.716 68.5536 117.829 68.6599 117.949 68.7663C118.288 69.0721 118.66 69.3779 119.046 69.6904C119.219 69.8234 119.398 69.963 119.584 70.0959H119.591C119.983 70.3818 120.402 70.661 120.834 70.9269C121.273 71.1928 121.738 71.4521 122.224 71.6914C122.363 71.7579 122.503 71.8244 122.643 71.8908C122.776 71.9507 122.908 72.0105 123.041 72.0703C123.314 72.19 123.587 72.303 123.866 72.4027H123.872C125.787 73.1141 128.001 73.5529 130.527 73.5063C130.587 73.5263 130.653 73.5395 130.713 73.5462C131.498 73.6791 132.295 73.626 133.126 73.3468C133.133 73.3468 133.14 73.3468 133.146 73.3468C133.206 73.3268 133.266 73.3069 133.333 73.2803C136.258 72.2831 139.422 71.2593 142.779 70.302C142.919 70.2687 143.058 70.2289 143.198 70.189C166.533 63.6341 198.988 60.4563 224.649 89.1956C224.649 89.1956 225.394 88.9828 226.637 88.8565C232.527 88.2582 249.619 89.5146 251.474 123.825C253.016 152.331 249.36 166.937 244.52 176.397V176.384Z" fill="#562B21"/>
<path d="M244.64 181.888C244.64 181.888 244.686 179.82 244.52 176.383C243.829 161.911 239.374 123.233 211.765 113.54C199.4 109.199 172.536 128.844 148.264 134.315C147.333 134.521 146.343 134.714 145.305 134.893C145.186 135.266 145.059 135.651 144.933 136.05C144.494 137.433 144.036 138.935 143.564 140.551C143.537 140.637 143.517 140.724 143.491 140.81C140.286 151.906 136.763 167.861 137.235 183.251C137.235 183.251 133.412 178.212 129.643 171.211C126.359 165.122 123.121 157.543 122.476 150.49C121.891 144.048 122.077 138.124 122.549 133.178C122.35 133.098 122.144 133.019 121.931 132.926C117.69 131.071 109.838 125.832 104.726 115.887C104.726 115.887 104.72 115.874 104.72 115.867C102.679 111.891 101.076 107.158 100.325 101.587C100.166 100.444 100.053 99.2603 99.9729 98.037C99.8598 96.3684 99.8266 94.6332 99.8731 92.8249C99.8931 92.0338 99.933 91.2294 99.9862 90.4117C99.9862 90.4117 100.458 90.5314 101.256 90.6777C101.283 90.6777 101.309 90.6843 101.342 90.691C101.628 90.7442 101.954 90.804 102.313 90.8572C102.705 90.917 103.137 90.9768 103.603 91.0367C104.334 91.1165 105.145 91.1896 106.003 91.2228H106.016C108.336 91.3159 111.002 91.163 113.355 90.3652C113.362 90.3652 113.369 90.3652 113.375 90.3586C113.621 90.2788 113.867 90.1857 114.106 90.086C114.106 90.086 114.1 90.086 114.093 90.086C114.093 90.0793 114.073 90.0727 114.053 90.0594C113.482 89.6938 108.263 86.0773 109.666 76.5175C109.885 75.0151 110.264 73.3663 110.856 71.5647C110.929 71.3453 111.002 71.1193 111.082 70.8866C111.8 68.8124 112.79 66.5455 114.106 64.0592C114.106 64.0592 114.173 64.1854 114.306 64.4115C114.339 64.458 114.366 64.5045 114.399 64.5644C114.426 64.5976 114.452 64.6375 114.479 64.6841C114.672 64.9965 114.951 65.4087 115.31 65.8874C115.363 65.9605 115.423 66.0336 115.483 66.1134C115.602 66.2663 115.735 66.4258 115.868 66.592C115.941 66.6718 116.008 66.7582 116.081 66.8447C116.081 66.8447 116.081 66.8469 116.081 66.8513C116.187 66.9776 116.307 67.1039 116.42 67.2369C116.659 67.4961 116.912 67.7621 117.184 68.0413C117.317 68.1743 117.457 68.3139 117.603 68.4535H117.61C117.716 68.5532 117.829 68.6596 117.949 68.7659C118.288 69.0717 118.66 69.3776 119.046 69.69C119.219 69.823 119.398 69.9626 119.584 70.0955H119.591C119.983 70.3814 120.402 70.6606 120.834 70.9265C121.273 71.1924 121.738 71.4517 122.224 71.6911C122.363 71.7575 122.503 71.824 122.642 71.8905C122.775 71.9503 122.908 72.0101 123.041 72.07C123.314 72.1896 123.586 72.3026 123.866 72.4024H123.872C125.834 73.1536 128.114 73.6123 130.713 73.5458C131.491 73.5258 132.295 73.4661 133.126 73.3464C133.133 73.3464 133.14 73.3464 133.146 73.3464C134.695 73.1337 136.344 72.7348 138.092 72.1099C139.621 71.5714 141.184 70.9597 142.779 70.3016C159.858 63.3411 180.912 51.3748 206.719 62.6099C206.985 62.7229 207.251 62.8426 207.517 62.9623C208.042 63.2016 208.568 63.4475 209.093 63.7002C209.97 64.1256 210.855 64.5777 211.745 65.063C212.051 65.2292 212.357 65.3954 212.663 65.5682C213.321 65.9339 213.979 66.3195 214.637 66.7184C214.637 66.7184 214.651 66.725 214.657 66.7316C215.382 67.1637 216.113 67.6225 216.838 68.0945C217.21 68.3405 217.576 68.5798 217.948 68.8324C217.961 68.839 217.981 68.8524 217.994 68.8657C218.254 69.0452 218.52 69.2246 218.779 69.4041C219.291 69.7631 219.809 70.1288 220.328 70.501C220.607 70.7005 220.886 70.9066 221.166 71.1193C221.684 71.5049 222.209 71.9038 222.734 72.3159C223.818 73.1536 224.908 74.0444 226.005 74.9751C226.537 75.4338 227.076 75.8992 227.621 76.3778C229.542 78.0797 231.483 79.9213 233.451 81.909C233.451 81.909 258.022 75.0017 260.276 116.545C262.695 161.326 252.278 171.803 244.64 181.901V181.888Z" stroke="black" stroke-width="2.65919" stroke-miterlimit="10"/>
<path d="M124.045 84.8076C124.045 84.8076 118.64 89.8069 112.478 90.4982" stroke="black" stroke-width="2.65919" stroke-miterlimit="10" stroke-linecap="round"/>
<path d="M225.135 88.1581C225.135 88.1581 226.85 83.9832 233.451 81.9023" stroke="black" stroke-width="2.65919" stroke-miterlimit="10" stroke-linecap="round"/>
<path d="M150.338 123.393C150.338 123.393 146.708 129.721 144.927 136.057" stroke="black" stroke-width="2.65919" stroke-miterlimit="10" stroke-linecap="round"/>
</g>
<rect x="1" y="1" width="370" height="368" rx="11" stroke="black" stroke-width="2"/>
<defs>
<clipPath id="clip0_476_1521">
<rect width="372" height="370" rx="12" fill="white"/>
</clipPath>
</defs>
</svg>
