<svg width="370" height="372" viewBox="0 0 370 372" fill="none" xmlns="http://www.w3.org/2000/svg">
<g clip-path="url(#clip0_476_1753)">
<rect x="-17" y="-16" width="404" height="405" fill="#628AF2"/>
<path d="M45.6502 96.2653L29.0072 271.571V273.79H60.0741L63.8465 231.628H76.2732L80.0456 273.79H111.112V271.571L94.4695 96.2653H45.6502ZM64.0684 202.78L68.9503 141.756H71.1694L76.0513 202.78H64.0684ZM119.162 96.2653V273.79H180.186V244.942H152.448V96.2653H119.162ZM188.825 96.2653V273.79H248.739V244.942H222.11V198.342H245.411V169.494H222.11V125.113H248.739V96.2653H188.825ZM307.068 96.2653L298.192 155.514H295.973L287.097 96.2653H256.03V98.4844L268.235 182.809V185.028L254.92 271.571V273.79H287.097L295.973 213.432H298.192L307.068 273.79H339.245V271.571L325.93 185.028V182.809L338.135 98.4844V96.2653H307.068Z" fill="#426AD1"/>
<path d="M213.853 271.766C213.113 272.165 212.36 272.582 211.581 273.032C197.512 281.165 172.436 277.228 163.41 270.139C162.758 269.627 162.081 269.165 161.391 268.747L161.815 264.443L162.727 255.101L165.55 226.184H208.366L209.733 237.544L213.202 266.361L213.853 271.766Z" fill="#FFD4A0"/>
<path d="M209.733 239.424C202.803 255.842 176.986 259.272 162.727 259.886L165.55 226.184H208.366L209.733 239.424Z" fill="#ECA26F"/>
<path d="M161.98 268.766L165.55 226.184H208.366L213.202 273.006C213.202 273.006 185.151 285.696 161.98 268.766Z" stroke="black" stroke-width="2.53165" stroke-miterlimit="10"/>
<path d="M259.182 190.924C256.011 196.949 251.429 201.418 246.803 203.544C243.163 205.228 239.492 205.462 236.467 203.867C236.056 203.652 235.67 203.405 235.303 203.133C229.499 198.861 228.954 187.943 234.296 177.81C236.404 173.804 239.144 170.481 242.1 168.082C247.081 164.031 252.695 162.595 257.011 164.867C257.752 165.259 258.429 165.74 259.03 166.316C264.018 170.993 264.246 181.316 259.182 190.924Z" fill="#FFD4A0"/>
<path d="M259.031 166.316C257.885 167.835 256.588 169.759 255.271 172.12C251.55 178.823 247.72 189.05 246.803 203.544C243.163 205.228 239.493 205.462 236.467 203.867C236.056 203.652 235.67 203.405 235.303 203.133C237.119 193.62 239.885 179.392 242.1 168.082C247.081 164.031 252.695 162.595 257.012 164.867C257.752 165.259 258.429 165.74 259.031 166.316Z" fill="#ECA26F"/>
<path d="M259.182 190.924C256.011 196.949 251.429 201.418 246.803 203.544C243.163 205.228 239.492 205.462 236.467 203.867C236.056 203.652 235.67 203.405 235.303 203.133C229.499 198.861 228.954 187.943 234.296 177.81C236.404 173.804 239.144 170.481 242.1 168.082C247.081 164.031 252.695 162.595 257.011 164.867C257.752 165.259 258.429 165.74 259.03 166.316C264.018 170.993 264.246 181.316 259.182 190.924Z" stroke="black" stroke-width="2.53165" stroke-miterlimit="10"/>
<path d="M258.011 176.898C258.011 176.898 256.948 171.164 253.378 171.822C249.385 172.563 248.48 175.955 248.581 184.594C248.682 193.234 246.733 195.347 243.688 196.366" stroke="black" stroke-width="2.53165" stroke-miterlimit="10" stroke-linecap="round"/>
<path d="M139.129 203.846C146.001 200.226 146.971 188.559 141.297 177.788C135.623 167.016 125.452 161.219 118.58 164.839C111.708 168.459 110.738 180.126 116.412 190.897C122.086 201.669 132.257 207.466 139.129 203.846Z" fill="#FFD4A0"/>
<path d="M117.562 166.316C118.708 167.835 120.22 169.652 121.322 172.12C124.752 179.785 125.796 187.937 126.714 202.43C130.353 204.114 137.1 205.462 140.125 203.867C140.537 203.652 140.923 203.405 141.29 203.133C139.473 193.62 136.708 179.392 134.492 168.082C129.511 164.031 123.897 162.595 119.581 164.867C118.84 165.259 118.163 165.74 117.562 166.316Z" fill="#ECA26F"/>
<path d="M139.129 203.846C146.001 200.226 146.971 188.559 141.297 177.788C135.623 167.016 125.452 161.219 118.58 164.839C111.708 168.459 110.738 180.126 116.412 190.897C122.086 201.669 132.257 207.466 139.129 203.846Z" stroke="black" stroke-width="2.53165" stroke-miterlimit="10"/>
<path d="M117.587 176.898C117.587 176.898 118.65 171.164 122.22 171.822C126.214 172.563 127.119 175.955 127.018 184.594C126.916 193.234 128.866 195.347 131.91 196.366" stroke="black" stroke-width="2.53165" stroke-miterlimit="10" stroke-linecap="round"/>
<path d="M244.455 166.5C244.455 181.911 240.607 196.183 234.062 207.88H234.056C223.771 226.272 206.803 238.272 187.619 238.272C185.594 238.272 183.594 238.139 181.626 237.873C180.79 237.766 179.961 237.633 179.138 237.475C178.929 237.437 178.72 237.392 178.512 237.348C178.252 237.297 177.999 237.247 177.746 237.183C177.651 237.164 177.556 237.145 177.467 237.12C177.157 237.057 176.847 236.981 176.537 236.899C176.151 236.81 175.771 236.709 175.398 236.601C175.208 236.55 175.018 236.5 174.834 236.443C174.55 236.361 174.265 236.278 173.98 236.183C173.448 236.025 172.929 235.848 172.41 235.664C172.018 235.532 171.626 235.386 171.239 235.24C170.822 235.082 170.404 234.918 169.993 234.747C169.1 234.38 168.22 233.987 167.353 233.569C167.012 233.405 166.664 233.234 166.328 233.057C165.955 232.873 165.588 232.677 165.22 232.475C164.891 232.297 164.562 232.12 164.239 231.93C163.993 231.791 163.752 231.652 163.512 231.506C163.189 231.323 162.879 231.126 162.562 230.93C162.334 230.791 162.113 230.652 161.885 230.5C159.581 229.025 157.366 227.354 155.258 225.5C154.942 225.228 154.638 224.949 154.328 224.671C154.018 224.386 153.701 224.095 153.398 223.797C153.088 223.506 152.784 223.209 152.48 222.905C152.176 222.601 151.872 222.297 151.575 221.987C151.277 221.677 150.98 221.367 150.689 221.044C150.391 220.728 150.107 220.411 149.815 220.082C149.246 219.449 148.695 218.804 148.157 218.145C147.866 217.791 147.581 217.437 147.296 217.069C147.024 216.721 146.752 216.373 146.486 216.019C146.258 215.715 146.024 215.399 145.79 215.088C145.486 214.664 145.182 214.24 144.885 213.81C144.771 213.645 144.657 213.475 144.543 213.31L144.531 213.297C144.41 213.12 144.29 212.937 144.17 212.759C143.923 212.386 143.676 212.006 143.429 211.626C143.189 211.253 142.948 210.867 142.714 210.481C142.474 210.095 142.239 209.709 142.012 209.316C141.777 208.924 141.55 208.531 141.328 208.133C141.1 207.734 140.879 207.335 140.663 206.93C139.999 205.721 139.372 204.481 138.784 203.215C138.632 202.899 138.486 202.576 138.334 202.253C138.094 201.728 137.86 201.196 137.632 200.658C137.448 200.228 137.265 199.791 137.088 199.354C136.904 198.918 136.733 198.481 136.562 198.038C136.391 197.595 136.22 197.145 136.056 196.702C135.891 196.253 135.733 195.804 135.575 195.348C135.417 194.899 135.258 194.443 135.113 193.987C134.961 193.531 134.815 193.069 134.67 192.607C134.379 191.683 134.113 190.753 133.86 189.81C133.6 188.867 133.36 187.918 133.138 186.955C133.037 186.519 132.936 186.082 132.841 185.645C132.822 185.582 132.809 185.512 132.796 185.449C132.695 184.987 132.6 184.519 132.505 184.05C132.41 183.563 132.315 183.076 132.227 182.582C132.138 182.095 132.056 181.601 131.974 181.101C131.891 180.607 131.815 180.107 131.739 179.614C131.588 178.614 131.461 177.607 131.353 176.595C131.309 176.183 131.265 175.772 131.22 175.354C131.195 175.069 131.17 174.785 131.144 174.5C131.113 174.19 131.088 173.886 131.069 173.576C130.98 172.5 130.917 171.418 130.872 170.329C130.853 169.987 130.841 169.645 130.834 169.297C130.822 168.943 130.815 168.588 130.809 168.234C130.796 167.658 130.79 167.082 130.79 166.5C130.79 165.918 130.796 165.291 130.809 164.69C130.809 164.202 130.828 163.715 130.847 163.228C130.847 163.095 130.86 162.968 130.866 162.842C130.885 162.335 130.904 161.829 130.936 161.329C130.999 160.24 131.075 159.164 131.176 158.088C131.36 156.12 131.6 154.171 131.91 152.253C132.056 151.348 132.214 150.443 132.385 149.55C132.48 149.05 132.581 148.557 132.682 148.063C132.682 148.063 132.689 148.044 132.689 148.031C132.803 147.506 132.917 146.981 133.037 146.462C133.138 146.019 133.239 145.582 133.347 145.139C133.398 144.943 133.448 144.74 133.499 144.544C133.834 143.221 134.201 141.917 134.594 140.633C134.67 140.386 134.746 140.145 134.822 139.905C134.948 139.506 135.075 139.107 135.208 138.715C135.372 138.215 135.543 137.715 135.72 137.215C135.929 136.62 136.151 136.031 136.372 135.443C136.518 135.05 136.67 134.658 136.828 134.272C136.98 133.892 137.132 133.512 137.29 133.133C137.543 132.538 137.796 131.943 138.056 131.354C138.258 130.898 138.467 130.449 138.676 130C138.872 129.582 139.075 129.164 139.277 128.747C139.315 128.671 139.36 128.588 139.391 128.512C139.6 128.088 139.815 127.671 140.031 127.253C140.265 126.797 140.505 126.354 140.746 125.911C140.993 125.455 141.252 125 141.505 124.544C141.746 124.12 141.993 123.702 142.239 123.291C142.929 122.139 143.651 121.012 144.391 119.911C144.607 119.588 144.828 119.272 145.05 118.955C145.271 118.639 145.493 118.323 145.72 118.012L146.404 117.082C146.853 116.487 147.315 115.892 147.784 115.316C147.809 115.291 147.828 115.266 147.847 115.24C148.062 114.968 148.29 114.696 148.512 114.43C148.531 114.411 148.543 114.392 148.556 114.373C148.714 114.183 148.872 114 149.031 113.816C149.107 113.721 149.189 113.633 149.271 113.538C149.777 112.955 150.29 112.386 150.809 111.822C151.05 111.563 151.296 111.304 151.55 111.044C151.809 110.772 152.069 110.506 152.328 110.247C153.081 109.487 153.853 108.753 154.638 108.05C154.695 108 154.752 107.949 154.803 107.898C155.056 107.677 155.309 107.449 155.569 107.234C155.847 106.993 156.125 106.753 156.404 106.525C156.967 106.057 157.531 105.601 158.107 105.158C158.398 104.936 158.682 104.721 158.974 104.506C159.005 104.481 159.043 104.455 159.075 104.43C159.334 104.24 159.588 104.057 159.853 103.873C161.024 103.031 162.227 102.253 163.455 101.531C163.758 101.348 164.069 101.171 164.379 100.993C164.708 100.803 165.043 100.62 165.372 100.443C166.208 99.9934 167.056 99.5693 167.904 99.1706C168.151 99.0567 168.398 98.9427 168.645 98.8288C169.145 98.6073 169.651 98.3921 170.151 98.1896C170.436 98.0693 170.72 97.9554 171.012 97.8478C171.505 97.6516 172.005 97.4744 172.499 97.3035C172.847 97.1769 173.195 97.063 173.543 96.9554C173.67 96.9111 173.796 96.8668 173.929 96.8288C174.303 96.7149 174.676 96.601 175.05 96.4934C175.48 96.3731 175.91 96.2529 176.347 96.1453C176.777 96.0313 177.214 95.9301 177.651 95.8351C178.062 95.7402 178.474 95.6579 178.885 95.5756C178.929 95.563 178.98 95.5567 179.031 95.544C179.391 95.4744 179.758 95.4111 180.126 95.3541C180.626 95.2655 181.126 95.1896 181.626 95.1263C183.594 94.8604 185.594 94.7275 187.619 94.7275C196.872 94.7275 205.607 97.5187 213.328 102.474C220.645 107.164 227.05 113.797 232.113 121.835C239.841 134.095 244.455 149.614 244.455 166.5Z" fill="#ECA26F"/>
<path d="M232.461 166.499C232.461 170.854 232.151 175.12 231.562 179.259C231.562 179.278 231.556 179.297 231.556 179.316C229.018 197.082 221.309 212.575 210.454 223.215C202.321 231.196 192.423 236.449 181.625 237.873C180.79 237.765 179.961 237.632 179.138 237.474C178.929 237.436 178.72 237.392 178.511 237.348C178.252 237.297 177.999 237.246 177.746 237.183C177.651 237.164 177.556 237.145 177.467 237.12C177.157 237.057 176.847 236.981 176.537 236.898C176.151 236.81 175.771 236.708 175.397 236.601C175.208 236.55 175.018 236.5 174.834 236.443C174.549 236.36 174.265 236.278 173.98 236.183C173.448 236.025 172.929 235.848 172.41 235.664C172.018 235.531 171.625 235.386 171.239 235.24C170.821 235.082 170.404 234.917 169.992 234.746C169.1 234.379 168.22 233.987 167.353 233.569C167.011 233.405 166.663 233.234 166.328 233.057C165.954 232.873 165.587 232.677 165.22 232.474C164.891 232.297 164.562 232.12 164.239 231.93C163.992 231.791 163.752 231.651 163.511 231.506C163.189 231.322 162.878 231.126 162.562 230.93C162.334 230.791 162.113 230.651 161.885 230.5C159.581 229.025 157.366 227.354 155.258 225.5C154.942 225.227 154.638 224.949 154.328 224.67C154.018 224.386 153.701 224.094 153.397 223.797C153.087 223.506 152.783 223.208 152.48 222.905C152.176 222.601 151.872 222.297 151.575 221.987C151.277 221.677 150.98 221.367 150.689 221.044C150.391 220.727 150.106 220.411 149.815 220.082C149.252 219.449 148.701 218.803 148.157 218.145C147.866 217.791 147.581 217.436 147.296 217.069C147.024 216.721 146.752 216.373 146.486 216.019C146.258 215.715 146.024 215.398 145.79 215.088C145.486 214.664 145.182 214.24 144.885 213.81C144.771 213.645 144.657 213.474 144.543 213.31L144.53 213.297C144.41 213.12 144.29 212.936 144.17 212.759C143.923 212.386 143.676 212.006 143.429 211.626C143.189 211.253 142.948 210.867 142.714 210.481C142.473 210.094 142.239 209.708 142.011 209.316C141.777 208.924 141.549 208.531 141.328 208.132C141.1 207.734 140.878 207.335 140.663 206.93C140.005 205.721 139.378 204.481 138.783 203.215C138.632 202.898 138.486 202.575 138.334 202.253C138.094 201.727 137.859 201.196 137.632 200.658C137.448 200.227 137.264 199.791 137.087 199.354C136.904 198.917 136.733 198.481 136.562 198.037C136.391 197.594 136.22 197.145 136.056 196.702C135.891 196.253 135.733 195.803 135.575 195.348C135.416 194.898 135.258 194.443 135.113 193.987C134.961 193.531 134.815 193.069 134.67 192.607C134.385 191.683 134.113 190.753 133.859 189.81C133.6 188.867 133.359 187.917 133.138 186.955C133.037 186.518 132.935 186.082 132.84 185.645C132.821 185.582 132.809 185.512 132.796 185.449C132.695 184.987 132.6 184.518 132.505 184.05C132.41 183.563 132.315 183.075 132.227 182.582C132.138 182.094 132.056 181.601 131.973 181.101C131.891 180.607 131.815 180.107 131.739 179.613C131.594 178.613 131.467 177.607 131.353 176.594C131.309 176.183 131.264 175.772 131.22 175.354C131.195 175.069 131.17 174.784 131.144 174.499C131.113 174.189 131.087 173.886 131.068 173.575C130.98 172.499 130.916 171.417 130.872 170.329C130.853 169.987 130.84 169.645 130.834 169.297C130.821 168.943 130.815 168.588 130.809 168.234C130.796 167.658 130.79 167.082 130.79 166.499C130.79 165.917 130.796 165.291 130.809 164.689C130.809 164.202 130.828 163.715 130.847 163.227C130.847 163.094 130.859 162.968 130.866 162.841C130.885 162.335 130.904 161.829 130.935 161.329C130.999 160.24 131.075 159.164 131.176 158.088C131.442 155.189 131.847 152.335 132.385 149.55C132.48 149.05 132.581 148.556 132.682 148.063C132.682 148.063 132.689 148.044 132.689 148.031C132.802 147.506 132.916 146.98 133.037 146.461C133.138 146.018 133.239 145.582 133.347 145.139C133.397 144.942 133.448 144.74 133.499 144.544C133.834 143.221 134.201 141.917 134.594 140.632C134.67 140.386 134.745 140.145 134.821 139.905C134.948 139.506 135.075 139.107 135.208 138.715C135.372 138.215 135.543 137.715 135.72 137.215C135.929 136.62 136.151 136.031 136.372 135.442C136.518 135.05 136.67 134.658 136.828 134.272C136.98 133.892 137.132 133.512 137.29 133.132C137.543 132.537 137.796 131.942 138.056 131.354C138.258 130.898 138.467 130.449 138.676 129.999C138.872 129.582 139.075 129.164 139.277 128.746C139.315 128.67 139.359 128.588 139.391 128.512C139.6 128.088 139.815 127.67 140.03 127.253C140.264 126.797 140.505 126.354 140.745 125.911C140.992 125.455 141.252 124.999 141.505 124.544C141.745 124.12 141.992 123.702 142.239 123.291C142.929 122.139 143.651 121.012 144.391 119.911C144.606 119.588 144.828 119.272 145.049 118.955C145.271 118.639 145.492 118.322 145.72 118.012L146.404 117.082C146.859 116.487 147.315 115.898 147.783 115.316C147.809 115.291 147.828 115.265 147.847 115.24C148.062 114.968 148.29 114.696 148.511 114.43C148.53 114.411 148.543 114.392 148.556 114.373C148.796 114.088 149.03 113.81 149.271 113.537C149.777 112.955 150.29 112.385 150.809 111.822C151.049 111.563 151.296 111.303 151.549 111.044C151.809 110.772 152.068 110.506 152.328 110.246C153.081 109.487 153.853 108.759 154.638 108.05C154.695 107.999 154.752 107.949 154.802 107.898C155.056 107.677 155.309 107.449 155.568 107.234C155.847 106.993 156.125 106.753 156.404 106.525C156.967 106.056 157.53 105.601 158.106 105.158C158.397 104.936 158.682 104.721 158.973 104.506C159.265 104.291 159.556 104.082 159.853 103.873C161.03 103.037 162.227 102.259 163.454 101.531C163.758 101.348 164.068 101.17 164.378 100.993C164.708 100.803 165.043 100.62 165.372 100.442C166.208 99.9931 167.056 99.569 167.904 99.1703C168.151 99.0564 168.397 98.9424 168.644 98.8285C169.144 98.607 169.651 98.3918 170.151 98.1893C170.435 98.069 170.72 97.9551 171.011 97.8475C171.505 97.6513 172.005 97.4741 172.499 97.3032C172.847 97.1766 173.195 97.0627 173.543 96.9551C173.67 96.9108 173.796 96.8665 173.929 96.8285C174.302 96.7146 174.676 96.6007 175.049 96.4931C175.48 96.3728 175.91 96.2526 176.347 96.145C176.777 96.031 177.214 95.9298 177.651 95.8348C178.062 95.7399 178.473 95.6576 178.885 95.5753C178.929 95.5627 178.98 95.5564 179.03 95.5437C179.391 95.4741 179.758 95.4108 180.125 95.3538C180.625 95.2652 181.125 95.1893 181.625 95.126C187.866 95.9551 193.803 98.05 199.271 101.215C218.853 112.544 232.461 137.512 232.461 166.499Z" fill="#FFD4A0"/>
<path d="M187.619 238.265C219.008 238.265 244.454 206.132 244.454 166.493C244.454 126.854 219.008 94.7207 187.619 94.7207C156.23 94.7207 130.783 126.854 130.783 166.493C130.783 206.132 156.23 238.265 187.619 238.265Z" stroke="black" stroke-width="2.53165" stroke-miterlimit="10"/>
<path d="M183.543 172.513C183.543 172.513 181.145 180.975 172.993 188.62C168.271 193.051 178.189 199.222 185.17 198.817L180.024 195.557L177.227 192.905L178.391 189.696L183.005 178.335L183.543 172.519V172.513Z" fill="#ECA26F"/>
<path d="M293.062 363.444C293.062 366.33 292.916 369.178 292.638 372.001H74.3467C75.6758 331.786 104.03 299.108 135.353 281.26C142.492 277.191 149.79 273.893 156.954 271.45C159.689 270.513 162.404 269.703 165.087 269.026C166.878 268.577 168.948 268.545 171.144 268.747C177.151 269.304 184.049 271.583 188.461 271.583C189.442 271.583 190.353 271.513 191.214 271.399C197.41 270.577 200.904 267.26 207.347 268.361C220.227 270.564 231.973 274.608 242.353 280.159C274.056 297.089 293.062 328.051 293.062 363.444Z" fill="#13BCBC"/>
<path d="M263.644 363.444C263.644 366.33 263.499 369.178 263.22 372.001H74.3467C75.9796 322.621 118.359 284.602 156.954 271.45C157.701 271.533 158.397 271.583 159.043 271.583C164.201 271.583 167.499 269.735 171.144 268.748C173.17 268.197 175.302 267.912 177.923 268.362C182.499 269.147 186.935 270.159 191.214 271.4C235.771 284.216 263.644 320.577 263.644 363.444Z" fill="#1DD2D6"/>
<path d="M245.144 281.703C220.505 317.083 195.138 312.21 195.138 312.21L188.537 300.944L180.454 312.21C156.246 308.336 139.106 292.507 132.492 282.931C139.632 278.861 149.784 273.893 156.948 271.45C159.682 270.513 162.398 269.703 165.081 269.026C166.872 268.577 168.942 268.545 171.138 268.747C177.144 269.304 184.043 271.583 188.454 271.583C189.436 271.583 190.347 271.513 191.208 271.399C197.404 270.577 200.898 267.26 207.341 268.361C220.22 270.564 234.758 276.153 245.138 281.703H245.144Z" fill="#13BCBC"/>
<path d="M293.062 363.445C293.062 366.331 292.916 369.179 292.638 372.001H74.3467C75.9669 323.039 117.651 285.242 155.98 271.786C165.885 268.305 177.695 272.406 186.404 272.406C198.638 272.406 207.98 267.982 218.543 270.818C264.315 283.096 293.062 319.919 293.062 363.451V363.445Z" stroke="black" stroke-width="2.53165" stroke-miterlimit="10"/>
<path d="M231.277 275.868C217.208 297.684 195.802 300.944 195.802 300.944C195.429 298.709 194.606 295.127 193.638 291.209C191.423 282.254 188.461 271.583 188.461 271.583C204.568 265.469 217.208 253.64 217.208 253.64L225.992 267.519L231.277 275.868Z" fill="#E5E5E5"/>
<path d="M225.992 267.519C214.929 284.095 199.663 289.608 193.638 291.209C191.423 282.254 188.461 271.583 188.461 271.583C204.568 265.469 217.208 253.64 217.208 253.64L225.992 267.519Z" fill="white"/>
<path d="M188.543 271.583C188.543 271.583 194.657 293.602 195.885 300.944C195.885 300.944 217.296 297.685 231.359 275.868L217.29 253.646C217.29 253.646 204.651 265.469 188.543 271.59V271.583Z" stroke="black" stroke-width="2.53165" stroke-miterlimit="10"/>
<path d="M188.461 271.659L182.973 291.488L180.353 300.944C156.499 295.285 145.562 275.602 145.562 275.602L150.581 268.355L160.777 253.64C173.163 266.893 188.461 271.659 188.461 271.659Z" fill="#E5E5E5"/>
<path d="M188.461 271.659L182.973 291.488C164.404 286.633 153.942 273.323 150.581 268.355L160.777 253.64C173.163 266.893 188.461 271.659 188.461 271.659Z" fill="white"/>
<path d="M188.543 271.659C188.543 271.659 173.246 266.893 160.86 253.64L145.644 275.602C145.644 275.602 156.581 295.285 180.435 300.944L188.543 271.659Z" stroke="black" stroke-width="2.53165" stroke-miterlimit="10"/>
<path d="M187.796 322.601C190.666 322.601 192.992 320.275 192.992 317.405C192.992 314.535 190.666 312.209 187.796 312.209C184.926 312.209 182.6 314.535 182.6 317.405C182.6 320.275 184.926 322.601 187.796 322.601Z" fill="white"/>
<path d="M187.796 346.456C190.666 346.456 192.992 344.129 192.992 341.26C192.992 338.39 190.666 336.063 187.796 336.063C184.926 336.063 182.6 338.39 182.6 341.26C182.6 344.129 184.926 346.456 187.796 346.456Z" fill="white"/>
<path d="M184.91 173.31C184.91 173.31 181.151 185.683 178.17 190.544C176.068 193.968 182.923 197.506 185.353 198.056" stroke="black" stroke-width="2.53165" stroke-miterlimit="10" stroke-linecap="round"/>
<path d="M172.201 209.518C172.201 209.518 186.227 220.917 200.334 205.626" stroke="black" stroke-width="2.53165" stroke-miterlimit="10" stroke-linecap="round"/>
<path d="M208.594 172.512C212.397 172.512 215.48 171.038 215.48 169.221C215.48 167.403 212.397 165.93 208.594 165.93C204.791 165.93 201.708 167.403 201.708 169.221C201.708 171.038 204.791 172.512 208.594 172.512Z" fill="black"/>
<path d="M163.265 171.809C167.145 171.809 170.29 170.381 170.29 168.62C170.29 166.858 167.145 165.43 163.265 165.43C159.385 165.43 156.239 166.858 156.239 168.62C156.239 170.381 159.385 171.809 163.265 171.809Z" fill="black"/>
<path d="M204.284 152.697C204.284 152.697 209.796 150.715 215.144 153.26C220.486 155.798 222.024 158.532 221.049 159.975C220.037 161.481 216.1 158.728 210.961 158.855C205.822 158.981 201.942 159.367 201.328 156.437C200.803 153.924 204.284 152.703 204.284 152.703V152.697Z" fill="#F6AF59"/>
<path d="M167.878 152.386C167.878 152.386 162.385 150.354 157.011 152.835C151.644 155.322 150.081 158.038 151.037 159.493C151.992 160.949 155.999 158.297 161.132 158.474C166.265 158.652 170.144 159.076 170.79 156.152C171.341 153.645 167.872 152.386 167.872 152.386H167.878Z" fill="#F6AF59"/>
<path d="M204.284 152.697C204.284 152.697 209.796 150.715 215.144 153.26C220.486 155.798 222.024 158.532 221.049 159.975C220.037 161.481 216.1 158.728 210.961 158.855C205.828 158.981 201.942 159.367 201.328 156.437C200.803 153.924 204.284 152.703 204.284 152.703V152.697Z" stroke="black" stroke-width="2.53165" stroke-miterlimit="10"/>
<path d="M167.878 152.386C167.878 152.386 162.385 150.354 157.011 152.835C151.644 155.322 150.081 158.038 151.037 159.493C151.992 160.949 155.999 158.297 161.132 158.474C166.265 158.652 170.144 159.076 170.79 156.152C171.341 153.645 167.872 152.386 167.872 152.386H167.878Z" stroke="black" stroke-width="2.53165" stroke-miterlimit="10"/>
<path d="M245.195 94.8791C244.682 94.1196 244.277 93.5563 244.018 93.2082C243.803 92.9171 243.689 92.7715 243.689 92.7715C243.86 90.6513 243.961 88.6956 243.992 86.8918C244.151 79.2272 243.17 74.3285 241.904 71.2019C241.904 71.2019 241.902 71.1977 241.897 71.1892C241.897 71.1892 241.885 71.1513 241.879 71.1323C239.898 66.2652 237.239 65.7588 237.239 65.7588C236.018 70.8538 229.897 77.1766 229.897 77.1766C207.473 53.3221 191.771 61.2715 191.771 61.2715C193.334 62.4044 194.568 63.9424 195.467 65.3348C195.467 65.3411 195.473 65.3411 195.473 65.3475C196.676 67.2145 197.277 68.8158 197.277 68.8158C197.176 68.7968 197.081 68.7778 196.98 68.7588C153.543 60.1892 131.581 90.55 125.416 99.5943C119.973 107.569 118.657 121.316 118.999 134.031C119.283 144.386 120.676 154.056 121.84 159.36C123.113 165.164 125.201 162.873 128.859 166.493C129.106 168.689 133.587 206.462 136.448 218.487C136.689 219.5 136.916 220.329 137.132 220.936C139.986 229.088 150.037 257.424 187.619 257.614C222.087 257.791 234.208 233.17 238.03 217.107C238.372 215.651 238.651 214.272 238.872 212.981C240.739 202.038 243.366 182.354 244.758 171.689C249.138 163.424 254.537 163.987 254.537 163.987C266.796 130.721 250.423 102.613 245.195 94.8791ZM237.309 165.835V165.848C237.201 167.43 237.056 168.316 237.056 168.316C237.056 168.316 234.929 183 231.36 197.189C230.511 200.588 229.625 203.272 228.841 205.316C228.841 205.329 228.834 205.335 228.828 205.348C227.518 208.753 226.499 210.386 226.36 210.588C226.353 210.607 226.347 210.613 226.347 210.613C226.347 210.613 194.024 197.708 146.189 211.822C146.189 211.822 146.182 211.816 146.182 211.797C146.043 211.076 142.885 195.075 141.771 181.31C141.296 178.215 141.037 175.063 140.935 171.974C140.454 158.151 143.043 145.683 143.043 145.683C169.347 148.126 185.556 132.379 185.556 132.379C185.511 133.803 182.081 138.987 181.859 142.588C181.828 143.044 181.853 143.48 181.948 143.873C182.068 144.436 182.328 144.924 182.752 145.31C182.802 145.354 182.84 145.386 182.885 145.417C182.935 145.455 182.986 145.499 183.043 145.537C183.049 145.544 183.056 145.544 183.056 145.544C184.062 146.227 185.796 146.455 188.568 145.987C210.676 142.234 223.018 122.974 223.018 122.974C237.575 139.86 237.765 159.107 237.309 165.835Z" fill="#E7863D"/>
<path d="M245.195 94.8783C244.448 94.0935 244.005 93.6948 244.005 93.6948C244.011 93.5302 244.018 93.3657 244.018 93.2074C244.081 90.9416 244.068 88.834 243.992 86.891C243.676 77.4099 242.701 74.2834 242.486 73.5682C242.486 73.5682 242.745 72.2644 242.739 72.258C242.739 72.2391 237.233 65.758 237.233 65.758C236.087 72.4606 224.182 81.1505 224.182 81.1505C213.378 69.2201 195.461 65.334 195.461 65.334C195.461 65.3403 195.467 65.3403 195.467 65.3466C195.929 66.2454 196.454 67.4542 196.973 68.758C198.486 72.5239 199.973 77.0745 199.973 77.0745C156.34 68.3087 131.587 97.7707 125.41 106.834C120.992 113.309 119.29 123.594 118.992 134.03C119.277 144.385 120.669 154.056 121.834 159.359C123.106 165.163 125.195 162.872 128.853 166.492C129.1 168.689 133.581 206.461 136.442 218.486C136.682 219.499 136.91 220.328 137.125 220.935C139.98 229.087 150.03 257.423 187.613 257.613C222.081 257.79 234.201 233.17 238.024 217.106C238.366 215.651 238.644 214.271 238.866 212.98C240.733 202.037 243.359 182.353 244.752 171.689C249.132 163.423 254.53 163.986 254.53 163.986C266.79 130.72 250.416 102.613 245.189 94.8783H245.195ZM237.056 175.556C237.056 175.556 235.404 184.771 231.359 198.834C230.84 200.638 229.821 203.106 228.84 205.315C228.84 205.328 228.834 205.334 228.828 205.347C227.632 208.024 226.492 210.315 226.359 210.587C226.353 210.606 226.347 210.613 226.347 210.613C226.347 210.613 194.024 197.708 146.188 211.821C146.188 211.821 146.182 211.815 146.182 211.796C145.986 211.246 142.872 202.195 141.771 188.549C140.916 182.967 140.758 177.201 140.935 171.973C140.454 158.151 143.043 145.682 143.043 145.682C169.347 148.125 185.556 132.378 185.556 132.378C185.511 133.802 182.081 138.986 181.859 142.587L181.948 143.872V143.897C181.929 144.499 182.416 145.024 182.752 145.309C182.802 145.353 182.84 145.385 182.885 145.416C182.961 145.48 183.018 145.518 183.043 145.537C183.049 145.543 183.056 145.543 183.056 145.543C184.062 146.226 185.796 146.454 188.568 145.986C210.676 142.233 223.018 122.973 223.018 122.973C237.575 139.859 237.764 159.106 237.309 165.834V165.847C237.67 171.746 237.056 175.556 237.056 175.556Z" fill="#F6AF59"/>
<path d="M238.03 217.108C234.208 233.171 222.087 257.791 187.619 257.614C150.037 257.424 139.986 229.089 137.132 220.937C136.916 220.329 136.689 219.5 136.448 218.494C136.752 219.013 150.195 244.158 187.619 244.158C225.043 244.158 237.708 216.646 237.708 216.646C237.708 216.646 237.822 216.804 238.03 217.108Z" fill="#E7863D"/>
<path d="M243.689 92.7715C245.758 67.3854 237.239 65.7588 237.239 65.7588C236.018 70.8538 229.897 77.1766 229.897 77.1766C207.467 53.3221 191.771 61.2715 191.771 61.2715C195.442 63.9234 197.277 68.8158 197.277 68.8158C153.644 60.05 131.594 90.531 125.416 99.5943C115.537 114.069 119.245 147.55 121.84 159.36C123.113 165.164 125.207 162.873 128.866 166.493C129.132 168.873 134.366 213.038 137.132 220.936C139.986 229.088 150.037 257.417 187.625 257.613C225.214 257.81 236.227 228.506 238.872 212.981C240.739 202.037 243.366 182.354 244.758 171.689C249.138 163.424 254.537 163.987 254.537 163.987C268.98 124.797 243.689 92.7715 243.689 92.7715ZM226.347 210.613C226.347 210.613 194.024 197.702 146.188 211.822C146.188 211.822 142.91 195.398 141.771 181.31C139.169 164.335 143.043 145.677 143.043 145.677C169.347 148.126 185.556 132.373 185.556 132.373C185.48 134.822 175.511 148.202 188.568 145.98C210.676 142.227 223.018 122.968 223.018 122.968C241.011 143.841 237.423 161.272 236.53 174.632C235.48 190.354 226.347 210.607 226.347 210.607V210.613Z" stroke="black" stroke-width="2.53165" stroke-miterlimit="10"/>
<path d="M172.201 215.715C172.201 215.715 186.227 227.113 200.334 211.822" stroke="black" stroke-width="2.53165" stroke-miterlimit="10" stroke-linecap="round"/>
<path d="M192.689 118.151C192.689 118.151 191.872 122.227 184.328 135.481" stroke="black" stroke-width="2.53165" stroke-miterlimit="10" stroke-linecap="round"/>
<path d="M199.98 77.0694C199.98 77.0694 199.163 71.6137 196.663 67.4365" stroke="black" stroke-width="2.53165" stroke-miterlimit="10" stroke-linecap="round"/>
<path d="M224.189 81.1442C224.189 81.1442 228.442 79.5366 231.233 75.6885" stroke="black" stroke-width="2.53165" stroke-miterlimit="10" stroke-linecap="round"/>
<path d="M147.119 133.601C147.119 133.601 144.442 137.101 142.954 146.132" stroke="black" stroke-width="2.53165" stroke-miterlimit="10" stroke-linecap="round"/>
<path opacity="0.21" d="M231.467 149.761H200.916C197.69 149.761 195.075 152.376 195.075 155.603V175.552C195.075 178.778 197.69 181.394 200.916 181.394H231.467C234.693 181.394 237.309 178.778 237.309 175.552V155.603C237.309 152.376 234.693 149.761 231.467 149.761Z" fill="#5D80C6"/>
<path opacity="0.21" d="M178.037 154.513V176.634C178.037 179.26 175.6 181.393 172.594 181.393H141.252C138.246 181.393 135.809 179.267 135.809 176.634V154.513C135.809 151.887 138.246 149.754 141.252 149.754H172.594C174.075 149.754 175.41 150.267 176.391 151.108C177.404 151.969 178.037 153.178 178.037 154.513Z" fill="#5D80C6"/>
<path opacity="0.5" d="M166.796 149.76L144.359 181.393H141.246C138.239 181.393 135.802 179.267 135.802 176.634V166.121L145.784 149.754H166.803L166.796 149.76Z" fill="white"/>
<path opacity="0.5" d="M178.037 154.512V163.031L165.632 181.386H156.486L176.391 151.107C177.404 151.968 178.037 153.177 178.037 154.512Z" fill="white"/>
<path opacity="0.5" d="M206.309 181.394L228.746 149.761H231.859C234.866 149.761 237.303 151.887 237.303 154.52V165.033L227.322 181.4H206.302L206.309 181.394Z" fill="white"/>
<path opacity="0.5" d="M195.075 176.634V168.115L207.48 149.761H216.625L196.72 180.039C195.708 179.178 195.075 177.97 195.075 176.634Z" fill="white"/>
<path d="M231.467 149.761H200.916C197.69 149.761 195.075 152.376 195.075 155.603V175.552C195.075 178.778 197.69 181.394 200.916 181.394H231.467C234.693 181.394 237.309 178.778 237.309 175.552V155.603C237.309 152.376 234.693 149.761 231.467 149.761Z" stroke="#64022E" stroke-width="2.53165" stroke-miterlimit="10"/>
<path d="M178.037 154.513V176.634C178.037 179.26 175.6 181.393 172.594 181.393H141.252C138.657 181.393 136.486 179.811 135.942 177.684C135.853 177.343 135.809 176.994 135.809 176.634V154.513C135.809 151.994 138.062 149.918 140.904 149.767C141.024 149.767 141.132 149.754 141.252 149.754H172.594C175.6 149.754 178.037 151.887 178.037 154.513Z" stroke="#64022E" stroke-width="2.53165" stroke-miterlimit="10"/>
<path d="M178.03 166.324C178.03 166.324 180.075 163.761 186.283 163.761C192.84 163.761 195.075 166.622 195.075 166.622" stroke="#64022E" stroke-width="2.53165" stroke-miterlimit="10" stroke-linecap="round"/>
</g>
<rect x="1" y="1" width="368" height="370" rx="11" stroke="black" stroke-width="2"/>
<defs>
<clipPath id="clip0_476_1753">
<rect width="370" height="372" rx="12" fill="white"/>
</clipPath>
</defs>
</svg>
