<svg width="370" height="372" viewBox="0 0 370 372" fill="none" xmlns="http://www.w3.org/2000/svg">
<g clip-path="url(#clip0_488_224)">
<rect x="-13" y="-11" width="396" height="396" fill="#EB9822"/>
<path d="M-5.09118 96.8093V274.334H23.7566L21.5375 192.229H23.7566L35.9614 274.334H58.152L70.3568 192.229H72.5759L70.3568 274.334H99.2046V96.8093H62.5901L48.1662 192.229H45.9472L31.5233 96.8093H-5.09118ZM110.578 96.8093V274.334H143.864V96.8093H110.578ZM151.661 213.31V215.529C152.771 218.858 152.993 222.63 152.993 227.956C152.993 259.022 166.751 276.553 193.823 276.553C218.011 276.553 233.322 259.244 233.322 232.172C233.322 210.425 225.112 195.114 209.8 175.808L203.143 167.375C193.379 154.949 186.5 145.629 186.5 132.536C186.5 123.66 190.273 120.109 195.155 120.109C199.815 120.109 203.143 123.66 203.143 130.761V145.629C203.143 149.845 203.587 153.173 204.475 155.614H234.432V153.395C233.322 149.845 233.101 145.85 233.101 140.525C233.101 112.343 219.12 94.5902 193.601 94.5902C168.526 94.5902 153.214 112.343 153.214 137.862C153.214 157.39 159.428 170.482 174.517 190.232L180.953 198.664C190.717 211.535 200.037 224.627 200.037 238.829C200.037 246.596 196.93 251.034 191.604 251.034C186.5 251.034 183.394 246.596 183.394 239.717V223.296C183.394 219.523 183.172 215.529 182.062 213.31H151.661ZM242.753 96.8093V274.334H274.929V198.886H289.353V274.334H321.529V96.8093H289.353V170.038H274.929V96.8093H242.753ZM346.23 96.8093L329.587 272.115V274.334H360.654L364.426 232.172H376.853L380.625 274.334H411.692V272.115L395.049 96.8093H346.23ZM364.648 203.324L369.53 142.3H371.749L376.631 203.324H364.648Z" fill="#D68109"/>
<path d="M288.863 337.028L281.49 340.882L274.029 341.021L107.714 344.153H103.625L94.0025 338.701L89.9646 336.407L86.5796 335.266C86.5796 335.266 95.6063 306.975 88.6271 246.336C85.3625 217.95 109.463 213.158 106.604 174.446C104.031 139.569 113.489 102.644 137.564 85.1804C137.83 84.9902 138.096 84.8001 138.369 84.61C143.092 81.3137 148.366 78.759 154.197 77.0982C156.245 76.515 158.356 76.0396 160.543 75.6846C161.158 75.5832 161.785 75.4945 162.413 75.4121C164.866 75.0952 167.401 74.9176 170.026 74.8923H170.267C170.21 74.5436 170.146 74.195 170.077 73.859C170 73.4787 169.912 73.111 169.823 72.756C168.733 68.4836 167.611 68.23 169.715 66.9242C173.449 64.6105 175.858 69.1175 177.075 71.7228C177.36 62.6581 176.086 59.0385 180.872 60.2999C185.487 61.5234 184.834 66.9179 184.865 72.4138C199.191 68.0526 230.962 63.1461 252.781 95.2467C281.725 137.832 263.748 171.695 271.094 188.239C278.448 204.778 293.154 221.316 290.397 252.561C287.639 283.806 286.6 329.421 288.863 337.028Z" fill="#E5843F"/>
<path d="M275.747 260.041C273.383 286.829 270.879 325.326 274.029 341.021L103.625 344.152L86.5796 335.265C86.5796 335.265 95.6063 306.974 88.6271 246.336C85.3625 217.95 109.463 213.158 106.604 174.446C104.031 139.568 113.489 102.644 137.564 85.1801C137.976 85.047 138.236 84.8505 138.369 84.6096C143.092 81.3134 148.366 78.7587 154.197 77.0979C156.245 76.5147 158.356 76.0393 160.543 75.6843C161.158 75.5829 161.785 75.4942 162.413 75.4118C164.486 74.7842 167.085 74.2327 170.077 73.8587C187.807 71.6083 219.464 75.2659 238.132 102.72C267.082 145.312 249.098 179.174 256.451 195.719C263.805 212.257 278.505 228.796 275.747 260.041Z" fill="#F3AC59"/>
<path d="M290.397 252.948C293.154 221.703 278.448 205.165 271.101 188.62C263.748 172.081 281.731 138.212 252.781 95.6271C230.962 63.5266 199.198 68.433 184.872 72.8005C184.84 67.2983 184.232 61.7643 180.878 60.3063C177.36 58.7723 177.366 63.0448 177.081 72.1095C175.858 69.5042 172.859 65.1874 168.986 67.2476C166.926 68.3442 170.723 71.7418 170.273 75.279C122.103 75.5325 103.086 127.1 106.617 174.833C109.476 213.545 85.3689 218.337 88.6398 246.723C95.619 307.361 86.5923 335.931 86.5923 335.931L103.638 344.54H107.72L281.503 341.275L288.875 337.041C286.118 328.084 287.652 284.199 290.409 252.96L290.397 252.948Z" stroke="black" stroke-width="2.53559" stroke-miterlimit="10"/>
<path d="M298.403 371.999H72C84.2723 330.479 106.617 300.286 134.059 283.127C130.401 279.767 128.353 276.008 128.353 272.04C128.353 259.647 148.296 250.462 174.856 248.32C178.748 248.003 182.786 247.838 186.926 247.838C222.513 247.838 245.491 254.525 245.491 272.04C245.491 274.664 244.598 277.194 242.93 279.583C269.846 295.032 289.871 324.85 298.403 371.999Z" fill="#7F7F7F"/>
<path d="M271.031 371.999H72C84.2723 330.479 106.617 300.286 134.059 283.127C130.401 279.767 128.353 276.008 128.353 272.04C128.353 259.647 148.296 250.462 174.856 248.319C176.492 248.427 178.083 248.56 179.642 248.706C203.546 251.013 216.002 256.978 216.002 270.924C216.002 273.548 217.226 277.193 215.559 279.583C242.474 295.031 262.499 324.85 271.031 371.999Z" fill="#CBCBCB"/>
<path d="M271.031 371.999H80.8428C93.115 330.479 115.46 300.286 142.901 283.127C139.244 279.767 137.196 276.008 137.196 272.04C137.196 260.287 155.136 251.419 179.642 248.706C203.546 251.013 217.986 258.734 217.986 272.68C217.986 275.304 216.668 277.403 215.552 279.583C239.659 281.479 262.492 324.85 271.025 371.999H271.031Z" fill="#B2B2B2"/>
<path d="M197.556 305.066C197.556 305.066 227.489 317.934 249.618 305.218L234.962 286.404C234.962 286.404 226.963 298.125 201.385 303.583L197.556 305.066Z" fill="#7F7F7F"/>
<path d="M242.937 279.583C244.598 277.199 245.498 274.664 245.498 272.04C245.498 254.531 222.519 247.844 186.926 247.844C154.578 247.844 128.353 257.834 128.353 272.04C128.353 276.008 130.401 279.767 134.059 283.126C106.617 300.292 84.2723 330.485 72 371.999H298.403C289.871 324.85 269.846 295.031 242.93 279.583H242.937Z" stroke="black" stroke-width="2.53559" stroke-miterlimit="10"/>
<path d="M181.778 303.995C177.056 303.399 154.02 301.503 133.887 282.962" stroke="black" stroke-width="2.53559" stroke-miterlimit="10" stroke-linecap="round"/>
<path d="M197.556 303.994C197.556 303.994 218.538 303.994 242.937 279.583" stroke="black" stroke-width="2.53559" stroke-miterlimit="10" stroke-linecap="round"/>
<path d="M194.951 309.915L201.385 352.392" stroke="black" stroke-width="2.53559" stroke-miterlimit="10" stroke-linecap="round"/>
<path d="M182.393 309.915L174.425 352.392" stroke="black" stroke-width="2.53559" stroke-miterlimit="10" stroke-linecap="round"/>
<path d="M163.757 270.512L164.505 261.651L167.332 227.896H210.216L211.585 241.157L214.456 268.921C214.456 268.921 202.273 277.206 187.059 277.206C170.927 277.206 163.757 270.512 163.757 270.512Z" fill="#FFCA8E"/>
<path d="M211.578 243.28C204.637 262.36 178.248 267.292 163.966 268.002L167.326 227.889H210.209L211.578 243.273V243.28Z" fill="#ED9B65"/>
<path d="M214.45 268.921L210.209 227.896H167.326L163.751 270.512C163.751 270.512 185.906 286.588 214.444 268.921H214.45Z" stroke="black" stroke-width="2.53559" stroke-miterlimit="10"/>
<path d="M261.151 198.748C266.753 187.917 265.693 176.24 258.783 172.666C251.874 169.092 241.731 174.975 236.129 185.805C230.527 196.636 231.587 208.313 238.497 211.887C245.406 215.461 255.549 209.578 261.151 198.748Z" fill="#ED9B65"/>
<path d="M261.151 198.748C266.753 187.917 265.693 176.24 258.783 172.666C251.874 169.092 241.731 174.975 236.129 185.805C230.527 196.636 231.587 208.313 238.497 211.887C245.406 215.461 255.549 209.578 261.151 198.748Z" stroke="black" stroke-width="2.53559" stroke-miterlimit="10"/>
<path d="M259.882 184.784C259.882 184.784 258.773 179.047 255.204 179.738C251.21 180.512 250.329 183.916 250.494 192.562C250.659 201.215 248.725 203.345 245.683 204.391" stroke="black" stroke-width="2.53559" stroke-miterlimit="10" stroke-linecap="round"/>
<path d="M140.164 212.237C139.15 212.725 138.078 213.011 136.963 213.119C130.364 213.727 122.421 207.857 117.895 198.456C115.366 193.208 114.37 187.801 114.776 183.224C115.226 178.229 117.35 174.216 121.014 172.454C125.362 170.362 130.839 171.934 135.638 176.048C138.585 178.571 141.273 182.051 143.283 186.235C143.796 187.306 144.252 188.384 144.645 189.461C148.246 199.414 146.496 209.201 140.17 212.237H140.164Z" fill="#ED9B65"/>
<path d="M140.164 212.237C139.15 212.725 138.078 213.011 136.963 213.119C130.364 213.727 122.421 207.857 117.895 198.456C115.366 193.208 114.37 187.801 114.776 183.224C115.226 178.229 117.35 174.216 121.014 172.454C125.362 170.362 130.839 171.934 135.638 176.048C138.585 178.571 141.273 182.051 143.283 186.235C143.796 187.306 144.252 188.384 144.645 189.461C148.246 199.414 146.496 209.201 140.17 212.237H140.164Z" stroke="black" stroke-width="2.53559" stroke-miterlimit="10"/>
<path d="M119.568 184.46C119.568 184.46 120.842 178.755 124.386 179.547C128.354 180.435 129.14 183.858 128.728 192.504C128.316 201.144 130.186 203.337 133.197 204.466" stroke="black" stroke-width="2.53559" stroke-miterlimit="10" stroke-linecap="round"/>
<path d="M246.354 174.451C246.354 174.901 246.348 175.358 246.341 175.808C246.335 176.302 246.329 176.797 246.31 177.291C246.316 177.323 246.316 177.355 246.31 177.38C246.291 177.843 246.278 178.299 246.252 178.762C246.164 180.663 246.018 182.546 245.815 184.403C245.606 186.261 245.346 188.099 245.035 189.906C244.959 190.356 244.877 190.812 244.788 191.256C244.706 191.706 244.617 192.156 244.522 192.6C244.44 193.05 244.338 193.494 244.237 193.937C244.148 194.337 244.053 194.742 243.958 195.142C243.951 195.192 243.939 195.25 243.92 195.3C243.837 195.668 243.742 196.036 243.653 196.397C243.622 196.543 243.584 196.688 243.539 196.828C243.457 197.151 243.375 197.474 243.286 197.798C243.045 198.685 242.791 199.566 242.519 200.435C242.392 200.853 242.265 201.265 242.126 201.677C242.126 201.696 242.119 201.709 242.113 201.728C241.98 202.14 241.841 202.552 241.701 202.958C241.416 203.788 241.118 204.612 240.814 205.43C240.503 206.248 240.18 207.053 239.85 207.851C239.685 208.244 239.52 208.637 239.349 209.024C239.007 209.816 238.652 210.602 238.278 211.376C238.272 211.395 238.265 211.414 238.253 211.439C238.075 211.807 237.898 212.175 237.714 212.536C237.562 212.853 237.397 213.17 237.238 213.487C236.82 214.304 236.389 215.11 235.939 215.902C235.78 216.187 235.616 216.479 235.451 216.758C235.286 217.043 235.121 217.328 234.956 217.607C234.62 218.171 234.278 218.729 233.93 219.281C233.587 219.819 233.239 220.352 232.89 220.878C232.319 221.727 231.73 222.564 231.121 223.388C230.773 223.87 230.418 224.339 230.056 224.802C229.86 225.055 229.663 225.303 229.467 225.55C228.218 227.109 226.912 228.593 225.556 230.006C225.239 230.342 224.909 230.672 224.58 231.001L224.459 231.122C224.142 231.432 223.819 231.743 223.496 232.047C223.147 232.377 222.798 232.7 222.45 233.017C222.431 233.036 222.412 233.049 222.393 233.068C222.063 233.359 221.733 233.651 221.404 233.93C221.29 234.025 221.182 234.12 221.068 234.221C220.751 234.488 220.44 234.748 220.117 235.008C219.73 235.318 219.344 235.622 218.951 235.927C218.564 236.225 218.164 236.516 217.771 236.808C217.442 237.049 217.106 237.283 216.77 237.518C216.687 237.568 216.605 237.626 216.523 237.689C216.161 237.936 215.8 238.177 215.432 238.418C215.382 238.443 215.331 238.475 215.28 238.513C214.894 238.76 214.507 239.001 214.114 239.242C213.264 239.762 212.402 240.256 211.534 240.719C211.471 240.751 211.413 240.782 211.356 240.814C211.027 240.985 210.697 241.156 210.368 241.315C210.323 241.334 210.279 241.359 210.241 241.378C208.111 242.437 205.911 243.343 203.661 244.066C203.204 244.212 202.748 244.358 202.292 244.491C201.373 244.763 200.441 245.004 199.509 245.207C196.238 245.949 192.872 246.335 189.43 246.335C187.401 246.335 185.398 246.202 183.427 245.936C183.008 245.885 182.596 245.822 182.184 245.752H182.178C181.76 245.689 181.348 245.613 180.936 245.537C180.879 245.524 180.822 245.518 180.764 245.499C180.612 245.473 180.46 245.441 180.308 245.41C180.048 245.359 179.795 245.308 179.541 245.245C179.414 245.22 179.288 245.188 179.161 245.163C178.882 245.099 178.609 245.029 178.33 244.96C178.204 244.928 178.083 244.896 177.956 244.871C177.703 244.801 177.443 244.732 177.189 244.662C176.974 244.605 176.765 244.541 176.555 244.484C176.296 244.408 176.029 244.332 175.769 244.243C175.617 244.199 175.465 244.148 175.313 244.098C174.742 243.914 174.172 243.717 173.608 243.514C173.411 243.445 173.215 243.369 173.025 243.299C172.904 243.255 172.784 243.204 172.663 243.153C172.549 243.115 172.435 243.071 172.315 243.02C172.131 242.95 171.953 242.881 171.776 242.804C171.611 242.735 171.446 242.671 171.288 242.595C171.205 242.564 171.123 242.532 171.047 242.494C170.717 242.354 170.388 242.209 170.058 242.056L169.564 241.828C169.418 241.765 169.278 241.695 169.132 241.625C168.999 241.562 168.873 241.499 168.739 241.429C168.156 241.144 167.573 240.839 166.996 240.529C166.762 240.402 166.527 240.275 166.299 240.148C166.204 240.091 166.102 240.034 166.007 239.977C165.76 239.844 165.526 239.705 165.285 239.559C165.126 239.464 164.961 239.375 164.809 239.274C164.79 239.261 164.771 239.255 164.759 239.242C164.613 239.16 164.473 239.071 164.334 238.982C164.118 238.849 163.909 238.716 163.694 238.576C163.364 238.367 163.041 238.152 162.717 237.936C162.458 237.765 162.198 237.587 161.944 237.404C161.659 237.207 161.38 237.011 161.101 236.808C160.752 236.554 160.404 236.294 160.055 236.028C158.832 235.096 157.64 234.107 156.48 233.068C156.347 232.947 156.22 232.833 156.087 232.713C155.852 232.497 155.611 232.275 155.377 232.047C153.83 230.589 152.347 229.03 150.933 227.388C150.692 227.116 150.458 226.843 150.23 226.564C150.179 226.507 150.135 226.444 150.078 226.386C150.02 226.317 149.963 226.247 149.906 226.177C149.672 225.892 149.444 225.613 149.222 225.322C148.867 224.872 148.518 224.421 148.169 223.965C147.96 223.686 147.751 223.401 147.536 223.116C147.453 223.002 147.377 222.894 147.301 222.78C147.073 222.469 146.851 222.152 146.629 221.835C146.559 221.734 146.483 221.626 146.414 221.518C146.198 221.201 145.989 220.891 145.78 220.58C145.59 220.295 145.399 219.997 145.209 219.705C145.076 219.496 144.943 219.287 144.81 219.078C144.689 218.888 144.575 218.697 144.455 218.501C143.72 217.315 143.022 216.098 142.357 214.856C142.312 214.786 142.274 214.71 142.236 214.64C141.729 213.702 141.241 212.751 140.778 211.775C140.747 211.712 140.721 211.648 140.696 211.591C140.69 211.585 140.683 211.585 140.69 211.579C140.227 210.621 139.783 209.645 139.365 208.663C139.181 208.232 138.997 207.794 138.819 207.357C138.731 207.135 138.642 206.92 138.553 206.698C138.465 206.476 138.376 206.26 138.293 206.038C138.122 205.595 137.951 205.151 137.786 204.707V204.695C137.621 204.244 137.463 203.801 137.304 203.344C136.48 200.999 135.764 198.59 135.149 196.118C135.105 195.953 135.067 195.782 135.029 195.617C134.946 195.307 134.87 194.996 134.807 194.685C134.731 194.375 134.661 194.064 134.598 193.753C134.427 193.018 134.274 192.283 134.135 191.535C134.072 191.212 134.008 190.888 133.951 190.559C133.862 190.071 133.78 189.576 133.698 189.075C133.615 188.581 133.539 188.08 133.463 187.586C133.4 187.174 133.343 186.762 133.292 186.343C133.273 186.216 133.254 186.09 133.241 185.963C133.178 185.5 133.127 185.031 133.076 184.562C133.032 184.15 132.988 183.738 132.943 183.32C132.912 183.034 132.886 182.749 132.867 182.464C132.835 182.153 132.81 181.849 132.791 181.538C132.747 180.999 132.709 180.461 132.677 179.916C132.639 179.275 132.607 178.622 132.582 177.969C132.569 177.779 132.563 177.576 132.563 177.38C132.557 177.336 132.557 177.297 132.557 177.253C132.55 177.063 132.544 176.866 132.544 176.676C132.531 176.252 132.519 175.827 132.525 175.396C132.512 175.079 132.512 174.762 132.512 174.445C132.512 173.735 132.519 173.031 132.538 172.328C132.544 171.941 132.557 171.561 132.569 171.174C132.576 171.06 132.582 170.959 132.582 170.851C132.607 170.287 132.633 169.729 132.664 169.171C132.696 168.664 132.728 168.163 132.766 167.656V167.637C132.797 167.2 132.829 166.762 132.874 166.325C132.943 165.494 133.032 164.677 133.127 163.859C133.152 163.631 133.178 163.409 133.203 163.187C133.267 162.699 133.33 162.211 133.4 161.723V161.71C133.476 161.184 133.558 160.658 133.641 160.138C133.843 158.845 134.078 157.571 134.344 156.309C134.363 156.201 134.389 156.094 134.408 155.986C134.408 155.98 134.414 155.967 134.414 155.954C134.471 155.701 134.522 155.447 134.579 155.2C134.731 154.477 134.902 153.767 135.073 153.057C135.124 152.861 135.175 152.658 135.225 152.461C135.257 152.328 135.295 152.195 135.327 152.068C135.434 151.637 135.549 151.219 135.669 150.794C135.713 150.61 135.77 150.427 135.821 150.243C135.961 149.755 136.1 149.273 136.246 148.798C136.62 147.555 137.019 146.325 137.45 145.121C137.552 144.823 137.666 144.525 137.774 144.233C137.881 143.936 137.995 143.644 138.103 143.346C138.249 142.953 138.401 142.56 138.56 142.173C138.693 141.844 138.826 141.508 138.959 141.178C139.01 141.064 139.054 140.95 139.105 140.836C139.282 140.43 139.453 140.024 139.631 139.619C139.682 139.492 139.739 139.371 139.789 139.251C139.84 139.143 139.891 139.029 139.942 138.921C140.284 138.154 140.639 137.394 141.013 136.639C141.051 136.563 141.095 136.481 141.127 136.405C141.216 136.227 141.304 136.05 141.393 135.879C141.862 134.947 142.35 134.021 142.864 133.115C142.972 132.925 143.079 132.728 143.187 132.538C143.25 132.411 143.326 132.285 143.403 132.158C143.593 131.828 143.783 131.498 143.979 131.175C144.67 130.021 145.393 128.893 146.135 127.79C146.35 127.467 146.572 127.15 146.794 126.833C147.016 126.516 147.238 126.199 147.466 125.888C147.688 125.578 147.916 125.267 148.15 124.957C148.372 124.665 148.594 124.367 148.822 124.076H148.835C148.835 124.076 148.835 124.063 148.841 124.057C149.076 123.765 149.304 123.473 149.532 123.188C149.551 123.163 149.57 123.137 149.596 123.112C149.811 122.839 150.039 122.567 150.261 122.301C150.274 122.282 150.287 122.263 150.306 122.244C150.553 121.946 150.807 121.648 151.073 121.35C151.301 121.09 151.529 120.83 151.764 120.57C151.802 120.526 151.846 120.475 151.89 120.431C152.112 120.183 152.334 119.936 152.562 119.689C152.803 119.429 153.051 119.169 153.304 118.909C153.564 118.637 153.824 118.37 154.084 118.111C154.464 117.73 154.844 117.356 155.231 116.989C155.618 116.621 156.004 116.26 156.397 115.911C156.423 115.886 156.448 115.867 156.474 115.841C156.505 115.809 156.537 115.784 156.562 115.759C156.626 115.702 156.689 115.651 156.746 115.594C156.81 115.537 156.879 115.48 156.943 115.423C157.069 115.309 157.203 115.201 157.329 115.093L157.748 114.732C157.887 114.611 158.027 114.497 158.166 114.383C158.445 114.149 158.724 113.921 159.009 113.686H159.015C159.294 113.458 159.586 113.236 159.871 113.014C160.08 112.856 160.29 112.697 160.505 112.539C160.581 112.475 160.664 112.418 160.74 112.361C160.93 112.222 161.12 112.082 161.317 111.949C161.418 111.873 161.519 111.797 161.621 111.727C161.976 111.474 162.337 111.22 162.698 110.979C162.781 110.922 162.857 110.865 162.939 110.814C162.946 110.808 162.952 110.802 162.958 110.802C163.047 110.745 163.136 110.681 163.225 110.631C163.58 110.39 163.941 110.155 164.309 109.933C164.613 109.749 164.923 109.566 165.228 109.382C165.316 109.331 165.405 109.28 165.494 109.23C165.747 109.078 166.014 108.925 166.274 108.78C166.533 108.627 166.8 108.488 167.06 108.342C167.085 108.323 167.117 108.311 167.148 108.291C167.186 108.272 167.218 108.253 167.256 108.234C167.421 108.146 167.592 108.057 167.757 107.968C167.96 107.867 168.163 107.765 168.365 107.664C168.803 107.436 169.247 107.227 169.684 107.017C169.931 106.903 170.178 106.789 170.426 106.675C170.926 106.453 171.434 106.238 171.934 106.035C172.22 105.914 172.505 105.8 172.796 105.693C173.291 105.496 173.792 105.318 174.286 105.147C174.457 105.084 174.635 105.027 174.812 104.964C174.983 104.906 175.155 104.849 175.332 104.799C175.459 104.754 175.586 104.71 175.719 104.672C176.093 104.558 176.467 104.444 176.841 104.336C177.272 104.216 177.703 104.095 178.14 103.987C178.356 103.93 178.571 103.873 178.793 103.822C179.009 103.772 179.224 103.721 179.446 103.677C179.858 103.582 180.27 103.499 180.682 103.417C180.726 103.404 180.777 103.398 180.828 103.385C181.189 103.315 181.557 103.252 181.925 103.195C182.425 103.106 182.926 103.03 183.427 102.967C183.921 102.897 184.416 102.84 184.91 102.789C186.4 102.643 187.909 102.567 189.43 102.567C202.057 102.567 213.721 107.759 223.16 116.545C234.018 126.643 241.929 141.495 244.972 158.674C245.365 160.867 245.676 163.092 245.904 165.355C246.202 168.334 246.354 171.371 246.354 174.451Z" fill="#ED9B65"/>
<path d="M234.342 174.451C234.342 178.813 234.031 183.085 233.441 187.231C233.441 187.25 233.435 187.269 233.435 187.288C233.156 189.228 232.82 191.142 232.414 193.025C232.091 194.597 231.717 196.15 231.299 197.677C227.673 211.103 220.998 222.735 212.301 231.255C211.775 231.768 211.249 232.269 210.71 232.757C210.691 232.783 210.665 232.802 210.646 232.814C202.83 239.927 193.538 244.598 183.452 245.93C183.446 245.936 183.433 245.936 183.427 245.936C183.008 245.885 182.596 245.822 182.184 245.752H182.178C181.76 245.689 181.348 245.613 180.936 245.537C180.879 245.524 180.822 245.518 180.764 245.499C180.612 245.473 180.46 245.442 180.308 245.41C180.048 245.359 179.795 245.308 179.541 245.245C179.414 245.22 179.288 245.188 179.161 245.163C178.882 245.099 178.609 245.03 178.33 244.96C178.204 244.928 178.083 244.896 177.956 244.871C177.703 244.801 177.443 244.732 177.189 244.662C176.974 244.605 176.765 244.541 176.555 244.484C176.296 244.408 176.029 244.332 175.769 244.243C175.617 244.199 175.465 244.148 175.313 244.098C174.742 243.914 174.172 243.717 173.608 243.514C173.411 243.445 173.215 243.369 173.025 243.299C172.904 243.255 172.784 243.204 172.663 243.153C172.549 243.115 172.435 243.071 172.315 243.02C172.131 242.95 171.953 242.881 171.776 242.805C171.611 242.735 171.446 242.671 171.288 242.595C171.205 242.564 171.123 242.532 171.047 242.494C170.717 242.354 170.388 242.209 170.058 242.057L169.564 241.828C169.418 241.765 169.278 241.695 169.132 241.625C168.999 241.562 168.873 241.499 168.739 241.429C168.156 241.144 167.573 240.839 166.996 240.529C166.762 240.402 166.527 240.275 166.299 240.149C166.204 240.091 166.102 240.034 166.007 239.977C165.76 239.844 165.526 239.705 165.285 239.559C165.126 239.464 164.961 239.375 164.809 239.274C164.79 239.261 164.771 239.255 164.759 239.242C164.613 239.16 164.473 239.071 164.334 238.982C164.118 238.849 163.909 238.716 163.694 238.576C163.364 238.367 163.041 238.152 162.717 237.936C162.458 237.765 162.198 237.588 161.944 237.404C161.659 237.207 161.38 237.011 161.101 236.808C160.752 236.554 160.404 236.294 160.055 236.028C158.832 235.096 157.64 234.107 156.48 233.068C156.347 232.947 156.22 232.833 156.087 232.713C155.852 232.497 155.611 232.275 155.377 232.047C153.83 230.589 152.347 229.03 150.933 227.388C150.692 227.116 150.458 226.843 150.23 226.564C150.179 226.507 150.135 226.444 150.078 226.387C150.02 226.317 149.963 226.247 149.906 226.177C149.672 225.892 149.444 225.613 149.222 225.322C148.867 224.872 148.518 224.422 148.169 223.965C147.96 223.686 147.751 223.401 147.536 223.116C147.453 223.002 147.377 222.894 147.301 222.78C147.073 222.469 146.851 222.152 146.629 221.835C146.559 221.734 146.483 221.626 146.414 221.518C146.198 221.201 145.989 220.891 145.78 220.58C145.59 220.295 145.399 219.997 145.209 219.705C145.076 219.496 144.943 219.287 144.81 219.078C144.689 218.888 144.575 218.697 144.455 218.501C143.72 217.316 143.022 216.098 142.357 214.856C142.103 214.393 141.856 213.924 141.621 213.449C141.476 213.176 141.336 212.91 141.209 212.637C141.032 212.289 140.861 211.946 140.696 211.591C140.69 211.585 140.683 211.585 140.69 211.579C140.227 210.622 139.783 209.645 139.365 208.663C139.181 208.232 138.997 207.794 138.819 207.357C138.731 207.135 138.642 206.92 138.553 206.698C138.465 206.476 138.376 206.26 138.293 206.038C138.122 205.595 137.951 205.151 137.786 204.707V204.695C137.621 204.245 137.463 203.801 137.304 203.344C136.48 200.999 135.764 198.59 135.149 196.118C135.105 195.953 135.067 195.782 135.029 195.617C134.946 195.307 134.87 194.996 134.807 194.685C134.731 194.375 134.661 194.064 134.598 193.754C134.427 193.018 134.274 192.283 134.135 191.535C134.072 191.212 134.008 190.888 133.951 190.559C133.862 190.071 133.78 189.576 133.698 189.075C133.615 188.581 133.539 188.08 133.463 187.586C133.317 186.584 133.19 185.576 133.076 184.562C133.032 184.15 132.988 183.738 132.943 183.32C132.912 183.034 132.886 182.749 132.867 182.464C132.835 182.153 132.81 181.849 132.791 181.538C132.747 181 132.709 180.461 132.677 179.916C132.639 179.275 132.607 178.622 132.582 177.969C132.569 177.735 132.563 177.494 132.557 177.253C132.55 177.063 132.544 176.867 132.544 176.676C132.531 176.252 132.519 175.827 132.525 175.396C132.512 175.079 132.512 174.762 132.512 174.445C132.512 173.735 132.519 173.031 132.538 172.328C132.544 171.941 132.557 171.561 132.569 171.174C132.576 171.06 132.582 170.959 132.582 170.851C132.607 170.287 132.633 169.729 132.664 169.171C132.696 168.664 132.728 168.163 132.766 167.656V167.637C132.797 167.2 132.829 166.762 132.874 166.325C132.943 165.494 133.032 164.677 133.127 163.859C133.152 163.631 133.178 163.409 133.203 163.187C133.267 162.699 133.33 162.211 133.4 161.723V161.71C133.476 161.184 133.558 160.658 133.641 160.138C133.843 158.845 134.078 157.571 134.344 156.309C134.363 156.202 134.389 156.094 134.408 155.986C134.408 155.98 134.408 155.967 134.408 155.954C134.465 155.701 134.515 155.447 134.572 155.2C134.725 154.477 134.896 153.767 135.067 153.057C135.118 152.861 135.168 152.658 135.219 152.461C135.251 152.328 135.289 152.195 135.32 152.068C135.428 151.637 135.542 151.219 135.663 150.794C135.707 150.61 135.764 150.427 135.815 150.243C135.954 149.755 136.094 149.273 136.24 148.798C136.614 147.555 137.013 146.325 137.444 145.121C137.545 144.823 137.659 144.525 137.767 144.233C137.875 143.936 137.989 143.644 138.097 143.346C138.243 142.953 138.395 142.56 138.553 142.173C138.686 141.844 138.82 141.508 138.953 141.178C139.003 141.064 139.048 140.95 139.098 140.836C139.276 140.43 139.447 140.024 139.625 139.619C139.675 139.492 139.732 139.372 139.783 139.251C139.834 139.143 139.884 139.029 139.935 138.921C140.277 138.154 140.632 137.394 141.006 136.639C141.044 136.563 141.089 136.481 141.121 136.405C141.209 136.227 141.298 136.05 141.387 135.879C141.856 134.947 142.344 134.021 142.857 133.115C142.965 132.925 143.073 132.728 143.181 132.538C143.244 132.411 143.32 132.285 143.396 132.158C143.586 131.828 143.777 131.499 143.973 131.175C144.664 130.022 145.387 128.893 146.128 127.79C146.344 127.467 146.566 127.15 146.788 126.833C147.009 126.516 147.231 126.199 147.46 125.889C147.681 125.578 147.91 125.267 148.144 124.957C148.372 124.659 148.601 124.361 148.829 124.069C148.829 124.069 148.829 124.063 148.835 124.057C149.07 123.765 149.298 123.473 149.526 123.188C149.551 123.163 149.57 123.137 149.589 123.112C149.805 122.839 150.033 122.567 150.255 122.301C150.274 122.282 150.287 122.263 150.299 122.244C150.54 121.958 150.775 121.679 151.016 121.407C151.523 120.824 152.036 120.253 152.556 119.689C152.797 119.429 153.044 119.169 153.298 118.909C153.558 118.637 153.818 118.371 154.077 118.111C154.832 117.35 155.605 116.621 156.391 115.911C156.448 115.86 156.505 115.81 156.556 115.759C156.809 115.537 157.063 115.309 157.323 115.093C157.602 114.852 157.881 114.611 158.16 114.383C158.724 113.914 159.288 113.458 159.865 113.014C160.156 112.792 160.442 112.577 160.733 112.361C161.025 112.146 161.317 111.936 161.614 111.727C162.794 110.89 163.992 110.111 165.221 109.382C165.526 109.198 165.836 109.021 166.147 108.843C166.476 108.653 166.812 108.469 167.142 108.292C167.548 108.076 167.953 107.861 168.359 107.664C168.797 107.436 169.24 107.227 169.678 107.017C169.925 106.903 170.172 106.789 170.419 106.675C170.92 106.453 171.427 106.238 171.928 106.035C172.213 105.914 172.498 105.8 172.79 105.693C173.285 105.496 173.785 105.319 174.28 105.147C174.451 105.084 174.628 105.027 174.806 104.964C174.977 104.907 175.148 104.849 175.326 104.799C175.452 104.754 175.579 104.71 175.712 104.672C176.086 104.558 176.46 104.444 176.834 104.336C177.265 104.216 177.696 104.095 178.134 103.987C178.349 103.93 178.565 103.873 178.787 103.823C179.002 103.772 179.218 103.721 179.44 103.677C179.852 103.582 180.264 103.499 180.676 103.417C180.72 103.404 180.771 103.398 180.822 103.385C181.183 103.315 181.551 103.252 181.918 103.195C182.419 103.106 182.92 103.03 183.421 102.967C189.671 103.797 195.617 105.895 201.094 109.065C203.642 110.536 206.089 112.241 208.415 114.155C223.058 126.186 233.048 146.497 234.215 169.837C234.297 171.364 234.335 172.898 234.335 174.451H234.342Z" fill="#FFCA8E"/>
<path d="M244.972 158.674L234.532 172.924C234.532 172.924 196.396 144.813 186.286 118.506C186.286 118.506 181.791 152.005 132.563 177.38C132.557 177.336 132.557 177.297 132.557 177.253C132.55 177.063 132.544 176.866 132.544 176.676C132.531 176.252 132.519 175.827 132.525 175.396C132.512 175.079 132.512 174.762 132.512 174.445C132.512 173.735 132.519 173.031 132.538 172.328C132.544 171.941 132.557 171.561 132.569 171.174C132.576 171.06 132.582 170.959 132.582 170.851C132.607 170.287 132.633 169.729 132.664 169.171C132.696 168.664 132.728 168.163 132.766 167.656V167.637C132.797 167.2 132.829 166.762 132.874 166.325C132.943 165.494 133.032 164.677 133.127 163.859C133.152 163.631 133.178 163.409 133.203 163.187C133.267 162.699 133.33 162.211 133.4 161.723V161.71C133.476 161.184 133.558 160.658 133.641 160.138C133.843 158.845 134.078 157.571 134.344 156.309C134.363 156.201 134.389 156.094 134.408 155.986C134.408 155.98 134.414 155.967 134.414 155.954C134.471 155.701 134.522 155.447 134.579 155.2C134.731 154.477 134.902 153.767 135.073 153.057C135.124 152.861 135.175 152.658 135.225 152.461C135.257 152.328 135.295 152.195 135.327 152.068C135.434 151.637 135.549 151.219 135.669 150.794C135.713 150.61 135.77 150.427 135.821 150.243C135.961 149.755 136.1 149.273 136.246 148.798C136.62 147.555 137.019 146.325 137.45 145.121C137.552 144.823 137.666 144.525 137.774 144.233C137.881 143.936 137.995 143.644 138.103 143.346C138.249 142.953 138.401 142.56 138.56 142.173C138.693 141.844 138.826 141.508 138.959 141.178C139.01 141.064 139.054 140.95 139.105 140.836C139.282 140.43 139.453 140.024 139.631 139.619C139.682 139.492 139.739 139.371 139.789 139.251C139.84 139.143 139.891 139.029 139.942 138.921C140.284 138.154 140.639 137.394 141.013 136.639C141.051 136.563 141.095 136.481 141.127 136.405C141.216 136.227 141.304 136.05 141.393 135.879C141.862 134.947 142.35 134.021 142.864 133.115C142.972 132.925 143.079 132.728 143.187 132.538C143.25 132.411 143.326 132.285 143.403 132.158C143.593 131.828 143.783 131.498 143.979 131.175C144.67 130.021 145.393 128.893 146.135 127.79C146.35 127.467 146.572 127.15 146.794 126.833C147.016 126.516 147.238 126.199 147.466 125.888C147.688 125.578 147.916 125.267 148.15 124.957C148.372 124.665 148.594 124.367 148.822 124.076H148.835C148.835 124.076 148.835 124.063 148.841 124.057C149.076 123.765 149.304 123.473 149.532 123.188C149.551 123.163 149.57 123.137 149.596 123.112C149.811 122.839 150.039 122.567 150.261 122.301C150.274 122.282 150.287 122.263 150.306 122.244C150.553 121.946 150.807 121.648 151.073 121.35C151.301 121.09 151.529 120.83 151.764 120.57C151.802 120.526 151.846 120.475 151.89 120.431C152.112 120.183 152.334 119.936 152.562 119.689C152.803 119.429 153.051 119.169 153.304 118.909C153.564 118.637 153.824 118.37 154.084 118.111C154.464 117.73 154.844 117.356 155.231 116.989C155.618 116.621 156.004 116.26 156.397 115.911C156.423 115.886 156.448 115.867 156.474 115.841C156.505 115.809 156.537 115.784 156.562 115.759C156.626 115.702 156.689 115.651 156.746 115.594C156.81 115.537 156.879 115.48 156.943 115.423C157.069 115.309 157.203 115.201 157.329 115.093L157.748 114.732C157.887 114.611 158.027 114.497 158.166 114.383C158.445 114.149 158.724 113.921 159.009 113.686H159.015C159.294 113.458 159.586 113.236 159.871 113.014C160.08 112.856 160.29 112.697 160.505 112.539C160.581 112.475 160.664 112.418 160.74 112.361C160.93 112.222 161.12 112.082 161.317 111.949C161.418 111.873 161.519 111.797 161.621 111.727C161.976 111.474 162.337 111.22 162.698 110.979C162.781 110.922 162.857 110.865 162.939 110.814C162.946 110.808 162.952 110.802 162.958 110.802C163.047 110.745 163.136 110.681 163.225 110.631C163.58 110.39 163.941 110.155 164.309 109.933C164.613 109.749 164.923 109.566 165.228 109.382C165.316 109.331 165.405 109.28 165.494 109.23C165.747 109.078 166.014 108.925 166.274 108.78C166.533 108.627 166.8 108.488 167.06 108.342C167.085 108.323 167.117 108.311 167.148 108.291C167.186 108.272 167.218 108.253 167.256 108.234C167.421 108.146 167.592 108.057 167.757 107.968C167.96 107.867 168.163 107.765 168.365 107.664C168.803 107.436 169.247 107.227 169.684 107.017C169.931 106.903 170.178 106.789 170.426 106.675C170.926 106.453 171.434 106.238 171.934 106.035C172.22 105.914 172.505 105.8 172.796 105.693C173.291 105.496 173.792 105.318 174.286 105.147C174.457 105.084 174.635 105.027 174.812 104.964C174.983 104.906 175.155 104.849 175.332 104.799C175.459 104.754 175.586 104.71 175.719 104.672C176.093 104.558 176.467 104.444 176.841 104.336C177.272 104.216 177.703 104.095 178.14 103.987C178.356 103.93 178.571 103.873 178.793 103.822C179.009 103.772 179.224 103.721 179.446 103.677C179.858 103.582 180.27 103.499 180.682 103.417C180.726 103.404 180.777 103.398 180.828 103.385C181.189 103.315 181.557 103.252 181.925 103.195C182.425 103.106 182.926 103.03 183.427 102.967C183.921 102.897 184.416 102.84 184.91 102.789C186.4 102.643 187.909 102.567 189.43 102.567C202.057 102.567 213.721 107.759 223.16 116.545C234.018 126.643 241.929 141.495 244.972 158.674Z" fill="#ED9B65"/>
<path d="M246.36 174.445C246.36 174.895 246.354 175.351 246.348 175.802C246.348 176.049 246.341 176.296 246.329 176.537C246.329 176.79 246.329 177.044 246.31 177.291C246.31 177.323 246.31 177.355 246.31 177.38C246.291 177.843 246.278 178.299 246.252 178.762C246.233 179.237 246.208 179.713 246.176 180.182C246.094 181.602 245.974 183.009 245.815 184.403C245.714 185.329 245.6 186.254 245.466 187.174C245.34 188.093 245.194 189.006 245.035 189.906C244.959 190.356 244.877 190.812 244.788 191.256C244.706 191.706 244.617 192.156 244.522 192.6C244.44 193.05 244.338 193.494 244.237 193.937C244.148 194.337 244.053 194.742 243.958 195.142C243.951 195.192 243.939 195.25 243.92 195.3C243.837 195.668 243.742 196.036 243.653 196.397C243.622 196.543 243.584 196.688 243.539 196.828C243.457 197.151 243.375 197.474 243.286 197.798C243.045 198.685 242.791 199.566 242.519 200.435C242.392 200.853 242.265 201.265 242.126 201.677C242.126 201.696 242.119 201.709 242.113 201.728C241.98 202.14 241.841 202.552 241.701 202.958C241.422 203.788 241.124 204.612 240.814 205.43C240.503 206.248 240.18 207.053 239.85 207.851C239.685 208.244 239.52 208.637 239.349 209.024C239.007 209.816 238.652 210.602 238.278 211.376C238.272 211.395 238.265 211.414 238.253 211.439C238.075 211.807 237.898 212.175 237.714 212.536C237.562 212.853 237.397 213.17 237.238 213.487C236.82 214.304 236.389 215.11 235.939 215.902C235.78 216.187 235.616 216.479 235.451 216.758C235.286 217.043 235.121 217.328 234.956 217.607C234.62 218.171 234.278 218.729 233.93 219.281C233.587 219.819 233.239 220.352 232.89 220.878C232.319 221.727 231.73 222.564 231.121 223.388C230.779 223.864 230.424 224.339 230.056 224.802C229.866 225.049 229.663 225.303 229.467 225.55C228.218 227.109 226.912 228.593 225.556 230.006C225.239 230.342 224.909 230.672 224.58 231.001C224.541 231.039 224.503 231.077 224.459 231.122C224.142 231.432 223.819 231.743 223.496 232.047C223.147 232.377 222.798 232.7 222.45 233.017C222.431 233.036 222.412 233.049 222.393 233.068C222.063 233.359 221.733 233.651 221.404 233.93C221.29 234.025 221.182 234.12 221.068 234.221C220.751 234.488 220.44 234.748 220.117 235.008C219.73 235.318 219.344 235.622 218.951 235.927C218.564 236.225 218.164 236.516 217.771 236.808C217.442 237.049 217.106 237.283 216.77 237.518C216.687 237.568 216.605 237.626 216.523 237.689C216.161 237.93 215.8 238.177 215.432 238.418C215.382 238.443 215.331 238.475 215.28 238.513C214.894 238.76 214.507 239.001 214.114 239.242C213.264 239.755 212.409 240.25 211.534 240.713C211.477 240.744 211.42 240.776 211.356 240.801C211.027 240.979 210.697 241.15 210.368 241.315C210.323 241.334 210.279 241.359 210.241 241.378C209.169 241.911 208.092 242.399 206.995 242.849C206.444 243.071 205.892 243.286 205.341 243.489C204.783 243.692 204.225 243.882 203.661 244.066C203.204 244.212 202.748 244.358 202.292 244.491C201.373 244.757 200.447 244.998 199.509 245.207C198.691 245.391 197.867 245.556 197.037 245.695C194.552 246.113 192.016 246.329 189.436 246.329C187.414 246.329 185.417 246.196 183.452 245.93C183.028 245.879 182.603 245.822 182.184 245.752H182.178C181.944 245.714 181.709 245.676 181.468 245.632C181.265 245.594 181.056 245.556 180.847 245.518C180.822 245.511 180.79 245.505 180.764 245.499C180.562 245.46 180.359 245.422 180.15 245.378C179.947 245.334 179.744 245.296 179.541 245.245C179.414 245.22 179.288 245.188 179.161 245.163C178.882 245.099 178.609 245.029 178.33 244.96C178.204 244.928 178.083 244.896 177.956 244.871C177.703 244.801 177.443 244.732 177.189 244.662C176.974 244.605 176.765 244.541 176.555 244.484C176.289 244.402 176.029 244.326 175.769 244.243C175.617 244.193 175.465 244.148 175.313 244.098C174.742 243.914 174.172 243.717 173.608 243.514C173.291 243.4 172.98 243.28 172.663 243.153C172.549 243.115 172.435 243.071 172.315 243.02C172.137 242.95 171.953 242.874 171.776 242.804C171.611 242.735 171.453 242.665 171.288 242.595C171.205 242.564 171.123 242.532 171.047 242.494C170.717 242.354 170.388 242.209 170.058 242.056L169.564 241.828C169.285 241.701 169.012 241.568 168.739 241.429C168.156 241.144 167.573 240.839 166.996 240.529C166.762 240.402 166.534 240.275 166.299 240.142C166.204 240.091 166.102 240.034 166.007 239.977C165.811 239.863 165.608 239.749 165.405 239.629C165.367 239.61 165.323 239.584 165.285 239.559C165.126 239.464 164.968 239.369 164.809 239.274C164.79 239.261 164.771 239.255 164.759 239.242C164.397 239.026 164.049 238.805 163.694 238.576C163.364 238.367 163.041 238.152 162.717 237.936C162.458 237.765 162.198 237.587 161.944 237.404C161.659 237.207 161.38 237.011 161.101 236.808C160.752 236.554 160.404 236.294 160.055 236.028C158.832 235.096 157.64 234.107 156.48 233.068C156.296 232.897 156.112 232.732 155.928 232.561C155.745 232.389 155.561 232.225 155.377 232.047C153.83 230.589 152.347 229.03 150.933 227.388C150.692 227.116 150.458 226.843 150.23 226.564C150.179 226.507 150.135 226.444 150.078 226.386C150.02 226.317 149.963 226.247 149.906 226.177C149.678 225.898 149.45 225.613 149.222 225.322C148.867 224.872 148.518 224.421 148.169 223.965C148.024 223.769 147.878 223.578 147.732 223.375C147.586 223.179 147.441 222.982 147.301 222.78C146.997 222.361 146.705 221.943 146.414 221.518C146.198 221.201 145.989 220.891 145.78 220.58C145.59 220.295 145.399 219.997 145.209 219.705C145.076 219.496 144.943 219.287 144.81 219.078C144.689 218.888 144.575 218.697 144.455 218.501C143.72 217.315 143.022 216.098 142.357 214.856C142.312 214.786 142.274 214.71 142.236 214.64C142.147 214.482 142.065 214.323 141.983 214.159C141.945 214.083 141.9 214.007 141.862 213.93C141.78 213.772 141.704 213.607 141.621 213.449C141.476 213.176 141.336 212.91 141.209 212.637C141.152 212.53 141.095 212.422 141.044 212.314C141.025 212.282 141.006 212.244 140.987 212.206C140.918 212.067 140.848 211.921 140.778 211.775C140.747 211.712 140.721 211.648 140.696 211.591C140.69 211.585 140.683 211.585 140.69 211.579C140.227 210.621 139.783 209.645 139.365 208.663C139.181 208.232 138.997 207.794 138.819 207.357C138.731 207.135 138.642 206.92 138.553 206.698C138.465 206.476 138.376 206.26 138.293 206.038C138.122 205.595 137.951 205.151 137.786 204.707V204.695C137.621 204.244 137.463 203.801 137.304 203.344C136.48 200.999 135.764 198.59 135.149 196.118C135.105 195.953 135.067 195.782 135.029 195.617C134.946 195.307 134.87 194.996 134.807 194.685C134.731 194.375 134.661 194.064 134.598 193.753C134.427 193.018 134.274 192.283 134.135 191.535C134.072 191.212 134.008 190.888 133.951 190.559C133.767 189.576 133.609 188.587 133.463 187.586C133.4 187.174 133.343 186.762 133.292 186.343C133.273 186.216 133.254 186.09 133.241 185.963C133.178 185.5 133.127 185.031 133.076 184.562C133.032 184.15 132.988 183.738 132.943 183.32C132.912 183.034 132.886 182.749 132.867 182.464C132.835 182.153 132.81 181.849 132.791 181.538C132.747 180.999 132.709 180.461 132.677 179.916C132.639 179.275 132.607 178.622 132.582 177.969C132.563 177.538 132.55 177.107 132.544 176.676C132.531 176.252 132.519 175.827 132.525 175.396C132.512 175.079 132.512 174.762 132.512 174.445C132.512 173.735 132.519 173.031 132.538 172.328C132.544 171.941 132.557 171.561 132.569 171.174C132.576 171.06 132.582 170.959 132.582 170.851C132.607 170.287 132.633 169.729 132.664 169.171C132.696 168.664 132.728 168.163 132.766 167.656V167.637C132.797 167.2 132.829 166.762 132.874 166.325C132.943 165.494 133.032 164.677 133.127 163.859C133.152 163.631 133.178 163.409 133.203 163.187C133.267 162.699 133.33 162.211 133.4 161.723V161.71C133.476 161.184 133.558 160.658 133.641 160.138C133.843 158.845 134.078 157.571 134.344 156.309C134.363 156.201 134.389 156.094 134.408 155.986C134.408 155.98 134.408 155.967 134.408 155.954C134.465 155.701 134.515 155.447 134.572 155.2C134.725 154.477 134.896 153.767 135.067 153.057C135.118 152.861 135.168 152.658 135.219 152.461C135.251 152.328 135.289 152.195 135.32 152.068C135.428 151.637 135.542 151.219 135.663 150.794C135.707 150.61 135.764 150.427 135.815 150.243C135.954 149.755 136.094 149.273 136.24 148.798C136.614 147.555 137.013 146.325 137.444 145.121C137.545 144.823 137.659 144.525 137.767 144.233C137.875 143.935 137.989 143.644 138.097 143.346C138.243 142.953 138.395 142.56 138.553 142.173C138.686 141.844 138.82 141.508 138.953 141.178C139.003 141.064 139.048 140.95 139.098 140.836C139.276 140.43 139.447 140.024 139.625 139.619C139.675 139.492 139.732 139.371 139.783 139.251C139.834 139.143 139.884 139.029 139.935 138.921C140.277 138.154 140.632 137.394 141.006 136.639C141.044 136.563 141.089 136.481 141.121 136.405C141.209 136.227 141.298 136.05 141.387 135.879C141.856 134.947 142.344 134.021 142.857 133.115C142.965 132.925 143.073 132.728 143.181 132.538C143.244 132.411 143.32 132.285 143.396 132.158C143.586 131.828 143.777 131.498 143.973 131.175C144.658 130.015 145.374 128.887 146.128 127.79C146.344 127.467 146.566 127.15 146.788 126.833C147.009 126.516 147.231 126.199 147.46 125.888C147.681 125.578 147.91 125.267 148.144 124.957C148.366 124.665 148.588 124.367 148.816 124.076H148.829C148.829 124.076 148.829 124.063 148.835 124.057C149.07 123.765 149.298 123.473 149.526 123.188C149.545 123.163 149.564 123.137 149.589 123.112C149.805 122.839 150.033 122.567 150.255 122.301C150.268 122.282 150.28 122.263 150.299 122.244C150.547 121.946 150.8 121.648 151.066 121.35C151.295 121.09 151.523 120.83 151.757 120.57C152.011 120.272 152.283 119.981 152.556 119.689C152.797 119.429 153.044 119.169 153.298 118.909C153.558 118.637 153.818 118.37 154.077 118.111C154.458 117.73 154.838 117.356 155.225 116.989C155.611 116.621 155.998 116.26 156.391 115.911C156.417 115.886 156.442 115.867 156.467 115.841C156.499 115.809 156.531 115.784 156.556 115.759C156.619 115.702 156.683 115.651 156.74 115.594C156.803 115.537 156.873 115.48 156.936 115.423C157.203 115.188 157.469 114.954 157.741 114.732C157.881 114.611 158.02 114.497 158.16 114.383C158.439 114.149 158.718 113.921 159.003 113.686C159.282 113.458 159.573 113.236 159.859 113.014C160.068 112.856 160.277 112.697 160.492 112.539C160.765 112.336 161.031 112.139 161.304 111.943C161.405 111.873 161.507 111.797 161.608 111.721C161.963 111.467 162.324 111.214 162.686 110.973C162.768 110.916 162.844 110.859 162.927 110.808C162.933 110.802 162.939 110.795 162.946 110.795C163.034 110.738 163.123 110.675 163.212 110.624C163.567 110.383 163.928 110.149 164.296 109.927C164.6 109.743 164.911 109.559 165.215 109.375C165.304 109.325 165.392 109.274 165.481 109.223C165.735 109.071 166.001 108.919 166.261 108.773C166.521 108.621 166.787 108.482 167.047 108.336C167.072 108.317 167.104 108.304 167.136 108.285C167.174 108.266 167.205 108.247 167.243 108.228C167.408 108.139 167.579 108.051 167.744 107.962C167.934 107.854 168.131 107.753 168.327 107.651C169.012 107.303 169.709 106.973 170.413 106.669C170.914 106.447 171.421 106.231 171.922 106.028C171.96 106.016 171.998 105.997 172.036 105.984C172.302 105.876 172.568 105.769 172.834 105.667C173.101 105.566 173.367 105.471 173.633 105.376C173.849 105.3 174.064 105.217 174.273 105.141C174.445 105.078 174.622 105.021 174.8 104.957C174.971 104.9 175.142 104.843 175.319 104.792C175.446 104.748 175.573 104.704 175.706 104.666C175.864 104.615 176.029 104.57 176.188 104.52C176.651 104.38 177.113 104.254 177.576 104.127C177.76 104.076 177.944 104.025 178.127 103.981C178.343 103.924 178.559 103.867 178.78 103.816C178.996 103.765 179.218 103.715 179.433 103.67C179.643 103.626 179.845 103.575 180.048 103.537C180.302 103.48 180.549 103.429 180.803 103.379H180.815C180.815 103.379 180.834 103.379 180.841 103.372C181.69 103.214 182.546 103.068 183.414 102.96C183.649 102.929 183.89 102.897 184.124 102.872C184.378 102.834 184.638 102.808 184.898 102.783C186.394 102.631 187.902 102.555 189.424 102.555C202.044 102.555 213.721 107.746 223.16 116.538C235.4 127.923 243.901 145.355 245.897 165.349C246.195 168.328 246.348 171.358 246.348 174.439L246.36 174.445Z" stroke="black" stroke-width="2.53559" stroke-miterlimit="10"/>
<path d="M185.787 184C185.787 184 183.997 191.072 177.917 197.462C174.395 201.165 181.793 206.323 187 205.984L183.162 203.26L181.075 201.044L181.944 198.362L185.385 188.867L185.787 184.005V184Z" fill="#ED9B65"/>
<path d="M247.615 172.006C247.615 172.006 206.297 150.266 186.982 104.93C186.982 104.93 165.816 154.586 132.537 172.329L126.927 169.857C126.927 169.857 135.199 138.916 145.589 122.841C146.115 122.029 173.556 98.4863 173.556 98.4863C173.556 98.4863 198.652 99.4055 198.811 99.1013C198.969 98.797 218.107 107.374 218.107 107.374L234.341 121.465L246.556 146.58L247.615 172.006Z" fill="#F3AC59"/>
<path d="M247.336 173.229C247.336 173.229 201.365 141.379 186.982 104.93C186.982 104.93 168.181 154.447 131.225 173.096" stroke="black" stroke-width="2.53559" stroke-miterlimit="10"/>
<path d="M186.649 185C186.649 185 183.673 195 181.313 198.928C179.649 201.696 185.076 204.555 187 205" stroke="black" stroke-width="2.53559" stroke-miterlimit="10" stroke-linecap="round"/>
<path d="M176 218.44C176 218.44 188.463 225.586 201 216" stroke="black" stroke-width="2.65919" stroke-miterlimit="10" stroke-linecap="round"/>
<path d="M211.419 183.807C213.955 183.807 216.011 181.359 216.011 178.34C216.011 175.321 213.955 172.874 211.419 172.874C208.882 172.874 206.826 175.321 206.826 178.34C206.826 181.359 208.882 183.807 211.419 183.807Z" fill="black"/>
<path d="M163.592 182.933C166.128 182.933 168.185 180.485 168.185 177.466C168.185 174.447 166.128 172 163.592 172C161.056 172 159 174.447 159 177.466C159 180.485 161.056 182.933 163.592 182.933Z" fill="black"/>
<path d="M205.492 160.5C205.492 160.5 211.492 161.5 216.992 164.5C222.107 168.031 223.109 168.031 221.854 169.369C220.598 170.706 216.928 167.245 211.584 166.51C206.241 165.775 202.146 165.527 202 162.383C202.492 160.5 204.492 160.501 204.492 160.501L205.492 160.5Z" fill="black"/>
<path d="M169 160.5C169 160.5 163 161.5 157.5 164.5C152.384 168.031 151.383 168.031 152.638 169.369C153.893 170.706 157.563 167.245 162.907 166.51C168.251 165.775 172.346 165.527 172.491 162.383C172 160.5 170 160.501 170 160.501L169 160.5Z" fill="black"/>
</g>
<rect x="1" y="1" width="368" height="370" rx="11" stroke="black" stroke-width="2"/>
<defs>
<clipPath id="clip0_488_224">
<rect width="370" height="372" rx="12" fill="white"/>
</clipPath>
</defs>
</svg>
