<svg width="370" height="372" viewBox="0 0 370 372" fill="none" xmlns="http://www.w3.org/2000/svg">
<g clip-path="url(#clip0_476_1415)">
<rect x="-27" y="-25" width="423" height="423" fill="#4FC0FF" fill-opacity="0.984"/>
<path d="M8.75247 96.5231L-7.89047 271.829V274.048H23.1764L26.9488 231.886H39.3755L43.1479 274.048H74.2147V271.829L57.5718 96.5231H8.75247ZM27.1707 203.038L32.0526 142.014H34.2717L39.1536 203.038H27.1707ZM87.1459 96.5231V274.048H120.432L118.878 206.588H122.207L134.856 274.048H167.032V271.829L150.389 197.047C162.594 185.064 169.251 172.637 169.251 150.446C169.251 116.051 147.948 96.5231 119.988 96.5231H87.1459ZM120.432 123.152H121.541C129.308 123.152 135.965 129.143 135.965 140.904V165.314C135.965 177.075 129.308 183.066 121.541 183.066H120.432V123.152ZM175.714 96.5231V125.371H197.905V274.048H231.191V125.371H253.381V96.5231H175.714ZM266.986 96.5231V274.048H300.272V96.5231H266.986ZM315.17 191.943C315.17 252.967 331.813 276.267 360.661 276.267C389.508 276.267 406.151 252.967 406.151 191.943V178.628C406.151 117.604 389.508 94.3041 360.661 94.3041C331.813 94.3041 315.17 117.604 315.17 178.628V191.943ZM351.784 132.25C351.784 124.927 355.335 120.933 360.661 120.933C365.986 120.933 369.537 124.927 369.537 132.25V237.211C369.537 244.534 365.986 248.529 360.661 248.529C355.335 248.529 351.784 244.534 351.784 237.211V132.25Z" fill="#1AA2EF"/>
<path d="M301.066 372.875C250.763 372.934 180.002 373 123.883 373H112.943C102.99 373 93.611 372.993 85.0285 372.987C79.1532 372.98 73.6533 372.973 68.5947 372.967C69.1282 368.699 69.9648 364.496 71.0647 360.36C71.2294 359.741 71.4007 359.122 71.5785 358.509C71.6312 358.318 71.6839 358.127 71.7432 357.936C71.9276 357.304 72.1186 356.671 72.3162 356.039C72.5599 355.255 72.8102 354.478 73.0737 353.707C73.2911 353.062 73.5215 352.416 73.7521 351.771C73.7653 351.744 73.7719 351.712 73.785 351.685C74.1276 350.71 74.4964 349.749 74.8719 348.787C75.1287 348.135 75.3856 347.476 75.6556 346.805C76.9137 343.649 78.3299 340.251 79.8646 336.819C80.1939 336.088 80.5232 335.357 80.8591 334.626C83.4082 329.086 86.2734 323.54 89.356 318.837C89.3692 318.818 89.3823 318.791 89.3955 318.772C89.4218 318.732 89.4482 318.693 89.4745 318.653C89.8104 318.139 90.1464 317.632 90.4955 317.145C90.8182 316.677 91.141 316.223 91.4703 315.781C91.5032 315.735 91.5296 315.696 91.5625 315.656C94.0655 312.284 96.6738 309.076 99.3875 306.026C99.8749 305.48 100.369 304.933 100.863 304.393C100.902 304.353 100.929 304.314 100.962 304.281C105.375 299.486 110.018 295.086 114.827 291.048H114.833C120.663 286.167 126.722 281.827 132.894 277.987H132.901C133.882 277.374 134.87 276.775 135.858 276.182C138.256 274.759 140.66 273.409 143.07 272.125C143.584 271.841 144.091 271.578 144.605 271.314C144.612 271.314 144.612 271.314 144.618 271.314C145.732 270.728 146.851 270.168 147.964 269.615C149.94 268.64 151.956 267.83 153.991 267.132C154.584 266.928 155.177 266.737 155.77 266.552C155.77 266.552 155.774 266.55 155.783 266.546C156.277 266.394 156.771 266.249 157.265 266.111C157.291 266.098 157.324 266.091 157.35 266.085C157.792 265.959 158.246 265.834 158.688 265.722C158.701 265.722 158.707 265.722 158.72 265.709L158.799 265.689C161.572 264.952 164.319 264.372 166.947 263.838C168.838 263.456 170.662 263.101 172.388 262.725C173.652 262.455 174.891 262.218 176.109 262.027C176.162 262.021 176.215 262.014 176.261 262.007C177.249 261.849 178.217 261.718 179.166 261.625C180.97 261.428 182.716 261.336 184.402 261.342H184.606C184.606 261.342 184.652 261.342 184.672 261.349H184.712C185.021 261.349 185.324 261.349 185.627 261.362H185.667C189.316 261.487 192.879 261.718 196.357 262.073C206.283 263.061 215.537 264.965 224.107 267.679C226.3 268.37 228.447 269.121 230.548 269.925C232.037 270.491 233.499 271.084 234.942 271.703C237.425 272.763 239.836 273.903 242.174 275.115C242.345 275.201 242.516 275.286 242.688 275.378C251.303 279.877 259.009 285.37 265.767 291.733C269.278 295.02 272.532 298.544 275.536 302.285C276.023 302.898 276.51 303.517 276.985 304.136L277.004 304.156C280.68 308.957 283.953 314.095 286.805 319.536C287.056 320.016 287.313 320.504 287.556 320.991C287.662 321.202 287.767 321.413 287.872 321.624C290.25 326.359 292.312 331.319 294.051 336.47C295.078 339.467 295.994 342.53 296.804 345.652C296.896 346.027 296.995 346.403 297.087 346.778C297.107 346.857 297.127 346.943 297.146 347.022C297.265 347.476 297.37 347.931 297.476 348.392C297.509 348.53 297.542 348.662 297.575 348.794C297.687 349.268 297.792 349.736 297.897 350.21C297.97 350.526 298.036 350.842 298.102 351.152C298.134 351.283 298.161 351.409 298.187 351.54C298.26 351.883 298.326 352.232 298.405 352.574C298.418 352.654 298.431 352.726 298.451 352.805C298.464 352.891 298.484 352.983 298.503 353.075C298.609 353.622 298.714 354.175 298.82 354.735C298.958 355.459 299.09 356.184 299.208 356.915C299.241 357.086 299.267 357.258 299.3 357.429C299.307 357.482 299.32 357.528 299.327 357.58L299.386 357.956C299.452 358.344 299.511 358.74 299.57 359.128C299.63 359.543 299.702 359.952 299.761 360.367C299.834 360.88 299.906 361.387 299.979 361.901C300.051 362.415 300.117 362.929 300.183 363.449C300.308 364.483 300.427 365.524 300.539 366.565C300.637 367.513 300.723 368.462 300.809 369.417C300.822 369.594 300.842 369.772 300.855 369.957C300.934 370.925 301.006 371.9 301.066 372.881V372.875Z" fill="#192D4F"/>
<path d="M271.623 372.874C229.791 372.92 173.824 372.979 123.883 372.999H112.943C102.99 372.999 93.611 372.993 85.0285 372.986C79.1532 372.979 73.6533 372.973 68.5947 372.966C69.1282 368.698 69.9648 364.496 71.0647 360.359C71.2294 359.74 71.4007 359.121 71.5785 358.508C71.6312 358.317 71.6839 358.126 71.7432 357.935C71.9276 357.303 72.1186 356.671 72.3162 356.038C72.5599 355.255 72.8102 354.477 73.0737 353.707C73.2911 353.061 73.5215 352.416 73.7521 351.77C74.1078 350.769 74.4833 349.774 74.8719 348.786C75.1287 348.134 75.3856 347.476 75.6556 346.804C77.164 342.977 78.8634 338.781 80.7537 334.599C82.3938 330.936 84.1854 327.274 86.1153 323.882C86.1285 323.856 86.1417 323.836 86.1549 323.81C87.1495 322.058 88.1836 320.378 89.2572 318.804C89.9751 317.743 90.7128 316.729 91.4703 315.78C91.5032 315.734 91.5296 315.695 91.5625 315.655C94.2631 312.263 96.8714 309.062 99.4468 306.039C99.921 305.485 100.395 304.932 100.863 304.392C100.902 304.353 100.929 304.313 100.962 304.28C103.603 301.244 106.225 298.398 108.886 295.717C110.578 294.005 112.297 292.365 114.05 290.791C119.49 285.89 125.26 281.615 131.866 277.834C132.828 277.288 133.803 276.741 134.804 276.214C134.804 276.214 134.863 276.181 134.89 276.168C137.768 274.64 140.475 273.27 143.051 272.045C143.571 271.795 144.091 271.551 144.599 271.314C144.605 271.314 144.605 271.314 144.612 271.314C147.958 269.759 151.067 268.448 153.991 267.355C154.037 267.335 154.077 267.316 154.123 267.302C154.314 267.23 154.505 267.157 154.696 267.092C154.696 267.092 154.709 267.085 154.716 267.085C155.697 266.723 156.659 266.387 157.594 266.077C157.956 265.959 158.325 265.834 158.681 265.722C158.694 265.722 158.701 265.722 158.714 265.708L158.793 265.689C163.371 264.24 167.52 263.337 171.485 262.83C171.499 262.83 171.505 262.823 171.518 262.823C171.808 262.79 172.098 262.758 172.381 262.725C172.447 262.731 172.513 262.744 172.579 262.751H172.585C182.854 264.174 192.365 266.598 201.099 269.924C204.129 271.077 207.067 272.341 209.912 273.711C213.535 275.444 217 277.354 220.306 279.428C220.385 279.468 220.464 279.521 220.537 279.567C220.886 279.784 221.222 280.002 221.564 280.219C224.146 281.879 226.629 283.637 229.014 285.488C230.759 286.845 232.452 288.248 234.099 289.704C236.826 292.121 239.414 294.67 241.845 297.344C245.112 300.914 248.122 304.721 250.855 308.733C253.226 312.184 255.387 315.787 257.356 319.535C258.614 321.919 259.787 324.356 260.88 326.853C263.291 332.339 265.306 338.096 266.933 344.077C267.361 345.631 267.757 347.206 268.126 348.793C268.962 352.37 269.66 356.025 270.22 359.747C270.253 359.951 270.279 360.162 270.312 360.366C270.912 364.456 271.346 368.632 271.616 372.881L271.623 372.874Z" fill="#2C4578"/>
<path d="M242.47 274.212C242.378 274.515 242.279 274.812 242.174 275.108C242.121 275.273 242.062 275.437 242.002 275.596C240.698 279.212 238.887 282.663 236.628 285.891C235.765 287.122 234.843 288.321 233.855 289.48C230.285 293.696 225.924 297.424 220.964 300.48C211.855 306.112 200.73 309.491 188.808 309.491C176.287 309.491 164.747 306.013 155.506 300.164C146.897 294.717 140.277 287.201 136.727 278.513C136.411 277.749 136.121 276.966 135.858 276.182C135.805 276.037 135.759 275.885 135.713 275.74C135.706 275.727 135.7 275.721 135.706 275.707C138.124 274.324 140.561 273.046 143.024 271.861C144.664 271.064 146.311 270.313 147.964 269.608C149.94 268.633 151.956 267.823 153.991 267.125V267.026C153.991 267.026 154.643 266.842 155.769 266.545C155.769 266.545 155.774 266.543 155.783 266.539C156.277 266.387 156.771 266.242 157.265 266.104C157.291 266.091 157.324 266.084 157.35 266.078C164.622 263.713 171.946 262.192 179.165 261.618C180.97 261.421 182.716 261.329 184.402 261.335H185.093C198.695 261.335 212.073 262.653 224.153 266.783C227.94 267.935 231.589 269.259 235.106 270.748C237.635 271.815 240.086 272.967 242.47 274.212Z" fill="#192D4F"/>
<path d="M301.066 372.875C250.763 372.934 180.002 373 123.883 373H112.943C102.99 373 93.611 372.993 85.0285 372.987C79.1532 372.98 73.6533 372.974 68.5947 372.967C69.5103 365.656 71.124 358.529 73.3305 351.646C73.3371 351.626 73.3437 351.6 73.3503 351.58C73.4096 351.409 73.4623 351.238 73.5216 351.066C75.379 345.356 77.658 339.81 80.2861 334.461C82.0711 330.839 84.0142 327.308 86.1153 323.883C86.1285 323.857 86.1417 323.837 86.1549 323.81C87.189 322.124 88.256 320.471 89.356 318.838C89.3692 318.818 89.3823 318.791 89.3955 318.772C89.4218 318.732 89.4482 318.693 89.4745 318.653H89.4811C89.8368 318.113 90.2057 317.579 90.5811 317.046C90.8709 316.624 91.1739 316.203 91.4703 315.781C91.5032 315.735 91.5296 315.696 91.5625 315.656C93.9535 312.31 96.4894 309.083 99.157 305.98C102.24 302.384 105.493 298.959 108.886 295.718C110.638 294.045 112.423 292.425 114.247 290.857C119.898 285.99 125.866 281.636 132.044 277.862C132.96 277.295 133.882 276.749 134.804 276.215C134.804 276.215 134.863 276.182 134.89 276.169C135.16 276.011 135.43 275.859 135.7 275.708C138.117 274.325 140.554 273.047 143.018 271.861C144.658 271.064 146.305 270.313 147.958 269.609C149.96 268.752 151.969 267.955 153.991 267.231C154.828 266.928 155.664 266.631 156.507 266.348C156.758 266.269 157.008 266.183 157.258 266.104C157.285 266.091 157.318 266.085 157.344 266.078C164.616 263.713 171.94 262.192 179.159 261.619C179.646 261.579 180.134 261.54 180.621 261.514C180.7 261.514 180.779 261.5 180.858 261.5C181.557 261.454 182.261 261.421 182.96 261.402C183.058 261.395 183.15 261.388 183.243 261.388C184.04 261.369 184.83 261.355 185.621 261.355H185.66C187.32 261.355 188.96 261.382 190.58 261.435C191.364 261.454 192.148 261.487 192.919 261.533C193.63 261.566 194.328 261.606 195.033 261.652C195.639 261.691 196.245 261.737 196.844 261.784C206.566 262.508 215.636 264.207 224.047 266.757C224.08 266.763 224.113 266.776 224.146 266.783C227.933 267.936 231.583 269.26 235.1 270.748C237.629 271.815 240.079 272.968 242.464 274.213C242.945 274.456 243.425 274.707 243.9 274.964C252.344 279.495 259.886 285.061 266.512 291.503C269.924 294.816 273.092 298.366 276.01 302.127C277.979 304.663 279.85 307.304 281.595 310.031C281.648 310.11 281.694 310.189 281.747 310.268C283.927 313.693 285.936 317.257 287.754 320.945C287.859 321.149 287.965 321.36 288.063 321.571C290.382 326.327 292.404 331.293 294.117 336.437C295.124 339.441 296.014 342.517 296.797 345.645C296.89 346.021 296.988 346.396 297.081 346.772C297.1 346.851 297.12 346.936 297.14 347.015C297.258 347.47 297.364 347.924 297.469 348.386C297.502 348.524 297.535 348.656 297.568 348.787C297.68 349.262 297.785 349.729 297.891 350.203C297.963 350.52 298.029 350.836 298.095 351.145C298.128 351.277 298.154 351.402 298.181 351.534C298.253 351.876 298.319 352.226 298.398 352.568C298.411 352.647 298.424 352.72 298.444 352.799C298.457 352.884 298.477 352.976 298.497 353.069C298.602 353.615 298.708 354.169 298.813 354.728C298.912 355.282 299.01 355.842 299.109 356.395C299.142 356.566 299.175 356.737 299.202 356.909C299.234 357.08 299.261 357.251 299.294 357.422C299.3 357.475 299.314 357.521 299.32 357.574L299.379 357.949C299.445 358.338 299.505 358.733 299.564 359.122C299.623 359.537 299.695 359.945 299.755 360.36C299.827 360.874 299.9 361.381 299.972 361.895C300.045 362.409 300.11 362.922 300.176 363.443C300.301 364.477 300.42 365.517 300.532 366.558C300.631 367.507 300.716 368.455 300.802 369.41C300.815 369.588 300.835 369.766 300.848 369.95C300.927 370.919 301 371.893 301.059 372.875H301.066Z" stroke="black" stroke-width="2.63468" stroke-miterlimit="10"/>
<path d="M224.153 266.782C224.14 267.079 224.126 267.375 224.107 267.671C224.093 267.928 224.074 268.179 224.047 268.435C224.028 268.679 224.001 268.923 223.968 269.167C223.948 269.344 223.929 269.522 223.896 269.7C223.382 273.125 222.144 276.405 220.313 279.422C220.095 279.778 219.871 280.133 219.641 280.482H219.634C214.108 288.788 204.03 294.848 192.385 295.869C192.141 295.889 191.898 295.909 191.654 295.922C191.371 295.941 191.087 295.961 190.798 295.974C190.468 295.994 190.132 296.007 189.796 296.014C189.5 296.021 189.204 296.021 188.907 296.021C188.308 296.021 187.709 296.007 187.109 295.981C186.8 295.968 186.497 295.948 186.187 295.928C174.1 295.158 163.746 289.282 158.24 280.891H158.233C155.585 276.86 154.064 272.256 153.998 267.349C153.991 267.309 153.991 267.27 153.998 267.23C153.991 267.197 153.991 267.158 153.991 267.125V267.026C153.991 267.026 154.643 266.841 155.77 266.545C155.77 266.545 155.774 266.543 155.783 266.538C156.007 266.486 156.25 266.42 156.514 266.347C156.843 266.262 157.212 266.17 157.601 266.071C159.689 265.531 162.528 264.839 165.683 264.141C167.883 263.653 170.227 263.173 172.585 262.745H172.592C176.221 262.092 179.857 261.572 182.966 261.401C183.065 261.394 183.157 261.388 183.249 261.388C183.71 261.361 184.152 261.348 184.58 261.342H184.712C184.843 261.335 184.968 261.335 185.094 261.335C198.695 261.335 212.073 262.652 224.153 266.782Z" fill="white"/>
<path d="M224.153 266.782C224.139 267.079 224.126 267.375 224.106 267.671C224.093 267.928 224.074 268.179 224.047 268.435C224.027 268.679 224.001 268.923 223.968 269.167C223.948 269.344 223.929 269.522 223.896 269.7C223.408 273.27 222.249 276.577 220.543 279.56C220.378 279.85 220.207 280.14 220.029 280.43C220.029 280.43 220.027 280.432 220.023 280.436C214.602 289.184 204.34 294.927 192.385 295.869C192.141 295.889 191.897 295.909 191.654 295.922C191.371 295.941 191.087 295.961 190.798 295.974C190.468 295.994 190.132 296.007 189.796 296.014C189.5 296.021 189.204 296.021 188.907 296.021C188.308 296.021 187.708 296.007 187.109 295.981C186.799 295.968 186.496 295.948 186.187 295.928C174.265 295.125 164.069 289.072 158.542 280.917C155.743 276.781 154.143 272.104 154.129 267.296V267.237C154.32 267.184 154.511 267.138 154.702 267.085C154.702 267.085 154.716 267.079 154.722 267.079C158.312 266.104 161.968 265.063 165.682 264.141C166.104 264.036 166.526 263.93 166.947 263.831C168.449 263.469 169.964 263.133 171.492 262.824C171.505 262.824 171.512 262.817 171.525 262.817C173.046 262.514 174.574 262.244 176.109 262.02C176.162 262.013 176.215 262.007 176.261 262C177.71 261.796 179.165 261.625 180.628 261.513C180.707 261.513 180.786 261.5 180.865 261.5C182.096 261.407 183.335 261.348 184.58 261.342C184.586 261.335 184.599 261.335 184.606 261.335H185.093C186.951 261.335 188.782 261.368 190.587 261.434C191.371 261.454 192.154 261.486 192.925 261.533C193.636 261.565 194.335 261.605 195.039 261.651C195.645 261.691 196.251 261.737 196.851 261.783C205.901 262.501 214.608 264.095 224.054 266.756C224.087 266.762 224.12 266.776 224.153 266.782Z" stroke="black" stroke-width="2.63468" stroke-miterlimit="10"/>
<path d="M127.25 280.938L134.436 372.822" stroke="black" stroke-width="2.63468" stroke-miterlimit="10" stroke-linecap="round"/>
<path d="M234.942 271.696L243.32 372.822" stroke="black" stroke-width="2.63468" stroke-miterlimit="10" stroke-linecap="round"/>
<path d="M96.5552 309.49L101.798 372.821" stroke="black" stroke-width="2.63468" stroke-miterlimit="10" stroke-linecap="round"/>
<path d="M162.304 285.442L169.845 372.986" stroke="black" stroke-width="2.63468" stroke-miterlimit="10" stroke-linecap="round"/>
<path d="M199.9 294.592L206.652 372.987" stroke="black" stroke-width="2.63468" stroke-miterlimit="10" stroke-linecap="round"/>
<path d="M70.9595 361.044L296.804 345.645" stroke="black" stroke-width="2.63468" stroke-miterlimit="10" stroke-linecap="round"/>
<path d="M85.8188 324.864L282.498 311.453" stroke="black" stroke-width="2.63468" stroke-miterlimit="10" stroke-linecap="round"/>
<path d="M215.511 276.222C214.741 276.637 212.962 278.165 212.172 278.678C195.488 289.5 170.847 286.326 162.831 276.373C162.291 275.701 162.1 274.753 161.382 274.325L161.355 268.601L162.304 258.879L165.242 228.784H209.801L211.223 240.607L214.833 270.597L215.511 276.222Z" fill="#FFD19D"/>
<path d="M211.223 242.564C204.011 259.649 177.144 263.219 162.304 263.858L165.241 228.784H209.8L211.223 242.564Z" fill="#E99F6F"/>
<path d="M161.382 274.858L165.242 228.784H209.801L214.833 277.513C214.833 277.513 204.136 285.68 187.189 285.68C170.241 285.68 161.382 274.858 161.382 274.858Z" stroke="black" stroke-width="2.63468" stroke-miterlimit="10"/>
<path d="M262.685 192.084C259.385 198.354 254.616 203.005 249.801 205.218C246.014 206.97 242.194 207.213 239.045 205.554C238.617 205.33 238.215 205.073 237.833 204.79C231.793 200.344 231.227 188.982 236.786 178.436C238.979 174.267 241.832 170.809 244.907 168.312C250.091 164.097 255.934 162.602 260.426 164.966C261.196 165.375 261.901 165.875 262.527 166.475C267.717 171.342 267.954 182.085 262.685 192.084Z" fill="#FFD19D"/>
<path d="M262.527 166.475C261.335 168.056 259.985 170.058 258.615 172.515C254.742 179.49 250.757 190.134 249.802 205.218C246.014 206.97 242.194 207.213 239.046 205.554C238.617 205.33 238.216 205.073 237.833 204.79C239.724 194.89 242.602 180.083 244.908 168.312C250.091 164.097 255.934 162.602 260.426 164.966C261.197 165.375 261.901 165.875 262.527 166.475Z" fill="#E99F6F"/>
<path d="M262.685 192.084C259.385 198.354 254.616 203.005 249.801 205.218C246.014 206.97 242.194 207.213 239.045 205.554C238.617 205.33 238.215 205.073 237.833 204.79C231.793 200.344 231.227 188.982 236.786 178.436C238.979 174.267 241.832 170.809 244.907 168.312C250.091 164.097 255.934 162.602 260.426 164.966C261.196 165.375 261.901 165.875 262.527 166.475C267.717 171.342 267.954 182.085 262.685 192.084Z" stroke="black" stroke-width="2.63468" stroke-miterlimit="10"/>
<path d="M261.473 177.488C261.473 177.488 260.367 171.52 256.652 172.205C252.495 172.976 251.554 176.506 251.659 185.497C251.764 194.488 249.736 196.688 246.567 197.748" stroke="black" stroke-width="2.63468" stroke-miterlimit="10" stroke-linecap="round"/>
<path d="M137.797 205.473C144.949 201.706 145.959 189.565 140.053 178.355C134.148 167.145 123.564 161.112 116.412 164.879C109.261 168.646 108.251 180.788 114.156 191.997C120.061 203.207 130.646 209.241 137.797 205.473Z" fill="#FFD19D"/>
<path d="M115.301 166.474C116.493 168.055 118.067 169.945 119.213 172.514C122.783 180.49 123.87 188.974 124.825 204.058C128.612 205.81 135.634 207.212 138.782 205.553C139.21 205.329 139.612 205.072 139.994 204.789C138.104 194.889 135.226 180.082 132.92 168.312C127.736 164.096 121.894 162.601 117.402 164.965C116.631 165.374 115.927 165.874 115.301 166.474Z" fill="#E99F6F"/>
<path d="M137.797 205.473C144.949 201.706 145.959 189.565 140.053 178.355C134.148 167.145 123.564 161.112 116.412 164.879C109.261 168.646 108.251 180.788 114.156 191.997C120.061 203.207 130.646 209.241 137.797 205.473Z" stroke="black" stroke-width="2.63468" stroke-miterlimit="10"/>
<path d="M115.327 177.487C115.327 177.487 116.434 171.519 120.149 172.204C124.305 172.975 125.247 176.505 125.141 185.496C125.036 194.487 127.065 196.687 130.233 197.747" stroke="black" stroke-width="2.63468" stroke-miterlimit="10" stroke-linecap="round"/>
<path d="M247.365 166.673C247.365 182.711 243.36 197.564 236.549 209.736C225.846 228.877 208.187 241.366 188.223 241.366C186.115 241.366 184.033 241.227 181.985 240.951C181.116 240.839 180.253 240.701 179.396 240.536C179.179 240.496 178.962 240.45 178.744 240.404C178.474 240.351 178.211 240.299 177.947 240.233C177.849 240.213 177.75 240.193 177.657 240.167C177.335 240.101 177.012 240.022 176.689 239.936C176.287 239.844 175.892 239.739 175.504 239.627C175.306 239.574 175.108 239.522 174.917 239.462C174.621 239.377 174.325 239.291 174.028 239.192C173.475 239.028 172.935 238.843 172.395 238.652C171.986 238.514 171.578 238.362 171.176 238.211C170.741 238.046 170.307 237.875 169.879 237.697C168.95 237.315 168.034 236.907 167.132 236.472C166.776 236.301 166.414 236.123 166.065 235.938C165.676 235.747 165.294 235.543 164.912 235.332C164.57 235.148 164.227 234.964 163.891 234.766C163.634 234.621 163.384 234.476 163.134 234.325C162.798 234.134 162.475 233.929 162.146 233.725C161.909 233.58 161.678 233.435 161.441 233.277C159.043 231.743 156.738 230.004 154.545 228.074C154.215 227.791 153.899 227.501 153.577 227.211C153.254 226.915 152.924 226.612 152.608 226.302C152.286 225.999 151.969 225.689 151.653 225.373C151.337 225.057 151.021 224.741 150.711 224.418C150.402 224.095 150.092 223.773 149.789 223.437C149.48 223.107 149.183 222.778 148.88 222.436C148.287 221.777 147.714 221.105 147.155 220.42C146.852 220.051 146.555 219.682 146.259 219.3C145.975 218.938 145.692 218.576 145.416 218.207C145.178 217.891 144.935 217.561 144.691 217.239C144.375 216.797 144.059 216.356 143.749 215.908C143.631 215.737 143.512 215.559 143.393 215.388C143.393 215.388 143.389 215.383 143.38 215.375C143.255 215.19 143.13 214.999 143.005 214.815C142.748 214.426 142.491 214.031 142.234 213.636C141.984 213.247 141.734 212.845 141.49 212.444C141.24 212.042 140.996 211.64 140.759 211.232C140.515 210.823 140.278 210.415 140.047 210C139.81 209.585 139.58 209.17 139.356 208.748C138.664 207.49 138.012 206.199 137.4 204.882C137.241 204.553 137.09 204.217 136.932 203.881C136.682 203.334 136.438 202.781 136.201 202.221C136.01 201.773 135.819 201.319 135.634 200.864C135.443 200.41 135.265 199.955 135.088 199.494C134.91 199.033 134.732 198.565 134.561 198.104C134.389 197.637 134.225 197.169 134.06 196.695C133.895 196.227 133.731 195.753 133.579 195.279C133.421 194.804 133.27 194.324 133.118 193.843C132.815 192.881 132.539 191.913 132.275 190.931C132.005 189.95 131.755 188.962 131.524 187.961C131.458 187.684 131.399 187.408 131.333 187.131C131.294 186.953 131.254 186.775 131.215 186.597C131.195 186.532 131.182 186.459 131.169 186.393C131.063 185.912 130.964 185.425 130.866 184.938C130.767 184.43 130.668 183.923 130.576 183.409C130.484 182.902 130.398 182.388 130.312 181.868C130.227 181.354 130.148 180.834 130.069 180.32C129.91 179.28 129.779 178.232 129.667 177.178C129.621 176.75 129.575 176.322 129.528 175.887L129.449 174.998C129.417 174.675 129.39 174.359 129.37 174.037C129.278 172.917 129.212 171.79 129.166 170.658C129.146 170.302 129.133 169.946 129.127 169.584C129.114 169.215 129.107 168.846 129.1 168.477C129.087 167.878 129.081 167.279 129.081 166.673C129.081 166.067 129.087 165.415 129.1 164.789C129.107 164.282 129.12 163.774 129.14 163.267C129.146 163.129 129.153 162.997 129.16 162.866C129.179 162.339 129.199 161.812 129.232 161.291C129.298 160.158 129.377 159.039 129.482 157.919C129.673 155.87 129.924 153.842 130.246 151.846C130.398 150.904 130.563 149.962 130.74 149.033C130.839 148.513 130.945 147.999 131.05 147.486C131.05 147.479 131.057 147.466 131.057 147.453C131.175 146.906 131.294 146.359 131.419 145.819C131.524 145.358 131.63 144.904 131.742 144.443C131.794 144.238 131.847 144.028 131.9 143.823C132.249 142.447 132.631 141.09 133.039 139.753C133.118 139.496 133.197 139.246 133.276 138.995C133.408 138.58 133.54 138.165 133.678 137.757C133.849 137.237 134.027 136.716 134.212 136.196C134.429 135.577 134.66 134.964 134.89 134.352C135.042 133.943 135.2 133.535 135.364 133.133C135.522 132.738 135.68 132.343 135.845 131.948C136.109 131.328 136.372 130.709 136.642 130.097C136.853 129.622 137.07 129.155 137.288 128.687C137.492 128.252 137.703 127.818 137.913 127.383C137.953 127.304 137.999 127.218 138.032 127.139C138.249 126.698 138.473 126.263 138.697 125.829C138.941 125.354 139.191 124.893 139.441 124.432C139.698 123.958 139.968 123.484 140.232 123.009C140.482 122.568 140.739 122.133 140.996 121.705C141.714 120.506 142.465 119.334 143.235 118.188C143.459 117.852 143.69 117.523 143.92 117.193C144.151 116.864 144.382 116.535 144.619 116.212L145.33 115.244C145.798 114.625 146.278 114.005 146.766 113.406C146.792 113.38 146.812 113.353 146.832 113.327C147.056 113.044 147.293 112.761 147.523 112.484C147.543 112.464 147.556 112.444 147.569 112.425C147.734 112.227 147.899 112.036 148.063 111.845C148.143 111.746 148.228 111.654 148.314 111.555C148.841 110.949 149.374 110.356 149.914 109.77C150.165 109.5 150.421 109.23 150.685 108.96C150.955 108.677 151.225 108.4 151.495 108.13C152.279 107.34 153.083 106.576 153.899 105.844C153.959 105.792 154.018 105.739 154.071 105.686C154.334 105.456 154.597 105.219 154.867 104.995C155.157 104.745 155.447 104.494 155.737 104.257C156.323 103.77 156.909 103.295 157.509 102.834C157.812 102.604 158.108 102.38 158.411 102.156C158.444 102.13 158.484 102.103 158.517 102.077C158.787 101.879 159.05 101.688 159.327 101.497C160.545 100.621 161.797 99.8111 163.074 99.0602C163.377 98.8758 163.687 98.6979 163.997 98.52C164.023 98.5069 164.036 98.5003 164.036 98.5003C164.379 98.3027 164.728 98.1117 165.07 97.9273C165.94 97.4596 166.822 97.0183 167.705 96.6034C167.962 96.4848 168.219 96.3662 168.476 96.2477C168.996 96.0171 169.523 95.7932 170.043 95.5824C170.34 95.4572 170.636 95.3387 170.939 95.2267C171.433 95.0291 171.927 94.8513 172.421 94.6866C172.441 94.6734 172.467 94.6668 172.487 94.6602C172.849 94.5285 173.211 94.41 173.574 94.298C173.705 94.2519 173.837 94.2058 173.976 94.1662C174.364 94.0477 174.753 93.9292 175.141 93.8172C175.589 93.6921 176.037 93.5669 176.492 93.4549C176.939 93.3363 177.394 93.231 177.848 93.1322C178.277 93.0334 178.705 92.9477 179.133 92.8621C179.179 92.8489 179.232 92.8424 179.284 92.8292C179.66 92.7567 180.042 92.6908 180.424 92.6316C180.944 92.5394 181.465 92.4603 181.985 92.3945C184.033 92.1178 186.115 91.9795 188.223 91.9795C191.766 91.9795 195.244 92.3747 198.616 93.1322C204.406 94.4232 209.899 96.7812 214.978 100.042C215.215 100.193 215.445 100.345 215.676 100.503C223 105.35 229.422 112.082 234.527 120.19C235.667 121.995 236.74 123.866 237.741 125.802C242.431 134.833 245.599 145.226 246.811 156.417C246.857 156.753 246.89 157.089 246.923 157.425C246.95 157.675 246.969 157.926 246.996 158.176C247.246 160.962 247.371 163.801 247.371 166.673H247.365Z" fill="#E99F6F"/>
<path d="M234.876 166.666C234.876 171.198 234.553 175.637 233.941 179.945C233.941 179.964 233.934 179.984 233.934 180.004C231.293 198.493 223.27 214.617 211.974 225.689C203.51 233.995 193.209 239.462 181.972 240.944C181.102 240.832 180.239 240.694 179.383 240.529C179.166 240.49 178.948 240.443 178.731 240.397C178.461 240.345 178.198 240.292 177.934 240.226C177.835 240.206 177.736 240.187 177.644 240.16C177.322 240.094 176.999 240.015 176.676 239.93C176.274 239.837 175.879 239.732 175.49 239.62C175.293 239.567 175.095 239.515 174.904 239.455C174.608 239.37 174.311 239.284 174.015 239.185C173.462 239.021 172.922 238.836 172.381 238.645C171.973 238.507 171.565 238.355 171.163 238.204C170.728 238.039 170.294 237.868 169.865 237.69C168.937 237.308 168.021 236.9 167.119 236.465C166.763 236.294 166.401 236.116 166.052 235.932C165.663 235.741 165.281 235.536 164.899 235.326C164.557 235.141 164.214 234.957 163.878 234.759C163.621 234.614 163.371 234.469 163.121 234.318C162.785 234.127 162.462 233.923 162.133 233.718C161.896 233.574 161.665 233.429 161.428 233.271C159.03 231.736 156.725 229.997 154.532 228.067C154.202 227.784 153.886 227.494 153.563 227.204C153.241 226.908 152.911 226.605 152.595 226.295C152.272 225.992 151.956 225.683 151.64 225.367C151.324 225.05 151.008 224.734 150.698 224.411C150.389 224.089 150.079 223.766 149.776 223.43C149.466 223.101 149.17 222.771 148.867 222.429C148.281 221.77 147.708 221.098 147.141 220.413C146.838 220.044 146.542 219.676 146.246 219.294C145.962 218.931 145.679 218.569 145.402 218.2C145.165 217.884 144.922 217.555 144.678 217.232C144.362 216.791 144.046 216.349 143.736 215.901C143.617 215.73 143.499 215.552 143.38 215.381L143.367 215.368C143.242 215.183 143.117 214.992 142.992 214.808C142.735 214.419 142.478 214.024 142.221 213.629C141.971 213.24 141.72 212.839 141.477 212.437C141.226 212.035 140.983 211.633 140.746 211.225C140.502 210.817 140.265 210.408 140.034 209.993C139.797 209.578 139.567 209.163 139.343 208.742C138.658 207.484 138.006 206.193 137.386 204.875C137.228 204.546 137.077 204.21 136.919 203.874C136.668 203.327 136.425 202.774 136.188 202.214C135.997 201.766 135.806 201.312 135.621 200.857C135.43 200.403 135.252 199.948 135.075 199.487C134.897 199.026 134.719 198.559 134.548 198.098C134.376 197.63 134.212 197.162 134.047 196.688C133.882 196.22 133.718 195.746 133.566 195.272C133.408 194.798 133.257 194.317 133.105 193.836C132.809 192.874 132.525 191.906 132.262 190.925C131.992 189.943 131.742 188.955 131.511 187.954C131.406 187.5 131.3 187.045 131.202 186.591C131.182 186.525 131.169 186.452 131.155 186.386C131.05 185.906 130.951 185.418 130.852 184.931C130.754 184.424 130.655 183.916 130.563 183.403C130.47 182.895 130.385 182.382 130.299 181.861C130.214 181.348 130.134 180.827 130.055 180.314C129.904 179.273 129.772 178.226 129.654 177.172C129.608 176.744 129.561 176.315 129.515 175.881C129.489 175.584 129.463 175.288 129.436 174.991C129.403 174.669 129.377 174.353 129.357 174.03C129.265 172.91 129.199 171.784 129.153 170.651C129.133 170.295 129.12 169.939 129.114 169.577C129.1 169.208 129.094 168.839 129.087 168.471C129.074 167.871 129.067 167.272 129.067 166.666C129.067 166.06 129.074 165.408 129.087 164.782C129.087 164.275 129.107 163.768 129.127 163.261C129.127 163.122 129.14 162.99 129.147 162.859C129.166 162.332 129.186 161.805 129.219 161.285C129.285 160.152 129.364 159.032 129.469 157.912C129.746 154.895 130.167 151.925 130.727 149.027C130.826 148.506 130.931 147.993 131.037 147.479C131.037 147.479 131.043 147.459 131.043 147.446C131.162 146.899 131.281 146.352 131.406 145.812C131.511 145.351 131.616 144.897 131.728 144.436C131.781 144.232 131.834 144.021 131.887 143.817C132.236 142.44 132.618 141.083 133.026 139.746C133.105 139.489 133.184 139.239 133.263 138.989C133.395 138.574 133.527 138.159 133.665 137.75C133.836 137.23 134.014 136.71 134.198 136.189C134.416 135.57 134.646 134.957 134.877 134.345C135.028 133.937 135.186 133.528 135.351 133.126C135.509 132.731 135.667 132.336 135.832 131.941C136.095 131.322 136.359 130.703 136.629 130.09C136.84 129.616 137.057 129.148 137.274 128.68C137.479 128.246 137.689 127.811 137.9 127.376C137.94 127.297 137.986 127.212 138.019 127.133C138.236 126.691 138.46 126.256 138.684 125.822C138.928 125.348 139.178 124.886 139.428 124.425C139.685 123.951 139.955 123.477 140.219 123.003C140.469 122.561 140.726 122.127 140.983 121.698C141.701 120.5 142.452 119.327 143.222 118.181C143.446 117.845 143.677 117.516 143.907 117.187C144.138 116.857 144.368 116.528 144.605 116.205L145.317 115.237C145.791 114.618 146.265 114.005 146.753 113.399C146.779 113.373 146.799 113.347 146.819 113.32C147.043 113.037 147.28 112.754 147.51 112.477C147.53 112.457 147.543 112.438 147.556 112.418C147.807 112.121 148.05 111.832 148.301 111.548C148.828 110.942 149.361 110.35 149.901 109.763C150.151 109.493 150.408 109.223 150.672 108.953C150.942 108.67 151.212 108.393 151.482 108.123C152.266 107.333 153.069 106.575 153.886 105.838C153.945 105.785 154.005 105.732 154.057 105.68C154.321 105.449 154.584 105.212 154.854 104.988C155.144 104.738 155.434 104.487 155.724 104.25C156.31 103.763 156.896 103.289 157.496 102.828C157.799 102.597 158.095 102.373 158.398 102.149C158.701 101.925 159.004 101.708 159.314 101.49C160.539 100.621 161.784 99.8109 163.061 99.0534C163.378 98.8624 163.7 98.678 164.023 98.4936C164.366 98.296 164.715 98.105 165.057 97.9205C165.927 97.4529 166.809 97.0116 167.692 96.5966C167.949 96.478 168.206 96.3595 168.462 96.2409C168.983 96.0104 169.51 95.7864 170.03 95.5756C170.326 95.4505 170.623 95.3319 170.926 95.2199C171.44 95.0157 171.96 94.8313 172.474 94.6535C172.836 94.5217 173.198 94.4032 173.561 94.2913C173.692 94.2452 173.824 94.199 173.962 94.1595C174.351 94.0409 174.74 93.9224 175.128 93.8104C175.576 93.6853 176.024 93.5601 176.478 93.4481C176.926 93.3296 177.381 93.2242 177.835 93.1254C178.263 93.0266 178.692 92.941 179.12 92.8553C179.166 92.8422 179.219 92.8356 179.271 92.8224C179.647 92.75 180.029 92.6841 180.411 92.6248C180.931 92.5326 181.451 92.4536 181.972 92.3877C188.466 93.2506 194.645 95.4307 200.335 98.7241C220.715 110.514 234.876 136.499 234.876 166.666Z" fill="#FFD19D"/>
<path d="M246.804 156.417L235.06 165.612C235.06 165.612 218.943 152.636 217.665 136.084C217.665 136.084 181.761 143.461 158.734 133.541C158.734 133.541 149.875 161.442 129.66 177.178C129.614 176.75 129.568 176.322 129.522 175.887L129.443 174.998C129.41 174.675 129.383 174.359 129.364 174.036C129.271 172.916 129.205 171.79 129.159 170.657C129.14 170.302 129.126 169.946 129.12 169.584C129.107 169.215 129.1 168.846 129.094 168.477C129.08 167.878 129.074 167.278 129.074 166.672C129.074 166.066 129.08 165.414 129.094 164.789C129.1 164.281 129.113 163.774 129.133 163.267C129.14 163.129 129.146 162.997 129.153 162.865C129.173 162.338 129.192 161.811 129.225 161.291C129.291 160.158 129.37 159.038 129.476 157.919C129.667 155.87 129.917 153.841 130.24 151.846C130.391 150.904 130.556 149.962 130.734 149.033C130.832 148.513 130.938 147.999 131.043 147.485C131.043 147.479 131.05 147.465 131.05 147.452C131.168 146.906 131.287 146.359 131.412 145.819C131.517 145.358 131.623 144.903 131.735 144.442C131.787 144.238 131.84 144.027 131.893 143.823C132.242 142.446 132.624 141.09 133.032 139.752C133.111 139.496 133.19 139.245 133.269 138.995C133.401 138.58 133.533 138.165 133.671 137.757C133.843 137.236 134.02 136.716 134.205 136.196C134.422 135.577 134.653 134.964 134.883 134.351C135.035 133.943 135.193 133.535 135.357 133.133C135.516 132.738 135.674 132.342 135.838 131.947C136.102 131.328 136.365 130.709 136.635 130.096C136.846 129.622 137.063 129.154 137.281 128.687C137.485 128.252 137.696 127.817 137.907 127.383C137.946 127.304 137.992 127.218 138.025 127.139C138.242 126.698 138.466 126.263 138.69 125.828C138.934 125.354 139.184 124.893 139.435 124.432C139.692 123.958 139.962 123.483 140.225 123.009C140.475 122.568 140.732 122.133 140.989 121.705C141.707 120.506 142.458 119.334 143.229 118.188C143.452 117.852 143.683 117.522 143.914 117.193C144.144 116.864 144.375 116.534 144.612 116.212L145.323 115.243C145.791 114.624 146.272 114.005 146.759 113.406C146.785 113.379 146.805 113.353 146.825 113.327C147.049 113.043 147.286 112.76 147.516 112.484C147.536 112.464 147.549 112.444 147.563 112.424C147.727 112.227 147.892 112.036 148.057 111.845C148.136 111.746 148.221 111.654 148.307 111.555C148.834 110.949 149.367 110.356 149.907 109.77C150.158 109.5 150.415 109.23 150.678 108.96C150.948 108.676 151.218 108.4 151.488 108.13C152.272 107.339 153.076 106.575 153.892 105.844C153.952 105.791 154.011 105.739 154.064 105.686C154.327 105.456 154.591 105.218 154.861 104.994C155.15 104.744 155.44 104.494 155.73 104.257C156.316 103.769 156.903 103.295 157.502 102.834C157.805 102.603 158.101 102.38 158.404 102.156C158.437 102.129 158.477 102.103 158.51 102.077C158.78 101.879 159.043 101.688 159.32 101.497C160.538 100.621 161.79 99.8107 163.068 99.0599C163.371 98.8754 163.68 98.6975 163.99 98.5197C164.016 98.5065 164.029 98.5 164.029 98.5C164.372 98.3024 164.721 98.1114 165.063 97.927C165.933 97.4593 166.816 97.018 167.698 96.603C167.955 96.4845 168.212 96.3659 168.469 96.2473C168.989 96.0168 169.516 95.7928 170.036 95.5821C170.333 95.4569 170.629 95.3383 170.932 95.2264C171.426 95.0288 171.92 94.851 172.414 94.6863L198.61 93.1318C204.399 94.4228 209.893 96.7809 214.971 100.041C215.208 100.193 215.439 100.344 215.669 100.502C222.993 105.35 229.416 112.082 234.52 120.19C235.66 121.995 236.733 123.865 237.735 125.802C242.424 134.832 245.592 145.226 246.804 156.417Z" fill="#E99F6F"/>
<path d="M188.216 241.352C220.883 241.352 247.365 207.911 247.365 166.659C247.365 125.407 220.883 91.9658 188.216 91.9658C155.549 91.9658 129.067 125.407 129.067 166.659C129.067 207.911 155.549 241.352 188.216 241.352Z" stroke="black" stroke-width="2.63468" stroke-miterlimit="10"/>
<path d="M183.974 172.93C183.974 172.93 181.478 181.736 172.994 189.693C168.08 194.303 178.402 200.726 185.667 200.304L180.312 196.912L177.401 194.152L178.613 190.813L183.414 178.989L183.974 172.936V172.93Z" fill="#CA885E"/>
<path d="M185.39 173.759C185.39 173.759 181.478 186.636 178.375 191.694C176.188 195.258 183.322 198.94 185.851 199.513" stroke="black" stroke-width="2.63468" stroke-miterlimit="10" stroke-linecap="round"/>
<path d="M172.17 211.441C172.17 211.441 186.766 223.304 201.448 207.391" stroke="black" stroke-width="2.63468" stroke-miterlimit="10" stroke-linecap="round"/>
<path d="M208.608 175.07C212.213 175.07 215.135 172.887 215.135 170.195C215.135 167.504 212.213 165.321 208.608 165.321C205.003 165.321 202.081 167.504 202.081 170.195C202.081 172.887 205.003 175.07 208.608 175.07Z" fill="black"/>
<path d="M164.398 173.779C167.941 173.779 170.814 171.741 170.814 169.227C170.814 166.714 167.941 164.676 164.398 164.676C160.855 164.676 157.983 166.714 157.983 169.227C157.983 171.741 160.855 173.779 164.398 173.779Z" fill="black"/>
<path d="M205.552 152.306C205.552 152.306 211.289 150.244 216.855 152.892C222.414 155.533 224.015 158.378 223 159.88C221.986 161.382 217.849 158.583 212.501 158.714C207.159 158.846 203.115 159.248 202.476 156.198C201.929 153.583 205.552 152.312 205.552 152.312V152.306Z" fill="#562B21"/>
<path d="M167.672 151.983C167.672 151.983 161.955 149.869 156.362 152.451C150.777 155.039 149.15 157.865 150.145 159.38C151.139 160.895 155.309 158.135 160.65 158.319C165.992 158.504 170.03 158.945 170.702 155.902C171.275 153.294 167.665 151.983 167.665 151.983H167.672Z" fill="#562B21"/>
<path d="M169.133 152.44C169.133 152.44 163.584 149.493 157.418 151.927C151.251 154.362 149.125 157.439 149.904 159.262C150.72 161.165 155.422 158.323 160.896 159.027C166.371 159.731 170.456 160.609 171.636 157.198C172.649 154.269 169.139 152.44 169.139 152.44H169.133Z" fill="#562B21"/>
<path d="M169.133 152.44C169.133 152.44 163.584 149.493 157.418 151.927C151.251 154.362 149.125 157.439 149.904 159.262C150.72 161.165 155.422 158.323 160.896 159.027C166.371 159.731 170.456 160.609 171.636 157.198C172.649 154.269 169.139 152.44 169.139 152.44H169.133Z" stroke="black" stroke-width="2.47163" stroke-miterlimit="10"/>
<path d="M205.552 152.306C205.552 152.306 211.289 150.244 216.855 152.892C222.414 155.533 224.015 158.378 223 159.88C221.986 161.382 217.849 158.583 212.501 158.714C207.159 158.846 203.115 159.248 202.476 156.198C201.929 153.583 205.552 152.312 205.552 152.312V152.306Z" stroke="black" stroke-width="2.63468" stroke-miterlimit="10"/>
<path d="M260.432 164.973C260.432 164.973 256.177 162.489 251 164.512C249.821 164.973 248.596 165.664 247.364 166.672C247.364 166.672 227.321 147.083 223.29 122.258C223.29 122.258 190.877 140.859 153.109 121.125C153.109 121.125 152.233 124.675 150.336 130.037C146.897 139.746 140.1 155.396 129.067 166.665C129.067 166.665 127.447 165.559 125.069 164.847C122.922 164.202 120.155 163.873 117.402 164.973C117.402 164.973 94.0129 120.809 132.842 85.8005C132.842 85.8005 131.649 84.3909 130.543 82.5664C129.239 80.4323 128.06 77.7252 129.067 76.0917C130.213 74.2342 132.578 76.4671 134.238 78.4563C135.206 79.6287 135.931 80.7221 136.023 80.8539C135.95 80.7155 135.338 79.5497 134.679 78.0019C133.362 74.9325 131.834 70.3283 133.797 69.09C135.608 67.9439 137.472 71.3625 138.677 74.2935C139.481 76.2564 139.995 78.0019 139.995 78.0019C139.995 78.0019 140.001 78.0018 140.001 77.9887C140.252 77.6659 144.658 71.9882 150.672 67.3445C154.301 64.532 158.523 62.095 162.765 61.4495C174.219 59.6974 196.021 63.9919 203.82 62.0884C211.618 60.1782 236.924 58.9531 237.84 78.0019C237.84 78.0019 270.569 93.2764 260.432 164.973Z" fill="#3A1B14"/>
<path d="M251 164.511C249.821 164.972 248.596 165.664 247.364 166.672C247.364 166.672 227.321 147.083 223.29 122.257C223.29 122.257 190.877 140.858 153.109 121.125C153.109 121.125 152.233 124.675 150.336 130.036C146.897 139.745 140.1 155.395 129.067 166.665C129.067 166.665 127.447 165.558 125.069 164.847C122.922 164.202 120.155 163.872 117.402 164.972C117.402 164.972 94.0129 120.808 132.842 85.8001C132.842 85.8001 131.649 84.3905 130.543 82.566C129.239 80.4319 128.06 77.7248 129.067 76.0913C130.213 74.2338 132.578 76.4667 134.238 78.4559C135.206 79.6283 135.931 80.7217 136.023 80.8534C135.95 80.7151 135.338 79.5493 134.679 78.0014C133.362 74.932 131.834 70.3279 133.797 69.0896C135.608 67.9435 137.472 71.362 138.677 74.2931C139.481 76.256 139.995 78.0014 139.995 78.0014C139.995 78.0014 140.001 78.0014 140.001 77.9882C140.252 77.6655 144.658 71.9877 150.672 67.3441C151.304 67.1729 151.936 67.0346 152.575 66.9358C164.036 65.1837 183.875 71.8757 191.727 70.2027C208.615 66.6064 232.175 68.3848 233.091 87.427C233.091 87.427 258.562 97.913 251 164.511Z" fill="#562B21"/>
<path d="M247.364 166.652C247.364 166.652 227.321 147.063 223.29 122.238C223.29 122.238 190.877 140.845 153.109 121.112C153.109 121.112 146.193 149.164 129.067 166.645C129.067 166.645 123.021 162.272 117.218 164.584C117.218 164.584 94.013 120.789 132.848 85.7804C132.848 85.7804 127.203 79.095 129.067 76.0717C130.938 73.0484 136.029 80.847 136.029 80.847C136.029 80.847 130.78 70.9801 133.803 69.07C136.826 67.1599 140.001 77.9818 140.001 77.9818C140.001 77.9818 151.311 63.1815 162.765 61.4294C174.226 59.6774 196.028 63.9785 203.826 62.0683C211.625 60.1582 236.924 58.9397 237.84 77.9818C237.84 77.9818 270.569 93.2564 260.432 164.953C260.432 164.953 254.024 161.211 247.364 166.652Z" stroke="black" stroke-width="2.63468" stroke-miterlimit="10"/>
<path d="M234.277 86.4651C234.277 86.4651 238.67 84.7591 237.702 76.3545" stroke="black" stroke-width="2.63468" stroke-miterlimit="10" stroke-linecap="round"/>
<path d="M121.861 138.948C121.861 138.948 115.683 150.146 119.009 164.044" stroke="black" stroke-width="2.63468" stroke-miterlimit="10" stroke-linecap="round"/>
</g>
<rect x="1" y="1" width="368" height="370" rx="11" stroke="black" stroke-width="2"/>
<defs>
<clipPath id="clip0_476_1415">
<rect width="370" height="372" rx="12" fill="white"/>
</clipPath>
</defs>
</svg>
