<svg width="370" height="372" viewBox="0 0 370 372" fill="none" xmlns="http://www.w3.org/2000/svg">
<g clip-path="url(#clip0_476_1620)">
<rect x="-27" y="-25" width="424" height="424" fill="#FE4179"/>
<path d="M-8.67321 96.8044V274.329H22.3936C54.57 274.329 73.432 253.248 73.432 201.1V170.033C73.432 117.885 54.57 96.8044 22.3936 96.8044H-8.67321ZM23.5031 123.433H26.8317C35.4861 123.433 40.1461 129.646 40.1461 139.188V230.836C40.1461 240.377 35.4861 246.591 26.8317 246.591H23.5031V123.433ZM92.6589 96.8044L76.016 272.11V274.329H107.083L110.855 232.167H123.282L127.054 274.329H158.121V272.11L141.478 96.8044H92.6589ZM111.077 203.319L115.959 142.295H118.178L123.06 203.319H111.077ZM166.17 96.8044V274.329H197.237L193.909 185.567H196.128L214.99 274.329H243.838V96.8044H212.771L216.099 185.567H213.88L195.018 96.8044H166.17ZM255.142 96.8044V274.329H288.428V96.8044H255.142ZM299.775 96.8044V274.329H359.69V245.481H333.061V198.881H356.361V170.033H333.061V125.652H359.69V96.8044H299.775ZM369.2 96.8044V274.329H430.224V245.481H402.485V96.8044H369.2Z" fill="#D32E5F"/>
<path d="M291.023 342.287C291.109 342.761 293.266 355.55 289.72 374.029H73.4809C72.2988 357.387 76.9135 341.466 76.9135 341.466L74.6496 340.698L71.4507 339.616C79.9053 304.676 111.493 276.654 152.41 267.004C162.408 264.633 172.966 263.371 183.885 263.371C197.675 263.371 210.898 265.388 223.146 269.088C260.757 280.447 289.173 307.647 296.632 340.952L291.023 342.274V342.287Z" fill="#FFD4A0"/>
<path d="M250.366 361.58L291.891 355.877L291.023 342.287L250.199 351.743L250.366 361.58Z" fill="#ECA26F"/>
<path d="M119.46 362.923L74.1621 355.443L76.9135 341.466L119.46 351.744V362.923Z" fill="#ECA26F"/>
<path d="M296.632 340.952L291.023 342.274V342.287L270.935 346.942L250.199 351.743V374.029H119.146V352.278L74.6496 340.698L71.4507 339.616C78.8969 308.836 104.294 283.432 138.206 271.225C142.794 269.568 147.535 268.153 152.41 267.004C162.408 264.633 172.966 263.371 183.885 263.371C197.675 263.371 210.898 265.388 223.146 269.088C260.757 280.447 289.173 307.647 296.632 340.952Z" fill="#E81844"/>
<path d="M271.028 347.349L265.419 348.671V348.685L250.199 352.211V374.028H119.146V352.277L74.6496 340.698L71.4507 339.616C78.8969 308.836 104.294 283.432 138.206 271.224C144.724 270.263 151.429 269.769 158.28 269.769C172.071 269.769 185.294 271.785 197.541 275.485C234.999 286.798 263.335 313.825 270.935 346.942C270.968 347.075 270.995 347.215 271.028 347.349Z" fill="#FF385A"/>
<path d="M235.527 272.266C234.946 291.766 214.224 307.42 188.74 307.42C163.256 307.42 141.946 291.299 141.946 271.411C141.946 270.723 141.973 270.049 142.026 269.374C155.242 266.089 169.199 264.339 183.631 264.339C201.862 264.339 219.339 267.13 235.527 272.259V272.266Z" fill="#E81844"/>
<path d="M223.146 269.842C222.705 285.763 207.032 298.545 187.752 298.545C168.472 298.545 152.351 285.382 152.351 269.141C152.351 268.58 152.371 268.032 152.411 267.478C162.408 264.793 172.966 263.364 183.885 263.364C197.675 263.364 210.898 265.648 223.146 269.835V269.842Z" fill="white"/>
<path d="M223.146 269.842C222.705 285.763 207.032 298.545 187.752 298.545C168.472 298.545 152.351 285.382 152.351 269.141C152.351 268.58 152.371 268.032 152.411 267.478C162.408 264.793 172.966 263.364 183.885 263.364C197.675 263.364 210.898 265.648 223.146 269.835V269.842Z" stroke="black" stroke-width="2.67127" stroke-miterlimit="10"/>
<path d="M291.009 342.274C291.009 342.274 293.32 355.196 289.707 374.029H73.4677C72.2857 357.387 76.9003 341.466 76.9003 341.466L71.4375 339.616C81.9623 296.134 128.302 263.371 183.871 263.371C239.441 263.371 286.729 296.802 296.619 340.952L291.009 342.274Z" stroke="black" stroke-width="2.67127" stroke-miterlimit="10"/>
<path d="M76.9136 341.466L119.46 351.744V374.029" stroke="black" stroke-width="2.67127" stroke-miterlimit="10"/>
<path d="M293.614 341.659L250.199 351.743V374.028" stroke="black" stroke-width="2.67127" stroke-miterlimit="10"/>
<path d="M125.204 332.771H243.594" stroke="white" stroke-width="2.67127" stroke-miterlimit="10" stroke-linecap="round"/>
<path d="M125.204 345.52H243.594" stroke="white" stroke-width="2.67127" stroke-miterlimit="10" stroke-linecap="round"/>
<path d="M213.462 280.587C198.617 289.169 172.158 285.015 162.635 277.535C161.947 276.994 163.363 262.563 163.363 262.563L164.892 231.155H210.07L211.512 243.143L212.761 270.376L213.462 280.587Z" fill="#FFD4A0"/>
<path d="M211.512 245.126C204.2 262.449 176.96 266.069 161.914 266.717L164.892 231.155H210.07L211.512 245.126Z" fill="#ECA26F"/>
<path d="M162.635 277.542L164.892 231.155H210.07L213.462 280.587C213.462 280.587 187.084 295.399 162.635 277.535V277.542Z" stroke="black" stroke-width="2.67127" stroke-miterlimit="10"/>
<path d="M263.689 183.266C260.343 189.624 255.508 194.339 250.626 196.582C246.786 198.359 242.913 198.606 239.721 196.923C239.287 196.696 238.879 196.435 238.492 196.148C232.368 191.641 231.794 180.121 237.43 169.429C239.654 165.202 242.546 161.696 245.664 159.165C250.92 154.89 256.844 153.375 261.398 155.772C262.18 156.186 262.894 156.694 263.529 157.301C268.791 162.236 269.031 173.129 263.689 183.266Z" fill="#FFD4A0"/>
<path d="M263.529 157.301C262.32 158.904 260.951 160.934 259.562 163.425C255.635 170.497 251.595 181.289 250.626 196.582C246.787 198.359 242.913 198.606 239.721 196.923C239.287 196.696 238.88 196.435 238.492 196.148C240.409 186.111 243.327 171.098 245.665 159.165C250.92 154.89 256.844 153.375 261.398 155.772C262.18 156.186 262.894 156.694 263.529 157.301Z" fill="#ECA26F"/>
<path d="M263.689 183.266C260.343 189.624 255.508 194.339 250.626 196.582C246.786 198.359 242.913 198.606 239.721 196.923C239.287 196.696 238.879 196.435 238.492 196.148C232.368 191.641 231.794 180.121 237.43 169.429C239.654 165.202 242.546 161.696 245.664 159.165C250.92 154.89 256.844 153.375 261.398 155.772C262.18 156.186 262.894 156.694 263.529 157.301C268.791 162.236 269.031 173.129 263.689 183.266Z" stroke="black" stroke-width="2.67127" stroke-miterlimit="10"/>
<path d="M262.46 168.467C262.46 168.467 261.338 162.417 257.572 163.111C253.358 163.893 252.75 166.23 252.663 170.738C252.49 179.853 250.313 182.745 245.645 184.161" stroke="black" stroke-width="2.67127" stroke-miterlimit="10" stroke-linecap="round"/>
<path d="M137 196.865C144.251 193.046 145.275 180.736 139.288 169.37C133.3 158.004 122.569 151.887 115.318 155.707C108.067 159.527 107.043 171.837 113.03 183.202C119.018 194.568 129.749 200.685 137 196.865Z" fill="#FFD4A0"/>
<path d="M114.258 157.301C115.467 158.904 117.063 160.821 118.225 163.425C121.844 171.512 122.946 180.114 123.915 195.407C127.754 197.183 134.873 198.606 138.066 196.923C138.5 196.696 138.907 196.435 139.294 196.148C137.378 186.111 134.459 171.098 132.122 159.165C126.866 154.89 120.943 153.375 116.388 155.772C115.607 156.186 114.892 156.694 114.258 157.301Z" fill="#ECA26F"/>
<path d="M137 196.865C144.251 193.046 145.275 180.736 139.288 169.37C133.3 158.004 122.569 151.887 115.318 155.707C108.067 159.527 107.043 171.837 113.03 183.202C119.018 194.568 129.749 200.685 137 196.865Z" stroke="black" stroke-width="2.67127" stroke-miterlimit="10"/>
<path d="M114.285 168.467C114.285 168.467 115.447 162.229 119.173 163.111C121.905 163.759 122.973 165.508 123.227 170.757C123.661 179.86 126.312 183.025 129.524 184.1" stroke="black" stroke-width="2.67127" stroke-miterlimit="10" stroke-linecap="round"/>
<path d="M248.149 157.495C248.149 173.757 244.088 188.816 237.183 201.157H237.177C226.325 220.564 208.42 233.226 188.179 233.226C186.042 233.226 183.931 233.086 181.855 232.805C180.973 232.692 180.098 232.551 179.23 232.384C179.01 232.344 178.789 232.298 178.569 232.251C178.295 232.197 178.028 232.144 177.761 232.077C177.661 232.057 177.56 232.037 177.467 232.01C177.14 231.944 176.812 231.863 176.485 231.777C176.078 231.683 175.677 231.576 175.283 231.463C175.083 231.409 174.882 231.356 174.689 231.296C174.388 231.209 174.088 231.122 173.787 231.022C173.226 230.855 172.679 230.668 172.131 230.474C171.717 230.334 171.303 230.181 170.896 230.027C170.455 229.86 170.014 229.686 169.58 229.506C168.638 229.119 167.71 228.705 166.795 228.264C166.435 228.09 166.067 227.91 165.713 227.723C165.319 227.529 164.932 227.322 164.545 227.109C164.197 226.922 163.85 226.735 163.51 226.534C163.249 226.387 162.995 226.24 162.742 226.087C162.401 225.893 162.074 225.686 161.74 225.479C161.499 225.332 161.266 225.185 161.025 225.025C158.594 223.469 156.257 221.706 154.033 219.749C153.699 219.462 153.379 219.168 153.052 218.874C152.724 218.574 152.39 218.267 152.07 217.953C151.743 217.646 151.422 217.332 151.101 217.011C150.781 216.691 150.46 216.37 150.146 216.043C149.833 215.716 149.519 215.388 149.212 215.048C148.898 214.714 148.597 214.38 148.29 214.033C147.689 213.365 147.108 212.684 146.54 211.989C146.233 211.615 145.933 211.241 145.632 210.854C145.345 210.487 145.058 210.119 144.777 209.745C144.537 209.425 144.29 209.091 144.043 208.764C143.722 208.316 143.402 207.869 143.088 207.415C142.967 207.241 142.847 207.061 142.727 206.887L142.714 206.874C142.587 206.687 142.46 206.493 142.333 206.306C142.073 205.912 141.812 205.511 141.552 205.111C141.298 204.717 141.044 204.309 140.797 203.902C140.543 203.495 140.296 203.087 140.056 202.673C139.809 202.259 139.568 201.845 139.335 201.424C139.094 201.004 138.86 200.583 138.633 200.155C137.932 198.88 137.271 197.571 136.65 196.235C136.49 195.901 136.336 195.561 136.176 195.22C135.922 194.666 135.675 194.105 135.434 193.537C135.241 193.083 135.047 192.622 134.86 192.162C134.667 191.701 134.486 191.24 134.306 190.773C134.126 190.305 133.945 189.831 133.772 189.363C133.598 188.889 133.431 188.415 133.264 187.934C133.097 187.46 132.93 186.979 132.777 186.499C132.616 186.018 132.463 185.53 132.309 185.043C132.002 184.068 131.721 183.086 131.454 182.091C131.18 181.096 130.927 180.094 130.693 179.079C130.586 178.618 130.479 178.157 130.379 177.697C130.359 177.63 130.346 177.556 130.332 177.49C130.225 177.002 130.125 176.508 130.025 176.014C129.925 175.5 129.825 174.985 129.731 174.464C129.638 173.95 129.551 173.429 129.464 172.902C129.377 172.381 129.297 171.853 129.217 171.332C129.057 170.277 128.923 169.215 128.81 168.147C128.763 167.713 128.716 167.279 128.669 166.838C128.643 166.537 128.616 166.237 128.589 165.936C128.556 165.609 128.529 165.289 128.509 164.961C128.416 163.826 128.349 162.684 128.302 161.536C128.282 161.175 128.269 160.814 128.262 160.447C128.249 160.073 128.242 159.699 128.235 159.325C128.222 158.717 128.215 158.11 128.215 157.495C128.215 156.881 128.222 156.22 128.235 155.585C128.235 155.071 128.255 154.557 128.275 154.043C128.275 153.902 128.289 153.769 128.295 153.635C128.316 153.101 128.336 152.567 128.369 152.039C128.436 150.89 128.516 149.755 128.623 148.62C128.816 146.543 129.07 144.486 129.397 142.463C129.551 141.508 129.718 140.553 129.898 139.611C129.998 139.083 130.105 138.563 130.212 138.042C130.212 138.042 130.219 138.022 130.219 138.008C130.339 137.454 130.459 136.9 130.586 136.352C130.693 135.885 130.8 135.424 130.913 134.956C130.967 134.749 131.02 134.536 131.074 134.329C131.428 132.933 131.815 131.557 132.229 130.201C132.309 129.941 132.389 129.687 132.469 129.433C132.603 129.013 132.736 128.592 132.877 128.178C133.05 127.65 133.231 127.123 133.418 126.595C133.638 125.968 133.872 125.346 134.106 124.725C134.259 124.311 134.419 123.897 134.586 123.49C134.747 123.089 134.907 122.689 135.074 122.288C135.341 121.66 135.608 121.032 135.882 120.411C136.096 119.93 136.316 119.456 136.536 118.982C136.743 118.541 136.957 118.101 137.171 117.66C137.211 117.58 137.258 117.493 137.291 117.413C137.511 116.965 137.738 116.525 137.965 116.084C138.213 115.603 138.466 115.136 138.72 114.668C138.981 114.187 139.254 113.706 139.522 113.226C139.775 112.778 140.036 112.337 140.296 111.903C141.024 110.688 141.785 109.499 142.567 108.337C142.794 107.997 143.028 107.663 143.261 107.329C143.495 106.995 143.729 106.661 143.969 106.334L144.69 105.352C145.165 104.724 145.652 104.096 146.146 103.489C146.173 103.462 146.193 103.435 146.213 103.409C146.44 103.121 146.681 102.834 146.914 102.554C146.934 102.534 146.948 102.514 146.961 102.494C147.128 102.293 147.295 102.1 147.462 101.906C147.542 101.806 147.629 101.712 147.716 101.612C148.25 100.998 148.791 100.397 149.338 99.8024C149.592 99.5286 149.853 99.2548 150.12 98.981C150.394 98.6938 150.667 98.4133 150.941 98.1395C151.736 97.3382 152.551 96.5635 153.379 95.8222C153.439 95.7688 153.499 95.7154 153.552 95.6619C153.82 95.4282 154.087 95.1878 154.36 94.9607C154.654 94.707 154.948 94.4532 155.242 94.2128C155.836 93.7186 156.431 93.2378 157.038 92.7703C157.346 92.5366 157.646 92.3095 157.953 92.0824C157.987 92.0557 158.027 92.029 158.06 92.0023C158.334 91.802 158.601 91.6083 158.882 91.4146C160.117 90.5264 161.386 89.705 162.681 88.9437C163.002 88.75 163.329 88.563 163.656 88.376C164.004 88.1757 164.358 87.982 164.705 87.795C165.586 87.3209 166.481 86.8735 167.376 86.4527C167.637 86.3325 167.897 86.2123 168.158 86.0921C168.685 85.8584 169.219 85.6313 169.747 85.4176C170.048 85.2907 170.348 85.1705 170.655 85.057C171.176 84.85 171.704 84.663 172.225 84.4827C172.592 84.3491 172.959 84.2289 173.326 84.1154C173.46 84.0686 173.594 84.0219 173.734 83.9818C174.128 83.8616 174.522 83.7414 174.916 83.6279C175.37 83.501 175.824 83.3741 176.285 83.2606C176.739 83.1404 177.2 83.0335 177.661 82.9333C178.095 82.8332 178.529 82.7463 178.963 82.6595C179.01 82.6462 179.063 82.6395 179.116 82.6261C179.497 82.5527 179.884 82.4859 180.272 82.4258C180.799 82.3323 181.327 82.2522 181.855 82.1854C183.931 81.9049 186.042 81.7646 188.179 81.7646C197.942 81.7646 207.158 84.7097 215.306 89.9387C223.026 94.8873 229.784 101.886 235.126 110.367C243.28 123.303 248.149 139.678 248.149 157.495Z" fill="#ECA26F"/>
<path d="M235.494 157.495C235.494 162.09 235.166 166.591 234.545 170.959C234.545 170.979 234.539 170.999 234.539 171.019C231.861 189.764 223.727 206.113 212.274 217.339C203.692 225.76 193.248 231.303 181.855 232.805C180.973 232.692 180.098 232.551 179.23 232.385C179.01 232.344 178.789 232.298 178.569 232.251C178.295 232.198 178.028 232.144 177.761 232.077C177.661 232.057 177.56 232.037 177.467 232.011C177.14 231.944 176.812 231.864 176.485 231.777C176.078 231.683 175.677 231.576 175.283 231.463C175.083 231.41 174.882 231.356 174.689 231.296C174.388 231.209 174.088 231.122 173.787 231.022C173.226 230.855 172.679 230.668 172.131 230.475C171.717 230.334 171.303 230.181 170.896 230.027C170.455 229.86 170.014 229.687 169.58 229.506C168.638 229.119 167.71 228.705 166.795 228.264C166.435 228.09 166.067 227.91 165.713 227.723C165.319 227.529 164.932 227.322 164.545 227.109C164.197 226.922 163.85 226.735 163.51 226.534C163.249 226.388 162.995 226.241 162.742 226.087C162.401 225.893 162.074 225.686 161.74 225.479C161.499 225.332 161.266 225.185 161.025 225.025C158.594 223.469 156.257 221.706 154.033 219.749C153.699 219.462 153.379 219.168 153.052 218.875C152.724 218.574 152.39 218.267 152.07 217.953C151.743 217.646 151.422 217.332 151.101 217.011C150.781 216.691 150.46 216.37 150.146 216.043C149.833 215.716 149.519 215.389 149.212 215.048C148.898 214.714 148.597 214.38 148.29 214.033C147.696 213.365 147.115 212.684 146.54 211.989C146.233 211.615 145.933 211.241 145.632 210.854C145.345 210.487 145.058 210.119 144.777 209.745C144.537 209.425 144.29 209.091 144.043 208.764C143.722 208.316 143.402 207.869 143.088 207.415C142.967 207.241 142.847 207.061 142.727 206.887L142.714 206.874C142.587 206.687 142.46 206.493 142.333 206.306C142.073 205.912 141.812 205.512 141.552 205.111C141.298 204.717 141.044 204.309 140.797 203.902C140.543 203.495 140.296 203.087 140.056 202.673C139.809 202.259 139.568 201.845 139.335 201.424C139.094 201.004 138.86 200.583 138.633 200.156C137.939 198.88 137.278 197.571 136.65 196.236C136.49 195.902 136.336 195.561 136.176 195.22C135.922 194.666 135.675 194.105 135.434 193.538C135.241 193.083 135.047 192.623 134.86 192.162C134.667 191.701 134.486 191.24 134.306 190.773C134.126 190.305 133.945 189.831 133.772 189.364C133.598 188.89 133.431 188.415 133.264 187.935C133.097 187.46 132.93 186.98 132.777 186.499C132.616 186.018 132.463 185.53 132.309 185.043C132.009 184.068 131.721 183.086 131.454 182.091C131.18 181.096 130.927 180.094 130.693 179.079C130.586 178.618 130.479 178.158 130.379 177.697C130.359 177.63 130.346 177.557 130.332 177.49C130.225 177.002 130.125 176.508 130.025 176.014C129.925 175.5 129.825 174.986 129.731 174.465C129.638 173.95 129.551 173.43 129.464 172.902C129.377 172.381 129.297 171.853 129.217 171.333C129.063 170.277 128.93 169.216 128.81 168.147C128.763 167.713 128.716 167.279 128.669 166.838C128.643 166.538 128.616 166.237 128.589 165.937C128.556 165.609 128.529 165.289 128.509 164.962C128.416 163.826 128.349 162.684 128.302 161.536C128.282 161.175 128.269 160.814 128.262 160.447C128.249 160.073 128.242 159.699 128.235 159.325C128.222 158.718 128.215 158.11 128.215 157.495C128.215 156.881 128.222 156.22 128.235 155.585C128.235 155.071 128.255 154.557 128.275 154.043C128.275 153.903 128.289 153.769 128.295 153.635C128.316 153.101 128.336 152.567 128.369 152.039C128.436 150.891 128.516 149.755 128.623 148.62C128.903 145.561 129.331 142.55 129.898 139.611C129.998 139.084 130.105 138.563 130.212 138.042C130.212 138.042 130.219 138.022 130.219 138.008C130.339 137.454 130.459 136.9 130.586 136.352C130.693 135.885 130.8 135.424 130.913 134.957C130.967 134.75 131.02 134.536 131.074 134.329C131.428 132.933 131.815 131.557 132.229 130.202C132.309 129.941 132.389 129.687 132.469 129.434C132.603 129.013 132.736 128.592 132.877 128.178C133.05 127.651 133.231 127.123 133.418 126.595C133.638 125.968 133.872 125.347 134.106 124.726C134.259 124.312 134.419 123.897 134.586 123.49C134.747 123.089 134.907 122.689 135.074 122.288C135.341 121.66 135.608 121.033 135.882 120.411C136.096 119.931 136.316 119.456 136.536 118.982C136.743 118.542 136.957 118.101 137.171 117.66C137.211 117.58 137.258 117.493 137.291 117.413C137.511 116.966 137.738 116.525 137.965 116.084C138.213 115.603 138.466 115.136 138.72 114.668C138.981 114.187 139.254 113.707 139.522 113.226C139.775 112.778 140.036 112.338 140.296 111.903C141.024 110.688 141.785 109.499 142.567 108.337C142.794 107.997 143.028 107.663 143.261 107.329C143.495 106.995 143.729 106.661 143.969 106.334L144.69 105.352C145.171 104.724 145.652 104.103 146.146 103.489C146.173 103.462 146.193 103.436 146.213 103.409C146.44 103.122 146.681 102.834 146.914 102.554C146.934 102.534 146.948 102.514 146.961 102.494C147.215 102.193 147.462 101.9 147.716 101.612C148.25 100.998 148.791 100.397 149.338 99.8026C149.592 99.5288 149.853 99.255 150.12 98.9812C150.394 98.694 150.667 98.4135 150.941 98.1397C151.736 97.3383 152.551 96.5704 153.379 95.8224C153.439 95.769 153.499 95.7155 153.552 95.6621C153.82 95.4284 154.087 95.188 154.36 94.9609C154.654 94.7071 154.948 94.4534 155.242 94.213C155.836 93.7188 156.431 93.2379 157.038 92.7705C157.346 92.5367 157.646 92.3097 157.953 92.0826C158.26 91.8556 158.568 91.6352 158.882 91.4148C160.124 90.5333 161.386 89.7119 162.681 88.9439C163.002 88.7502 163.329 88.5632 163.656 88.3762C164.004 88.1759 164.358 87.9822 164.705 87.7952C165.586 87.3211 166.481 86.8736 167.376 86.4529C167.637 86.3327 167.897 86.2125 168.158 86.0923C168.685 85.8586 169.219 85.6315 169.747 85.4178C170.048 85.2909 170.348 85.1707 170.655 85.0572C171.176 84.8501 171.704 84.6632 172.225 84.4828C172.592 84.3493 172.959 84.2291 173.326 84.1155C173.46 84.0688 173.594 84.022 173.734 83.982C174.128 83.8618 174.522 83.7416 174.916 83.628C175.37 83.5012 175.824 83.3743 176.285 83.2607C176.739 83.1405 177.2 83.0337 177.661 82.9335C178.095 82.8333 178.529 82.7465 178.963 82.6597C179.01 82.6463 179.063 82.6397 179.116 82.6263C179.497 82.5528 179.884 82.4861 180.272 82.426C180.799 82.3325 181.327 82.2523 181.855 82.1855C188.439 83.0604 194.703 85.2709 200.473 88.61C221.136 100.564 235.494 126.909 235.494 157.495Z" fill="#FFD4A0"/>
<path d="M188.185 233.219C221.306 233.219 248.155 199.313 248.155 157.488C248.155 115.664 221.306 81.7578 188.185 81.7578C155.065 81.7578 128.215 115.664 128.215 157.488C128.215 199.313 155.065 233.219 188.185 233.219Z" stroke="black" stroke-width="2.67127" stroke-miterlimit="10"/>
<path d="M184.372 163.839C184.372 163.839 181.347 172.768 172.746 180.835C167.764 185.51 178.229 192.021 185.595 191.593L179.043 186.912L177.808 183.8L180.305 178.651L183.311 169.983L184.372 163.846V163.839Z" fill="#ECA26F"/>
<path d="M237.177 151.324C237.097 151.745 229.55 157.488 229.55 157.488C229.55 157.488 224.268 122.321 218.785 114.715C218.785 114.715 208.574 115.736 187.745 127.189C187.745 127.189 169.086 115.897 155.129 115.776C155.129 115.776 147.208 141.287 146.888 153.168C146.888 153.168 140.684 148.934 139.295 150.002C139.295 150.002 136.937 163.332 136.617 170.758L130.152 167.766C130.152 167.766 126.78 129.407 127.02 127.577C127.26 125.747 145.973 92.5029 145.973 92.5029H206.323L236.896 103.796L248.489 134.936L238.492 157.488L237.177 151.324Z" fill="#ECA26F"/>
<path d="M254.9 134.549C253.331 156.514 243.995 170.318 243.701 170.738C244.275 168.261 244.329 165.202 244.075 161.956C243.174 150.751 238.492 137.254 238.492 137.254C236.295 141.081 233.53 145.862 233.53 145.862C233.691 137.975 224.241 106.107 224.241 106.107C206.824 106.267 186.803 121.7 186.803 121.7C172.592 112.237 151.255 107.289 151.255 107.289C149.772 110.341 147.542 118.789 146.527 121.68C141.972 134.589 141.612 145.027 141.612 145.027L135.929 141.808L135.481 141.555C134.8 145.488 134.259 149.542 133.838 153.282C132.837 161.997 132.469 169.035 132.469 169.035C130.873 168.588 128.609 166.778 126.285 163.76C121.317 157.308 116.108 145.341 116.769 129.447C117.21 118.795 121.417 104.417 130.506 91.9358C141.325 77.0768 159.062 64.9092 185.594 64.9092C238.492 64.9092 256.497 112.237 254.9 134.549Z" fill="#9D6B5D"/>
<path d="M247.568 143.05C247.053 150.303 245.684 156.667 244.075 161.956C243.173 150.75 238.492 137.254 238.492 137.254C236.295 141.08 233.53 145.862 233.53 145.862C233.69 137.975 224.241 106.107 224.241 106.107C206.824 106.267 186.803 121.7 186.803 121.7C171.45 112.023 158.434 108.557 158.434 108.557C158.434 108.557 153.305 107.816 151.248 107.289C148.984 106.968 144.944 106.32 144.944 106.32C138.713 114.661 137.144 136.051 135.922 141.808L135.474 141.554L130.205 138.042C129.404 142.676 126.733 159.492 126.278 163.759C121.31 157.308 116.101 145.341 116.762 129.447C117.203 118.795 121.41 104.417 130.499 91.9354C141.431 81.2036 157.025 73.4102 178.255 73.4102C231.153 73.4102 249.157 120.738 247.561 143.05H247.568Z" fill="#B18275"/>
<path d="M132.476 169.035C132.476 169.035 133.231 154.651 135.488 141.555L141.619 145.027C141.619 145.027 143.148 123.958 151.255 107.289C151.255 107.289 170.335 109.6 187.057 120.251C187.057 120.251 206.965 106.534 224.241 106.107C224.241 106.107 233.691 137.975 233.53 145.862C233.53 145.862 236.302 141.081 238.492 137.254C238.492 137.254 246.279 159.713 243.695 170.758C243.695 170.758 253.298 156.861 254.901 134.549C256.497 112.237 238.492 64.9092 185.594 64.9092C136.77 64.9092 117.731 106.12 116.762 129.447C115.794 152.774 127.467 167.633 132.469 169.035H132.476Z" stroke="black" stroke-width="2.67127" stroke-miterlimit="10"/>
<path d="M133.178 122.454C134.151 121.812 133.588 119.24 131.919 116.709C130.251 114.178 128.109 112.645 127.136 113.287C126.163 113.928 126.727 116.5 128.395 119.032C130.064 121.563 132.205 123.095 133.178 122.454Z" fill="#9D6B5D"/>
<path d="M131.811 131.005C132.784 130.364 132.22 127.792 130.552 125.261C128.883 122.729 126.742 121.197 125.769 121.839C124.796 122.48 125.359 125.052 127.028 127.583C128.696 130.115 130.838 131.647 131.811 131.005Z" fill="#9D6B5D"/>
<path d="M242.208 122.456C243.181 121.814 242.617 119.242 240.949 116.711C239.28 114.179 237.139 112.647 236.166 113.289C235.193 113.93 235.756 116.502 237.425 119.034C239.093 121.565 241.235 123.097 242.208 122.456Z" fill="#9D6B5D"/>
<path d="M240.841 131.007C241.814 130.366 241.25 127.794 239.582 125.263C237.913 122.731 235.772 121.199 234.799 121.841C233.825 122.482 234.389 125.054 236.058 127.585C237.726 130.117 239.868 131.649 240.841 131.007Z" fill="#9D6B5D"/>
<path d="M127.047 164.681C127.327 167.192 131.989 206.6 134.907 214.935C137.919 223.536 148.524 253.428 188.186 253.635C227.847 253.842 239.467 222.922 242.259 206.54C244.229 194.993 247 174.224 248.47 162.972C240.763 160.347 239.795 166.084 239.795 166.084C238.686 182.672 229.049 204.042 229.049 204.042C229.049 204.042 194.944 190.419 144.47 205.318C144.47 205.318 140.503 182.171 139.301 167.306C134.186 159.011 127.054 164.681 127.054 164.681H127.047Z" fill="#D26342"/>
<path d="M241.371 210.895C237.337 227.844 224.548 253.822 188.179 253.635C148.524 253.435 137.919 223.537 134.907 214.935C134.68 214.294 134.44 213.419 134.186 212.357C134.507 212.905 148.691 239.437 188.179 239.437C227.667 239.437 241.03 210.407 241.03 210.407C241.03 210.407 241.15 210.574 241.371 210.895Z" fill="#C54D30"/>
<path d="M127.067 164.681C127.347 167.192 132.009 206.6 134.927 214.935C137.939 223.536 148.544 253.428 188.206 253.635C227.867 253.842 239.487 222.922 242.279 206.54C244.249 194.993 247.02 174.224 248.49 162.972C240.783 160.347 239.815 166.084 239.815 166.084C238.706 182.672 229.069 204.042 229.069 204.042C229.069 204.042 194.964 190.419 144.49 205.318C144.49 205.318 140.523 182.171 139.321 167.306C134.206 159.011 127.074 164.681 127.074 164.681H127.067Z" stroke="black" stroke-width="2.67127" stroke-miterlimit="10"/>
<path d="M199.438 214.247C197.822 216.605 195.077 218.848 190.449 220.131C187.104 221.059 184.245 220.765 181.835 219.837C175.176 217.246 172.031 209.719 171.917 209.432C172.332 209.519 188.84 213.205 201.595 205.318C201.595 205.318 202.37 209.973 199.438 214.247Z" fill="#1C1C1C"/>
<path d="M199.438 214.247C197.822 216.605 195.077 218.849 190.449 220.131C187.103 221.059 184.245 220.765 181.834 219.837C181.801 219.61 181.788 219.389 181.788 219.162C181.788 215.242 186.376 212.063 192.039 212.063C194.944 212.063 197.568 212.905 199.438 214.247Z" fill="#EA6161"/>
<path d="M201.602 205.318C188.686 213.305 171.917 209.425 171.917 209.425C171.917 209.425 177.667 223.67 190.456 220.124C203.472 216.518 201.602 205.312 201.602 205.312V205.318Z" stroke="black" stroke-width="2.67127" stroke-miterlimit="10" stroke-linecap="round"/>
<path d="M185.321 164.682C185.321 164.682 181.354 177.737 178.209 182.866C175.991 186.479 183.224 190.212 185.788 190.793" stroke="black" stroke-width="2.67127" stroke-miterlimit="10" stroke-linecap="round"/>
<path d="M210.317 165.149C213.153 165.149 215.453 163.107 215.453 160.588C215.453 158.068 213.153 156.026 210.317 156.026C207.481 156.026 205.182 158.068 205.182 160.588C205.182 163.107 207.481 165.149 210.317 165.149Z" fill="black"/>
<path d="M162.488 164.207C165.623 164.207 168.164 162.064 168.164 159.419C168.164 156.775 165.623 154.631 162.488 154.631C159.353 154.631 156.812 156.775 156.812 159.419C156.812 162.064 159.353 164.207 162.488 164.207Z" fill="black"/>
<path d="M227.614 151.125C226.398 153.316 221.263 149.062 214.738 149.008C208.22 148.962 203.298 149.362 202.383 144.988C202.083 143.552 202.537 142.43 203.218 141.582C204.3 140.22 205.97 139.585 205.97 139.585C205.97 139.585 212.895 136.901 219.807 140.908C224.121 143.412 226.552 145.956 227.473 148.027C228.041 149.269 228.054 150.337 227.614 151.125Z" fill="#C54D30"/>
<path d="M227.473 148.027C225.443 148.334 220.962 145.342 215.499 145.302C209.128 145.255 204.287 145.629 203.218 141.582C204.3 140.22 205.97 139.585 205.97 139.585C205.97 139.585 212.895 136.901 219.807 140.908C224.121 143.412 226.552 145.956 227.473 148.027Z" fill="#D26342"/>
<path d="M205.976 139.585C205.976 139.585 212.902 136.901 219.807 140.908C226.719 144.915 228.789 149.028 227.62 151.125C226.398 153.316 221.269 149.055 214.745 149.008C208.22 148.962 203.298 149.356 202.384 144.988C201.596 141.242 205.97 139.585 205.97 139.585H205.976Z" stroke="black" stroke-width="2.67127" stroke-miterlimit="10"/>
<path d="M171.277 145.088C170.028 149.375 165.153 148.601 158.641 148.153C152.137 147.699 146.694 151.552 145.646 149.275C145.278 148.48 145.359 147.452 145.966 146.297C147.015 144.28 149.639 141.889 154.214 139.685C161.413 136.219 168.111 139.425 168.111 139.425C168.111 139.425 168.532 139.618 169.073 140.006C170.248 140.841 172.011 142.563 171.277 145.088Z" fill="#C54D30"/>
<path d="M168.919 141.542C167.67 145.822 162.795 145.054 156.284 144.6C152.117 144.313 148.384 145.789 145.966 146.297C147.015 144.28 149.639 141.889 154.214 139.685C161.413 136.219 168.111 139.425 168.111 139.425C168.111 139.425 168.532 139.618 169.073 140.006C169.12 140.48 169.079 140.994 168.919 141.542Z" fill="#D26342"/>
<path d="M171.277 145.088C170.028 149.375 165.153 148.601 158.641 148.153C152.137 147.699 146.694 151.552 145.646 149.275C145.278 148.48 145.359 147.452 145.966 146.297C147.015 144.28 149.639 141.889 154.214 139.685C161.413 136.219 168.111 139.425 168.111 139.425C168.111 139.425 168.532 139.618 169.073 140.006C170.248 140.841 172.011 142.563 171.277 145.088Z" stroke="black" stroke-width="2.67127" stroke-miterlimit="10"/>
<path opacity="0.21" d="M234.452 143.171H202.216C198.812 143.171 196.052 145.931 196.052 149.335V170.384C196.052 173.789 198.812 176.548 202.216 176.548H234.452C237.856 176.548 240.616 173.789 240.616 170.384V149.335C240.616 145.931 237.856 143.171 234.452 143.171Z" fill="#5D80C6"/>
<path opacity="0.21" d="M178.068 148.186V171.526C178.068 174.298 175.497 176.548 172.325 176.548H139.254C136.082 176.548 133.511 174.304 133.511 171.526V148.186C133.511 145.415 136.082 143.164 139.254 143.164H172.325C173.888 143.164 175.297 143.705 176.332 144.593C177.4 145.501 178.068 146.777 178.068 148.186Z" fill="#5D80C6"/>
<path opacity="0.5" d="M166.214 143.171L142.54 176.548H139.254C136.082 176.548 133.511 174.304 133.511 171.526V160.434L144.043 143.164H166.221L166.214 143.171Z" fill="white"/>
<path opacity="0.5" d="M178.068 148.186V157.174L164.979 176.541H155.329L176.332 144.593C177.4 145.501 178.068 146.777 178.068 148.186Z" fill="white"/>
<path opacity="0.5" d="M207.906 176.548L231.58 143.171H234.866C238.038 143.171 240.609 145.415 240.609 148.193V159.285L230.078 176.555H207.899L207.906 176.548Z" fill="white"/>
<path opacity="0.5" d="M196.052 171.526V162.538L209.141 143.171H218.791L197.789 175.119C196.72 174.211 196.052 172.936 196.052 171.526Z" fill="white"/>
<path d="M234.452 143.171H202.216C198.812 143.171 196.052 145.931 196.052 149.335V170.384C196.052 173.789 198.812 176.548 202.216 176.548H234.452C237.856 176.548 240.616 173.789 240.616 170.384V149.335C240.616 145.931 237.856 143.171 234.452 143.171Z" stroke="#64022E" stroke-width="2.67127" stroke-miterlimit="10"/>
<path d="M178.068 148.186V171.526C178.068 174.298 175.497 176.548 172.325 176.548H139.254C136.516 176.548 134.226 174.879 133.651 172.635C133.558 172.274 133.511 171.907 133.511 171.526V148.186C133.511 145.528 135.889 143.338 138.887 143.177C139.014 143.177 139.128 143.164 139.254 143.164H172.325C175.497 143.164 178.068 145.415 178.068 148.186Z" stroke="#64022E" stroke-width="2.67127" stroke-miterlimit="10"/>
<path d="M178.068 160.647C178.068 160.647 180.225 157.942 186.776 157.942C193.695 157.942 196.052 160.961 196.052 160.961" stroke="#64022E" stroke-width="2.67127" stroke-miterlimit="10" stroke-linecap="round"/>
</g>
<rect x="1" y="1" width="368" height="370" rx="11" stroke="black" stroke-width="2"/>
<defs>
<clipPath id="clip0_476_1620">
<rect width="370" height="372" rx="12" fill="white"/>
</clipPath>
</defs>
</svg>
