<svg width="20" height="18" viewBox="0 0 20 18" fill="none" xmlns="http://www.w3.org/2000/svg">
<path fill-rule="evenodd" clip-rule="evenodd" d="M14.939 0C16.28 0 17.57 0.53 18.519 1.481C19.469 2.43 20 3.71 20 5.05V12.95C20 15.74 17.73 18 14.939 18H5.06C2.269 18 0 15.74 0 12.95V5.05C0 2.26 2.259 0 5.06 0H14.939ZM16.53 6.5401L16.61 6.4601C16.849 6.1701 16.849 5.7501 16.599 5.4601C16.46 5.3111 16.269 5.2201 16.07 5.2001C15.86 5.1891 15.66 5.2601 15.509 5.4001L11 9.0001C10.42 9.4811 9.58902 9.4811 9.00002 9.0001L4.50002 5.4001C4.18902 5.1701 3.75902 5.2001 3.50002 5.4701C3.23002 5.7401 3.20002 6.1701 3.42902 6.4701L3.56002 6.6001L8.11001 10.1501C8.67002 10.5901 9.34902 10.8301 10.06 10.8301C10.769 10.8301 11.46 10.5901 12.019 10.1501L16.53 6.5401Z" fill="#FE3693"/>
</svg>
