<svg width="208" height="208" viewBox="0 0 208 208" fill="none" xmlns="http://www.w3.org/2000/svg">
<path d="M194.146 107.237L194.276 105.261L204.723 105.947L204.415 110.647C204.288 112.578 202.909 113.66 200.978 113.533C199.032 113.405 197.822 112.153 197.948 110.222L198.127 107.498L194.146 107.237ZM202.872 107.81L199.834 107.61L199.667 110.155C199.616 110.918 200.005 111.41 200.768 111.46L201.457 111.505C202.22 111.555 202.655 111.118 202.705 110.354L202.872 107.81Z" fill="#262626"/>
<path d="M192.136 123.214L193.302 117.222L203.579 119.223L203.201 121.166L194.647 119.501L193.858 123.549L192.136 123.214Z" fill="#262626"/>
<path d="M188.373 136.087L189.029 134.14L191.828 134.197L193.016 130.672L190.749 129.037L191.391 127.133L200.192 133.803L199.406 136.134L188.373 136.087ZM193.587 134.284L198.098 134.379L198.122 134.308L194.469 131.668L193.587 134.284Z" fill="#262626"/>
<path d="M184.631 144.466L185.53 142.685L189.2 144.536L196.493 144.199L195.493 146.181L190.454 146.345L190.441 146.372L193.331 150.467L192.359 152.396L188.315 146.324L184.631 144.466Z" fill="#262626"/>
<path d="M173.97 160.987L180.13 161.892L182.502 162.411L182.53 162.376L176.646 157.653L177.819 156.191L185.985 162.744L184.623 164.44L178.464 163.536L176.092 163.017L176.063 163.052L181.948 167.774L180.774 169.237L172.609 162.683L173.97 160.987Z" fill="#262626"/>
<path d="M165.659 169.687C167.676 167.826 170.282 167.972 172.683 170.573C175.084 173.175 175.022 175.783 173.005 177.645C170.977 179.517 168.383 179.361 165.982 176.759C163.58 174.158 163.631 171.559 165.659 169.687ZM166.85 170.977C165.748 171.994 165.764 173.428 166.975 174.74L168.074 175.93C169.285 177.242 170.713 177.373 171.815 176.356C172.917 175.338 172.9 173.905 171.689 172.593L170.59 171.403C169.38 170.091 167.952 169.96 166.85 170.977Z" fill="#262626"/>
<path d="M155.872 178.008L157.756 176.779L165.509 184.223L163.851 185.305L160.24 181.66L157.946 179.323L157.909 179.348L159.033 182.446L160.772 187.311L158.937 188.507L155.188 184.953L152.82 182.665L152.782 182.69L153.982 185.739L155.834 190.53L154.25 191.563L150.631 181.423L152.504 180.203L156.645 184.111L158.692 186.071L158.717 186.054L157.776 183.374L155.872 178.008Z" fill="#262626"/>
<path d="M101.458 194.515L103.435 194.622L102.87 205.077L98.1667 204.823C96.2345 204.718 95.1367 203.352 95.2412 201.42C95.3465 199.473 96.5844 198.248 98.5166 198.352L101.243 198.5L101.458 194.515ZM100.986 203.248L101.15 200.207L98.604 200.069C97.8401 200.028 97.3531 200.422 97.3118 201.186L97.2745 201.875C97.2332 202.639 97.6757 203.069 98.4396 203.11L100.986 203.248Z" fill="#262626"/>
<path d="M85.393 192.676L91.3985 193.774L89.5156 204.073L87.5678 203.717L89.1352 195.144L85.0774 194.403L85.393 192.676Z" fill="#262626"/>
<path d="M72.4143 189.031L74.369 189.666L74.3437 192.465L77.8821 193.613L79.491 191.328L81.4028 191.949L74.8322 200.824L72.4924 200.064L72.4143 189.031ZM74.2771 194.225L74.2322 198.737L74.3036 198.76L76.9023 195.077L74.2771 194.225Z" fill="#262626"/>
<path d="M64.1471 185.441L65.9415 186.313L64.1454 190.009L64.5906 197.297L62.5938 196.326L62.3554 191.291L62.3284 191.278L58.2764 194.229L56.3336 193.285L62.3444 189.151L64.1471 185.441Z" fill="#262626"/>
<path d="M47.4552 174.937L46.6181 181.107L46.125 183.484L46.1604 183.512L50.8183 177.577L52.2933 178.734L45.8296 186.971L44.1186 185.628L44.9557 179.459L45.4489 177.081L45.4135 177.053L40.7555 182.989L39.2805 181.831L45.7442 173.595L47.4552 174.937Z" fill="#262626"/>
<path d="M38.6861 166.747C40.5699 168.744 40.4517 171.351 37.8768 173.78C35.302 176.209 32.6926 176.176 30.8088 174.179C28.9148 172.172 29.0433 169.576 31.6182 167.146C34.193 164.717 36.7921 164.74 38.6861 166.747ZM37.4096 167.951C36.3802 166.86 34.9468 166.893 33.6485 168.118L32.4701 169.23C31.1718 170.455 31.056 171.884 32.0854 172.975C33.1147 174.066 34.5482 174.033 35.8465 172.808L37.0248 171.697C38.3232 170.472 38.439 169.042 37.4096 167.951Z" fill="#262626"/>
<path d="M30.3428 157.165L31.599 159.032L24.2692 166.893L23.1638 165.25L26.7549 161.586L29.058 159.259L29.0329 159.222L25.951 160.392L21.1121 162.201L19.8894 160.384L23.3885 156.583L25.6413 154.182L25.6162 154.144L22.5845 155.389L17.821 157.311L16.7658 155.743L26.8507 151.976L28.0985 153.83L24.2517 158.027L22.322 160.103L22.3387 160.128L25.0054 159.148L30.3428 157.165Z" fill="#262626"/>
<path d="M13.1245 102.882L13.0405 104.861L2.57992 104.416L2.7798 99.7106C2.86192 97.7773 4.2154 96.6637 6.14865 96.7459C8.0969 96.8286 9.33608 98.0523 9.25396 99.9856L9.13811 102.713L13.1245 102.882ZM4.38739 102.511L7.42965 102.641L7.53787 100.093C7.57033 99.3285 7.17044 98.8461 6.40613 98.8136L5.71675 98.7844C4.95244 98.7519 4.52807 99.1993 4.49561 99.9636L4.38739 102.511Z" fill="#262626"/>
<path d="M14.7656 86.8435L13.7367 92.8611L3.41644 91.0966L3.75014 89.1449L12.3405 90.6137L13.0357 86.5477L14.7656 86.8435Z" fill="#262626"/>
<path d="M18.2113 73.9394L17.5991 75.9011L14.8001 75.9076L13.692 79.4587L15.995 81.0416L15.3962 82.9604L6.44717 76.4907L7.18001 74.1424L18.2113 73.9394ZM13.0391 75.8609L8.5274 75.8671L8.50506 75.9387L12.2169 78.4955L13.0391 75.8609Z" fill="#262626"/>
<path d="M21.6122 65.7582L20.7604 67.5622L17.0438 65.8074L9.76201 66.3337L10.7099 64.3262L15.7424 64.0317L15.7552 64.0046L12.7593 59.9857L13.6815 58.0325L17.882 63.9969L21.6122 65.7582Z" fill="#262626"/>
<path d="M32.0156 48.699L25.8377 47.9294L23.4546 47.4623L23.4272 47.498L29.4134 52.0907L28.272 53.5783L19.9652 47.2051L21.2892 45.4795L27.4671 46.2491L29.8502 46.7162L29.8776 46.6805L23.8914 42.0877L25.0328 40.6001L33.3396 46.9734L32.0156 48.699Z" fill="#262626"/>
<path d="M40.0926 39.8254C38.1167 41.7308 35.5086 41.641 33.0514 39.0928C30.5941 36.5445 30.5991 33.935 32.575 32.0296C34.5618 30.1137 37.159 30.2139 39.6163 32.7622C42.0735 35.3104 42.0794 37.9095 40.0926 39.8254ZM38.8744 38.5621C39.9541 37.5208 39.9059 36.0878 38.6669 34.8029L37.5423 33.6368C36.3033 32.3519 34.873 32.2516 33.7932 33.2929C32.7135 34.3341 32.7617 35.7671 34.0008 37.052L35.1253 38.2181C36.3643 39.503 37.7946 39.6033 38.8744 38.5621Z" fill="#262626"/>
<path d="M49.3725 31.4921L47.5197 32.7687L39.5784 25.5257L41.2088 24.4023L44.9121 27.953L47.2645 30.2304L47.3016 30.2049L46.0979 27.136L44.2351 22.3173L46.0385 21.0747L49.8776 24.5318L52.3041 26.7581L52.3412 26.7326L51.0634 23.7148L49.0894 18.9727L50.6457 17.9003L54.5233 27.9433L52.6828 29.2113L48.4431 25.4109L46.3461 23.5041L46.3214 23.5211L47.3315 26.1768L49.3725 31.4921Z" fill="#262626"/>
<path d="M103.657 13.4558L101.678 13.3946L102.001 2.92962L106.709 3.07503C108.643 3.13476 109.772 4.47526 109.712 6.40934C109.652 8.35841 108.443 9.61168 106.509 9.55194L103.78 9.46766L103.657 13.4558ZM103.927 4.71492L103.833 7.75847L106.381 7.8372C107.146 7.86081 107.624 7.45537 107.647 6.69073L107.669 6.00106C107.692 5.23643 107.24 4.81726 106.476 4.79365L103.927 4.71492Z" fill="#262626"/>
<path d="M119.739 14.9065L113.71 13.9468L115.356 3.60694L117.311 3.91819L115.941 12.5248L120.015 13.1733L119.739 14.9065Z" fill="#262626"/>
<path d="M132.671 18.1924L130.703 17.6025L130.664 14.8038L127.101 13.7359L125.544 16.0567L123.619 15.4798L129.987 6.45797L132.343 7.16413L132.671 18.1924ZM130.691 13.0423L130.634 8.53099L130.562 8.50946L128.047 12.2501L130.691 13.0423Z" fill="#262626"/>
<path d="M140.898 21.4897L139.084 20.6581L140.797 16.9222L140.19 9.64667L142.208 10.5721L142.558 15.601L142.586 15.6135L146.571 12.5729L148.534 13.4733L142.617 17.7401L140.898 21.4897Z" fill="#262626"/>
<path d="M158.189 31.7648L158.891 25.5788L159.332 23.1908L159.296 23.1638L154.769 29.1999L153.269 28.0749L159.551 19.6988L161.291 21.0038L160.589 27.1898L160.148 29.5778L160.184 29.6048L164.711 23.5688L166.211 24.6938L159.929 33.0698L158.189 31.7648Z" fill="#262626"/>
<path d="M167.159 39.7582C165.232 37.8032 165.294 35.1943 167.815 32.7094C170.336 30.2245 172.946 30.2011 174.873 32.1561C176.81 34.1219 176.738 36.72 174.217 39.2049C171.695 41.6898 169.097 41.724 167.159 39.7582ZM168.409 38.5263C169.462 39.5947 170.894 39.5308 172.166 38.2778L173.32 37.1407C174.591 35.8877 174.676 34.4564 173.623 33.388C172.57 32.3197 171.137 32.3835 169.866 33.6365L168.712 34.7737C167.441 36.0267 167.356 37.458 168.409 38.5263Z" fill="#262626"/>
<path d="M175.619 48.9934L174.322 47.1547L181.477 39.1344L182.618 40.7524L179.108 44.4945L176.857 46.8717L176.883 46.9085L179.938 45.6712L184.736 43.7556L185.999 45.5453L182.584 49.4221L180.384 51.8729L180.41 51.9097L183.414 50.5989L188.134 48.573L189.223 50.1174L179.224 54.1049L177.936 52.2785L181.689 47.9974L183.573 45.8795L183.556 45.855L180.911 46.8942L175.619 48.9934Z" fill="#262626"/>
<circle cx="77.6602" cy="13" r="4" fill="#262626"/>
<circle cx="12.6602" cy="130" r="4" fill="#262626"/>
<circle cx="194.66" cy="77" r="4" fill="#262626"/>
<circle cx="127.66" cy="196" r="4" fill="#262626"/>
</svg>
