<svg width="65" height="72" viewBox="0 0 65 72" fill="none" xmlns="http://www.w3.org/2000/svg">
<path d="M48.059 11.8827C56.863 16.3041 58.3169 31.205 51.3062 45.1649C44.2957 59.1246 31.4753 66.8572 22.6712 62.4358L17.4811 59.8293L42.8689 9.27625L48.059 11.8827Z" fill="#E36E2B"/>
<path d="M17.3131 59.7452L17.4817 59.8299M17.4817 59.8299L22.6718 62.4363C31.4758 66.8577 44.2962 59.1251 51.3068 45.1654C58.3174 31.2056 56.8636 16.3046 48.0596 11.8832L42.8694 9.27676L17.4817 59.8299Z" stroke="#262626"/>
<path d="M54.1709 31.5072C54.1709 31.5072 54.3347 30.8542 54.3487 30.5745C54.3628 30.2949 55.397 29.4951 55.397 29.4951L55.7277 28L55.8327 29.8363L54.7714 30.8802L54.9015 32.1524L54.6812 33.1395L52.6811 33.6395L53.9679 32.8099L54.4789 32.0407L54.1709 31.5072Z" fill="#262626"/>
<path d="M42.3296 9.00637C51.1336 13.4277 52.5874 28.3287 45.5768 42.2885C38.5661 56.2484 25.7458 63.9808 16.9418 59.5594C8.13779 55.1381 6.68398 40.2371 13.6946 26.2773C20.7053 12.3175 33.5256 4.58499 42.3296 9.00637Z" fill="#F8CC45"/>
<path d="M42.3296 9.00637C51.1336 13.4277 52.5874 28.3287 45.5768 42.2885C38.5661 56.2484 25.7458 63.9808 16.9418 59.5594C8.13779 55.1381 6.68398 40.2371 13.6946 26.2773C20.7053 12.3175 33.5256 4.58499 42.3296 9.00637Z" fill="#F8CC45"/>
<path d="M42.3296 9.00637C51.1336 13.4277 52.5874 28.3287 45.5768 42.2885C38.5661 56.2484 25.7458 63.9808 16.9418 59.5594C8.13779 55.1381 6.68398 40.2371 13.6946 26.2773C20.7053 12.3175 33.5256 4.58499 42.3296 9.00637Z" stroke="#262626"/>
<path d="M39.0451 15.5093C45.0175 18.5086 45.6593 29.3027 40.4786 39.6186C35.298 49.9345 26.2567 55.8657 20.2844 52.8664C14.312 49.8671 13.6702 39.073 18.8508 28.7571C24.0315 18.4412 33.0728 12.51 39.0451 15.5093Z" fill="#F8CC45"/>
<path d="M39.0451 15.5093C45.0175 18.5086 45.6593 29.3027 40.4786 39.6186C35.298 49.9345 26.2567 55.8657 20.2844 52.8664C14.312 49.8671 13.6702 39.073 18.8508 28.7571C24.0315 18.4412 33.0728 12.51 39.0451 15.5093Z" fill="#F8CC45"/>
<path d="M27.5522 23.6023L32.6568 25.8658L31.7808 27.8413C30.925 29.7715 30.9048 29.8169 30.5759 30.3232C30.3868 30.5927 30.1575 30.9529 30.0378 31.1444C29.9281 31.3131 29.6238 31.8032 29.3397 32.2478C28.8564 32.9845 28.8116 33.0462 28.749 32.9913C28.7154 32.9492 28.7065 32.8909 28.702 32.8617C28.7076 32.8099 28.6931 32.8034 28.6438 32.836C28.5946 32.8685 28.5364 32.8427 28.4548 32.7521C28.3586 32.6551 28.3295 32.6422 28.2355 32.7364C28.1863 32.7689 28.1124 32.8177 28.0834 32.8048C28.0688 32.7984 28.0297 32.8082 28.0095 32.8536C27.9793 32.9217 27.9983 32.9573 28.0565 32.9831C28.1147 33.0089 28.1337 33.0445 28.1236 33.0672C28.1035 33.1126 28.1326 33.1255 28.1717 33.1157C28.2008 33.1286 28.2299 33.1415 28.2243 33.1934C28.2187 33.2452 28.2579 33.2354 28.3362 33.2158C28.3899 33.2125 28.5073 33.183 28.5756 33.1861C28.683 33.1794 28.702 33.215 28.6371 33.3221C28.5722 33.4292 27.4557 35.1623 26.1546 37.1939L23.7918 40.8743L20.514 39.4752L20.8161 38.794C20.9772 38.4306 21.1182 38.1127 21.1573 38.1029C21.1819 38.0867 21.2513 38.0087 21.3016 37.8952C21.4314 37.681 21.5936 37.5899 21.7346 37.6252C21.8218 37.6639 21.8565 37.6249 21.9069 37.5114C21.9024 37.4822 21.9561 37.4789 22.0143 37.5047C22.1597 37.5692 22.2492 37.4458 22.1877 37.3098C22.1642 37.2451 22.1306 37.203 22.1306 37.203C22.0668 37.2291 22.0433 37.1643 22.0926 37.1318C22.1273 37.0928 22.0836 37.0735 21.9718 37.0511C21.748 37.0062 21.6373 36.9028 21.7223 36.7502C21.8129 36.5459 21.9225 36.3771 21.9662 36.3965C21.9953 36.4093 22.0792 36.3379 22.1731 36.2437C22.3119 36.0878 22.3119 36.0878 22.2436 36.0847C22.1899 36.0881 22.1664 36.0233 22.1485 35.9067C22.1553 35.7738 22.1609 35.7219 22.2448 35.6504C22.3141 35.5725 22.3343 35.5271 22.3253 35.4688C22.3119 35.3813 22.7046 34.4957 22.7281 34.5605C22.7426 34.5669 22.7818 34.5571 22.8019 34.5117C22.8366 34.4727 22.8757 34.4629 22.8948 34.4985C22.8992 34.5277 22.9194 34.4823 22.9205 34.4012C22.9216 34.3202 22.9473 34.2229 22.9574 34.2002C22.982 34.184 22.963 34.1484 22.9339 34.1355C22.9048 34.1226 22.9004 34.0934 22.9104 34.0707C22.9306 34.0253 22.9552 34.009 22.9843 34.0219C23.0133 34.0348 23.0089 34.0057 22.9899 33.9701C22.9664 33.9053 22.9764 33.8826 23.0492 33.9148C23.0928 33.9342 23.1319 33.9244 23.142 33.9017C23.1621 33.8562 23.1957 33.8983 23.1845 34.002C23.1879 34.1122 23.1823 34.1641 23.123 34.2193C23.0782 34.281 23.038 34.3718 23.0268 34.4755C22.9954 34.6247 22.9999 34.6538 23.0447 34.5922C23.0894 34.5305 23.1386 34.498 23.1677 34.5109C23.2113 34.5302 23.2069 34.501 23.189 34.3844C23.1856 34.2742 23.1912 34.2224 23.2304 34.2126C23.255 34.1963 23.2997 34.1346 23.3053 34.0828C23.321 34.0082 23.3411 33.9628 23.3904 33.9303C23.4832 33.9171 23.4855 33.755 23.3781 33.7618C23.3344 33.7424 23.3053 33.7295 23.3154 33.7068C23.3255 33.6841 23.3121 33.5966 23.2841 33.5027L23.2226 33.3668L27.5522 23.6023ZM28.6473 27.2943C28.7368 27.1709 28.7133 27.1062 28.6048 27.1939C28.5556 27.2264 28.5209 27.2654 28.5254 27.2946C28.5388 27.382 28.5925 27.3787 28.6473 27.2943ZM23.4463 34.4713C23.3971 34.5039 23.387 34.5266 23.4351 34.5751C23.5022 34.6592 23.5414 34.6494 23.5235 34.5327C23.5291 34.4809 23.4854 34.4615 23.4463 34.4713ZM23.3031 34.5981C23.2897 34.5106 23.2203 34.5885 23.2192 34.6695C23.2181 34.7506 23.2181 34.7506 23.2628 34.6889C23.2874 34.6726 23.3076 34.6272 23.3031 34.5981ZM22.8746 35.2504C22.8601 35.244 22.8198 35.3348 22.7694 35.4483C22.7191 35.5619 22.7034 35.6364 22.728 35.6202C22.7571 35.6331 22.7717 35.6395 22.7515 35.6849C22.7213 35.7531 22.794 35.7853 22.9551 35.7752C23.0726 35.7458 23.0726 35.7458 23.0547 35.6292C23.0223 35.5061 22.9182 35.2698 22.8746 35.2504ZM22.9283 36.66C23.0267 36.595 23.058 36.4458 22.9775 36.2743C22.9451 36.1512 22.9115 36.1091 22.916 36.1383C22.9104 36.1901 22.8858 36.2064 22.8567 36.1935C22.8421 36.1871 22.8332 36.1287 22.8488 36.0542C22.8947 35.9115 22.8164 35.9311 22.7359 36.1128C22.6855 36.2263 22.6609 36.2426 22.5983 36.1876C22.5501 36.1391 22.511 36.1489 22.4271 36.2204C22.3331 36.3146 22.3331 36.3146 22.4014 36.3177C22.4405 36.3079 22.4551 36.3143 22.445 36.337C22.4103 36.376 22.4148 36.4052 22.4193 36.4343C22.4483 36.4472 22.4427 36.4991 22.4036 36.5089C22.379 36.5251 22.3644 36.5187 22.37 36.4668C22.4014 36.3177 22.313 36.36 22.2425 36.519C22.1821 36.6552 22.181 36.7362 22.2335 36.8139C22.2906 36.9207 22.2951 36.9499 22.2257 37.0278C22.191 37.0668 22.1463 37.1285 22.1507 37.1576C22.1653 37.1641 22.1798 37.1705 22.2 37.1251C22.2201 37.0797 22.2391 37.1153 22.2671 37.2092C22.323 37.397 22.3622 37.3872 22.3745 37.2025C22.3756 37.1214 22.342 37.0794 22.313 37.0665C22.2883 37.0828 22.2593 37.0699 22.2693 37.0472C22.3297 36.9109 22.4226 36.8977 22.5535 36.9558C22.6698 37.0074 22.6844 37.0138 22.7694 36.8613C22.8242 36.7769 22.879 36.6925 22.9283 36.66ZM23.2661 36.212C23.3097 36.2314 23.3299 36.186 23.3657 36.066C23.4373 35.826 23.4373 35.826 23.3444 35.8392C23.3154 35.8263 23.2561 35.8815 23.2259 35.9496C23.1956 36.0177 23.2046 36.0761 23.2292 36.0598C23.2538 36.0435 23.2583 36.0727 23.2382 36.1181C23.218 36.1635 23.237 36.1991 23.2661 36.212ZM24.0168 34.4798C24.0604 34.4991 24.0996 34.4893 24.1197 34.4439C24.1399 34.3985 24.1455 34.3466 24.1164 34.3337C24.1018 34.3273 24.0772 34.3435 24.0817 34.3727C24.0716 34.3954 24.0325 34.4052 23.9889 34.3859C23.9307 34.3601 23.9117 34.3245 23.9508 34.3146C23.9855 34.2757 24.0258 34.1848 24.0515 34.0876C24.0974 33.9449 23.9777 33.7831 23.8211 33.8223C23.7137 33.8291 23.5928 34.1016 23.6801 34.1403C23.7092 34.1532 23.7472 34.2244 23.7752 34.3183C23.7886 34.4057 23.8512 34.4607 23.8803 34.4736C23.9195 34.4638 23.9732 34.4604 24.0168 34.4798ZM24.1858 33.9025C24.1567 33.8896 24.1466 33.9123 24.1511 33.9415C24.141 33.9642 24.15 34.0225 24.15 34.0225C24.1645 34.029 24.1846 33.9836 24.1947 33.9608C24.2048 33.9381 24.2003 33.909 24.1858 33.9025ZM24.1365 34.6415C24.1667 34.5734 24.1813 34.5799 24.1365 34.6415C24.1018 34.6805 24.0627 34.6903 24.0582 34.6612C24.0437 34.6547 24.0291 34.6483 24.009 34.6937C23.9687 34.7845 24.0862 34.7551 24.1365 34.6415ZM22.5702 39.2729C22.6496 39.1722 22.6552 39.1204 22.6082 38.9908C22.5434 38.7447 22.3677 38.7483 22.2424 38.9917C22.1675 39.1215 22.1518 39.196 22.1988 39.3256C22.2458 39.4551 22.2648 39.4907 22.295 39.4226C22.3051 39.3998 22.3241 39.4355 22.2883 39.5554C22.2771 39.6592 22.2715 39.711 22.3062 39.6721C22.3263 39.6267 22.3554 39.6395 22.3845 39.6524C22.389 39.6816 22.4136 39.6653 22.4393 39.5681C22.465 39.4708 22.5154 39.3572 22.5702 39.2729ZM22.7492 38.3197C22.719 38.3878 22.7235 38.417 22.738 38.4234C22.7526 38.4299 22.7917 38.42 22.8018 38.3973C22.8119 38.3746 22.8029 38.3163 22.7984 38.2872C22.794 38.258 22.7694 38.2743 22.7492 38.3197ZM28.531 26.5362C28.4415 26.6596 28.4314 26.6823 28.4851 26.6789C28.5243 26.6691 28.5433 26.7047 28.5232 26.7501C28.503 26.7955 28.5276 26.7793 28.6015 26.7305C28.6955 26.6363 28.6854 26.659 28.5802 26.8569L28.4504 27.0711L28.5836 26.9671C28.7066 26.8858 28.7066 26.8858 28.6809 26.9831C28.6652 27.0577 28.6798 27.0641 28.7201 26.9733C28.7503 26.9052 28.7659 26.8306 28.7368 26.8177C28.7223 26.8112 28.7178 26.7821 28.7424 26.7658C28.7671 26.7496 28.7782 26.6458 28.7995 26.5194C28.8264 26.3411 28.8364 26.3184 28.9002 26.2923C29.0132 26.2337 29.1038 26.0294 29.0523 25.8707C29.0389 25.7832 28.9953 25.7639 28.9852 25.7866C28.9651 25.832 28.9606 25.8028 28.9371 25.7381C28.9282 25.6798 28.9047 25.615 28.8901 25.6085C28.8611 25.5957 28.8185 25.4953 28.7906 25.4014C28.7481 25.301 28.7201 25.2071 28.691 25.1942C28.6765 25.1877 28.6675 25.1294 28.6877 25.084C28.6933 25.0321 28.6698 24.9674 28.6452 24.9836C28.606 24.9935 28.5579 24.9449 28.549 24.8866C28.5154 24.8446 28.4583 24.7378 28.3957 24.6828C28.2894 24.6085 28.2894 24.6085 28.2189 24.7675C28.1787 24.8583 28.1619 25.0139 28.1842 25.1597C28.1965 25.3282 28.1898 25.4611 28.1395 25.5746C28.0891 25.6881 28.0936 25.7173 28.1238 25.6492C28.1686 25.5875 28.2077 25.5777 28.2558 25.6262C28.3901 25.7944 28.4337 25.8137 28.5221 25.7714C28.5959 25.7226 28.5959 25.7226 28.5366 25.7779C28.4572 25.8785 28.4941 26.0307 28.6104 26.0823C28.7268 26.1339 28.6899 26.3349 28.531 26.5362ZM25.3581 34.4767C25.8269 33.7335 26.6492 32.4678 27.1728 31.6402C28.8274 29.086 29.0869 28.6576 29.2425 28.3462C29.3331 28.1418 29.3689 28.0218 29.3599 27.9635C29.3264 27.9214 29.351 27.9052 29.4092 27.931C29.4673 27.9568 29.4919 27.9405 29.4975 27.8887C29.5031 27.8368 29.5177 27.8432 29.5512 27.8853C29.5993 27.9338 29.6239 27.9175 29.7347 27.6677C29.86 27.4244 29.8656 27.3725 29.8231 27.2722C29.7616 27.1362 29.6642 27.1202 29.6329 27.2694C29.6374 27.2985 29.5826 27.3829 29.5333 27.4154C29.4942 27.4252 29.464 27.4934 29.4685 27.5225C29.4584 27.5452 29.4237 27.5842 29.3846 27.594C29.3062 27.6136 29.2962 27.6363 29.2951 27.7174C29.3085 27.8048 29.2939 27.7984 29.2503 27.779C29.2212 27.7661 29.172 27.7986 29.1765 27.8278C29.1899 27.9153 28.9371 27.8575 28.7681 27.7283C28.691 27.6669 28.5164 27.5895 28.39 27.5606L28.1372 27.5028L26.2744 31.7038C25.2619 34.0265 24.4363 35.8885 24.4609 35.8723C24.481 35.8269 24.8748 35.2135 25.3581 34.4767ZM27.0978 32.8297C27.1023 32.8589 27.0676 32.8979 27.0139 32.9012C26.9602 32.9046 26.9501 32.9273 26.9591 32.9856C26.9781 33.0212 26.9971 33.0568 26.9971 33.0568C26.9971 33.0568 27.0318 33.0178 27.0765 32.9562C27.1067 32.888 27.1369 32.8199 27.1179 32.7843C27.1134 32.7552 27.1034 32.7779 27.0978 32.8297ZM24.6846 38.0366C24.7237 38.0268 24.7875 38.0007 24.8177 37.9326C24.8479 37.8645 24.8725 37.8482 24.877 37.8774C24.915 37.9486 24.9508 37.8286 24.9184 37.7055C24.8815 37.5533 24.7596 37.5535 24.6891 37.7125C24.6589 37.7806 24.6331 37.8779 24.6522 37.9135C24.6667 37.92 24.6611 37.9718 24.6365 37.9881C24.6119 38.0043 24.6309 38.0399 24.6846 38.0366ZM24.7316 38.1661C24.7987 38.2502 24.8378 38.2404 24.82 38.1238C24.8155 38.0946 24.7718 38.0753 24.7327 38.0851C24.6935 38.0949 24.6835 38.1176 24.7316 38.1661ZM25.3681 37.2799C25.5158 37.1824 25.5751 37.1272 25.631 36.9618C25.6713 36.8709 25.5885 36.8614 25.5236 36.9685C25.4789 37.0302 25.4051 37.0789 25.3614 37.0596C25.3223 37.0694 25.263 37.1246 25.2428 37.17C25.2227 37.2155 25.1836 37.2253 25.1355 37.1768C25.0873 37.1283 25.0773 37.151 25.0515 37.2483C25.0359 37.3228 25.0348 37.4038 25.0392 37.433C25.0437 37.4622 25.0236 37.5076 24.9934 37.5757C24.9341 37.6309 24.9385 37.6601 25.0023 37.634C25.0314 37.6469 25.0605 37.6598 25.0403 37.7052C25.0001 37.7961 25.0829 37.8056 25.1724 37.6822C25.2563 37.6108 25.2619 37.5589 25.2484 37.4714C25.2305 37.3548 25.2305 37.3548 25.3681 37.2799ZM28.6305 30.2758C28.6741 30.2951 28.6763 30.1331 28.6406 29.8999C28.6316 29.8415 28.598 29.7995 28.5835 29.793C28.4906 29.8062 28.4504 29.897 28.5119 30.033C28.5689 30.1398 28.5376 30.289 28.4806 30.1822C28.4761 30.153 28.4224 30.1564 28.3732 30.1889C28.334 30.1987 28.3195 30.1922 28.296 30.1275C28.249 29.998 28.2333 30.0725 28.2501 30.2702C28.2736 30.3349 28.2423 30.4841 28.2121 30.5522C28.1617 30.6657 28.1561 30.7176 28.2288 30.7499C28.2725 30.7692 28.3407 30.7723 28.3653 30.756C28.4 30.7171 28.4056 30.6652 28.3866 30.6296C28.3676 30.594 28.3776 30.5713 28.4168 30.5615C28.4559 30.5517 28.5108 30.4673 28.541 30.3991C28.5712 30.331 28.6159 30.2694 28.6305 30.2758ZM27.7008 32.9612C27.7153 32.9677 27.7545 32.9579 27.7746 32.9125C27.7847 32.8898 27.7802 32.8606 27.7802 32.8606C27.7656 32.8541 27.741 32.8704 27.7164 32.8867C27.6817 32.9256 27.6862 32.9548 27.7008 32.9612ZM28.2713 32.6164C28.2959 32.6002 28.2769 32.5646 28.2232 32.5679C28.1695 32.5713 28.1449 32.5875 28.1393 32.6394C28.1337 32.6913 28.2165 32.7008 28.2713 32.6164ZM29.1283 30.9585C29.1529 30.9422 29.1786 30.8449 29.1898 30.7412C29.2111 30.6148 29.2267 30.5402 29.2413 30.5466C29.2558 30.5531 29.2614 30.5012 29.2379 30.4365C29.1865 30.2778 28.8397 30.3142 28.7591 30.4959C28.739 30.5413 28.758 30.5769 28.8016 30.5962C28.8743 30.6285 28.8788 30.6576 28.8139 30.7647C28.7636 30.8783 28.758 30.9301 28.8206 30.9851C28.8542 31.0271 28.8777 31.0919 28.8575 31.1373C28.8475 31.16 28.8866 31.1502 28.9459 31.095C29.0153 31.0171 29.0891 30.9683 29.1283 30.9585ZM29.8901 30.8887C29.9047 30.8951 29.9002 30.866 29.8812 30.8304C29.7805 30.7042 29.6283 30.7726 29.5176 31.0224C29.3968 31.2949 29.1999 31.425 29.0891 31.3215C29.041 31.273 29.0019 31.2828 28.9717 31.351C28.9414 31.4191 28.9459 31.4482 29.0052 31.393C29.0992 31.2988 29.0533 31.4415 28.9325 31.714C28.8374 31.8892 28.8273 31.9119 28.9291 31.9571C28.9728 31.9764 29.0801 31.9697 29.1394 31.9145C29.2379 31.8494 29.258 31.804 29.2245 31.762C29.2155 31.7036 29.2457 31.6355 29.3308 31.483C29.4158 31.3305 29.4404 31.3142 29.4493 31.3726C29.4672 31.4892 29.5064 31.4794 29.5758 31.4014C29.6306 31.3171 29.6306 31.3171 29.5567 31.3658C29.493 31.3919 29.4784 31.3855 29.4896 31.2817C29.5019 31.097 29.5221 31.0516 29.5601 31.1228C29.5836 31.1875 29.7357 31.1191 29.7961 30.9829C29.8163 30.9375 29.861 30.8758 29.8901 30.8887Z" fill="#E47832"/>
<path d="M36.2387 27.454L38.6819 28.5374L31.6437 44.4102L26.5391 42.1468L27.3749 40.262C28.0293 38.786 28.2106 38.3773 28.2542 38.3966C28.2833 38.4095 28.2788 38.3804 28.2699 38.3221C28.2509 38.2864 28.2464 38.2573 28.2755 38.2702C28.3046 38.2831 28.3392 38.2441 28.3493 38.2214C28.3694 38.176 28.3941 38.1597 28.4086 38.1662C28.4858 38.2276 28.8908 38.2169 28.9355 38.1553C28.9601 38.139 28.9512 38.0807 28.9075 38.0613C28.8639 38.042 28.8057 38.0162 28.7867 37.9806C28.7677 37.945 28.7286 37.9548 28.7084 38.0002C28.6883 38.0456 28.6346 38.049 28.5328 38.0039L28.4019 37.9458L29.4994 35.4707L30.9728 34.0317L32.1217 34.5411C32.7571 34.7957 33.256 35.0441 33.256 35.0441C33.246 35.0668 32.7616 35.5313 32.1731 36.1127L31.1103 37.136L30.7087 37.9633C30.4927 38.411 30.2007 39.0695 30.0643 39.4166L29.817 40.0135L31.0241 40.5487L35.3839 30.7161L35.253 30.6581C35.1803 30.6258 34.4677 30.3099 33.6679 29.9552L32.2281 29.3168L33.5773 26.2739L33.6646 26.3126C33.7082 26.332 33.7418 26.374 33.7217 26.4194C33.7116 26.4421 33.7161 26.4713 33.7451 26.4842C33.7597 26.4906 33.7698 26.4679 33.7798 26.4452C33.7854 26.3934 34.6099 26.7318 36.2387 27.454ZM28.8337 37.7569C28.8773 37.7762 28.8919 37.7827 28.902 37.76C28.8975 37.7308 28.8684 37.7179 28.8292 37.7277C28.7901 37.7375 28.7901 37.7375 28.8337 37.7569ZM29.0228 37.4875C29.0306 37.6268 29.0552 37.6106 29.0765 37.4841C29.1067 37.416 29.0977 37.3577 29.0731 37.3739C29.0485 37.3902 29.0284 37.4356 29.0228 37.4875ZM29.1167 38.453C29.1559 38.4432 29.166 38.4205 29.1279 38.3493C29.1089 38.3137 29.0955 38.2262 29.091 38.197C29.0921 38.116 29.072 38.1614 29.0507 38.2879C29.0205 38.356 29.0395 38.3916 29.0642 38.3753C29.1033 38.3655 29.1078 38.3947 29.0977 38.4174C29.0776 38.4628 29.0921 38.4693 29.1167 38.453ZM28.602 41.8116C28.6412 41.8018 28.6513 41.7791 28.5204 41.721C28.4432 41.6596 28.2206 41.887 28.1892 42.0361C28.1579 42.1853 28.3045 42.1687 28.4286 42.0064C28.4835 41.922 28.5629 41.8214 28.602 41.8116ZM28.9332 41.4965C28.9735 41.4056 28.969 41.3765 28.9097 41.4317C28.8851 41.448 28.8504 41.4869 28.8448 41.5388C28.8482 41.649 28.8728 41.6327 28.9332 41.4965ZM30.1862 38.7098C30.2153 38.7227 30.2858 38.5638 30.3026 38.4082C30.2992 38.298 30.2992 38.298 30.1034 38.3471C30.0106 38.3602 29.9121 38.4253 29.9021 38.448C29.8719 38.5161 29.9625 38.665 30.0598 38.681C30.1034 38.7003 30.1571 38.6969 30.1862 38.7098ZM33.5469 35.1731C33.5503 35.2832 33.5838 35.3253 33.6431 35.2701C33.6576 35.2765 33.6588 35.1955 33.6498 35.1372C33.6028 35.0077 33.5245 35.0273 33.5469 35.1731ZM32.2133 38.4946C32.2424 38.5075 32.2771 38.4685 32.3118 38.4296C32.352 38.3387 32.3476 38.3096 32.2737 38.3584C32.1753 38.4234 32.1551 38.4688 32.2133 38.4946Z" fill="#E47832"/>
<path d="M39.0451 15.5093C45.0175 18.5086 45.6593 29.3027 40.4786 39.6186C35.298 49.9345 26.2567 55.8657 20.2844 52.8664C14.312 49.8671 13.6702 39.073 18.8508 28.7571C24.0315 18.4412 33.0728 12.51 39.0451 15.5093Z" stroke="#E47832" stroke-width="3"/>
<path d="M31.4268 10.5842C31.4268 10.5842 31.5475 10.1031 31.5579 9.89702C31.5682 9.69098 32.3303 9.10162 32.3303 9.10162L32.5739 7.99995L32.6514 9.35304L31.8693 10.1222L31.9652 11.0596L31.7875 12.1232L32.0435 13.0238L31.2772 11.5442L31.6538 10.9774L31.4268 10.5842Z" fill="#262626"/>
<path d="M30.9904 56.8676C30.9904 56.8676 31.1543 56.2146 31.1683 55.935C31.1824 55.6554 32.2166 54.8556 32.2166 54.8556L32.5473 53.3605L32.6523 55.1968L31.591 56.2407L31.7211 57.5128L31.5007 58.4999L29.5006 59L30.7875 58.1704L31.2985 57.4012L30.9904 56.8676Z" fill="#262626"/>
<path d="M15.5566 57.5332C15.5566 57.5332 15.3594 58.3194 15.3425 58.6561C15.3255 58.9927 16.0003 59 16.0003 59L18 59.9999L15.5003 59L14.8336 58.2881L14.6769 56.7564L14.9423 55.568L17.3503 54.9659L15.801 55.9647L15.1858 56.8909L15.5566 57.5332Z" fill="#262626"/>
<path d="M10.7813 40.8911L10.116 44.5817L12.3359 44.7211L9.17224 45.201L10.7813 40.8911Z" fill="#262626"/>
<path d="M49.0956 19.2196L47.1545 19.8522L45.2048 21.251L43.193 19.9435L45.0296 20.4356L46.6515 19.5253L48.0897 18.5659L49.2086 17.3287L49.0956 19.2196Z" fill="#262626"/>
<path d="M14.0509 32.8873L12.8351 33.2835L11.6141 34.1596L10.354 33.3407L11.5043 33.6489L12.5201 33.0788L13.4209 32.4779L14.1216 31.703L14.0509 32.8873Z" fill="#262626"/>
<path d="M46.8037 42.185L46.7484 41.1477L46.3177 40.0054L47.2252 39.1888L46.7415 40.0267L46.9753 40.9436L47.2574 41.7768L47.7181 42.4896L46.8037 42.185Z" fill="#262626"/>
<path d="M42.9367 43.1804L44.0407 43.8902L45.5297 44.2928L45.6961 45.8263L45.1948 44.7114L44.0823 44.2736L43.0199 43.9472L41.9489 43.8927L42.9367 43.1804Z" fill="#262626"/>
<path d="M48.2655 50.079L48.212 49.0762L47.7957 47.9719L48.673 47.1825L48.2054 47.9924L48.4314 48.8788L48.7041 49.6843L49.0007 49.9999L48.2655 50.079Z" fill="#262626"/>
<path d="M39.1056 54.0284L39.9611 55.4309L41.418 56.6977L40.7676 58.5155L40.8121 56.9862L39.7984 55.8853L38.7804 54.9373L38.1082 54.7131L39.1056 54.0284Z" fill="#262626"/>
</svg>
