<svg width="529" height="1080" viewBox="0 0 529 1080" fill="none" xmlns="http://www.w3.org/2000/svg">
<path d="M52.3194 1343.57L2.00009 1570L440.497 1580.79L577.078 1095.57L630.991 1041.65L659.745 624.72L526.758 682.228L400.96 646.286L375.8 552.836L548.324 46.0487L530.352 -50.9957L584.266 -144.446L408.149 -173.2L408.149 -475.115L422.525 -547L365.018 -467.927L289.539 -230.707L188.9 -43.8072L210.466 -22.2418L336.264 -11.4591L267.973 265.297L81.0732 693.011L27.1597 858.346L138.581 901.476L264.379 876.317L124.204 1253.71L52.3194 1343.57Z" fill="#9A6735"/>
<path d="M210.207 137.532L228.646 38.6316L253.231 137.532L167.183 310.607L210.207 137.532Z" fill="#9A6735"/>
<path d="M59.5077 1138.7L97.6523 1180.31L187.542 962.887L79.0002 1097.68L59.5077 1138.7Z" fill="#9A6735"/>
</svg>
