<svg width="131" height="131" viewBox="0 0 131 131" fill="none" xmlns="http://www.w3.org/2000/svg">
<path d="M86.4426 14.4413L86.6068 14.5437L86.7953 14.5873L110.849 20.1509L116.413 44.2047L116.456 44.3932L116.559 44.5574L129.633 65.5L116.559 86.4426L116.456 86.6068L116.413 86.7953L110.849 110.849L86.7953 116.413L86.6068 116.456L86.4426 116.559L65.5 129.633L44.5574 116.559L44.3932 116.456L44.2047 116.413L20.1509 110.849L14.5873 86.7953L14.5437 86.6068L14.4413 86.4426L1.36666 65.5L14.4413 44.5574L14.5437 44.3932L14.5873 44.2047L20.1509 20.1509L44.2047 14.5873L44.3932 14.5437L44.5574 14.4413L65.5 1.36666L86.4426 14.4413Z" fill="#58E6CF" stroke="#262626" stroke-width="2.31858"/>
<path d="M27.6829 44.2685L36.7366 38.3958L43.3531 44.1412L39.4967 48.5751H28.1821L27.4186 44.8949C27.3697 44.6502 27.4676 44.4055 27.6829 44.2685Z" fill="#6D6360" stroke="#262626" stroke-width="2.20833" stroke-miterlimit="10"/>
<path d="M102.969 44.2685L93.9153 38.3958L87.2988 44.1412L91.1552 48.5751H102.47L103.233 44.8949C103.282 44.6502 103.184 44.4055 102.969 44.2685Z" fill="#6D6360" stroke="#262626" stroke-width="2.20833" stroke-miterlimit="10"/>
<path d="M65.4988 16.8019C47.4208 16.8019 32.7686 31.4541 32.7686 49.5321V92.5493C32.7686 94.7319 33.7473 96.7971 35.4406 98.1772L52.7453 112.321C55.0161 114.18 57.8643 115.188 60.8007 115.188H70.2067C73.143 115.188 75.9815 114.17 78.262 112.321L95.5667 98.1772C97.26 96.7971 98.2388 94.7319 98.2388 92.5493V49.5321C98.229 31.4541 83.5767 16.8019 65.4988 16.8019Z" fill="#584843" stroke="#262626" stroke-width="2.20833" stroke-miterlimit="10"/>
<path opacity="0.19" d="M65.4998 108.51V115.135H63.2915L56.6665 114.583L50.5936 111.271L35.6873 98.5729L33.479 95.2604L38.4478 88.6354L56.1144 94.7084L58.3228 108.51H65.4998Z" fill="#262626"/>
<path fill-rule="evenodd" clip-rule="evenodd" d="M32.9271 51.6458C34.3993 42.8125 42.7542 25.1458 64.3958 25.1458C83.1953 25.1458 93.9128 38.7546 98.2131 48.2399C97.5256 30.761 83.144 16.8019 65.4988 16.8019C47.4208 16.8019 32.7686 31.4541 32.7686 49.5321V51.3816L32.9271 51.6458Z" fill="#6E5B55"/>
<path d="M65.4988 16.8019C47.4208 16.8019 32.7686 31.4541 32.7686 49.5321V92.5493C32.7686 94.7319 33.7473 96.7971 35.4406 98.1772L52.7453 112.321C55.0161 114.18 57.8643 115.188 60.8007 115.188H70.2067C73.143 115.188 75.9815 114.17 78.262 112.321L95.5667 98.1772C97.26 96.7971 98.2388 94.7319 98.2388 92.5493V49.5321C98.229 31.4541 83.5767 16.8019 65.4988 16.8019Z" stroke="#262626" stroke-width="2.20833" stroke-miterlimit="10"/>
<path fill-rule="evenodd" clip-rule="evenodd" d="M66.0519 61.5833L41.7603 54.9583V79.7997C41.7603 82.1213 43.2126 84.1948 45.3944 84.9881L59.2917 90.0417L60.3324 100.449C60.4453 101.578 61.3952 102.438 62.5298 102.438H69.5744C70.7089 102.438 71.6589 101.578 71.7718 100.449L72.8125 90.0416L86.7095 84.9881C88.8912 84.1948 90.3436 82.1213 90.3436 79.7997V54.9583L66.0519 61.5833Z" fill="#382F2B"/>
<path fill-rule="evenodd" clip-rule="evenodd" d="M66.0519 65.8459L41.7603 59.375V83.5179C41.7603 85.8546 43.2314 87.9382 45.4333 88.7203L56.7641 92.7448L59.0656 103.985C59.276 105.012 60.1802 105.75 61.2291 105.75H70.8751C71.924 105.75 72.8282 105.012 73.0386 103.985L75.3401 92.7446L86.6705 88.7203C88.8725 87.9382 90.3436 85.8546 90.3436 83.5179V59.375L66.0519 65.8459Z" fill="#6E5B55"/>
<path fill-rule="evenodd" clip-rule="evenodd" d="M66.0519 61.5833L41.7603 54.9583V79.7997C41.7603 82.1213 43.2126 84.1948 45.3944 84.9881L59.2917 90.0417L60.3324 100.449C60.4453 101.578 61.3952 102.438 62.5298 102.438H69.5744C70.7089 102.438 71.6589 101.578 71.7718 100.449L72.8125 90.0416L86.7095 84.9881C88.8912 84.1948 90.3436 82.1213 90.3436 79.7997V54.9583L66.0519 61.5833Z" fill="#382F2B"/>
<path fill-rule="evenodd" clip-rule="evenodd" d="M48.5075 56.7985L41.7603 54.9583V79.7997C41.7603 82.1213 43.2126 84.1948 45.3944 84.9881L53.9327 88.093C48.0333 74.9613 52.8011 64.3159 56.1145 60.4793L48.5075 56.7985Z" fill="#322926"/>
<path fill-rule="evenodd" clip-rule="evenodd" d="M90.3446 79.6468C90.2049 80.7983 89.7415 81.7413 89.1757 82.4734C88.3744 83.5105 87.3919 84.0938 86.8799 84.2401L86.8563 84.2468L86.8334 84.2556L72.4792 89.7764L72.1587 89.8997L72.1276 90.2417L71.206 100.379C71.1285 101.232 70.4132 101.885 69.5566 101.885H62.5483C61.6916 101.885 60.9764 101.232 60.8988 100.379L59.9772 90.2417L59.946 89.8985L59.624 89.7758C55.7568 88.3026 47.4812 85.1395 45.2783 84.2583C44.3486 83.8864 43.5073 82.9154 42.8575 81.8129C42.2328 80.7532 41.8545 79.6921 41.7612 79.2039V82.1205C41.8083 82.205 41.8566 82.2895 41.9062 82.3736C42.5906 83.5347 43.5896 84.772 44.8682 85.2835C47.0222 86.1451 54.9261 89.1671 58.9088 90.6849L59.2505 94.4431L59.2926 94.4585L59.9679 101.211C60.366 102.258 61.378 102.99 62.5483 102.99H69.5566C70.7285 102.99 71.7417 102.256 72.1386 101.207L72.8135 94.4583L72.8543 94.4435L73.1961 90.6837L87.2083 85.2944C87.9845 85.064 89.1399 84.3256 90.0494 83.1486C90.1509 83.0173 90.2495 82.8802 90.3446 82.7373V79.6468Z" fill="#68DBCD"/>
<path d="M91.4479 54.9618C91.4479 55.3821 91.2093 55.7659 90.8325 55.952L78.7031 61.9386C70.7031 65.8816 61.4011 65.8816 53.4011 61.9386L41.2717 55.952C40.8948 55.7659 40.6562 55.3821 40.6562 54.9618V51.2138C40.6562 50.3955 41.5153 49.8615 42.2491 50.2237L53.4011 55.728C61.4011 59.6709 70.7031 59.6709 78.7031 55.728L89.8551 50.2237C90.5889 49.8615 91.4479 50.3955 91.4479 51.2138V54.9618Z" fill="#68DBCD" stroke="#262626" stroke-width="1.76667" stroke-miterlimit="10"/>
<rect x="20.7814" y="52.75" width="11.0417" height="29.8125" rx="2.20833" fill="#EE843A" stroke="#262626" stroke-width="2.20833"/>
<rect x="25.1979" y="48.3334" width="11.0417" height="38.6458" rx="2.20833" fill="#6D6360" stroke="#262626" stroke-width="2.20833"/>
<g opacity="0.1">
<mask id="mask0_1035_6827" style="mask-type:alpha" maskUnits="userSpaceOnUse" x="24" y="47" width="14" height="42">
<rect x="24.0938" y="47.2292" width="13.25" height="40.8542" rx="3.3125" fill="#6D6360"/>
</mask>
<g mask="url(#mask0_1035_6827)">
<path d="M26.854 85.875L33.479 48.3333L40.6561 52.75L35.6873 81.4583L26.854 85.875Z" fill="#D9D9D9"/>
</g>
</g>
<rect x="25.1979" y="48.3334" width="11.0417" height="38.6458" rx="2.20833" stroke="#262626" stroke-width="2.20833"/>
<path d="M35.4804 81.4583C35.4804 81.4583 29.5482 82.216 30.9265 87.6242C32.4659 93.6693 43.5324 92.5086 44.0482 92.2185C44.5641 91.9283 35.9962 88.9945 35.4804 81.4583Z" fill="#EE843A"/>
<path d="M42.7583 92.4201C33.4167 91.1789 32.6752 85.1983 32.8525 82.4095C31.4743 83.2559 30.2088 84.8034 30.9262 87.6163C32.1755 92.5168 39.6875 92.6861 42.7583 92.4121V92.4201Z" fill="#F4A36C"/>
<path d="M36.3217 80.4342L36.3875 81.3962C36.6206 84.8011 38.6703 87.2082 40.7188 88.8453C41.738 89.6598 42.7318 90.263 43.4599 90.6904C43.5328 90.7332 43.605 90.7753 43.6756 90.8165C43.9406 90.9712 44.1824 91.1123 44.3502 91.223C44.4395 91.282 44.6012 91.3909 44.7254 91.5321C44.7721 91.5852 44.9523 91.7917 44.9771 92.1138C44.9918 92.3052 44.9484 92.5086 44.8342 92.6891C44.728 92.857 44.592 92.9559 44.494 93.011C44.3829 93.0735 44.2732 93.1066 44.2239 93.121C44.1578 93.1402 44.0875 93.1568 44.0189 93.1711C43.8807 93.2 43.7115 93.2278 43.5205 93.2535C43.1365 93.3051 42.63 93.3527 42.041 93.3813C40.8648 93.4385 39.3255 93.4219 37.7434 93.1973C34.6903 92.7639 30.9676 91.4699 30.0454 87.8488L36.3217 80.4342ZM36.3217 80.4342L35.3652 80.5564M36.3217 80.4342L35.3652 80.5564M35.3652 80.5564L35.4804 81.4583M35.3652 80.5564L35.4804 81.4583M35.4804 81.4583C35.3652 80.5564 35.3648 80.5564 35.3643 80.5565M35.4804 81.4583L35.3643 80.5565M35.3643 80.5565L35.3633 80.5566M35.3643 80.5565L35.3633 80.5566M35.3633 80.5566L35.3608 80.5569M35.3633 80.5566L35.3608 80.5569M35.3608 80.5569L35.3543 80.5578M35.3608 80.5569L35.3543 80.5578M35.3543 80.5578L35.3347 80.5605M35.3543 80.5578L35.3347 80.5605M35.3347 80.5605C35.3189 80.5628 35.2975 80.566 35.271 80.5702M35.3347 80.5605L35.271 80.5702M35.271 80.5702C35.218 80.5787 35.1443 80.5913 35.0532 80.6092M35.271 80.5702L35.0532 80.6092M35.0532 80.6092C34.8714 80.6448 34.6182 80.7017 34.321 80.7881M35.0532 80.6092L34.321 80.7881M34.321 80.7881C33.7323 80.9594 32.9415 81.2553 32.1856 81.7544M34.321 80.7881L32.1856 81.7544M32.1856 81.7544C31.4267 82.2555 30.6737 82.9815 30.223 84.016M32.1856 81.7544L30.223 84.016M30.223 84.016C29.7679 85.0604 29.6589 86.3323 30.0453 87.8486L30.223 84.016ZM43.7152 91.375C43.7146 91.3752 43.7138 91.3754 43.7128 91.3757C43.7215 91.3728 43.7231 91.3727 43.7152 91.375Z" stroke="#262626" stroke-width="1.81852" stroke-miterlimit="10"/>
<rect x="-1.10417" y="1.10417" width="11.0417" height="29.8125" rx="2.20833" transform="matrix(-1 0 0 1 108.766 51.6458)" fill="#EE843A" stroke="#262626" stroke-width="2.20833"/>
<rect x="-1.10417" y="1.10417" width="11.0417" height="38.6458" rx="2.20833" transform="matrix(-1 0 0 1 104.35 47.2292)" fill="#6D6360" stroke="#262626" stroke-width="2.20833"/>
<g opacity="0.1">
<mask id="mask1_1035_6827" style="mask-type:alpha" maskUnits="userSpaceOnUse" x="93" y="47" width="14" height="42">
<rect width="13.25" height="40.8542" rx="3.3125" transform="matrix(-1 0 0 1 106.558 47.2292)" fill="#6D6360"/>
</mask>
<g mask="url(#mask1_1035_6827)">
<path d="M103.797 85.875L97.1724 48.3333L89.9953 52.75L94.964 81.4583L103.797 85.875Z" fill="#D9D9D9"/>
</g>
</g>
<rect x="-1.10417" y="1.10417" width="11.0417" height="38.6458" rx="2.20833" transform="matrix(-1 0 0 1 104.35 47.2292)" stroke="#262626" stroke-width="2.20833"/>
<path d="M95.1715 81.4583C95.1715 81.4583 101.104 82.216 99.7254 87.6242C98.1859 93.6693 87.1195 92.5086 86.6036 92.2185C86.0878 91.9283 94.6556 88.9945 95.1715 81.4583Z" fill="#EE843A"/>
<path d="M87.8935 92.4201C97.2351 91.1789 97.9766 85.1983 97.7993 82.4095C99.1776 83.2559 100.443 84.8034 99.7257 87.6163C98.4764 92.5168 90.9644 92.6861 87.8935 92.4121V92.4201Z" fill="#F4A36C"/>
<path d="M94.3302 80.4342L94.2643 81.3962C94.0313 84.8011 91.9816 87.2082 89.933 88.8453C88.9139 89.6598 87.9201 90.263 87.1919 90.6904C87.119 90.7332 87.0468 90.7753 86.9763 90.8165C86.7112 90.9712 86.4694 91.1123 86.3017 91.223C86.2123 91.282 86.0507 91.3909 85.9265 91.5321C85.8798 91.5852 85.6995 91.7917 85.6748 92.1138C85.6601 92.3052 85.7035 92.5086 85.8177 92.6891C85.9239 92.857 86.0599 92.9559 86.1579 93.011C86.269 93.0735 86.3786 93.1066 86.428 93.121C86.4941 93.1402 86.5643 93.1568 86.6329 93.1711C86.7711 93.2 86.9404 93.2278 87.1313 93.2535C87.5153 93.3051 88.0219 93.3527 88.6109 93.3813C89.7871 93.4385 91.3264 93.4219 92.9085 93.1973C95.9616 92.7639 99.6842 91.4699 100.607 87.8488L94.3302 80.4342ZM94.3302 80.4342L95.2867 80.5564M94.3302 80.4342L95.2867 80.5564M95.2867 80.5564L95.1715 81.4583M95.2867 80.5564L95.1715 81.4583M95.1715 81.4583C95.2867 80.5564 95.2871 80.5564 95.2876 80.5565M95.1715 81.4583L95.2876 80.5565M95.2876 80.5565L95.2886 80.5566M95.2876 80.5565L95.2886 80.5566M95.2886 80.5566L95.291 80.5569M95.2886 80.5566L95.291 80.5569M95.291 80.5569L95.2976 80.5578M95.291 80.5569L95.2976 80.5578M95.2976 80.5578L95.3171 80.5605M95.2976 80.5578L95.3171 80.5605M95.3171 80.5605C95.3329 80.5628 95.3543 80.566 95.3808 80.5702M95.3171 80.5605L95.3808 80.5702M95.3808 80.5702C95.4338 80.5787 95.5075 80.5913 95.5986 80.6092M95.3808 80.5702L95.5986 80.6092M95.5986 80.6092C95.7805 80.6448 96.0336 80.7017 96.3308 80.7881M95.5986 80.6092L96.3308 80.7881M96.3308 80.7881C96.9196 80.9594 97.7103 81.2553 98.4663 81.7544M96.3308 80.7881L98.4663 81.7544M98.4663 81.7544C99.2252 82.2555 99.9781 82.9815 100.429 84.016M98.4663 81.7544L100.429 84.016M100.429 84.016C100.884 85.0604 100.993 86.3323 100.607 87.8486L100.429 84.016ZM86.9366 91.375C86.9373 91.3752 86.9381 91.3754 86.9391 91.3757C86.9303 91.3728 86.9287 91.3727 86.9366 91.375Z" stroke="#262626" stroke-width="1.81852" stroke-miterlimit="10"/>
<rect x="63.2918" y="93.0521" width="5.52083" height="5.52083" rx="1.65625" fill="#EE843A" stroke="#262626" stroke-width="1.10417"/>
<mask id="path-31-outside-1_1035_6827" maskUnits="userSpaceOnUse" x="44.5601" y="64.5886" width="15" height="17" fill="black">
<rect fill="white" x="44.5601" y="64.5886" width="15" height="17"/>
<path fill-rule="evenodd" clip-rule="evenodd" d="M50.09 66.9588C49.8745 66.5554 49.417 66.4682 49.0682 66.764C48.7194 67.0598 48.6114 67.6267 48.8269 68.0301L51.5186 73.0688L46.9121 76.9755C46.5633 77.2713 46.4553 77.8382 46.6708 78.2416C46.8863 78.645 47.3437 78.7322 47.6925 78.4364L52.299 74.5297L55.134 79.8367C55.3495 80.2401 55.807 80.3273 56.1558 80.0315C56.5046 79.7357 56.6127 79.1688 56.3972 78.7654L53.5621 73.4584L57.9012 69.7784C58.25 69.4826 58.3581 68.9158 58.1426 68.5124C57.9271 68.109 57.4696 68.0217 57.1208 68.3176L52.7817 71.9975L50.09 66.9588Z"/>
</mask>
<path fill-rule="evenodd" clip-rule="evenodd" d="M50.09 66.9588C49.8745 66.5554 49.417 66.4682 49.0682 66.764C48.7194 67.0598 48.6114 67.6267 48.8269 68.0301L51.5186 73.0688L46.9121 76.9755C46.5633 77.2713 46.4553 77.8382 46.6708 78.2416C46.8863 78.645 47.3437 78.7322 47.6925 78.4364L52.299 74.5297L55.134 79.8367C55.3495 80.2401 55.807 80.3273 56.1558 80.0315C56.5046 79.7357 56.6127 79.1688 56.3972 78.7654L53.5621 73.4584L57.9012 69.7784C58.25 69.4826 58.3581 68.9158 58.1426 68.5124C57.9271 68.109 57.4696 68.0217 57.1208 68.3176L52.7817 71.9975L50.09 66.9588Z" fill="#68DBCD"/>
<path d="M49.0682 66.764L48.354 65.9219L49.0682 66.764ZM50.09 66.9588L51.0639 66.4385V66.4385L50.09 66.9588ZM48.8269 68.0301L47.8529 68.5504L47.8529 68.5504L48.8269 68.0301ZM51.5186 73.0688L52.2328 73.9109L52.9124 73.3345L52.4925 72.5485L51.5186 73.0688ZM46.9121 76.9755L46.198 76.1334H46.198L46.9121 76.9755ZM46.6708 78.2416L47.6447 77.7213L47.6447 77.7213L46.6708 78.2416ZM47.6925 78.4364L46.9784 77.5943H46.9784L47.6925 78.4364ZM52.299 74.5297L53.2729 74.0094L52.6282 72.8026L51.5848 73.6876L52.299 74.5297ZM55.134 79.8367L56.108 79.3164L55.134 79.8367ZM56.1558 80.0315L55.4416 79.1894L56.1558 80.0315ZM56.3972 78.7654L55.4233 79.2857L55.4233 79.2857L56.3972 78.7654ZM53.5621 73.4584L52.8479 72.6163L52.1683 73.1927L52.5882 73.9787L53.5621 73.4584ZM57.9012 69.7784L57.187 68.9363L57.187 68.9363L57.9012 69.7784ZM57.1208 68.3176L57.835 69.1597V69.1597L57.1208 68.3176ZM52.7817 71.9975L51.8078 72.5178L52.4525 73.7246L53.4959 72.8396L52.7817 71.9975ZM49.7824 67.6061C49.7273 67.6528 49.5963 67.717 49.4223 67.6838C49.2484 67.6507 49.1501 67.5428 49.1161 67.4791L51.0639 66.4385C50.8144 65.9714 50.3796 65.6182 49.8359 65.5146C49.2921 65.4109 48.7579 65.5794 48.354 65.9219L49.7824 67.6061ZM49.8008 67.5098C49.8155 67.5375 49.819 67.5568 49.8198 67.5628C49.8205 67.5686 49.8197 67.5681 49.8206 67.5635C49.8214 67.5589 49.8224 67.5587 49.8196 67.5638C49.8166 67.5691 49.8063 67.5858 49.7824 67.6061L48.354 65.9219C47.6087 66.5541 47.3924 67.6883 47.8529 68.5504L49.8008 67.5098ZM52.4925 72.5485L49.8008 67.5098L47.8529 68.5504L50.5447 73.5891L52.4925 72.5485ZM47.6263 77.8176L52.2328 73.9109L50.8044 72.2267L46.198 76.1334L47.6263 77.8176ZM47.6447 77.7213C47.6594 77.749 47.6629 77.7683 47.6637 77.7743C47.6644 77.7801 47.6636 77.7796 47.6645 77.775C47.6653 77.7704 47.6663 77.7702 47.6635 77.7753C47.6605 77.7806 47.6502 77.7973 47.6263 77.8176L46.198 76.1334C45.4526 76.7656 45.2363 77.8998 45.6969 78.7619L47.6447 77.7213ZM46.9784 77.5943C47.0334 77.5476 47.1645 77.4834 47.3384 77.5166C47.5124 77.5497 47.6106 77.6576 47.6447 77.7213L45.6969 78.7619C45.9464 79.229 46.3811 79.5822 46.9249 79.6858C47.4686 79.7895 48.0028 79.621 48.4067 79.2785L46.9784 77.5943ZM51.5848 73.6876L46.9784 77.5943L48.4067 79.2785L53.0132 75.3718L51.5848 73.6876ZM56.108 79.3164L53.2729 74.0094L51.3251 75.0499L54.1601 80.357L56.108 79.3164ZM55.4416 79.1894C55.4967 79.1427 55.6278 79.0785 55.8017 79.1117C55.9757 79.1448 56.0739 79.2527 56.108 79.3164L54.1601 80.357C54.4097 80.8241 54.8444 81.1773 55.3882 81.2809C55.9319 81.3846 56.4661 81.2161 56.87 80.8736L55.4416 79.1894ZM55.4233 79.2857C55.4085 79.2581 55.4051 79.2387 55.4043 79.2327C55.4035 79.2269 55.4044 79.2274 55.4035 79.232C55.4026 79.2366 55.4016 79.2368 55.4045 79.2317C55.4074 79.2264 55.4177 79.2097 55.4416 79.1894L56.87 80.8736C57.6154 80.2415 57.8316 79.1072 57.3711 78.2452L55.4233 79.2857ZM52.5882 73.9787L55.4233 79.2857L57.3711 78.2452L54.536 72.9381L52.5882 73.9787ZM57.187 68.9363L52.8479 72.6163L54.2763 74.3005L58.6154 70.6205L57.187 68.9363ZM57.1687 69.0326C57.1539 69.005 57.1505 68.9857 57.1497 68.9796C57.1489 68.9738 57.1498 68.9744 57.1489 68.979C57.148 68.9836 57.147 68.9838 57.1499 68.9787C57.1528 68.9733 57.1631 68.9566 57.187 68.9363L58.6154 70.6205C59.3607 69.9884 59.577 68.8541 59.1165 67.9921L57.1687 69.0326ZM57.835 69.1597C57.7799 69.2064 57.6488 69.2705 57.4749 69.2374C57.301 69.2042 57.2027 69.0963 57.1687 69.0326L59.1165 67.9921C58.8669 67.525 58.4322 67.1718 57.8885 67.0681C57.3447 66.9645 56.8105 67.1329 56.4066 67.4755L57.835 69.1597ZM53.4959 72.8396L57.835 69.1597L56.4066 67.4755L52.0675 71.1554L53.4959 72.8396ZM49.1161 67.4791L51.8078 72.5178L53.7556 71.4773L51.0639 66.4385L49.1161 67.4791Z" fill="#262626" mask="url(#path-31-outside-1_1035_6827)"/>
<mask id="path-33-outside-2_1035_6827" maskUnits="userSpaceOnUse" x="73.4985" y="65.4478" width="14" height="16" fill="black">
<rect fill="white" x="73.4985" y="65.4478" width="14" height="16"/>
<path fill-rule="evenodd" clip-rule="evenodd" d="M82.1968 67.818C82.4123 67.4146 82.8697 67.3273 83.2185 67.6232C83.5673 67.919 83.6754 68.4858 83.4599 68.8892L81.0947 73.3167L85.146 76.7526C85.4948 77.0484 85.6029 77.6152 85.3874 78.0186C85.1719 78.422 84.7144 78.5092 84.3656 78.2134L80.3143 74.7775L77.821 79.4448C77.6055 79.8482 77.1481 79.9354 76.7993 79.6396C76.4504 79.3438 76.3424 78.777 76.5579 78.3736L79.0512 73.7063L75.2387 70.4729C74.8899 70.177 74.7818 69.6102 74.9973 69.2068C75.2128 68.8034 75.6703 68.7162 76.0191 69.012L79.8316 72.2454L82.1968 67.818Z"/>
</mask>
<path fill-rule="evenodd" clip-rule="evenodd" d="M82.1968 67.818C82.4123 67.4146 82.8697 67.3273 83.2185 67.6232C83.5673 67.919 83.6754 68.4858 83.4599 68.8892L81.0947 73.3167L85.146 76.7526C85.4948 77.0484 85.6029 77.6152 85.3874 78.0186C85.1719 78.422 84.7144 78.5092 84.3656 78.2134L80.3143 74.7775L77.821 79.4448C77.6055 79.8482 77.1481 79.9354 76.7993 79.6396C76.4504 79.3438 76.3424 78.777 76.5579 78.3736L79.0512 73.7063L75.2387 70.4729C74.8899 70.177 74.7818 69.6102 74.9973 69.2068C75.2128 68.8034 75.6703 68.7162 76.0191 69.012L79.8316 72.2454L82.1968 67.818Z" fill="#68DBCD"/>
<path d="M83.2185 67.6232L82.5043 68.4653V68.4653L83.2185 67.6232ZM82.1968 67.818L81.2228 67.2977L81.2228 67.2977L82.1968 67.818ZM83.4599 68.8892L84.4338 69.4095L84.4338 69.4095L83.4599 68.8892ZM81.0947 73.3167L80.3806 74.1588L79.7009 73.5824L80.1208 72.7964L81.0947 73.3167ZM85.146 76.7526L85.8602 75.9105L85.8602 75.9105L85.146 76.7526ZM85.3874 78.0186L84.4135 77.4984L84.4135 77.4984L85.3874 78.0186ZM84.3656 78.2134L85.0798 77.3713L85.0798 77.3713L84.3656 78.2134ZM80.3143 74.7775L79.3404 74.2573L79.9851 73.0505L81.0285 73.9354L80.3143 74.7775ZM77.821 79.4448L76.8471 78.9246L77.821 79.4448ZM76.7993 79.6396L77.5134 78.7975L77.5134 78.7975L76.7993 79.6396ZM76.5579 78.3736L75.584 77.8533L75.584 77.8533L76.5579 78.3736ZM79.0512 73.7063L79.7654 72.8642L80.445 73.4405L80.0251 74.2265L79.0512 73.7063ZM75.2387 70.4729L74.5245 71.315V71.315L75.2387 70.4729ZM74.9973 69.2068L74.0234 68.6865L74.0234 68.6865L74.9973 69.2068ZM76.0191 69.012L75.3049 69.8541V69.8541L76.0191 69.012ZM79.8316 72.2454L80.8055 72.7657L80.1608 73.9724L79.1174 73.0875L79.8316 72.2454ZM82.5043 68.4653C82.5594 68.512 82.6905 68.5761 82.8644 68.543C83.0384 68.5098 83.1366 68.4019 83.1707 68.3382L81.2228 67.2977C81.4724 66.8306 81.9071 66.4774 82.4509 66.3737C82.9946 66.2701 83.5288 66.4385 83.9327 66.7811L82.5043 68.4653ZM82.486 68.369C82.4712 68.3966 82.4678 68.4159 82.467 68.422C82.4663 68.4278 82.4671 68.4273 82.4662 68.4226C82.4653 68.418 82.4644 68.4178 82.4672 68.4229C82.4701 68.4283 82.4804 68.445 82.5043 68.4653L83.9327 66.7811C84.6781 67.4132 84.8943 68.5475 84.4338 69.4095L82.486 68.369ZM80.1208 72.7964L82.486 68.369L84.4338 69.4095L82.0686 73.8369L80.1208 72.7964ZM84.4318 77.5947L80.3806 74.1588L81.8089 72.4746L85.8602 75.9105L84.4318 77.5947ZM84.4135 77.4984C84.3987 77.526 84.3953 77.5453 84.3945 77.5514C84.3938 77.5572 84.3946 77.5566 84.3937 77.552C84.3928 77.5474 84.3919 77.5472 84.3947 77.5523C84.3976 77.5577 84.4079 77.5744 84.4318 77.5946L85.8602 75.9105C86.6056 76.5426 86.8218 77.6769 86.3613 78.5389L84.4135 77.4984ZM85.0798 77.3713C85.0247 77.3246 84.8937 77.2604 84.7197 77.2936C84.5458 77.3268 84.4475 77.4346 84.4135 77.4984L86.3613 78.5389C86.1118 79.006 85.677 79.3592 85.1333 79.4629C84.5895 79.5665 84.0553 79.3981 83.6514 79.0555L85.0798 77.3713ZM81.0285 73.9354L85.0798 77.3713L83.6514 79.0555L79.6002 75.6196L81.0285 73.9354ZM76.8471 78.9246L79.3404 74.2573L81.2882 75.2978L78.7949 79.9651L76.8471 78.9246ZM77.5134 78.7975C77.4584 78.7508 77.3273 78.6866 77.1534 78.7198C76.9794 78.753 76.8811 78.8609 76.8471 78.9246L78.7949 79.9651C78.5454 80.4322 78.1107 80.7854 77.5669 80.8891C77.0232 80.9927 76.489 80.8243 76.0851 80.4817L77.5134 78.7975ZM77.5318 78.8938C77.5466 78.8662 77.55 78.8469 77.5508 78.8408C77.5515 78.835 77.5507 78.8355 77.5516 78.8402C77.5525 78.8448 77.5534 78.845 77.5506 78.8398C77.5476 78.8345 77.5373 78.8178 77.5134 78.7975L76.0851 80.4817C75.3397 79.8496 75.1235 78.7153 75.584 77.8533L77.5318 78.8938ZM80.0251 74.2265L77.5318 78.8938L75.584 77.8533L78.0773 73.186L80.0251 74.2265ZM75.9529 69.6308L79.7654 72.8642L78.337 74.5484L74.5245 71.315L75.9529 69.6308ZM75.9712 69.7271C75.986 69.6994 75.9894 69.6801 75.9902 69.674C75.9909 69.6682 75.9901 69.6688 75.991 69.6734C75.9919 69.678 75.9928 69.6782 75.99 69.6731C75.9871 69.6677 75.9768 69.651 75.9529 69.6308L74.5245 71.315C73.7791 70.6828 73.5629 69.5486 74.0234 68.6865L75.9712 69.7271ZM75.3049 69.8541C75.36 69.9008 75.491 69.965 75.665 69.9318C75.8389 69.8987 75.9372 69.7908 75.9712 69.7271L74.0234 68.6865C74.2729 68.2194 74.7077 67.8662 75.2514 67.7626C75.7952 67.6589 76.3294 67.8274 76.7333 68.1699L75.3049 69.8541ZM79.1174 73.0875L75.3049 69.8541L76.7333 68.1699L80.5458 71.4033L79.1174 73.0875ZM83.1707 68.3382L80.8055 72.7657L78.8577 71.7251L81.2228 67.2977L83.1707 68.3382Z" fill="#262626" mask="url(#path-33-outside-2_1035_6827)"/>
</svg>
