<svg width="114" height="41" viewBox="0 0 114 41" fill="none" xmlns="http://www.w3.org/2000/svg">
<mask id="path-1-inside-1_1029_6971" fill="white">
<path fill-rule="evenodd" clip-rule="evenodd" d="M0 5.73663V41H0.292259L5.65603 38L7.33397 41H114V4.80421L110.346 6.84799L106.516 0H10.2566L0 5.73663Z"/>
</mask>
<path fill-rule="evenodd" clip-rule="evenodd" d="M0 5.73663V41H0.292259L5.65603 38L7.33397 41H114V4.80421L110.346 6.84799L106.516 0H10.2566L0 5.73663Z" fill="#43D8BC"/>
<path d="M0 41H-2V43H0V41ZM0 5.73663L-0.97629 3.9911L-2 4.56367V5.73663H0ZM0.292259 41V43H0.813569L1.26855 42.7455L0.292259 41ZM5.65603 38L7.40156 37.0237L6.42527 35.2782L4.67974 36.2545L5.65603 38ZM7.33397 41L5.58844 41.9763L6.16101 43H7.33397V41ZM114 41V43H116V41H114ZM114 4.80421H116V1.39401L113.024 3.05868L114 4.80421ZM110.346 6.84799L108.6 7.82428L109.577 9.5698L111.322 8.59351L110.346 6.84799ZM106.516 0L108.261 -0.976291L107.689 -2H106.516V0ZM10.2566 0V-2H9.7353L9.28032 -1.74553L10.2566 0ZM2 41V5.73663H-2V41H2ZM0.292259 39H0V43H0.292259V39ZM4.67974 36.2545L-0.684031 39.2545L1.26855 42.7455L6.63232 39.7455L4.67974 36.2545ZM9.07949 40.0237L7.40156 37.0237L3.91051 38.9763L5.58844 41.9763L9.07949 40.0237ZM114 39H7.33397V43H114V39ZM112 4.80421V41H116V4.80421H112ZM111.322 8.59351L114.976 6.54973L113.024 3.05868L109.37 5.10246L111.322 8.59351ZM104.77 0.976291L108.6 7.82428L112.091 5.8717L108.261 -0.976291L104.77 0.976291ZM10.2566 2H106.516V-2H10.2566V2ZM9.28032 -1.74553L-0.97629 3.9911L0.97629 7.48215L11.2329 1.74553L9.28032 -1.74553Z" fill="#262626" mask="url(#path-1-inside-1_1029_6971)"/>
<circle cx="16" cy="21" r="6.125" fill="white" stroke="#262626" stroke-width="1.75"/>
<path d="M10.0832 24.4385L21.0674 17.4356" stroke="#262626" stroke-width="1.75"/>
<path d="M42.7432 30.6855L39.5205 28H33.5371V14.6152L35.6855 12.4668H42.958V30.6855H42.7432ZM36.8027 15.4209V25.0566H39.7031V15.4209H36.8027ZM53.9898 20.126V25.8516L51.8414 28H44.7837V23.0049H47.9527V25.0566H50.7349V21.5654H49.3062V18.6113H50.7349V15.3887H47.9527V17.3115H44.7837V14.6045L47.0933 12.4668H53.732V18.6006L51.9703 20.126H53.9898ZM55.7081 17.1289V10.8555H58.4581V17.1289H55.7081ZM68.6198 28H59.9509V22.7148L65.3649 17.7949V15.4209H63.2165V17.0859H60.112V14.6152L62.2604 12.4668H68.6198V18.998L63.2165 23.8105V25.0566H68.6198V28ZM79.5442 20.126V25.8516L77.3957 28H70.3381V23.0049H73.5071V25.0566H76.2893V21.5654H74.8606V18.6113H76.2893V15.3887H73.5071V17.3115H70.3381V14.6045L72.6477 12.4668H79.2864V18.6006L77.5246 20.126H79.5442Z" fill="#262626"/>
<circle cx="98" cy="21" r="6.125" fill="white" stroke="#262626" stroke-width="1.75"/>
<path d="M94.0739 15.445L101.077 26.4292" stroke="#262626" stroke-width="1.75"/>
</svg>
