<svg width="272" height="189" viewBox="0 0 272 189" fill="none" xmlns="http://www.w3.org/2000/svg">
<path fill-rule="evenodd" clip-rule="evenodd" d="M150.851 8H110.96L96 16.367V77.3015L106.877 88H164.918L176 81.8015V17.0459L166.628 8H158.891L152.767 11.4253L150.851 8Z" fill="#262626"/>
<mask id="path-2-inside-1_1093_1196" fill="white">
<path fill-rule="evenodd" clip-rule="evenodd" d="M150.851 0H110.96L96 8.36701V69.3015L106.877 80H164.918L176 73.8015V9.04589L166.628 0H158.891L152.767 3.42531L150.851 0Z"/>
</mask>
<path fill-rule="evenodd" clip-rule="evenodd" d="M150.851 0H110.96L96 8.36701V69.3015L106.877 80H164.918L176 73.8015V9.04589L166.628 0H158.891L152.767 3.42531L150.851 0Z" fill="white"/>
<path d="M110.96 0V-2H110.438L109.983 -1.74553L110.96 0ZM150.851 0L152.597 -0.976291L152.024 -2H150.851V0ZM96 8.36701L95.0237 6.62148L94 7.19406V8.36701H96ZM96 69.3015H94V70.1397L94.5976 70.7274L96 69.3015ZM106.877 80L105.475 81.4259L106.059 82H106.877V80ZM164.918 80V82H165.439L165.894 81.7455L164.918 80ZM176 73.8015L176.976 75.547L178 74.9744V73.8015H176ZM176 9.04589H178V8.19664L177.389 7.60685L176 9.04589ZM166.628 0L168.017 -1.43903L167.436 -2H166.628V0ZM158.891 0V-2H158.37L157.915 -1.74553L158.891 0ZM152.767 3.42531L151.021 4.4016L151.998 6.14713L153.743 5.17084L152.767 3.42531ZM110.96 2H150.851V-2H110.96V2ZM96.9763 10.1125L111.936 1.74553L109.983 -1.74553L95.0237 6.62148L96.9763 10.1125ZM98 69.3015V8.36701H94V69.3015H98ZM108.28 78.5741L97.4024 67.8756L94.5976 70.7274L105.475 81.4259L108.28 78.5741ZM164.918 78H106.877V82H164.918V78ZM175.024 72.0559L163.941 78.2545L165.894 81.7455L176.976 75.547L175.024 72.0559ZM174 9.04589V73.8015H178V9.04589H174ZM165.239 1.43903L174.611 10.4849L177.389 7.60685L168.017 -1.43903L165.239 1.43903ZM158.891 2H166.628V-2H158.891V2ZM153.743 5.17084L159.867 1.74553L157.915 -1.74553L151.791 1.67979L153.743 5.17084ZM149.106 0.976291L151.021 4.4016L154.512 2.44902L152.597 -0.976291L149.106 0.976291Z" fill="#262626" mask="url(#path-2-inside-1_1093_1196)"/>
<path d="M142.24 27.64C142.16 27.8 142.16 27.8 142.2 27.64C142.24 27.56 142.2 27.48 142.16 27.48C142.04 27.48 141.8 28.04 141.84 28.24C141.88 28.76 142.04 29.04 142.32 29.08L142.56 29.16V41.08V53.04L141.64 53C140.8 53 140.72 52.96 140.76 52.8C140.76 52.68 140.72 52.64 140.68 52.64C140.6 52.68 140.56 52.72 140.56 52.8C140.6 52.92 140.2 53 138.84 53L137.56 53.04L137.12 52.2C136.88 51.72 136.72 51.28 136.72 51.16C136.72 51.08 136.64 50.92 136.6 50.88C136.48 50.76 136.48 50.76 136.6 50.76C136.64 50.76 136.72 50.8 136.72 50.84C136.72 50.88 136.8 50.92 136.92 50.92C137 50.92 137.12 50.84 137.12 50.76C137.12 50.72 137.16 50.64 137.2 50.64C137.24 50.64 137.24 50.52 137.2 50.32C137.12 50.12 137.16 49.96 137.2 49.88C137.32 49.76 137.24 49.56 137.08 49.56C137 49.56 137 49.6 137.04 49.6C137.04 49.64 137.04 49.8 137 50C136.92 50.2 136.96 50.32 137.04 50.44C137.08 50.52 137.08 50.56 137.04 50.56C137 50.52 136.92 50.52 136.92 50.56C136.88 50.56 136.76 50.56 136.6 50.6C136.36 50.64 136.32 50.56 135.96 49.84L135.52 49L135 50.12C134.72 50.72 134.32 51.6 134.08 52.12L133.64 53.04H128.6V39V25H133.84V32.48L133.88 40L134.36 39C134.64 38.48 135 37.72 135.16 37.36L135.44 36.72L137.28 40.48V34.76C137.32 31.6 137.32 29.04 137.36 29.12C137.4 29.16 137.56 29.24 137.68 29.28C137.84 29.32 137.96 29.28 138.04 29.08C138.16 28.96 138.28 28.88 138.36 28.92C138.44 28.96 138.48 28.92 138.44 28.8C138.4 28.68 138.4 28.68 138.56 28.72C138.64 28.76 138.56 28.68 138.36 28.52C138.04 28.32 138 28.28 138.04 28C138.04 27.72 138.04 27.68 137.88 27.68C137.68 27.68 137.64 27.8 137.76 27.88C137.8 27.92 137.8 27.92 137.72 27.88C137.64 27.88 137.52 27.88 137.44 27.88C137.32 27.88 137.32 27.6 137.32 26.44C137.32 25.44 137.32 25.08 137.4 25.2C137.48 25.32 137.6 25.4 137.72 25.4C137.84 25.4 137.88 25.44 137.88 25.6C137.88 25.76 137.92 25.76 138.16 25.68C138.56 25.48 138.56 25.52 138.32 25.28C138 25.04 138.2 24.96 138.64 25.08C139 25.2 139.04 25.28 138.88 25.44C138.72 25.6 138.96 25.72 139.16 25.56C139.28 25.48 139.28 25.44 139.08 25.24L138.84 25H142.56V26.28C142.56 27.08 142.52 27.56 142.44 27.52C142.4 27.48 142.32 27.56 142.24 27.64ZM134.44 43.6C134.28 43.48 134.08 43.6 134.08 43.76C134.08 43.96 134.12 43.96 134.36 43.76C134.48 43.68 134.52 43.64 134.44 43.6ZM133.84 43.8C133.8 43.8 133.72 43.84 133.68 43.92C133.64 43.96 133.68 44 133.76 44C133.88 44 133.92 43.96 133.92 43.92C133.92 43.84 133.88 43.8 133.84 43.8ZM133.64 26.44C133.6 26.48 133.52 26.6 133.56 26.72C133.56 26.92 133.56 26.92 133.64 26.72C133.68 26.6 133.72 26.48 133.72 26.44C133.72 26.4 133.68 26.4 133.64 26.44ZM133.04 37.48C133.04 37.4 133 37.36 132.92 37.36C132.88 37.36 132.84 37.4 132.88 37.48C132.92 37.52 132.96 37.56 133 37.56C133.04 37.56 133.04 37.52 133.04 37.48ZM132.56 27.28C132.44 27.28 132.2 27.48 132.32 27.48C132.36 27.48 132.4 27.6 132.36 27.76C132.32 28.04 132.48 28.36 132.64 28.36C132.68 28.36 132.76 28.32 132.84 28.24C132.88 28.16 132.92 28.04 132.92 27.96C132.84 27.68 132.64 27.28 132.56 27.28ZM129.32 51.96C129.4 52.08 129.56 51.96 129.56 51.76C129.56 51.64 129.56 51.64 129.44 51.72C129.36 51.8 129.32 51.92 129.32 51.96ZM130.76 49.16C130.24 49.08 130.36 49.48 131 49.84C131.28 50 131.28 50 131.16 49.8C131.12 49.68 131.12 49.56 131.12 49.48C131.16 49.4 131.12 49.36 131.08 49.36C131 49.36 130.96 49.32 131 49.28C131.04 49.24 130.92 49.16 130.76 49.16ZM130.84 50.36C130.88 50.44 131.16 50.36 131.16 50.28C131.16 50.28 131.08 50.28 130.96 50.28C130.88 50.28 130.8 50.32 130.84 50.36ZM131.24 52.16C131.28 51.88 131.12 51.96 131.04 52.24C131 52.36 131 52.44 131.08 52.4C131.16 52.4 131.24 52.28 131.24 52.16ZM131.56 46.8C131.8 46.92 131.84 46.88 131.76 46.64C131.76 46.48 131.68 46.44 131.6 46.44C131.44 46.52 131.4 46.76 131.56 46.8ZM131.96 43.96C132.04 43.92 132.16 43.96 132.24 44.04C132.4 44.24 132.72 44.24 132.8 44.08C132.88 43.84 132.72 43.2 132.56 43.16C132.48 43.12 132.48 43.16 132.56 43.36C132.6 43.56 132.6 43.6 132.48 43.6C132.4 43.6 132.36 43.72 132.36 43.84C132.36 44 132.32 44 132.2 43.92C132.08 43.8 132 43.8 131.92 43.92C131.84 44 131.84 44 131.96 43.96ZM132.2 48.6C132.28 48.76 132.4 48.76 132.64 48.64C132.68 48.6 132.72 48.48 132.72 48.4C132.68 48.32 132.72 48.2 132.8 48.12C132.88 48.04 132.92 47.96 132.88 47.96C132.76 47.96 132.52 48.12 132.52 48.2C132.56 48.24 132.52 48.28 132.52 48.24C132.44 48.2 132.16 48.48 132.2 48.6ZM132.64 49.36C132.84 49.48 132.96 49.48 132.88 49.36C132.84 49.32 132.76 49.28 132.68 49.28C132.52 49.28 132.52 49.28 132.64 49.36ZM133.12 47.64C133.28 47.56 133.28 47.56 133.08 47.48C132.8 47.36 132.24 47.48 132.24 47.64C132.24 47.72 132.28 47.76 132.36 47.76C132.4 47.76 132.44 47.84 132.4 47.88C132.36 47.92 132.4 47.96 132.48 47.96C132.56 47.96 132.64 47.88 132.64 47.76C132.64 47.64 132.68 47.6 132.8 47.64C132.88 47.68 133 47.68 133.12 47.64ZM133.24 28.32C133.28 28.28 133.32 28.2 133.32 28.16C133.32 28.12 133.28 28.08 133.24 28.08C133.2 28.08 133.12 28.12 133.12 28.2C133.12 28.32 133.2 28.36 133.24 28.32ZM134.04 48.4C134.04 48.48 134.12 48.56 134.28 48.56C134.44 48.56 134.52 48.48 134.48 48.44C134.48 48.36 134.48 48.24 134.52 48.16C134.6 48.04 134.64 48.04 134.64 48.16C134.64 48.24 134.68 48.28 134.72 48.24C134.84 48.2 134.96 47.6 134.84 47.56C134.56 47.52 134.24 47.52 134.24 47.6C134.24 47.64 134.16 47.68 134.08 47.64C134 47.6 133.96 47.64 133.96 47.68C134 47.72 133.92 47.84 133.8 47.88C133.6 48 133.6 48 133.8 48.08C133.92 48.12 133.92 48.16 133.84 48.16C133.76 48.16 133.6 48.12 133.56 48.04C133.44 47.96 133.44 47.96 133.48 48.16C133.52 48.28 133.52 48.36 133.44 48.36C133.36 48.36 133.36 48.44 133.48 48.52C133.72 48.68 133.92 48.68 133.88 48.52C133.84 48.44 133.88 48.36 133.92 48.32C134 48.28 134.04 48.32 134.04 48.4ZM134.8 50.04C134.88 50.04 134.92 50 134.92 49.96C134.92 49.84 134.36 49.96 134.28 50.08C134.24 50.16 134.28 50.16 134.44 50.12C134.56 50.08 134.72 50.04 134.8 50.04ZM135.28 48C135.28 47.92 135.28 47.88 135.24 47.84C135.16 47.8 135.12 47.84 135.12 47.92C135.12 48.08 135.2 48.12 135.28 48ZM141 41.96C140.92 42.08 140.88 42.52 140.96 42.52C141.04 42.52 141.08 42.48 141.08 42.4C141.08 42.32 141.08 42.24 141.08 42.2C141.08 42.16 141.12 42.12 141.2 42.12C141.28 42.12 141.28 42.12 141.2 42C141.12 41.96 141.04 41.92 141 41.96ZM140.6 25.36C140.56 25.64 140.64 25.64 140.68 25.4C140.72 25.28 140.72 25.16 140.68 25.16C140.64 25.12 140.6 25.2 140.6 25.36ZM140.6 28.36C140.44 28.36 140.44 28.36 140.56 28.44C140.76 28.56 140.76 28.56 140.76 28.44C140.76 28.4 140.68 28.36 140.6 28.36ZM139.76 28.04C139.84 28.12 139.84 28.2 139.72 28.4C139.56 28.76 139.56 28.76 139.76 28.68C139.88 28.64 139.96 28.68 139.96 28.76C139.96 28.8 140 28.84 140.04 28.84C140.08 28.84 140.08 28.72 140.04 28.56C139.96 28.36 140 28.28 140.08 28.28C140.32 28.32 140.28 28.08 140.04 27.96C139.76 27.84 139.52 27.92 139.76 28.04ZM139.2 28.08C139.04 28.08 139.16 28.56 139.32 28.68C139.44 28.76 139.44 28.76 139.52 28.44C139.56 28.2 139.56 28.16 139.44 28.24C139.36 28.24 139.28 28.24 139.28 28.16C139.28 28.12 139.24 28.08 139.2 28.08ZM139.12 46.84C139.04 46.88 139 46.96 139.04 47C139.08 47.04 139.16 47.04 139.24 47C139.32 47 139.36 46.92 139.32 46.88C139.28 46.84 139.2 46.8 139.12 46.84ZM137.44 40.88C137.36 40.96 137.48 41.12 137.68 41.12C137.84 41.12 137.84 41.12 137.68 40.96C137.56 40.88 137.48 40.84 137.44 40.88ZM135.96 38.44C135.88 38.4 135.84 38.44 135.88 38.52C135.96 38.68 135.96 38.68 136.04 38.56C136.08 38.52 136.04 38.44 135.96 38.44ZM136.36 48.56C136.4 48.52 136.32 48.44 136.24 48.4C136.12 48.36 136 48.28 136 48.2C136 48.04 135.76 48.04 135.68 48.16C135.64 48.24 135.68 48.28 135.76 48.28C135.84 48.28 135.92 48.36 135.92 48.48C135.92 48.68 136.24 48.76 136.36 48.56ZM136.72 50.24C136.76 50.24 136.8 50.24 136.8 50.2C136.8 50.2 136.76 50.12 136.72 50.12C136.64 50.08 136.6 50.08 136.6 50.16C136.6 50.2 136.64 50.24 136.72 50.24ZM136.8 43.36C136.96 43.36 137.12 43.36 137.12 43.32C137.12 43.24 137.04 43.2 136.92 43.2C136.84 43.2 136.8 43.2 136.84 43.16C136.92 43.12 136.96 43 136.96 42.96C136.96 42.8 136.8 42.64 136.8 42.8C136.8 42.84 136.72 43 136.6 43.12C136.48 43.24 136.4 43.4 136.4 43.48C136.4 43.64 136.52 43.72 136.64 43.6C136.72 43.52 136.72 43.48 136.6 43.4C136.48 43.36 136.56 43.32 136.8 43.36ZM137.12 43.72C137.12 43.76 137.2 43.8 137.36 43.8C137.48 43.8 137.6 43.8 137.6 43.76C137.6 43.76 137.48 43.72 137.36 43.68C137.2 43.68 137.12 43.68 137.12 43.72ZM137.4 49.36C137.44 49.36 137.48 49.32 137.48 49.28C137.48 49.2 137.48 49.16 137.44 49.16C137.44 49.16 137.4 49.2 137.36 49.28C137.32 49.32 137.32 49.36 137.4 49.36ZM138.16 46.2C138.36 46.28 138.4 46.28 138.32 46.2C138.24 46.12 138.24 46 138.24 45.96C138.28 45.88 138.24 45.8 138.2 45.76C138.16 45.72 138.08 45.6 138.08 45.48C138.08 45.36 138.04 45.2 138 45.12C137.92 44.96 137.88 44.96 137.8 45.12C137.72 45.2 137.68 45.2 137.68 45.12C137.68 45.04 137.64 45 137.6 45C137.56 45 137.52 45.16 137.56 45.4C137.56 45.6 137.52 45.76 137.48 45.76C137.44 45.72 137.48 45.84 137.52 46C137.64 46.28 137.76 46.36 137.84 46.2C137.88 46.12 138 46.12 138.16 46.2ZM138.04 43.12C138.16 42.84 138.2 42.84 138.4 42.92C138.56 43 138.64 43 138.68 42.92C138.8 42.72 138.68 42.48 138.52 42.64C138.4 42.72 138.4 42.72 138.4 42.52C138.4 42.32 138.32 42.28 138.08 42.28C137.92 42.28 137.8 42.32 137.8 42.4C137.8 42.52 137.76 42.52 137.64 42.44C137.56 42.36 137.52 42.36 137.52 42.48C137.56 42.6 137.6 42.72 137.64 42.76C137.72 42.8 137.64 42.84 137.52 42.84C137.24 42.84 137.24 43.08 137.48 43.2C137.6 43.28 137.68 43.4 137.68 43.52C137.68 43.64 137.76 43.72 137.8 43.72C137.84 43.72 137.88 43.76 137.88 43.8C137.88 43.88 137.84 43.88 137.8 43.84C137.72 43.8 137.68 43.84 137.72 43.88C137.84 44.04 137.96 43.96 138.04 43.72C138.04 43.6 138.04 43.52 137.92 43.52C137.84 43.52 137.8 43.48 137.8 43.4C137.8 43.32 137.84 43.32 137.88 43.36C137.92 43.4 138 43.28 138.04 43.12ZM141.08 48.4C141.4 48.12 141.44 47.88 141.2 47.88C141.12 47.88 141.08 47.84 141.12 47.76C141.2 47.64 140.88 47.16 140.76 47.24C140.64 47.32 140.72 46.96 140.88 46.88C141 46.8 140.96 46.8 140.8 46.84C140.68 46.88 140.52 46.8 140.32 46.68C140.08 46.48 140.04 46.48 139.96 46.64C139.92 46.72 139.8 46.76 139.76 46.72C139.72 46.68 139.72 46.76 139.76 46.88C139.88 47.08 139.88 47.12 139.72 47.2C139.64 47.24 139.6 47.36 139.64 47.4C139.68 47.48 139.64 47.48 139.56 47.44C139.48 47.44 139.36 47.48 139.28 47.6C139.2 47.76 139.16 47.76 139.04 47.68C138.92 47.6 138.88 47.6 138.88 47.68C138.88 47.72 138.96 47.84 139.08 47.88C139.24 48 139.24 48.04 139.12 48.2C139 48.32 139 48.36 139.12 48.4C139.2 48.44 139.28 48.4 139.28 48.36C139.28 48.28 139.4 48.36 139.56 48.52C139.88 48.8 139.88 48.96 139.64 48.96C139.56 48.96 139.6 48.92 139.68 48.84C139.8 48.76 139.72 48.76 139.48 48.8C139.24 48.84 139.08 48.8 139.08 48.76C139 48.64 138.6 48.76 138.6 48.92C138.6 49 138.56 49.04 138.48 49C138.44 48.96 138.44 49.12 138.52 49.32C138.6 49.52 138.68 49.68 138.68 49.72C138.68 49.76 138.76 49.76 138.8 49.72C138.88 49.72 138.96 49.8 138.96 49.92C139 50.2 139.2 50.24 139.4 50C139.44 49.92 139.56 49.84 139.64 49.84C139.72 49.84 139.8 49.8 139.84 49.72C139.88 49.64 139.92 49.6 139.96 49.6C140.04 49.64 140.08 49.6 140.12 49.56C140.16 49.52 140.12 49.44 140.08 49.4C139.92 49.32 139.96 49.2 140.12 49.04C140.2 48.92 140.24 48.88 140.2 48.88C140.16 48.88 140.24 48.76 140.36 48.64C140.52 48.52 140.6 48.48 140.68 48.56C140.76 48.6 140.88 48.56 141.08 48.4Z" fill="#94DEA5"/>
<path fill-rule="evenodd" clip-rule="evenodd" d="M53.2718 108H14.9595L0 116.367V137.483L1.93156 140.937L0 142.017V177.301L10.8774 188H21.8512L27.6316 184.053L30.0704 188H68.9174L80 181.801V117.046L70.6275 108H61.3119L55.1876 111.425L53.2718 108Z" fill="#262626"/>
<path fill-rule="evenodd" clip-rule="evenodd" d="M53.2718 100H14.9595L0 108.367V129.483L1.93156 132.937L0 134.017V169.301L10.8774 180H21.8512L27.6316 176.053L30.0704 180H68.9174L80 173.801V109.046L70.6275 100H61.3119L55.1876 103.425L53.2718 100Z" fill="white"/>
<path fill-rule="evenodd" clip-rule="evenodd" d="M53.2718 100H14.9595L0 108.367V129.483L1.93156 132.937L0 134.017V169.301L10.8774 180H21.8512L27.6316 176.053L30.0704 180H68.9174L80 173.801V109.046L70.6275 100H61.3119L55.1876 103.425L53.2718 100ZM61.8332 102L54.4184 106.147L52.0989 102H15.4809L2 109.54V128.962L4.65338 133.706L2 135.19V168.463L11.6962 178H21.2335L28.2327 173.22L31.1857 178H68.396L78 172.628V109.896L69.8197 102H61.8332Z" fill="#262626"/>
<path d="M39.88 125H46.6V153.04H41.24L41.2 140.12L37.88 142.76V152.92H32.56V139.72C32.56 132.48 32.6 126.6 32.6 126.72C32.68 127 32.8 126.92 32.8 126.56C32.84 126.32 32.8 126.28 32.68 126.32C32.56 126.36 32.56 126.28 32.56 125.84C32.56 125.52 32.56 125.32 32.64 125.32C32.68 125.36 32.76 125.32 32.8 125.2C32.84 125.04 32.88 125 32.92 125.08C33 125.2 33.04 125.2 33.08 125.12C33.12 125.04 35.08 125 39.88 125ZM39.68 128.2C39.6 128.2 39.56 128.2 39.56 128.28C39.56 128.32 39.6 128.36 39.68 128.36C39.72 128.36 39.76 128.36 39.76 128.32C39.76 128.28 39.72 128.24 39.68 128.2ZM38.4 128.24C38.24 128.28 38.28 128.48 38.4 128.8C38.52 129.08 38.76 129.12 39.28 128.96C39.44 128.92 39.52 128.84 39.48 128.72C39.48 128.6 39.4 128.48 39.36 128.48C39.32 128.44 39.32 128.4 39.4 128.32C39.48 128.2 39.48 128.16 39.32 128.16C39.2 128.16 39.08 128.24 39 128.28C38.92 128.36 38.84 128.36 38.8 128.32C38.76 128.24 38.68 128.2 38.6 128.24C38.56 128.24 38.44 128.24 38.4 128.24ZM35.64 146.24C35.4 146.24 35.4 146.24 35.56 146.4C35.68 146.52 35.8 146.6 35.84 146.6C35.92 146.6 35.88 146.56 35.8 146.48C35.72 146.44 35.72 146.4 35.8 146.4C35.84 146.4 35.92 146.36 35.92 146.32C35.92 146.28 35.8 146.24 35.64 146.24ZM35.2 135.84C35.16 135.8 35.12 135.84 35.12 135.88C35.12 135.96 35.16 136 35.2 136C35.28 136 35.32 135.96 35.32 135.96C35.32 135.92 35.28 135.88 35.2 135.84ZM34.6 126.4C34.52 126.6 34.6 126.92 34.72 126.84C34.76 126.8 34.8 126.68 34.76 126.56C34.76 126.44 34.72 126.32 34.72 126.28C34.72 126.24 34.68 126.32 34.6 126.4ZM33.4 128.36C33.32 128.44 33.32 128.48 33.4 128.56C33.48 128.6 33.52 128.68 33.52 128.72C33.52 128.76 33.52 128.84 33.52 128.92C33.56 128.96 33.56 128.92 33.6 128.76C33.64 128.64 33.6 128.48 33.6 128.4C33.52 128.28 33.48 128.24 33.4 128.36ZM34.8 135.6C34.88 135.72 34.96 135.72 35.04 135.6C35.2 135.44 35.08 135.36 34.68 135.36C34.36 135.36 34.12 135.2 34.12 135C34.12 134.96 34.04 134.88 33.92 134.84C33.76 134.8 33.64 134.84 33.44 135.04C33.32 135.2 33.28 135.36 33.32 135.4C33.36 135.44 33.44 135.56 33.48 135.72L33.56 136L34.04 135.8C34.28 135.68 34.52 135.64 34.56 135.68C34.6 135.72 34.64 135.68 34.6 135.64C34.48 135.48 34.64 135.48 34.8 135.6ZM34.92 146.56C34.92 146.68 35.08 146.76 35.24 146.8C35.28 146.8 35.32 146.72 35.36 146.64C35.44 146.4 35.44 146.36 35.32 146.48C35.24 146.52 35.12 146.56 35.04 146.52C34.96 146.48 34.92 146.52 34.92 146.56ZM36.28 147.36C36.28 147.32 36.24 147.28 36.16 147.28C36.08 147.28 36 147.24 36 147.2C36 147.12 35.88 147.08 35.76 147.08C35.56 147.08 35.52 147.16 35.52 147.32C35.52 147.52 35.52 147.52 35.36 147.36C35.28 147.24 35.2 147.2 35.2 147.24C35.2 147.48 35.44 147.56 35.64 147.48C35.76 147.4 35.92 147.4 36 147.4C36.12 147.44 36.24 147.44 36.28 147.36ZM37.28 139.36C37.24 139.36 37.2 139.4 37.24 139.48C37.28 139.52 37.32 139.56 37.36 139.56C37.36 139.56 37.4 139.52 37.4 139.48C37.4 139.4 37.36 139.36 37.28 139.36ZM37.36 147.4C37.44 147.4 37.48 147.32 37.48 147.24C37.48 147.16 37.44 147.08 37.4 147.08C37.36 147.08 37.28 147.16 37.28 147.24C37.24 147.32 37.24 147.4 37.36 147.4ZM41.24 138.08V130.36H37.88V138.08H41.24ZM45.6 149.28C45.56 149.28 45.52 149.32 45.52 149.4C45.52 149.48 45.56 149.56 45.6 149.56C45.68 149.56 45.72 149.48 45.72 149.4C45.72 149.32 45.68 149.28 45.6 149.28ZM45.52 150.2C45.52 150.2 45.48 150.16 45.4 150.12C45.36 150.08 45.32 150.08 45.32 150.16C45.32 150.2 45.36 150.24 45.4 150.24C45.48 150.24 45.52 150.24 45.52 150.2ZM44.24 143.64C44.36 143.56 44.32 143.52 44.08 143.52C43.8 143.52 43.8 143.52 44 143.36C44.16 143.24 44.16 143.2 43.96 143.32C43.72 143.44 43.68 143.52 43.8 143.64C43.88 143.76 44.04 143.72 44.24 143.64ZM45.28 149.88C45.24 149.92 45.24 149.96 45.32 149.96C45.36 149.96 45.4 149.92 45.4 149.88C45.4 149.8 45.4 149.76 45.36 149.76C45.36 149.76 45.32 149.8 45.28 149.88ZM45.64 151.8C45.8 151.6 45.8 151.56 45.72 151.36C45.52 151.08 45.36 151.08 45.28 151.4C45.28 151.52 45.28 151.64 45.32 151.64C45.4 151.64 45.4 151.72 45.4 151.8C45.4 151.96 45.44 151.96 45.64 151.8Z" fill="#94DEA5"/>
<path fill-rule="evenodd" clip-rule="evenodd" d="M166.627 108H117.004L96 115.59V155.409L100.563 163.568L96 166.12V177.301L106.877 188H164.917L176 181.801V155.085L171.533 147.098L176 144.599V117.046L166.627 108Z" fill="#262626"/>
<path fill-rule="evenodd" clip-rule="evenodd" d="M166.627 100H117.004L96 107.59V147.409L100.563 155.568L96 158.12V169.301L106.877 180H164.917L176 173.801V147.085L171.533 139.098L176 136.599V109.046L166.627 100Z" fill="white"/>
<path fill-rule="evenodd" clip-rule="evenodd" d="M176 136.599V109.046L166.627 100H117.004L96 107.59V147.409L100.563 155.568L96 158.12V169.301L106.877 180H164.917L176 173.801V147.085L171.533 139.098L176 136.599ZM174 147.606L168.811 138.328L174 135.426V109.896L165.82 102H117.354L98 108.993V146.888L103.285 156.337L98 159.293V168.463L107.696 178H164.396L174 172.628V147.606Z" fill="#262626"/>
<path d="M141.72 147.28C141.68 147.08 141.68 147.04 141.96 147.08H142.24V150.04C142.24 152.84 142.24 152.96 142.08 152.92C141.96 152.92 141.8 152.88 141.76 152.8C141.48 152.6 140.76 152.6 140.84 152.84C140.88 152.96 140.16 153 134.52 153H128.2V151.12C128.24 149.72 128.28 149.28 128.36 149.28C128.44 149.32 128.48 149.28 128.48 149.24C128.48 149.16 128.56 149.16 128.72 149.2C129.04 149.36 129.16 149.16 128.88 149C128.64 148.84 128.4 148.88 128.36 149.04C128.36 149.12 128.32 149.08 128.28 148.96C128.24 148.88 128.2 147.92 128.2 146.84C128.2 145.08 128.2 144.92 128.36 145C128.44 145 129.64 145.32 131.04 145.68L133.52 146.28V147.72H136.92V140.6L136.12 140.32C135.72 140.16 133.76 139.44 131.84 138.72C129.6 137.88 128.28 137.36 128.28 137.28C128.28 137.2 128.32 137.12 128.4 137.12C128.44 137.12 128.48 137 128.44 136.8C128.4 136.64 128.36 136.36 128.32 136.24C128.28 136.04 128.32 136 128.48 136C128.6 136 128.68 136.04 128.68 136.08C128.68 136.28 128.96 136 129 135.72C129.04 135.52 129 135.44 128.92 135.48C128.84 135.52 128.76 135.48 128.76 135.44C128.76 135.4 128.8 135.36 128.88 135.36C128.92 135.36 128.92 135.24 128.92 135.12C128.92 135 128.88 134.88 128.88 134.84C128.88 134.8 128.8 134.76 128.68 134.76C128.44 134.76 128.32 134.48 128.52 134.4C128.6 134.36 128.64 134.28 128.64 134.24C128.6 134.2 128.52 134.2 128.44 134.28C128.32 134.36 128.28 134.2 128.28 133.12C128.28 132.4 128.24 130.72 128.24 129.32C128.16 127.44 128.2 126.84 128.28 126.84C128.44 126.84 128.68 126.56 128.68 126.4C128.68 126.32 128.64 126.36 128.56 126.44C128.44 126.68 128.24 126.56 128.24 126.24C128.24 126 128.24 125.96 128.4 126.04C128.52 126.12 128.68 126.12 128.76 126.12C128.92 126.08 128.96 126.12 128.92 126.52C128.88 127.16 128.8 127.44 128.68 127.36C128.64 127.32 128.6 127.36 128.6 127.4C128.6 127.48 128.72 127.52 128.84 127.52C129 127.52 129.08 127.56 129.04 127.6C128.84 127.72 128.88 128 129.08 128.04C129.28 128.12 129.32 128.04 129.28 127.56C129.28 127.32 129.32 127.24 129.48 127.16C129.6 127.12 129.76 127.16 129.84 127.24C129.92 127.32 129.96 127.32 130.04 127.2C130.08 127.08 130.16 127.04 130.24 127.04C130.32 127.04 130.36 127 130.32 126.92C130.24 126.8 130.48 126.8 130.64 126.92C130.72 126.96 130.88 126.96 131.04 126.88C131.24 126.76 131.32 126.76 131.36 126.84C131.4 126.92 131.44 126.92 131.48 126.8C131.52 126.72 131.56 126.72 131.68 126.8C131.76 126.88 131.92 126.92 132 126.88C132.08 126.88 132.16 126.88 132.16 126.92C132.16 127.04 132.6 127.2 132.76 127.12C132.88 127.04 132.84 127.04 132.72 126.96C132.44 126.88 132.52 126.72 132.8 126.8C132.92 126.8 133.04 126.8 133.08 126.76C133.12 126.68 133.2 126.68 133.28 126.68C133.36 126.72 133.52 126.64 133.64 126.52C133.84 126.28 134.04 126.36 134.04 126.68C134.08 126.84 134.12 126.88 134.28 126.84C134.4 126.84 134.52 126.88 134.56 126.92C134.64 127 134.72 126.92 134.84 126.72C134.92 126.56 135.08 126.44 135.12 126.44C135.2 126.48 135.28 126.4 135.28 126.28C135.32 126.16 135.28 126.12 135.2 126.16C135.08 126.2 135 126.16 134.92 126.04C134.84 125.92 134.8 125.92 134.72 126.04C134.68 126.12 134.64 126.12 134.6 125.96C134.52 125.84 134.48 125.84 134.44 125.92C134.4 126 134.32 126 134.12 125.84C133.92 125.6 133.88 125.6 133.76 125.8C133.64 125.96 133.44 125.92 133.44 125.68C133.44 125.6 133.36 125.56 133.24 125.56C133.08 125.56 132.76 125.24 132.76 125.12C132.76 125.08 133 125.04 133.28 125.04C133.68 125.04 133.84 125.08 133.88 125.2C133.92 125.28 134.04 125.36 134.2 125.36C134.32 125.36 134.44 125.28 134.44 125.2C134.44 125.08 134.72 125.04 136.6 125.04H138.72L138.4 125.28C137.88 125.6 137.76 125.72 137.84 125.92C137.88 126 137.92 126.04 137.96 126C138.08 125.92 138.28 126.16 138.28 126.36C138.28 126.44 138.32 126.52 138.4 126.52C138.44 126.52 138.48 126.48 138.48 126.44C138.48 126.4 138.64 126.32 138.84 126.28C139.2 126.2 139.4 125.92 139.2 125.72C139.12 125.64 139.08 125.52 139.08 125.44C139.08 125.32 139.04 125.24 138.96 125.24C138.92 125.24 138.92 125.2 138.92 125.16C138.96 125.08 139.64 125.04 140.64 125.04H142.24V126.84C142.24 128.04 142.2 128.6 142.16 128.6C142.08 128.6 142.08 128.68 142.12 128.8C142.16 128.96 142.12 129.04 141.96 129.08C141.84 129.12 141.8 129.16 141.84 129.2C141.92 129.24 141.88 129.36 141.72 129.52C141.56 129.68 141.48 129.8 141.52 129.76C141.56 129.72 141.72 129.8 141.88 129.92C142.16 130.12 142.28 130.56 142 130.44C141.92 130.44 141.88 130.44 141.92 130.48C141.96 130.56 142.04 130.6 142.12 130.6C142.24 130.6 142.24 130.76 142.24 131.4C142.24 132.28 142.24 132.28 141.6 132.32C141.4 132.32 141.2 132.36 141.16 132.4C141.12 132.44 140.52 132.6 139.76 132.8C137.64 133.28 137.2 133.36 137.12 133.24C137.08 133.16 137.12 133.16 137.2 133.2C137.28 133.28 137.32 133.24 137.28 133.12C137.24 133.04 137.2 132.92 137.2 132.92C137.2 132.88 137.16 132.88 137.12 132.92C137.04 132.96 137 132.68 137 132.2C137 131.56 137.04 131.4 137.2 131.24C137.32 131.16 137.44 131.08 137.52 131.12C137.64 131.16 137.88 130.96 137.88 130.8C137.88 130.76 137.84 130.68 137.76 130.64C137.72 130.6 137.68 130.6 137.72 130.68C137.8 130.76 137.76 130.76 137.64 130.72C137.56 130.68 137.52 130.64 137.52 130.6C137.52 130.48 137.36 130.2 137.28 130.2C137.24 130.2 137.2 130.28 137.2 130.4C137.2 130.52 137.16 130.6 137.08 130.6C137.04 130.6 137.04 130.48 137.04 130.32C137.08 130.16 137.08 130.08 137.04 130.16C136.92 130.32 136.72 130.32 136.08 130.32C135.76 130.28 135.72 130.24 135.68 130C135.64 129.84 135.56 129.72 135.48 129.72C135.32 129.72 135.08 130.08 135.16 130.2C135.24 130.28 135.08 130.36 134.88 130.28C134.8 130.28 134.72 130.28 134.64 130.24C134.56 130.24 134.4 130.2 134.32 130.16C134.24 130.12 134.08 130.12 133.92 130.12C133.8 130.16 133.56 130.2 133.4 130.2C133.16 130.2 133.12 130.24 133.28 130.64C133.44 131 133.44 131.2 133.28 131.16C133.08 131.08 133.12 131.24 133.28 131.36C133.44 131.44 133.44 131.48 133.32 131.6C133.16 131.76 133.16 131.76 133.36 131.96C133.48 132.12 133.52 132.32 133.52 132.8C133.52 133.16 133.48 133.48 133.44 133.52C133.36 133.6 133.76 133.8 134.64 134.12C135.36 134.36 137.36 135.12 139.08 135.76L142.2 136.92L142.24 145.84L142 145.76C141.8 145.68 141.76 145.68 141.8 145.8C141.84 145.92 141.8 145.92 141.68 145.84C141.56 145.76 141.52 145.68 141.52 145.6C141.56 145.56 141.56 145.56 141.48 145.6C141.36 145.68 141.04 145.56 141.12 145.48C141.12 145.44 141.08 145.36 141 145.28C140.92 145.2 140.88 145.2 140.84 145.24C140.84 145.28 140.84 145.4 140.8 145.56C140.76 145.68 140.76 145.92 140.76 146.08C140.76 146.2 140.72 146.36 140.68 146.4C140.6 146.44 140.64 146.52 140.72 146.6C140.8 146.68 140.84 146.8 140.8 146.84C140.76 146.92 140.8 146.92 140.88 146.92C140.96 146.92 141 146.96 141 147.12C140.96 147.24 141 147.36 141.08 147.4C141.12 147.4 141.16 147.4 141.16 147.36C141.16 147.28 141.24 147.24 141.36 147.24C141.52 147.24 141.56 147.28 141.52 147.48C141.48 147.6 141.48 147.64 141.52 147.56C141.56 147.48 141.6 147.44 141.68 147.48C141.72 147.52 141.72 147.44 141.72 147.28ZM141.84 141.2C141.8 141.2 141.76 141.28 141.76 141.36C141.76 141.44 141.8 141.48 141.84 141.48C141.92 141.48 141.96 141.44 141.96 141.36C141.96 141.28 141.92 141.2 141.84 141.2ZM141.28 141.2C141.12 141.2 141.08 141.28 141.08 141.36C141.08 141.76 141.28 141.68 141.56 141.2C141.64 141.08 141.64 141 141.56 141C141.52 141 141.48 141.04 141.48 141.08C141.48 141.16 141.36 141.2 141.28 141.2ZM141.56 128.2C141.44 128.2 141.44 128.24 141.56 128.32C141.8 128.48 142.04 128.4 141.96 128.2C141.92 128.12 141.88 127.96 141.92 127.84C141.96 127.68 141.96 127.6 141.88 127.68C141.8 127.72 141.76 127.8 141.76 127.88C141.76 127.96 141.72 128 141.68 127.96C141.6 127.92 141.6 127.96 141.64 128.08C141.64 128.16 141.64 128.2 141.56 128.2ZM141.28 129.92C141.28 129.84 141.2 129.8 141.12 129.8C141.04 129.8 140.96 129.84 140.96 129.92C140.96 129.96 141.04 130 141.12 130C141.2 130 141.28 129.96 141.28 129.92ZM140.92 129.12C140.8 129.2 140.72 129.72 140.84 129.72C140.92 129.72 140.96 129.56 141 129.4C141 129.2 141 129.12 140.92 129.12ZM140.16 132.08C140.04 132.16 140.08 132.16 140.2 132.12C140.32 132.08 140.36 132.04 140.32 132C140.28 131.96 140.2 132 140.16 132.08ZM139 129.88C139 129.96 139.04 130 139.16 130C139.32 130 139.36 129.96 139.32 129.84C139.24 129.68 139.08 129.68 139 129.88ZM138.52 130.88C138.52 130.96 138.52 131 138.6 131C138.64 131 138.68 130.96 138.68 130.88C138.68 130.84 138.68 130.8 138.64 130.8C138.6 130.8 138.56 130.84 138.52 130.88ZM138.2 129.6C138.08 129.84 138.12 130 138.36 130C138.44 130 138.48 129.88 138.48 129.72C138.48 129.36 138.4 129.32 138.2 129.6ZM138.08 131.32C138 131.48 137.88 131.72 137.88 131.8C137.92 131.88 137.96 131.8 138.04 131.6C138.12 131.44 138.24 131.28 138.28 131.28C138.36 131.28 138.4 131.36 138.36 131.44C138.32 131.52 138.36 131.6 138.4 131.6C138.44 131.6 138.48 131.48 138.48 131.4C138.48 131.16 138.64 131.12 138.72 131.28C138.76 131.36 138.76 131.32 138.76 131.28C138.72 131.2 138.64 131.12 138.52 131.08C138.32 131 138.24 131.04 138.08 131.32ZM137.68 129.76C137.6 129.84 137.76 130.08 137.92 130.08C137.96 130.08 138 130.04 138 130C138 129.88 137.72 129.68 137.68 129.76ZM137.36 129.88C137.16 129.92 137.24 130.08 137.44 130.08C137.52 130.08 137.56 130 137.52 129.96C137.52 129.88 137.4 129.84 137.36 129.88ZM136.72 129.76C136.72 129.76 136.72 129.84 136.76 129.88C136.84 130.04 136.92 130.04 136.84 129.84C136.8 129.76 136.76 129.72 136.72 129.76ZM136.16 125.2C136.08 125.16 136 125.2 136 125.24C136 125.32 136.08 125.36 136.16 125.36C136.24 125.36 136.32 125.32 136.32 125.32C136.32 125.28 136.24 125.24 136.16 125.2ZM135.48 129.52C135.44 129.56 135.44 129.6 135.52 129.6C135.56 129.6 135.6 129.56 135.6 129.52C135.6 129.44 135.6 129.4 135.56 129.4C135.56 129.4 135.52 129.44 135.48 129.52ZM133.84 129.56C133.76 129.6 133.72 129.64 133.72 129.72C133.72 129.84 134.04 129.76 134.2 129.6C134.24 129.52 134.28 129.4 134.24 129.28C134.2 129.16 134.16 129.12 134 129.2C133.92 129.28 133.84 129.36 133.88 129.4C133.92 129.44 133.88 129.52 133.84 129.56ZM130.48 131.6C130.4 131.6 130.36 131.64 130.36 131.72C130.36 131.8 130.4 131.88 130.48 131.88C130.52 131.88 130.56 131.8 130.56 131.72C130.56 131.64 130.52 131.6 130.48 131.6ZM129.32 133.48C129.2 133.48 129.16 133.48 129.28 133.6C129.36 133.68 129.4 133.76 129.44 133.76C129.44 133.76 129.48 133.68 129.48 133.6C129.48 133.52 129.4 133.48 129.32 133.48ZM129.6 134.24C129.64 134.12 129.48 133.92 129.32 133.96C129.28 133.96 129.2 133.92 129.16 133.84C129.12 133.76 129.08 133.84 129.08 134.08C129.12 134.36 129.16 134.44 129.32 134.4C129.44 134.4 129.56 134.32 129.6 134.24ZM129.72 134.24C129.76 134.32 129.84 134.36 129.88 134.36C129.92 134.36 129.96 134.32 129.96 134.24C129.96 134.2 129.88 134.16 129.8 134.16C129.72 134.16 129.68 134.2 129.72 134.24ZM130.32 134.76C130.32 134.72 130.28 134.6 130.2 134.48C130.08 134.32 130.08 134.32 130.08 134.48C130.08 134.56 130 134.64 129.92 134.64C129.84 134.64 129.76 134.68 129.76 134.76C129.76 134.84 130.24 134.88 130.32 134.76ZM131.36 134.36C131.48 134.36 131.52 134.32 131.48 134.12C131.44 134 131.4 133.96 131.36 134.04C131.36 134.12 131.2 134.16 131.04 134.16C130.72 134.16 130.4 134.44 130.6 134.56C130.64 134.6 130.68 134.64 130.6 134.64C130.56 134.64 130.52 134.8 130.56 134.96C130.56 135.12 130.64 135.24 130.68 135.2C130.72 135.16 130.72 135.08 130.68 134.96C130.64 134.8 130.68 134.76 130.8 134.76C130.88 134.76 131 134.68 131.08 134.56C131.16 134.44 131.28 134.36 131.36 134.36ZM130.96 133.16C131.08 133.16 131.08 133.16 130.96 133.08C130.76 132.96 130.64 132.96 130.72 133.08C130.76 133.12 130.84 133.16 130.96 133.16ZM132.12 132.04C132.56 131.88 132.56 131.88 132.44 131.76C132.36 131.64 132.36 131.6 132.48 131.56C132.56 131.52 132.52 131.48 132.44 131.48C132.28 131.48 132.2 131.6 132.24 131.8C132.24 131.84 132.2 131.88 132.16 131.88C132.08 131.88 132.04 131.84 132.04 131.8C132.04 131.72 131.92 131.84 131.76 132L131.44 132.28L131.16 132C131 131.84 130.88 131.68 130.88 131.6C130.88 131.56 130.8 131.48 130.76 131.48C130.72 131.48 130.68 131.56 130.72 131.64C130.8 131.8 130.48 132.08 130.32 132.04C130.28 132.04 130.16 132.08 130.08 132.16C130 132.24 130 132.28 130.24 132.28H130.52L130.28 132.4C130.12 132.48 130 132.6 130 132.68C130 132.96 129.8 133.2 129.64 133.16C129.4 133.04 129.36 133.24 129.6 133.4C129.88 133.6 129.96 133.6 129.96 133.36C129.96 133.24 130.04 133.16 130.12 133.16C130.32 133.16 130.2 133.56 129.92 133.72C129.64 133.92 129.6 134.04 129.84 134.08C130.16 134.16 130.2 134.16 130.12 134.04C130.08 134 130.12 133.84 130.24 133.76C130.36 133.6 130.4 133.4 130.4 133.08C130.4 132.8 130.44 132.6 130.52 132.6C130.56 132.6 130.6 132.68 130.6 132.72C130.56 132.76 130.64 132.76 130.72 132.72C130.84 132.68 131.04 132.76 131.24 132.96C131.52 133.16 131.68 133.2 131.84 133.16L132.08 133.08H131.84C131.68 133.08 131.48 133 131.4 132.88C131.28 132.76 131.16 132.68 131.08 132.68C131 132.68 130.96 132.6 131 132.52C131.04 132.44 131.08 132.32 131.08 132.24C131.08 132.2 131.12 132.24 131.16 132.36C131.24 132.56 131.24 132.56 131.56 132.4C131.84 132.24 131.88 132.24 132 132.4C132.16 132.6 132.24 132.64 132.24 132.44C132.24 132.32 132.2 132.28 132.16 132.32C132.12 132.36 132.04 132.32 132 132.24C131.96 132.12 132 132.04 132.12 132.04ZM132.88 134.36C132.96 134.36 133.04 134.36 133.04 134.32C133.04 134.28 132.96 134.24 132.88 134.24C132.8 134.2 132.76 134.2 132.76 134.28C132.76 134.32 132.8 134.36 132.88 134.36ZM132.88 133.88C132.96 133.88 133.04 133.84 133.04 133.8C133.04 133.8 132.96 133.76 132.88 133.76C132.8 133.76 132.76 133.8 132.76 133.88C132.76 133.92 132.8 133.92 132.88 133.88ZM137.96 141.8C138 141.72 138 141.64 137.96 141.6C137.84 141.52 137.76 141.68 137.84 141.8C137.92 141.92 137.92 141.92 137.96 141.8ZM139.72 137.12C139.72 137.16 139.76 137.2 139.84 137.2C139.92 137.2 139.96 137.2 139.96 137.16C139.96 137.08 139.8 137.04 139.72 137.12ZM140.04 141.88C140.28 141.88 140.32 141.84 140.32 141.56C140.32 141.36 140.28 141.2 140.24 141.2C140.16 141.2 140.2 141.16 140.28 141.12C140.36 141.04 140.36 141 140.16 140.96C140.04 140.92 139.92 140.92 139.84 141C139.76 141.08 139.76 141.08 139.88 141.08C139.96 141.08 139.96 141.12 139.88 141.24C139.72 141.44 139.6 141.44 139.56 141.2C139.56 141.12 139.56 141.08 139.52 141.16C139.4 141.4 139.76 141.84 140.04 141.88ZM140.32 142.4C140.36 142.4 140.36 142.32 140.36 142.28C140.36 142.24 140.32 142.2 140.28 142.2C140.2 142.2 140.2 142.24 140.24 142.28C140.24 142.32 140.32 142.4 140.32 142.4Z" fill="#94DEA5"/>
<path fill-rule="evenodd" clip-rule="evenodd" d="M192 155.409V115.59L213.004 108H239.055L272 117.931V144.599L267.533 147.098L272 155.085V181.801L260.917 188H255.514L252.283 181.402L246.006 188H204.456L192 175.748V166.12L196.563 163.568L192 155.409Z" fill="#262626"/>
<path fill-rule="evenodd" clip-rule="evenodd" d="M192 147.409V107.59L213.004 100H239.055L272 109.931V136.599L267.533 139.098L272 147.085V173.801L260.917 180H255.514L252.283 173.402L246.006 180H204.456L192 167.748V158.12L196.563 155.568L192 147.409Z" fill="white"/>
<path fill-rule="evenodd" clip-rule="evenodd" d="M272 136.599V109.931L239.055 100H213.004L192 107.59V147.409L196.563 155.568L192 158.12V167.748L204.456 180H246.006L252.283 173.402L255.514 180H260.917L272 173.801V147.085L267.533 139.098L272 136.599ZM270 147.606L264.811 138.328L270 135.426V111.417L238.761 102H213.354L194 108.993V146.888L199.285 156.337L194 159.293V166.91L205.275 178H245.148L252.815 169.942L256.761 178H260.396L270 172.628V147.606Z" fill="#262626"/>
<path d="M224.52 125.04H238.56V128.52C238.56 131.92 238.56 132 238.32 132.96C238.16 133.48 238 134.16 237.92 134.52C237.84 134.84 237.64 135.76 237.44 136.6C237.08 138 237.04 138.12 236.84 138.08C236.72 138.04 236.64 137.96 236.6 137.92C236.56 137.84 236.52 137.84 236.44 137.92C236.36 138 236.2 138 235.92 137.92C235.6 137.84 235.52 137.84 235.4 138.04C235.32 138.12 235.2 138.24 235.12 138.24C235.08 138.24 235 138.28 235 138.36C235 138.48 235.08 138.52 235.24 138.52C235.4 138.52 235.48 138.56 235.48 138.6C235.48 138.68 235.56 138.68 235.64 138.64C235.72 138.64 235.8 138.64 235.84 138.72C235.88 138.8 235.96 138.76 236.12 138.68C236.24 138.64 236.48 138.52 236.64 138.48C236.88 138.4 236.96 138.44 236.92 138.64C236.88 138.84 236.08 142.12 235.16 145.96L233.48 152.92L224.52 153V151.8C224.52 151.16 224.52 150.6 224.6 150.56C224.64 150.52 224.72 150.36 224.72 150.16C224.8 149.76 225.08 149.52 225.44 149.48C225.68 149.48 225.72 149.4 225.72 149.2C225.68 149.16 225.8 149.12 225.96 149.12C226.36 149.12 226.44 148.88 226.16 148.72C226.04 148.64 225.92 148.6 225.92 148.6C225.8 148.68 225.68 148.6 225.76 148.52C225.8 148.44 225.68 148.44 225.4 148.48C224.84 148.56 224.48 148.48 224.52 148.2C224.52 147.84 224.6 147.52 224.72 147.52C224.8 147.52 224.92 147.36 225.04 147.16C225.2 146.84 225.2 146.84 225.04 146.88C224.92 146.92 224.8 146.84 224.64 146.68C224.52 146.48 224.48 146.4 224.6 146.24C224.68 146.08 224.68 146 224.6 145.92C224.48 145.8 224.48 144.24 224.6 144.32C224.64 144.32 224.72 144.28 224.72 144.2C224.76 144.12 224.84 144.08 224.92 144.12C224.96 144.16 224.96 144.08 224.88 143.96C224.8 143.84 224.76 143.68 224.76 143.64C224.8 143.6 224.72 143.56 224.64 143.56C224.56 143.56 224.52 143.52 224.52 143.48C224.52 143.4 224.56 143.36 224.64 143.36C224.72 143.36 224.68 143.32 224.6 143.28C224.48 143.2 224.48 143.16 224.68 143.16C224.8 143.16 224.88 143.12 224.88 143.08C224.88 143 225 143.04 225.08 143.2C225.2 143.36 225.24 143.44 225.16 143.56C225.12 143.68 225.12 143.84 225.2 144C225.28 144.24 225.32 144.28 225.36 144.16C225.4 144.04 225.48 143.96 225.56 143.96C225.68 143.96 225.64 143.92 225.48 143.76C225.36 143.6 225.32 143.52 225.4 143.48C225.44 143.44 225.48 143.32 225.44 143.24C225.4 143.12 225.4 143.04 225.48 142.96C225.68 142.88 225.52 142.64 225.28 142.72C225.16 142.72 225.08 142.72 225.08 142.68C225.08 142.64 224.96 142.52 224.8 142.4L224.52 142.24V125.04ZM230.8 129.76C230.88 129.52 230.76 129.44 230.6 129.64C230.52 129.72 230.48 129.8 230.52 129.84C230.64 129.96 230.76 129.92 230.8 129.76ZM226.16 143.72C226.08 143.8 226.08 143.84 226.24 143.88C226.48 143.96 226.56 143.92 226.4 143.76C226.36 143.68 226.24 143.68 226.16 143.72ZM225.96 144C225.84 143.88 225.76 144.04 225.84 144.16C225.92 144.28 225.92 144.28 225.96 144.16C226 144.12 226 144.04 225.96 144ZM225.64 145.24C225.6 145.24 225.6 145.4 225.6 145.6C225.6 145.8 225.64 145.92 225.68 145.88C225.76 145.88 225.8 145.88 225.8 145.96C225.8 146.08 226 146.08 226.36 145.96C226.6 145.84 226.6 145.84 226.44 145.68C226.24 145.52 225.76 145.24 225.64 145.24ZM227.2 147.28C227.36 147.12 227.28 146.88 226.92 146.68C226.72 146.52 226.6 146.48 226.64 146.52C226.68 146.6 226.64 146.64 226.56 146.64C226.52 146.64 226.44 146.56 226.4 146.44C226.36 146.2 226.2 146.28 226.2 146.6C226.2 146.8 226.16 146.84 225.96 146.8C225.8 146.76 225.72 146.8 225.6 146.96C225.48 147.16 225.48 147.16 225.64 147.12C225.72 147.08 225.76 147.08 225.76 147.12C225.72 147.2 225.76 147.24 225.8 147.28C225.88 147.28 225.92 147.36 225.84 147.4C225.8 147.44 225.76 147.44 225.72 147.36C225.64 147.12 225.48 147.24 225.48 147.52C225.48 147.76 225.56 147.88 225.76 147.96C226 148.08 226.04 148.12 225.96 148.28C225.92 148.36 225.88 148.48 225.92 148.52C225.96 148.52 226 148.52 226 148.44C226 148.36 226.08 148.4 226.24 148.52C226.56 148.76 226.64 148.72 226.48 148.44C226.4 148.32 226.28 148.28 226.2 148.28C226.16 148.32 226.08 148.32 226.08 148.28C226.08 148.04 226.28 147.96 226.64 147.96C226.96 147.96 227 147.96 227.04 147.68C227.08 147.52 227.12 147.36 227.2 147.28ZM227.52 146.4C227.64 146.4 227.64 146.32 227.6 146.12C227.52 145.72 227.52 145.72 227.32 145.8C227.24 145.8 227.16 145.92 227.16 146.04C227.16 146.16 227.24 146.24 227.28 146.2C227.32 146.16 227.36 146.2 227.36 146.28C227.36 146.36 227.44 146.4 227.52 146.4ZM227.48 143.36C227.6 143.36 227.68 143.32 227.68 143.24C227.68 143.16 227.64 143.08 227.56 143.08C227.52 143.08 227.48 143.12 227.52 143.16C227.52 143.2 227.44 143.24 227.32 143.24C227.16 143.24 227.08 143.2 227.16 143.16C227.2 143.08 227.2 142.92 227.16 142.76C227.12 142.52 226.68 142.36 226.36 142.52C226.12 142.6 226.12 143.08 226.36 143.08C226.44 143.08 226.6 143.16 226.76 143.28C226.88 143.4 227.08 143.44 227.16 143.44C227.24 143.4 227.36 143.36 227.48 143.36ZM227.28 142.4C227.2 142.4 227.2 142.44 227.24 142.48C227.24 142.52 227.32 142.6 227.32 142.6C227.36 142.6 227.36 142.52 227.36 142.48C227.36 142.44 227.32 142.4 227.28 142.4ZM227.92 143.52C227.92 143.4 227.96 143.4 227.92 143.52C227.88 143.6 227.8 143.64 227.76 143.6C227.72 143.6 227.68 143.6 227.68 143.68C227.68 143.84 227.92 143.72 227.92 143.52ZM229.04 151.36C229.12 151.16 229.08 151.08 228.84 150.92C228.44 150.6 228.04 150.72 228 151.16C227.96 151.4 228 151.52 228.24 151.68C228.48 151.84 228.56 151.88 228.56 151.76C228.56 151.72 228.64 151.76 228.68 151.96C228.76 152.12 228.8 152.2 228.84 152.12C228.84 152.04 228.92 152.04 229 152.04C229.04 152.08 229.08 152.04 229.04 151.88C229 151.72 229 151.52 229.04 151.36ZM228.48 149.84C228.48 149.96 228.52 150 228.56 150C228.6 150 228.68 149.96 228.68 149.92C228.68 149.88 228.6 149.8 228.56 149.76C228.52 149.72 228.48 149.76 228.48 149.84ZM229.76 128.72C229.68 128.96 229.68 129 229.8 128.96C229.88 128.92 229.96 128.96 229.96 129.04C229.96 129.12 230 129.08 230.12 128.96C230.24 128.76 230.24 128.8 230.2 129.16L230.12 129.56L230.32 129.32C230.52 129.12 230.52 129.12 230.56 129.28C230.6 129.4 230.64 129.4 230.64 129.24C230.64 129.12 230.6 129 230.52 129C230.48 129 230.44 128.96 230.48 128.92C230.52 128.88 230.44 128.72 230.36 128.52C230.24 128.24 230.24 128.2 230.36 128.12C230.56 127.96 230.56 127.6 230.28 127.4C230.16 127.28 230.04 127.28 230.04 127.32C230.04 127.4 230 127.36 229.88 127.28C229.8 127.2 229.68 127.12 229.64 127.12C229.56 127.12 229.36 127 229.2 126.88C229 126.76 228.84 126.64 228.76 126.64C228.72 126.64 228.64 126.56 228.64 126.48C228.6 126.4 228.48 126.32 228.44 126.36C228.36 126.4 228.2 126.36 228.12 126.28C228 126.24 227.76 126.12 227.56 126.08C227.24 126.04 227.24 126.04 227.24 126.32C227.24 126.48 227.36 126.72 227.56 126.92C227.76 127.16 227.88 127.36 227.88 127.56C227.88 127.76 227.92 127.8 227.92 127.68C227.96 127.56 228.04 127.52 228.2 127.56C228.68 127.72 228.8 127.72 228.96 127.6C229.08 127.48 229.08 127.48 229 127.6C228.92 127.8 229.16 128 229.48 128C229.8 128 229.92 128.32 229.76 128.72ZM230.56 142.48C230.88 141.08 231.48 138.68 231.84 137.12C233.04 132.28 233.2 131.48 233.24 130.92C233.24 130.56 233.2 130.36 233.12 130.28C233 130.24 233.04 130.2 233.2 130.2C233.36 130.2 233.4 130.16 233.36 130.08C233.32 130 233.36 130 233.48 130.04C233.64 130.08 233.68 130.04 233.68 129.6C233.72 129.16 233.68 129.08 233.48 128.96C233.2 128.8 232.96 128.84 233.04 129.08C233.08 129.12 233.04 129.28 232.96 129.36C232.88 129.4 232.88 129.52 232.92 129.56C232.92 129.6 232.88 129.68 232.8 129.72C232.64 129.8 232.64 129.84 232.72 129.96C232.84 130.08 232.8 130.08 232.68 130.08C232.6 130.08 232.52 130.16 232.56 130.2C232.68 130.32 232.04 130.4 231.52 130.32C231.28 130.28 230.8 130.28 230.48 130.32L229.84 130.4V137.8C229.88 141.88 229.88 145.16 229.92 145.12C229.92 145.04 230.2 143.88 230.56 142.48ZM232.88 138.92C232.92 138.96 232.88 139.04 232.76 139.08C232.64 139.12 232.64 139.16 232.72 139.24C232.8 139.28 232.88 139.32 232.88 139.32C232.88 139.32 232.92 139.24 232.96 139.12C232.96 139 232.96 138.88 232.88 138.84C232.84 138.8 232.84 138.84 232.88 138.92ZM232.64 148.16C232.72 148.12 232.84 148.04 232.84 147.92C232.84 147.8 232.88 147.76 232.92 147.8C233.08 147.88 233.04 147.68 232.84 147.52C232.6 147.32 232.32 147.4 232.32 147.68C232.32 147.8 232.36 147.96 232.44 148C232.48 148 232.52 148.08 232.48 148.12C232.44 148.16 232.52 148.2 232.64 148.16ZM232.88 148.32C233.12 148.4 233.2 148.36 233.04 148.2C233 148.16 232.88 148.16 232.8 148.2C232.72 148.24 232.72 148.28 232.88 148.32ZM233.44 146.6C233.68 146.36 233.76 146.24 233.72 145.96C233.72 145.8 233.52 145.84 233.48 146.04C233.44 146.16 233.32 146.28 233.2 146.28C233.12 146.32 233.04 146.44 233.04 146.52C233.04 146.6 232.96 146.64 232.8 146.6C232.64 146.56 232.64 146.6 232.68 146.76C232.72 146.88 232.8 147 232.84 147.04C232.88 147.08 232.88 147.16 232.88 147.28C232.8 147.4 232.84 147.44 232.96 147.36C233.04 147.36 233.12 147.36 233.12 147.44C233.12 147.6 233.32 147.56 233.4 147.32C233.52 147.16 233.48 147.08 233.36 146.96C233.2 146.8 233.2 146.8 233.44 146.6ZM233.8 134.16C233.92 134.16 233.76 133.92 233.44 133.6C233.36 133.52 233.24 133.48 233.2 133.48C233 133.56 233 133.72 233.28 133.88C233.52 134 233.6 134.24 233.36 134.12C233.32 134.08 233.2 134.12 233.12 134.2C233.04 134.24 233 134.24 232.88 134.16C232.64 134 232.68 134.12 232.92 134.4C233.04 134.48 233.12 134.72 233.12 134.84C233.12 135.04 233.16 135.12 233.36 135.12C233.48 135.12 233.64 135.08 233.68 135.04C233.72 134.96 233.68 134.88 233.6 134.84C233.52 134.8 233.52 134.76 233.6 134.72C233.68 134.68 233.72 134.52 233.72 134.4C233.72 134.28 233.76 134.16 233.8 134.16ZM234.4 138.72C234.44 138.72 234.52 138.68 234.52 138.6C234.52 138.56 234.48 138.52 234.48 138.52C234.44 138.52 234.4 138.56 234.36 138.6C234.32 138.68 234.36 138.72 234.4 138.72ZM235.36 137.84C235.4 137.8 235.32 137.76 235.2 137.8C235.08 137.84 235.04 137.88 235.08 137.96C235.12 138.04 235.32 138 235.36 137.84ZM235.64 134.84C235.68 134.8 235.64 134.64 235.56 134.48C235.48 134.28 235.44 134.16 235.48 134.16C235.52 134.16 235.48 134.08 235.36 134C235.08 133.8 234.32 134.08 234.32 134.4C234.32 134.48 234.4 134.52 234.52 134.52C234.72 134.52 234.76 134.56 234.72 134.76C234.72 134.96 234.76 135.04 234.96 135.08C235.08 135.12 235.2 135.2 235.2 135.28C235.2 135.32 235.28 135.28 235.36 135.16C235.44 135 235.56 134.88 235.64 134.84ZM237.32 134.24C237.36 134.24 237.32 134.2 237.24 134.16C236.88 134.04 236.6 134.24 236.6 134.68C236.6 135.16 236.28 135.48 235.92 135.4C235.76 135.36 235.68 135.4 235.68 135.52C235.68 135.64 235.72 135.68 235.8 135.56C235.92 135.36 235.96 135.6 235.96 136.08C235.92 136.4 235.92 136.44 236.2 136.44C236.32 136.44 236.56 136.36 236.64 136.24C236.8 136.08 236.8 136 236.68 135.96C236.6 135.88 236.6 135.76 236.64 135.48C236.68 135.2 236.72 135.16 236.8 135.24C236.96 135.4 237.04 135.36 237.12 135.2C237.16 135.04 237.16 135.04 237.04 135.16C236.92 135.24 236.88 135.24 236.8 135.08C236.64 134.8 236.64 134.72 236.8 134.8C236.92 134.88 237.2 134.68 237.2 134.44C237.2 134.36 237.24 134.24 237.32 134.24Z" fill="#94DEA5"/>
</svg>
