<svg width="833" height="819" viewBox="0 0 833 819" fill="none" xmlns="http://www.w3.org/2000/svg">
<g clip-path="url(#clip0_1093_1288)">
<path d="M21.2472 699.501L-88.911 814.495L-262.103 568.162L-37.0027 305.324L-26.7477 253.995L200.423 78.7539L218.236 176.613L286.684 234.77L349.64 213.542L573.366 -78.0389L635.637 -104.741L668.472 -171.131L751.982 -81.4967L924.416 -196.503L959.996 -232.097L936.74 -169.132L830.008 -35.6606L761.598 93.0121L741.067 88.9101L686.989 21.1698L554.937 165.596L381.85 435.267L307.958 529.039L240.882 481.832L207.332 400.4L45.1845 624.217L21.2472 699.501Z" fill="#FEE9CF"/>
<path d="M657.584 132.725L718.492 130.66L667.854 152.57L595.326 221.704L657.584 132.725Z" fill="#FEE9CF"/>
<path d="M370.138 48.6079L418.723 28.0674L344.81 15.0795L370.138 48.6079Z" fill="#FEE9CF"/>
<path d="M135.518 617.355L97.2188 611.423L187.157 477.26L137.002 581.719L135.518 617.355Z" fill="#FEE9CF"/>
</g>
<defs>
<clipPath id="clip0_1093_1288">
<rect width="833" height="819" fill="white"/>
</clipPath>
</defs>
</svg>
