<svg width="67" height="88" viewBox="0 0 67 88" fill="none" xmlns="http://www.w3.org/2000/svg">
<path d="M64.8313 49.6982C66.2041 47.3618 66.6475 44.8207 66.5367 43.7292C66.4258 42.6377 64.8654 31.3393 62.2731 30.0858C59.6809 28.8323 58.8623 27.5277 58.8623 27.5277L58.0096 18.1478C58.0096 18.1478 49.6103 16.3315 48.6297 17.2951C47.6491 18.2587 24.0289 31.2284 23.0483 31.7912C22.0677 32.354 6.82119 42.0238 5.99406 42.8765C5.16693 43.7292 4.64677 55.9486 5.14135 57.3726C5.63592 58.7967 19.5778 76.0641 20.4902 76.1323C21.4026 76.2005 25.6065 73.5742 25.6065 73.5742C25.6065 73.5742 63.4584 52.0346 64.8313 49.6982Z" fill="black"/>
<path d="M63.9816 43.729C63.9816 43.729 62.9839 34.4942 62.2762 33.4965C61.5684 32.4988 57.4498 29.898 57.1599 29.2329C56.87 28.5678 57.2025 19.9042 55.4545 19.8531C53.7064 19.8019 47.78 19.8531 47.78 19.8531C47.78 19.8531 25.2684 32.2003 23.9041 32.6438C22.5397 33.0872 9.1436 42.8593 8.55523 43.729C7.96686 44.5988 6.73895 53.3647 6.8498 55.667C6.96066 57.9693 20.4932 71.8686 20.4932 71.8686L62.2762 47.9926L63.9816 43.729Z" fill="#850B00"/>
<path d="M53.7461 46.2869C54.6841 45.4854 60.3461 41.9296 63.5182 39.9513C63.1686 37.2738 62.674 34.059 62.2732 33.4962C61.5655 32.4986 57.4469 29.8978 57.157 29.2327C56.867 28.5675 57.1996 19.904 55.4515 19.8528C53.7035 19.8017 47.7771 19.8528 47.7771 19.8528C47.7771 19.8528 45.1507 21.2939 41.629 23.2125C39.9748 25.9753 36.9818 29.9319 35.8391 29.2327C35.0802 28.7722 36.0693 27.152 37.519 25.4466C31.3794 28.7807 24.6345 32.4048 23.9011 32.6435C22.5368 33.0869 9.14068 42.859 8.55231 43.7288C8.31355 44.0869 7.96394 45.7668 7.64844 47.7792C9.75464 51.7443 13.1484 57.8753 13.6771 58.2249C14.4105 58.711 19.6461 65.0466 19.6461 65.0466C19.6461 65.0466 48.1438 50.4396 48.6384 49.6978C49.1244 48.9559 52.4329 47.404 53.7461 46.2869ZM34.9864 51.4032C33.4515 50.3799 40.1453 42.3389 40.9554 42.8761C41.7655 43.4133 34.9864 51.4032 34.9864 51.4032Z" fill="#D43B0D"/>
<path d="M63.1259 41.1711L63.9786 38.613L46.0717 49.6982L20.4903 64.1944L17.9321 61.6362L12.8158 54.8145L6.84685 44.582L5.99414 47.1401L11.1104 56.52L16.2267 63.3417L19.6376 66.7525L46.0717 52.2564L63.1259 41.1711ZM48.6298 28.3804L57.1569 23.2641V21.5587L46.9244 26.675C46.9244 26.675 44.1189 35.1595 42.6608 36.0548C41.2027 36.9502 27.312 44.582 27.312 44.582C27.312 44.582 42.9593 38.4424 44.3662 37.7603C45.7732 37.0781 48.6298 28.3804 48.6298 28.3804ZM63.9786 32.644L63.1259 29.2331L52.8934 36.9075L63.9786 32.644ZM28.1647 49.6982C28.9662 47.0548 23.9949 42.4246 21.343 44.582C19.8251 45.8099 15.9027 47.6176 17.9321 52.2564C19.9616 56.8951 27.3631 52.3417 28.1647 49.6982Z" fill="black"/>
<path d="M23.0484 45.4342C21.3771 46.3636 18.2306 47.7536 18.7848 49.6977C19.3391 51.6419 20.9251 52.8954 23.0484 52.2559C25.1717 51.6163 27.4313 50.2435 26.4593 47.9923C25.4872 45.7412 24.7197 44.5047 23.0484 45.4342Z" fill="#91AFAD"/>
</svg>
