<svg width="71" height="76" viewBox="0 0 71 76" fill="none" xmlns="http://www.w3.org/2000/svg">
<path d="M52.1837 23.3118C53.826 24.1706 55.0031 25.4845 55.3338 26.158C55.6646 26.8314 58.8487 33.952 57.7983 35.6176C56.7479 37.2832 56.7452 38.3365 56.7452 38.3365L59.6456 44.0877C59.6456 44.0877 55.4294 48.1817 54.5117 47.9776C53.5939 47.7734 35.1941 48.7975 34.4214 48.8259C33.6487 48.8543 21.3021 48.7622 20.5135 48.5668C19.7249 48.3714 15.0002 41.4696 14.7717 40.4643C14.5432 39.459 16.3827 24.3934 16.8874 24.0236C17.3921 23.6537 20.782 23.656 20.782 23.656C20.782 23.656 50.5415 22.4531 52.1837 23.3118Z" fill="black"/>
<path d="M53.8513 27.0828C53.8513 27.0828 56.615 32.8023 56.5655 33.6374C56.516 34.4725 55.0676 37.4723 55.1401 37.9632C55.2126 38.454 58.5415 43.3606 57.5457 44.023C56.5499 44.6854 53.0927 46.8008 53.0927 46.8008C53.0927 46.8008 35.5615 47.7848 34.6093 48.0214C33.6572 48.2579 22.3472 47.4367 21.6909 47.145C21.0347 46.8533 17.1493 42.2115 16.3803 40.8355C15.6113 39.4594 18.4324 26.4964 18.4324 26.4964L51.3185 25.2262L53.8513 27.0828Z" fill="#850B00"/>
<path d="M46.9866 29.3035C47.821 29.429 52.3933 29.4428 54.9499 29.4425C55.7163 31.1226 56.5929 33.167 56.564 33.6386C56.5145 34.4736 55.0661 37.4735 55.1386 37.9643C55.2112 38.4552 58.54 43.3617 57.5442 44.0242C56.5485 44.6866 53.0913 46.802 53.0913 46.802C53.0913 46.802 51.0457 46.9165 48.3079 47.078C46.348 46.0737 43.1792 44.8613 42.7693 45.6806C42.4956 46.2224 43.656 46.8045 45.1144 47.2693C40.3452 47.557 35.1198 47.8957 34.6079 48.0226C33.6557 48.2591 22.3457 47.4379 21.6895 47.1462C21.4213 47.0248 20.6104 46.1766 19.6989 45.1232C19.4858 42.0601 19.2358 37.2743 19.4161 36.88C19.6656 36.3326 20.4103 30.7613 20.4103 30.7613C20.4103 30.7613 42.2328 28.9217 42.7883 29.1732C43.3388 29.4277 45.8203 29.1306 46.9866 29.3035ZM34.2496 33.1251C33.7294 34.2744 40.524 36.5172 40.7996 35.9123C41.0751 35.3074 34.2496 33.1251 34.2496 33.1251Z" fill="#D43B0D"/>
<path d="M54.2807 28.8768L55.7014 30.0524L41.2987 30.102L21.2085 30.9503L20.6501 33.3606L20.1506 39.1707L20.391 47.2685L18.9703 46.0928L18.5438 38.7984L19.0432 32.9883L19.7877 29.7746L40.3728 28.6177L54.2807 28.8768ZM50.4992 41.5454L57.2989 41.4276L57.9162 42.4171L50.127 43.1522C50.127 43.1522 45.4281 39.2447 44.258 39.253C43.0878 39.2613 32.2656 39.8609 32.2656 39.8609C32.2656 39.8609 43.5669 37.7596 44.6302 37.6461C45.6935 37.5327 50.4992 41.5454 50.4992 41.5454ZM57.8619 33.5158L58.6018 35.8036L49.8866 35.0544L57.8619 33.5158ZM30.9084 36.5836C32.3303 37.8273 31.1218 42.3133 28.8022 42.0215C27.477 41.8584 24.5467 42.2292 24.0452 38.8031C23.5437 35.3769 29.4866 35.34 30.9084 36.5836Z" fill="black"/>
<path d="M29.4833 40.9097C28.1771 40.9753 25.8483 41.3077 25.4662 39.979C25.0841 38.6503 25.5506 37.3489 27.0141 36.9515C28.4776 36.554 30.2856 36.5327 30.5364 38.1907C30.7872 39.8488 30.7895 40.844 29.4833 40.9097Z" fill="#91AFAD"/>
</svg>
