<svg width="513" height="1080" viewBox="0 0 513 1080" fill="none" xmlns="http://www.w3.org/2000/svg">
<path d="M462.489 1221.04L513 1448.34L72.8295 1459.16L-64.2728 972.086L-118.392 917.967L-147.256 499.444L-13.7614 557.172L112.517 521.092L137.773 427.285L-35.4091 -81.4364L-17.3693 -178.851L-71.4886 -272.658L105.301 -301.522L105.301 -604.59L90.8694 -676.749L148.597 -597.374L224.364 -359.249L325.386 -171.635L303.739 -149.987L177.46 -139.164L246.011 138.649L433.625 567.995L487.744 733.961L375.898 777.257L249.619 752.001L390.329 1130.84L462.489 1221.04Z" fill="#9A6735"/>
<path d="M289.307 -12.8858L336.21 -88.6528L321.778 -9.27783L347.034 135.04L289.307 -12.8858Z" fill="#9A6735"/>
<path d="M303.998 10.3958L285.489 -88.8818L260.81 10.3958L347.187 184.132L303.998 10.3958Z" fill="#9A6735"/>
<path d="M455.273 1015.38L416.983 1057.16L326.75 838.902L413.127 984.663L455.273 1015.38Z" fill="#9A6735"/>
</svg>
