<svg width="687" height="641" viewBox="0 0 687 641" fill="none" xmlns="http://www.w3.org/2000/svg">
<path d="M-86.8715 685.314L-166.383 758.246L-272.708 584.117L-109.014 416.251L-99.8347 381.994L61.428 273.446L69.1913 340.39L112.927 382.706L156.422 371.107L320.444 183.747L363.716 168.416L388.821 124.965L441.363 189.222L562.982 119.005L588.596 96.4956L570.118 138.051L492.114 223.626L440.232 307.633L426.529 303.962L392.929 255.795L297.327 347.669L168.501 522.431L114.439 582.601L71.1514 547.748L52.0293 491.222L-67.3937 635.459L-86.8715 685.314Z" fill="#C6FF00"/>
<path d="M368.168 329.935L409.44 331.203L374.243 343.801L322.181 387.373L368.168 329.935Z" fill="#C6FF00"/>
<path d="M571.461 160.441L554.043 207.176L544.012 189.802L571.461 160.441Z" fill="#C6FF00"/>
<path d="M417.928 136.992L438.354 125.199L403.831 96.8511L417.928 136.992Z" fill="#C6FF00"/>
<path d="M177.495 260.487L211.244 248.724L161.837 236.709L177.495 260.487Z" fill="#C6FF00"/>
<path d="M-6.01646 634.771L-31.6523 629.085L35.0266 542.308L-3.45399 610.741L-6.01646 634.771Z" fill="#C6FF00"/>
<path d="M321.793 136.555L336.392 155.153L320.017 156.884L264.671 208.143L321.793 136.555Z" fill="#C6FF00"/>
</svg>
