<svg width="124" height="124" viewBox="0 0 124 124" fill="none" xmlns="http://www.w3.org/2000/svg">
<g clip-path="url(#clip0_1035_6949)">
<mask id="path-1-inside-1_1035_6949" fill="white">
<path fill-rule="evenodd" clip-rule="evenodd" d="M0.214844 124V14.8062L15.0211 0H124.215V112.765L112.979 124H0.214844Z"/>
</mask>
<path fill-rule="evenodd" clip-rule="evenodd" d="M0.214844 124V14.8062L15.0211 0H124.215V112.765L112.979 124H0.214844Z" fill="#FFD634"/>
<path d="M0.214844 14.8062L-1.32342 13.268L-1.96059 13.9051V14.8062H0.214844ZM0.214844 124H-1.96059V126.175H0.214844V124ZM15.0211 0V-2.17544H14.12L13.4828 -1.53827L15.0211 0ZM124.215 0H126.39V-2.17544H124.215V0ZM124.215 112.765L125.753 114.303L126.39 113.666V112.765H124.215ZM112.979 124V126.175H113.881L114.518 125.538L112.979 124ZM-1.96059 14.8062V124H2.39028V14.8062H-1.96059ZM13.4828 -1.53827L-1.32342 13.268L1.75311 16.3445L16.5593 1.53827L13.4828 -1.53827ZM124.215 -2.17544H15.0211V2.17544H124.215V-2.17544ZM126.39 112.765V0H122.039V112.765H126.39ZM114.518 125.538L125.753 114.303L122.677 111.226L111.441 122.462L114.518 125.538ZM0.214844 126.175H112.979V121.825H0.214844V126.175Z" fill="#262626" mask="url(#path-1-inside-1_1035_6949)"/>
<g clip-path="url(#clip1_1035_6949)">
<path d="M84.6327 64.7218L40.375 65.3582L40.7258 89.7563L84.9835 89.12L84.6327 64.7218Z" fill="#181C20"/>
<path opacity="0.4" d="M84.7226 70.9747L40.4648 71.6111L40.5446 77.1577L84.8218 77.9272L84.7226 70.9747Z" fill="#020202"/>
<path d="M42.459 82.312L84.3885 82.2305C89.9451 82.2204 94.2748 87.0741 93.6255 92.5948L86.9613 149.837C86.4085 154.513 82.4644 158.039 77.7519 158.052L49.3725 158.104C44.6678 158.107 40.6951 154.603 40.1318 149.93L33.2458 92.718C32.5821 87.1932 36.8855 82.3237 42.4513 82.3213L42.459 82.312Z" fill="#98989A"/>
<path fill-rule="evenodd" clip-rule="evenodd" d="M91.465 92.3407C91.9619 88.1162 88.6469 84.3982 84.3928 84.4059C84.3927 84.4059 84.3929 84.4059 84.3928 84.4059L43.4754 84.4854L43.4664 84.4961L42.4523 84.4966C38.1949 84.4984 34.8972 88.2237 35.4055 92.4581C35.4056 92.4583 35.4055 92.4579 35.4055 92.4581L42.2914 149.67C42.7224 153.244 45.7617 155.93 49.3693 155.928C49.3698 155.928 49.3704 155.928 49.3709 155.928L77.746 155.876C77.7464 155.876 77.7468 155.876 77.7471 155.876C81.3554 155.866 84.3764 153.168 84.8009 149.582C84.8009 149.582 84.801 149.582 84.801 149.581L91.465 92.3407ZM86.9613 149.837C86.4085 154.513 82.4644 158.039 77.7519 158.052L49.3725 158.104C44.6678 158.107 40.6951 154.603 40.1318 149.93L33.2458 92.718C32.5821 87.1932 36.8855 82.3237 42.4513 82.3213L42.459 82.312L84.3885 82.2305C89.9451 82.2204 94.2748 87.0741 93.6255 92.5948L86.9613 149.837Z" fill="#262626"/>
<path fill-rule="evenodd" clip-rule="evenodd" d="M44.8541 82.3074C41.2284 90.8834 38.296 104.423 41.0002 122C42.894 134.309 41.351 137.69 38.5466 136.759L40.1318 149.93C40.6952 154.603 44.6678 158.107 49.3726 158.104L77.752 158.052C82.4645 158.039 86.4085 154.513 86.9614 149.837L93.6255 92.5948C94.2748 87.0741 89.9452 82.2204 84.3886 82.2306L44.8541 82.3074Z" fill="#7C7D84"/>
<path fill-rule="evenodd" clip-rule="evenodd" d="M92.548 101.85L87.709 143.414L69.3381 152.244L52.3751 143.696L50.8158 130.322L50.2778 102.189L92.548 101.85Z" fill="#A8A9AE"/>
<path fill-rule="evenodd" clip-rule="evenodd" d="M91.4647 92.3432L91.465 92.3407C91.9619 88.1162 88.6469 84.3982 84.3928 84.4059C84.3927 84.4059 84.3926 84.4059 84.3925 84.4059L43.4754 84.4854L43.4664 84.4961L42.4523 84.4966C38.1948 84.4984 34.8969 88.224 35.4056 92.4586L42.2915 149.67C42.7224 153.244 45.7617 155.93 49.3694 155.928C49.3699 155.928 49.3704 155.928 49.3709 155.928L77.746 155.876M49.3725 158.104L77.7519 158.052C82.4644 158.039 86.4085 154.513 86.9613 149.837L93.6255 92.5948C94.2748 87.0741 89.9451 82.2204 84.3885 82.2305L42.459 82.312L42.4513 82.3213C36.8855 82.3237 32.5821 87.1932 33.2458 92.718L40.1318 149.93C40.6951 154.603 44.6678 158.107 49.3725 158.104ZM84.8009 149.582C84.801 149.582 84.801 149.582 84.801 149.581L91.4647 92.3432M84.8009 149.582C84.3764 153.168 81.3558 155.865 77.7479 155.876Z" fill="#262626"/>
<path fill-rule="evenodd" clip-rule="evenodd" d="M34.9507 100.695L92.1431 100.578L92.1475 102.754L34.9551 102.87L34.9507 100.695Z" fill="#262626"/>
<path fill-rule="evenodd" clip-rule="evenodd" d="M49.2732 158.104L49.1696 101.251L51.3449 101.247L51.4486 158.1L49.2732 158.104Z" fill="#262626"/>
<path d="M89.0764 38.4964L89.0634 38.5698L89.0706 38.6441L92.5218 73.8723L43.872 75.3482L30.0891 71.9201L24.5596 32.2103L37.0716 21.5575L84.9846 19.2355L90.9183 28.08L89.0764 38.4964Z" fill="#7C7D84" stroke="#262626" stroke-width="1.08767"/>
<path d="M27 33.3077L29.4828 31.6923L31.6897 29L35 30.0769H32.2414L30.3103 31.9615L28.6552 33.8462L27.5517 36L27 33.3077Z" fill="#262626"/>
<path d="M67.1864 39.7138L56.7023 52.2143L41.312 52.7925L53.1134 42.1065L67.1864 39.7138Z" fill="#54555E"/>
<path d="M67.1864 39.7138L56.7023 52.2143L41.312 52.7925L53.1134 42.1065L67.1864 39.7138Z" fill="#54555E"/>
<path d="M82.5097 38.3694L70.211 52.1872L56.6353 51.4481L67.9527 39.6465L82.5097 38.3694Z" fill="#54555E"/>
<path d="M89.8485 29.6191L88.9078 40.8964L83.128 41.0174L78.4907 32.1596L89.8485 29.6191Z" fill="#54555E"/>
<path d="M37.0239 21.5146L52.9298 42.1332L40.4955 53.5207L32.7366 44.9446L37.4122 39.0707" stroke="#262626" stroke-width="2.17533" stroke-miterlimit="10"/>
<path d="M55.479 20.6675L67.5361 39.2971L52.93 42.1331" stroke="#262626" stroke-width="2.17533" stroke-miterlimit="10"/>
<path d="M43.814 75.894L40.4958 53.5206L56.3289 52.6003L67.953 39.6465" stroke="#262626" stroke-width="2.17533" stroke-miterlimit="10"/>
<path d="M70.4521 19.7399L82.3547 39.04L67.3919 39.4833" stroke="#262626" stroke-width="2.17533" stroke-miterlimit="10"/>
<path d="M82.3551 39.0401L71.7668 53.0103L57.7507 50.9642" stroke="#262626" stroke-width="2.17533" stroke-miterlimit="10"/>
<mask id="path-23-inside-2_1035_6949" fill="white">
<path d="M77.7047 31.0181L90.8966 28.369L87.4855 48.3582L74.7269 48.9576"/>
</mask>
<path d="M90.8966 28.369L93.041 28.7349L93.5738 25.6126L90.4683 26.2362L90.8966 28.369ZM87.4855 48.3582L87.5876 50.5311L89.3355 50.449L89.6298 48.7241L87.4855 48.3582ZM78.133 33.1509L91.3249 30.5017L90.4683 26.2362L77.2764 28.8854L78.133 33.1509ZM88.7523 28.003L85.3411 47.9923L89.6298 48.7241L93.041 28.7349L88.7523 28.003ZM87.3834 46.1852L74.6248 46.7846L74.829 51.1305L87.5876 50.5311L87.3834 46.1852Z" fill="#262626" mask="url(#path-23-inside-2_1035_6949)"/>
<mask id="path-25-inside-3_1035_6949" fill="white">
<path d="M93.1202 74.3982L105.781 41.4003L91.9198 34.7745L65.8418 46.5833L71.1053 60.5266L85.1217 57.4559"/>
</mask>
<path d="M93.1202 74.3982L105.781 41.4003L91.9198 34.7745L65.8418 46.5833L71.1053 60.5266L85.1217 57.4559" fill="#7C7D84"/>
<path d="M105.781 41.4003L107.812 42.1795L108.532 40.304L106.719 39.4376L105.781 41.4003ZM91.9198 34.7745L92.8579 32.8119L91.9446 32.3753L91.0224 32.7929L91.9198 34.7745ZM65.8418 46.5833L64.9445 44.6017L63.0863 45.4432L63.8067 47.3516L65.8418 46.5833ZM71.1053 60.5266L69.0702 61.2949L69.7342 63.054L71.5709 62.6516L71.1053 60.5266ZM95.1511 75.1775L107.812 42.1795L103.75 40.621L91.0892 73.619L95.1511 75.1775ZM106.719 39.4376L92.8579 32.8119L90.9816 36.7372L104.843 43.3629L106.719 39.4376ZM91.0224 32.7929L64.9445 44.6017L66.7392 48.565L92.8171 36.7561L91.0224 32.7929ZM63.8067 47.3516L69.0702 61.2949L73.1405 59.7584L67.877 45.8151L63.8067 47.3516ZM71.5709 62.6516L85.5872 59.5808L84.6561 55.3309L70.6398 58.4017L71.5709 62.6516Z" fill="#262626" mask="url(#path-25-inside-3_1035_6949)"/>
<path d="M75.95 42.8051L81.1251 57.7921L71.649 59.7815L65.8422 46.3941L75.95 42.8051Z" fill="#54555E"/>
<path d="M82.5766 39.1357L65.8414 46.5834L71.1048 60.5267L85.1212 57.4559" stroke="#262626" stroke-width="1.35693" stroke-miterlimit="10"/>
<path d="M75.6128 41.6604L80.9541 58.2392" stroke="#262626" stroke-width="2.17533" stroke-miterlimit="10"/>
<path d="M76.7979 59.2515L74.1836 74.5338" stroke="#262626" stroke-width="2.17533" stroke-miterlimit="10"/>
<path d="M95.6553 53.5903L97.8431 44.7654L92.4938 44.0803L100.223 43.4148L95.6553 53.5903Z" fill="#262626"/>
</g>
<path d="M79.4539 119.955C79.4539 119.955 80.2201 118.584 80.4218 117.962C80.6235 117.341 83.44 116.168 83.44 116.168L85.0942 113L84.2144 117.201L81.1884 118.908L80.7079 121.853L79.2869 124.959L79.3265 127.924L78.2045 122.767L79.8235 121.345L79.4539 119.955Z" fill="#262626"/>
<path d="M59.3973 127.599C59.3973 127.599 58.59 126.251 58.1518 125.767C57.7135 125.282 58.1003 122.255 58.1003 122.255L56.1788 119.243L59.3825 122.099L59.3537 125.573L61.6677 127.458L63.6516 130.238L66.2418 131.681L61.2122 130.084L60.786 127.971L59.3973 127.599Z" fill="#262626"/>
<mask id="path-34-inside-4_1035_6949" fill="white">
<path fill-rule="evenodd" clip-rule="evenodd" d="M0.214844 124V14.8062L15.0211 0H124.215V112.765L112.979 124H0.214844Z"/>
</mask>
<path d="M0.214844 14.8062L-1.32342 13.268L-1.96059 13.9051V14.8062H0.214844ZM0.214844 124H-1.96059V126.175H0.214844V124ZM15.0211 0V-2.17544H14.12L13.4828 -1.53827L15.0211 0ZM124.215 0H126.39V-2.17544H124.215V0ZM124.215 112.765L125.753 114.303L126.39 113.666V112.765H124.215ZM112.979 124V126.175H113.881L114.518 125.538L112.979 124ZM-1.96059 14.8062V124H2.39028V14.8062H-1.96059ZM13.4828 -1.53827L-1.32342 13.268L1.75311 16.3445L16.5593 1.53827L13.4828 -1.53827ZM124.215 -2.17544H15.0211V2.17544H124.215V-2.17544ZM126.39 112.765V0H122.039V112.765H126.39ZM114.518 125.538L125.753 114.303L122.677 111.226L111.441 122.462L114.518 125.538ZM0.214844 126.175H112.979V121.825H0.214844V126.175Z" fill="#262626" mask="url(#path-34-inside-4_1035_6949)"/>
</g>
<defs>
<clipPath id="clip0_1035_6949">
<rect width="124" height="124" fill="white"/>
</clipPath>
<clipPath id="clip1_1035_6949">
<rect width="210.997" height="161.595" fill="white" transform="translate(55.8413 -6) rotate(39.9862)"/>
</clipPath>
</defs>
</svg>
