<svg width="103" height="41" viewBox="0 0 103 41" fill="none" xmlns="http://www.w3.org/2000/svg">
<mask id="path-1-inside-1_1035_6798" fill="white">
<path fill-rule="evenodd" clip-rule="evenodd" d="M0 5.73663V41H0.292259L5.65603 38L7.33397 41H103V4.2449L98.3459 6.84799L94.5157 0H10.2566L0 5.73663Z"/>
</mask>
<path fill-rule="evenodd" clip-rule="evenodd" d="M0 5.73663V41H0.292259L5.65603 38L7.33397 41H103V4.2449L98.3459 6.84799L94.5157 0H10.2566L0 5.73663Z" fill="#18AF55"/>
<path d="M0 41H-2V43H0V41ZM0 5.73663L-0.97629 3.9911L-2 4.56367V5.73663H0ZM0.292259 41V43H0.813569L1.26855 42.7455L0.292259 41ZM5.65603 38L7.40156 37.0237L6.42527 35.2782L4.67974 36.2545L5.65603 38ZM7.33397 41L5.58844 41.9763L6.16101 43H7.33397V41ZM103 41V43H105V41H103ZM103 4.2449H105V0.834702L102.024 2.49937L103 4.2449ZM98.3459 6.84799L96.6004 7.82428L97.5767 9.5698L99.3222 8.59351L98.3459 6.84799ZM94.5157 0L96.2613 -0.976291L95.6887 -2H94.5157V0ZM10.2566 0V-2H9.7353L9.28032 -1.74553L10.2566 0ZM2 41V5.73663H-2V41H2ZM0.292259 39H0V43H0.292259V39ZM4.67974 36.2545L-0.684031 39.2545L1.26855 42.7455L6.63232 39.7455L4.67974 36.2545ZM9.07949 40.0237L7.40156 37.0237L3.91051 38.9763L5.58844 41.9763L9.07949 40.0237ZM103 39H7.33397V43H103V39ZM101 4.2449V41H105V4.2449H101ZM99.3222 8.59351L103.976 5.99042L102.024 2.49937L97.3696 5.10246L99.3222 8.59351ZM92.7702 0.976291L96.6004 7.82428L100.091 5.8717L96.2613 -0.976291L92.7702 0.976291ZM10.2566 2H94.5157V-2H10.2566V2ZM9.28032 -1.74553L-0.97629 3.9911L0.97629 7.48215L11.2329 1.74553L9.28032 -1.74553Z" fill="#262626" mask="url(#path-1-inside-1_1035_6798)"/>
<circle cx="16" cy="21" r="6.125" fill="white" stroke="#262626" stroke-width="1.75"/>
<path d="M9.4633 18.6867L21.6877 23.1875" stroke="#262626" stroke-width="1.75"/>
<path d="M33.5371 28V12.4668H36.792V25.0566H41.3467V28H33.5371ZM48.5972 25.0566V28H43.1939V25.0566H44.2681V15.4102H43.1939V12.4668H48.5972V15.4102H47.523V25.0566H48.5972ZM56.503 12.4668H59.8439L57.7814 28H52.6251L50.5196 12.4668H53.9142L55.2032 24.4014L56.503 12.4668ZM61.5837 12.4668H69.1247V15.4209H64.8063V18.418H68.9098V21.3184H64.8493V25.0566H69.2321V28H61.5837V12.4668Z" fill="white"/>
<circle cx="87" cy="21" r="6.125" fill="white" stroke="#262626" stroke-width="1.75"/>
<path d="M80.4633 18.6867L92.6877 23.1875" stroke="#262626" stroke-width="1.75"/>
</svg>
