<svg width="480" height="627" viewBox="0 0 480 627" fill="none" xmlns="http://www.w3.org/2000/svg">
<path d="M1004.04 1145.33L1110.91 1263.39L852.878 1418.62L606.716 1175.4L556.246 1161.52L397.607 922.458L496.485 911.65L559.363 847.513L542.667 783.206L267.737 539.308L245.531 475.295L181.646 437.821L276.992 360.898L174.542 180.72L141.569 142.699L202.721 170.374L328.262 286.33L451.743 363.718L446.191 383.906L374.776 433.029L509.444 575.018L766.121 766.848L854.4 847.222L802.541 910.771L718.93 938.444L930.647 1116.1L1004.04 1145.33Z" fill="#FEE9CF"/>
<path d="M483.958 470.293L486.23 409.393L504.482 461.461L568.283 538.723L483.958 470.293Z" fill="#FEE9CF"/>
<path d="M235.778 168.608L304.584 194.769L278.845 209.405L235.778 168.608Z" fill="#FEE9CF"/>
<path d="M199.679 394.979L182.473 364.718L140.299 415.395L199.679 394.979Z" fill="#FEE9CF"/>
<path d="M500.562 479.168L455.998 426.403L474.886 493.768L584.969 567.857L500.562 479.168Z" fill="#FEE9CF"/>
<path d="M198.1 536.858L225.69 515.493L228.087 539.677L303.202 621.859L198.1 536.858Z" fill="#FEE9CF"/>
</svg>
