<svg width="124" height="124" viewBox="0 0 124 124" fill="none" xmlns="http://www.w3.org/2000/svg">
<g clip-path="url(#clip0_1029_274)">
<rect x="4.72441" y="7.18071" width="115.733" height="115.733" rx="57.8667" fill="#6551EB" stroke="#262626" stroke-width="2.3619"/>
<path fill-rule="evenodd" clip-rule="evenodd" d="M106.898 43.3767L93.187 38.9696L95.8716 30.6174L112.867 36.0801L122.563 53.395L113.149 70.8781L81.3527 89.0475L77 81.4303L106.615 64.5072L112.554 53.4778L106.898 43.3767Z" fill="#FEB03A" stroke="#262626" stroke-width="2.19328"/>
<path d="M116 56.3077L118.483 54.6923L120.69 52L124 53.0769H121.241L119.31 54.9615L117.655 56.8462L116.552 59L116 56.3077Z" fill="#262626"/>
<path fill-rule="evenodd" clip-rule="evenodd" d="M17.6648 43.3767L31.3755 38.9696L28.6909 30.6174L11.6958 36.0801L1.99946 53.395L11.4135 70.8781L43.2098 89.0475L47.5625 81.4303L17.9471 64.5072L12.0082 53.4778L17.6648 43.3767Z" fill="#FEB03A" stroke="#262626" stroke-width="2.19328"/>
<path d="M32.2312 80.4242L30.0283 78.4441L26.8565 77.0093L27.04 73.533L27.754 76.1976L30.0742 77.5751L32.3229 78.6861L34.689 79.1945L32.2312 80.4242Z" fill="#262626"/>
<path d="M53.8007 95.8369C57.0179 87.0273 69.4773 87.0273 72.6945 95.8369L79.8861 115.53C80.1856 116.35 79.5784 117.218 78.7052 117.218H47.7899C46.9168 117.218 46.3095 116.35 46.6091 115.53L53.8007 95.8369Z" fill="#FEB03A" stroke="#262626" stroke-width="2.51429"/>
<path opacity="0.4" fill-rule="evenodd" clip-rule="evenodd" d="M76.1554 104.163L73.8753 97.9196C70.6751 89.1565 59.3461 88.1417 54.2632 94.8751C58.1102 98.8131 63.9896 101.989 70.9298 103.439C72.6969 103.807 74.4458 104.046 76.1554 104.163Z" fill="#262626"/>
<path d="M94.5601 74.2528C85.1082 105.507 40.8559 105.507 31.404 74.2528L18.7118 32.2837C17.9203 29.6665 19.8792 27.0276 22.6135 27.0276L103.351 27.0276C106.085 27.0276 108.044 29.6665 107.252 32.2837L94.5601 74.2528Z" fill="#FEB03A" stroke="#262626" stroke-width="1.90476"/>
<path d="M79.8481 83.5366L82.7129 84.9628L79.7338 89.6485L79.8401 91.5069L77.8908 93.9218L78.3545 89.8646L80.9004 85.7156L79.8481 83.5366Z" fill="#262626"/>
<path d="M33.438 38.2399L36.5372 37.4423L37.3532 42.9345L38.6503 44.2696L38.7579 47.3712L36.4521 44.0009L35.66 39.1979L33.438 38.2399Z" fill="#262626"/>
<path opacity="0.4" fill-rule="evenodd" clip-rule="evenodd" d="M84.6367 91.2822C67.5568 98.3615 45.2317 91.2024 38.7606 69.8047L26.0684 27.8356C25.8891 27.2429 25.8242 26.6494 25.8586 26.0752L22.8796 26.0752C19.5065 26.0752 17.0899 29.3307 18.0663 32.5594L30.7585 74.5285C38.3077 99.4909 67.4334 105.076 84.6367 91.2822Z" fill="white"/>
<path d="M94.5345 74.1646C89.8233 89.7429 76.4157 97.4813 63.0088 97.3878C49.7628 97.2955 36.6173 89.5584 31.9619 74.1646L19.2696 32.1955C18.5373 29.774 20.3497 27.3323 22.8796 27.3323L103.617 27.3323C106.147 27.3323 107.959 29.774 107.227 32.1955L94.5345 74.1646Z" stroke="#262626" stroke-width="2.51429"/>
<mask id="path-13-inside-1_1029_274" fill="white">
<path fill-rule="evenodd" clip-rule="evenodd" d="M89.0295 117.863C81.0774 121.85 72.0999 124.094 62.5983 124.094C53.6185 124.094 45.107 122.09 37.4867 118.504V115.332H89.0295V117.863Z"/>
</mask>
<path fill-rule="evenodd" clip-rule="evenodd" d="M89.0295 117.863C81.0774 121.85 72.0999 124.094 62.5983 124.094C53.6185 124.094 45.107 122.09 37.4867 118.504V115.332H89.0295V117.863Z" fill="white"/>
<path d="M89.0295 117.863L90.1565 120.11L91.5438 119.415V117.863H89.0295ZM37.4867 118.504H34.9724V120.099L36.4161 120.779L37.4867 118.504ZM37.4867 115.332V112.818H34.9724V115.332H37.4867ZM89.0295 115.332H91.5438V112.818H89.0295V115.332ZM87.9025 115.615C80.2923 119.431 71.6998 121.58 62.5983 121.58V126.609C72.5 126.609 81.8625 124.269 90.1565 120.11L87.9025 115.615ZM62.5983 121.58C53.9963 121.58 45.8496 119.66 38.5572 116.229L36.4161 120.779C44.3643 124.519 53.2408 126.609 62.5983 126.609V121.58ZM40.0009 118.504V115.332H34.9724V118.504H40.0009ZM37.4867 117.846H89.0295V112.818H37.4867V117.846ZM86.5152 115.332V117.863H91.5438V115.332H86.5152Z" fill="#262626" mask="url(#path-13-inside-1_1029_274)"/>
<path d="M109.275 27.0278L107.578 37.6944L18.9178 37.6944L17.2208 27.0277L109.275 27.0278Z" fill="#FEB03A" stroke="#262626" stroke-width="1.90476"/>
<path d="M91 30.0769L92.8621 28.9231L94.5172 27L97 27.7692H94.931L93.4828 29.1154L92.2414 30.4615L91.4138 32L91 30.0769Z" fill="#262626"/>
<path d="M76 56.3077L78.4828 54.6923L80.6897 52L84 53.0769H81.2414L79.3103 54.9615L77.6552 56.8462L76.5517 59L76 56.3077Z" fill="#262626"/>
<path d="M101.211 54.2497L97.7135 55.3894L94.2011 57.9094L90.5766 55.5537L93.8854 56.4403L96.8074 54.8004L99.3984 53.0719L101.414 50.8431L101.211 54.2497Z" fill="#262626"/>
<circle cx="62.6218" cy="65.0467" r="18.8571" fill="#262626"/>
<circle cx="62.6218" cy="62.0467" r="17.6" fill="#DD932B" stroke="#A06A15" stroke-width="2.51429"/>
<rect x="53.8208" y="54.5038" width="6.28571" height="6.28571" fill="#FDDD2D"/>
<rect x="63.8784" y="51.9898" width="6.28571" height="3.77143" fill="#FDDD2D"/>
<rect x="70.1616" y="51.9898" width="17.6" height="3.77143" transform="rotate(90 70.1616 51.9898)" fill="#FDDD2D"/>
<rect x="63.8784" y="68.3328" width="6.28571" height="3.77143" fill="#FDDD2D"/>
<rect x="53.8208" y="63.304" width="6.28571" height="6.28571" fill="#FDDD2D"/>
</g>
<defs>
<clipPath id="clip0_1029_274">
<rect width="124" height="124" fill="white"/>
</clipPath>
</defs>
</svg>
