<svg width="114" height="41" viewBox="0 0 114 41" fill="none" xmlns="http://www.w3.org/2000/svg">
<mask id="path-1-inside-1_1029_7047" fill="white">
<path fill-rule="evenodd" clip-rule="evenodd" d="M0 5.73663V41H0.292259L5.65603 38L7.33397 41H114V4.80421L110.346 6.84799L106.516 0H10.2566L0 5.73663Z"/>
</mask>
<path fill-rule="evenodd" clip-rule="evenodd" d="M0 5.73663V41H0.292259L5.65603 38L7.33397 41H114V4.80421L110.346 6.84799L106.516 0H10.2566L0 5.73663Z" fill="#43D8BC"/>
<path d="M0 41H-2V43H0V41ZM0 5.73663L-0.97629 3.9911L-2 4.56367V5.73663H0ZM0.292259 41V43H0.813569L1.26855 42.7455L0.292259 41ZM5.65603 38L7.40156 37.0237L6.42527 35.2782L4.67974 36.2545L5.65603 38ZM7.33397 41L5.58844 41.9763L6.16101 43H7.33397V41ZM114 41V43H116V41H114ZM114 4.80421H116V1.39401L113.024 3.05868L114 4.80421ZM110.346 6.84799L108.6 7.82428L109.577 9.5698L111.322 8.59351L110.346 6.84799ZM106.516 0L108.261 -0.976291L107.689 -2H106.516V0ZM10.2566 0V-2H9.7353L9.28032 -1.74553L10.2566 0ZM2 41V5.73663H-2V41H2ZM0.292259 39H0V43H0.292259V39ZM4.67974 36.2545L-0.684031 39.2545L1.26855 42.7455L6.63232 39.7455L4.67974 36.2545ZM9.07949 40.0237L7.40156 37.0237L3.91051 38.9763L5.58844 41.9763L9.07949 40.0237ZM114 39H7.33397V43H114V39ZM112 4.80421V41H116V4.80421H112ZM111.322 8.59351L114.976 6.54973L113.024 3.05868L109.37 5.10246L111.322 8.59351ZM104.77 0.976291L108.6 7.82428L112.091 5.8717L108.261 -0.976291L104.77 0.976291ZM10.2566 2H106.516V-2H10.2566V2ZM9.28032 -1.74553L-0.97629 3.9911L0.97629 7.48215L11.2329 1.74553L9.28032 -1.74553Z" fill="#262626" mask="url(#path-1-inside-1_1029_7047)"/>
<circle cx="17" cy="21" r="6.125" fill="white" stroke="#262626" stroke-width="1.75"/>
<path d="M10.3645 22.8978L22.7869 18.9764" stroke="#262626" stroke-width="1.75"/>
<path d="M43.7432 30.6855L40.5205 28H34.5371V14.6152L36.6855 12.4668H43.958V30.6855H43.7432ZM37.8027 15.4209V25.0566H40.7031V15.4209H37.8027ZM46.2671 16.6025L45.8375 14.6152L48.2759 12.4775V12.4668H51.5201V28H48.2652L48.2759 16.6025H46.2671ZM53.2706 17.1289V10.8555H56.0206V17.1289H53.2706ZM66.1823 28H57.5134V22.7148L62.9274 17.7949V15.4209H60.779V17.0859H57.6745V14.6152L59.8229 12.4668H66.1823V18.998L60.779 23.8105V25.0566H66.1823V28ZM73.5295 28V25.0674H69.802L67.9866 22.1885L73.218 12.4668H74.5071L76.6555 14.6152V22.21H78.0627V24.917H76.6555V28H73.5295ZM71.0588 22.3604H73.5295V17.1826L71.0588 22.3604Z" fill="#262626"/>
<circle cx="96" cy="21" r="6.125" fill="white" stroke="#262626" stroke-width="1.75"/>
<path d="M89.4633 18.6868L101.688 23.1876" stroke="#262626" stroke-width="1.75"/>
</svg>
