<svg width="100" height="106" viewBox="0 0 100 106" fill="none" xmlns="http://www.w3.org/2000/svg">
<path d="M49.999 12.6121C33.4795 12.6121 20.0903 26.0012 20.0903 42.5207V81.8295C20.0903 83.824 20.9847 85.7112 22.532 86.9723L38.345 99.8963C40.42 101.596 43.0227 102.517 45.7059 102.517H54.301C56.9842 102.517 59.578 101.587 61.6619 99.8963L77.4749 86.9723C79.0222 85.7112 79.9166 83.824 79.9166 81.8295V42.5207C79.9076 26.0012 66.5185 12.6121 49.999 12.6121Z" fill="#E5B6A2" stroke="#262626" stroke-width="2.01796" stroke-miterlimit="10"/>
<path fill-rule="evenodd" clip-rule="evenodd" d="M20.2352 44.4522C21.5805 36.3804 29.2151 20.2367 48.9911 20.2367C66.17 20.2367 75.9636 32.6723 79.8931 41.3399C79.2648 25.3678 66.1231 12.6121 49.999 12.6121C33.4795 12.6121 20.0903 26.0012 20.0903 42.5207V44.2108L20.2352 44.4522Z" fill="#D6A591"/>
<path d="M29.4398 21.4741C30.1709 37.5569 40.1007 50.4109 44.9743 53.9138C40.8622 58.1781 31.6329 63.6 27.6122 58.4827C23.5915 53.3655 21.368 45.0804 20.7588 41.5776V37.9224L23.5002 29.6983L27.6122 23.3017L29.4398 21.4741Z" fill="#83695D" stroke="#262626" stroke-width="1.82759"/>
<path d="M49.999 12.6121C33.4795 12.6121 20.0903 26.0012 20.0903 42.5207V81.8295C20.0903 83.824 20.9847 85.7112 22.532 86.9723L38.345 99.8963C40.42 101.596 43.0227 102.517 45.7059 102.517H54.301C56.9842 102.517 59.578 101.587 61.6619 99.8963L77.4749 86.9723C79.0222 85.7112 79.9166 83.824 79.9166 81.8295V42.5207C79.9076 26.0012 66.5185 12.6121 49.999 12.6121Z" stroke="#262626" stroke-width="2.01796" stroke-miterlimit="10"/>
<path d="M36.7501 68.0776L50.0001 61.2241V102.345H41.776L20.7587 84.0689L18.9312 61.2241L36.7501 68.0776Z" fill="#3E3F44"/>
<path d="M63.2499 68.0776L49.9999 61.2241V102.345H58.224L79.2413 84.0689L81.0688 61.2241L63.2499 68.0776Z" fill="#4F5159"/>
<path d="M79.6515 41.4369L80.5184 41.148L80.2295 40.2811L79.0736 36.8135L78.7846 35.9465L77.9177 36.2355L74.8028 37.2738C72.3038 38.1068 70.571 40.3866 70.4373 43.0173L69.3099 65.1891C69.2921 65.5395 69.0752 65.8487 68.7519 65.9849L63.8192 68.0618C63.5614 68.1703 63.2681 68.1548 63.0232 68.0197L62.5817 68.8198L63.0232 68.0197L53.0902 62.5394C51.1668 61.4783 48.8335 61.4783 46.9101 62.5394L36.9663 68.0257C36.7229 68.1599 36.4317 68.1761 36.1749 68.0697L19.0674 60.9763L18.2233 60.6263L17.8733 61.4704L16.4733 64.8469L16.1233 65.691L16.9674 66.041L34.0749 73.1343C35.8723 73.8796 37.9112 73.7662 39.6149 72.8262L49.5587 67.34C49.8335 67.1884 50.1668 67.1884 50.4416 67.34L60.3746 72.8203C62.089 73.7662 64.1422 73.8747 65.9468 73.1149L70.8795 71.038C73.1429 70.085 74.6609 67.9202 74.7856 65.4675L75.913 43.2957C75.9321 42.9199 76.1796 42.5942 76.5366 42.4752L79.6515 41.4369Z" fill="#83695D" stroke="#262626" stroke-width="1.82759"/>
<path d="M49.999 12.6121C33.4795 12.6121 20.0903 26.0012 20.0903 42.5207V81.8295C20.0903 83.824 20.9847 85.7112 22.532 86.9723L38.345 99.8963C40.42 101.596 43.0227 102.517 45.7059 102.517H54.301C56.9842 102.517 59.578 101.587 61.6619 99.8963L77.4749 86.9723C79.0222 85.7112 79.9166 83.824 79.9166 81.8295V42.5207C79.9076 26.0012 66.5185 12.6121 49.999 12.6121Z" stroke="#262626" stroke-width="2.01796" stroke-miterlimit="10"/>
<path d="M25.486 80.4324L22.9492 72.8221C22.7324 72.1716 22.1236 71.7328 21.4378 71.7328C20.558 71.7328 19.8447 72.446 19.8447 73.3259V77.6724V81.7914C19.8447 82.0903 19.8814 82.388 19.9539 82.6779L20.2043 83.6797C20.269 83.9385 20.3618 84.1893 20.4811 84.4279L20.8853 85.2364C21.1032 85.6721 21.406 86.0599 21.7758 86.3769L24.4137 88.6379L31.2671 94.1207L36.7499 98.6897L40.4547 101.16C40.725 101.34 41.0181 101.483 41.3263 101.586L43.0406 102.157C43.4133 102.282 43.8036 102.345 44.1965 102.345H49.0861H55.4276C55.7673 102.345 56.1052 102.298 56.4318 102.204L58.5892 101.588C58.9528 101.484 59.298 101.324 59.6126 101.115L61.8792 99.6035L66.9051 95.4914L77.859 86.2901C78.1692 86.0296 78.4339 85.7193 78.6423 85.3719L79.1773 84.4802C79.5181 83.9122 79.6982 83.2621 79.6982 82.5997V78.5862C79.483 76.8646 77.0767 76.6429 76.5506 78.2963L75.7812 80.7145C75.6539 81.1147 75.4134 81.4694 75.089 81.736L65.3541 89.7325C63.9009 90.9261 61.7792 90.8224 60.4494 89.4926L59.7515 88.7947C59.066 88.1093 58.1363 87.7242 57.1669 87.7242H42.5034C41.4593 87.7242 40.4651 88.1706 39.7715 88.951L39.6771 89.0572C38.3197 90.5842 35.974 90.7021 34.4704 89.3187L26.4788 81.9665C26.0233 81.5474 25.6817 81.0196 25.486 80.4324Z" fill="#BF3228" stroke="#262626" stroke-width="1.82759"/>
<path d="M25.486 80.4324L22.9492 72.8221C22.7324 72.1716 22.1236 71.7328 21.4378 71.7328C20.558 71.7328 19.8447 72.446 19.8447 73.3259V77.6724V81.7914C19.8447 82.0903 19.8814 82.388 19.9539 82.6779L20.2043 83.6797C20.269 83.9385 20.3618 84.1893 20.4811 84.4279L20.8853 85.2364C21.1032 85.6721 21.406 86.0599 21.7758 86.3769L24.4137 88.6379L31.2671 94.1207L36.7499 98.6897L40.4547 101.16C40.725 101.34 41.0181 101.483 41.3263 101.586L43.0406 102.157C43.4133 102.282 43.8036 102.345 44.1965 102.345H49.0861H55.4276C55.7673 102.345 56.1052 102.298 56.4318 102.204L58.5892 101.588C58.9528 101.484 59.298 101.324 59.6126 101.115L61.8792 99.6035L66.9051 95.4914L77.859 86.2901C78.1692 86.0296 78.4339 85.7193 78.6423 85.3719L79.1773 84.4802C79.5181 83.9122 79.6982 83.2621 79.6982 82.5997V78.5862C79.483 76.8646 77.0767 76.6429 76.5506 78.2963L75.7812 80.7145C75.6539 81.1147 75.4134 81.4694 75.089 81.736L65.3541 89.7325C63.9009 90.9261 61.7792 90.8224 60.4494 89.4926L59.7515 88.7947C59.066 88.1093 58.1363 87.7242 57.1669 87.7242H42.5034C41.4593 87.7242 40.4651 88.1706 39.7715 88.951L39.6771 89.0572C38.3197 90.5842 35.974 90.7021 34.4704 89.3187L26.4788 81.9665C26.0233 81.5474 25.6817 81.0196 25.486 80.4324Z" stroke="#262626" stroke-width="1.82759"/>
<path d="M49.999 12.6121C33.4795 12.6121 20.0903 26.0012 20.0903 42.5207V81.8295C20.0903 83.824 20.9847 85.7112 22.532 86.9723L38.345 99.8963C40.42 101.596 43.0227 102.517 45.7059 102.517H54.301C56.9842 102.517 59.578 101.587 61.6619 99.8963L77.4749 86.9723C79.0222 85.7112 79.9166 83.824 79.9166 81.8295V42.5207C79.9076 26.0012 66.5185 12.6121 49.999 12.6121Z" stroke="#262626" stroke-width="2.01796" stroke-miterlimit="10"/>
<rect x="9.13642" y="45.4611" width="10.0898" height="27.2425" rx="2.01796" fill="#BF3228" stroke="#262626" stroke-width="2.01796"/>
<rect x="13.1721" y="41.4252" width="10.0898" height="35.3143" rx="2.01796" fill="#BF3228" stroke="#262626" stroke-width="2.01796"/>
<g opacity="0.1">
<mask id="mask0_1062_2565" style="mask-type:alpha" maskUnits="userSpaceOnUse" x="12" y="40" width="13" height="38">
<rect x="12.1631" y="40.4163" width="12.1078" height="37.3323" rx="3.02694" fill="#BF3328"/>
</mask>
<g mask="url(#mask0_1062_2565)">
<path d="M13.4482 84.9827L21.3434 32.8965L29.8965 39.0243L23.9751 78.8549L13.4482 84.9827Z" fill="#45120D"/>
</g>
</g>
<rect x="13.1721" y="41.4252" width="10.0898" height="35.3143" rx="2.01796" stroke="#262626" stroke-width="2.01796"/>
<rect x="-1.00898" y="1.00898" width="10.0898" height="27.2425" rx="2.01796" transform="matrix(-1 0 0 1 89.8741 44.4521)" fill="#BF3228" stroke="#262626" stroke-width="2.01796"/>
<rect x="-1.00898" y="1.00898" width="10.0898" height="35.3143" rx="2.01796" transform="matrix(-1 0 0 1 85.838 40.4163)" fill="#BF3228" stroke="#262626" stroke-width="2.01796"/>
<g opacity="0.1">
<mask id="mask1_1062_2565" style="mask-type:alpha" maskUnits="userSpaceOnUse" x="75" y="40" width="13" height="38">
<rect width="12.1078" height="37.3323" rx="3.02694" transform="matrix(-1 0 0 1 87.856 40.4163)" fill="#BF3328"/>
</mask>
<g mask="url(#mask1_1062_2565)">
<path d="M86.571 84.9827L78.6759 32.8965L70.1228 39.0243L76.0441 78.8549L86.571 84.9827Z" fill="#45120D"/>
</g>
</g>
<rect x="-1.00898" y="1.00898" width="10.0898" height="35.3143" rx="2.01796" transform="matrix(-1 0 0 1 85.838 40.4163)" stroke="#262626" stroke-width="2.01796"/>
<rect x="58.2241" y="53" width="5.48276" height="8.22414" rx="1.82759" fill="#262626"/>
<circle cx="37.207" cy="57.5689" r="9.13793" fill="#4F5159" stroke="#262626" stroke-width="1.82759"/>
<circle cx="37.2069" cy="57.569" r="3.65517" fill="#01E25B"/>
<path d="M44.8654 74.3936C45.1014 73.6268 45.8099 73.1035 46.6122 73.1035H53.3877C54.19 73.1035 54.8985 73.6268 55.1345 74.3936L58.9467 86.7831C59.0476 87.1111 59.0541 87.4609 58.9655 87.7924L57.3927 93.6787C57.179 94.4783 56.4547 95.0345 55.627 95.0345H44.3729C43.5453 95.0345 42.8209 94.4783 42.6073 93.6787L41.0344 87.7924C40.9458 87.4609 40.9524 87.1111 41.0533 86.7831L44.8654 74.3936Z" fill="#BF3228" stroke="#262626" stroke-width="1.82759"/>
<path d="M46.8188 78.9459C47.0601 78.1875 47.7644 77.6725 48.5603 77.6725H51.4398C52.2357 77.6725 52.9401 78.1875 53.1814 78.9459L55.2789 85.538C55.3863 85.8757 55.3933 86.2374 55.2989 86.5789L54.5954 89.1247C54.3765 89.9169 53.6558 90.4656 52.8339 90.4656H47.1663C46.3444 90.4656 45.6236 89.9169 45.4047 89.1247L44.7012 86.5789C44.6069 86.2374 44.6138 85.8757 44.7213 85.538L46.8188 78.9459Z" fill="#E5B6A2" stroke="#262626" stroke-width="1.82759"/>
<path d="M48.0193 82.7149C48.3222 81.882 49.1137 81.3276 49.9999 81.3276C50.8861 81.3276 51.6777 81.882 51.9805 82.7149L52.514 84.182C52.6614 84.5874 52.6709 85.03 52.541 85.4413C52.2836 86.2563 51.5276 86.8104 50.673 86.8104H49.3269C48.4722 86.8104 47.7162 86.2563 47.4588 85.4413C47.329 85.03 47.3384 84.5874 47.4859 84.182L48.0193 82.7149Z" fill="#262626"/>
<rect x="43.3675" y="14.7386" width="14.1785" height="20.7225" rx="3.27197" fill="#BF3228" stroke="#262626" stroke-width="2.18131"/>
<path d="M44.3037 18.4415L51.1474 3.8986L57.2232 18.6541C58.5023 21.7603 56.2185 25.1705 52.8592 25.1705H48.574C45.1146 25.1705 42.8307 21.5716 44.3037 18.4415Z" fill="#BF3228" stroke="#262626" stroke-width="3.14631"/>
<path d="M44.7521 28.9765L51.0969 15.4937L56.7299 29.1736C57.9157 32.0534 55.7984 35.215 52.684 35.215H48.7111C45.5038 35.215 43.3864 31.8785 44.7521 28.9765Z" fill="#BF3228" stroke="#262626" stroke-width="2.91697"/>
</svg>
