<svg width="96" height="97" viewBox="0 0 96 97" fill="none" xmlns="http://www.w3.org/2000/svg">
<path d="M20.2224 39.7566C16.2404 48.7679 24.5954 61.1915 38.884 67.5054C53.1723 73.8193 67.9836 71.6326 71.9656 62.6214L74.313 57.3091L22.5698 34.4443L20.2224 39.7566Z" fill="#E36E2B"/>
<path d="M74.3897 57.1373L74.3135 57.3098M74.3135 57.3098L71.966 62.6221C67.9841 71.6334 53.1727 73.82 38.8844 67.5061C24.5959 61.1922 16.2408 48.7686 20.2228 39.7574L22.5703 34.4451L74.3135 57.3098Z" stroke="#262626"/>
<path d="M27.9874 58.7876C27.9874 58.7876 27.4457 58.3879 27.257 58.1811C27.0683 57.9742 25.7616 58.0147 25.7616 58.0147L24.5555 57.0713L25.6423 58.5552L27.1252 58.6858L27.8339 59.7502L28.6318 60.3718L30.4933 59.4856L28.9726 59.6639L28.0891 59.3952L27.9874 58.7876Z" fill="#262626"/>
<path d="M22.8149 33.893C18.8329 42.9043 27.188 55.3278 41.4765 61.6418C55.7649 67.9557 70.5761 65.769 74.5581 56.7578C78.54 47.7465 70.185 35.323 55.8965 29.009C41.608 22.6951 26.7969 24.8818 22.8149 33.893Z" fill="#F8CC45"/>
<path d="M22.8149 33.893C18.8329 42.9043 27.188 55.3278 41.4765 61.6418C55.7649 67.9557 70.5761 65.769 74.5581 56.7578C78.54 47.7465 70.185 35.323 55.8965 29.009C41.608 22.6951 26.7969 24.8818 22.8149 33.893Z" fill="#F8CC45"/>
<path d="M22.8149 33.893C18.8329 42.9043 27.188 55.3278 41.4765 61.6418C55.7649 67.9557 70.5761 65.769 74.5581 56.7578C78.54 47.7465 70.185 35.323 55.8965 29.009C41.608 22.6951 26.7969 24.8818 22.8149 33.893Z" stroke="#262626"/>
<path d="M29.4852 36.8223C26.7839 42.9353 33.1537 51.6732 43.7124 56.339C54.2712 61.0047 65.0205 59.8316 67.7218 53.7186C70.423 47.6057 64.0532 38.8678 53.4945 34.202C42.9358 29.5362 32.1864 30.7094 29.4852 36.8223Z" fill="#F8CC45"/>
<path d="M29.4852 36.8223C26.7839 42.9353 33.1537 51.6732 43.7124 56.339C54.2712 61.0047 65.0205 59.8316 67.7218 53.7186C70.423 47.6057 64.0532 38.8678 53.4945 34.202C42.9358 29.5362 32.1864 30.7094 29.4852 36.8223Z" fill="#F8CC45"/>
<path d="M38.0467 46.6003L40.566 41.617L42.4946 42.5921C44.379 43.5447 44.4233 43.5671 44.9123 43.9212C45.1718 44.1237 45.5199 44.371 45.7051 44.5003C45.8681 44.6183 46.342 44.9471 46.7717 45.2534C47.483 45.7735 47.5423 45.8213 47.4843 45.8811C47.4406 45.9124 47.3819 45.9184 47.3525 45.9214C47.301 45.9132 47.2938 45.9274 47.3238 45.9782C47.3538 46.029 47.3251 46.0858 47.2305 46.1628C47.1287 46.2539 47.1144 46.2823 47.2037 46.381C47.2337 46.4318 47.2787 46.508 47.2643 46.5364C47.2571 46.5506 47.2649 46.5902 47.3093 46.6126C47.3758 46.6462 47.4123 46.629 47.441 46.5722C47.4697 46.5154 47.5062 46.4982 47.5284 46.5095C47.5728 46.5319 47.5871 46.5035 47.5793 46.4639C47.5936 46.4355 47.608 46.4071 47.6595 46.4153C47.711 46.4235 47.7032 46.3839 47.6876 46.3047C47.687 46.2509 47.6635 46.1321 47.6701 46.0641C47.6688 45.9565 47.7053 45.9393 47.809 46.0096C47.9126 46.0798 49.5869 47.2827 51.55 48.6851L55.1058 51.2315L53.5424 54.4341L52.8774 54.0979C52.5227 53.9186 52.2123 53.7617 52.2045 53.7221C52.1895 53.6967 52.1152 53.6235 52.0043 53.5674C51.797 53.427 51.7142 53.2603 51.7567 53.1213C51.7997 53.0362 51.7626 52.9996 51.6517 52.9435C51.6224 52.9465 51.6218 52.8927 51.6505 52.8359C51.7222 52.6939 51.6036 52.5983 51.4647 52.6529C51.3988 52.673 51.3551 52.7044 51.3551 52.7044C51.3779 52.7694 51.312 52.7896 51.2821 52.7388C51.2449 52.7022 51.2234 52.7448 51.1953 52.8554C51.1391 53.0765 51.0302 53.1819 50.8822 53.0893C50.6827 52.9884 50.5197 52.8703 50.5412 52.8278C50.5556 52.7994 50.4884 52.7119 50.3991 52.6133C50.2505 52.4669 50.2505 52.4669 50.244 52.5349C50.2446 52.5887 50.1787 52.6088 50.0613 52.6208C49.929 52.6074 49.8775 52.5991 49.8103 52.5117C49.736 52.4385 49.6917 52.4161 49.633 52.4221C49.5449 52.431 48.6804 51.994 48.7462 51.9738C48.7534 51.9596 48.7456 51.92 48.7013 51.8976C48.6641 51.8609 48.6563 51.8213 48.6928 51.8042C48.7222 51.8012 48.6778 51.7788 48.597 51.7735C48.5161 51.7683 48.4202 51.7377 48.3981 51.7265C48.3831 51.7011 48.3466 51.7182 48.3322 51.7466C48.3179 51.775 48.2885 51.778 48.2663 51.7668C48.222 51.7444 48.207 51.719 48.2214 51.6906C48.2357 51.6622 48.2064 51.6652 48.1699 51.6824C48.104 51.7026 48.0818 51.6914 48.1177 51.6204C48.1392 51.5778 48.1314 51.5382 48.1093 51.527C48.0649 51.5046 48.1086 51.4732 48.2116 51.4896C48.3218 51.4918 48.3734 51.5001 48.4255 51.5621C48.4848 51.6099 48.5735 51.6547 48.6765 51.6712C48.8239 51.71 48.8533 51.707 48.7939 51.6592C48.7346 51.6114 48.7046 51.5606 48.719 51.5322C48.7405 51.4896 48.7112 51.4926 48.5938 51.5045C48.4836 51.5023 48.4321 51.4941 48.4242 51.4545C48.4092 51.4291 48.3499 51.3813 48.2984 51.373C48.2247 51.3536 48.1804 51.3312 48.1504 51.2804C48.142 51.187 47.9802 51.1765 47.9815 51.2841C47.96 51.3267 47.9456 51.3551 47.9235 51.3439C47.9013 51.3327 47.8132 51.3417 47.718 51.3648L47.5791 51.4194L38.0467 46.6003ZM41.7894 45.6938C41.6708 45.5981 41.6049 45.6183 41.6871 45.7311C41.717 45.782 41.7542 45.8186 41.7835 45.8156C41.8716 45.8066 41.8709 45.7528 41.7894 45.6938ZM48.6936 51.252C48.7236 51.3028 48.7458 51.314 48.7967 51.2684C48.8841 51.2056 48.8762 51.166 48.7589 51.178C48.7073 51.1698 48.6858 51.2124 48.6936 51.252ZM48.8129 51.4014C48.7249 51.4104 48.7992 51.4836 48.8801 51.4888C48.9609 51.4941 48.9609 51.4941 48.9016 51.4462C48.8866 51.4208 48.8423 51.3984 48.8129 51.4014ZM49.4427 51.8624C49.4355 51.8766 49.5242 51.9214 49.6351 51.9775C49.7459 52.0335 49.8196 52.0529 49.8046 52.0275C49.8189 51.9991 49.8261 51.9849 49.8705 52.0073C49.937 52.041 49.9728 51.97 49.9709 51.8086C49.9475 51.6898 49.9475 51.6898 49.8301 51.7017C49.7056 51.7279 49.4642 51.8198 49.4427 51.8624ZM50.8532 51.8803C50.7933 51.7787 50.6459 51.7398 50.4705 51.8115C50.3459 51.8377 50.3022 51.8691 50.3315 51.8661C50.3831 51.8743 50.398 51.8997 50.3837 51.9281C50.3765 51.9423 50.3178 51.9483 50.2441 51.9289C50.1039 51.8758 50.1196 51.955 50.2969 52.0447C50.4078 52.1007 50.4228 52.1261 50.3647 52.1859C50.3138 52.2315 50.3216 52.2711 50.3888 52.3585C50.4781 52.4571 50.4781 52.4571 50.4846 52.3891C50.4768 52.3495 50.484 52.3353 50.5062 52.3465C50.5433 52.3832 50.5727 52.3802 50.602 52.3772C50.6164 52.3488 50.6679 52.357 50.6757 52.3966C50.6907 52.422 50.6835 52.4362 50.632 52.428C50.4846 52.3891 50.5224 52.4796 50.6776 52.558C50.8106 52.6252 50.8915 52.6305 50.9717 52.5819C51.0813 52.5303 51.1106 52.5273 51.1849 52.6006C51.2221 52.6372 51.2814 52.685 51.3108 52.682C51.3179 52.6678 51.3251 52.6536 51.2808 52.6312C51.2364 52.6088 51.273 52.5916 51.3682 52.5684C51.5586 52.5221 51.5508 52.4825 51.3669 52.4608C51.2861 52.4556 51.2423 52.487 51.228 52.5154C51.243 52.5408 51.2286 52.5692 51.2065 52.558C51.0735 52.4907 51.065 52.3973 51.1296 52.2696C51.187 52.156 51.1942 52.1418 51.0462 52.0491C50.9647 51.9901 50.8832 51.9311 50.8532 51.8803ZM50.4229 51.5201C50.4445 51.4775 50.4001 51.4551 50.2821 51.4133C50.0461 51.3296 50.0461 51.3296 50.0545 51.423C50.0402 51.4514 50.0923 51.5134 50.1588 51.547C50.2253 51.5807 50.284 51.5747 50.269 51.5493C50.254 51.5239 50.2834 51.5209 50.3277 51.5433C50.3721 51.5657 50.4086 51.5485 50.4229 51.5201ZM48.731 50.6826C48.7525 50.64 48.7447 50.6004 48.7003 50.578C48.656 50.5556 48.6045 50.5473 48.5901 50.5757C48.583 50.5899 48.598 50.6153 48.6273 50.6124C48.6495 50.6236 48.6573 50.6632 48.6357 50.7058C48.607 50.7625 48.5705 50.7797 48.5627 50.7401C48.5255 50.7035 48.4369 50.6587 48.341 50.6281C48.2008 50.575 48.0332 50.6864 48.0645 50.8448C48.0657 50.9524 48.3318 51.0869 48.3748 51.0017C48.3892 50.9733 48.4622 50.9389 48.5574 50.9157C48.6455 50.9068 48.7035 50.847 48.7179 50.8186C48.7101 50.779 48.7094 50.7252 48.731 50.6826ZM48.163 50.4846C48.1487 50.513 48.1708 50.5242 48.2002 50.5212C48.2224 50.5324 48.2811 50.5264 48.2811 50.5264C48.2882 50.5122 48.2439 50.4898 48.2217 50.4786C48.1996 50.4674 48.1702 50.4704 48.163 50.4846ZM48.8986 50.5712C48.8321 50.5376 48.8393 50.5234 48.8986 50.5712C48.9357 50.6079 48.9436 50.6475 48.9142 50.6504C48.907 50.6646 48.8999 50.6788 48.9442 50.7013C49.0329 50.7461 49.0094 50.6273 48.8986 50.5712ZM53.4446 52.3703C53.3481 52.2859 53.2966 52.2777 53.1648 52.318C52.9157 52.3703 52.9104 52.5459 53.1471 52.6834C53.2729 52.7649 53.3466 52.7843 53.4784 52.7439C53.6101 52.7036 53.6466 52.6864 53.5801 52.6528C53.5579 52.6415 53.5945 52.6244 53.7125 52.6662C53.8155 52.6826 53.867 52.6908 53.8299 52.6542C53.7855 52.6318 53.7999 52.6034 53.8142 52.575C53.8436 52.572 53.8286 52.5466 53.7327 52.516C53.6369 52.4854 53.5261 52.4293 53.4446 52.3703ZM52.5017 52.1432C52.5682 52.1768 52.5975 52.1738 52.6047 52.1596C52.6119 52.1454 52.6041 52.1058 52.5819 52.0946C52.5597 52.0834 52.501 52.0894 52.4717 52.0924C52.4423 52.0954 52.4573 52.1208 52.5017 52.1432ZM41.0265 45.7715C41.1451 45.8672 41.1673 45.8784 41.1666 45.8246C41.1588 45.785 41.1954 45.7678 41.2397 45.7902C41.284 45.8126 41.269 45.7872 41.2241 45.711C41.1348 45.6124 41.1569 45.6236 41.3493 45.7386L41.5566 45.8791L41.4595 45.7409C41.3845 45.6138 41.3845 45.6138 41.4804 45.6445C41.554 45.6639 41.5612 45.6497 41.4725 45.6049C41.406 45.5713 41.3324 45.5518 41.318 45.5802C41.3108 45.5944 41.2815 45.5974 41.2665 45.572C41.2515 45.5466 41.1485 45.5302 41.0233 45.5025C40.8466 45.4667 40.8244 45.4555 40.8016 45.3905C40.7488 45.2746 40.5493 45.1738 40.3882 45.2171C40.3002 45.2261 40.2786 45.2687 40.3008 45.2799C40.3451 45.3023 40.3158 45.3053 40.2499 45.3255C40.1912 45.3315 40.1254 45.3516 40.1182 45.3658C40.1038 45.3942 40.0014 45.4316 39.9062 45.4548C39.8038 45.4921 39.7086 45.5153 39.6943 45.5437C39.6871 45.5579 39.6284 45.5639 39.5841 45.5415C39.5325 45.5332 39.4667 45.5534 39.4817 45.5788C39.4895 45.6184 39.4386 45.664 39.3799 45.67C39.3362 45.7014 39.2266 45.7529 39.1686 45.8127C39.089 45.9151 39.089 45.9151 39.2442 45.9935C39.3328 46.0384 39.4874 46.063 39.6341 46.0481C39.803 46.0443 39.9354 46.0578 40.0462 46.1138C40.1571 46.1698 40.1864 46.1668 40.1199 46.1332C40.0606 46.0854 40.0528 46.0458 40.1036 46.0002C40.2785 45.8747 40.3 45.8321 40.2622 45.7417C40.2172 45.6655 40.2172 45.6655 40.2694 45.7275C40.3659 45.8119 40.5198 45.7828 40.5772 45.6692C40.6346 45.5556 40.8335 45.6027 41.0265 45.7715ZM48.7959 49.3428C48.0774 48.837 46.855 47.9516 46.055 47.3868C43.588 45.6048 43.1733 45.3238 42.8702 45.1527C42.6706 45.0519 42.5526 45.01 42.4939 45.016C42.4502 45.0474 42.4352 45.022 42.4639 44.9652C42.4927 44.9084 42.4777 44.883 42.4261 44.8748C42.3746 44.8666 42.3818 44.8524 42.4255 44.821C42.4764 44.7754 42.4614 44.75 42.2175 44.6267C41.9809 44.4893 41.9294 44.481 41.827 44.5184C41.6881 44.573 41.6672 44.6694 41.8145 44.7082C41.8439 44.7052 41.9254 44.7642 41.9553 44.815C41.9632 44.8546 42.0297 44.8883 42.059 44.8853C42.0812 44.8965 42.1183 44.9331 42.1261 44.9727C42.1418 45.0519 42.1639 45.0631 42.2448 45.0683C42.3328 45.0594 42.3257 45.0736 42.3041 45.1162C42.2898 45.1446 42.3198 45.1954 42.3491 45.1924C42.4371 45.1834 42.3666 45.433 42.229 45.5951C42.1638 45.6691 42.0776 45.8395 42.0424 45.9643L41.9719 46.2138L46.073 48.2872C48.3414 49.4161 50.1592 50.3351 50.1442 50.3097C50.0999 50.2872 49.5072 49.8629 48.7959 49.3428ZM47.2392 47.5219C47.2686 47.519 47.3057 47.5556 47.3064 47.6094C47.307 47.6632 47.3292 47.6744 47.3879 47.6684C47.4244 47.6512 47.4609 47.634 47.4609 47.634C47.4609 47.634 47.4238 47.5974 47.3644 47.5496C47.2979 47.516 47.2314 47.4823 47.1949 47.4995C47.1655 47.5025 47.1877 47.5137 47.2392 47.5219ZM52.3171 50.196C52.3092 50.1564 52.2864 50.0914 52.2199 50.0577C52.1534 50.0241 52.1384 49.9987 52.1678 49.9957C52.2408 49.9614 52.1228 49.9195 51.9983 49.9457C51.8443 49.9748 51.8384 50.0966 51.9936 50.1751C52.0601 50.2087 52.156 50.2393 52.1925 50.2221C52.1997 50.2079 52.2512 50.2162 52.2662 50.2416C52.2812 50.267 52.3177 50.2498 52.3171 50.196ZM52.4488 50.1556C52.5362 50.0929 52.5284 50.0532 52.411 50.0652C52.3817 50.0682 52.3601 50.1108 52.3679 50.1504C52.3758 50.19 52.3979 50.2012 52.4488 50.1556ZM51.596 49.475C51.5061 49.3225 51.4539 49.2605 51.2916 49.1963C51.2029 49.1514 51.1892 49.2336 51.2929 49.3039C51.3522 49.3517 51.3972 49.4279 51.3756 49.4705C51.3834 49.5101 51.4356 49.5721 51.4799 49.5945C51.5243 49.6169 51.5321 49.6565 51.4812 49.7021C51.4303 49.7477 51.4525 49.7589 51.5483 49.7895C51.622 49.809 51.7029 49.8142 51.7322 49.8112C51.7616 49.8082 51.8059 49.8306 51.8724 49.8642C51.9246 49.9263 51.9539 49.9233 51.9311 49.8583C51.9455 49.8299 51.9598 49.8015 52.0042 49.8239C52.0928 49.8687 52.1065 49.7865 51.9879 49.6909C51.9208 49.6035 51.8692 49.5952 51.7812 49.6042C51.6638 49.6162 51.6638 49.6162 51.596 49.475ZM44.7663 45.8618C44.7878 45.8192 44.6261 45.8087 44.3913 45.8326C44.3326 45.8386 44.2889 45.87 44.2817 45.8842C44.2902 45.9776 44.3789 46.0224 44.5178 45.9679C44.6274 45.9163 44.7747 45.9552 44.6652 46.0067C44.6358 46.0097 44.6364 46.0635 44.6664 46.1143C44.6742 46.1539 44.6671 46.1681 44.6012 46.1883C44.4695 46.2287 44.5431 46.2481 44.7414 46.2413C44.8072 46.2212 44.9546 46.26 45.0211 46.2936C45.132 46.3497 45.1835 46.3579 45.2194 46.2869C45.2409 46.2443 45.2474 46.1763 45.2324 46.1509C45.1953 46.1143 45.1438 46.1061 45.1072 46.1233C45.0707 46.1405 45.0486 46.1292 45.0407 46.0896C45.0329 46.05 44.9514 45.991 44.8849 45.9574C44.8184 45.9238 44.7591 45.876 44.7663 45.8618ZM47.4011 46.9264C47.4083 46.9122 47.4005 46.8726 47.3562 46.8502C47.334 46.839 47.3046 46.842 47.3046 46.842C47.2975 46.8562 47.3125 46.8816 47.3274 46.907C47.3646 46.9436 47.394 46.9406 47.4011 46.9264ZM47.0857 46.3391C47.0707 46.3137 47.0342 46.3309 47.0348 46.3847C47.0354 46.4385 47.0504 46.4639 47.1019 46.4721C47.1535 46.4803 47.1672 46.3981 47.0857 46.3391ZM45.4733 45.3992C45.4583 45.3738 45.3625 45.3432 45.2594 45.3267C45.1342 45.2991 45.0605 45.2797 45.0677 45.2655C45.0749 45.2513 45.0234 45.2431 44.9575 45.2632C44.7964 45.3066 44.8152 45.6548 44.9926 45.7444C45.0369 45.7668 45.0735 45.7497 45.095 45.7071C45.1309 45.6361 45.1602 45.6331 45.2639 45.7033C45.3747 45.7594 45.4262 45.7676 45.4843 45.7078C45.528 45.6764 45.5939 45.6562 45.6382 45.6786C45.6604 45.6899 45.6526 45.6503 45.6004 45.5882C45.5261 45.515 45.4811 45.4388 45.4733 45.3992ZM45.4422 44.6348C45.4494 44.6206 45.4201 44.6236 45.3835 44.6408C45.2524 44.7349 45.313 44.8904 45.5569 45.0136C45.8229 45.1481 45.9428 45.3514 45.8339 45.4567C45.783 45.5023 45.7908 45.5419 45.8573 45.5755C45.9238 45.6091 45.9532 45.6062 45.901 45.5441C45.8117 45.4455 45.9519 45.4986 46.2179 45.633C46.3881 45.7369 46.4103 45.7481 46.4605 45.6487C46.482 45.6061 46.4808 45.4985 46.4286 45.4365C46.3687 45.3349 46.3243 45.3125 46.2806 45.3439C46.2219 45.3498 46.1554 45.3162 46.0074 45.2236C45.8594 45.1309 45.8444 45.1055 45.9031 45.0995C46.0205 45.0876 46.0127 45.048 45.9384 44.9748C45.8569 44.9157 45.8569 44.9157 45.9019 44.9919C45.9247 45.0569 45.9175 45.0711 45.8145 45.0547C45.6306 45.0331 45.5862 45.0106 45.6593 44.9763C45.7251 44.9561 45.6645 44.8007 45.5315 44.7334C45.4872 44.711 45.4279 44.6632 45.4422 44.6348Z" fill="#E47832"/>
<path d="M42.3338 38.1203L43.5396 35.7351L59.0353 43.5689L56.516 48.5522L54.676 47.622C53.2351 46.8935 52.8361 46.6918 52.8576 46.6492C52.8719 46.6208 52.8426 46.6238 52.7839 46.6298C52.7474 46.647 52.718 46.6499 52.7324 46.6216C52.7467 46.5932 52.7096 46.5565 52.6874 46.5453C52.6431 46.5229 52.6281 46.4975 52.6353 46.4833C52.7005 46.4093 52.7104 46.0044 52.6511 45.9565C52.6361 45.9311 52.5774 45.9371 52.5559 45.9797C52.5343 46.0223 52.5056 46.0791 52.4691 46.0963C52.4326 46.1135 52.4404 46.1531 52.4847 46.1755C52.5291 46.1979 52.5297 46.2517 52.4795 46.3511L52.4149 46.4789L49.9985 45.2573L48.6361 43.7128L49.2031 42.5913C49.4895 41.9696 49.7629 41.4839 49.7629 41.4839C49.7851 41.4951 50.2245 42.0024 50.7753 42.6196L51.7434 43.7329L52.5492 44.1759C52.9854 44.4143 53.6283 44.7393 53.968 44.8932L54.5516 45.1704L55.1473 43.992L45.5484 39.1393L45.4838 39.2671C45.4479 39.3381 45.0962 40.0337 44.7014 40.8146L43.9909 42.2201L41.0203 40.7184L41.0634 40.6332C41.0849 40.5906 41.1286 40.5592 41.1729 40.5816C41.1951 40.5928 41.2245 40.5899 41.2388 40.5615C41.246 40.5473 41.2238 40.5361 41.2017 40.5248C41.1501 40.5166 41.5299 39.7104 42.3338 38.1203ZM52.248 46.038C52.2696 45.9954 52.2768 45.9812 52.2546 45.97C52.2252 45.973 52.2109 46.0014 52.2187 46.041C52.2265 46.0806 52.2265 46.0806 52.248 46.038ZM51.9886 45.8355C52.1281 45.8348 52.1131 45.8094 51.9879 45.7817C51.9214 45.7481 51.8627 45.7541 51.8777 45.7795C51.8927 45.8049 51.9371 45.8273 51.9886 45.8355ZM52.9576 45.7906C52.9498 45.751 52.9276 45.7398 52.8546 45.7742C52.8181 45.7914 52.73 45.8004 52.7007 45.8034C52.6198 45.7981 52.6642 45.8205 52.7894 45.8482C52.8559 45.8818 52.8924 45.8646 52.8774 45.8392C52.8696 45.7996 52.8989 45.7966 52.9211 45.8078C52.9654 45.8302 52.9726 45.816 52.9576 45.7906ZM56.2858 46.4749C56.278 46.4353 56.2558 46.4241 56.1912 46.5519C56.126 46.6259 56.3417 46.8597 56.4891 46.8986C56.6365 46.9374 56.6274 46.7902 56.4716 46.658C56.3901 46.599 56.2936 46.5145 56.2858 46.4749ZM55.9879 46.1282C55.8992 46.0834 55.8698 46.0864 55.922 46.1484C55.937 46.1738 55.9741 46.2104 56.0257 46.2186C56.1359 46.2209 56.1209 46.1955 55.9879 46.1282ZM53.2683 44.7356C53.2827 44.7072 53.1275 44.6287 52.973 44.6041C52.8628 44.6018 52.8628 44.6018 52.9018 44.7998C52.9103 44.8932 52.9702 44.9949 52.9924 45.0061C53.0589 45.0397 53.2122 44.9567 53.2331 44.8603C53.2546 44.8178 53.254 44.764 53.2683 44.7356ZM49.9065 41.1999C50.0167 41.2021 50.0604 41.1708 50.0082 41.1087C50.0154 41.0945 49.9345 41.0893 49.8758 41.0953C49.7441 41.1357 49.7597 41.2149 49.9065 41.1999ZM53.1561 42.7002C53.1705 42.6718 53.1333 42.6351 53.0962 42.5985C53.0075 42.5537 52.9781 42.5567 53.0231 42.6329C53.0831 42.7345 53.1274 42.7569 53.1561 42.7002Z" fill="#E47832"/>
<path d="M29.4852 36.8223C26.7839 42.9353 33.1537 51.6732 43.7124 56.339C54.2712 61.0047 65.0205 59.8316 67.7218 53.7186C70.423 47.6057 64.0532 38.8678 53.4945 34.202C42.9358 29.5362 32.1864 30.7094 29.4852 36.8223Z" stroke="#E47832" stroke-width="3"/>
<path d="M32.232 28.1765C32.232 28.1765 31.8329 27.882 31.6938 27.7296C31.5548 27.5772 30.5919 27.607 30.5919 27.607L29.7032 26.9119L30.504 28.0053L31.5967 28.1015L32.1189 28.8858L32.9325 29.5936L33.3077 30.4513L32.958 28.8222L32.3069 28.6243L32.232 28.1765Z" fill="#262626"/>
<path d="M62.0045 63.6154C62.0045 63.6154 61.4628 63.2157 61.2741 63.0088C61.0854 62.802 59.7787 62.8425 59.7787 62.8425L58.5726 61.8991L59.6594 63.383L61.1423 63.5135L61.851 64.578L62.6489 65.1996L64.5104 64.3134L62.9897 64.4916L62.1062 64.223L62.0045 63.6154Z" fill="#262626"/>
<path d="M74.338 54.3133C74.338 54.3133 74.9902 54.7945 75.2174 55.0436C75.4446 55.2926 74.9285 55.7273 74.9285 55.7273L74.0213 57.7708L75.3143 55.4093L75.3761 54.4359L74.5228 53.1544L73.5622 52.406L71.321 53.4729L73.1519 53.2583L74.2156 53.5817L74.338 54.3133Z" fill="#262626"/>
<path d="M67.4391 38.4335L70.2997 40.8583L68.6752 42.3779L71.4218 40.7361L67.4391 38.4335Z" fill="#262626"/>
<path d="M24.0893 46.0777L25.9896 45.3312L28.3837 45.1707L29.1046 42.8821L28.0003 44.43L26.1698 44.7591L24.4497 44.9334L22.7995 44.6903L24.0893 46.0777Z" fill="#262626"/>
<path d="M59.8255 34.3365L61.0157 33.869L62.5152 33.7684L62.9667 32.3351L62.275 33.3045L61.1286 33.5106L60.0513 33.6198L59.0177 33.4675L59.8255 34.3365Z" fill="#262626"/>
<path d="M40.4635 62.3422L39.8464 61.5066L39.4523 60.3511L38.2326 60.2982L39.1387 60.6371L39.5415 61.4934L39.8536 62.3157L39.9515 63.1588L40.4635 62.3422Z" fill="#262626"/>
<path d="M44.081 60.6509L43.6805 61.9007L42.7874 63.1585L43.6343 64.4477L43.3122 63.2685L43.8922 62.223L44.5045 61.2955L45.2962 60.5723L44.081 60.6509Z" fill="#262626"/>
<path d="M44.3561 69.3636L43.7596 68.5558L43.3785 67.4388L42.1995 67.3876L43.0754 67.7152L43.4648 68.543L43.7666 69.338L43.7384 69.7702L44.3561 69.3636Z" fill="#262626"/>
<path d="M53.9364 66.5856L54.1681 68.212L53.8496 70.1162L55.5076 71.1054L54.5006 69.9535L54.5827 68.4593L54.7654 67.0802L55.1415 66.4796L53.9364 66.5856Z" fill="#262626"/>
</svg>
