<svg width="67" height="88" viewBox="0 0 67 88" fill="none" xmlns="http://www.w3.org/2000/svg">
<path d="M2.16897 49.6982C0.796104 47.3618 0.352699 44.8207 0.463551 43.7292C0.574406 42.6377 2.13487 31.3393 4.72712 30.0858C7.31936 28.8323 8.13796 27.5277 8.13796 27.5277L8.99068 18.1478C8.99068 18.1478 17.3899 16.3315 18.3705 17.2951C19.3511 18.2587 42.9713 31.2284 43.9519 31.7912C44.9325 32.354 60.1791 42.0238 61.0062 42.8765C61.8333 43.7292 62.3535 55.9486 61.8589 57.3726C61.3643 58.7967 47.4225 76.0641 46.5101 76.1323C45.5977 76.2005 41.3938 73.5742 41.3938 73.5742C41.3938 73.5742 3.54184 52.0346 2.16897 49.6982Z" fill="black"/>
<path d="M3.01841 43.729C3.01841 43.729 4.01609 34.4942 4.72384 33.4965C5.43159 32.4988 9.55019 29.898 9.84011 29.2329C10.13 28.5678 9.79748 19.9042 11.5455 19.8531C13.2936 19.8019 19.22 19.8531 19.22 19.8531C19.22 19.8531 41.7316 32.2003 43.0959 32.6438C44.4603 33.0872 57.8564 42.8593 58.4448 43.729C59.0331 44.5988 60.261 53.3647 60.1502 55.667C60.0393 57.9693 46.5068 71.8686 46.5068 71.8686L4.72384 47.9926L3.01841 43.729Z" fill="#850B00"/>
<path d="M13.2539 46.2869C12.3159 45.4854 6.65387 41.9296 3.48178 39.9513C3.83139 37.2738 4.32598 34.059 4.72676 33.4962C5.43451 32.4986 9.55312 29.8978 9.84304 29.2327C10.133 28.5675 9.8004 19.904 11.5485 19.8528C13.2965 19.8017 19.2229 19.8528 19.2229 19.8528C19.2229 19.8528 21.8493 21.2939 25.371 23.2125C27.0252 25.9753 30.0182 29.9319 31.1609 29.2327C31.9198 28.7722 30.9307 27.152 29.481 25.4466C35.6206 28.7807 42.3655 32.4048 43.0989 32.6435C44.4632 33.0869 57.8593 42.859 58.4477 43.7288C58.6864 44.0869 59.0361 45.7668 59.3516 47.7792C57.2454 51.7443 53.8516 57.8753 53.3229 58.2249C52.5895 58.711 47.3539 65.0466 47.3539 65.0466C47.3539 65.0466 18.8562 50.4396 18.3616 49.6978C17.8756 48.9559 14.5671 47.404 13.2539 46.2869ZM32.0136 51.4032C33.5485 50.3799 26.8547 42.3389 26.0446 42.8761C25.2345 43.4133 32.0136 51.4032 32.0136 51.4032Z" fill="#D43B0D"/>
<path d="M3.87407 41.1711L3.02136 38.613L20.9283 49.6982L46.5097 64.1944L49.0679 61.6362L54.1842 54.8145L60.1531 44.582L61.0059 47.1401L55.8896 56.52L50.7733 63.3417L47.3624 66.7525L20.9283 52.2564L3.87407 41.1711ZM18.3702 28.3804L9.84307 23.2641V21.5587L20.0756 26.675C20.0756 26.675 22.8811 35.1595 24.3392 36.0548C25.7973 36.9502 39.688 44.582 39.688 44.582C39.688 44.582 24.0407 38.4424 22.6338 37.7603C21.2268 37.0781 18.3702 28.3804 18.3702 28.3804ZM3.02136 32.644L3.87407 29.2331L14.1066 36.9075L3.02136 32.644ZM38.8353 49.6982C38.0338 47.0548 43.0051 42.4246 45.657 44.582C47.1749 45.8099 51.0973 47.6176 49.0679 52.2564C47.0384 56.8951 39.6369 52.3417 38.8353 49.6982Z" fill="black"/>
<path d="M43.9518 45.4342C45.6232 46.3636 48.7697 47.7536 48.2154 49.6977C47.6611 51.6419 46.0751 52.8954 43.9518 52.2559C41.8286 51.6163 39.5689 50.2435 40.541 47.9923C41.5131 45.7412 42.2805 44.5047 43.9518 45.4342Z" fill="#91AFAD"/>
</svg>
