<svg width="811" height="198" viewBox="0 0 811 198" fill="none" xmlns="http://www.w3.org/2000/svg">
<path d="M54.86 7.25998H98.54V189H7.28V167.42C7.28 150.52 7.28 145.84 8.06 145.84C8.58 145.84 8.32 145.58 7.8 145.06C7.28 144.8 7.02 144.54 7.54 144.54C8.06 144.54 8.32 144.02 8.32 143.76C8.32 143.24 8.58 142.98 8.84 142.98C10.4 143.24 16.38 141.42 16.64 140.64C16.9 140.38 16.38 139.86 15.6 139.86C14.82 139.86 13.78 139.86 13.26 139.6C12.74 139.34 12.22 139.6 12.22 140.12C12.22 140.64 11.44 140.9 9.62 140.9H7.28V112.56L19.76 92.54H40.3C51.48 92.28 60.58 92.54 60.58 92.54C60.58 92.8 56.42 99.3 51.48 107.36L42.38 121.66L41.86 131.28C41.6 136.48 41.6 144.02 41.86 147.92L42.12 154.68H63.7V42.1H61.36C60.06 42.1 47.32 42.1 33.02 42.1H7.28V7.25998H8.84C9.62 7.25998 10.4 7.52 10.4 8.03999C10.4 8.29999 10.66 8.56 11.18 8.56C11.44 8.56 11.44 8.29999 11.44 8.03999C11.18 7.52 25.74 7.25998 54.86 7.25998ZM12.48 137.26C13.26 137.26 13.52 137.26 13.52 137C13.26 136.74 12.74 136.74 12.22 137C11.7 137.26 11.7 137.26 12.48 137.26ZM13.52 133.88C14.56 135.18 14.82 134.92 14.3 133.62C14.3 132.84 13.78 132.32 13.52 132.58C13.26 132.84 13.26 133.36 13.52 133.88ZM21.32 142.72C21.84 142.46 21.84 142.2 20.8 141.68C20.28 141.42 19.5 140.64 19.24 140.38C18.72 139.6 18.72 140.12 19.24 141.42C19.24 142.2 19.76 142.46 20.02 142.2C20.54 141.94 20.8 142.2 20.8 142.46C20.8 142.98 21.06 142.98 21.32 142.72ZM35.88 177.04C36.4 176.78 36.4 176.52 34.06 176.52C32.5 176.26 30.68 179.38 31.2 180.94C31.72 182.5 33.8 181.72 34.58 179.64C34.84 178.6 35.36 177.3 35.88 177.04ZM38.74 172.62C38.74 171.58 38.48 171.32 37.96 172.1C37.7 172.36 37.44 172.88 37.7 173.4C38.48 174.44 38.74 174.18 38.74 172.62ZM39 140.64C39.52 140.64 39.52 138.82 38.74 137.26C37.96 136.22 37.96 136.22 35.36 137.52C34.06 138.04 33.02 139.08 33.02 139.34C33.02 140.12 35.36 141.16 36.92 140.9C37.7 140.9 38.48 140.64 39 140.64ZM65.78 92.54C66.56 93.58 67.34 93.84 67.86 93.06C68.12 93.06 67.6 92.28 67.08 91.76C65.52 90.72 64.48 91.24 65.78 92.54ZM67.86 129.98C68.38 129.98 68.64 129.46 68.9 128.94C68.9 127.9 68.64 127.64 67.86 128.42C66.82 129.46 66.82 129.98 67.86 129.98ZM199.92 176C200.18 176 200.44 178.86 200.44 182.5V188.74H196.02C192.12 188.74 191.34 188.74 191.86 187.7C191.86 187.18 192.12 186.66 192.12 186.4C192.12 185.88 192.9 185.62 194.2 185.62C195.24 185.62 196.02 185.36 195.76 185.1C195.5 184.58 195.5 184.32 196.02 184.32C196.54 184.32 196.54 184.06 196.02 183.54C195.5 182.76 194.98 182.76 193.94 183.28C193.16 183.8 192.9 184.06 193.68 184.58C194.2 185.1 194.2 185.1 193.42 184.84C192.9 184.58 192.64 184.32 192.64 183.8C192.9 182.76 190.82 178.6 190.04 178.6C189.78 178.6 189.52 177.82 189.52 176.78C189.52 175.74 189.26 175.48 189 175.74C189 176.26 188.22 176.78 187.44 176.78C186.14 176.78 185.88 178.08 187.18 179.12C187.7 179.64 188.22 180.68 188.22 181.46C188.22 182.76 188.74 183.02 190.04 183.28L191.86 183.54H190.04C188.22 183.8 187.96 184.58 187.96 188.22C188.22 188.74 179.9 189 148.7 189H109.18V7.25998H143.76V33.26C143.76 53.54 143.76 59.52 142.98 59.78C142.46 60.04 142.46 60.04 142.98 60.04C143.76 60.04 143.76 69.92 143.76 107.36V154.68L146.62 154.94C150.78 154.94 151.3 154.94 151.82 155.46C152.6 155.98 156.76 155.72 161.7 154.94C163.78 154.68 164.82 154.94 165.08 155.46C165.6 155.98 166.9 156.5 169.5 156.5C173.14 156.5 173.4 156.5 172.88 154.94C172.36 153.9 172.36 153.64 173.4 153.9C174.18 154.42 174.18 154.16 173.66 153.38C173.14 152.86 172.88 152.08 173.4 152.08C173.66 151.82 173.92 150.78 173.92 149.74C174.18 148.44 173.92 147.66 173.66 147.92C172.88 148.44 171.84 146.62 172.1 145.58C172.36 144.54 170.54 145.06 169.5 146.62C168.46 147.92 168.2 147.92 167.16 146.88C166.12 145.84 166.12 145.58 167.42 144.54C167.94 143.76 168.2 142.72 168.2 142.2C167.94 141.68 168.2 141.16 168.98 141.16C169.76 141.16 170.28 141.68 170.28 142.2C170.28 142.72 170.54 143.24 170.8 143.24C171.06 143.24 171.58 143.5 172.36 143.5C172.88 143.5 173.4 143.24 173.66 142.98C174.18 141.68 169.5 140.12 167.68 140.64L166.38 141.16V94.1C166.38 56.92 166.64 47.3 167.16 47.3C169.24 47.56 169.76 47.3 168.98 46.26C168.2 45.48 167.94 45.48 167.16 46C166.64 46.52 166.38 46.26 166.38 44.18C166.38 42.62 166.64 41.32 166.9 41.32C167.16 41.32 167.42 40.54 167.42 39.5C167.42 38.46 167.42 37.68 166.9 37.94C166.64 38.2 166.38 37.94 166.38 37.68C166.38 37.42 166.64 36.9 167.16 36.64C167.94 36.38 167.94 36.38 167.16 36.38C166.64 36.38 166.38 33 166.38 21.82V7.25998H200.44V63.68C200.44 94.62 200.44 120.1 200.18 120.1C199.92 120.1 199.4 119.58 198.88 119.06C197.84 118.02 197.58 118.02 196.54 119.06C195.5 120.1 193.94 120.36 193.94 119.32C193.94 118.8 193.68 118.8 192.64 119.32C191.86 119.84 191.6 119.84 191.6 119.32C191.6 119.06 190.82 118.28 190.04 118.02C188.74 117.24 188.48 117.24 189.78 118.54C190.82 119.84 190.82 119.84 189.52 120.1C186.92 120.88 186.4 120.62 186.4 119.32C186.4 118.02 185.36 117.5 184.58 118.8C184.06 120.1 185.1 123.22 186.4 123.22C186.92 123.22 187.7 123.74 187.96 124.26C187.96 124.78 188.74 125.04 189.26 125.04C189.78 125.04 190.3 125.82 190.3 127.12C190.3 128.16 190.3 128.94 190.56 128.94C192.12 128.68 193.42 129.2 193.42 129.98C193.42 130.5 193.16 131.02 192.64 131.02C192.38 131.02 192.38 131.54 192.9 132.32C193.42 133.62 193.42 133.62 192.64 133.1C191.08 131.54 190.82 132.32 192.12 133.88C193.68 135.44 195.24 135.44 194.2 133.88C193.94 133.62 194.2 133.62 194.98 134.14C195.5 134.66 196.28 134.66 197.06 134.66C198.1 134.14 198.36 131.8 197.06 131.28C196.8 131.28 197.06 131.02 197.84 131.28C198.62 131.28 199.66 131.8 199.92 132.32C200.7 133.36 200.7 173.92 199.92 172.88C199.66 172.36 199.14 172.36 198.88 172.62C198.36 173.66 199.14 176 199.92 176ZM195.76 24.68C195.5 24.94 196.02 25.2 196.8 25.2C197.58 24.94 198.36 24.68 198.36 24.16C198.62 23.38 198.62 23.12 197.84 23.9C197.32 24.42 196.8 24.42 196.54 24.42C196.28 24.16 196.02 24.16 195.76 24.68ZM192.38 33C191.34 34.04 191.34 34.3 192.12 34.3C192.38 34.3 192.9 33.78 193.16 33.26C193.42 32.48 193.16 32.48 192.38 33ZM189.78 95.4C189.26 95.66 189 95.92 189.78 96.96C190.56 98.26 191.6 97.48 191.08 95.92C190.82 95.4 190.3 95.14 189.78 95.4ZM118.8 89.16C119.06 89.16 119.32 88.9 119.32 88.38C119.32 88.12 119.06 87.86 118.8 87.86C118.28 87.86 118.02 88.12 118.02 88.38C118.02 88.9 118.28 89.16 118.8 89.16ZM142.2 54.32C142.2 54.06 141.68 54.06 140.64 54.06C138.82 54.06 138.3 54.32 139.08 55.1C139.34 55.62 141.68 55.1 142.2 54.32ZM153.38 166.38C153.9 166.38 154.16 166.12 154.16 165.6C154.16 165.34 153.9 165.08 153.9 165.08C153.64 165.08 153.38 165.34 153.12 165.6C152.86 166.12 153.12 166.38 153.38 166.38ZM154.68 168.2C154.94 169.76 156.24 170.02 155.98 168.46C155.72 167.94 155.46 167.42 154.94 167.16C154.42 166.9 154.42 167.42 154.68 168.2ZM156.76 165.6C157.02 165.6 157.28 165.34 157.28 165.08C157.28 164.82 157.28 164.3 157.02 164.3C157.02 164.3 156.5 164.82 156.5 165.08C156.24 165.34 156.24 165.6 156.76 165.6ZM178.6 96.7C177.82 96.18 176.78 95.92 176.52 96.18C176 96.44 175.22 96.44 174.7 96.18C172.88 95.14 171.58 96.18 173.14 97.22C173.92 97.74 174.18 98 173.92 98C173.66 98 173.4 98.26 173.66 98.52C174.18 99.56 178.6 99.3 178.6 98.26C178.6 97.74 178.86 97.48 179.38 97.48C179.9 97.48 179.38 96.96 178.6 96.7ZM178.34 133.88C178.6 133.62 178.6 133.1 178.34 132.58C178.08 131.8 177.82 131.54 177.56 131.8C177.3 131.8 177.56 132.58 177.82 133.1C177.82 133.62 178.34 134.14 178.34 133.88ZM176.26 63.94C177.04 62.9 175.22 62.12 174.18 62.9C173.66 63.68 173.66 63.94 174.18 64.2C175.48 64.72 176 64.72 176.26 63.94ZM174.7 57.7C174.7 57.44 174.18 57.96 173.66 58.48C172.88 59.78 172.36 61.34 173.14 61.34C173.4 61.34 173.92 61.08 174.44 60.56C174.96 59.78 175.22 59.26 174.7 57.7ZM169.24 132.58C169.76 132.32 170.28 132.06 170.28 131.8C170.28 131.8 169.76 131.54 169.24 131.54C168.72 131.54 168.2 131.8 168.2 132.32C168.2 132.58 168.72 132.58 169.24 132.58ZM170.28 51.2C170.54 51.2 170.8 50.68 170.54 50.42C170.28 49.9 170.02 49.9 169.5 50.42C168.72 51.72 168.72 52.5 169.5 52.5C170.02 52.5 170.02 51.98 170.02 51.72C169.76 51.46 169.76 51.2 170.28 51.2ZM172.88 56.92C172.36 56.92 172.1 57.18 172.1 57.44C172.1 57.96 172.36 58.22 172.88 58.22C173.14 58.22 173.4 57.96 173.4 57.44C173.4 57.18 173.14 56.92 172.88 56.92ZM172.36 132.32C172.1 133.36 173.14 135.44 173.92 135.44C174.18 135.44 173.92 134.66 173.66 133.36C173.4 132.06 173.4 131.54 173.92 131.8C174.44 132.06 174.7 132.06 174.7 131.54C174.7 130.5 172.62 131.28 172.36 132.32ZM176.52 141.94C177.04 141.42 177.04 140.64 176.52 139.86C175.74 138.3 173.4 136.22 172.62 136.22C172.36 136.22 172.62 137 172.88 138.04C173.14 139.08 173.14 139.86 172.88 139.86C172.62 139.86 173.14 140.64 174.18 141.42C175.48 142.98 175.74 142.98 176.52 141.94ZM178.34 142.46C179.12 142.46 179.9 142.2 179.9 141.94C179.9 141.16 179.12 141.16 178.08 141.94C177.3 142.46 177.3 142.46 178.34 142.46ZM180.68 59.78C179.9 60.3 179.9 64.46 180.68 65.76C181.46 66.8 181.98 66.8 181.72 65.5C181.46 64.98 181.46 64.72 182.24 64.98C183.28 65.5 184.06 63.16 183.28 61.6C182.5 60.56 182.5 60.56 182.24 61.6C181.46 63.42 180.42 62.9 180.68 61.08C181.2 60.04 180.94 59.52 180.68 59.78ZM184.06 96.7C183.02 95.14 180.42 94.36 180.42 95.66C180.42 96.96 183.8 99.56 184.84 99.04C185.36 98.78 186.14 98.78 186.4 98.78C186.66 98.78 186.92 98.52 186.92 98C186.92 97.74 186.66 97.48 186.14 97.74C185.36 98 184.58 97.48 184.06 96.7ZM188.74 132.84C189.26 131.54 189 131.02 187.7 129.72C186.14 128.68 184.06 127.64 185.1 128.68C185.62 129.2 183.8 131.54 183.02 131.54C182.76 131.54 182.76 131.28 182.76 130.5C183.02 129.98 182.76 129.72 182.24 129.72C180.68 129.72 180.42 132.32 181.98 133.88C183.54 135.7 184.06 135.7 184.58 134.4C184.84 133.62 185.62 133.62 186.66 133.88C187.96 134.14 188.48 133.88 188.74 132.84ZM197.06 164.82C197.58 164.56 197.84 164.04 197.84 163.52C197.84 163 197.32 162.48 196.8 162.48C196.02 162.48 195.76 162.74 196.54 163C197.06 163.52 197.32 164.04 197.06 164.56C196.54 165.08 196.8 165.08 197.06 164.82ZM301.752 145.58L302.012 189.26H267.692V176.26C267.692 165.6 267.952 163.52 268.732 163.78C268.992 164.04 270.552 163.78 271.852 163.26C274.192 162.22 274.192 162.22 274.972 164.04C275.492 165.08 276.532 165.86 277.312 165.86C278.612 166.12 278.872 165.86 278.092 165.34C277.312 164.82 277.312 164.56 278.612 163.78C280.432 162.48 282.512 160.14 282.512 159.36C282.512 159.1 282.772 158.84 283.292 158.84C283.552 158.84 283.812 159.36 283.812 160.14C283.812 161.18 284.072 161.18 284.592 160.14C284.852 159.62 285.112 159.88 284.852 161.18C284.332 163 284.592 163.26 285.892 163.78C287.712 164.04 288.232 163.78 289.272 161.7C290.052 160.14 290.052 159.36 289.272 157.02C288.492 153.9 287.452 153.38 286.152 155.72C285.112 158.06 283.812 158.06 283.552 155.72C282.772 152.6 278.352 152.08 275.752 154.68C274.972 155.46 273.412 156.5 272.372 156.76C270.292 157.02 269.252 158.32 268.212 161.44C267.952 162.48 267.952 149.74 267.952 133.62C267.952 117.24 268.212 104.5 268.472 105.28C268.732 105.8 268.732 106.58 268.472 106.84C267.952 107.88 270.292 107.36 271.332 106.58C272.372 105.54 272.632 104.24 271.592 104.24C271.332 104.24 271.072 103.72 271.072 103.2C271.072 102.68 271.332 102.42 271.592 102.42C271.852 102.42 272.112 101.9 271.852 101.38C271.332 100.08 270.292 100.86 270.292 102.42C270.292 103.72 270.292 103.72 269.512 102.68C269.252 102.16 268.732 101.9 268.212 101.9C267.952 102.16 267.692 99.56 267.692 95.4V88.38L261.712 100.08C258.592 106.58 255.732 112.04 255.472 112.04C254.952 112.04 246.372 93.32 246.632 92.8C246.892 92.54 247.412 93.06 247.672 94.1C248.192 94.88 249.232 96.18 250.012 96.7C251.572 97.74 251.832 97.74 253.132 96.96C253.652 96.44 254.692 95.14 255.212 93.84C255.732 91.76 255.732 91.24 254.952 89.68C254.432 88.64 253.912 88.12 253.652 88.64C253.652 89.16 253.132 89.16 252.872 89.16C252.612 88.9 251.832 88.9 251.312 89.42C250.012 89.94 247.152 89.16 246.372 87.86C246.112 87.34 245.332 87.34 244.552 87.86C243.512 88.64 243.252 88.64 243.252 87.86C243.252 87.08 242.992 86.82 242.472 87.08C241.952 87.08 241.692 87.6 241.952 88.12C241.952 88.64 242.212 89.68 242.212 90.46C242.472 90.98 242.992 91.76 243.772 92.28L245.072 92.8V189.26H228.172C214.912 189.26 211.012 189 210.752 188.48C210.492 187.96 210.492 176 210.752 161.44C210.752 147.14 211.012 134.4 210.752 132.84C210.752 126.08 211.012 122.44 212.052 120.88C212.312 120.62 212.052 120.36 211.792 120.36C211.532 120.36 211.272 119.84 211.012 119.58C211.012 119.06 210.752 107.36 210.752 93.32V67.84L212.312 68.1C214.132 68.1 214.132 67.58 212.052 66.8L210.492 66.28V6.99999L227.392 7.25998H244.032L247.672 15.32C253.912 28.58 255.732 32.22 256.252 31.96C256.512 31.96 259.372 26.24 262.752 19.48L268.992 6.99999H301.752V66.54L299.412 66.8C297.852 66.8 296.552 66.54 296.032 66.02C295.512 65.5 294.732 64.98 294.212 64.98C293.432 64.98 293.432 64.98 293.952 65.5C294.732 66.02 294.472 66.28 293.432 66.54C291.092 67.06 290.052 67.06 290.572 66.28C291.092 65.24 290.572 65.5 289.272 66.54C288.232 67.58 288.232 69.14 289.532 73.04C289.792 73.82 289.792 73.82 290.312 73.3C290.572 72.52 291.092 72.78 291.872 73.56C292.652 74.34 293.172 74.6 293.432 74.08C293.692 73.04 294.732 73.04 294.732 74.34C294.732 76.42 300.192 74.6 300.192 72.26C300.192 71.74 300.712 70.44 300.972 69.66C301.752 68.62 301.752 70.18 301.752 76.94C301.752 83.96 301.492 85.78 300.712 86.04C299.932 86.56 299.932 86.82 300.712 88.12C302.012 90.2 302.272 100.08 301.232 99.3C300.452 99.04 300.452 99.3 300.972 100.34C301.232 101.38 301.492 121.66 301.752 145.58ZM292.912 44.18C292.652 43.92 292.392 44.18 292.652 45.22C292.652 47.3 292.912 47.3 294.472 45.48C295.252 44.44 295.252 44.18 294.732 44.44C294.212 44.7 293.432 44.7 292.912 44.18ZM224.012 114.38C224.792 112.82 224.532 112.3 222.452 113.34C221.412 113.6 220.632 114.38 220.632 115.16C220.632 115.68 220.372 116.46 220.112 116.98C219.332 117.5 219.852 117.5 221.672 116.98C222.972 116.46 223.752 116.2 223.752 115.94C223.492 115.68 223.752 115.16 224.012 114.38ZM229.472 114.12C230.772 113.6 230.512 112.82 228.692 111.78C227.912 111 227.132 111 227.392 111.26C227.392 111.52 227.132 111.78 226.872 111.78C225.832 111.78 225.312 113.6 226.092 114.12C227.132 114.64 227.912 114.64 229.472 114.12ZM242.212 144.8C241.692 144.28 241.432 144.28 241.432 144.54C241.432 144.8 240.912 144.8 240.652 144.28C239.352 143.24 238.832 143.24 238.832 144.8C238.832 145.58 239.352 146.1 240.652 146.36C241.432 146.36 242.472 146.62 242.732 146.62C242.992 146.62 243.252 146.36 243.252 146.1C243.252 145.84 242.732 145.32 242.212 144.8ZM243.512 84.74C244.292 83.96 243.512 83.44 242.212 83.96C241.692 83.96 241.432 84.48 241.692 85C242.212 85.78 242.992 85.78 243.512 84.74ZM260.932 69.14C262.232 66.28 262.232 66.28 260.152 66.28C258.592 66.28 258.072 66.54 257.812 68.1C257.552 69.66 258.332 71.48 259.372 71.48C259.892 71.48 260.412 70.44 260.932 69.14ZM268.992 89.68C267.952 90.46 269.512 92.54 271.072 92.54C271.592 92.54 272.372 92.8 272.372 93.32C272.372 94.36 273.932 93.84 274.452 92.54C274.452 92.02 274.452 91.24 273.932 91.24C273.672 91.24 273.672 90.98 273.672 90.46C273.932 89.68 273.672 89.42 272.112 89.42C270.552 89.42 270.292 89.68 270.552 90.72C270.812 91.5 270.812 92.02 270.292 92.02C270.032 92.02 269.772 91.5 269.772 90.72C269.772 89.94 269.252 89.42 268.992 89.68ZM271.332 99.04C271.592 99.04 271.332 98.52 270.812 97.74C270.292 96.96 269.512 96.44 268.992 96.44C268.212 96.44 268.212 96.7 268.992 97.22C269.512 97.48 269.772 97.74 269.252 97.74C268.732 97.74 270.292 98.78 271.332 99.04ZM272.372 97.74C274.192 99.3 274.452 99.3 274.972 98.26C275.492 96.96 274.972 96.44 272.632 96.44H270.552L272.372 97.74ZM275.752 144.28C276.012 143.76 275.492 143.5 274.452 143.5C273.412 143.5 272.892 143.76 273.152 144.28C273.412 144.54 273.932 144.8 274.452 144.8C274.972 144.8 275.492 144.54 275.752 144.28ZM284.072 75.9C284.592 75.9 285.112 75.64 285.112 75.38C285.112 74.86 284.592 74.6 284.072 74.6C283.552 74.6 283.292 74.86 283.292 75.38C283.292 75.64 283.552 75.9 284.072 75.9ZM288.752 90.72C289.012 90.98 289.272 91.24 289.792 91.24C290.052 91.24 290.312 90.98 290.312 90.72C290.312 90.46 289.792 89.94 289.272 89.94C288.752 89.94 288.492 90.46 288.752 90.72ZM295.252 107.36C296.032 107.1 297.072 107.1 297.332 107.62C298.632 108.14 298.632 108.14 298.112 107.1C298.112 106.58 298.112 106.06 298.892 106.06C300.192 106.06 300.192 105.28 298.632 104.5C297.852 103.98 297.592 103.2 297.852 102.42C298.112 101.64 298.372 101.64 298.632 102.68C299.152 103.46 299.152 102.94 298.892 101.38C298.632 99.82 298.112 98.52 297.852 98.26C297.072 97.22 297.332 94.62 298.112 94.1C298.632 93.84 298.632 93.58 298.112 93.32C297.592 93.06 297.332 92.54 297.592 92.02C298.112 91.5 298.372 91.5 299.412 92.54C300.712 93.58 300.712 93.58 299.932 92.28C298.892 90.2 298.112 89.68 296.552 90.98C296.032 91.76 295.512 92.02 295.512 91.5C295.512 91.24 294.992 91.76 294.472 92.54C293.952 93.58 293.432 93.84 293.692 93.06C293.952 92.54 293.692 92.02 293.172 91.76C292.392 91.5 292.132 91.76 292.392 92.54C292.392 93.06 292.132 93.58 291.612 93.84C291.092 93.84 291.092 93.58 291.352 93.06C291.612 92.02 291.612 92.02 290.312 92.54C289.012 93.32 288.492 94.62 289.792 94.1C290.312 94.1 291.092 94.36 291.872 94.88C292.652 95.4 292.912 95.92 292.652 95.66C290.832 95.66 290.572 95.92 290.572 98C290.572 99.3 290.832 100.08 291.352 99.82C291.612 99.82 291.872 100.34 292.132 101.38C292.132 102.16 291.872 102.94 291.612 102.94C291.092 102.94 290.832 103.46 290.832 104.24C290.832 105.28 291.352 105.28 293.692 105.02C295.772 105.02 296.032 105.02 295.252 105.54C293.692 106.58 293.952 107.62 295.252 107.36ZM297.332 148.7C297.332 149.48 297.852 150 298.372 150C299.152 150 299.152 149.74 298.632 148.7C298.372 147.92 297.852 147.4 297.592 147.4C297.592 147.4 297.332 147.92 297.332 148.7ZM300.192 154.42C300.972 156.24 301.232 155.98 300.712 153.64C300.452 152.6 299.932 151.82 299.412 151.82C298.632 151.82 298.632 152.08 299.152 152.34C299.412 152.6 299.932 153.64 300.192 154.42ZM403.071 34.56L403.331 62.38L398.131 68.1C395.531 71.22 382.791 85.52 369.791 99.82L346.391 126.08V189.26H329.491C315.711 189.26 312.331 189 312.071 188.48C311.811 187.96 311.811 185.1 311.811 182.5C312.071 177.3 312.071 177.3 313.891 177.3C314.671 177.3 315.711 177.04 315.971 176.78C316.751 176 315.451 174.96 314.411 175.22C313.631 175.48 312.851 174.96 312.331 173.92C311.291 171.58 311.551 17.4 312.591 17.4C313.111 17.14 313.111 17.14 312.331 16.62C311.551 16.1 311.811 15.84 313.111 15.32C315.191 14.28 315.191 12.98 313.371 11.94C312.071 11.42 311.811 10.64 311.811 9.07999V6.99999H403.071V34.56ZM325.591 179.64C326.111 179.64 326.371 179.38 326.111 178.86C326.111 178.6 325.591 178.34 325.331 178.34C324.811 178.34 324.551 178.6 324.551 178.86C324.551 179.38 325.071 179.64 325.591 179.64ZM327.931 179.38C327.931 180.68 330.271 179.9 331.831 178.6C332.871 177.3 333.131 177.04 332.091 176C331.571 175.48 331.051 175.22 330.791 175.48C330.791 175.48 329.491 174.44 328.191 173.14C326.111 170.8 324.291 169.5 325.851 171.32C326.111 171.84 326.111 172.88 325.851 173.66C325.591 175.22 325.591 175.22 324.811 174.18C324.291 173.4 324.031 173.14 324.031 173.66C324.031 174.18 323.771 174.18 323.251 174.18C322.991 173.92 322.731 173.4 322.991 173.14C323.251 172.62 323.251 172.36 322.731 172.36C322.471 172.36 321.951 173.14 321.951 173.66C321.691 174.7 321.171 174.96 320.391 174.7C319.611 174.44 319.351 174.44 319.611 174.7C319.871 174.96 320.391 175.22 320.911 175.22C321.691 175.48 322.471 176 322.991 176.78C323.771 177.82 324.031 177.82 324.551 177.04C325.071 176.26 325.331 176.52 326.371 177.56C327.151 178.34 327.931 179.12 327.931 179.38ZM368.491 49.64V41.84H346.391V57.96C346.391 71.74 346.651 74.08 347.431 73.3C347.951 72.78 352.891 67.32 358.351 61.08L368.491 49.64ZM373.431 60.04C374.211 61.08 376.031 60.82 376.031 59.78C376.031 59.52 375.511 59.26 374.471 59.26C373.171 59.26 372.911 59.26 373.431 60.04ZM398.911 8.29999C399.171 8.03999 399.171 7.52 398.651 7.52C398.391 7.52 398.131 8.03999 398.131 8.29999C398.131 8.56 398.131 8.82 398.391 8.82C398.391 8.82 398.911 8.56 398.911 8.29999ZM539.075 163C538.295 162.74 538.035 163 538.555 164.04C539.075 164.82 539.595 165.6 539.855 165.86C540.375 166.12 540.375 166.38 539.855 166.9C539.335 167.68 539.595 167.94 540.635 168.2C541.415 168.46 541.935 168.2 541.935 167.94C541.935 167.42 542.195 167.42 542.455 167.68C542.975 167.94 543.235 172.36 543.235 178.6V189.26H508.395V166.38L504.755 157.02C502.935 152.08 501.375 147.66 501.375 147.14C501.635 146.62 501.115 145.58 500.595 144.8C500.075 144.02 498.515 140.38 497.215 137.26C494.355 130.5 494.615 129.72 499.035 128.68C501.895 128.16 501.635 128.16 496.175 127.9C495.395 127.64 494.355 127.64 493.835 127.38C493.315 127.12 491.755 122.96 489.935 118.54L486.815 110.22L486.555 125.56C486.035 140.12 485.775 143.76 484.475 143.24C484.215 142.98 483.955 143.24 483.955 143.76C483.955 144.28 484.215 144.8 484.475 144.54C485.515 143.76 485.255 145.32 484.215 146.36C483.435 147.14 483.175 147.14 481.355 146.36C480.315 145.84 479.535 145.06 479.795 144.8C480.575 143.5 478.755 144.28 476.675 146.1C475.635 147.14 474.335 148.44 473.815 148.7C473.295 148.96 473.035 150 473.035 150.52C473.035 151.3 472.515 151.82 471.735 152.08C470.695 152.34 470.695 152.34 471.735 152.34C472.775 152.6 473.035 152.86 472.515 154.16C472.255 155.46 472.515 155.72 473.555 155.72C474.335 155.72 475.375 156.24 475.895 156.76C476.675 157.54 476.935 157.54 477.975 157.02C478.755 156.24 479.015 156.24 479.275 156.76C479.535 157.28 480.055 157.28 481.355 157.02C482.395 156.5 483.695 156.5 484.215 156.5C484.735 156.76 484.995 156.76 484.995 156.5C484.735 155.98 484.735 155.72 484.995 155.46C485.515 155.2 485.515 154.42 485.255 153.38C485.255 152.6 485.255 151.82 485.775 151.82C486.295 151.82 486.555 157.8 486.555 170.54V189.26H475.375C465.235 189.26 463.935 189 463.935 188.22C463.935 187.44 463.675 187.18 462.635 187.44C461.855 187.7 461.595 187.44 461.855 187.18C461.855 186.92 461.595 186.66 461.075 186.66C460.295 186.92 459.515 186.4 459.255 185.62C458.475 183.8 457.955 183.8 454.835 185.1L452.495 185.88V143.76C452.495 105.54 452.495 98.78 453.795 101.9C454.055 102.42 454.835 102.94 455.355 102.94C455.875 102.94 456.135 103.2 456.135 103.72C456.135 104.24 456.395 104.24 457.175 103.72C457.695 102.94 458.215 103.2 458.475 103.98C458.475 104.5 458.475 104.76 457.955 104.76C456.915 104.76 461.595 109.44 464.715 111.26C466.535 112.56 467.055 113.34 467.055 114.64C467.055 115.94 467.315 116.46 468.095 116.2C468.615 115.94 469.135 116.46 469.395 116.98C469.915 118.02 469.915 118.02 470.435 116.98C471.215 115.42 472.255 115.42 471.995 116.98C471.735 118.02 471.735 118.28 472.775 118.28C474.335 118.28 477.715 115.94 477.195 115.16C476.675 114.12 478.495 114.38 479.275 115.42C480.055 115.94 480.055 115.94 479.795 115.16C479.535 114.38 479.795 114.12 480.835 114.38C482.655 114.9 482.135 113.6 479.795 112.04C478.495 111.26 477.715 111 477.455 111.26C477.195 111.78 476.675 111.78 475.895 111C475.375 110.48 474.075 109.96 472.775 109.96C471.215 109.96 470.955 109.96 471.735 109.44C472.255 109.18 473.295 108.92 474.075 109.18C475.895 109.7 476.155 107.88 474.595 106.84C473.295 106.32 473.815 104.76 475.375 105.28C475.895 105.54 476.155 105.28 476.155 104.5C476.155 103.72 475.895 103.72 473.815 104.5C471.735 105.54 471.215 105.28 471.735 103.2C471.735 102.94 471.215 102.94 470.435 103.2C468.355 103.72 467.055 102.94 466.535 101.12C466.015 100.34 465.495 99.82 464.455 99.82C463.415 99.82 463.155 99.3 463.415 98L463.935 96.18L462.635 97.74C461.335 99.3 461.335 99.3 461.595 98C462.115 96.44 461.855 96.18 460.035 97.22C459.255 97.48 458.735 97.48 458.735 97.22C458.735 96.96 458.215 96.44 457.435 96.44C456.395 96.18 455.875 95.66 455.615 94.62C455.615 93.58 455.875 93.32 457.175 93.32C457.955 93.32 458.735 93.06 458.735 92.54C458.735 92.02 459.255 92.28 460.035 92.8C461.595 94.36 462.635 93.84 462.115 91.24C461.855 89.42 461.075 88.64 460.555 90.2C460.295 91.24 458.735 90.2 458.735 88.64C458.735 87.86 458.475 87.6 457.695 87.86C457.175 88.12 456.395 87.86 456.135 87.34C455.615 86.82 455.355 86.56 454.315 87.34C453.015 88.12 452.495 87.86 452.495 86.04C452.495 85.52 452.755 85 453.275 85C453.795 85 454.315 84.74 454.315 84.22C454.315 83.96 454.575 83.18 454.575 82.66C454.835 82.14 454.575 81.62 453.795 81.62C452.495 81.1 452.495 80.84 452.495 44.18V6.99999H486.555V28.06L495.915 52.5C501.115 65.76 506.055 78.5 506.835 80.84L508.395 84.48V78.5C508.395 75.12 508.395 57.7 508.395 39.76V6.99999H543.235L542.715 36.9L541.155 36.64C540.375 36.64 539.075 35.86 538.555 35.34C536.995 33.78 536.215 33.78 535.695 35.34C535.175 36.9 535.695 37.94 536.995 37.94C537.515 37.94 538.035 38.2 538.035 38.98C538.035 39.76 538.555 40.02 541.415 39.76H543.235V101.64C543.235 140.9 542.975 163.52 542.455 163.78C542.195 164.04 541.415 164.04 541.155 163.78C540.635 163.52 539.855 163 539.075 163ZM466.535 96.44C467.575 95.92 468.095 92.54 467.055 92.54C466.535 92.54 466.275 93.58 466.535 94.88C466.535 95.14 466.015 95.92 465.495 96.18C464.195 97.22 464.975 97.48 466.535 96.44ZM483.175 170.54C483.695 170.54 483.955 170.54 483.955 170.28C483.955 170.02 483.695 169.76 483.175 169.5C482.915 169.24 482.655 169.5 482.655 169.76C482.655 170.28 482.915 170.54 483.175 170.54ZM484.215 166.9C483.695 165.86 481.875 165.6 481.875 166.64C481.875 167.16 482.395 167.42 482.655 167.42C483.175 167.42 483.175 167.68 482.915 167.94C482.655 168.72 483.435 168.98 484.215 168.2C484.215 167.94 484.215 167.42 484.215 166.9ZM482.135 157.54C481.615 157.54 481.615 158.06 481.875 158.58C481.875 159.1 482.135 159.62 482.395 159.62C482.395 159.62 482.655 159.1 482.655 158.58C482.655 158.06 482.395 157.54 482.135 157.54ZM477.975 158.06C477.195 158.84 479.535 160.92 480.575 160.92C481.355 160.92 481.355 161.18 480.835 161.7C480.315 161.96 480.055 162.74 480.055 163C480.055 163.26 480.575 162.74 481.355 162.22C482.135 161.44 482.655 160.66 482.655 160.66C482.395 160.66 481.355 159.88 480.315 159.1C479.275 158.32 477.975 157.8 477.975 158.06ZM475.115 144.02C475.635 144.02 475.635 144.02 475.115 143.76C474.595 143.5 474.335 142.72 474.595 141.68C475.115 140.12 474.855 140.12 472.515 142.72C470.955 144.28 469.915 145.58 469.915 145.84C470.175 147.66 469.655 148.44 465.755 153.12C465.495 153.38 464.455 153.9 463.675 153.9C462.635 153.64 462.375 153.64 463.415 153.12C464.195 152.86 464.455 151.82 464.195 151.04C463.935 150 464.195 149.22 464.975 148.96C465.755 148.7 465.755 148.44 465.235 147.66C464.715 147.14 464.715 146.88 465.495 146.62C467.055 145.84 466.795 143.5 465.235 143.5C464.455 143.5 463.935 144.02 463.935 144.54C463.935 145.06 463.415 145.32 462.895 145.32C462.375 145.32 462.115 145.06 462.375 144.8C462.635 144.54 462.375 144.02 461.855 144.02C461.335 144.02 460.295 144.02 459.775 143.76C459.255 143.5 458.735 143.76 458.735 144.28C458.735 145.06 458.475 145.32 457.695 145.32C456.655 145.32 455.875 147.4 456.655 147.92C457.175 148.18 456.655 149.22 455.355 150.78C453.015 153.38 452.495 155.46 453.795 155.98C454.575 156.24 454.315 156.5 453.795 157.28C453.275 158.06 453.015 158.32 453.535 158.32C454.055 158.32 454.315 158.84 454.315 159.1C454.315 159.88 455.095 160.14 456.915 160.14C458.475 160.14 459.775 160.4 459.775 160.4C460.555 160.92 464.455 160.66 465.495 160.14C466.015 159.62 466.535 158.58 466.795 157.54C466.795 156.24 467.055 155.72 467.835 155.98C468.355 156.24 469.395 155.98 470.175 155.46C470.955 154.68 471.215 154.16 470.695 153.38C469.915 152.08 471.215 148.96 472.775 148.44C473.555 148.18 473.555 147.66 473.295 146.36C473.035 145.06 473.035 144.8 473.815 145.06C474.595 145.32 474.855 145.06 474.595 144.8C474.335 144.54 474.595 144.02 475.115 144.02ZM478.495 142.98C479.015 143.76 480.575 143.24 480.575 142.46C480.575 141.94 480.055 141.68 479.535 141.68C478.235 141.68 477.715 142.2 478.495 142.98ZM479.275 48.08C478.755 48.6 478.235 49.12 478.495 49.64C479.015 50.16 480.575 49.12 480.575 48.08C480.575 47.82 480.055 47.82 479.275 48.08ZM476.155 51.46C475.635 53.28 475.635 53.28 476.415 52.76C476.935 52.24 477.195 51.72 477.195 51.46C476.155 49.9 478.235 50.94 479.015 52.5C479.795 53.54 480.315 53.8 480.575 53.54C480.835 53.02 481.875 52.76 482.655 53.02L484.215 53.28L482.915 51.98C481.875 51.46 481.355 50.68 481.355 50.16C481.355 49.9 481.095 49.38 480.575 49.38C480.315 49.38 480.315 50.16 480.315 51.2C480.835 52.76 480.575 52.76 480.055 51.98C477.715 49.38 476.935 49.38 476.155 51.46ZM476.155 55.88C476.155 55.62 476.675 55.62 477.195 55.62C478.235 56.14 478.235 56.14 477.455 55.1C476.155 53.8 474.335 53.8 474.335 55.36C474.335 55.88 473.815 56.66 473.555 56.92C472.775 57.7 473.295 59.26 474.335 59.26C474.595 59.26 474.855 58.48 474.855 57.7C474.595 56.92 474.855 56.4 475.375 56.4C475.895 56.4 476.155 56.4 476.155 55.88ZM482.655 140.9C482.915 140.38 482.915 139.6 482.655 138.82C482.395 137.78 482.395 137.78 481.875 138.56C481.095 139.86 481.875 141.94 482.655 140.9ZM484.735 132.58C485.515 132.58 485.775 132.32 485.775 131.8C485.775 131.54 485.515 131.28 485.255 131.28C484.995 131.28 484.475 131.54 484.215 131.8C483.955 132.32 484.215 132.58 484.735 132.58ZM486.035 100.34C486.295 98.78 486.295 96.44 486.035 96.44C485.775 96.44 484.735 96.18 483.955 96.18C482.915 96.18 481.615 95.66 480.835 95.4C479.015 94.36 478.235 94.36 478.235 95.66C478.235 96.44 477.715 97.22 477.455 97.74C476.675 98.26 476.675 98.52 477.455 98.52C478.495 98.52 478.235 100.34 477.195 100.34C476.675 100.34 476.675 100.6 477.195 100.86C477.715 100.86 477.975 101.64 477.715 102.16C477.455 102.68 477.455 102.94 477.975 102.68C478.495 102.42 478.755 102.42 478.755 102.94C478.755 103.2 479.795 103.72 480.835 104.24C483.695 105.02 483.435 105.02 483.175 104.5C482.915 104.24 483.175 103.46 483.695 102.42C484.215 101.12 484.475 100.6 483.695 100.34C483.175 99.82 483.175 99.82 483.695 99.82C484.215 99.82 484.475 99.3 484.215 98.78C483.955 98.52 484.215 98.78 484.735 99.3C485.515 100.08 485.775 100.6 486.035 100.34ZM486.295 42.88C486.815 42.88 487.075 42.88 487.075 42.62C487.075 42.62 487.075 42.1 486.815 41.58C486.295 40.02 485.255 40.28 485.255 41.58C485.255 42.36 485.515 42.88 486.295 42.88ZM486.815 39.5C487.335 39.5 487.595 39.24 487.335 38.98C487.335 38.72 486.815 38.46 486.555 38.46C486.035 38.46 485.775 38.72 485.775 38.98C485.775 39.24 486.295 39.5 486.815 39.5ZM492.275 107.1C492.275 106.32 492.015 106.06 490.715 106.06C489.155 106.06 489.155 106.32 489.935 107.36C490.715 108.92 491.755 108.92 492.275 107.1ZM525.295 112.82C525.035 113.86 525.295 113.86 526.855 113.6C528.155 113.34 528.415 113.34 527.635 113.86C526.855 114.38 527.115 114.64 528.675 115.16C529.455 115.42 530.235 115.94 529.975 116.46C529.715 116.72 530.495 116.72 531.275 116.72C532.055 116.46 532.835 115.94 532.835 115.42C532.835 114.38 531.015 113.08 530.235 113.6C529.975 113.86 529.715 113.34 529.715 112.3C529.715 110.74 528.675 110.22 527.895 111.26C527.895 111.78 527.115 111.78 526.595 111.78C526.075 111.78 525.295 112.04 525.295 112.82ZM511.775 98C510.735 98.52 510.735 98.52 511.775 99.3C513.075 100.34 514.895 100.08 514.895 98.78C514.895 98.26 514.375 97.74 514.115 97.74C513.595 97.74 513.855 97.22 514.635 96.7C515.675 95.92 515.675 95.92 514.635 96.18C514.115 96.18 513.595 96.18 513.595 95.66C513.595 95.14 513.335 95.14 512.815 95.92C512.555 96.44 512.555 96.96 512.555 97.22C512.815 97.48 512.295 97.74 511.775 98ZM515.155 130.5C515.415 130.24 515.155 130.24 514.635 130.5C513.335 130.76 513.335 131.28 514.115 131.28C514.375 131.28 514.895 131.02 515.155 130.5ZM510.995 112.04C510.475 112.04 510.215 112.3 510.215 112.56C510.215 112.82 510.735 113.34 511.255 113.34C511.775 113.34 512.035 112.82 512.035 112.56C511.775 112.3 511.255 112.04 510.995 112.04ZM509.955 98C509.435 97.48 507.095 99.3 507.355 99.82C507.615 100.08 508.395 100.08 508.915 99.3C509.695 98.52 509.955 98 509.955 98ZM513.855 153.9C514.895 152.6 514.895 152.6 513.335 151.04C511.515 149.48 511.515 148.18 513.335 145.84C514.895 144.28 514.115 141.94 511.775 141.16C510.215 140.9 509.695 140.38 509.695 139.34C509.695 138.04 509.435 137.78 508.135 138.56C507.355 139.08 506.315 139.86 506.315 140.38C506.055 141.42 506.055 141.42 507.095 140.9C508.135 140.38 508.395 140.38 507.875 141.16C507.875 141.68 507.875 142.72 508.395 142.98C509.175 144.02 508.395 145.06 506.835 145.06C506.055 145.06 505.535 145.84 505.015 146.62C504.495 147.92 505.275 148.7 506.055 147.4C506.315 147.14 506.835 146.62 507.355 146.62C507.875 146.62 508.135 147.66 508.135 149.74C508.135 153.64 508.655 154.42 512.295 154.94C512.555 154.94 513.335 154.42 513.855 153.9ZM527.635 153.12C528.415 153.12 528.415 153.12 527.375 152.34C526.075 151.3 525.295 151.3 526.075 152.6C526.335 152.86 526.855 153.12 527.635 153.12ZM538.035 166.38C538.035 166.12 538.035 165.6 537.515 165.34C536.995 164.82 536.735 164.82 536.735 165.08C536.735 166.12 537.515 166.9 538.035 166.38ZM537.775 147.14H539.335L537.775 145.84C536.995 145.32 535.955 145.06 535.695 145.06C535.175 145.32 534.915 145.06 534.915 144.8C534.915 144.54 534.395 144.02 533.875 144.02C533.355 144.02 532.835 143.5 532.575 142.98C532.315 142.2 531.795 141.68 531.275 141.68C530.755 141.68 529.975 141.42 529.195 141.16C528.155 140.9 528.155 140.9 528.935 141.42C529.975 142.2 529.715 142.2 528.935 142.2C527.635 142.2 523.735 140.9 523.215 140.12C522.695 139.34 519.315 140.38 519.575 141.16C519.835 141.68 519.315 142.2 518.535 142.46C518.015 142.46 517.495 143.24 517.495 143.76C517.495 144.28 516.975 144.8 516.195 144.8C514.635 144.8 512.815 146.88 513.335 148.18C513.595 149.22 514.375 149.48 517.495 149.22C519.315 149.22 522.695 150.26 522.435 151.04C522.435 152.08 522.695 152.6 523.475 152.6C523.995 152.6 523.995 152.34 523.475 152.08C521.655 150.78 523.735 146.62 526.595 145.84C527.635 145.58 527.895 146.1 527.895 147.66C527.635 148.7 530.495 149.48 531.015 148.44C531.275 148.18 532.315 147.92 533.095 148.18C534.655 148.44 534.655 148.44 533.875 147.4C533.355 146.62 533.355 146.62 534.395 146.88C534.915 147.14 535.435 147.14 535.435 146.62C535.435 146.1 535.695 146.1 535.955 146.36C536.215 146.88 536.995 147.14 537.775 147.14ZM553.306 7.25998H644.046V189H603.746C568.646 189 563.446 188.74 561.626 187.96C560.586 187.44 559.026 186.92 558.506 187.18C557.466 187.44 557.726 187.44 559.026 188.22C560.326 188.74 560.066 188.74 556.946 188.74L553.306 189V167.68L554.866 167.42C556.166 166.9 556.426 166.9 555.646 166.12C555.386 165.6 554.606 165.08 554.086 165.08C553.306 165.08 553.046 161.44 553.306 142.2V119.32H555.126C556.166 119.32 556.946 119.58 556.686 119.84C556.426 120.36 557.206 120.1 558.246 119.58C560.846 118.28 561.106 117.76 559.806 116.72C558.766 115.94 558.766 113.6 559.806 113.6C560.586 113.6 557.986 110.48 556.166 109.7C555.386 109.18 554.866 109.18 554.086 109.7C553.306 110.48 553.306 103.72 553.306 59V7.25998ZM612.846 162.48C612.326 162.48 611.806 163 611.806 163.52C611.806 164.56 613.106 164.56 613.626 163.26C613.626 162.74 613.366 162.48 612.846 162.48ZM558.246 146.1C558.246 146.62 559.026 147.14 559.546 147.14C560.846 147.14 560.846 146.88 560.066 146.1C559.546 145.58 559.026 145.06 558.766 145.06C558.506 145.06 558.246 145.58 558.246 146.1ZM560.846 155.2C562.146 155.2 562.666 154.68 562.406 154.16C562.146 153.9 561.106 153.38 560.326 153.38C559.026 153.38 558.506 153.64 558.766 154.42C558.766 154.94 559.806 155.2 560.846 155.2ZM562.146 114.38C563.446 115.16 563.446 115.68 562.926 115.94C562.406 116.2 562.406 116.72 563.186 118.02C563.966 118.8 564.746 120.1 565.266 120.36C566.306 121.14 566.306 120.88 566.566 119.84C566.826 119.06 567.086 118.28 567.606 118.02C567.866 117.76 567.606 117.24 566.826 116.98C566.046 116.46 565.526 115.68 565.786 114.9C566.046 114.12 565.526 113.6 564.226 113.08C561.626 111.78 560.326 112.82 562.146 114.38ZM562.926 151.3C562.666 152.34 563.966 152.6 564.486 151.56C564.746 151.3 565.006 151.04 565.526 151.3C565.786 151.56 566.046 151.3 566.046 150.78C566.046 150 563.446 150.26 562.926 151.3ZM565.786 153.9C567.346 153.9 567.866 153.64 567.866 152.86C567.866 152.08 567.606 151.82 567.086 152.08C566.566 152.08 566.046 152.6 566.046 152.86C566.046 153.38 565.526 153.38 564.746 153.12C563.966 152.86 563.446 153.12 563.446 153.38C563.446 153.9 564.486 154.16 565.786 153.9ZM602.186 172.36C602.706 171.84 602.966 171.32 602.706 171.06C602.446 171.06 602.186 171.32 601.926 171.84C601.406 172.88 601.666 172.88 602.186 172.36ZM606.346 166.64C606.606 166.12 606.346 165.86 605.826 166.12C605.046 166.38 604.786 166.12 604.786 165.08C604.786 163 602.186 161.96 599.846 163.52C599.066 164.04 598.286 164.3 598.286 164.04C598.286 163.78 597.766 164.04 597.246 164.56C596.726 164.82 596.206 165.08 596.206 164.82C596.206 164.56 595.946 164.56 595.426 165.08C594.906 165.6 594.126 165.6 593.866 165.34C593.346 165.08 592.306 165.34 591.526 165.86C590.226 166.9 589.966 166.9 589.186 165.86C588.666 165.34 587.886 165.08 587.366 165.34C586.846 165.6 586.846 165.34 587.106 164.82C587.886 163.52 587.886 161.96 587.106 161.96C585.806 161.96 585.546 162.48 585.026 165.6C584.766 168.46 585.026 168.72 588.666 167.68C591.006 167.16 592.566 167.94 592.566 169.5C592.566 171.06 595.426 173.14 597.766 173.4C599.586 173.4 600.106 173.14 600.626 172.1C600.886 171.32 601.146 170.28 600.886 170.02C600.886 169.5 602.966 167.68 604.526 167.42C605.566 167.42 606.346 166.9 606.346 166.64ZM601.406 159.88C601.146 159.88 600.886 160.14 601.146 160.66C601.406 160.92 601.666 161.18 601.926 161.18C601.926 161.18 602.186 160.92 602.186 160.66C602.186 160.14 601.926 159.88 601.406 159.88ZM587.886 154.68H609.986L609.726 98.52C609.466 67.84 609.206 42.36 608.946 42.36C608.946 42.36 604.006 42.1 598.286 42.1L587.626 41.84L587.366 60.3C587.366 70.7 587.366 79.54 587.366 80.32C587.366 81.1 587.106 81.36 586.846 81.1C586.326 80.58 584.766 81.88 584.766 82.66C584.766 82.92 585.286 83.18 585.806 82.92C586.326 82.66 586.586 82.66 586.846 83.18C586.846 83.44 587.106 84.22 587.106 85.26C587.366 86.04 587.626 102.16 587.626 120.88L587.886 154.68ZM610.766 119.32C611.026 119.58 611.286 120.1 611.546 120.1C611.546 120.1 611.806 119.58 611.806 119.32C611.806 119.06 611.546 118.8 611.026 118.8C610.766 118.8 610.506 119.06 610.766 119.32ZM614.926 166.9C614.926 165.34 614.926 165.08 613.626 165.08C613.106 165.08 612.326 165.08 612.326 165.34C612.326 165.6 612.326 166.12 612.066 166.64C611.806 167.42 611.806 167.68 612.326 167.42C612.846 167.16 613.106 167.42 613.106 167.94C613.106 168.46 612.586 168.72 612.326 168.46C611.806 168.46 611.286 168.98 611.286 170.28C611.286 171.58 611.546 172.1 612.066 172.1C612.586 172.1 613.106 171.84 613.106 171.32C613.106 170.8 613.366 170.02 613.886 169.5C614.406 168.98 614.666 167.94 614.926 166.9ZM743.291 24.16C742.771 25.2 742.771 25.2 743.031 24.16C743.291 23.64 743.031 23.12 742.771 23.12C741.991 23.12 740.431 26.76 740.691 28.06C740.951 31.44 741.991 33.26 743.811 33.52L745.371 34.04V111.52V189.26L739.391 189C733.931 189 733.411 188.74 733.671 187.7C733.671 186.92 733.411 186.66 733.151 186.66C732.631 186.92 732.371 187.18 732.371 187.7C732.631 188.48 730.031 189 721.191 189L712.871 189.26L710.011 183.8C708.451 180.68 707.411 177.82 707.411 177.04C707.411 176.52 706.891 175.48 706.631 175.22C705.851 174.44 705.851 174.44 706.631 174.44C706.891 174.44 707.411 174.7 707.411 174.96C707.411 175.22 707.931 175.48 708.711 175.48C709.231 175.48 710.011 174.96 710.011 174.44C710.011 174.18 710.271 173.66 710.531 173.66C710.791 173.66 710.791 172.88 710.531 171.58C710.011 170.28 710.271 169.24 710.531 168.72C711.311 167.94 710.791 166.64 709.751 166.64C709.231 166.64 709.231 166.9 709.491 166.9C709.491 167.16 709.491 168.2 709.231 169.5C708.711 170.8 708.971 171.58 709.491 172.36C709.751 172.88 709.751 173.14 709.491 173.14C709.231 172.88 708.711 172.88 708.711 173.14C708.451 173.14 707.671 173.14 706.631 173.4C705.071 173.66 704.811 173.14 702.471 168.46L699.611 163L696.231 170.28C694.411 174.18 691.811 179.9 690.251 183.28L687.391 189.26H654.631V98V6.99999H688.691V55.62L688.951 104.5L692.071 98C693.891 94.62 696.231 89.68 697.271 87.34L699.091 83.18L711.051 107.62V70.44C711.311 49.9 711.311 33.26 711.571 33.78C711.831 34.04 712.871 34.56 713.651 34.82C714.691 35.08 715.471 34.82 715.991 33.52C716.771 32.74 717.551 32.22 718.071 32.48C718.591 32.74 718.851 32.48 718.591 31.7C718.331 30.92 718.331 30.92 719.371 31.18C719.891 31.44 719.371 30.92 718.071 29.88C715.991 28.58 715.731 28.32 715.991 26.5C715.991 24.68 715.991 24.42 714.951 24.42C713.651 24.42 713.391 25.2 714.171 25.72C714.431 25.98 714.431 25.98 713.911 25.72C713.391 25.72 712.611 25.72 712.091 25.72C711.311 25.72 711.311 23.9 711.311 16.36C711.311 9.86 711.311 7.52 711.831 8.29999C712.351 9.07999 713.131 9.59999 713.911 9.59999C714.691 9.59999 714.951 9.86 714.951 10.9C714.951 11.94 715.211 11.94 716.771 11.42C719.371 10.12 719.371 10.38 717.811 8.82C715.731 7.25998 717.031 6.73999 719.891 7.52C722.231 8.29999 722.491 8.82 721.451 9.86C720.411 10.9 721.971 11.68 723.271 10.64C724.051 10.12 724.051 9.86 722.751 8.56L721.191 6.99999H745.371V15.32C745.371 20.52 745.111 23.64 744.591 23.38C744.331 23.12 743.811 23.64 743.291 24.16ZM692.591 127.9C691.551 127.12 690.251 127.9 690.251 128.94C690.251 130.24 690.511 130.24 692.071 128.94C692.851 128.42 693.111 128.16 692.591 127.9ZM688.691 129.2C688.431 129.2 687.911 129.46 687.651 129.98C687.391 130.24 687.651 130.5 688.171 130.5C688.951 130.5 689.211 130.24 689.211 129.98C689.211 129.46 688.951 129.2 688.691 129.2ZM687.391 16.36C687.131 16.62 686.611 17.4 686.871 18.18C686.871 19.48 686.871 19.48 687.391 18.18C687.651 17.4 687.911 16.62 687.911 16.36C687.911 16.1 687.651 16.1 687.391 16.36ZM683.491 88.12C683.491 87.6 683.231 87.34 682.711 87.34C682.451 87.34 682.191 87.6 682.451 88.12C682.711 88.38 682.971 88.64 683.231 88.64C683.491 88.64 683.491 88.38 683.491 88.12ZM680.371 21.82C679.591 21.82 678.031 23.12 678.811 23.12C679.071 23.12 679.331 23.9 679.071 24.94C678.811 26.76 679.851 28.84 680.891 28.84C681.151 28.84 681.671 28.58 682.191 28.06C682.451 27.54 682.711 26.76 682.711 26.24C682.191 24.42 680.891 21.82 680.371 21.82ZM659.311 182.24C659.831 183.02 660.871 182.24 660.871 180.94C660.871 180.16 660.871 180.16 660.091 180.68C659.571 181.2 659.311 181.98 659.311 182.24ZM668.671 164.04C665.291 163.52 666.071 166.12 670.231 168.46C672.051 169.5 672.051 169.5 671.271 168.2C671.011 167.42 671.011 166.64 671.011 166.12C671.271 165.6 671.011 165.34 670.751 165.34C670.231 165.34 669.971 165.08 670.231 164.82C670.491 164.56 669.711 164.04 668.671 164.04ZM669.191 171.84C669.451 172.36 671.271 171.84 671.271 171.32C671.271 171.32 670.751 171.32 669.971 171.32C669.451 171.32 668.931 171.58 669.191 171.84ZM671.791 183.54C672.051 181.72 671.011 182.24 670.491 184.06C670.231 184.84 670.231 185.36 670.751 185.1C671.271 185.1 671.791 184.32 671.791 183.54ZM673.871 148.7C675.431 149.48 675.691 149.22 675.171 147.66C675.171 146.62 674.651 146.36 674.131 146.36C673.091 146.88 672.831 148.44 673.871 148.7ZM676.471 130.24C676.991 129.98 677.771 130.24 678.291 130.76C679.331 132.06 681.411 132.06 681.931 131.02C682.451 129.46 681.411 125.3 680.371 125.04C679.851 124.78 679.851 125.04 680.371 126.34C680.631 127.64 680.631 127.9 679.851 127.9C679.331 127.9 679.071 128.68 679.071 129.46C679.071 130.5 678.811 130.5 678.031 129.98C677.251 129.2 676.731 129.2 676.211 129.98C675.691 130.5 675.691 130.5 676.471 130.24ZM678.031 160.4C678.551 161.44 679.331 161.44 680.891 160.66C681.151 160.4 681.411 159.62 681.411 159.1C681.151 158.58 681.411 157.8 681.931 157.28C682.451 156.76 682.711 156.24 682.451 156.24C681.671 156.24 680.111 157.28 680.111 157.8C680.371 158.06 680.111 158.32 680.111 158.06C679.591 157.8 677.771 159.62 678.031 160.4ZM680.891 165.34C682.191 166.12 682.971 166.12 682.451 165.34C682.191 165.08 681.671 164.82 681.151 164.82C680.111 164.82 680.111 164.82 680.891 165.34ZM684.011 154.16C685.051 153.64 685.051 153.64 683.751 153.12C681.931 152.34 678.291 153.12 678.291 154.16C678.291 154.68 678.551 154.94 679.071 154.94C679.331 154.94 679.591 155.46 679.331 155.72C679.071 155.98 679.331 156.24 679.851 156.24C680.371 156.24 680.891 155.72 680.891 154.94C680.891 154.16 681.151 153.9 681.931 154.16C682.451 154.42 683.231 154.42 684.011 154.16ZM684.791 28.58C685.051 28.32 685.311 27.8 685.311 27.54C685.311 27.28 685.051 27.02 684.791 27.02C684.531 27.02 684.011 27.28 684.011 27.8C684.011 28.58 684.531 28.84 684.791 28.58ZM689.991 159.1C689.991 159.62 690.511 160.14 691.551 160.14C692.591 160.14 693.111 159.62 692.851 159.36C692.851 158.84 692.851 158.06 693.111 157.54C693.631 156.76 693.891 156.76 693.891 157.54C693.891 158.06 694.151 158.32 694.411 158.06C695.191 157.8 695.971 153.9 695.191 153.64C693.371 153.38 691.291 153.38 691.291 153.9C691.291 154.16 690.771 154.42 690.251 154.16C689.731 153.9 689.471 154.16 689.471 154.42C689.731 154.68 689.211 155.46 688.431 155.72C687.131 156.5 687.131 156.5 688.431 157.02C689.211 157.28 689.211 157.54 688.691 157.54C688.171 157.54 687.131 157.28 686.871 156.76C686.091 156.24 686.091 156.24 686.351 157.54C686.611 158.32 686.611 158.84 686.091 158.84C685.571 158.84 685.571 159.36 686.351 159.88C687.911 160.92 689.211 160.92 688.951 159.88C688.691 159.36 688.951 158.84 689.211 158.58C689.731 158.32 689.991 158.58 689.991 159.1ZM694.931 169.76C695.451 169.76 695.711 169.5 695.711 169.24C695.711 168.46 692.071 169.24 691.551 170.02C691.291 170.54 691.551 170.54 692.591 170.28C693.371 170.02 694.411 169.76 694.931 169.76ZM698.051 156.5C698.051 155.98 698.051 155.72 697.791 155.46C697.271 155.2 697.011 155.46 697.011 155.98C697.011 157.02 697.531 157.28 698.051 156.5ZM735.231 117.24C734.711 118.02 734.451 120.88 734.971 120.88C735.491 120.88 735.751 120.62 735.751 120.1C735.751 119.58 735.751 119.06 735.751 118.8C735.751 118.54 736.011 118.28 736.531 118.28C737.051 118.28 737.051 118.28 736.531 117.5C736.011 117.24 735.491 116.98 735.231 117.24ZM732.631 9.33999C732.371 11.16 732.891 11.16 733.151 9.59999C733.411 8.82 733.411 8.03999 733.151 8.03999C732.891 7.77999 732.631 8.29999 732.631 9.33999ZM732.631 28.84C731.591 28.84 731.591 28.84 732.371 29.36C733.671 30.14 733.671 30.14 733.671 29.36C733.671 29.1 733.151 28.84 732.631 28.84ZM727.171 26.76C727.691 27.28 727.691 27.8 726.911 29.1C725.871 31.44 725.871 31.44 727.171 30.92C727.951 30.66 728.471 30.92 728.471 31.44C728.471 31.7 728.731 31.96 728.991 31.96C729.251 31.96 729.251 31.18 728.991 30.14C728.471 28.84 728.731 28.32 729.251 28.32C730.811 28.58 730.551 27.02 728.991 26.24C727.171 25.46 725.611 25.98 727.171 26.76ZM723.531 27.02C722.491 27.02 723.271 30.14 724.311 30.92C725.091 31.44 725.091 31.44 725.611 29.36C725.871 27.8 725.871 27.54 725.091 28.06C724.571 28.06 724.051 28.06 724.051 27.54C724.051 27.28 723.791 27.02 723.531 27.02ZM723.011 148.96C722.491 149.22 722.231 149.74 722.491 150C722.751 150.26 723.271 150.26 723.791 150C724.311 150 724.571 149.48 724.311 149.22C724.051 148.96 723.531 148.7 723.011 148.96ZM712.091 110.22C711.571 110.74 712.351 111.78 713.651 111.78C714.691 111.78 714.691 111.78 713.651 110.74C712.871 110.22 712.351 109.96 712.091 110.22ZM702.471 94.36C701.951 94.1 701.691 94.36 701.951 94.88C702.471 95.92 702.471 95.92 702.991 95.14C703.251 94.88 702.991 94.36 702.471 94.36ZM705.071 160.14C705.331 159.88 704.811 159.36 704.291 159.1C703.511 158.84 702.731 158.32 702.731 157.8C702.731 156.76 701.171 156.76 700.651 157.54C700.391 158.06 700.651 158.32 701.171 158.32C701.691 158.32 702.211 158.84 702.211 159.62C702.211 160.92 704.291 161.44 705.071 160.14ZM707.411 171.06C707.671 171.06 707.931 171.06 707.931 170.8C707.931 170.8 707.671 170.28 707.411 170.28C706.891 170.02 706.631 170.02 706.631 170.54C706.631 170.8 706.891 171.06 707.411 171.06ZM707.931 126.34C708.971 126.34 710.011 126.34 710.011 126.08C710.011 125.56 709.491 125.3 708.711 125.3C708.191 125.3 707.931 125.3 708.191 125.04C708.711 124.78 708.971 124 708.971 123.74C708.971 122.7 707.931 121.66 707.931 122.7C707.931 122.96 707.411 124 706.631 124.78C705.851 125.56 705.331 126.6 705.331 127.12C705.331 128.16 706.111 128.68 706.891 127.9C707.411 127.38 707.411 127.12 706.631 126.6C705.851 126.34 706.371 126.08 707.931 126.34ZM710.011 128.68C710.011 128.94 710.531 129.2 711.571 129.2C712.351 129.2 713.131 129.2 713.131 128.94C713.131 128.94 712.351 128.68 711.571 128.42C710.531 128.42 710.011 128.42 710.011 128.68ZM711.831 165.34C712.091 165.34 712.351 165.08 712.351 164.82C712.351 164.3 712.351 164.04 712.091 164.04C712.091 164.04 711.831 164.3 711.571 164.82C711.311 165.08 711.311 165.34 711.831 165.34ZM716.771 144.8C718.071 145.32 718.331 145.32 717.811 144.8C717.291 144.28 717.291 143.5 717.291 143.24C717.551 142.72 717.291 142.2 717.031 141.94C716.771 141.68 716.251 140.9 716.251 140.12C716.251 139.34 715.991 138.3 715.731 137.78C715.211 136.74 714.951 136.74 714.431 137.78C713.911 138.3 713.651 138.3 713.651 137.78C713.651 137.26 713.391 137 713.131 137C712.871 137 712.611 138.04 712.871 139.6C712.871 140.9 712.611 141.94 712.351 141.94C712.091 141.68 712.351 142.46 712.611 143.5C713.391 145.32 714.171 145.84 714.691 144.8C714.951 144.28 715.731 144.28 716.771 144.8ZM715.991 124.78C716.771 122.96 717.031 122.96 718.331 123.48C719.371 124 719.891 124 720.151 123.48C720.931 122.18 720.151 120.62 719.111 121.66C718.331 122.18 718.331 122.18 718.331 120.88C718.331 119.58 717.811 119.32 716.251 119.32C715.211 119.32 714.431 119.58 714.431 120.1C714.431 120.88 714.171 120.88 713.391 120.36C712.871 119.84 712.611 119.84 712.611 120.62C712.871 121.4 713.131 122.18 713.391 122.44C713.911 122.7 713.391 122.96 712.611 122.96C710.791 122.96 710.791 124.52 712.351 125.3C713.131 125.82 713.651 126.6 713.651 127.38C713.651 128.16 714.171 128.68 714.431 128.68C714.691 128.68 714.951 128.94 714.951 129.2C714.951 129.72 714.691 129.72 714.431 129.46C713.911 129.2 713.651 129.46 713.911 129.72C714.691 130.76 715.471 130.24 715.991 128.68C715.991 127.9 715.991 127.38 715.211 127.38C714.691 127.38 714.431 127.12 714.431 126.6C714.431 126.08 714.691 126.08 714.951 126.34C715.211 126.6 715.731 125.82 715.991 124.78ZM735.751 159.1C737.831 157.28 738.091 155.72 736.531 155.72C736.011 155.72 735.751 155.46 736.011 154.94C736.531 154.16 734.451 151.04 733.671 151.56C732.891 152.08 733.411 149.74 734.451 149.22C735.231 148.7 734.971 148.7 733.931 148.96C733.151 149.22 732.111 148.7 730.811 147.92C729.251 146.62 728.991 146.62 728.471 147.66C728.211 148.18 727.431 148.44 727.171 148.18C726.911 147.92 726.911 148.44 727.171 149.22C727.951 150.52 727.951 150.78 726.911 151.3C726.391 151.56 726.131 152.34 726.391 152.6C726.651 153.12 726.391 153.12 725.871 152.86C725.351 152.86 724.571 153.12 724.051 153.9C723.531 154.94 723.271 154.94 722.491 154.42C721.711 153.9 721.451 153.9 721.451 154.42C721.451 154.68 721.971 155.46 722.751 155.72C723.791 156.5 723.791 156.76 723.011 157.8C722.231 158.58 722.231 158.84 723.011 159.1C723.531 159.36 724.051 159.1 724.051 158.84C724.051 158.32 724.831 158.84 725.871 159.88C727.951 161.7 727.951 162.74 726.391 162.74C725.871 162.74 726.131 162.48 726.651 161.96C727.431 161.44 726.911 161.44 725.351 161.7C723.791 161.96 722.751 161.7 722.751 161.44C722.231 160.66 719.631 161.44 719.631 162.48C719.631 163 719.371 163.26 718.851 163C718.591 162.74 718.591 163.78 719.111 165.08C719.631 166.38 720.151 167.42 720.151 167.68C720.151 167.94 720.671 167.94 720.931 167.68C721.451 167.68 721.971 168.2 721.971 168.98C722.231 170.8 723.531 171.06 724.831 169.5C725.091 168.98 725.871 168.46 726.391 168.46C726.911 168.46 727.431 168.2 727.691 167.68C727.951 167.16 728.211 166.9 728.471 166.9C728.991 167.16 729.251 166.9 729.511 166.64C729.771 166.38 729.511 165.86 729.251 165.6C728.211 165.08 728.471 164.3 729.511 163.26C730.031 162.48 730.291 162.22 730.031 162.22C729.771 162.22 730.291 161.44 731.071 160.66C732.111 159.88 732.631 159.62 733.151 160.14C733.671 160.4 734.451 160.14 735.751 159.1ZM760.116 161.18H777.536L794.696 160.92V193.68H759.856L760.116 177.56V161.18ZM777.536 11.42H800.416V16.88C800.416 19.74 800.156 27.8 799.896 34.82C799.376 41.58 799.116 51.46 798.856 56.66C798.336 74.34 797.816 80.84 797.036 79.54C796.776 78.5 796.776 78.76 797.036 80.06C797.556 82.14 797.556 88.38 796.776 103.72L796.516 113.86L794.696 113.6C792.616 113.34 792.096 113.86 793.656 115.16C794.176 115.68 794.176 115.94 793.136 115.42C792.096 115.16 792.096 115.16 792.356 116.46C792.616 116.98 792.356 117.76 792.096 118.02C791.836 118.28 791.316 118.28 791.316 118.02C791.316 117.5 790.536 117.24 789.496 117.24C787.416 117.24 785.856 119.32 787.156 120.36C788.196 121.14 791.056 120.62 790.536 119.58C790.276 119.32 790.536 119.06 791.056 119.06C791.576 119.06 792.096 119.58 792.356 120.1C792.876 121.4 793.916 121.14 793.656 119.84C793.136 118.28 795.216 114.9 795.996 115.68C796.516 116.2 796.516 116.72 796.256 117.24C795.996 117.76 795.736 118.8 795.736 119.84C795.996 121.14 795.736 121.66 794.956 121.66C794.176 121.66 794.176 121.92 795.216 123.74C795.996 125.3 795.996 127.38 795.736 136.22C795.476 142.2 795.216 148.96 794.956 151.3L794.436 155.72H760.636L760.376 154.42C760.376 153.64 760.376 151.82 760.116 150.52C759.596 144.54 758.556 109.7 758.816 107.1C759.076 105.8 758.816 104.24 758.556 103.98C758.296 103.46 757.516 90.72 756.996 75.64C756.476 60.3 755.436 40.02 755.176 30.14C754.656 20.52 754.396 12.2 754.656 11.94C754.656 11.68 765.056 11.42 777.536 11.42ZM791.316 63.68C791.056 63.16 791.056 63.42 791.316 64.2C791.576 66.54 794.176 67.84 794.696 66.02C795.216 64.98 793.656 63.68 792.616 63.94C792.096 64.2 791.316 63.94 791.316 63.68ZM788.456 63.42C788.196 63.42 788.196 63.94 788.456 64.2C789.236 65.24 789.496 65.24 788.976 63.94C788.976 63.42 788.456 63.16 788.456 63.42ZM782.476 70.7C783.256 70.18 782.996 70.18 782.216 70.44C781.436 70.7 780.396 70.96 780.136 70.96C779.616 70.96 779.356 71.48 779.616 71.74C779.876 72.26 780.396 72.52 781.176 72.52C781.696 72.52 782.216 72.26 781.956 71.74C781.696 71.48 781.956 70.96 782.476 70.7ZM773.896 90.46C774.936 89.94 774.936 90.2 773.896 90.72C772.336 91.76 772.856 93.84 774.936 96.18C776.236 97.74 777.016 97.48 777.276 94.88C777.536 94.1 777.796 93.32 778.056 93.32C778.576 93.06 778.836 91.24 778.836 89.16C778.836 86.82 779.096 85.78 779.356 86.04C779.876 86.3 779.876 86.04 779.356 85.52C778.316 84.22 776.236 84.48 774.676 86.04C774.156 86.56 773.376 86.82 773.376 86.56C773.116 86.56 773.116 87.34 772.856 88.64C772.856 90.2 772.856 90.72 773.896 90.46ZM772.856 85.52C773.116 85.52 773.376 85.26 773.376 84.74C773.376 83.18 772.336 82.92 772.336 84.22C772.336 85 772.596 85.52 772.856 85.52ZM779.876 96.18C779.616 95.92 779.096 96.18 779.096 96.44C779.096 96.96 779.616 97.22 779.876 97.22C780.136 97.22 780.396 96.96 780.396 96.96C780.396 96.7 780.136 96.44 779.876 96.18ZM777.796 67.84C777.276 67.32 777.016 67.58 777.536 69.14C778.056 70.44 778.576 70.44 779.616 69.4C780.916 68.1 780.656 67.32 779.096 66.28C777.796 65.5 777.796 65.5 778.056 66.8C778.316 67.58 778.056 68.1 777.796 67.84ZM774.936 65.5C774.156 64.72 772.076 65.24 769.736 67.06C768.696 67.84 769.996 70.18 771.556 70.18C772.076 70.18 772.856 70.44 772.856 70.7C772.856 71.22 773.116 71.22 773.376 70.96C773.896 70.96 773.896 70.44 773.636 70.18C773.376 69.66 773.896 69.4 774.416 69.14C775.196 68.62 775.196 68.62 774.416 67.06C773.376 65.5 773.376 65.5 774.416 65.76C775.456 66.28 775.456 66.28 774.936 65.5ZM770.256 53.8C769.216 53.02 768.696 53.54 769.216 54.84C769.736 55.88 769.736 55.88 770.256 55.1C770.516 54.84 770.516 54.06 770.256 53.8ZM767.656 62.12C766.616 63.16 767.396 66.28 768.696 66.28C768.956 66.28 769.476 65.76 769.736 65.5C769.996 64.98 769.476 64.2 768.956 63.68C768.176 63.16 767.916 62.38 768.176 62.12C768.176 61.6 768.176 61.6 767.656 62.12ZM765.836 71.22C767.136 70.18 767.136 70.18 766.096 69.14C765.576 68.62 765.056 67.84 765.056 67.58C765.056 67.32 764.276 66.54 763.496 65.76C761.936 64.98 761.676 64.98 761.156 65.76C760.116 67.32 760.376 69.14 761.936 70.44C763.756 72.26 764.276 72.26 765.836 71.22ZM761.676 34.04C760.636 35.08 760.636 35.34 761.676 36.12C762.456 37.16 762.716 37.16 763.756 35.6C764.536 34.82 765.056 33.78 765.056 33.26C765.056 32.48 764.796 32.22 764.276 32.22C764.016 32.22 763.756 32.74 763.756 33.26C763.756 34.04 763.496 34.04 763.236 33.52C762.976 33 762.456 33 761.676 34.04ZM759.856 60.56C759.076 60.56 759.076 60.56 759.856 62.64C760.636 64.98 761.156 64.72 760.636 62.12C760.636 61.34 760.116 60.56 759.856 60.56ZM762.976 108.92C762.976 110.74 764.276 110.22 765.316 108.14C765.836 107.1 765.836 106.32 765.576 106.58C765.316 106.84 765.056 106.32 765.316 105.28C765.576 103.72 765.056 103.2 763.236 103.46C762.716 103.72 762.716 103.2 762.716 102.68C763.236 101.38 761.416 100.86 760.116 102.16C759.076 103.2 759.076 103.2 759.596 104.5C759.856 105.02 760.376 105.28 760.636 105.02C761.156 105.02 761.156 105.28 760.896 106.32C760.636 107.36 760.636 107.62 761.156 106.84C761.676 106.06 761.936 106.06 762.456 106.84C762.716 107.36 762.976 108.4 762.976 108.92ZM777.536 146.36C778.576 146.88 780.136 145.06 779.616 144.28C779.356 143.76 778.316 143.24 777.536 142.98C776.496 142.46 775.976 141.68 775.976 140.64C775.976 139.6 775.716 139.08 775.456 139.34C775.456 139.34 774.676 139.08 773.896 138.3C773.376 137.52 772.856 137 772.856 137.52C772.856 137.78 772.336 137.52 771.816 137C770.776 136.22 770.776 136.22 770.516 139.34C770.516 141.16 768.956 143.5 768.176 143.5C767.656 143.5 767.656 143.5 767.656 143.24C767.916 142.98 767.396 142.2 766.616 141.16C765.316 139.86 764.796 139.86 764.276 140.38C763.496 140.9 763.496 141.16 764.276 140.64C764.796 140.38 765.056 140.64 765.056 141.16C765.056 141.94 764.796 142.2 764.276 141.94C764.016 141.68 763.756 142.2 763.756 142.98C763.756 144.28 763.756 144.28 764.536 143.5C764.796 142.72 765.056 142.98 764.796 144.28C764.016 147.92 764.016 150.78 765.056 150.26C765.316 150 765.576 149.74 765.316 149.22C765.056 148.96 765.836 148.96 766.876 149.22C767.656 149.48 769.216 149.48 769.736 149.22C770.516 148.96 771.816 149.22 772.596 149.48C773.636 149.74 774.416 149.74 774.676 149.22C774.936 148.96 775.456 148.7 775.976 148.96C776.236 149.22 776.496 149.22 776.496 148.96C776.236 147.14 776.756 146.1 777.536 146.36ZM779.096 135.96C780.136 134.14 780.136 133.88 778.056 134.14C776.496 134.4 775.716 135.44 776.496 136.74C777.016 137.52 778.576 137 779.096 135.96ZM784.036 130.24C784.296 129.72 784.296 128.94 784.036 128.68C784.036 128.16 783.776 128.42 783.776 129.46C783.776 130.24 784.036 130.5 784.036 130.24ZM786.116 117.76C786.376 117.24 786.636 116.72 786.376 116.2C786.116 115.42 785.856 115.42 785.336 115.94C784.816 116.2 784.556 116.98 784.816 117.5C785.076 118.28 785.336 118.28 786.116 117.76ZM788.976 95.66C789.236 95.92 789.496 95.66 789.496 95.4C789.496 94.88 788.976 94.62 788.456 94.62C787.936 94.62 787.676 95.14 787.676 95.66C787.676 96.18 786.896 96.44 786.376 96.44C784.816 96.44 784.556 96.96 785.856 98.52C786.636 99.3 786.636 99.56 785.076 99.56C784.036 99.56 782.996 99.56 782.996 99.04C782.996 97.48 776.756 98.26 775.456 99.82C775.196 100.34 775.456 100.34 775.976 100.08C776.236 99.82 776.496 100.08 776.496 100.6C776.496 101.12 776.756 101.64 777.016 101.64C778.316 101.12 780.396 102.68 780.916 103.98C781.176 105.28 781.436 105.54 784.556 105.02C786.376 104.76 787.936 104.5 788.196 104.24C788.456 103.72 788.716 101.64 788.716 99.56C788.456 97.22 788.716 95.4 788.976 95.66ZM794.176 94.88C794.696 94.36 795.216 93.58 795.216 93.32C795.216 93.06 794.956 92.8 794.436 93.06C793.916 93.32 793.396 93.06 793.136 92.8C792.876 92.28 792.876 92.02 793.396 92.02C794.176 92.02 794.176 90.2 793.136 90.2C792.876 89.94 791.576 89.42 790.796 88.9C788.716 87.34 788.196 87.08 788.716 88.38C788.976 89.42 788.716 89.42 787.156 88.9C786.376 88.38 785.336 88.12 785.336 88.12C784.556 88.12 785.076 89.94 785.856 90.72C786.896 91.5 786.636 93.06 785.596 92.28C785.076 92.02 785.076 92.02 785.336 92.54C785.596 93.32 785.856 93.32 786.636 92.54C787.416 92.02 787.936 92.02 789.756 93.06C790.796 93.58 792.096 94.62 792.356 95.14C792.876 95.92 793.136 95.92 794.176 94.88ZM797.036 74.6C797.036 73.56 797.036 73.3 796.516 73.82C795.996 74.34 795.996 74.86 796.256 75.12C796.776 76.16 797.036 76.16 797.036 74.6Z" fill="white"/>
</svg>
