<svg width="88" height="94" viewBox="0 0 88 94" fill="none" xmlns="http://www.w3.org/2000/svg">
<g filter="url(#filter0_d_1092_1137)">
<path fill-rule="evenodd" clip-rule="evenodd" d="M16.633 10.8315C10.1225 16.2094 5.22208 23.4672 2.76308 31.7736L6.56323 38.568L1.06345 41.644C1.02133 42.424 1 43.2095 1 44C1 52.4032 3.41046 60.2435 7.57767 66.867L12.0559 68.298L11.0076 71.5788C18.8954 81.0049 30.7476 87 44 87C46.9287 87 49.789 86.7072 52.5533 86.1493L65.9634 74.5911L69.4642 78.6528C80.0992 70.8247 87 58.2182 87 44C87 42.9771 86.9643 41.9626 86.894 40.9575L84.2324 38.5047L86.3046 36.2561C83.6475 21.6461 73.6082 9.60997 60.1918 4.15277L55.8507 7.89441L50.3038 1.45879C48.2463 1.15654 46.1414 1 44 1C36.4424 1 29.3402 2.94973 23.1689 6.37364L22.4782 11.6035L16.633 10.8315Z" fill="white"/>
<path d="M2.76308 31.7736L1.80421 31.4897L1.68457 31.8939L1.89031 32.2617L2.76308 31.7736ZM16.633 10.8315L16.764 9.84009L16.3321 9.78304L15.9962 10.0605L16.633 10.8315ZM6.56323 38.568L7.05137 39.4407L7.92414 38.9526L7.43599 38.0798L6.56323 38.568ZM1.06345 41.644L0.575301 40.7713L0.094598 41.0401L0.0649008 41.5901L1.06345 41.644ZM7.57767 66.867L6.73125 67.3995L6.92562 67.7085L7.2733 67.8196L7.57767 66.867ZM12.0559 68.298L13.0085 68.6023L13.3129 67.6498L12.3603 67.3454L12.0559 68.298ZM11.0076 71.5788L10.055 71.2744L9.88756 71.7986L10.2407 72.2206L11.0076 71.5788ZM52.5533 86.1493L52.7511 87.1295L53.0078 87.0777L53.2062 86.9068L52.5533 86.1493ZM65.9634 74.5911L66.7209 73.9382L66.068 73.1807L65.3105 73.8336L65.9634 74.5911ZM69.4642 78.6528L68.7068 79.3057L69.3113 80.0071L70.057 79.4582L69.4642 78.6528ZM86.894 40.9575L87.8916 40.8878L87.8639 40.4914L87.5717 40.2222L86.894 40.9575ZM84.2324 38.5047L83.497 37.8271L82.8193 38.5624L83.5547 39.2401L84.2324 38.5047ZM86.3046 36.2561L87.0399 36.9337L87.3776 36.5673L87.2884 36.0771L86.3046 36.2561ZM60.1918 4.15277L60.5686 3.22647L60.0022 2.99606L59.539 3.3953L60.1918 4.15277ZM55.8507 7.89441L55.0932 8.54728L55.7461 9.30475L56.5036 8.65188L55.8507 7.89441ZM50.3038 1.45879L51.0613 0.805927L50.8179 0.523589L50.4492 0.469413L50.3038 1.45879ZM23.1689 6.37364L22.6838 5.49921L22.2434 5.7435L22.1775 6.24271L23.1689 6.37364ZM22.4782 11.6035L22.3472 12.5949L23.3386 12.7258L23.4696 11.7344L22.4782 11.6035ZM3.72194 32.0575C6.12322 23.946 10.9093 16.8565 17.2699 11.6025L15.9962 10.0605C9.33566 15.5623 4.32095 22.9883 1.80421 31.4897L3.72194 32.0575ZM7.43599 38.0798L3.63584 31.2855L1.89031 32.2617L5.69047 39.0561L7.43599 38.0798ZM1.55159 42.5168L7.05137 39.4407L6.07508 37.6952L0.575301 40.7713L1.55159 42.5168ZM2 44C2 43.2275 2.02084 42.46 2.06199 41.698L0.0649008 41.5901C0.0218157 42.388 0 43.1915 0 44H2ZM8.42408 66.3345C4.35428 59.8658 2 52.2093 2 44H0C0 52.5971 2.46665 60.6212 6.73125 67.3995L8.42408 66.3345ZM7.2733 67.8196L11.7516 69.2505L12.3603 67.3454L7.88204 65.9145L7.2733 67.8196ZM11.1034 67.9936L10.055 71.2744L11.9601 71.8832L13.0085 68.6023L11.1034 67.9936ZM44 86C31.0561 86 19.4805 80.1458 11.7745 70.937L10.2407 72.2206C18.3104 81.864 30.4391 88 44 88V86ZM52.3554 85.1691C49.656 85.7139 46.8619 86 44 86V88C46.9955 88 49.9221 87.7005 52.7511 87.1295L52.3554 85.1691ZM65.3105 73.8336L51.9004 85.3918L53.2062 86.9068L66.6163 75.3486L65.3105 73.8336ZM70.2217 77.9999L66.7209 73.9382L65.2059 75.2439L68.7068 79.3057L70.2217 77.9999ZM86 44C86 57.8869 79.2614 70.1997 68.8714 77.8475L70.057 79.4582C80.937 71.4497 88 58.5496 88 44H86ZM85.8965 41.0273C85.9651 42.0091 86 43.0004 86 44H88C88 42.9538 87.9635 41.916 87.8916 40.8878L85.8965 41.0273ZM83.5547 39.2401L86.2164 41.6929L87.5717 40.2222L84.91 37.7694L83.5547 39.2401ZM85.5692 35.5784L83.497 37.8271L84.9677 39.1824L87.0399 36.9337L85.5692 35.5784ZM59.8151 5.07907C72.9203 10.4097 82.726 22.1677 85.3207 36.435L87.2884 36.0771C84.5691 21.1246 74.2961 8.81022 60.5686 3.22647L59.8151 5.07907ZM56.5036 8.65188L60.8447 4.91024L59.539 3.3953L55.1978 7.13694L56.5036 8.65188ZM49.5463 2.11166L55.0932 8.54728L56.6082 7.24154L51.0613 0.805927L49.5463 2.11166ZM44 2C46.0926 2 48.1489 2.15297 50.1585 2.44818L50.4492 0.469413C48.3437 0.160109 46.1902 0 44 0V2ZM23.6541 7.24808C29.6807 3.90441 36.6164 2 44 2V0C36.2684 0 28.9997 1.99506 22.6838 5.49921L23.6541 7.24808ZM23.4696 11.7344L24.1603 6.50458L22.1775 6.24271L21.4868 11.4725L23.4696 11.7344ZM16.5021 11.8229L22.3472 12.5949L22.6091 10.6121L16.764 9.84009L16.5021 11.8229Z" fill="#131315"/>
</g>
<defs>
<filter id="filter0_d_1092_1137" x="0" y="0" width="88" height="94" filterUnits="userSpaceOnUse" color-interpolation-filters="sRGB">
<feFlood flood-opacity="0" result="BackgroundImageFix"/>
<feColorMatrix in="SourceAlpha" type="matrix" values="0 0 0 0 0 0 0 0 0 0 0 0 0 0 0 0 0 0 127 0" result="hardAlpha"/>
<feOffset dy="6"/>
<feComposite in2="hardAlpha" operator="out"/>
<feColorMatrix type="matrix" values="0 0 0 0 0 0 0 0 0 0 0 0 0 0 0 0 0 0 1 0"/>
<feBlend mode="normal" in2="BackgroundImageFix" result="effect1_dropShadow_1092_1137"/>
<feBlend mode="normal" in="SourceGraphic" in2="effect1_dropShadow_1092_1137" result="shape"/>
</filter>
</defs>
</svg>
