<svg width="148" height="148" viewBox="0 0 148 148" fill="none" xmlns="http://www.w3.org/2000/svg">
<path d="M134.013 77.0444L134.219 75.0751L144.633 76.163L144.143 80.8475C143.942 82.772 142.523 83.8001 140.598 83.599C138.659 83.3964 137.497 82.0987 137.698 80.1742L137.982 77.4589L134.013 77.0444ZM142.711 77.953L139.683 77.6366L139.418 80.1728C139.338 80.9337 139.708 81.4398 140.468 81.5193L141.155 81.591C141.916 81.6705 142.367 81.2501 142.446 80.4892L142.711 77.953Z" fill="#262626"/>
<path d="M130.737 93.6556L132.556 87.8278L142.55 90.9468L141.96 92.8369L133.641 90.2407L132.412 94.1785L130.737 93.6556Z" fill="#262626"/>
<path d="M125.107 105.619L126.093 103.816L128.839 104.36L130.624 101.096L128.677 99.0916L129.641 97.3281L137.144 105.431L135.963 107.589L125.107 105.619ZM130.556 104.752L134.981 105.633L135.017 105.568L131.881 102.331L130.556 104.752Z" fill="#262626"/>
<path d="M119.898 112.653L121.203 111.144L124.312 113.831L131.468 115.277L130.017 116.957L125.09 115.891L125.07 115.913L126.878 120.589L125.466 122.223L123.019 115.35L119.898 112.653Z" fill="#262626"/>
<path d="M105.275 125.024C107.649 123.645 110.16 124.355 111.938 127.416C113.716 130.477 113.088 133.01 110.715 134.389C108.328 135.775 105.83 135.058 104.052 131.997C102.274 128.936 102.888 126.41 105.275 125.024ZM106.156 126.542C104.859 127.295 104.564 128.698 105.461 130.242L106.274 131.643C107.171 133.186 108.536 133.625 109.833 132.871C111.13 132.118 111.425 130.715 110.529 129.171L109.715 127.771C108.819 126.227 107.454 125.788 106.156 126.542Z" fill="#262626"/>
<path d="M90.9348 131.579L95.5097 135.802L97.1753 137.569L97.2183 137.556L95.0252 130.337L96.8192 129.792L99.8626 139.81L97.7815 140.442L93.2066 136.219L91.541 134.452L91.4979 134.465L93.6911 141.685L91.8971 142.23L88.8537 132.212L90.9348 131.579Z" fill="#262626"/>
<path d="M68.986 142.573L71.9538 142.688L72.2901 133.98L74.2686 134.056L73.9323 142.764L76.9001 142.879L76.8324 144.633L68.9183 144.327L68.986 142.573Z" fill="#262626"/>
<path d="M56.3099 131.449L58.3051 131.941L58.4812 134.735L62.093 135.626L63.5334 133.231L65.4849 133.713L59.5695 143.037L57.1811 142.448L56.3099 131.449ZM58.5413 136.496L58.821 140.999L58.8938 141.017L61.221 137.157L58.5413 136.496Z" fill="#262626"/>
<path d="M42.083 134.914L44.7592 136.202L48.5386 128.349L50.3227 129.207L46.5433 137.06L49.2195 138.348L48.4584 139.93L41.3219 136.495L42.083 134.914Z" fill="#262626"/>
<path d="M34.9039 119.633L36.5343 120.884L35.5755 123.514L38.5269 125.778L40.8067 124.162L42.4014 125.385L33.2434 131.556L31.2916 130.058L34.9039 119.633ZM34.9245 125.151L33.3751 129.388L33.4346 129.433L37.1143 126.831L34.9245 125.151Z" fill="#262626"/>
<path d="M31.6529 116.945L23.5838 123.617L22.1596 121.894L24.3908 116.566L24.3526 116.519L18.7187 117.732L17.3519 116.079L25.421 109.408L26.6158 110.853L20.824 115.641L20.8623 115.688L22.6616 115.251L27.0804 114.381L25.3952 118.557L24.6282 120.242L24.6664 120.289L30.4582 115.5L31.6529 116.945Z" fill="#262626"/>
<path d="M20.6118 101.416L22.8313 105.621L21.4251 106.363L20.781 105.142L14.3338 108.545L14.9779 109.766L13.5717 110.508L11.3523 106.302L12.7585 105.56L13.4096 106.794L19.8568 103.391L19.2057 102.158L20.6118 101.416Z" fill="#262626"/>
<path d="M13.9112 74.237L13.8119 76.2146L3.3551 75.6895L3.59127 70.9855C3.6883 69.0529 5.05033 67.9498 6.98289 68.0468C8.93044 68.1446 10.1601 69.3778 10.0631 71.3104L9.92623 74.037L13.9112 74.237ZM5.17721 73.7985L8.21838 73.9512L8.34625 71.4044C8.38461 70.6404 7.98845 70.1549 7.22441 70.1166L6.53528 70.082C5.77124 70.0436 5.34344 70.4877 5.30508 71.2517L5.17721 73.7985Z" fill="#262626"/>
<path d="M16.3035 57.3762L14.7963 63.2922L4.65036 60.7074L5.13917 58.7887L13.5844 60.9402L14.6028 56.9429L16.3035 57.3762Z" fill="#262626"/>
<path d="M21.1725 45.351L20.2882 47.206L17.5165 46.8153L15.9158 50.1733L17.9709 52.0669L17.106 53.8813L9.16533 46.2075L10.2239 43.9869L21.1725 45.351ZM15.7799 46.5192L11.313 45.8853L11.2807 45.953L14.5923 49.0106L15.7799 46.5192Z" fill="#262626"/>
<path d="M25.9512 38.0473L24.7311 39.6257L21.4794 37.112L14.255 36.0586L15.6128 34.3022L20.5907 35.0979L20.609 35.0741L18.5485 30.5046L19.8695 28.7957L22.6877 35.5245L25.9512 38.0473Z" fill="#262626"/>
<path d="M39.8665 24.8343C37.5669 26.3332 35.0226 25.7536 33.0895 22.788C31.1564 19.8224 31.653 17.2605 33.9526 15.7615C36.2648 14.2544 38.7966 14.8422 40.7297 17.8078C42.6627 20.7734 42.1787 23.3271 39.8665 24.8343ZM38.9082 23.364C40.1648 22.5449 40.3875 21.1285 39.4127 19.6331L38.5281 18.276C37.5534 16.7806 36.1676 16.4127 34.9109 17.2318C33.6543 18.0509 33.4317 19.4673 34.4064 20.9627L35.291 22.3198C36.2658 23.8152 37.6516 24.1831 38.9082 23.364Z" fill="#262626"/>
<path d="M53.7395 17.5059L48.9483 13.5306L47.1918 11.8537L47.1495 11.869L49.7204 18.9625L47.9576 19.6014L44.39 9.75796L46.4349 9.01685L51.2261 12.9922L52.9826 14.669L53.0249 14.6537L50.4541 7.5602L52.2169 6.92132L55.7844 16.7648L53.7395 17.5059Z" fill="#262626"/>
<path d="M74.7747 5.25664L71.8052 5.31396L71.9734 14.0273L69.9938 14.0655L69.8256 5.35217L66.8562 5.40949L66.8223 3.65481L74.7408 3.50197L74.7747 5.25664Z" fill="#262626"/>
<path d="M88.363 15.6462L86.3443 15.2612L86.0195 12.4811L82.3653 11.7841L81.0547 14.2523L79.0803 13.8757L84.4898 4.24872L86.9062 4.70962L88.363 15.6462ZM85.8655 10.7262L85.346 6.24449L85.2724 6.23044L83.1544 10.2091L85.8655 10.7262Z" fill="#262626"/>
<path d="M102.589 11.4574L99.8491 10.3107L96.4841 18.3499L94.6577 17.5854L98.0226 9.54618L95.2829 8.39944L95.9605 6.78053L103.266 9.83852L102.589 11.4574Z" fill="#262626"/>
<path d="M110.381 26.1831L108.685 25.0234L109.498 22.3452L106.427 20.2458L104.239 21.9844L102.58 20.8501L111.386 14.1875L113.417 15.5758L110.381 26.1831ZM110.058 20.675L111.373 16.3592L111.311 16.3169L107.78 19.1174L110.058 20.675Z" fill="#262626"/>
<path d="M113.95 28.7861L121.669 21.7124L123.179 23.3602L121.222 28.7955L121.263 28.8397L126.827 27.3414L128.277 28.9228L120.557 35.9965L119.291 34.6141L124.831 29.5369L124.791 29.4927L123.016 30.0204L118.647 31.1144L120.118 26.8575L120.798 25.1355L120.757 25.0912L115.217 30.1684L113.95 28.7861Z" fill="#262626"/>
<path d="M125.836 43.7594L123.402 39.6744L124.768 38.8606L125.474 40.0462L131.737 36.3153L131.031 35.1297L132.397 34.316L134.831 38.401L133.465 39.2148L132.751 38.0163L126.488 41.7472L127.202 42.9457L125.836 43.7594Z" fill="#262626"/>
<circle cx="11.9077" cy="92.3579" r="2.1763" fill="#262626"/>
<circle cx="135.908" cy="55.3579" r="2.1763" fill="#262626"/>
</svg>
