<svg width="162" height="89" viewBox="0 0 162 89" fill="none" xmlns="http://www.w3.org/2000/svg">
<path fill-rule="evenodd" clip-rule="evenodd" d="M151.016 8H58.9445L55.8218 12.3928L51.222 8H5.05325L0 15.1085V88H22.7846L27.8312 83.9409L30.2258 88H154.238L162 83.2772V21.2813L151.016 8Z" fill="#262626"/>
<path fill-rule="evenodd" clip-rule="evenodd" d="M151.016 0H58.9445L55.8218 4.39284L51.222 0H5.05325L0 7.10854V80H22.7846L27.8312 75.9409L30.2258 80H154.238L162 75.2772V13.2813L151.016 0Z" fill="white"/>
<path fill-rule="evenodd" clip-rule="evenodd" d="M30.2258 80H154.238L162 75.2772V13.2813L151.016 0H58.9445L55.8218 4.39284L51.222 0H5.05325L0 7.10854V80H22.7846L27.8312 75.9409L30.2258 80ZM22.0801 78L28.3792 72.9335L31.368 78H153.677L160 74.153V14.0012L150.075 2H59.9767L56.1124 7.43591L50.4204 2H6.08535L2 7.74698V78H22.0801Z" fill="#262626"/>
<path d="M89 12H143.243L150.502 22.1626L150.995 67.9957L92.8103 67.5026L89 59.882V12Z" fill="#FFFDF1" stroke="#262626"/>
<path d="M98.604 48.8475C98.604 49.588 99.2064 50.1899 99.9469 50.1899L107.661 50.1899L107.661 33.2764L99.9469 33.2764C99.2064 33.2764 98.604 33.879 98.604 34.6193L98.604 48.8475ZM105.09 35.3226C105.528 35.3226 105.882 35.6775 105.882 36.1147L105.882 47.354C105.882 47.7912 105.528 48.1455 105.09 48.1455L101.728 48.1455C101.29 48.1455 100.936 47.7906 100.936 47.354L100.936 36.1147C100.936 35.6772 101.291 35.3226 101.728 35.3226L105.09 35.3226Z" fill="#00070F"/>
<path d="M104.298 36.9072L104.298 46.5622L102.52 46.5622L102.52 36.9072L104.298 36.9072Z" fill="#00070F"/>
<path d="M111.753 51.9566L131.291 52.8581C132.164 52.8985 132.993 52.588 133.625 51.9845C134.257 51.3807 134.604 50.5674 134.604 49.6938L134.604 35.8174C134.604 34.9254 134.244 34.0998 133.59 33.4938C132.935 32.8869 132.085 32.5906 131.196 32.6581L129.861 32.7597C129.861 32.7597 129.861 32.76 129.86 32.76L118.706 33.7086C118.27 33.7457 117.887 33.4226 117.85 32.9866C117.848 32.9634 117.847 32.9411 117.847 32.9185C117.847 32.5108 118.159 32.1648 118.572 32.1297L128.723 31.267L128.323 30.0641C127.958 28.9674 127.185 28.0842 126.145 27.5773C125.106 27.0709 123.934 27.0056 122.846 27.3937L110.746 31.7062C110.158 31.9154 109.643 32.2754 109.245 32.7533L109.245 50.7061C109.871 51.4595 110.773 51.9115 111.753 51.957L111.753 51.9566ZM121.114 50.1558C120.69 50.1357 120.359 49.7853 120.359 49.3651C120.359 49.3528 120.359 49.3403 120.359 49.328C120.38 48.8908 120.75 48.5528 121.187 48.5727L130.052 48.982C130.255 48.9912 130.448 48.9195 130.595 48.7789C130.741 48.6385 130.823 48.4496 130.823 48.246L130.823 40.9396C130.823 40.5021 131.178 40.1474 131.615 40.1474C132.052 40.1474 132.407 40.5023 132.407 40.9396L132.407 48.2467C132.407 48.8867 132.152 49.483 131.689 49.925C131.226 50.3669 130.619 50.594 129.98 50.565L121.114 50.1558Z" fill="#00070F"/>
<path d="M36.28 44.68L41.64 40.68V55H27.8L27.68 54.8C27.56 54.52 27.6 52.88 27.72 52.76C27.88 52.64 27.88 52.24 27.76 52.12C27.56 52.04 27.52 48.52 27.68 48.32C27.76 48.24 27.88 48.2 28.04 48.24C28.2 48.28 28.44 48.24 28.56 48.2L28.8 48.12L28.56 48C28.44 47.92 28.16 47.84 27.96 47.84H27.6V27.08H41.64L41.6 34.24L39 34.84C37.6 35.2 36.4 35.44 36.36 35.44C36.28 35.4 36.28 32.88 36.36 32.8C36.4 32.76 36.48 32.8 36.56 32.84C36.68 32.92 36.68 32.92 36.68 32.84C36.64 32.76 36.72 32.68 36.88 32.64C37 32.64 37.08 32.6 37.08 32.52C37.08 32.44 36.56 32.2 36.52 32.32C36.48 32.36 36.28 32.36 36 32.32C35.76 32.32 35.36 32.28 35.16 32.32C34.92 32.32 34.36 32.36 33.84 32.4L32.92 32.44V34.68C32.92 35.88 32.96 36.88 33 36.88C33.04 36.88 33.16 36.8 33.28 36.68C33.44 36.48 33.56 36.48 37.76 36.48H42.04L37.44 40.16L36.04 41.28C35.8 41.48 35.16 41.96 34.48 42.52L32.92 43.76V49.76H36.28V44.68ZM27.88 37.84C27.92 37.8 27.96 37.72 27.96 37.64C27.96 37.52 27.92 37.48 27.88 37.52C27.8 37.56 27.76 37.68 27.76 37.76C27.76 37.84 27.8 37.88 27.88 37.84ZM28.8 28.24C28.88 28.52 28.88 28.52 29.24 28.36C29.4 28.28 29.52 28.24 29.6 28.24C29.64 28.28 29.64 28.16 29.64 28.04C29.64 27.88 29.68 27.72 29.72 27.64C29.72 27.6 29.68 27.44 29.6 27.32C29.48 27.12 29.48 27.12 29.48 27.32C29.52 27.48 29.44 27.52 29.28 27.56C29.12 27.6 29.08 27.56 29.12 27.48C29.16 27.4 29.12 27.36 29.04 27.4C28.96 27.44 28.8 27.4 28.64 27.32C28.36 27.16 28.2 27.28 28.4 27.48C28.48 27.52 28.52 27.68 28.48 27.76C28.44 27.92 28.48 27.96 28.6 27.96C28.68 27.96 28.76 28.08 28.8 28.24ZM28.96 40.4C29.12 40.56 29.24 40.52 29.24 40.32C29.24 40.16 29.24 40.12 29 40.24C28.88 40.28 28.88 40.32 28.96 40.4ZM29.68 31.84C29.6 31.68 29.24 31.92 29.28 32.12C29.28 32.36 29.64 32.76 29.76 32.68C29.8 32.64 29.84 32.68 29.84 32.72C29.84 32.96 30.2 32.76 30.36 32.44C30.6 32.08 30.56 32 30.08 31.96C29.88 31.96 29.68 31.88 29.68 31.84ZM29.6 33.32C29.56 33.36 29.68 33.36 29.8 33.28C30.04 33.2 30.04 33.16 29.88 33C29.72 32.84 29.72 32.84 29.56 33C29.44 33.12 29.44 33.16 29.52 33.2C29.6 33.24 29.64 33.28 29.6 33.32ZM29.64 35.04C29.64 34.96 29.6 34.92 29.56 34.92C29.44 34.92 29.36 35.16 29.44 35.24C29.52 35.32 29.64 35.2 29.64 35.04ZM29.56 39.96C29.4 39.88 29.36 39.88 29.4 40C29.4 40.04 29.44 40.16 29.52 40.2C29.64 40.28 29.64 40.28 29.72 40.16C29.72 40.12 29.68 40.04 29.56 39.96ZM30.52 40.96C30.72 40.96 30.56 40.68 30.36 40.64C30.2 40.6 30.16 40.64 30.16 40.76C30.16 40.84 30.08 41 30 41.04C29.92 41.12 29.88 41.24 29.92 41.28C29.96 41.36 29.92 41.32 29.8 41.24C29.68 41.12 29.64 41.12 29.48 41.28C29.36 41.4 29.36 41.44 29.48 41.6C29.56 41.68 29.64 41.72 29.72 41.68C29.76 41.68 29.88 41.6 29.96 41.6C30.08 41.56 30.16 41.44 30.2 41.32C30.24 41.24 30.32 41.16 30.4 41.16C30.48 41.16 30.52 41.12 30.48 41.04C30.48 41 30.48 40.96 30.52 40.96ZM32.36 42.16C32.48 42.16 32.48 42.08 32.44 41.96C32.44 41.84 32.36 41.76 32.32 41.8C32.16 41.88 32.2 42.16 32.36 42.16Z" fill="#00070F"/>
</svg>
