<svg width="381" height="88" viewBox="0 0 381 88" fill="none" xmlns="http://www.w3.org/2000/svg">
<path fill-rule="evenodd" clip-rule="evenodd" d="M258.802 8H362.169L381 18.8724V81.2005L369.223 88H318.453L315.656 83L306.716 88H6.58631L0 76.5922V15.567L13.5291 8H31.2753L36.3281 11.7038L39.0431 8H245.075L248.346 13.848L258.802 8Z" fill="#262626"/>
<path fill-rule="evenodd" clip-rule="evenodd" d="M258.802 0H362.169L381 10.8724V73.2005L369.223 80H318.453L315.656 75L306.716 80H6.58631L0 68.5922V7.56697L13.5291 0H31.2753L36.3281 3.70382L39.0431 0H245.075L248.346 5.84799L258.802 0Z" fill="white"/>
<path fill-rule="evenodd" clip-rule="evenodd" d="M318.453 80H369.223L381 73.2005V10.8724L362.169 0H258.802L248.346 5.84799L245.075 0H39.0431L36.3281 3.70382L31.2753 0H13.5291L0 7.56697V68.5922L6.58631 80H306.716L315.656 75L318.453 80ZM306.195 78L316.425 72.2782L319.626 78H368.687L379 72.0458V12.0271L361.633 2H259.323L247.577 8.5698L243.902 2H40.0568L36.7588 6.49927L30.6208 2H14.0504L2 8.73992V68.0563L7.74101 78H306.195Z" fill="#262626"/>
<path d="M39.3665 45.28C39.3265 45.08 39.3265 45.04 39.6065 45.08H39.8865V48.04C39.8865 50.84 39.8865 50.96 39.7265 50.92C39.6065 50.92 39.4465 50.88 39.4065 50.8C39.1265 50.6 38.4065 50.6 38.4865 50.84C38.5265 50.96 37.8065 51 32.1665 51H25.8465V49.12C25.8865 47.72 25.9265 47.28 26.0065 47.28C26.0865 47.32 26.1265 47.28 26.1265 47.24C26.1265 47.16 26.2065 47.16 26.3665 47.2C26.6865 47.36 26.8065 47.16 26.5265 47C26.2865 46.84 26.0465 46.88 26.0065 47.04C26.0065 47.12 25.9665 47.08 25.9265 46.96C25.8865 46.88 25.8465 45.92 25.8465 44.84C25.8465 43.08 25.8465 42.92 26.0065 43C26.0865 43 27.2865 43.32 28.6865 43.68L31.1665 44.28V45.72H34.5665V38.6L33.7665 38.32C33.3665 38.16 31.4065 37.44 29.4865 36.72C27.2465 35.88 25.9265 35.36 25.9265 35.28C25.9265 35.2 25.9665 35.12 26.0465 35.12C26.0865 35.12 26.1265 35 26.0865 34.8C26.0465 34.64 26.0065 34.36 25.9665 34.24C25.9265 34.04 25.9665 34 26.1265 34C26.2465 34 26.3265 34.04 26.3265 34.08C26.3265 34.28 26.6065 34 26.6465 33.72C26.6865 33.52 26.6465 33.44 26.5665 33.48C26.4865 33.52 26.4065 33.48 26.4065 33.44C26.4065 33.4 26.4465 33.36 26.5265 33.36C26.5665 33.36 26.5665 33.24 26.5665 33.12C26.5665 33 26.5265 32.88 26.5265 32.84C26.5265 32.8 26.4465 32.76 26.3265 32.76C26.0865 32.76 25.9665 32.48 26.1665 32.4C26.2465 32.36 26.2865 32.28 26.2865 32.24C26.2465 32.2 26.1665 32.2 26.0865 32.28C25.9665 32.36 25.9265 32.2 25.9265 31.12C25.9265 30.4 25.8865 28.72 25.8865 27.32C25.8065 25.44 25.8465 24.84 25.9265 24.84C26.0865 24.84 26.3265 24.56 26.3265 24.4C26.3265 24.32 26.2865 24.36 26.2065 24.44C26.0865 24.68 25.8865 24.56 25.8865 24.24C25.8865 24 25.8865 23.96 26.0465 24.04C26.1665 24.12 26.3265 24.12 26.4065 24.12C26.5665 24.08 26.6065 24.12 26.5665 24.52C26.5265 25.16 26.4465 25.44 26.3265 25.36C26.2865 25.32 26.2465 25.36 26.2465 25.4C26.2465 25.48 26.3665 25.52 26.4865 25.52C26.6465 25.52 26.7265 25.56 26.6865 25.6C26.4865 25.72 26.5265 26 26.7265 26.04C26.9265 26.12 26.9665 26.04 26.9265 25.56C26.9265 25.32 26.9665 25.24 27.1265 25.16C27.2465 25.12 27.4065 25.16 27.4865 25.24C27.5665 25.32 27.6065 25.32 27.6865 25.2C27.7265 25.08 27.8065 25.04 27.8865 25.04C27.9665 25.04 28.0065 25 27.9665 24.92C27.8865 24.8 28.1265 24.8 28.2865 24.92C28.3665 24.96 28.5265 24.96 28.6865 24.88C28.8865 24.76 28.9665 24.76 29.0065 24.84C29.0465 24.92 29.0865 24.92 29.1265 24.8C29.1665 24.72 29.2065 24.72 29.3265 24.8C29.4065 24.88 29.5665 24.92 29.6465 24.88C29.7265 24.88 29.8065 24.88 29.8065 24.92C29.8065 25.04 30.2465 25.2 30.4065 25.12C30.5265 25.04 30.4865 25.04 30.3665 24.96C30.0865 24.88 30.1665 24.72 30.4465 24.8C30.5665 24.8 30.6865 24.8 30.7265 24.76C30.7665 24.68 30.8465 24.68 30.9265 24.68C31.0065 24.72 31.1665 24.64 31.2865 24.52C31.4865 24.28 31.6865 24.36 31.6865 24.68C31.7265 24.84 31.7665 24.88 31.9265 24.84C32.0465 24.84 32.1665 24.88 32.2065 24.92C32.2865 25 32.3665 24.92 32.4865 24.72C32.5665 24.56 32.7265 24.44 32.7665 24.44C32.8465 24.48 32.9265 24.4 32.9265 24.28C32.9665 24.16 32.9265 24.12 32.8465 24.16C32.7265 24.2 32.6465 24.16 32.5665 24.04C32.4865 23.92 32.4465 23.92 32.3665 24.04C32.3265 24.12 32.2865 24.12 32.2465 23.96C32.1665 23.84 32.1265 23.84 32.0865 23.92C32.0465 24 31.9665 24 31.7665 23.84C31.5665 23.6 31.5265 23.6 31.4065 23.8C31.2865 23.96 31.0865 23.92 31.0865 23.68C31.0865 23.6 31.0065 23.56 30.8865 23.56C30.7265 23.56 30.4065 23.24 30.4065 23.12C30.4065 23.08 30.6465 23.04 30.9265 23.04C31.3265 23.04 31.4865 23.08 31.5265 23.2C31.5665 23.28 31.6865 23.36 31.8465 23.36C31.9665 23.36 32.0865 23.28 32.0865 23.2C32.0865 23.08 32.3665 23.04 34.2465 23.04H36.3665L36.0465 23.28C35.5265 23.6 35.4065 23.72 35.4865 23.92C35.5265 24 35.5665 24.04 35.6065 24C35.7265 23.92 35.9265 24.16 35.9265 24.36C35.9265 24.44 35.9665 24.52 36.0465 24.52C36.0865 24.52 36.1265 24.48 36.1265 24.44C36.1265 24.4 36.2865 24.32 36.4865 24.28C36.8465 24.2 37.0465 23.92 36.8465 23.72C36.7665 23.64 36.7265 23.52 36.7265 23.44C36.7265 23.32 36.6865 23.24 36.6065 23.24C36.5665 23.24 36.5665 23.2 36.5665 23.16C36.6065 23.08 37.2865 23.04 38.2865 23.04H39.8865V24.84C39.8865 26.04 39.8465 26.6 39.8065 26.6C39.7265 26.6 39.7265 26.68 39.7665 26.8C39.8065 26.96 39.7665 27.04 39.6065 27.08C39.4865 27.12 39.4465 27.16 39.4865 27.2C39.5665 27.24 39.5265 27.36 39.3665 27.52C39.2065 27.68 39.1265 27.8 39.1665 27.76C39.2065 27.72 39.3665 27.8 39.5265 27.92C39.8065 28.12 39.9265 28.56 39.6465 28.44C39.5665 28.44 39.5265 28.44 39.5665 28.48C39.6065 28.56 39.6865 28.6 39.7665 28.6C39.8865 28.6 39.8865 28.76 39.8865 29.4C39.8865 30.28 39.8865 30.28 39.2465 30.32C39.0465 30.32 38.8465 30.36 38.8065 30.4C38.7665 30.44 38.1665 30.6 37.4065 30.8C35.2865 31.28 34.8465 31.36 34.7665 31.24C34.7265 31.16 34.7665 31.16 34.8465 31.2C34.9265 31.28 34.9665 31.24 34.9265 31.12C34.8865 31.04 34.8465 30.92 34.8465 30.92C34.8465 30.88 34.8065 30.88 34.7665 30.92C34.6865 30.96 34.6465 30.68 34.6465 30.2C34.6465 29.56 34.6865 29.4 34.8465 29.24C34.9665 29.16 35.0865 29.08 35.1665 29.12C35.2865 29.16 35.5265 28.96 35.5265 28.8C35.5265 28.76 35.4865 28.68 35.4065 28.64C35.3665 28.6 35.3265 28.6 35.3665 28.68C35.4465 28.76 35.4065 28.76 35.2865 28.72C35.2065 28.68 35.1665 28.64 35.1665 28.6C35.1665 28.48 35.0065 28.2 34.9265 28.2C34.8865 28.2 34.8465 28.28 34.8465 28.4C34.8465 28.52 34.8065 28.6 34.7265 28.6C34.6865 28.6 34.6865 28.48 34.6865 28.32C34.7265 28.16 34.7265 28.08 34.6865 28.16C34.5665 28.32 34.3665 28.32 33.7265 28.32C33.4065 28.28 33.3665 28.24 33.3265 28C33.2865 27.84 33.2065 27.72 33.1265 27.72C32.9665 27.72 32.7265 28.08 32.8065 28.2C32.8865 28.28 32.7265 28.36 32.5265 28.28C32.4465 28.28 32.3665 28.28 32.2865 28.24C32.2065 28.24 32.0465 28.2 31.9665 28.16C31.8865 28.12 31.7265 28.12 31.5665 28.12C31.4465 28.16 31.2065 28.2 31.0465 28.2C30.8065 28.2 30.7665 28.24 30.9265 28.64C31.0865 29 31.0865 29.2 30.9265 29.16C30.7265 29.08 30.7665 29.24 30.9265 29.36C31.0865 29.44 31.0865 29.48 30.9665 29.6C30.8065 29.76 30.8065 29.76 31.0065 29.96C31.1265 30.12 31.1665 30.32 31.1665 30.8C31.1665 31.16 31.1265 31.48 31.0865 31.52C31.0065 31.6 31.4065 31.8 32.2865 32.12C33.0065 32.36 35.0065 33.12 36.7265 33.76L39.8465 34.92L39.8865 43.84L39.6465 43.76C39.4465 43.68 39.4065 43.68 39.4465 43.8C39.4865 43.92 39.4465 43.92 39.3265 43.84C39.2065 43.76 39.1665 43.68 39.1665 43.6C39.2065 43.56 39.2065 43.56 39.1265 43.6C39.0065 43.68 38.6865 43.56 38.7665 43.48C38.7665 43.44 38.7265 43.36 38.6465 43.28C38.5665 43.2 38.5265 43.2 38.4865 43.24C38.4865 43.28 38.4865 43.4 38.4465 43.56C38.4065 43.68 38.4065 43.92 38.4065 44.08C38.4065 44.2 38.3665 44.36 38.3265 44.4C38.2465 44.44 38.2865 44.52 38.3665 44.6C38.4465 44.68 38.4865 44.8 38.4465 44.84C38.4065 44.92 38.4465 44.92 38.5265 44.92C38.6065 44.92 38.6465 44.96 38.6465 45.12C38.6065 45.24 38.6465 45.36 38.7265 45.4C38.7665 45.4 38.8065 45.4 38.8065 45.36C38.8065 45.28 38.8865 45.24 39.0065 45.24C39.1665 45.24 39.2065 45.28 39.1665 45.48C39.1265 45.6 39.1265 45.64 39.1665 45.56C39.2065 45.48 39.2465 45.44 39.3265 45.48C39.3665 45.52 39.3665 45.44 39.3665 45.28ZM39.4865 39.2C39.4465 39.2 39.4065 39.28 39.4065 39.36C39.4065 39.44 39.4465 39.48 39.4865 39.48C39.5665 39.48 39.6065 39.44 39.6065 39.36C39.6065 39.28 39.5665 39.2 39.4865 39.2ZM38.9265 39.2C38.7665 39.2 38.7265 39.28 38.7265 39.36C38.7265 39.76 38.9265 39.68 39.2065 39.2C39.2865 39.08 39.2865 39 39.2065 39C39.1665 39 39.1265 39.04 39.1265 39.08C39.1265 39.16 39.0065 39.2 38.9265 39.2ZM39.2065 26.2C39.0865 26.2 39.0865 26.24 39.2065 26.32C39.4465 26.48 39.6865 26.4 39.6065 26.2C39.5665 26.12 39.5265 25.96 39.5665 25.84C39.6065 25.68 39.6065 25.6 39.5265 25.68C39.4465 25.72 39.4065 25.8 39.4065 25.88C39.4065 25.96 39.3665 26 39.3265 25.96C39.2465 25.92 39.2465 25.96 39.2865 26.08C39.2865 26.16 39.2865 26.2 39.2065 26.2ZM38.9265 27.92C38.9265 27.84 38.8465 27.8 38.7665 27.8C38.6865 27.8 38.6065 27.84 38.6065 27.92C38.6065 27.96 38.6865 28 38.7665 28C38.8465 28 38.9265 27.96 38.9265 27.92ZM38.5665 27.12C38.4465 27.2 38.3665 27.72 38.4865 27.72C38.5665 27.72 38.6065 27.56 38.6465 27.4C38.6465 27.2 38.6465 27.12 38.5665 27.12ZM37.8065 30.08C37.6865 30.16 37.7265 30.16 37.8465 30.12C37.9665 30.08 38.0065 30.04 37.9665 30C37.9265 29.96 37.8465 30 37.8065 30.08ZM36.6465 27.88C36.6465 27.96 36.6865 28 36.8065 28C36.9665 28 37.0065 27.96 36.9665 27.84C36.8865 27.68 36.7265 27.68 36.6465 27.88ZM36.1665 28.88C36.1665 28.96 36.1665 29 36.2465 29C36.2865 29 36.3265 28.96 36.3265 28.88C36.3265 28.84 36.3265 28.8 36.2865 28.8C36.2465 28.8 36.2065 28.84 36.1665 28.88ZM35.8465 27.6C35.7265 27.84 35.7665 28 36.0065 28C36.0865 28 36.1265 27.88 36.1265 27.72C36.1265 27.36 36.0465 27.32 35.8465 27.6ZM35.7265 29.32C35.6465 29.48 35.5265 29.72 35.5265 29.8C35.5665 29.88 35.6065 29.8 35.6865 29.6C35.7665 29.44 35.8865 29.28 35.9265 29.28C36.0065 29.28 36.0465 29.36 36.0065 29.44C35.9665 29.52 36.0065 29.6 36.0465 29.6C36.0865 29.6 36.1265 29.48 36.1265 29.4C36.1265 29.16 36.2865 29.12 36.3665 29.28C36.4065 29.36 36.4065 29.32 36.4065 29.28C36.3665 29.2 36.2865 29.12 36.1665 29.08C35.9665 29 35.8865 29.04 35.7265 29.32ZM35.3265 27.76C35.2465 27.84 35.4065 28.08 35.5665 28.08C35.6065 28.08 35.6465 28.04 35.6465 28C35.6465 27.88 35.3665 27.68 35.3265 27.76ZM35.0065 27.88C34.8065 27.92 34.8865 28.08 35.0865 28.08C35.1665 28.08 35.2065 28 35.1665 27.96C35.1665 27.88 35.0465 27.84 35.0065 27.88ZM34.3665 27.76C34.3665 27.76 34.3665 27.84 34.4065 27.88C34.4865 28.04 34.5665 28.04 34.4865 27.84C34.4465 27.76 34.4065 27.72 34.3665 27.76ZM33.8065 23.2C33.7265 23.16 33.6465 23.2 33.6465 23.24C33.6465 23.32 33.7265 23.36 33.8065 23.36C33.8865 23.36 33.9665 23.32 33.9665 23.32C33.9665 23.28 33.8865 23.24 33.8065 23.2ZM33.1265 27.52C33.0865 27.56 33.0865 27.6 33.1665 27.6C33.2065 27.6 33.2465 27.56 33.2465 27.52C33.2465 27.44 33.2465 27.4 33.2065 27.4C33.2065 27.4 33.1665 27.44 33.1265 27.52ZM31.4865 27.56C31.4065 27.6 31.3665 27.64 31.3665 27.72C31.3665 27.84 31.6865 27.76 31.8465 27.6C31.8865 27.52 31.9265 27.4 31.8865 27.28C31.8465 27.16 31.8065 27.12 31.6465 27.2C31.5665 27.28 31.4865 27.36 31.5265 27.4C31.5665 27.44 31.5265 27.52 31.4865 27.56ZM28.1265 29.6C28.0465 29.6 28.0065 29.64 28.0065 29.72C28.0065 29.8 28.0465 29.88 28.1265 29.88C28.1665 29.88 28.2065 29.8 28.2065 29.72C28.2065 29.64 28.1665 29.6 28.1265 29.6ZM26.9665 31.48C26.8465 31.48 26.8065 31.48 26.9265 31.6C27.0065 31.68 27.0465 31.76 27.0865 31.76C27.0865 31.76 27.1265 31.68 27.1265 31.6C27.1265 31.52 27.0465 31.48 26.9665 31.48ZM27.2465 32.24C27.2865 32.12 27.1265 31.92 26.9665 31.96C26.9265 31.96 26.8465 31.92 26.8065 31.84C26.7665 31.76 26.7265 31.84 26.7265 32.08C26.7665 32.36 26.8065 32.44 26.9665 32.4C27.0865 32.4 27.2065 32.32 27.2465 32.24ZM27.3665 32.24C27.4065 32.32 27.4865 32.36 27.5265 32.36C27.5665 32.36 27.6065 32.32 27.6065 32.24C27.6065 32.2 27.5265 32.16 27.4465 32.16C27.3665 32.16 27.3265 32.2 27.3665 32.24ZM27.9665 32.76C27.9665 32.72 27.9265 32.6 27.8465 32.48C27.7265 32.32 27.7265 32.32 27.7265 32.48C27.7265 32.56 27.6465 32.64 27.5665 32.64C27.4865 32.64 27.4065 32.68 27.4065 32.76C27.4065 32.84 27.8865 32.88 27.9665 32.76ZM29.0065 32.36C29.1265 32.36 29.1665 32.32 29.1265 32.12C29.0865 32 29.0465 31.96 29.0065 32.04C29.0065 32.12 28.8465 32.16 28.6865 32.16C28.3665 32.16 28.0465 32.44 28.2465 32.56C28.2865 32.6 28.3265 32.64 28.2465 32.64C28.2065 32.64 28.1665 32.8 28.2065 32.96C28.2065 33.12 28.2865 33.24 28.3265 33.2C28.3665 33.16 28.3665 33.08 28.3265 32.96C28.2865 32.8 28.3265 32.76 28.4465 32.76C28.5265 32.76 28.6465 32.68 28.7265 32.56C28.8065 32.44 28.9265 32.36 29.0065 32.36ZM28.6065 31.16C28.7265 31.16 28.7265 31.16 28.6065 31.08C28.4065 30.96 28.2865 30.96 28.3665 31.08C28.4065 31.12 28.4865 31.16 28.6065 31.16ZM29.7665 30.04C30.2065 29.88 30.2065 29.88 30.0865 29.76C30.0065 29.64 30.0065 29.6 30.1265 29.56C30.2065 29.52 30.1665 29.48 30.0865 29.48C29.9265 29.48 29.8465 29.6 29.8865 29.8C29.8865 29.84 29.8465 29.88 29.8065 29.88C29.7265 29.88 29.6865 29.84 29.6865 29.8C29.6865 29.72 29.5665 29.84 29.4065 30L29.0865 30.28L28.8065 30C28.6465 29.84 28.5265 29.68 28.5265 29.6C28.5265 29.56 28.4465 29.48 28.4065 29.48C28.3665 29.48 28.3265 29.56 28.3665 29.64C28.4465 29.8 28.1265 30.08 27.9665 30.04C27.9265 30.04 27.8065 30.08 27.7265 30.16C27.6465 30.24 27.6465 30.28 27.8865 30.28H28.1665L27.9265 30.4C27.7665 30.48 27.6465 30.6 27.6465 30.68C27.6465 30.96 27.4465 31.2 27.2865 31.16C27.0465 31.04 27.0065 31.24 27.2465 31.4C27.5265 31.6 27.6065 31.6 27.6065 31.36C27.6065 31.24 27.6865 31.16 27.7665 31.16C27.9665 31.16 27.8465 31.56 27.5665 31.72C27.2865 31.92 27.2465 32.04 27.4865 32.08C27.8065 32.16 27.8465 32.16 27.7665 32.04C27.7265 32 27.7665 31.84 27.8865 31.76C28.0065 31.6 28.0465 31.4 28.0465 31.08C28.0465 30.8 28.0865 30.6 28.1665 30.6C28.2065 30.6 28.2465 30.68 28.2465 30.72C28.2065 30.76 28.2865 30.76 28.3665 30.72C28.4865 30.68 28.6865 30.76 28.8865 30.96C29.1665 31.16 29.3265 31.2 29.4865 31.16L29.7265 31.08H29.4865C29.3265 31.08 29.1265 31 29.0465 30.88C28.9265 30.76 28.8065 30.68 28.7265 30.68C28.6465 30.68 28.6065 30.6 28.6465 30.52C28.6865 30.44 28.7265 30.32 28.7265 30.24C28.7265 30.2 28.7665 30.24 28.8065 30.36C28.8865 30.56 28.8865 30.56 29.2065 30.4C29.4865 30.24 29.5265 30.24 29.6465 30.4C29.8065 30.6 29.8865 30.64 29.8865 30.44C29.8865 30.32 29.8465 30.28 29.8065 30.32C29.7665 30.36 29.6865 30.32 29.6465 30.24C29.6065 30.12 29.6465 30.04 29.7665 30.04ZM30.5265 32.36C30.6065 32.36 30.6865 32.36 30.6865 32.32C30.6865 32.28 30.6065 32.24 30.5265 32.24C30.4465 32.2 30.4065 32.2 30.4065 32.28C30.4065 32.32 30.4465 32.36 30.5265 32.36ZM30.5265 31.88C30.6065 31.88 30.6865 31.84 30.6865 31.8C30.6865 31.8 30.6065 31.76 30.5265 31.76C30.4465 31.76 30.4065 31.8 30.4065 31.88C30.4065 31.92 30.4465 31.92 30.5265 31.88ZM35.6065 39.8C35.6465 39.72 35.6465 39.64 35.6065 39.6C35.4865 39.52 35.4065 39.68 35.4865 39.8C35.5665 39.92 35.5665 39.92 35.6065 39.8ZM37.3665 35.12C37.3665 35.16 37.4065 35.2 37.4865 35.2C37.5665 35.2 37.6065 35.2 37.6065 35.16C37.6065 35.08 37.4465 35.04 37.3665 35.12ZM37.6865 39.88C37.9265 39.88 37.9665 39.84 37.9665 39.56C37.9665 39.36 37.9265 39.2 37.8865 39.2C37.8065 39.2 37.8465 39.16 37.9265 39.12C38.0065 39.04 38.0065 39 37.8065 38.96C37.6865 38.92 37.5665 38.92 37.4865 39C37.4065 39.08 37.4065 39.08 37.5265 39.08C37.6065 39.08 37.6065 39.12 37.5265 39.24C37.3665 39.44 37.2465 39.44 37.2065 39.2C37.2065 39.12 37.2065 39.08 37.1665 39.16C37.0465 39.4 37.4065 39.84 37.6865 39.88ZM37.9665 40.4C38.0065 40.4 38.0065 40.32 38.0065 40.28C38.0065 40.24 37.9665 40.2 37.9265 40.2C37.8465 40.2 37.8465 40.24 37.8865 40.28C37.8865 40.32 37.9665 40.4 37.9665 40.4ZM57.7262 27.24L57.7662 31.52L56.9662 32.4C56.5662 32.88 54.6062 35.08 52.6062 37.28L49.0062 41.32V51.04H46.4062C44.2862 51.04 43.7662 51 43.7262 50.92C43.6862 50.84 43.6862 50.4 43.6862 50C43.7262 49.2 43.7262 49.2 44.0062 49.2C44.1262 49.2 44.2862 49.16 44.3262 49.12C44.4462 49 44.2462 48.84 44.0862 48.88C43.9662 48.92 43.8462 48.84 43.7662 48.68C43.6062 48.32 43.6462 24.6 43.8062 24.6C43.8862 24.56 43.8862 24.56 43.7662 24.48C43.6462 24.4 43.6862 24.36 43.8862 24.28C44.2062 24.12 44.2062 23.92 43.9262 23.76C43.7262 23.68 43.6862 23.56 43.6862 23.32V23H57.7262V27.24ZM45.8062 49.56C45.8862 49.56 45.9262 49.52 45.8862 49.44C45.8862 49.4 45.8062 49.36 45.7662 49.36C45.6862 49.36 45.6462 49.4 45.6462 49.44C45.6462 49.52 45.7262 49.56 45.8062 49.56ZM46.1662 49.52C46.1662 49.72 46.5262 49.6 46.7662 49.4C46.9262 49.2 46.9662 49.16 46.8062 49C46.7262 48.92 46.6462 48.88 46.6062 48.92C46.6062 48.92 46.4062 48.76 46.2062 48.56C45.8862 48.2 45.6062 48 45.8462 48.28C45.8862 48.36 45.8862 48.52 45.8462 48.64C45.8062 48.88 45.8062 48.88 45.6862 48.72C45.6062 48.6 45.5662 48.56 45.5662 48.64C45.5662 48.72 45.5262 48.72 45.4462 48.72C45.4062 48.68 45.3662 48.6 45.4062 48.56C45.4462 48.48 45.4462 48.44 45.3662 48.44C45.3262 48.44 45.2462 48.56 45.2462 48.64C45.2062 48.8 45.1262 48.84 45.0062 48.8C44.8862 48.76 44.8462 48.76 44.8862 48.8C44.9262 48.84 45.0062 48.88 45.0862 48.88C45.2062 48.92 45.3262 49 45.4062 49.12C45.5262 49.28 45.5662 49.28 45.6462 49.16C45.7262 49.04 45.7662 49.08 45.9262 49.24C46.0462 49.36 46.1662 49.48 46.1662 49.52ZM52.4062 29.56V28.36H49.0062V30.84C49.0062 32.96 49.0462 33.32 49.1662 33.2C49.2462 33.12 50.0062 32.28 50.8462 31.32L52.4062 29.56ZM53.1662 31.16C53.2862 31.32 53.5662 31.28 53.5662 31.12C53.5662 31.08 53.4862 31.04 53.3262 31.04C53.1262 31.04 53.0862 31.04 53.1662 31.16ZM57.0862 23.2C57.1262 23.16 57.1262 23.08 57.0462 23.08C57.0062 23.08 56.9662 23.16 56.9662 23.2C56.9662 23.24 56.9662 23.28 57.0062 23.28C57.0062 23.28 57.0862 23.24 57.0862 23.2ZM67.7046 23H74.4246V51.04H69.0646L69.0246 38.12L65.7046 40.76V50.92H60.3846V37.72C60.3846 30.48 60.4246 24.6 60.4246 24.72C60.5046 25 60.6246 24.92 60.6246 24.56C60.6646 24.32 60.6246 24.28 60.5046 24.32C60.3846 24.36 60.3846 24.28 60.3846 23.84C60.3846 23.52 60.3846 23.32 60.4646 23.32C60.5046 23.36 60.5846 23.32 60.6246 23.2C60.6646 23.04 60.7046 23 60.7446 23.08C60.8246 23.2 60.8646 23.2 60.9046 23.12C60.9446 23.04 62.9046 23 67.7046 23ZM67.5046 26.2C67.4246 26.2 67.3846 26.2 67.3846 26.28C67.3846 26.32 67.4246 26.36 67.5046 26.36C67.5446 26.36 67.5846 26.36 67.5846 26.32C67.5846 26.28 67.5446 26.24 67.5046 26.2ZM66.2246 26.24C66.0646 26.28 66.1046 26.48 66.2246 26.8C66.3446 27.08 66.5846 27.12 67.1046 26.96C67.2646 26.92 67.3446 26.84 67.3046 26.72C67.3046 26.6 67.2246 26.48 67.1846 26.48C67.1446 26.44 67.1446 26.4 67.2246 26.32C67.3046 26.2 67.3046 26.16 67.1446 26.16C67.0246 26.16 66.9046 26.24 66.8246 26.28C66.7446 26.36 66.6646 26.36 66.6246 26.32C66.5846 26.24 66.5046 26.2 66.4246 26.24C66.3846 26.24 66.2646 26.24 66.2246 26.24ZM63.4646 44.24C63.2246 44.24 63.2246 44.24 63.3846 44.4C63.5046 44.52 63.6246 44.6 63.6646 44.6C63.7446 44.6 63.7046 44.56 63.6246 44.48C63.5446 44.44 63.5446 44.4 63.6246 44.4C63.6646 44.4 63.7446 44.36 63.7446 44.32C63.7446 44.28 63.6246 44.24 63.4646 44.24ZM63.0246 33.84C62.9846 33.8 62.9446 33.84 62.9446 33.88C62.9446 33.96 62.9846 34 63.0246 34C63.1046 34 63.1446 33.96 63.1446 33.96C63.1446 33.92 63.1046 33.88 63.0246 33.84ZM62.4246 24.4C62.3446 24.6 62.4246 24.92 62.5446 24.84C62.5846 24.8 62.6246 24.68 62.5846 24.56C62.5846 24.44 62.5446 24.32 62.5446 24.28C62.5446 24.24 62.5046 24.32 62.4246 24.4ZM61.2246 26.36C61.1446 26.44 61.1446 26.48 61.2246 26.56C61.3046 26.6 61.3446 26.68 61.3446 26.72C61.3446 26.76 61.3446 26.84 61.3446 26.92C61.3846 26.96 61.3846 26.92 61.4246 26.76C61.4646 26.64 61.4246 26.48 61.4246 26.4C61.3446 26.28 61.3046 26.24 61.2246 26.36ZM62.6246 33.6C62.7046 33.72 62.7846 33.72 62.8646 33.6C63.0246 33.44 62.9046 33.36 62.5046 33.36C62.1846 33.36 61.9446 33.2 61.9446 33C61.9446 32.96 61.8646 32.88 61.7446 32.84C61.5846 32.8 61.4646 32.84 61.2646 33.04C61.1446 33.2 61.1046 33.36 61.1446 33.4C61.1846 33.44 61.2646 33.56 61.3046 33.72L61.3846 34L61.8646 33.8C62.1046 33.68 62.3446 33.64 62.3846 33.68C62.4246 33.72 62.4646 33.68 62.4246 33.64C62.3046 33.48 62.4646 33.48 62.6246 33.6ZM62.7446 44.56C62.7446 44.68 62.9046 44.76 63.0646 44.8C63.1046 44.8 63.1446 44.72 63.1846 44.64C63.2646 44.4 63.2646 44.36 63.1446 44.48C63.0646 44.52 62.9446 44.56 62.8646 44.52C62.7846 44.48 62.7446 44.52 62.7446 44.56ZM64.1046 45.36C64.1046 45.32 64.0646 45.28 63.9846 45.28C63.9046 45.28 63.8246 45.24 63.8246 45.2C63.8246 45.12 63.7046 45.08 63.5846 45.08C63.3846 45.08 63.3446 45.16 63.3446 45.32C63.3446 45.52 63.3446 45.52 63.1846 45.36C63.1046 45.24 63.0246 45.2 63.0246 45.24C63.0246 45.48 63.2646 45.56 63.4646 45.48C63.5846 45.4 63.7446 45.4 63.8246 45.4C63.9446 45.44 64.0646 45.44 64.1046 45.36ZM65.1046 37.36C65.0646 37.36 65.0246 37.4 65.0646 37.48C65.1046 37.52 65.1446 37.56 65.1846 37.56C65.1846 37.56 65.2246 37.52 65.2246 37.48C65.2246 37.4 65.1846 37.36 65.1046 37.36ZM65.1846 45.4C65.2646 45.4 65.3046 45.32 65.3046 45.24C65.3046 45.16 65.2646 45.08 65.2246 45.08C65.1846 45.08 65.1046 45.16 65.1046 45.24C65.0646 45.32 65.0646 45.4 65.1846 45.4ZM69.0646 36.08V28.36H65.7046V36.08H69.0646ZM73.4246 47.28C73.3846 47.28 73.3446 47.32 73.3446 47.4C73.3446 47.48 73.3846 47.56 73.4246 47.56C73.5046 47.56 73.5446 47.48 73.5446 47.4C73.5446 47.32 73.5046 47.28 73.4246 47.28ZM73.3446 48.2C73.3446 48.2 73.3046 48.16 73.2246 48.12C73.1846 48.08 73.1446 48.08 73.1446 48.16C73.1446 48.2 73.1846 48.24 73.2246 48.24C73.3046 48.24 73.3446 48.24 73.3446 48.2ZM72.0646 41.64C72.1846 41.56 72.1446 41.52 71.9046 41.52C71.6246 41.52 71.6246 41.52 71.8246 41.36C71.9846 41.24 71.9846 41.2 71.7846 41.32C71.5446 41.44 71.5046 41.52 71.6246 41.64C71.7046 41.76 71.8646 41.72 72.0646 41.64ZM73.1046 47.88C73.0646 47.92 73.0646 47.96 73.1446 47.96C73.1846 47.96 73.2246 47.92 73.2246 47.88C73.2246 47.8 73.2246 47.76 73.1846 47.76C73.1846 47.76 73.1446 47.8 73.1046 47.88ZM73.4646 49.8C73.6246 49.6 73.6246 49.56 73.5446 49.36C73.3446 49.08 73.1846 49.08 73.1046 49.4C73.1046 49.52 73.1046 49.64 73.1446 49.64C73.2246 49.64 73.2246 49.72 73.2246 49.8C73.2246 49.96 73.2646 49.96 73.4646 49.8ZM92.3312 30.76C92.1712 31 91.9712 31.04 92.0112 30.8C92.0512 30.72 91.9712 30.6 91.8512 30.56C91.6512 30.48 91.6112 30.52 91.6112 30.64C91.6112 30.76 91.4912 30.8 91.2512 30.76C91.1712 30.76 91.0912 30.8 91.0912 30.84C91.0512 30.88 91.1712 30.92 91.3712 30.92C91.8912 30.88 92.1712 31.04 92.0112 31.2C91.9312 31.28 91.8512 31.32 91.7712 31.28C91.5712 31.24 91.4512 31.48 91.6112 31.56C91.6912 31.6 91.6912 31.68 91.6512 31.76C91.6112 31.84 91.5712 31.84 91.4512 31.76C91.3712 31.68 91.3312 31.68 91.3712 31.84C91.4112 32 91.2512 32.32 90.8912 32.92L90.3312 33.72H87.1312C85.4112 33.72 83.9712 33.72 83.9712 33.64C83.9712 33.6 84.6912 32.52 85.5712 31.24C86.6512 29.64 87.1312 28.84 87.1312 28.68V28.4H83.7712V36.6H83.4912C83.2512 36.6 83.2112 36.64 83.1712 36.92C83.0912 37.32 83.1712 37.8 83.2912 37.76C83.3312 37.72 83.3712 37.64 83.3312 37.6C83.2912 37.56 83.3712 37.56 83.5312 37.6L83.7712 37.72V41.32L83.4912 41.44C83.1312 41.6 83.0912 41.8 83.4112 41.68C83.6112 41.6 83.6912 41.6 83.7312 41.72C83.7712 41.8 83.7712 42.76 83.7712 43.8V45.72H87.2512L87.2112 45.28C87.1712 45.04 87.2112 44.84 87.2112 44.84C87.2512 44.84 87.3712 44.96 87.4512 45.08C87.5712 45.24 87.6912 45.32 87.7712 45.28C87.9312 45.16 87.8512 45.04 87.4912 44.8L87.1312 44.6L87.2112 42.92L87.7712 42.88C88.2512 42.84 88.3712 42.88 88.4112 43.04C88.4512 43.12 88.5312 43.24 88.5712 43.28C88.7312 43.36 88.9312 43.24 88.8912 43.08C88.8912 42.92 89.0912 42.88 90.6912 42.88L92.4912 42.84V43.44C92.4912 43.84 92.4512 44.04 92.4112 44C92.3312 43.96 92.2912 44 92.2912 44.08C92.2912 44.2 92.2112 44.24 91.9312 44.24C91.6912 44.2 91.5712 44.24 91.4512 44.4C91.3712 44.48 91.3312 44.6 91.3712 44.64C91.3712 44.68 91.3312 44.72 91.2112 44.72C91.0912 44.72 91.0512 44.68 91.0912 44.6C91.0912 44.52 91.0512 44.4 90.9712 44.36C90.7712 44.32 90.7712 44.16 90.9712 43.96C91.1712 43.8 91.0112 43.64 90.6512 43.64C90.5312 43.64 90.4112 43.6 90.3712 43.56C90.3312 43.48 90.2512 43.48 90.2112 43.52C90.1712 43.52 90.0512 43.52 89.9312 43.44C89.8112 43.4 89.7312 43.4 89.6912 43.44C89.6512 43.48 89.4112 43.52 89.1312 43.48C88.6512 43.44 88.6112 43.44 88.6512 43.6C88.6912 43.68 88.7312 43.8 88.7312 43.84C88.7312 43.88 88.8112 44 88.8912 44.08C88.9712 44.16 89.0112 44.24 88.9312 44.24C88.8912 44.24 88.8512 44.32 88.8512 44.4C88.8512 44.48 88.7712 44.52 88.7312 44.48C88.6512 44.44 88.6512 44.44 88.6912 44.52C88.7312 44.6 88.8112 44.64 88.8912 44.6C88.9712 44.56 89.0512 44.6 89.0512 44.64C89.0512 44.68 89.0912 44.72 89.1312 44.72C89.1712 44.72 89.2112 44.64 89.1712 44.56C89.0912 44.4 89.1312 44.4 89.2512 44.52C89.3312 44.56 89.4112 44.6 89.4512 44.56C89.4912 44.52 89.6112 44.48 89.7712 44.48C90.4112 44.36 90.6112 44.48 90.4112 44.84C90.2912 45 90.2912 45.04 90.4112 45.12C90.4912 45.2 90.5312 45.24 90.4912 45.24C90.4512 45.24 90.5312 45.32 90.6912 45.48C90.8512 45.6 90.9312 45.76 90.8912 45.8C90.8512 45.84 90.7712 45.8 90.7312 45.76C90.6912 45.68 90.5712 45.68 90.3312 45.8C90.1712 45.84 90.0512 45.96 90.0512 46C90.0912 46.08 90.0512 46.12 90.0112 46.16C89.8912 46.2 89.9312 46.28 90.0512 46.52C90.2112 46.8 90.2112 46.8 90.0112 46.8C89.7712 46.8 89.7712 47 89.9712 47.08C90.0512 47.12 90.0912 47.2 90.0912 47.28C90.0112 47.44 90.0512 47.44 90.1312 47.32C90.2912 47.12 90.5712 47.12 90.5712 47.32C90.6112 47.64 90.6112 47.72 90.9312 47.84C91.0912 47.92 91.3312 47.96 91.4912 47.96C91.7312 47.88 91.8112 47.92 91.8512 48.08C91.8912 48.24 92.0112 48.32 92.2112 48.32H92.4912V49.28C92.4912 49.92 92.4512 50.28 92.4112 50.28C92.3312 50.28 92.3312 50.36 92.4112 50.48C92.4912 50.6 92.4912 50.68 92.4112 50.68C92.3312 50.68 92.2912 50.6 92.2912 50.52C92.2912 50.44 92.2512 50.36 92.1712 50.32C92.0912 50.28 92.0512 50.2 92.0512 50.16C92.0912 50.12 92.0512 50.08 91.9312 50.12C91.8112 50.16 91.6112 50.2 91.4912 50.24C91.4112 50.28 91.2912 50.4 91.2912 50.48C91.2912 50.6 91.2912 50.72 91.2912 50.76C91.2912 50.8 91.3712 50.84 91.4512 50.84C91.5712 50.88 91.6112 50.84 91.5312 50.8C91.3712 50.76 91.4512 50.6 91.6512 50.6C91.7312 50.6 91.8112 50.68 91.8512 50.76C91.8912 50.96 91.8112 50.96 88.0512 50.96C85.0512 50.92 84.2512 50.92 84.2512 50.8C84.2912 50.64 84.1312 50.64 83.9712 50.84C83.8112 51.04 82.4112 51.04 82.4112 50.8C82.4112 50.72 82.3312 50.68 82.2512 50.72C82.1712 50.76 82.0512 50.8 82.0112 50.8C81.9712 50.8 82.0112 50.84 82.0912 50.88C82.2112 50.96 82.2112 50.96 82.0912 50.96C82.0112 50.96 81.8512 50.88 81.7312 50.76C81.4912 50.52 81.0512 50.6 81.1312 50.84C81.1712 50.96 80.9712 50.96 79.8112 50.96H78.4512V23.04H92.4912V26.8C92.4912 30 92.4912 30.56 92.3312 30.76ZM79.6512 29.04C79.6912 29.12 79.8512 29.16 79.9712 29.12C80.1312 29.08 80.2112 29.12 80.2112 29.2C80.2112 29.24 80.2912 29.28 80.3712 29.24C80.4912 29.2 80.6512 29.16 80.7712 29.16C80.8912 29.12 81.0112 29.08 81.0112 29.04C81.0112 29 81.0912 29 81.1712 29C81.2512 29.04 81.3312 29.04 81.3712 28.96C81.4112 28.88 81.3712 28.88 81.3312 28.92C81.2512 28.96 81.2112 28.96 81.2112 28.92C81.2112 28.8 80.8512 28.68 80.7712 28.76C80.7312 28.8 80.4912 28.84 80.2512 28.84C79.4912 28.92 79.5312 28.92 79.6512 29.04ZM80.8512 47.92C81.0112 48 81.1312 47.96 81.1712 47.84C81.2112 47.8 81.0912 47.76 80.9712 47.72C80.6912 47.72 80.6112 47.84 80.8512 47.92ZM80.8912 32.04C80.9312 32.2 81.0912 32.2 81.2512 31.92C81.4512 31.64 81.4512 31.56 81.2112 31.56C81.0112 31.56 80.8112 31.84 80.8912 32.04ZM81.5712 49.8C81.6112 49.72 81.4512 49.68 81.0112 49.68C80.6512 49.68 80.4112 49.72 80.4112 49.8C80.4112 49.84 80.3312 49.88 80.2112 49.84C80.0912 49.8 80.0112 49.8 80.0512 49.88C80.1312 50 81.5312 49.96 81.5712 49.8ZM81.5712 29.32C81.6512 29.32 81.8112 29.32 81.8912 29.24C81.9712 29.2 82.0112 29.2 82.0112 29.28C82.0112 29.36 82.0112 29.4 82.0512 29.36C82.0912 29.32 82.0912 29.24 82.0112 29.16C81.9712 29.08 81.9312 29 81.9712 28.96C82.0112 28.92 81.9712 28.88 81.9312 28.88C81.8512 28.88 81.8112 28.92 81.8112 29C81.8112 29.04 81.7712 29.08 81.7312 29.04C81.6512 29 81.5712 29.04 81.4912 29.12C81.4112 29.24 81.4112 29.28 81.5712 29.32ZM82.8112 41.76C82.9712 41.76 83.0112 41.72 82.9312 41.4C82.8512 40.96 82.8912 40.96 82.6112 41.04C82.4512 41.08 82.4112 41.16 82.4112 41.44C82.4112 41.76 82.3712 41.8 82.0912 41.72C81.9312 41.68 81.7712 41.72 81.7712 41.76C81.7312 41.8 81.7712 41.88 81.8912 41.88C82.1712 41.96 82.4912 41.84 82.4912 41.68C82.4912 41.56 82.5312 41.56 82.5712 41.64C82.5712 41.72 82.6912 41.76 82.8112 41.76ZM82.9712 27.2C83.0912 27.2 83.0912 27.16 82.9312 27C82.8112 26.88 82.8112 26.8 82.8512 26.84C83.0512 26.96 83.0112 26.68 82.8112 26.56C82.5712 26.36 82.1712 26.36 81.8912 26.6C81.7712 26.72 81.6112 26.76 81.5712 26.72C81.4112 26.52 81.2512 26.72 81.2912 27.04C81.3312 27.36 81.5312 27.6 81.7712 27.6C81.8512 27.6 81.8912 27.52 81.8512 27.36C81.8112 27.2 81.8112 27.12 81.8912 27.12C81.9312 27.12 82.0112 27.16 82.0112 27.2C82.0112 27.24 82.0912 27.24 82.2112 27.24C82.3712 27.16 82.4112 27.2 82.3312 27.4C82.2912 27.56 82.2912 27.6 82.4512 27.56C82.5712 27.56 82.6512 27.48 82.6112 27.36C82.6112 27.2 82.6912 27.16 82.9712 27.2ZM90.5312 47.96C90.5312 48.04 90.5312 48.12 90.5712 48.08C90.6112 48.04 90.6112 47.96 90.5712 47.88C90.5712 47.8 90.5312 47.84 90.5312 47.96ZM89.8912 48.12C89.8512 48.16 89.8912 48.2 89.9712 48.2C90.0512 48.2 90.1312 48.16 90.1312 48.12C90.1312 48.04 90.0912 48 90.0112 48C89.9712 48 89.8912 48.04 89.8912 48.12ZM89.7312 44.84C89.5312 44.48 89.4112 44.64 89.4512 45.2C89.4512 45.52 89.5312 45.72 89.6112 45.72C89.6512 45.72 89.7312 45.68 89.7312 45.6C89.7312 45.56 89.8112 45.52 89.8912 45.56C89.9712 45.6 90.0112 45.56 90.0112 45.48C90.0112 45.4 89.9312 45.32 89.8112 45.28C89.6512 45.24 89.6512 45.2 89.6912 45.12C89.7712 45.04 89.7712 44.96 89.7312 44.84ZM89.5312 46.88C89.4912 46.84 89.4112 46.8 89.4112 46.88C89.4112 47 89.5312 47.12 89.6112 47.08C89.6512 47.04 89.6112 46.96 89.5312 46.88ZM87.0912 48.88C87.0112 48.88 86.9712 48.96 86.9712 49.04C86.9712 49.16 87.0512 49.16 87.3712 49.08C87.6112 49.04 87.9712 48.96 88.1712 49C88.6112 49 88.8112 48.72 88.7712 48.28C88.7312 48 88.7312 48 88.8912 48.08C89.0112 48.2 89.0912 48.16 89.0512 48C89.0512 47.96 89.0912 47.92 89.1712 47.96C89.2512 48 89.2912 47.92 89.2912 47.76C89.3312 47.44 89.2512 47.44 88.9312 47.72C88.7312 47.84 88.6512 47.88 88.5712 47.8C88.4912 47.72 88.3712 47.76 88.2112 47.88C88.0512 48.04 87.9312 48.08 87.8512 48C87.7712 47.88 87.6912 47.96 87.4912 48.16C87.3712 48.32 87.2512 48.52 87.2512 48.64C87.2512 48.72 87.1712 48.84 87.0912 48.88ZM85.3712 23.92C85.3312 23.92 85.2512 23.96 85.2512 24.04C85.2512 24.08 85.3312 24.12 85.3712 24.12C85.4112 24.12 85.4512 24.08 85.4512 24.04C85.4512 23.96 85.4112 23.92 85.3712 23.92ZM85.2512 24.32C85.2112 24.32 85.1712 24.36 85.2112 24.44C85.2512 24.48 85.2912 24.52 85.3312 24.52C85.3312 24.52 85.3712 24.48 85.3712 24.44C85.3712 24.36 85.3312 24.32 85.2512 24.32ZM85.4512 26.24C85.4912 26.16 85.5712 26 85.5712 25.96C85.5712 25.76 85.1712 25.56 85.0912 25.68C85.0512 25.76 84.9312 25.8 84.8112 25.84C84.5712 25.88 84.3712 26.2 84.4912 26.36C84.6112 26.56 85.2912 26.44 85.4512 26.24ZM88.7712 24.28C88.9312 24.32 89.1712 24.08 89.0512 24C88.8912 23.88 86.0512 23.92 86.0512 24.04C86.0512 24.08 86.0912 24.24 86.1712 24.36C86.2512 24.52 86.3712 24.6 86.6112 24.6C86.8112 24.6 87.0112 24.64 87.0512 24.68C87.0912 24.68 87.1712 24.64 87.2512 24.56C87.3312 24.48 87.4512 24.44 87.5312 24.44C87.6512 24.44 87.6512 24.44 87.5312 24.56C87.4512 24.72 87.4512 24.72 87.7312 24.68C87.9312 24.64 88.0512 24.64 88.0512 24.72C88.0512 24.96 88.3312 24.8 88.4912 24.52C88.5712 24.32 88.6912 24.24 88.7712 24.28ZM90.5712 25.32C90.6512 25.48 90.9312 25.44 90.9312 25.24C90.9312 25.16 90.8512 25.12 90.7712 25.16C90.6912 25.2 90.5712 25.2 90.5712 25.2C90.5312 25.2 90.5312 25.28 90.5712 25.32ZM91.2112 31.12C91.2112 31.12 91.0912 31.08 90.9312 31.04C90.7712 31 90.6112 31.04 90.6112 31.08C90.6112 31.12 90.7712 31.16 90.9312 31.16C91.0912 31.16 91.2112 31.16 91.2112 31.12ZM104.494 40.68L109.854 36.68V51H96.0137L95.8937 50.8C95.7737 50.52 95.8137 48.88 95.9337 48.76C96.0937 48.64 96.0937 48.24 95.9737 48.12C95.7737 48.04 95.7337 44.52 95.8937 44.32C95.9737 44.24 96.0937 44.2 96.2537 44.24C96.4137 44.28 96.6537 44.24 96.7737 44.2L97.0137 44.12L96.7737 44C96.6537 43.92 96.3737 43.84 96.1737 43.84H95.8137V23.08H109.854L109.814 30.24L107.214 30.84C105.814 31.2 104.614 31.44 104.574 31.44C104.494 31.4 104.494 28.88 104.574 28.8C104.614 28.76 104.694 28.8 104.774 28.84C104.894 28.92 104.894 28.92 104.894 28.84C104.854 28.76 104.934 28.68 105.094 28.64C105.214 28.64 105.294 28.6 105.294 28.52C105.294 28.44 104.774 28.2 104.734 28.32C104.694 28.36 104.494 28.36 104.214 28.32C103.974 28.32 103.574 28.28 103.374 28.32C103.134 28.32 102.574 28.36 102.054 28.4L101.134 28.44V30.68C101.134 31.88 101.174 32.88 101.214 32.88C101.254 32.88 101.374 32.8 101.494 32.68C101.654 32.48 101.774 32.48 105.974 32.48H110.254L105.654 36.16L104.254 37.28C104.014 37.48 103.374 37.96 102.694 38.52L101.134 39.76V45.76H104.494V40.68ZM96.0937 33.84C96.1337 33.8 96.1737 33.72 96.1737 33.64C96.1737 33.52 96.1337 33.48 96.0937 33.52C96.0137 33.56 95.9737 33.68 95.9737 33.76C95.9737 33.84 96.0137 33.88 96.0937 33.84ZM97.0137 24.24C97.0937 24.52 97.0937 24.52 97.4537 24.36C97.6137 24.28 97.7337 24.24 97.8137 24.24C97.8537 24.28 97.8537 24.16 97.8537 24.04C97.8537 23.88 97.8937 23.72 97.9337 23.64C97.9337 23.6 97.8937 23.44 97.8137 23.32C97.6937 23.12 97.6937 23.12 97.6937 23.32C97.7337 23.48 97.6537 23.52 97.4937 23.56C97.3337 23.6 97.2937 23.56 97.3337 23.48C97.3737 23.4 97.3337 23.36 97.2537 23.4C97.1737 23.44 97.0137 23.4 96.8537 23.32C96.5737 23.16 96.4137 23.28 96.6137 23.48C96.6937 23.52 96.7337 23.68 96.6937 23.76C96.6537 23.92 96.6937 23.96 96.8137 23.96C96.8937 23.96 96.9737 24.08 97.0137 24.24ZM97.1737 36.4C97.3337 36.56 97.4537 36.52 97.4537 36.32C97.4537 36.16 97.4537 36.12 97.2137 36.24C97.0937 36.28 97.0937 36.32 97.1737 36.4ZM97.8937 27.84C97.8137 27.68 97.4537 27.92 97.4937 28.12C97.4937 28.36 97.8537 28.76 97.9737 28.68C98.0137 28.64 98.0537 28.68 98.0537 28.72C98.0537 28.96 98.4137 28.76 98.5737 28.44C98.8137 28.08 98.7737 28 98.2937 27.96C98.0937 27.96 97.8937 27.88 97.8937 27.84ZM97.8137 29.32C97.7737 29.36 97.8937 29.36 98.0137 29.28C98.2537 29.2 98.2537 29.16 98.0937 29C97.9337 28.84 97.9337 28.84 97.7737 29C97.6537 29.12 97.6537 29.16 97.7337 29.2C97.8137 29.24 97.8537 29.28 97.8137 29.32ZM97.8537 31.04C97.8537 30.96 97.8137 30.92 97.7737 30.92C97.6537 30.92 97.5737 31.16 97.6537 31.24C97.7337 31.32 97.8537 31.2 97.8537 31.04ZM97.7737 35.96C97.6137 35.88 97.5737 35.88 97.6137 36C97.6137 36.04 97.6537 36.16 97.7337 36.2C97.8537 36.28 97.8537 36.28 97.9337 36.16C97.9337 36.12 97.8937 36.04 97.7737 35.96ZM98.7337 36.96C98.9337 36.96 98.7737 36.68 98.5737 36.64C98.4137 36.6 98.3737 36.64 98.3737 36.76C98.3737 36.84 98.2937 37 98.2137 37.04C98.1337 37.12 98.0937 37.24 98.1337 37.28C98.1737 37.36 98.1337 37.32 98.0137 37.24C97.8937 37.12 97.8537 37.12 97.6937 37.28C97.5737 37.4 97.5737 37.44 97.6937 37.6C97.7737 37.68 97.8537 37.72 97.9337 37.68C97.9737 37.68 98.0937 37.6 98.1737 37.6C98.2937 37.56 98.3737 37.44 98.4137 37.32C98.4537 37.24 98.5337 37.16 98.6137 37.16C98.6937 37.16 98.7337 37.12 98.6937 37.04C98.6937 37 98.6937 36.96 98.7337 36.96ZM100.574 38.16C100.694 38.16 100.694 38.08 100.654 37.96C100.654 37.84 100.574 37.76 100.534 37.8C100.374 37.88 100.414 38.16 100.574 38.16Z" fill="#94DEA5"/>
</svg>
