<svg width="23" height="25" viewBox="0 0 23 25" fill="none" xmlns="http://www.w3.org/2000/svg">
<g clip-path="url(#clip0_1136_1939)">
<path d="M20.6464 8.99556C20.5072 9.10356 18.0496 10.4884 18.0496 13.5676C18.0496 17.1292 21.1768 18.3892 21.2704 18.4204C21.256 18.4972 20.7736 20.146 19.6216 21.826C18.5944 23.3044 17.5216 24.7804 15.8896 24.7804C14.2576 24.7804 13.8376 23.8324 11.9536 23.8324C10.1176 23.8324 9.4648 24.8116 7.972 24.8116C6.4792 24.8116 5.4376 23.4436 4.24 21.7636C2.8528 19.7908 1.732 16.726 1.732 13.8172C1.732 9.15156 4.7656 6.67716 7.7512 6.67716C9.3376 6.67716 10.66 7.71877 11.656 7.71877C12.604 7.71877 14.0824 6.61476 15.8872 6.61476C16.5712 6.61476 19.0288 6.67716 20.6464 8.99556ZM15.0304 4.63956C15.7768 3.75396 16.3048 2.52516 16.3048 1.29636C16.3048 1.12596 16.2904 0.953165 16.2592 0.813965C15.0448 0.859565 13.6 1.62276 12.7288 2.63316C12.0448 3.41076 11.4064 4.63956 11.4064 5.88516C11.4064 6.07236 11.4376 6.25956 11.452 6.31956C11.5288 6.33396 11.6536 6.35076 11.7784 6.35076C12.868 6.35076 14.2384 5.62116 15.0304 4.63956Z" fill="#262626"/>
</g>
<defs>
<clipPath id="clip0_1136_1939">
<rect width="23" height="24" fill="white" transform="translate(0 0.906982)"/>
</clipPath>
</defs>
</svg>
